<?xml version="1.0" encoding="UTF-8" standalone="no"?><svg xmlns="http://www.w3.org/2000/svg" xmlns:xlink="http://www.w3.org/1999/xlink" clip-rule="evenodd" stroke-miterlimit="4.00" viewBox="0 0 1024 768"><desc>SVG generated by Keynote</desc><defs></defs><g transform="matrix(1.00, 0.00, -0.00, -1.00, 0.0, 768.0)"><g><clipPath id="clip-29"><path d="M 0.0 768.0 L 1024.0 768.0 L 1024.0 0.0 L 0.0 0.0 Z M 0.0 768.0 "></path></clipPath><g clip-path="url(#clip-29)"><image xlink:href="../../363ACDF5-F69A-4348-A617-267FC1DCB792/assets/2CA05975C404A6B79EB2D17D5C3EEC1C.jpeg" width="1024.00" height="768.00" transform="matrix(1.00, 0.00, -0.00, -1.00, 0.0, 768.0)"></image></g></g><image xlink:href="70B0B394A57552822D179CB8E2247077.png" width="576.00" height="66.00" transform="matrix(1.00, 0.00, -0.00, -1.00, 225.0, 692.0)"></image><text xml:space="preserve" font-family="HelveticaNeue-Bold" font-weight="bold" font-size="64.0" fill="#FEFFFE" transform="matrix(1.00, 0.00, -0.00, -1.00, 225.0, 644.0)">E</text><text xml:space="preserve" font-family="HelveticaNeue-Bold" font-weight="bold" font-size="64.0" fill="#FEFFFE" transform="matrix(1.00, 0.00, -0.00, -1.00, 266.5, 644.0)">x</text><text xml:space="preserve" font-family="HelveticaNeue-Bold" font-weight="bold" font-size="64.0" fill="#FEFFFE" transform="matrix(1.00, 0.00, -0.00, -1.00, 300.8, 644.0)">a</text><text xml:space="preserve" font-family="HelveticaNeue-Bold" font-weight="bold" font-size="64.0" fill="#FEFFFE" transform="matrix(1.00, 0.00, -0.00, -1.00, 337.6, 644.0)">m</text><text xml:space="preserve" font-family="HelveticaNeue-Bold" font-weight="bold" font-size="64.0" fill="#FEFFFE" transform="matrix(1.00, 0.00, -0.00, -1.00, 395.6, 644.0)">p</text><text xml:space="preserve" font-family="HelveticaNeue-Bold" font-weight="bold" font-size="64.0" fill="#FEFFFE" transform="matrix(1.00, 0.00, -0.00, -1.00, 434.7, 644.0)">l</text><text xml:space="preserve" font-family="HelveticaNeue-Bold" font-weight="bold" font-size="64.0" fill="#FEFFFE" transform="matrix(1.00, 0.00, -0.00, -1.00, 451.2, 644.0)">e</text><text xml:space="preserve" font-family="HelveticaNeue-Bold" font-weight="bold" font-size="64.0" fill="#FEFFFE" transform="matrix(1.00, 0.00, -0.00, -1.00, 487.9, 644.0)"> </text><text xml:space="preserve" font-family="HelveticaNeue-Bold" font-weight="bold" font-size="64.0" fill="#FEFFFE" transform="matrix(1.00, 0.00, -0.00, -1.00, 505.7, 644.0)">D</text><text xml:space="preserve" font-family="HelveticaNeue-Bold" font-weight="bold" font-size="64.0" fill="#FEFFFE" transform="matrix(1.00, 0.00, -0.00, -1.00, 553.1, 644.0)">e</text><text xml:space="preserve" font-family="HelveticaNeue-Bold" font-weight="bold" font-size="64.0" fill="#FEFFFE" transform="matrix(1.00, 0.00, -0.00, -1.00, 589.9, 644.0)">ﬁ</text><text xml:space="preserve" font-family="HelveticaNeue-Bold" font-weight="bold" font-size="64.0" fill="#FEFFFE" transform="matrix(1.00, 0.00, -0.00, -1.00, 629.0, 644.0)">n</text><text xml:space="preserve" font-family="HelveticaNeue-Bold" font-weight="bold" font-size="64.0" fill="#FEFFFE" transform="matrix(1.00, 0.00, -0.00, -1.00, 666.9, 644.0)">i</text><text xml:space="preserve" font-family="HelveticaNeue-Bold" font-weight="bold" font-size="64.0" fill="#FEFFFE" transform="matrix(1.00, 0.00, -0.00, -1.00, 683.4, 644.0)">t</text><text xml:space="preserve" font-family="HelveticaNeue-Bold" font-weight="bold" font-size="64.0" fill="#FEFFFE" transform="matrix(1.00, 0.00, -0.00, -1.00, 706.0, 644.0)">i</text><text xml:space="preserve" font-family="HelveticaNeue-Bold" font-weight="bold" font-size="64.0" fill="#FEFFFE" transform="matrix(1.00, 0.00, -0.00, -1.00, 722.5, 644.0)">o</text><text xml:space="preserve" font-family="HelveticaNeue-Bold" font-weight="bold" font-size="64.0" fill="#FEFFFE" transform="matrix(1.00, 0.00, -0.00, -1.00, 761.6, 644.0)">n</text><text xml:space="preserve" font-family="HelveticaNeue-Bold" font-weight="bold" font-size="64.0" fill="#FEFFFE" transform="matrix(1.00, 0.00, -0.00, -1.00, 799.5, 644.0)"> </text><image xlink:href="7D360F15E6E68D2A35773B98E25571B0.png" width="14.00" height="14.00" transform="matrix(1.00, 0.00, -0.00, -1.00, 62.0, 557.0)"></image><text xml:space="preserve" font-family="HelveticaNeue-Medium" font-size="19.5" fill="#EAEAEA" transform="matrix(1.00, 0.00, -0.00, -1.00, 64.0, 544.9)">•</text><image xlink:href="A0E40E51BD9538CC790DD62024ECFDCA.png" width="115.00" height="30.00" transform="matrix(1.00, 0.00, -0.00, -1.00, 87.0, 562.0)"></image><text xml:space="preserve" font-family="HelveticaNeue-Medium" font-size="26.0" fill="#EAEAEA" transform="matrix(1.00, 0.00, -0.00, -1.00, 89.0, 542.0)">E</text><text xml:space="preserve" font-family="HelveticaNeue-Medium" font-size="26.0" fill="#EAEAEA" transform="matrix(1.00, 0.00, -0.00, -1.00, 105.4, 542.0)">x</text><text xml:space="preserve" font-family="HelveticaNeue-Medium" font-size="26.0" fill="#EAEAEA" transform="matrix(1.00, 0.00, -0.00, -1.00, 119.3, 542.0)">a</text><text xml:space="preserve" font-family="HelveticaNeue-Medium" font-size="26.0" fill="#EAEAEA" transform="matrix(1.00, 0.00, -0.00, -1.00, 133.8, 542.0)">m</text><text xml:space="preserve" font-family="HelveticaNeue-Medium" font-size="26.0" fill="#EAEAEA" transform="matrix(1.00, 0.00, -0.00, -1.00, 156.4, 542.0)">p</text><text xml:space="preserve" font-family="HelveticaNeue-Medium" font-size="26.0" fill="#EAEAEA" transform="matrix(1.00, 0.00, -0.00, -1.00, 172.3, 542.0)">l</text><text xml:space="preserve" font-family="HelveticaNeue-Medium" font-size="26.0" fill="#EAEAEA" transform="matrix(1.00, 0.00, -0.00, -1.00, 178.6, 542.0)">e</text><text xml:space="preserve" font-family="HelveticaNeue-Medium" font-size="26.0" fill="#EAEAEA" transform="matrix(1.00, 0.00, -0.00, -1.00, 193.0, 542.0)">:</text><text xml:space="preserve" font-family="HelveticaNeue-Medium" font-size="26.0" fill="#EAEAEA" transform="matrix(1.00, 0.00, -0.00, -1.00, 200.3, 542.0)"> </text><image xlink:href="BD8D2241A79ABA95507632579DE56D79.png" width="171.00" height="29.00" transform="matrix(1.00, 0.00, -0.00, -1.00, 62.0, 499.0)"></image><text xml:space="preserve" font-family="AndaleMono" font-size="26.0" fill="#EAEAEA" transform="matrix(1.00, 0.00, -0.00, -1.00, 64.0, 479.0)">d</text><text xml:space="preserve" font-family="AndaleMono" font-size="26.0" fill="#EAEAEA" transform="matrix(1.00, 0.00, -0.00, -1.00, 79.6, 479.0)">e</text><text xml:space="preserve" font-family="AndaleMono" font-size="26.0" fill="#EAEAEA" transform="matrix(1.00, 0.00, -0.00, -1.00, 95.2, 479.0)">f</text><text xml:space="preserve" font-family="AndaleMono" font-size="26.0" fill="#EAEAEA" transform="matrix(1.00, 0.00, -0.00, -1.00, 110.8, 479.0)"> </text><text xml:space="preserve" font-family="AndaleMono" font-size="26.0" fill="#EAEAEA" transform="matrix(1.00, 0.00, -0.00, -1.00, 126.4, 479.0)">o</text><text xml:space="preserve" font-family="AndaleMono" font-size="26.0" fill="#EAEAEA" transform="matrix(1.00, 0.00, -0.00, -1.00, 142.0, 479.0)">d</text><text xml:space="preserve" font-family="AndaleMono" font-size="26.0" fill="#EAEAEA" transform="matrix(1.00, 0.00, -0.00, -1.00, 157.6, 479.0)">d</text><text xml:space="preserve" font-family="AndaleMono" font-size="26.0" fill="#EAEAEA" transform="matrix(1.00, 0.00, -0.00, -1.00, 173.2, 479.0)">(</text><text xml:space="preserve" font-family="AndaleMono" font-size="26.0" fill="#EAEAEA" transform="matrix(1.00, 0.00, -0.00, -1.00, 188.8, 479.0)">n</text><text xml:space="preserve" font-family="AndaleMono" font-size="26.0" fill="#EAEAEA" transform="matrix(1.00, 0.00, -0.00, -1.00, 204.4, 479.0)">)</text><text xml:space="preserve" font-family="AndaleMono" font-size="26.0" fill="#EAEAEA" transform="matrix(1.00, 0.00, -0.00, -1.00, 220.1, 479.0)">:</text><text xml:space="preserve" font-family="AndaleMono" font-size="26.0" fill="#EAEAEA" transform="matrix(1.00, 0.00, -0.00, -1.00, 235.6, 479.0)"> </text><image xlink:href="5432B5FA7B8262CFE388643FDEEC6809.png" width="653.00" height="29.00" transform="matrix(1.00, 0.00, -0.00, -1.00, 112.0, 436.0)"></image><text xml:space="preserve" font-family="AndaleMono" font-size="26.0" fill="#EAEAEA" transform="matrix(1.00, 0.00, -0.00, -1.00, 64.0, 416.0)"> </text><text xml:space="preserve" font-family="AndaleMono" font-size="26.0" fill="#EAEAEA" transform="matrix(1.00, 0.00, -0.00, -1.00, 79.6, 416.0)"> </text><text xml:space="preserve" font-family="AndaleMono" font-size="26.0" fill="#EAEAEA" transform="matrix(1.00, 0.00, -0.00, -1.00, 95.2, 416.0)"> </text><text xml:space="preserve" font-family="AndaleMono" font-size="26.0" fill="#EAEAEA" transform="matrix(1.00, 0.00, -0.00, -1.00, 110.8, 416.0)">"</text><text xml:space="preserve" font-family="AndaleMono" font-size="26.0" fill="#EAEAEA" transform="matrix(1.00, 0.00, -0.00, -1.00, 126.4, 416.0)">"</text><text xml:space="preserve" font-family="AndaleMono" font-size="26.0" fill="#EAEAEA" transform="matrix(1.00, 0.00, -0.00, -1.00, 142.0, 416.0)">"</text><text xml:space="preserve" font-family="AndaleMono" font-size="26.0" fill="#EAEAEA" transform="matrix(1.00, 0.00, -0.00, -1.00, 157.6, 416.0)">o</text><text xml:space="preserve" font-family="AndaleMono" font-size="26.0" fill="#EAEAEA" transform="matrix(1.00, 0.00, -0.00, -1.00, 173.2, 416.0)">d</text><text xml:space="preserve" font-family="AndaleMono" font-size="26.0" fill="#EAEAEA" transform="matrix(1.00, 0.00, -0.00, -1.00, 188.8, 416.0)">d</text><text xml:space="preserve" font-family="AndaleMono" font-size="26.0" fill="#EAEAEA" transform="matrix(1.00, 0.00, -0.00, -1.00, 204.4, 416.0)">(</text><text xml:space="preserve" font-family="AndaleMono" font-size="26.0" fill="#EAEAEA" transform="matrix(1.00, 0.00, -0.00, -1.00, 220.1, 416.0)">n</text><text xml:space="preserve" font-family="AndaleMono" font-size="26.0" fill="#EAEAEA" transform="matrix(1.00, 0.00, -0.00, -1.00, 235.7, 416.0)">)</text><text xml:space="preserve" font-family="AndaleMono" font-size="26.0" fill="#EAEAEA" transform="matrix(1.00, 0.00, -0.00, -1.00, 251.3, 416.0)"> </text><text xml:space="preserve" font-family="AndaleMono" font-size="26.0" fill="#EAEAEA" transform="matrix(1.00, 0.00, -0.00, -1.00, 266.9, 416.0)">-</text><text xml:space="preserve" font-family="AndaleMono" font-size="26.0" fill="#EAEAEA" transform="matrix(1.00, 0.00, -0.00, -1.00, 282.5, 416.0)">&gt;</text><text xml:space="preserve" font-family="AndaleMono" font-size="26.0" fill="#EAEAEA" transform="matrix(1.00, 0.00, -0.00, -1.00, 298.1, 416.0)"> </text><text xml:space="preserve" font-family="AndaleMono" font-size="26.0" fill="#EAEAEA" transform="matrix(1.00, 0.00, -0.00, -1.00, 313.7, 416.0)">b</text><text xml:space="preserve" font-family="AndaleMono" font-size="26.0" fill="#EAEAEA" transform="matrix(1.00, 0.00, -0.00, -1.00, 329.3, 416.0)">o</text><text xml:space="preserve" font-family="AndaleMono" font-size="26.0" fill="#EAEAEA" transform="matrix(1.00, 0.00, -0.00, -1.00, 344.9, 416.0)">o</text><text xml:space="preserve" font-family="AndaleMono" font-size="26.0" fill="#EAEAEA" transform="matrix(1.00, 0.00, -0.00, -1.00, 360.5, 416.0)">l</text><text xml:space="preserve" font-family="AndaleMono" font-size="26.0" fill="#EAEAEA" transform="matrix(1.00, 0.00, -0.00, -1.00, 376.1, 416.0)">e</text><text xml:space="preserve" font-family="AndaleMono" font-size="26.0" fill="#EAEAEA" transform="matrix(1.00, 0.00, -0.00, -1.00, 391.7, 416.0)">a</text><text xml:space="preserve" font-family="AndaleMono" font-size="26.0" fill="#EAEAEA" transform="matrix(1.00, 0.00, -0.00, -1.00, 407.3, 416.0)">n</text><text xml:space="preserve" font-family="AndaleMono" font-size="26.0" fill="#EAEAEA" transform="matrix(1.00, 0.00, -0.00, -1.00, 422.9, 416.0)">,</text><text xml:space="preserve" font-family="AndaleMono" font-size="26.0" fill="#EAEAEA" transform="matrix(1.00, 0.00, -0.00, -1.00, 438.5, 416.0)"> </text><text xml:space="preserve" font-family="AndaleMono" font-size="26.0" fill="#EAEAEA" transform="matrix(1.00, 0.00, -0.00, -1.00, 454.1, 416.0)">t</text><text xml:space="preserve" font-family="AndaleMono" font-size="26.0" fill="#EAEAEA" transform="matrix(1.00, 0.00, -0.00, -1.00, 469.7, 416.0)">r</text><text xml:space="preserve" font-family="AndaleMono" font-size="26.0" fill="#EAEAEA" transform="matrix(1.00, 0.00, -0.00, -1.00, 485.3, 416.0)">u</text><text xml:space="preserve" font-family="AndaleMono" font-size="26.0" fill="#EAEAEA" transform="matrix(1.00, 0.00, -0.00, -1.00, 500.9, 416.0)">e</text><text xml:space="preserve" font-family="AndaleMono" font-size="26.0" fill="#EAEAEA" transform="matrix(1.00, 0.00, -0.00, -1.00, 516.5, 416.0)"> </text><text xml:space="preserve" font-family="AndaleMono" font-size="26.0" fill="#EAEAEA" transform="matrix(1.00, 0.00, -0.00, -1.00, 532.2, 416.0)">i</text><text xml:space="preserve" font-family="AndaleMono" font-size="26.0" fill="#EAEAEA" transform="matrix(1.00, 0.00, -0.00, -1.00, 547.8, 416.0)">f</text><text xml:space="preserve" font-family="AndaleMono" font-size="26.0" fill="#EAEAEA" transform="matrix(1.00, 0.00, -0.00, -1.00, 563.4, 416.0)"> </text><text xml:space="preserve" font-family="AndaleMono" font-size="26.0" fill="#EAEAEA" transform="matrix(1.00, 0.00, -0.00, -1.00, 579.0, 416.0)">n</text><text xml:space="preserve" font-family="AndaleMono" font-size="26.0" fill="#EAEAEA" transform="matrix(1.00, 0.00, -0.00, -1.00, 594.6, 416.0)"> </text><text xml:space="preserve" font-family="AndaleMono" font-size="26.0" fill="#EAEAEA" transform="matrix(1.00, 0.00, -0.00, -1.00, 610.2, 416.0)">i</text><text xml:space="preserve" font-family="AndaleMono" font-size="26.0" fill="#EAEAEA" transform="matrix(1.00, 0.00, -0.00, -1.00, 625.8, 416.0)">s</text><text xml:space="preserve" font-family="AndaleMono" font-size="26.0" fill="#EAEAEA" transform="matrix(1.00, 0.00, -0.00, -1.00, 641.4, 416.0)"> </text><text xml:space="preserve" font-family="AndaleMono" font-size="26.0" fill="#EAEAEA" transform="matrix(1.00, 0.00, -0.00, -1.00, 657.0, 416.0)">o</text><text xml:space="preserve" font-family="AndaleMono" font-size="26.0" fill="#EAEAEA" transform="matrix(1.00, 0.00, -0.00, -1.00, 672.6, 416.0)">d</text><text xml:space="preserve" font-family="AndaleMono" font-size="26.0" fill="#EAEAEA" transform="matrix(1.00, 0.00, -0.00, -1.00, 688.2, 416.0)">d</text><text xml:space="preserve" font-family="AndaleMono" font-size="26.0" fill="#EAEAEA" transform="matrix(1.00, 0.00, -0.00, -1.00, 703.8, 416.0)">.</text><text xml:space="preserve" font-family="AndaleMono" font-size="26.0" fill="#EAEAEA" transform="matrix(1.00, 0.00, -0.00, -1.00, 719.4, 416.0)">"</text><text xml:space="preserve" font-family="AndaleMono" font-size="26.0" fill="#EAEAEA" transform="matrix(1.00, 0.00, -0.00, -1.00, 735.0, 416.0)">"</text><text xml:space="preserve" font-family="AndaleMono" font-size="26.0" fill="#EAEAEA" transform="matrix(1.00, 0.00, -0.00, -1.00, 750.6, 416.0)">"</text><text xml:space="preserve" font-family="AndaleMono" font-size="26.0" fill="#EAEAEA" transform="matrix(1.00, 0.00, -0.00, -1.00, 766.1, 416.0)"> </text><image xlink:href="D37B2339744579279EE996F7F9DAA291.png" width="266.00" height="26.00" transform="matrix(1.00, 0.00, -0.00, -1.00, 111.0, 373.0)"></image><text xml:space="preserve" font-family="AndaleMono" font-size="26.0" fill="#EAEAEA" transform="matrix(1.00, 0.00, -0.00, -1.00, 64.0, 353.0)"> </text><text xml:space="preserve" font-family="AndaleMono" font-size="26.0" fill="#EAEAEA" transform="matrix(1.00, 0.00, -0.00, -1.00, 79.6, 353.0)"> </text><text xml:space="preserve" font-family="AndaleMono" font-size="26.0" fill="#EAEAEA" transform="matrix(1.00, 0.00, -0.00, -1.00, 95.2, 353.0)"> </text><text xml:space="preserve" font-family="AndaleMono" font-size="26.0" fill="#EAEAEA" transform="matrix(1.00, 0.00, -0.00, -1.00, 110.8, 353.0)">r</text><text xml:space="preserve" font-family="AndaleMono" font-size="26.0" fill="#EAEAEA" transform="matrix(1.00, 0.00, -0.00, -1.00, 126.4, 353.0)">e</text><text xml:space="preserve" font-family="AndaleMono" font-size="26.0" fill="#EAEAEA" transform="matrix(1.00, 0.00, -0.00, -1.00, 142.0, 353.0)">t</text><text xml:space="preserve" font-family="AndaleMono" font-size="26.0" fill="#EAEAEA" transform="matrix(1.00, 0.00, -0.00, -1.00, 157.6, 353.0)">u</text><text xml:space="preserve" font-family="AndaleMono" font-size="26.0" fill="#EAEAEA" transform="matrix(1.00, 0.00, -0.00, -1.00, 173.2, 353.0)">r</text><text xml:space="preserve" font-family="AndaleMono" font-size="26.0" fill="#EAEAEA" transform="matrix(1.00, 0.00, -0.00, -1.00, 188.8, 353.0)">n</text><text xml:space="preserve" font-family="AndaleMono" font-size="26.0" fill="#EAEAEA" transform="matrix(1.00, 0.00, -0.00, -1.00, 204.4, 353.0)"> </text><text xml:space="preserve" font-family="AndaleMono" font-size="26.0" fill="#EAEAEA" transform="matrix(1.00, 0.00, -0.00, -1.00, 220.1, 353.0)">n</text><text xml:space="preserve" font-family="AndaleMono" font-size="26.0" fill="#EAEAEA" transform="matrix(1.00, 0.00, -0.00, -1.00, 235.7, 353.0)"> </text><text xml:space="preserve" font-family="AndaleMono" font-size="26.0" fill="#EAEAEA" transform="matrix(1.00, 0.00, -0.00, -1.00, 251.3, 353.0)">%</text><text xml:space="preserve" font-family="AndaleMono" font-size="26.0" fill="#EAEAEA" transform="matrix(1.00, 0.00, -0.00, -1.00, 266.9, 353.0)"> </text><text xml:space="preserve" font-family="AndaleMono" font-size="26.0" fill="#EAEAEA" transform="matrix(1.00, 0.00, -0.00, -1.00, 282.5, 353.0)">2</text><text xml:space="preserve" font-family="AndaleMono" font-size="26.0" fill="#EAEAEA" transform="matrix(1.00, 0.00, -0.00, -1.00, 298.1, 353.0)"> </text><text xml:space="preserve" font-family="AndaleMono" font-size="26.0" fill="#EAEAEA" transform="matrix(1.00, 0.00, -0.00, -1.00, 313.7, 353.0)">=</text><text xml:space="preserve" font-family="AndaleMono" font-size="26.0" fill="#EAEAEA" transform="matrix(1.00, 0.00, -0.00, -1.00, 329.3, 353.0)">=</text><text xml:space="preserve" font-family="AndaleMono" font-size="26.0" fill="#EAEAEA" transform="matrix(1.00, 0.00, -0.00, -1.00, 344.9, 353.0)"> </text><text xml:space="preserve" font-family="AndaleMono" font-size="26.0" fill="#EAEAEA" transform="matrix(1.00, 0.00, -0.00, -1.00, 360.5, 353.0)">1</text><text xml:space="preserve" font-family="AndaleMono" font-size="26.0" fill="#EAEAEA" transform="matrix(1.00, 0.00, -0.00, -1.00, 376.1, 353.0)"> </text><image xlink:href="../../462FAAD1-348F-404D-AF28-2D915DBD9711/assets/7D360F15E6E68D2A35773B98E25571B0.png" width="14.00" height="14.00" transform="matrix(1.00, 0.00, -0.00, -1.00, 62.0, 303.0)"></image><text xml:space="preserve" font-family="HelveticaNeue-Medium" font-size="19.5" fill="#EAEAEA" transform="matrix(1.00, 0.00, -0.00, -1.00, 64.0, 290.9)">•</text><image xlink:href="CB2256C0A145FDA15DDF2D181056FAE0.png" width="545.00" height="32.00" transform="matrix(1.00, 0.00, -0.00, -1.00, 87.0, 309.0)"></image><text xml:space="preserve" font-family="HelveticaNeue-Medium" font-size="26.0" fill="#EAEAEA" transform="matrix(1.00, 0.00, -0.00, -1.00, 89.0, 288.0)">D</text><text xml:space="preserve" font-family="HelveticaNeue-Medium" font-size="26.0" fill="#EAEAEA" transform="matrix(1.00, 0.00, -0.00, -1.00, 107.8, 288.0)">o</text><text xml:space="preserve" font-family="HelveticaNeue-Medium" font-size="26.0" fill="#EAEAEA" transform="matrix(1.00, 0.00, -0.00, -1.00, 123.2, 288.0)">m</text><text xml:space="preserve" font-family="HelveticaNeue-Medium" font-size="26.0" fill="#EAEAEA" transform="matrix(1.00, 0.00, -0.00, -1.00, 145.8, 288.0)">a</text><text xml:space="preserve" font-family="HelveticaNeue-Medium" font-size="26.0" fill="#EAEAEA" transform="matrix(1.00, 0.00, -0.00, -1.00, 160.3, 288.0)">i</text><text xml:space="preserve" font-family="HelveticaNeue-Medium" font-size="26.0" fill="#EAEAEA" transform="matrix(1.00, 0.00, -0.00, -1.00, 166.5, 288.0)">n</text><text xml:space="preserve" font-family="HelveticaNeue-Medium" font-size="26.0" fill="#EAEAEA" transform="matrix(1.00, 0.00, -0.00, -1.00, 181.5, 288.0)">:</text><text xml:space="preserve" font-family="HelveticaNeue-Medium" font-size="26.0" fill="#EAEAEA" transform="matrix(1.00, 0.00, -0.00, -1.00, 188.7, 288.0)"> </text><text xml:space="preserve" font-family="HelveticaNeue-Medium" font-size="26.0" fill="#EAEAEA" transform="matrix(1.00, 0.00, -0.00, -1.00, 195.9, 288.0)">n</text><text xml:space="preserve" font-family="HelveticaNeue-Medium" font-size="26.0" fill="#EAEAEA" transform="matrix(1.00, 0.00, -0.00, -1.00, 210.8, 288.0)"> </text><text xml:space="preserve" font-family="HelveticaNeue-Medium" font-size="26.0" fill="#EAEAEA" transform="matrix(1.00, 0.00, -0.00, -1.00, 218.1, 288.0)">i</text><text xml:space="preserve" font-family="HelveticaNeue-Medium" font-size="26.0" fill="#EAEAEA" transform="matrix(1.00, 0.00, -0.00, -1.00, 224.3, 288.0)">s</text><text xml:space="preserve" font-family="HelveticaNeue-Medium" font-size="26.0" fill="#EAEAEA" transform="matrix(1.00, 0.00, -0.00, -1.00, 237.8, 288.0)"> </text><text xml:space="preserve" font-family="HelveticaNeue-Medium" font-size="26.0" fill="#EAEAEA" transform="matrix(1.00, 0.00, -0.00, -1.00, 245.1, 288.0)">a</text><text xml:space="preserve" font-family="HelveticaNeue-Medium" font-size="26.0" fill="#EAEAEA" transform="matrix(1.00, 0.00, -0.00, -1.00, 259.5, 288.0)"> </text><text xml:space="preserve" font-family="HelveticaNeue-Medium" font-size="26.0" fill="#EAEAEA" transform="matrix(1.00, 0.00, -0.00, -1.00, 266.7, 288.0)">n</text><text xml:space="preserve" font-family="HelveticaNeue-Medium" font-size="26.0" fill="#EAEAEA" transform="matrix(1.00, 0.00, -0.00, -1.00, 281.7, 288.0)">u</text><text xml:space="preserve" font-family="HelveticaNeue-Medium" font-size="26.0" fill="#EAEAEA" transform="matrix(1.00, 0.00, -0.00, -1.00, 296.6, 288.0)">m</text><text xml:space="preserve" font-family="HelveticaNeue-Medium" font-size="26.0" fill="#EAEAEA" transform="matrix(1.00, 0.00, -0.00, -1.00, 319.2, 288.0)">b</text><text xml:space="preserve" font-family="HelveticaNeue-Medium" font-size="26.0" fill="#EAEAEA" transform="matrix(1.00, 0.00, -0.00, -1.00, 335.1, 288.0)">e</text><text xml:space="preserve" font-family="HelveticaNeue-Medium" font-size="26.0" fill="#EAEAEA" transform="matrix(1.00, 0.00, -0.00, -1.00, 349.5, 288.0)">r</text><text xml:space="preserve" font-family="HelveticaNeue-Medium" font-size="26.0" fill="#EAEAEA" transform="matrix(1.00, 0.00, -0.00, -1.00, 358.7, 288.0)"> </text><text xml:space="preserve" font-family="HelveticaNeue-Medium" font-size="26.0" fill="#EAEAEA" transform="matrix(1.00, 0.00, -0.00, -1.00, 365.9, 288.0)">(</text><text xml:space="preserve" font-family="HelveticaNeue-Medium" font-size="26.0" fill="#EAEAEA" transform="matrix(1.00, 0.00, -0.00, -1.00, 373.2, 288.0)">o</text><text xml:space="preserve" font-family="HelveticaNeue-Medium" font-size="26.0" fill="#EAEAEA" transform="matrix(1.00, 0.00, -0.00, -1.00, 388.6, 288.0)">r</text><text xml:space="preserve" font-family="HelveticaNeue-Medium" font-size="26.0" fill="#EAEAEA" transform="matrix(1.00, 0.00, -0.00, -1.00, 397.7, 288.0)"> </text><text xml:space="preserve" font-family="HelveticaNeue-Medium" font-size="26.0" fill="#EAEAEA" transform="matrix(1.00, 0.00, -0.00, -1.00, 405.0, 288.0)">r</text><text xml:space="preserve" font-family="HelveticaNeue-Medium" font-size="26.0" fill="#EAEAEA" transform="matrix(1.00, 0.00, -0.00, -1.00, 413.6, 288.0)">e</text><text xml:space="preserve" font-family="HelveticaNeue-Medium" font-size="26.0" fill="#EAEAEA" transform="matrix(1.00, 0.00, -0.00, -1.00, 428.1, 288.0)">a</text><text xml:space="preserve" font-family="HelveticaNeue-Medium" font-size="26.0" fill="#EAEAEA" transform="matrix(1.00, 0.00, -0.00, -1.00, 442.5, 288.0)">l</text><text xml:space="preserve" font-family="HelveticaNeue-Medium" font-size="26.0" fill="#EAEAEA" transform="matrix(1.00, 0.00, -0.00, -1.00, 448.8, 288.0)">l</text><text xml:space="preserve" font-family="HelveticaNeue-Medium" font-size="26.0" fill="#EAEAEA" transform="matrix(1.00, 0.00, -0.00, -1.00, 455.1, 288.0)">y</text><text xml:space="preserve" font-family="HelveticaNeue-Medium" font-size="26.0" fill="#EAEAEA" transform="matrix(1.00, 0.00, -0.00, -1.00, 466.2, 288.0)">,</text><text xml:space="preserve" font-family="HelveticaNeue-Medium" font-size="26.0" fill="#EAEAEA" transform="matrix(1.00, 0.00, -0.00, -1.00, 473.4, 288.0)"> </text><text xml:space="preserve" font-family="HelveticaNeue-Medium" font-size="26.0" fill="#EAEAEA" transform="matrix(1.00, 0.00, -0.00, -1.00, 480.6, 288.0)">n</text><text xml:space="preserve" font-family="HelveticaNeue-Medium" font-size="26.0" fill="#EAEAEA" transform="matrix(1.00, 0.00, -0.00, -1.00, 495.6, 288.0)">u</text><text xml:space="preserve" font-family="HelveticaNeue-Medium" font-size="26.0" fill="#EAEAEA" transform="matrix(1.00, 0.00, -0.00, -1.00, 510.5, 288.0)">m</text><text xml:space="preserve" font-family="HelveticaNeue-Medium" font-size="26.0" fill="#EAEAEA" transform="matrix(1.00, 0.00, -0.00, -1.00, 533.1, 288.0)">b</text><text xml:space="preserve" font-family="HelveticaNeue-Medium" font-size="26.0" fill="#EAEAEA" transform="matrix(1.00, 0.00, -0.00, -1.00, 549.0, 288.0)">e</text><text xml:space="preserve" font-family="HelveticaNeue-Medium" font-size="26.0" fill="#EAEAEA" transform="matrix(1.00, 0.00, -0.00, -1.00, 563.4, 288.0)">r</text><text xml:space="preserve" font-family="HelveticaNeue-Medium" font-size="26.0" fill="#EAEAEA" transform="matrix(1.00, 0.00, -0.00, -1.00, 571.2, 288.0)">-</text><text xml:space="preserve" font-family="HelveticaNeue-Medium" font-size="26.0" fill="#EAEAEA" transform="matrix(1.00, 0.00, -0.00, -1.00, 581.3, 288.0)">l</text><text xml:space="preserve" font-family="HelveticaNeue-Medium" font-size="26.0" fill="#EAEAEA" transform="matrix(1.00, 0.00, -0.00, -1.00, 587.6, 288.0)">i</text><text xml:space="preserve" font-family="HelveticaNeue-Medium" font-size="26.0" fill="#EAEAEA" transform="matrix(1.00, 0.00, -0.00, -1.00, 593.8, 288.0)">k</text><text xml:space="preserve" font-family="HelveticaNeue-Medium" font-size="26.0" fill="#EAEAEA" transform="matrix(1.00, 0.00, -0.00, -1.00, 607.8, 288.0)">e</text><text xml:space="preserve" font-family="HelveticaNeue-Medium" font-size="26.0" fill="#EAEAEA" transform="matrix(1.00, 0.00, -0.00, -1.00, 622.2, 288.0)">)</text><text xml:space="preserve" font-family="HelveticaNeue-Medium" font-size="26.0" fill="#EAEAEA" transform="matrix(1.00, 0.00, -0.00, -1.00, 629.5, 288.0)"> </text><image xlink:href="../../462FAAD1-348F-404D-AF28-2D915DBD9711/assets/7D360F15E6E68D2A35773B98E25571B0.png" width="14.00" height="14.00" transform="matrix(1.00, 0.00, -0.00, -1.00, 62.0, 238.0)"></image><text xml:space="preserve" font-family="HelveticaNeue-Medium" font-size="19.5" fill="#EAEAEA" transform="matrix(1.00, 0.00, -0.00, -1.00, 64.0, 225.9)">•</text><image xlink:href="BFCA2104E4595CF69CBF40280D258D24.png" width="485.00" height="31.00" transform="matrix(1.00, 0.00, -0.00, -1.00, 87.0, 243.0)"></image><text xml:space="preserve" font-family="HelveticaNeue-Medium" font-size="26.0" fill="#EAEAEA" transform="matrix(1.00, 0.00, -0.00, -1.00, 89.0, 223.0)">R</text><text xml:space="preserve" font-family="HelveticaNeue-Medium" font-size="26.0" fill="#EAEAEA" transform="matrix(1.00, 0.00, -0.00, -1.00, 107.3, 223.0)">a</text><text xml:space="preserve" font-family="HelveticaNeue-Medium" font-size="26.0" fill="#EAEAEA" transform="matrix(1.00, 0.00, -0.00, -1.00, 121.8, 223.0)">n</text><text xml:space="preserve" font-family="HelveticaNeue-Medium" font-size="26.0" fill="#EAEAEA" transform="matrix(1.00, 0.00, -0.00, -1.00, 136.7, 223.0)">g</text><text xml:space="preserve" font-family="HelveticaNeue-Medium" font-size="26.0" fill="#EAEAEA" transform="matrix(1.00, 0.00, -0.00, -1.00, 152.1, 223.0)">e</text><text xml:space="preserve" font-family="HelveticaNeue-Medium" font-size="26.0" fill="#EAEAEA" transform="matrix(1.00, 0.00, -0.00, -1.00, 166.6, 223.0)">:</text><text xml:space="preserve" font-family="HelveticaNeue-Medium" font-size="26.0" fill="#EAEAEA" transform="matrix(1.00, 0.00, -0.00, -1.00, 173.8, 223.0)"> </text><text xml:space="preserve" font-family="HelveticaNeue-Medium" font-size="26.0" fill="#EAEAEA" transform="matrix(1.00, 0.00, -0.00, -1.00, 181.0, 223.0)">b</text><text xml:space="preserve" font-family="HelveticaNeue-Medium" font-size="26.0" fill="#EAEAEA" transform="matrix(1.00, 0.00, -0.00, -1.00, 196.9, 223.0)">o</text><text xml:space="preserve" font-family="HelveticaNeue-Medium" font-size="26.0" fill="#EAEAEA" transform="matrix(1.00, 0.00, -0.00, -1.00, 212.3, 223.0)">o</text><text xml:space="preserve" font-family="HelveticaNeue-Medium" font-size="26.0" fill="#EAEAEA" transform="matrix(1.00, 0.00, -0.00, -1.00, 227.7, 223.0)">l</text><text xml:space="preserve" font-family="HelveticaNeue-Medium" font-size="26.0" fill="#EAEAEA" transform="matrix(1.00, 0.00, -0.00, -1.00, 234.0, 223.0)">e</text><text xml:space="preserve" font-family="HelveticaNeue-Medium" font-size="26.0" fill="#EAEAEA" transform="matrix(1.00, 0.00, -0.00, -1.00, 248.5, 223.0)">a</text><text xml:space="preserve" font-family="HelveticaNeue-Medium" font-size="26.0" fill="#EAEAEA" transform="matrix(1.00, 0.00, -0.00, -1.00, 262.9, 223.0)">n</text><text xml:space="preserve" font-family="HelveticaNeue-Medium" font-size="26.0" fill="#EAEAEA" transform="matrix(1.00, 0.00, -0.00, -1.00, 277.8, 223.0)"> </text><text xml:space="preserve" font-family="HelveticaNeue-Medium" font-size="26.0" fill="#EAEAEA" transform="matrix(1.00, 0.00, -0.00, -1.00, 285.1, 223.0)">f</text><text xml:space="preserve" font-family="HelveticaNeue-Medium" font-size="26.0" fill="#EAEAEA" transform="matrix(1.00, 0.00, -0.00, -1.00, 293.3, 223.0)">u</text><text xml:space="preserve" font-family="HelveticaNeue-Medium" font-size="26.0" fill="#EAEAEA" transform="matrix(1.00, 0.00, -0.00, -1.00, 308.2, 223.0)">n</text><text xml:space="preserve" font-family="HelveticaNeue-Medium" font-size="26.0" fill="#EAEAEA" transform="matrix(1.00, 0.00, -0.00, -1.00, 323.1, 223.0)">c</text><text xml:space="preserve" font-family="HelveticaNeue-Medium" font-size="26.0" fill="#EAEAEA" transform="matrix(1.00, 0.00, -0.00, -1.00, 337.6, 223.0)">t</text><text xml:space="preserve" font-family="HelveticaNeue-Medium" font-size="26.0" fill="#EAEAEA" transform="matrix(1.00, 0.00, -0.00, -1.00, 346.2, 223.0)">i</text><text xml:space="preserve" font-family="HelveticaNeue-Medium" font-size="26.0" fill="#EAEAEA" transform="matrix(1.00, 0.00, -0.00, -1.00, 352.5, 223.0)">o</text><text xml:space="preserve" font-family="HelveticaNeue-Medium" font-size="26.0" fill="#EAEAEA" transform="matrix(1.00, 0.00, -0.00, -1.00, 367.9, 223.0)">n</text><text xml:space="preserve" font-family="HelveticaNeue-Medium" font-size="26.0" fill="#EAEAEA" transform="matrix(1.00, 0.00, -0.00, -1.00, 382.8, 223.0)">,</text><text xml:space="preserve" font-family="HelveticaNeue-Medium" font-size="26.0" fill="#EAEAEA" transform="matrix(1.00, 0.00, -0.00, -1.00, 390.1, 223.0)"> </text><text xml:space="preserve" font-family="HelveticaNeue-Medium" font-size="26.0" fill="#EAEAEA" transform="matrix(1.00, 0.00, -0.00, -1.00, 397.3, 223.0)">t</text><text xml:space="preserve" font-family="HelveticaNeue-Medium" font-size="26.0" fill="#EAEAEA" transform="matrix(1.00, 0.00, -0.00, -1.00, 405.9, 223.0)">r</text><text xml:space="preserve" font-family="HelveticaNeue-Medium" font-size="26.0" fill="#EAEAEA" transform="matrix(1.00, 0.00, -0.00, -1.00, 415.1, 223.0)">u</text><text xml:space="preserve" font-family="HelveticaNeue-Medium" font-size="26.0" fill="#EAEAEA" transform="matrix(1.00, 0.00, -0.00, -1.00, 430.0, 223.0)">e</text><text xml:space="preserve" font-family="HelveticaNeue-Medium" font-size="26.0" fill="#EAEAEA" transform="matrix(1.00, 0.00, -0.00, -1.00, 444.5, 223.0)"> </text><text xml:space="preserve" font-family="HelveticaNeue-Medium" font-size="26.0" fill="#EAEAEA" transform="matrix(1.00, 0.00, -0.00, -1.00, 451.7, 223.0)">i</text><text xml:space="preserve" font-family="HelveticaNeue-Medium" font-size="26.0" fill="#EAEAEA" transform="matrix(1.00, 0.00, -0.00, -1.00, 458.0, 223.0)">f</text><text xml:space="preserve" font-family="HelveticaNeue-Medium" font-size="26.0" fill="#EAEAEA" transform="matrix(1.00, 0.00, -0.00, -1.00, 466.2, 223.0)"> </text><text xml:space="preserve" font-family="HelveticaNeue-Medium" font-size="26.0" fill="#EAEAEA" transform="matrix(1.00, 0.00, -0.00, -1.00, 473.4, 223.0)">n</text><text xml:space="preserve" font-family="HelveticaNeue-Medium" font-size="26.0" fill="#EAEAEA" transform="matrix(1.00, 0.00, -0.00, -1.00, 488.3, 223.0)"> </text><text xml:space="preserve" font-family="HelveticaNeue-Medium" font-size="26.0" fill="#EAEAEA" transform="matrix(1.00, 0.00, -0.00, -1.00, 495.5, 223.0)">i</text><text xml:space="preserve" font-family="HelveticaNeue-Medium" font-size="26.0" fill="#EAEAEA" transform="matrix(1.00, 0.00, -0.00, -1.00, 501.8, 223.0)">s</text><text xml:space="preserve" font-family="HelveticaNeue-Medium" font-size="26.0" fill="#EAEAEA" transform="matrix(1.00, 0.00, -0.00, -1.00, 515.3, 223.0)"> </text><text xml:space="preserve" font-family="HelveticaNeue-Medium" font-size="26.0" fill="#EAEAEA" transform="matrix(1.00, 0.00, -0.00, -1.00, 522.5, 223.0)">o</text><text xml:space="preserve" font-family="HelveticaNeue-Medium" font-size="26.0" fill="#EAEAEA" transform="matrix(1.00, 0.00, -0.00, -1.00, 537.9, 223.0)">d</text><text xml:space="preserve" font-family="HelveticaNeue-Medium" font-size="26.0" fill="#EAEAEA" transform="matrix(1.00, 0.00, -0.00, -1.00, 553.8, 223.0)">d</text><text xml:space="preserve" font-family="HelveticaNeue-Medium" font-size="26.0" fill="#EAEAEA" transform="matrix(1.00, 0.00, -0.00, -1.00, 569.7, 223.0)"> </text><image xlink:href="829A33124F9EE55BF1DA416A2A9FB6C9.png" width="14.00" height="14.00" transform="matrix(1.00, 0.00, -0.00, -1.00, 62.0, 173.0)"></image><text xml:space="preserve" font-family="HelveticaNeue-Medium" font-size="19.5" fill="#EAEAEA" transform="matrix(1.00, 0.00, -0.00, -1.00, 64.0, 160.7)">•</text><image xlink:href="BBFEF6D54803EFD19A449779157B8C8B.png" width="169.00" height="31.00" transform="matrix(1.00, 0.00, -0.00, -1.00, 87.0, 178.0)"></image><text xml:space="preserve" font-family="Helvetica" font-size="26.0" fill="#EAEAEA" transform="matrix(1.00, 0.00, -0.00, -1.00, 89.0, 158.0)">"</text><text xml:space="preserve" font-family="Helvetica" font-size="26.0" fill="#EAEAEA" transform="matrix(1.00, 0.00, -0.00, -1.00, 98.2, 158.0)">"</text><text xml:space="preserve" font-family="Helvetica" font-size="26.0" fill="#EAEAEA" transform="matrix(1.00, 0.00, -0.00, -1.00, 107.5, 158.0)">"</text><text xml:space="preserve" font-family="Helvetica" font-size="26.0" fill="#EAEAEA" transform="matrix(1.00, 0.00, -0.00, -1.00, 116.7, 158.0)">D</text><text xml:space="preserve" font-family="Helvetica" font-size="26.0" fill="#EAEAEA" transform="matrix(1.00, 0.00, -0.00, -1.00, 135.5, 158.0)">o</text><text xml:space="preserve" font-family="Helvetica" font-size="26.0" fill="#EAEAEA" transform="matrix(1.00, 0.00, -0.00, -1.00, 149.9, 158.0)">c</text><text xml:space="preserve" font-family="Helvetica" font-size="26.0" fill="#EAEAEA" transform="matrix(1.00, 0.00, -0.00, -1.00, 162.9, 158.0)">s</text><text xml:space="preserve" font-family="Helvetica" font-size="26.0" fill="#EAEAEA" transform="matrix(1.00, 0.00, -0.00, -1.00, 175.9, 158.0)">t</text><text xml:space="preserve" font-family="Helvetica" font-size="26.0" fill="#EAEAEA" transform="matrix(1.00, 0.00, -0.00, -1.00, 183.2, 158.0)">r</text><text xml:space="preserve" font-family="Helvetica" font-size="26.0" fill="#EAEAEA" transform="matrix(1.00, 0.00, -0.00, -1.00, 191.8, 158.0)">i</text><text xml:space="preserve" font-family="Helvetica" font-size="26.0" fill="#EAEAEA" transform="matrix(1.00, 0.00, -0.00, -1.00, 197.6, 158.0)">n</text><text xml:space="preserve" font-family="Helvetica" font-size="26.0" fill="#EAEAEA" transform="matrix(1.00, 0.00, -0.00, -1.00, 212.1, 158.0)">g</text><text xml:space="preserve" font-family="Helvetica" font-size="26.0" fill="#EAEAEA" transform="matrix(1.00, 0.00, -0.00, -1.00, 226.5, 158.0)">"</text><text xml:space="preserve" font-family="Helvetica" font-size="26.0" fill="#EAEAEA" transform="matrix(1.00, 0.00, -0.00, -1.00, 235.8, 158.0)">"</text><text xml:space="preserve" font-family="Helvetica" font-size="26.0" fill="#EAEAEA" transform="matrix(1.00, 0.00, -0.00, -1.00, 245.0, 158.0)">"</text><image xlink:href="5611532E3814F4ECC6F902996394CD2F.png" width="175.00" height="31.00" transform="matrix(1.00, 0.00, -0.00, -1.00, 258.0, 178.0)"></image><text xml:space="preserve" font-family="HelveticaNeue-Medium" font-size="26.0" fill="#EAEAEA" transform="matrix(1.00, 0.00, -0.00, -1.00, 254.2, 158.0)"> </text><text xml:space="preserve" font-family="HelveticaNeue-Medium" font-size="26.0" fill="#EAEAEA" transform="matrix(1.00, 0.00, -0.00, -1.00, 261.4, 158.0)">w</text><text xml:space="preserve" font-family="HelveticaNeue-Medium" font-size="26.0" fill="#EAEAEA" transform="matrix(1.00, 0.00, -0.00, -1.00, 281.6, 158.0)">i</text><text xml:space="preserve" font-family="HelveticaNeue-Medium" font-size="26.0" fill="#EAEAEA" transform="matrix(1.00, 0.00, -0.00, -1.00, 287.9, 158.0)">t</text><text xml:space="preserve" font-family="HelveticaNeue-Medium" font-size="26.0" fill="#EAEAEA" transform="matrix(1.00, 0.00, -0.00, -1.00, 296.6, 158.0)">h</text><text xml:space="preserve" font-family="HelveticaNeue-Medium" font-size="26.0" fill="#EAEAEA" transform="matrix(1.00, 0.00, -0.00, -1.00, 311.5, 158.0)"> </text><text xml:space="preserve" font-family="HelveticaNeue-Medium" font-size="26.0" fill="#EAEAEA" transform="matrix(1.00, 0.00, -0.00, -1.00, 318.7, 158.0)">s</text><text xml:space="preserve" font-family="HelveticaNeue-Medium" font-size="26.0" fill="#EAEAEA" transform="matrix(1.00, 0.00, -0.00, -1.00, 332.2, 158.0)">u</text><text xml:space="preserve" font-family="HelveticaNeue-Medium" font-size="26.0" fill="#EAEAEA" transform="matrix(1.00, 0.00, -0.00, -1.00, 347.1, 158.0)">m</text><text xml:space="preserve" font-family="HelveticaNeue-Medium" font-size="26.0" fill="#EAEAEA" transform="matrix(1.00, 0.00, -0.00, -1.00, 369.8, 158.0)">m</text><text xml:space="preserve" font-family="HelveticaNeue-Medium" font-size="26.0" fill="#EAEAEA" transform="matrix(1.00, 0.00, -0.00, -1.00, 392.4, 158.0)">a</text><text xml:space="preserve" font-family="HelveticaNeue-Medium" font-size="26.0" fill="#EAEAEA" transform="matrix(1.00, 0.00, -0.00, -1.00, 406.8, 158.0)">r</text><text xml:space="preserve" font-family="HelveticaNeue-Medium" font-size="26.0" fill="#EAEAEA" transform="matrix(1.00, 0.00, -0.00, -1.00, 416.0, 158.0)">y</text><text xml:space="preserve" font-family="HelveticaNeue-Medium" font-size="26.0" fill="#EAEAEA" transform="matrix(1.00, 0.00, -0.00, -1.00, 429.5, 158.0)"> </text><image xlink:href="36B2BFB1F76302AD0D8DA2684E3D5E34.png" width="14.00" height="13.00" transform="matrix(1.00, 0.00, -0.00, -1.00, 94.0, 107.0)"></image><text xml:space="preserve" font-family="HelveticaNeue-Medium" font-size="19.5" fill="#EAEAEA" transform="matrix(1.00, 0.00, -0.00, -1.00, 96.0, 95.6)">•</text><image xlink:href="FE940213F7AABA9554820CC491B1E6AC.png" width="586.00" height="32.00" transform="matrix(1.00, 0.00, -0.00, -1.00, 118.0, 114.0)"></image><text xml:space="preserve" font-family="HelveticaNeue-Medium" font-size="26.0" fill="#EAEAEA" transform="matrix(1.00, 0.00, -0.00, -1.00, 121.0, 93.0)">S</text><text xml:space="preserve" font-family="HelveticaNeue-Medium" font-size="26.0" fill="#EAEAEA" transform="matrix(1.00, 0.00, -0.00, -1.00, 137.8, 93.0)">o</text><text xml:space="preserve" font-family="HelveticaNeue-Medium" font-size="26.0" fill="#EAEAEA" transform="matrix(1.00, 0.00, -0.00, -1.00, 153.3, 93.0)">m</text><text xml:space="preserve" font-family="HelveticaNeue-Medium" font-size="26.0" fill="#EAEAEA" transform="matrix(1.00, 0.00, -0.00, -1.00, 175.9, 93.0)">e</text><text xml:space="preserve" font-family="HelveticaNeue-Medium" font-size="26.0" fill="#EAEAEA" transform="matrix(1.00, 0.00, -0.00, -1.00, 190.3, 93.0)">t</text><text xml:space="preserve" font-family="HelveticaNeue-Medium" font-size="26.0" fill="#EAEAEA" transform="matrix(1.00, 0.00, -0.00, -1.00, 199.0, 93.0)">i</text><text xml:space="preserve" font-family="HelveticaNeue-Medium" font-size="26.0" fill="#EAEAEA" transform="matrix(1.00, 0.00, -0.00, -1.00, 205.3, 93.0)">m</text><text xml:space="preserve" font-family="HelveticaNeue-Medium" font-size="26.0" fill="#EAEAEA" transform="matrix(1.00, 0.00, -0.00, -1.00, 227.9, 93.0)">e</text><text xml:space="preserve" font-family="HelveticaNeue-Medium" font-size="26.0" fill="#EAEAEA" transform="matrix(1.00, 0.00, -0.00, -1.00, 242.3, 93.0)">s</text><text xml:space="preserve" font-family="HelveticaNeue-Medium" font-size="26.0" fill="#EAEAEA" transform="matrix(1.00, 0.00, -0.00, -1.00, 255.8, 93.0)"> </text><text xml:space="preserve" font-family="HelveticaNeue-Medium" font-size="26.0" fill="#EAEAEA" transform="matrix(1.00, 0.00, -0.00, -1.00, 263.1, 93.0)">t</text><text xml:space="preserve" font-family="HelveticaNeue-Medium" font-size="26.0" fill="#EAEAEA" transform="matrix(1.00, 0.00, -0.00, -1.00, 271.7, 93.0)">h</text><text xml:space="preserve" font-family="HelveticaNeue-Medium" font-size="26.0" fill="#EAEAEA" transform="matrix(1.00, 0.00, -0.00, -1.00, 286.6, 93.0)">e</text><text xml:space="preserve" font-family="HelveticaNeue-Medium" font-size="26.0" fill="#EAEAEA" transform="matrix(1.00, 0.00, -0.00, -1.00, 301.1, 93.0)"> </text><text xml:space="preserve" font-family="HelveticaNeue-Medium" font-size="26.0" fill="#EAEAEA" transform="matrix(1.00, 0.00, -0.00, -1.00, 308.3, 93.0)">d</text><text xml:space="preserve" font-family="HelveticaNeue-Medium" font-size="26.0" fill="#EAEAEA" transform="matrix(1.00, 0.00, -0.00, -1.00, 324.2, 93.0)">o</text><text xml:space="preserve" font-family="HelveticaNeue-Medium" font-size="26.0" fill="#EAEAEA" transform="matrix(1.00, 0.00, -0.00, -1.00, 339.6, 93.0)">c</text><text xml:space="preserve" font-family="HelveticaNeue-Medium" font-size="26.0" fill="#EAEAEA" transform="matrix(1.00, 0.00, -0.00, -1.00, 354.1, 93.0)">s</text><text xml:space="preserve" font-family="HelveticaNeue-Medium" font-size="26.0" fill="#EAEAEA" transform="matrix(1.00, 0.00, -0.00, -1.00, 367.6, 93.0)">t</text><text xml:space="preserve" font-family="HelveticaNeue-Medium" font-size="26.0" fill="#EAEAEA" transform="matrix(1.00, 0.00, -0.00, -1.00, 376.2, 93.0)">r</text><text xml:space="preserve" font-family="HelveticaNeue-Medium" font-size="26.0" fill="#EAEAEA" transform="matrix(1.00, 0.00, -0.00, -1.00, 385.4, 93.0)">i</text><text xml:space="preserve" font-family="HelveticaNeue-Medium" font-size="26.0" fill="#EAEAEA" transform="matrix(1.00, 0.00, -0.00, -1.00, 391.7, 93.0)">n</text><text xml:space="preserve" font-family="HelveticaNeue-Medium" font-size="26.0" fill="#EAEAEA" transform="matrix(1.00, 0.00, -0.00, -1.00, 406.6, 93.0)">g</text><text xml:space="preserve" font-family="HelveticaNeue-Medium" font-size="26.0" fill="#EAEAEA" transform="matrix(1.00, 0.00, -0.00, -1.00, 422.0, 93.0)"> </text><text xml:space="preserve" font-family="HelveticaNeue-Medium" font-size="26.0" fill="#EAEAEA" transform="matrix(1.00, 0.00, -0.00, -1.00, 429.2, 93.0)">h</text><text xml:space="preserve" font-family="HelveticaNeue-Medium" font-size="26.0" fill="#EAEAEA" transform="matrix(1.00, 0.00, -0.00, -1.00, 444.2, 93.0)">a</text><text xml:space="preserve" font-family="HelveticaNeue-Medium" font-size="26.0" fill="#EAEAEA" transform="matrix(1.00, 0.00, -0.00, -1.00, 458.6, 93.0)">s</text><text xml:space="preserve" font-family="HelveticaNeue-Medium" font-size="26.0" fill="#EAEAEA" transform="matrix(1.00, 0.00, -0.00, -1.00, 472.1, 93.0)"> </text><text xml:space="preserve" font-family="HelveticaNeue-Medium" font-size="26.0" fill="#EAEAEA" transform="matrix(1.00, 0.00, -0.00, -1.00, 479.3, 93.0)">d</text><text xml:space="preserve" font-family="HelveticaNeue-Medium" font-size="26.0" fill="#EAEAEA" transform="matrix(1.00, 0.00, -0.00, -1.00, 495.2, 93.0)">o</text><text xml:space="preserve" font-family="HelveticaNeue-Medium" font-size="26.0" fill="#EAEAEA" transform="matrix(1.00, 0.00, -0.00, -1.00, 510.6, 93.0)">c</text><text xml:space="preserve" font-family="HelveticaNeue-Medium" font-size="26.0" fill="#EAEAEA" transform="matrix(1.00, 0.00, -0.00, -1.00, 525.1, 93.0)">t</text><text xml:space="preserve" font-family="HelveticaNeue-Medium" font-size="26.0" fill="#EAEAEA" transform="matrix(1.00, 0.00, -0.00, -1.00, 533.8, 93.0)">e</text><text xml:space="preserve" font-family="HelveticaNeue-Medium" font-size="26.0" fill="#EAEAEA" transform="matrix(1.00, 0.00, -0.00, -1.00, 548.2, 93.0)">s</text><text xml:space="preserve" font-family="HelveticaNeue-Medium" font-size="26.0" fill="#EAEAEA" transform="matrix(1.00, 0.00, -0.00, -1.00, 561.7, 93.0)">t</text><text xml:space="preserve" font-family="HelveticaNeue-Medium" font-size="26.0" fill="#EAEAEA" transform="matrix(1.00, 0.00, -0.00, -1.00, 570.4, 93.0)"> </text><text xml:space="preserve" font-family="HelveticaNeue-Medium" font-size="26.0" fill="#EAEAEA" transform="matrix(1.00, 0.00, -0.00, -1.00, 577.6, 93.0)">c</text><text xml:space="preserve" font-family="HelveticaNeue-Medium" font-size="26.0" fill="#EAEAEA" transform="matrix(1.00, 0.00, -0.00, -1.00, 592.0, 93.0)">a</text><text xml:space="preserve" font-family="HelveticaNeue-Medium" font-size="26.0" fill="#EAEAEA" transform="matrix(1.00, 0.00, -0.00, -1.00, 606.5, 93.0)">s</text><text xml:space="preserve" font-family="HelveticaNeue-Medium" font-size="26.0" fill="#EAEAEA" transform="matrix(1.00, 0.00, -0.00, -1.00, 620.0, 93.0)">e</text><text xml:space="preserve" font-family="HelveticaNeue-Medium" font-size="26.0" fill="#EAEAEA" transform="matrix(1.00, 0.00, -0.00, -1.00, 634.4, 93.0)">s</text><text xml:space="preserve" font-family="HelveticaNeue-Medium" font-size="26.0" fill="#EAEAEA" transform="matrix(1.00, 0.00, -0.00, -1.00, 647.9, 93.0)">,</text><text xml:space="preserve" font-family="HelveticaNeue-Medium" font-size="26.0" fill="#EAEAEA" transform="matrix(1.00, 0.00, -0.00, -1.00, 655.2, 93.0)"> </text><text xml:space="preserve" font-family="HelveticaNeue-Medium" font-size="26.0" fill="#EAEAEA" transform="matrix(1.00, 0.00, -0.00, -1.00, 662.4, 93.0)">t</text><text xml:space="preserve" font-family="HelveticaNeue-Medium" font-size="26.0" fill="#EAEAEA" transform="matrix(1.00, 0.00, -0.00, -1.00, 671.1, 93.0)">o</text><text xml:space="preserve" font-family="HelveticaNeue-Medium" font-size="26.0" fill="#EAEAEA" transform="matrix(1.00, 0.00, -0.00, -1.00, 686.5, 93.0)">o</text></g></svg>