<?xml version="1.0" encoding="UTF-8" standalone="no"?><svg xmlns="http://www.w3.org/2000/svg" xmlns:xlink="http://www.w3.org/1999/xlink" clip-rule="evenodd" stroke-miterlimit="4.00" viewBox="0 0 1024 768"><desc>SVG generated by Keynote</desc><defs></defs><g transform="matrix(1.00, 0.00, -0.00, -1.00, 0.0, 768.0)"><g><clipPath id="clip-57"><path d="M 0.0 768.0 L 1024.0 768.0 L 1024.0 0.0 L 0.0 0.0 Z M 0.0 768.0 "></path></clipPath><g clip-path="url(#clip-57)"><image xlink:href="../../363ACDF5-F69A-4348-A617-267FC1DCB792/assets/2CA05975C404A6B79EB2D17D5C3EEC1C.jpeg" width="1024.00" height="768.00" transform="matrix(1.00, 0.00, -0.00, -1.00, 0.0, 768.0)"></image></g></g><image xlink:href="158B4D75E18ACEBD2AF41F44655300B8.png" width="294.00" height="57.00" transform="matrix(1.00, 0.00, -0.00, -1.00, 366.0, 693.0)"></image><text xml:space="preserve" font-family="HelveticaNeue-Bold" font-weight="bold" font-size="64.0" fill="#FEFFFE" transform="matrix(1.00, 0.00, -0.00, -1.00, 366.0, 644.0)">U</text><text xml:space="preserve" font-family="HelveticaNeue-Bold" font-weight="bold" font-size="64.0" fill="#FEFFFE" transform="matrix(1.00, 0.00, -0.00, -1.00, 413.4, 644.0)">s</text><text xml:space="preserve" font-family="HelveticaNeue-Bold" font-weight="bold" font-size="64.0" fill="#FEFFFE" transform="matrix(1.00, 0.00, -0.00, -1.00, 447.8, 644.0)">e</text><text xml:space="preserve" font-family="HelveticaNeue-Bold" font-weight="bold" font-size="64.0" fill="#FEFFFE" transform="matrix(1.00, 0.00, -0.00, -1.00, 484.5, 644.0)"> </text><text xml:space="preserve" font-family="HelveticaNeue-Bold" font-weight="bold" font-size="64.0" fill="#FEFFFE" transform="matrix(1.00, 0.00, -0.00, -1.00, 502.3, 644.0)">C</text><text xml:space="preserve" font-family="HelveticaNeue-Bold" font-weight="bold" font-size="64.0" fill="#FEFFFE" transform="matrix(1.00, 0.00, -0.00, -1.00, 549.7, 644.0)">a</text><text xml:space="preserve" font-family="HelveticaNeue-Bold" font-weight="bold" font-size="64.0" fill="#FEFFFE" transform="matrix(1.00, 0.00, -0.00, -1.00, 586.5, 644.0)">s</text><text xml:space="preserve" font-family="HelveticaNeue-Bold" font-weight="bold" font-size="64.0" fill="#FEFFFE" transform="matrix(1.00, 0.00, -0.00, -1.00, 620.8, 644.0)">e</text><image xlink:href="668ED03F7031D51E7A9B2FD581C9F78C.png" width="17.00" height="17.00" transform="matrix(1.00, 0.00, -0.00, -1.00, 61.0, 546.0)"></image><text xml:space="preserve" font-family="HelveticaNeue-Medium" font-size="22.5" fill="#EAEAEA" transform="matrix(1.00, 0.00, -0.00, -1.00, 64.0, 531.1)">•</text><image xlink:href="5B7C1E8651AF0032BA6774A267CE5BB0.png" width="827.00" height="37.00" transform="matrix(1.00, 0.00, -0.00, -1.00, 89.0, 552.0)"></image><text xml:space="preserve" font-family="HelveticaNeue-Medium" font-size="30.0" fill="#EAEAEA" transform="matrix(1.00, 0.00, -0.00, -1.00, 92.0, 528.0)">G</text><text xml:space="preserve" font-family="HelveticaNeue-Medium" font-size="30.0" fill="#EAEAEA" transform="matrix(1.00, 0.00, -0.00, -1.00, 114.8, 528.0)">i</text><text xml:space="preserve" font-family="HelveticaNeue-Medium" font-size="30.0" fill="#EAEAEA" transform="matrix(1.00, 0.00, -0.00, -1.00, 122.0, 528.0)">v</text><text xml:space="preserve" font-family="HelveticaNeue-Medium" font-size="30.0" fill="#EAEAEA" transform="matrix(1.00, 0.00, -0.00, -1.00, 137.6, 528.0)">e</text><text xml:space="preserve" font-family="HelveticaNeue-Medium" font-size="30.0" fill="#EAEAEA" transform="matrix(1.00, 0.00, -0.00, -1.00, 154.2, 528.0)">n</text><text xml:space="preserve" font-family="HelveticaNeue-Medium" font-size="30.0" fill="#EAEAEA" transform="matrix(1.00, 0.00, -0.00, -1.00, 171.5, 528.0)"> </text><text xml:space="preserve" font-family="HelveticaNeue-Medium" font-size="30.0" fill="#EAEAEA" transform="matrix(1.00, 0.00, -0.00, -1.00, 179.8, 528.0)">R</text><text xml:space="preserve" font-family="HelveticaNeue-Medium" font-size="30.0" fill="#EAEAEA" transform="matrix(1.00, 0.00, -0.00, -1.00, 200.9, 528.0)">P</text><text xml:space="preserve" font-family="HelveticaNeue-Medium" font-size="30.0" fill="#EAEAEA" transform="matrix(1.00, 0.00, -0.00, -1.00, 220.9, 528.0)">M</text><text xml:space="preserve" font-family="HelveticaNeue-Medium" font-size="30.0" fill="#EAEAEA" transform="matrix(1.00, 0.00, -0.00, -1.00, 247.6, 528.0)"> </text><text xml:space="preserve" font-family="HelveticaNeue-Medium" font-size="30.0" fill="#EAEAEA" transform="matrix(1.00, 0.00, -0.00, -1.00, 255.9, 528.0)">o</text><text xml:space="preserve" font-family="HelveticaNeue-Medium" font-size="30.0" fill="#EAEAEA" transform="matrix(1.00, 0.00, -0.00, -1.00, 273.7, 528.0)">n</text><text xml:space="preserve" font-family="HelveticaNeue-Medium" font-size="30.0" fill="#EAEAEA" transform="matrix(1.00, 0.00, -0.00, -1.00, 291.0, 528.0)"> </text><text xml:space="preserve" font-family="HelveticaNeue-Medium" font-size="30.0" fill="#EAEAEA" transform="matrix(1.00, 0.00, -0.00, -1.00, 299.3, 528.0)">t</text><text xml:space="preserve" font-family="HelveticaNeue-Medium" font-size="30.0" fill="#EAEAEA" transform="matrix(1.00, 0.00, -0.00, -1.00, 309.3, 528.0)">h</text><text xml:space="preserve" font-family="HelveticaNeue-Medium" font-size="30.0" fill="#EAEAEA" transform="matrix(1.00, 0.00, -0.00, -1.00, 326.5, 528.0)">e</text><text xml:space="preserve" font-family="HelveticaNeue-Medium" font-size="30.0" fill="#EAEAEA" transform="matrix(1.00, 0.00, -0.00, -1.00, 343.2, 528.0)"> </text><text xml:space="preserve" font-family="HelveticaNeue-Medium" font-size="30.0" fill="#EAEAEA" transform="matrix(1.00, 0.00, -0.00, -1.00, 351.5, 528.0)">t</text><text xml:space="preserve" font-family="HelveticaNeue-Medium" font-size="30.0" fill="#EAEAEA" transform="matrix(1.00, 0.00, -0.00, -1.00, 361.5, 528.0)">a</text><text xml:space="preserve" font-family="HelveticaNeue-Medium" font-size="30.0" fill="#EAEAEA" transform="matrix(1.00, 0.00, -0.00, -1.00, 378.2, 528.0)">c</text><text xml:space="preserve" font-family="HelveticaNeue-Medium" font-size="30.0" fill="#EAEAEA" transform="matrix(1.00, 0.00, -0.00, -1.00, 394.9, 528.0)">h</text><text xml:space="preserve" font-family="HelveticaNeue-Medium" font-size="30.0" fill="#EAEAEA" transform="matrix(1.00, 0.00, -0.00, -1.00, 412.1, 528.0)">,</text><text xml:space="preserve" font-family="HelveticaNeue-Medium" font-size="30.0" fill="#EAEAEA" transform="matrix(1.00, 0.00, -0.00, -1.00, 420.4, 528.0)"> </text><text xml:space="preserve" font-family="HelveticaNeue-Medium" font-size="30.0" fill="#EAEAEA" transform="matrix(1.00, 0.00, -0.00, -1.00, 428.8, 528.0)">w</text><text xml:space="preserve" font-family="HelveticaNeue-Medium" font-size="30.0" fill="#EAEAEA" transform="matrix(1.00, 0.00, -0.00, -1.00, 452.1, 528.0)">h</text><text xml:space="preserve" font-family="HelveticaNeue-Medium" font-size="30.0" fill="#EAEAEA" transform="matrix(1.00, 0.00, -0.00, -1.00, 469.3, 528.0)">a</text><text xml:space="preserve" font-family="HelveticaNeue-Medium" font-size="30.0" fill="#EAEAEA" transform="matrix(1.00, 0.00, -0.00, -1.00, 486.0, 528.0)">t</text><text xml:space="preserve" font-family="HelveticaNeue-Medium" font-size="30.0" fill="#EAEAEA" transform="matrix(1.00, 0.00, -0.00, -1.00, 496.0, 528.0)">'</text><text xml:space="preserve" font-family="HelveticaNeue-Medium" font-size="30.0" fill="#EAEAEA" transform="matrix(1.00, 0.00, -0.00, -1.00, 504.3, 528.0)">s</text><text xml:space="preserve" font-family="HelveticaNeue-Medium" font-size="30.0" fill="#EAEAEA" transform="matrix(1.00, 0.00, -0.00, -1.00, 519.9, 528.0)"> </text><text xml:space="preserve" font-family="HelveticaNeue-Medium" font-size="30.0" fill="#EAEAEA" transform="matrix(1.00, 0.00, -0.00, -1.00, 528.3, 528.0)">t</text><text xml:space="preserve" font-family="HelveticaNeue-Medium" font-size="30.0" fill="#EAEAEA" transform="matrix(1.00, 0.00, -0.00, -1.00, 538.2, 528.0)">h</text><text xml:space="preserve" font-family="HelveticaNeue-Medium" font-size="30.0" fill="#EAEAEA" transform="matrix(1.00, 0.00, -0.00, -1.00, 555.5, 528.0)">e</text><text xml:space="preserve" font-family="HelveticaNeue-Medium" font-size="30.0" fill="#EAEAEA" transform="matrix(1.00, 0.00, -0.00, -1.00, 572.1, 528.0)"> </text><text xml:space="preserve" font-family="HelveticaNeue-Medium" font-size="30.0" fill="#EAEAEA" transform="matrix(1.00, 0.00, -0.00, -1.00, 580.5, 528.0)">r</text><text xml:space="preserve" font-family="HelveticaNeue-Medium" font-size="30.0" fill="#EAEAEA" transform="matrix(1.00, 0.00, -0.00, -1.00, 590.5, 528.0)">e</text><text xml:space="preserve" font-family="HelveticaNeue-Medium" font-size="30.0" fill="#EAEAEA" transform="matrix(1.00, 0.00, -0.00, -1.00, 607.2, 528.0)">a</text><text xml:space="preserve" font-family="HelveticaNeue-Medium" font-size="30.0" fill="#EAEAEA" transform="matrix(1.00, 0.00, -0.00, -1.00, 623.9, 528.0)">l</text><text xml:space="preserve" font-family="HelveticaNeue-Medium" font-size="30.0" fill="#EAEAEA" transform="matrix(1.00, 0.00, -0.00, -1.00, 631.1, 528.0)"> </text><text xml:space="preserve" font-family="HelveticaNeue-Medium" font-size="30.0" fill="#EAEAEA" transform="matrix(1.00, 0.00, -0.00, -1.00, 639.4, 528.0)">R</text><text xml:space="preserve" font-family="HelveticaNeue-Medium" font-size="30.0" fill="#EAEAEA" transform="matrix(1.00, 0.00, -0.00, -1.00, 660.6, 528.0)">P</text><text xml:space="preserve" font-family="HelveticaNeue-Medium" font-size="30.0" fill="#EAEAEA" transform="matrix(1.00, 0.00, -0.00, -1.00, 680.6, 528.0)">M</text><text xml:space="preserve" font-family="HelveticaNeue-Medium" font-size="30.0" fill="#EAEAEA" transform="matrix(1.00, 0.00, -0.00, -1.00, 707.2, 528.0)"> </text><text xml:space="preserve" font-family="HelveticaNeue-Medium" font-size="30.0" fill="#EAEAEA" transform="matrix(1.00, 0.00, -0.00, -1.00, 715.6, 528.0)">o</text><text xml:space="preserve" font-family="HelveticaNeue-Medium" font-size="30.0" fill="#EAEAEA" transform="matrix(1.00, 0.00, -0.00, -1.00, 733.4, 528.0)">f</text><text xml:space="preserve" font-family="HelveticaNeue-Medium" font-size="30.0" fill="#EAEAEA" transform="matrix(1.00, 0.00, -0.00, -1.00, 742.8, 528.0)"> </text><text xml:space="preserve" font-family="HelveticaNeue-Medium" font-size="30.0" fill="#EAEAEA" transform="matrix(1.00, 0.00, -0.00, -1.00, 751.2, 528.0)">t</text><text xml:space="preserve" font-family="HelveticaNeue-Medium" font-size="30.0" fill="#EAEAEA" transform="matrix(1.00, 0.00, -0.00, -1.00, 761.1, 528.0)">h</text><text xml:space="preserve" font-family="HelveticaNeue-Medium" font-size="30.0" fill="#EAEAEA" transform="matrix(1.00, 0.00, -0.00, -1.00, 778.4, 528.0)">e</text><text xml:space="preserve" font-family="HelveticaNeue-Medium" font-size="30.0" fill="#EAEAEA" transform="matrix(1.00, 0.00, -0.00, -1.00, 795.0, 528.0)"> </text><text xml:space="preserve" font-family="HelveticaNeue-Medium" font-size="30.0" fill="#EAEAEA" transform="matrix(1.00, 0.00, -0.00, -1.00, 803.4, 528.0)">e</text><text xml:space="preserve" font-family="HelveticaNeue-Medium" font-size="30.0" fill="#EAEAEA" transform="matrix(1.00, 0.00, -0.00, -1.00, 820.1, 528.0)">n</text><text xml:space="preserve" font-family="HelveticaNeue-Medium" font-size="30.0" fill="#EAEAEA" transform="matrix(1.00, 0.00, -0.00, -1.00, 837.3, 528.0)">g</text><text xml:space="preserve" font-family="HelveticaNeue-Medium" font-size="30.0" fill="#EAEAEA" transform="matrix(1.00, 0.00, -0.00, -1.00, 855.1, 528.0)">i</text><text xml:space="preserve" font-family="HelveticaNeue-Medium" font-size="30.0" fill="#EAEAEA" transform="matrix(1.00, 0.00, -0.00, -1.00, 862.3, 528.0)">n</text><text xml:space="preserve" font-family="HelveticaNeue-Medium" font-size="30.0" fill="#EAEAEA" transform="matrix(1.00, 0.00, -0.00, -1.00, 879.5, 528.0)">e</text><text xml:space="preserve" font-family="HelveticaNeue-Medium" font-size="30.0" fill="#EAEAEA" transform="matrix(1.00, 0.00, -0.00, -1.00, 896.2, 528.0)">?</text><text xml:space="preserve" font-family="HelveticaNeue-Medium" font-size="30.0" fill="#EAEAEA" transform="matrix(1.00, 0.00, -0.00, -1.00, 912.9, 528.0)"> </text><image xlink:href="0EBDAE5C5B710664C7CE65B4AF044E45.png" width="191.00" height="35.00" transform="matrix(1.00, 0.00, -0.00, -1.00, 62.0, 481.0)"></image><text xml:space="preserve" font-family="AndaleMono" font-size="29.0" fill="#EAEAEA" transform="matrix(1.00, 0.00, -0.00, -1.00, 64.0, 458.0)">d</text><text xml:space="preserve" font-family="AndaleMono" font-size="29.0" fill="#EAEAEA" transform="matrix(1.00, 0.00, -0.00, -1.00, 81.4, 458.0)">e</text><text xml:space="preserve" font-family="AndaleMono" font-size="29.0" fill="#EAEAEA" transform="matrix(1.00, 0.00, -0.00, -1.00, 98.8, 458.0)">f</text><text xml:space="preserve" font-family="AndaleMono" font-size="29.0" fill="#EAEAEA" transform="matrix(1.00, 0.00, -0.00, -1.00, 116.2, 458.0)"> </text><text xml:space="preserve" font-family="AndaleMono" font-size="29.0" fill="#EAEAEA" transform="matrix(1.00, 0.00, -0.00, -1.00, 133.6, 458.0)">e</text><text xml:space="preserve" font-family="AndaleMono" font-size="29.0" fill="#EAEAEA" transform="matrix(1.00, 0.00, -0.00, -1.00, 151.0, 458.0)">n</text><text xml:space="preserve" font-family="AndaleMono" font-size="29.0" fill="#EAEAEA" transform="matrix(1.00, 0.00, -0.00, -1.00, 168.4, 458.0)">g</text><text xml:space="preserve" font-family="AndaleMono" font-size="29.0" fill="#EAEAEA" transform="matrix(1.00, 0.00, -0.00, -1.00, 185.8, 458.0)">(</text><text xml:space="preserve" font-family="AndaleMono" font-size="29.0" fill="#EAEAEA" transform="matrix(1.00, 0.00, -0.00, -1.00, 203.2, 458.0)">r</text><text xml:space="preserve" font-family="AndaleMono" font-size="29.0" fill="#EAEAEA" transform="matrix(1.00, 0.00, -0.00, -1.00, 220.7, 458.0)">)</text><text xml:space="preserve" font-family="AndaleMono" font-size="29.0" fill="#EAEAEA" transform="matrix(1.00, 0.00, -0.00, -1.00, 238.1, 458.0)">:</text><text xml:space="preserve" font-family="AndaleMono" font-size="29.0" fill="#EAEAEA" transform="matrix(1.00, 0.00, -0.00, -1.00, 255.4, 458.0)"> </text><image xlink:href="FFF5E144B49A81F3DC437FEE498EBA30.png" width="211.00" height="30.00" transform="matrix(1.00, 0.00, -0.00, -1.00, 116.0, 412.0)"></image><text xml:space="preserve" font-family="AndaleMono" font-size="29.0" fill="#EAEAEA" transform="matrix(1.00, 0.00, -0.00, -1.00, 64.0, 389.0)"> </text><text xml:space="preserve" font-family="AndaleMono" font-size="29.0" fill="#EAEAEA" transform="matrix(1.00, 0.00, -0.00, -1.00, 81.4, 389.0)"> </text><text xml:space="preserve" font-family="AndaleMono" font-size="29.0" fill="#EAEAEA" transform="matrix(1.00, 0.00, -0.00, -1.00, 98.8, 389.0)"> </text><text xml:space="preserve" font-family="AndaleMono" font-size="29.0" fill="#EAEAEA" transform="matrix(1.00, 0.00, -0.00, -1.00, 116.2, 389.0)">r</text><text xml:space="preserve" font-family="AndaleMono" font-size="29.0" fill="#EAEAEA" transform="matrix(1.00, 0.00, -0.00, -1.00, 133.6, 389.0)">e</text><text xml:space="preserve" font-family="AndaleMono" font-size="29.0" fill="#EAEAEA" transform="matrix(1.00, 0.00, -0.00, -1.00, 151.0, 389.0)">t</text><text xml:space="preserve" font-family="AndaleMono" font-size="29.0" fill="#EAEAEA" transform="matrix(1.00, 0.00, -0.00, -1.00, 168.4, 389.0)">u</text><text xml:space="preserve" font-family="AndaleMono" font-size="29.0" fill="#EAEAEA" transform="matrix(1.00, 0.00, -0.00, -1.00, 185.8, 389.0)">r</text><text xml:space="preserve" font-family="AndaleMono" font-size="29.0" fill="#EAEAEA" transform="matrix(1.00, 0.00, -0.00, -1.00, 203.2, 389.0)">n</text><text xml:space="preserve" font-family="AndaleMono" font-size="29.0" fill="#EAEAEA" transform="matrix(1.00, 0.00, -0.00, -1.00, 220.7, 389.0)"> </text><text xml:space="preserve" font-family="AndaleMono" font-size="29.0" fill="#EAEAEA" transform="matrix(1.00, 0.00, -0.00, -1.00, 238.1, 389.0)">r</text><text xml:space="preserve" font-family="AndaleMono" font-size="29.0" fill="#EAEAEA" transform="matrix(1.00, 0.00, -0.00, -1.00, 255.5, 389.0)">/</text><text xml:space="preserve" font-family="AndaleMono" font-size="29.0" fill="#EAEAEA" transform="matrix(1.00, 0.00, -0.00, -1.00, 272.9, 389.0)">1</text><text xml:space="preserve" font-family="AndaleMono" font-size="29.0" fill="#EAEAEA" transform="matrix(1.00, 0.00, -0.00, -1.00, 290.3, 389.0)">.</text><text xml:space="preserve" font-family="AndaleMono" font-size="29.0" fill="#EAEAEA" transform="matrix(1.00, 0.00, -0.00, -1.00, 307.7, 389.0)">4</text><text xml:space="preserve" font-family="AndaleMono" font-size="29.0" fill="#EAEAEA" transform="matrix(1.00, 0.00, -0.00, -1.00, 325.1, 389.0)"> </text><text xml:space="preserve" font-family="AndaleMono" font-size="29.0" fill="#EAEAEA" transform="matrix(1.00, 0.00, -0.00, -1.00, 342.5, 389.0)"> </text><text xml:space="preserve" font-family="AndaleMono" font-size="29.0" fill="#EAEAEA" transform="matrix(1.00, 0.00, -0.00, -1.00, 359.9, 389.0)"> </text><text xml:space="preserve" font-family="AndaleMono" font-size="29.0" fill="#EAEAEA" transform="matrix(1.00, 0.00, -0.00, -1.00, 377.3, 389.0)"> </text><text xml:space="preserve" font-family="AndaleMono" font-size="29.0" fill="#EAEAEA" transform="matrix(1.00, 0.00, -0.00, -1.00, 394.7, 389.0)"> </text><text xml:space="preserve" font-family="AndaleMono" font-size="29.0" fill="#EAEAEA" transform="matrix(1.00, 0.00, -0.00, -1.00, 412.1, 389.0)"> </text><text xml:space="preserve" font-family="AndaleMono" font-size="29.0" fill="#EAEAEA" transform="matrix(1.00, 0.00, -0.00, -1.00, 429.5, 389.0)"> </text><image xlink:href="../../8B3865AA-AD48-4044-B9E2-2368794C98B3/assets/668ED03F7031D51E7A9B2FD581C9F78C.png" width="17.00" height="17.00" transform="matrix(1.00, 0.00, -0.00, -1.00, 61.0, 334.0)"></image><text xml:space="preserve" font-family="HelveticaNeue-Medium" font-size="22.5" fill="#EAEAEA" transform="matrix(1.00, 0.00, -0.00, -1.00, 64.0, 319.1)">•</text><image xlink:href="FC559559405C6D22124D194184BDCDF3.png" width="206.00" height="31.00" transform="matrix(1.00, 0.00, -0.00, -1.00, 90.0, 340.0)"></image><text xml:space="preserve" font-family="HelveticaNeue-Medium" font-size="30.0" fill="#EAEAEA" transform="matrix(1.00, 0.00, -0.00, -1.00, 92.0, 316.0)">U</text><text xml:space="preserve" font-family="HelveticaNeue-Medium" font-size="30.0" fill="#EAEAEA" transform="matrix(1.00, 0.00, -0.00, -1.00, 113.7, 316.0)">s</text><text xml:space="preserve" font-family="HelveticaNeue-Medium" font-size="30.0" fill="#EAEAEA" transform="matrix(1.00, 0.00, -0.00, -1.00, 129.2, 316.0)">e</text><text xml:space="preserve" font-family="HelveticaNeue-Medium" font-size="30.0" fill="#EAEAEA" transform="matrix(1.00, 0.00, -0.00, -1.00, 145.9, 316.0)"> </text><text xml:space="preserve" font-family="HelveticaNeue-Medium" font-size="30.0" fill="#EAEAEA" transform="matrix(1.00, 0.00, -0.00, -1.00, 154.2, 316.0)">i</text><text xml:space="preserve" font-family="HelveticaNeue-Medium" font-size="30.0" fill="#EAEAEA" transform="matrix(1.00, 0.00, -0.00, -1.00, 161.5, 316.0)">t</text><text xml:space="preserve" font-family="HelveticaNeue-Medium" font-size="30.0" fill="#EAEAEA" transform="matrix(1.00, 0.00, -0.00, -1.00, 171.5, 316.0)"> </text><text xml:space="preserve" font-family="HelveticaNeue-Medium" font-size="30.0" fill="#EAEAEA" transform="matrix(1.00, 0.00, -0.00, -1.00, 179.8, 316.0)">l</text><text xml:space="preserve" font-family="HelveticaNeue-Medium" font-size="30.0" fill="#EAEAEA" transform="matrix(1.00, 0.00, -0.00, -1.00, 187.0, 316.0)">i</text><text xml:space="preserve" font-family="HelveticaNeue-Medium" font-size="30.0" fill="#EAEAEA" transform="matrix(1.00, 0.00, -0.00, -1.00, 194.3, 316.0)">k</text><text xml:space="preserve" font-family="HelveticaNeue-Medium" font-size="30.0" fill="#EAEAEA" transform="matrix(1.00, 0.00, -0.00, -1.00, 210.4, 316.0)">e</text><text xml:space="preserve" font-family="HelveticaNeue-Medium" font-size="30.0" fill="#EAEAEA" transform="matrix(1.00, 0.00, -0.00, -1.00, 227.1, 316.0)"> </text><text xml:space="preserve" font-family="HelveticaNeue-Medium" font-size="30.0" fill="#EAEAEA" transform="matrix(1.00, 0.00, -0.00, -1.00, 235.4, 316.0)">t</text><text xml:space="preserve" font-family="HelveticaNeue-Medium" font-size="30.0" fill="#EAEAEA" transform="matrix(1.00, 0.00, -0.00, -1.00, 245.4, 316.0)">h</text><text xml:space="preserve" font-family="HelveticaNeue-Medium" font-size="30.0" fill="#EAEAEA" transform="matrix(1.00, 0.00, -0.00, -1.00, 262.6, 316.0)">i</text><text xml:space="preserve" font-family="HelveticaNeue-Medium" font-size="30.0" fill="#EAEAEA" transform="matrix(1.00, 0.00, -0.00, -1.00, 269.8, 316.0)">s</text><text xml:space="preserve" font-family="HelveticaNeue-Medium" font-size="30.0" fill="#EAEAEA" transform="matrix(1.00, 0.00, -0.00, -1.00, 285.4, 316.0)">:</text><text xml:space="preserve" font-family="HelveticaNeue-Medium" font-size="30.0" fill="#EAEAEA" transform="matrix(1.00, 0.00, -0.00, -1.00, 293.8, 316.0)"> </text><image xlink:href="931BBBC23D85C58DE8AE660BF0E256EF.png" width="225.00" height="35.00" transform="matrix(1.00, 0.00, -0.00, -1.00, 63.0, 269.0)"></image><text xml:space="preserve" font-family="AndaleMono" font-size="29.0" fill="#EAEAEA" transform="matrix(1.00, 0.00, -0.00, -1.00, 64.0, 246.0)">&gt;</text><text xml:space="preserve" font-family="AndaleMono" font-size="29.0" fill="#EAEAEA" transform="matrix(1.00, 0.00, -0.00, -1.00, 81.4, 246.0)">&gt;</text><text xml:space="preserve" font-family="AndaleMono" font-size="29.0" fill="#EAEAEA" transform="matrix(1.00, 0.00, -0.00, -1.00, 98.8, 246.0)">&gt;</text><text xml:space="preserve" font-family="AndaleMono" font-size="29.0" fill="#EAEAEA" transform="matrix(1.00, 0.00, -0.00, -1.00, 116.2, 246.0)"> </text><text xml:space="preserve" font-family="AndaleMono" font-size="29.0" fill="#EAEAEA" transform="matrix(1.00, 0.00, -0.00, -1.00, 133.6, 246.0)">e</text><text xml:space="preserve" font-family="AndaleMono" font-size="29.0" fill="#EAEAEA" transform="matrix(1.00, 0.00, -0.00, -1.00, 151.0, 246.0)">n</text><text xml:space="preserve" font-family="AndaleMono" font-size="29.0" fill="#EAEAEA" transform="matrix(1.00, 0.00, -0.00, -1.00, 168.4, 246.0)">g</text><text xml:space="preserve" font-family="AndaleMono" font-size="29.0" fill="#EAEAEA" transform="matrix(1.00, 0.00, -0.00, -1.00, 185.8, 246.0)">(</text><text xml:space="preserve" font-family="AndaleMono" font-size="29.0" fill="#EAEAEA" transform="matrix(1.00, 0.00, -0.00, -1.00, 203.2, 246.0)">2</text><text xml:space="preserve" font-family="AndaleMono" font-size="29.0" fill="#EAEAEA" transform="matrix(1.00, 0.00, -0.00, -1.00, 220.7, 246.0)">1</text><text xml:space="preserve" font-family="AndaleMono" font-size="29.0" fill="#EAEAEA" transform="matrix(1.00, 0.00, -0.00, -1.00, 238.1, 246.0)">0</text><text xml:space="preserve" font-family="AndaleMono" font-size="29.0" fill="#EAEAEA" transform="matrix(1.00, 0.00, -0.00, -1.00, 255.5, 246.0)">0</text><text xml:space="preserve" font-family="AndaleMono" font-size="29.0" fill="#EAEAEA" transform="matrix(1.00, 0.00, -0.00, -1.00, 272.9, 246.0)">)</text><text xml:space="preserve" font-family="AndaleMono" font-size="29.0" fill="#EAEAEA" transform="matrix(1.00, 0.00, -0.00, -1.00, 290.2, 246.0)"> </text><image xlink:href="D74D759DE391D6745F6CCC7A1BF19645.png" width="108.00" height="30.00" transform="matrix(1.00, 0.00, -0.00, -1.00, 63.0, 200.0)"></image><text xml:space="preserve" font-family="AndaleMono" font-size="29.0" fill="#EAEAEA" transform="matrix(1.00, 0.00, -0.00, -1.00, 64.0, 177.0)">1</text><text xml:space="preserve" font-family="AndaleMono" font-size="29.0" fill="#EAEAEA" transform="matrix(1.00, 0.00, -0.00, -1.00, 81.4, 177.0)">5</text><text xml:space="preserve" font-family="AndaleMono" font-size="29.0" fill="#EAEAEA" transform="matrix(1.00, 0.00, -0.00, -1.00, 98.8, 177.0)">0</text><text xml:space="preserve" font-family="AndaleMono" font-size="29.0" fill="#EAEAEA" transform="matrix(1.00, 0.00, -0.00, -1.00, 116.2, 177.0)">0</text><text xml:space="preserve" font-family="AndaleMono" font-size="29.0" fill="#EAEAEA" transform="matrix(1.00, 0.00, -0.00, -1.00, 133.6, 177.0)">.</text><text xml:space="preserve" font-family="AndaleMono" font-size="29.0" fill="#EAEAEA" transform="matrix(1.00, 0.00, -0.00, -1.00, 151.0, 177.0)">0</text><text xml:space="preserve" font-family="AndaleMono" font-size="29.0" fill="#EAEAEA" transform="matrix(1.00, 0.00, -0.00, -1.00, 168.4, 177.0)"> </text><image xlink:href="../../8B3865AA-AD48-4044-B9E2-2368794C98B3/assets/668ED03F7031D51E7A9B2FD581C9F78C.png" width="17.00" height="17.00" transform="matrix(1.00, 0.00, -0.00, -1.00, 61.0, 122.0)"></image><text xml:space="preserve" font-family="HelveticaNeue-Medium" font-size="22.5" fill="#EAEAEA" transform="matrix(1.00, 0.00, -0.00, -1.00, 64.0, 107.1)">•</text><image xlink:href="0C40DB23A1A4353D7D3E011F0B3276F3.png" width="859.00" height="37.00" transform="matrix(1.00, 0.00, -0.00, -1.00, 89.0, 128.0)"></image><text xml:space="preserve" font-family="HelveticaNeue-Medium" font-size="30.0" fill="#EAEAEA" transform="matrix(1.00, 0.00, -0.00, -1.00, 92.0, 104.0)">O</text><text xml:space="preserve" font-family="HelveticaNeue-Medium" font-size="30.0" fill="#EAEAEA" transform="matrix(1.00, 0.00, -0.00, -1.00, 114.8, 104.0)">k</text><text xml:space="preserve" font-family="HelveticaNeue-Medium" font-size="30.0" fill="#EAEAEA" transform="matrix(1.00, 0.00, -0.00, -1.00, 130.9, 104.0)">a</text><text xml:space="preserve" font-family="HelveticaNeue-Medium" font-size="30.0" fill="#EAEAEA" transform="matrix(1.00, 0.00, -0.00, -1.00, 147.6, 104.0)">y</text><text xml:space="preserve" font-family="HelveticaNeue-Medium" font-size="30.0" fill="#EAEAEA" transform="matrix(1.00, 0.00, -0.00, -1.00, 160.4, 104.0)">.</text><text xml:space="preserve" font-family="HelveticaNeue-Medium" font-size="30.0" fill="#EAEAEA" transform="matrix(1.00, 0.00, -0.00, -1.00, 168.7, 104.0)"> </text><text xml:space="preserve" font-family="HelveticaNeue-Medium" font-size="30.0" fill="#EAEAEA" transform="matrix(1.00, 0.00, -0.00, -1.00, 177.1, 104.0)"> </text><text xml:space="preserve" font-family="HelveticaNeue-Medium" font-size="30.0" fill="#EAEAEA" transform="matrix(1.00, 0.00, -0.00, -1.00, 185.4, 104.0)">T</text><text xml:space="preserve" font-family="HelveticaNeue-Medium" font-size="30.0" fill="#EAEAEA" transform="matrix(1.00, 0.00, -0.00, -1.00, 200.2, 104.0)">a</text><text xml:space="preserve" font-family="HelveticaNeue-Medium" font-size="30.0" fill="#EAEAEA" transform="matrix(1.00, 0.00, -0.00, -1.00, 216.9, 104.0)">c</text><text xml:space="preserve" font-family="HelveticaNeue-Medium" font-size="30.0" fill="#EAEAEA" transform="matrix(1.00, 0.00, -0.00, -1.00, 233.6, 104.0)">h</text><text xml:space="preserve" font-family="HelveticaNeue-Medium" font-size="30.0" fill="#EAEAEA" transform="matrix(1.00, 0.00, -0.00, -1.00, 250.8, 104.0)"> </text><text xml:space="preserve" font-family="HelveticaNeue-Medium" font-size="30.0" fill="#EAEAEA" transform="matrix(1.00, 0.00, -0.00, -1.00, 259.1, 104.0)">s</text><text xml:space="preserve" font-family="HelveticaNeue-Medium" font-size="30.0" fill="#EAEAEA" transform="matrix(1.00, 0.00, -0.00, -1.00, 274.7, 104.0)">a</text><text xml:space="preserve" font-family="HelveticaNeue-Medium" font-size="30.0" fill="#EAEAEA" transform="matrix(1.00, 0.00, -0.00, -1.00, 291.4, 104.0)">y</text><text xml:space="preserve" font-family="HelveticaNeue-Medium" font-size="30.0" fill="#EAEAEA" transform="matrix(1.00, 0.00, -0.00, -1.00, 307.0, 104.0)">s</text><text xml:space="preserve" font-family="HelveticaNeue-Medium" font-size="30.0" fill="#EAEAEA" transform="matrix(1.00, 0.00, -0.00, -1.00, 322.5, 104.0)"> </text><text xml:space="preserve" font-family="HelveticaNeue-Medium" font-size="30.0" fill="#EAEAEA" transform="matrix(1.00, 0.00, -0.00, -1.00, 330.9, 104.0)">2</text><text xml:space="preserve" font-family="HelveticaNeue-Medium" font-size="30.0" fill="#EAEAEA" transform="matrix(1.00, 0.00, -0.00, -1.00, 347.5, 104.0)">1</text><text xml:space="preserve" font-family="HelveticaNeue-Medium" font-size="30.0" fill="#EAEAEA" transform="matrix(1.00, 0.00, -0.00, -1.00, 364.2, 104.0)">0</text><text xml:space="preserve" font-family="HelveticaNeue-Medium" font-size="30.0" fill="#EAEAEA" transform="matrix(1.00, 0.00, -0.00, -1.00, 380.9, 104.0)">0</text><text xml:space="preserve" font-family="HelveticaNeue-Medium" font-size="30.0" fill="#EAEAEA" transform="matrix(1.00, 0.00, -0.00, -1.00, 397.6, 104.0)">,</text><text xml:space="preserve" font-family="HelveticaNeue-Medium" font-size="30.0" fill="#EAEAEA" transform="matrix(1.00, 0.00, -0.00, -1.00, 405.9, 104.0)"> </text><text xml:space="preserve" font-family="HelveticaNeue-Medium" font-size="30.0" fill="#EAEAEA" transform="matrix(1.00, 0.00, -0.00, -1.00, 414.3, 104.0)">e</text><text xml:space="preserve" font-family="HelveticaNeue-Medium" font-size="30.0" fill="#EAEAEA" transform="matrix(1.00, 0.00, -0.00, -1.00, 430.9, 104.0)">n</text><text xml:space="preserve" font-family="HelveticaNeue-Medium" font-size="30.0" fill="#EAEAEA" transform="matrix(1.00, 0.00, -0.00, -1.00, 448.2, 104.0)">g</text><text xml:space="preserve" font-family="HelveticaNeue-Medium" font-size="30.0" fill="#EAEAEA" transform="matrix(1.00, 0.00, -0.00, -1.00, 465.9, 104.0)">i</text><text xml:space="preserve" font-family="HelveticaNeue-Medium" font-size="30.0" fill="#EAEAEA" transform="matrix(1.00, 0.00, -0.00, -1.00, 473.2, 104.0)">n</text><text xml:space="preserve" font-family="HelveticaNeue-Medium" font-size="30.0" fill="#EAEAEA" transform="matrix(1.00, 0.00, -0.00, -1.00, 490.4, 104.0)">e</text><text xml:space="preserve" font-family="HelveticaNeue-Medium" font-size="30.0" fill="#EAEAEA" transform="matrix(1.00, 0.00, -0.00, -1.00, 507.1, 104.0)"> </text><text xml:space="preserve" font-family="HelveticaNeue-Medium" font-size="30.0" fill="#EAEAEA" transform="matrix(1.00, 0.00, -0.00, -1.00, 515.4, 104.0)">(</text><text xml:space="preserve" font-family="HelveticaNeue-Medium" font-size="30.0" fill="#EAEAEA" transform="matrix(1.00, 0.00, -0.00, -1.00, 523.8, 104.0)">t</text><text xml:space="preserve" font-family="HelveticaNeue-Medium" font-size="30.0" fill="#EAEAEA" transform="matrix(1.00, 0.00, -0.00, -1.00, 533.8, 104.0)">h</text><text xml:space="preserve" font-family="HelveticaNeue-Medium" font-size="30.0" fill="#EAEAEA" transform="matrix(1.00, 0.00, -0.00, -1.00, 551.0, 104.0)">e</text><text xml:space="preserve" font-family="HelveticaNeue-Medium" font-size="30.0" fill="#EAEAEA" transform="matrix(1.00, 0.00, -0.00, -1.00, 567.6, 104.0)">o</text><text xml:space="preserve" font-family="HelveticaNeue-Medium" font-size="30.0" fill="#EAEAEA" transform="matrix(1.00, 0.00, -0.00, -1.00, 585.4, 104.0)">r</text><text xml:space="preserve" font-family="HelveticaNeue-Medium" font-size="30.0" fill="#EAEAEA" transform="matrix(1.00, 0.00, -0.00, -1.00, 595.5, 104.0)">e</text><text xml:space="preserve" font-family="HelveticaNeue-Medium" font-size="30.0" fill="#EAEAEA" transform="matrix(1.00, 0.00, -0.00, -1.00, 612.1, 104.0)">t</text><text xml:space="preserve" font-family="HelveticaNeue-Medium" font-size="30.0" fill="#EAEAEA" transform="matrix(1.00, 0.00, -0.00, -1.00, 622.1, 104.0)">i</text><text xml:space="preserve" font-family="HelveticaNeue-Medium" font-size="30.0" fill="#EAEAEA" transform="matrix(1.00, 0.00, -0.00, -1.00, 629.4, 104.0)">c</text><text xml:space="preserve" font-family="HelveticaNeue-Medium" font-size="30.0" fill="#EAEAEA" transform="matrix(1.00, 0.00, -0.00, -1.00, 646.0, 104.0)">a</text><text xml:space="preserve" font-family="HelveticaNeue-Medium" font-size="30.0" fill="#EAEAEA" transform="matrix(1.00, 0.00, -0.00, -1.00, 662.7, 104.0)">l</text><text xml:space="preserve" font-family="HelveticaNeue-Medium" font-size="30.0" fill="#EAEAEA" transform="matrix(1.00, 0.00, -0.00, -1.00, 669.9, 104.0)">l</text><text xml:space="preserve" font-family="HelveticaNeue-Medium" font-size="30.0" fill="#EAEAEA" transform="matrix(1.00, 0.00, -0.00, -1.00, 677.2, 104.0)">y</text><text xml:space="preserve" font-family="HelveticaNeue-Medium" font-size="30.0" fill="#EAEAEA" transform="matrix(1.00, 0.00, -0.00, -1.00, 692.7, 104.0)">)</text><text xml:space="preserve" font-family="HelveticaNeue-Medium" font-size="30.0" fill="#EAEAEA" transform="matrix(1.00, 0.00, -0.00, -1.00, 701.1, 104.0)"> </text><text xml:space="preserve" font-family="HelveticaNeue-Medium" font-size="30.0" fill="#EAEAEA" transform="matrix(1.00, 0.00, -0.00, -1.00, 709.4, 104.0)">s</text><text xml:space="preserve" font-family="HelveticaNeue-Medium" font-size="30.0" fill="#EAEAEA" transform="matrix(1.00, 0.00, -0.00, -1.00, 725.0, 104.0)">p</text><text xml:space="preserve" font-family="HelveticaNeue-Medium" font-size="30.0" fill="#EAEAEA" transform="matrix(1.00, 0.00, -0.00, -1.00, 743.3, 104.0)">i</text><text xml:space="preserve" font-family="HelveticaNeue-Medium" font-size="30.0" fill="#EAEAEA" transform="matrix(1.00, 0.00, -0.00, -1.00, 750.6, 104.0)">n</text><text xml:space="preserve" font-family="HelveticaNeue-Medium" font-size="30.0" fill="#EAEAEA" transform="matrix(1.00, 0.00, -0.00, -1.00, 767.8, 104.0)">n</text><text xml:space="preserve" font-family="HelveticaNeue-Medium" font-size="30.0" fill="#EAEAEA" transform="matrix(1.00, 0.00, -0.00, -1.00, 785.0, 104.0)">i</text><text xml:space="preserve" font-family="HelveticaNeue-Medium" font-size="30.0" fill="#EAEAEA" transform="matrix(1.00, 0.00, -0.00, -1.00, 792.2, 104.0)">n</text><text xml:space="preserve" font-family="HelveticaNeue-Medium" font-size="30.0" fill="#EAEAEA" transform="matrix(1.00, 0.00, -0.00, -1.00, 809.5, 104.0)">g</text><text xml:space="preserve" font-family="HelveticaNeue-Medium" font-size="30.0" fill="#EAEAEA" transform="matrix(1.00, 0.00, -0.00, -1.00, 827.2, 104.0)"> </text><text xml:space="preserve" font-family="HelveticaNeue-Medium" font-size="30.0" fill="#EAEAEA" transform="matrix(1.00, 0.00, -0.00, -1.00, 835.6, 104.0)">a</text><text xml:space="preserve" font-family="HelveticaNeue-Medium" font-size="30.0" fill="#EAEAEA" transform="matrix(1.00, 0.00, -0.00, -1.00, 852.3, 104.0)">t</text><text xml:space="preserve" font-family="HelveticaNeue-Medium" font-size="30.0" fill="#EAEAEA" transform="matrix(1.00, 0.00, -0.00, -1.00, 862.3, 104.0)"> </text><text xml:space="preserve" font-family="HelveticaNeue-Medium" font-size="30.0" fill="#EAEAEA" transform="matrix(1.00, 0.00, -0.00, -1.00, 870.6, 104.0)">1</text><text xml:space="preserve" font-family="HelveticaNeue-Medium" font-size="30.0" fill="#EAEAEA" transform="matrix(1.00, 0.00, -0.00, -1.00, 887.3, 104.0)">5</text><text xml:space="preserve" font-family="HelveticaNeue-Medium" font-size="30.0" fill="#EAEAEA" transform="matrix(1.00, 0.00, -0.00, -1.00, 904.0, 104.0)">0</text><text xml:space="preserve" font-family="HelveticaNeue-Medium" font-size="30.0" fill="#EAEAEA" transform="matrix(1.00, 0.00, -0.00, -1.00, 920.6, 104.0)">0</text><text xml:space="preserve" font-family="HelveticaNeue-Medium" font-size="30.0" fill="#EAEAEA" transform="matrix(1.00, 0.00, -0.00, -1.00, 937.3, 104.0)">.</text></g></svg>