<?xml version="1.0" encoding="UTF-8" standalone="no"?><svg xmlns="http://www.w3.org/2000/svg" xmlns:xlink="http://www.w3.org/1999/xlink" clip-rule="evenodd" stroke-miterlimit="4.00" viewBox="0 0 1024 768"><desc>SVG generated by Keynote</desc><defs></defs><g transform="matrix(1.00, 0.00, -0.00, -1.00, 0.0, 768.0)"><g><clipPath id="clip-219"><path d="M 0.0 768.0 L 1024.0 768.0 L 1024.0 0.0 L 0.0 0.0 Z M 0.0 768.0 "></path></clipPath><g clip-path="url(#clip-219)"><image xlink:href="../../363ACDF5-F69A-4348-A617-267FC1DCB792/assets/2CA05975C404A6B79EB2D17D5C3EEC1C.jpeg" width="1024.00" height="768.00" transform="matrix(1.00, 0.00, -0.00, -1.00, 0.0, 768.0)"></image></g></g><image xlink:href="A944A08226FDFCF3FD3FE96B5BC64662.png" width="705.00" height="68.00" transform="matrix(1.00, 0.00, -0.00, -1.00, 160.0, 732.0)"></image><text xml:space="preserve" font-family="HelveticaNeue-Bold" font-weight="bold" font-size="64.0" fill="#FEFFFE" transform="matrix(1.00, 0.00, -0.00, -1.00, 160.0, 683.0)">U</text><text xml:space="preserve" font-family="HelveticaNeue-Bold" font-weight="bold" font-size="64.0" fill="#FEFFFE" transform="matrix(1.00, 0.00, -0.00, -1.00, 207.4, 683.0)">s</text><text xml:space="preserve" font-family="HelveticaNeue-Bold" font-weight="bold" font-size="64.0" fill="#FEFFFE" transform="matrix(1.00, 0.00, -0.00, -1.00, 241.8, 683.0)">i</text><text xml:space="preserve" font-family="HelveticaNeue-Bold" font-weight="bold" font-size="64.0" fill="#FEFFFE" transform="matrix(1.00, 0.00, -0.00, -1.00, 258.3, 683.0)">n</text><text xml:space="preserve" font-family="HelveticaNeue-Bold" font-weight="bold" font-size="64.0" fill="#FEFFFE" transform="matrix(1.00, 0.00, -0.00, -1.00, 296.3, 683.0)">g</text><text xml:space="preserve" font-family="HelveticaNeue-Bold" font-weight="bold" font-size="64.0" fill="#FEFFFE" transform="matrix(1.00, 0.00, -0.00, -1.00, 335.4, 683.0)"> </text><text xml:space="preserve" font-family="HelveticaNeue-Bold" font-weight="bold" font-size="64.0" fill="#FEFFFE" transform="matrix(1.00, 0.00, -0.00, -1.00, 353.2, 683.0)">t</text><text xml:space="preserve" font-family="HelveticaNeue-Bold" font-weight="bold" font-size="64.0" fill="#FEFFFE" transform="matrix(1.00, 0.00, -0.00, -1.00, 375.7, 683.0)">h</text><text xml:space="preserve" font-family="HelveticaNeue-Bold" font-weight="bold" font-size="64.0" fill="#FEFFFE" transform="matrix(1.00, 0.00, -0.00, -1.00, 413.6, 683.0)">e</text><text xml:space="preserve" font-family="HelveticaNeue-Bold" font-weight="bold" font-size="64.0" fill="#FEFFFE" transform="matrix(1.00, 0.00, -0.00, -1.00, 450.4, 683.0)"> </text><text xml:space="preserve" font-family="HelveticaNeue-Bold" font-weight="bold" font-size="64.0" fill="#FEFFFE" transform="matrix(1.00, 0.00, -0.00, -1.00, 468.2, 683.0)">r</text><text xml:space="preserve" font-family="HelveticaNeue-Bold" font-weight="bold" font-size="64.0" fill="#FEFFFE" transform="matrix(1.00, 0.00, -0.00, -1.00, 491.9, 683.0)">e</text><text xml:space="preserve" font-family="HelveticaNeue-Bold" font-weight="bold" font-size="64.0" fill="#FEFFFE" transform="matrix(1.00, 0.00, -0.00, -1.00, 528.6, 683.0)">c</text><text xml:space="preserve" font-family="HelveticaNeue-Bold" font-weight="bold" font-size="64.0" fill="#FEFFFE" transform="matrix(1.00, 0.00, -0.00, -1.00, 565.4, 683.0)">u</text><text xml:space="preserve" font-family="HelveticaNeue-Bold" font-weight="bold" font-size="64.0" fill="#FEFFFE" transform="matrix(1.00, 0.00, -0.00, -1.00, 603.3, 683.0)">r</text><text xml:space="preserve" font-family="HelveticaNeue-Bold" font-weight="bold" font-size="64.0" fill="#FEFFFE" transform="matrix(1.00, 0.00, -0.00, -1.00, 628.2, 683.0)">s</text><text xml:space="preserve" font-family="HelveticaNeue-Bold" font-weight="bold" font-size="64.0" fill="#FEFFFE" transform="matrix(1.00, 0.00, -0.00, -1.00, 662.6, 683.0)">_</text><text xml:space="preserve" font-family="HelveticaNeue-Bold" font-weight="bold" font-size="64.0" fill="#FEFFFE" transform="matrix(1.00, 0.00, -0.00, -1.00, 694.6, 683.0)">u</text><text xml:space="preserve" font-family="HelveticaNeue-Bold" font-weight="bold" font-size="64.0" fill="#FEFFFE" transform="matrix(1.00, 0.00, -0.00, -1.00, 732.5, 683.0)">n</text><text xml:space="preserve" font-family="HelveticaNeue-Bold" font-weight="bold" font-size="64.0" fill="#FEFFFE" transform="matrix(1.00, 0.00, -0.00, -1.00, 770.5, 683.0)">t</text><text xml:space="preserve" font-family="HelveticaNeue-Bold" font-weight="bold" font-size="64.0" fill="#FEFFFE" transform="matrix(1.00, 0.00, -0.00, -1.00, 793.0, 683.0)">i</text><text xml:space="preserve" font-family="HelveticaNeue-Bold" font-weight="bold" font-size="64.0" fill="#FEFFFE" transform="matrix(1.00, 0.00, -0.00, -1.00, 809.5, 683.0)">l</text><text xml:space="preserve" font-family="HelveticaNeue-Bold" font-weight="bold" font-size="64.0" fill="#FEFFFE" transform="matrix(1.00, 0.00, -0.00, -1.00, 826.0, 683.0)">(</text><text xml:space="preserve" font-family="HelveticaNeue-Bold" font-weight="bold" font-size="64.0" fill="#FEFFFE" transform="matrix(1.00, 0.00, -0.00, -1.00, 845.0, 683.0)">)</text><text xml:space="preserve" font-family="HelveticaNeue-Bold" font-weight="bold" font-size="64.0" fill="#FEFFFE" transform="matrix(1.00, 0.00, -0.00, -1.00, 863.9, 683.0)"> </text><image xlink:href="2263368DC22F7F71980F36DBD4F10F86.png" width="255.00" height="55.00" transform="matrix(1.00, 0.00, -0.00, -1.00, 383.0, 653.0)"></image><text xml:space="preserve" font-family="HelveticaNeue-Bold" font-weight="bold" font-size="64.0" fill="#FEFFFE" transform="matrix(1.00, 0.00, -0.00, -1.00, 387.0, 605.0)">f</text><text xml:space="preserve" font-family="HelveticaNeue-Bold" font-weight="bold" font-size="64.0" fill="#FEFFFE" transform="matrix(1.00, 0.00, -0.00, -1.00, 408.3, 605.0)">u</text><text xml:space="preserve" font-family="HelveticaNeue-Bold" font-weight="bold" font-size="64.0" fill="#FEFFFE" transform="matrix(1.00, 0.00, -0.00, -1.00, 446.3, 605.0)">n</text><text xml:space="preserve" font-family="HelveticaNeue-Bold" font-weight="bold" font-size="64.0" fill="#FEFFFE" transform="matrix(1.00, 0.00, -0.00, -1.00, 484.2, 605.0)">c</text><text xml:space="preserve" font-family="HelveticaNeue-Bold" font-weight="bold" font-size="64.0" fill="#FEFFFE" transform="matrix(1.00, 0.00, -0.00, -1.00, 521.0, 605.0)">t</text><text xml:space="preserve" font-family="HelveticaNeue-Bold" font-weight="bold" font-size="64.0" fill="#FEFFFE" transform="matrix(1.00, 0.00, -0.00, -1.00, 543.5, 605.0)">i</text><text xml:space="preserve" font-family="HelveticaNeue-Bold" font-weight="bold" font-size="64.0" fill="#FEFFFE" transform="matrix(1.00, 0.00, -0.00, -1.00, 560.0, 605.0)">o</text><text xml:space="preserve" font-family="HelveticaNeue-Bold" font-weight="bold" font-size="64.0" fill="#FEFFFE" transform="matrix(1.00, 0.00, -0.00, -1.00, 599.1, 605.0)">n</text><image xlink:href="85F7F96B690DBE4DA200C63B04F4CF3B.png" width="845.00" height="37.00" transform="matrix(1.00, 0.00, -0.00, -1.00, 63.0, 530.0)"></image><text xml:space="preserve" font-family="AndaleMono" font-size="30.0" fill="#EAEAEA" transform="matrix(1.00, 0.00, -0.00, -1.00, 64.0, 506.0)">&gt;</text><text xml:space="preserve" font-family="AndaleMono" font-size="30.0" fill="#EAEAEA" transform="matrix(1.00, 0.00, -0.00, -1.00, 82.0, 506.0)">&gt;</text><text xml:space="preserve" font-family="AndaleMono" font-size="30.0" fill="#EAEAEA" transform="matrix(1.00, 0.00, -0.00, -1.00, 100.0, 506.0)">&gt;</text><text xml:space="preserve" font-family="AndaleMono" font-size="30.0" fill="#EAEAEA" transform="matrix(1.00, 0.00, -0.00, -1.00, 118.0, 506.0)"> </text><text xml:space="preserve" font-family="AndaleMono" font-size="30.0" fill="#EAEAEA" transform="matrix(1.00, 0.00, -0.00, -1.00, 136.0, 506.0)">r</text><text xml:space="preserve" font-family="AndaleMono" font-size="30.0" fill="#EAEAEA" transform="matrix(1.00, 0.00, -0.00, -1.00, 154.0, 506.0)">e</text><text xml:space="preserve" font-family="AndaleMono" font-size="30.0" fill="#EAEAEA" transform="matrix(1.00, 0.00, -0.00, -1.00, 172.0, 506.0)">c</text><text xml:space="preserve" font-family="AndaleMono" font-size="30.0" fill="#EAEAEA" transform="matrix(1.00, 0.00, -0.00, -1.00, 190.0, 506.0)">u</text><text xml:space="preserve" font-family="AndaleMono" font-size="30.0" fill="#EAEAEA" transform="matrix(1.00, 0.00, -0.00, -1.00, 208.0, 506.0)">r</text><text xml:space="preserve" font-family="AndaleMono" font-size="30.0" fill="#EAEAEA" transform="matrix(1.00, 0.00, -0.00, -1.00, 226.1, 506.0)">s</text><text xml:space="preserve" font-family="AndaleMono" font-size="30.0" fill="#EAEAEA" transform="matrix(1.00, 0.00, -0.00, -1.00, 244.1, 506.0)">e</text><text xml:space="preserve" font-family="AndaleMono" font-size="30.0" fill="#EAEAEA" transform="matrix(1.00, 0.00, -0.00, -1.00, 262.1, 506.0)">_</text><text xml:space="preserve" font-family="AndaleMono" font-size="30.0" fill="#EAEAEA" transform="matrix(1.00, 0.00, -0.00, -1.00, 280.1, 506.0)">u</text><text xml:space="preserve" font-family="AndaleMono" font-size="30.0" fill="#EAEAEA" transform="matrix(1.00, 0.00, -0.00, -1.00, 298.1, 506.0)">n</text><text xml:space="preserve" font-family="AndaleMono" font-size="30.0" fill="#EAEAEA" transform="matrix(1.00, 0.00, -0.00, -1.00, 316.1, 506.0)">t</text><text xml:space="preserve" font-family="AndaleMono" font-size="30.0" fill="#EAEAEA" transform="matrix(1.00, 0.00, -0.00, -1.00, 334.1, 506.0)">i</text><text xml:space="preserve" font-family="AndaleMono" font-size="30.0" fill="#EAEAEA" transform="matrix(1.00, 0.00, -0.00, -1.00, 352.1, 506.0)">l</text><text xml:space="preserve" font-family="AndaleMono" font-size="30.0" fill="#EAEAEA" transform="matrix(1.00, 0.00, -0.00, -1.00, 370.1, 506.0)">(</text><text xml:space="preserve" font-family="AndaleMono" font-size="30.0" fill="#EAEAEA" transform="matrix(1.00, 0.00, -0.00, -1.00, 388.1, 506.0)">l</text><text xml:space="preserve" font-family="AndaleMono" font-size="30.0" fill="#EAEAEA" transform="matrix(1.00, 0.00, -0.00, -1.00, 406.1, 506.0)">a</text><text xml:space="preserve" font-family="AndaleMono" font-size="30.0" fill="#EAEAEA" transform="matrix(1.00, 0.00, -0.00, -1.00, 424.1, 506.0)">m</text><text xml:space="preserve" font-family="AndaleMono" font-size="30.0" fill="#EAEAEA" transform="matrix(1.00, 0.00, -0.00, -1.00, 442.1, 506.0)">b</text><text xml:space="preserve" font-family="AndaleMono" font-size="30.0" fill="#EAEAEA" transform="matrix(1.00, 0.00, -0.00, -1.00, 460.1, 506.0)">d</text><text xml:space="preserve" font-family="AndaleMono" font-size="30.0" fill="#EAEAEA" transform="matrix(1.00, 0.00, -0.00, -1.00, 478.1, 506.0)">a</text><text xml:space="preserve" font-family="AndaleMono" font-size="30.0" fill="#EAEAEA" transform="matrix(1.00, 0.00, -0.00, -1.00, 496.1, 506.0)"> </text><text xml:space="preserve" font-family="AndaleMono" font-size="30.0" fill="#EAEAEA" transform="matrix(1.00, 0.00, -0.00, -1.00, 514.1, 506.0)">n</text><text xml:space="preserve" font-family="AndaleMono" font-size="30.0" fill="#EAEAEA" transform="matrix(1.00, 0.00, -0.00, -1.00, 532.2, 506.0)">:</text><text xml:space="preserve" font-family="AndaleMono" font-size="30.0" fill="#EAEAEA" transform="matrix(1.00, 0.00, -0.00, -1.00, 550.2, 506.0)"> </text><text xml:space="preserve" font-family="AndaleMono" font-size="30.0" fill="#EAEAEA" transform="matrix(1.00, 0.00, -0.00, -1.00, 568.2, 506.0)">n</text><text xml:space="preserve" font-family="AndaleMono" font-size="30.0" fill="#EAEAEA" transform="matrix(1.00, 0.00, -0.00, -1.00, 586.2, 506.0)">=</text><text xml:space="preserve" font-family="AndaleMono" font-size="30.0" fill="#EAEAEA" transform="matrix(1.00, 0.00, -0.00, -1.00, 604.2, 506.0)">=</text><text xml:space="preserve" font-family="AndaleMono" font-size="30.0" fill="#EAEAEA" transform="matrix(1.00, 0.00, -0.00, -1.00, 622.2, 506.0)">1</text><text xml:space="preserve" font-family="AndaleMono" font-size="30.0" fill="#EAEAEA" transform="matrix(1.00, 0.00, -0.00, -1.00, 640.2, 506.0)">,</text><text xml:space="preserve" font-family="AndaleMono" font-size="30.0" fill="#EAEAEA" transform="matrix(1.00, 0.00, -0.00, -1.00, 658.2, 506.0)"> </text><text xml:space="preserve" font-family="AndaleMono" font-size="30.0" fill="#EAEAEA" transform="matrix(1.00, 0.00, -0.00, -1.00, 676.2, 506.0)">s</text><text xml:space="preserve" font-family="AndaleMono" font-size="30.0" fill="#EAEAEA" transform="matrix(1.00, 0.00, -0.00, -1.00, 694.2, 506.0)">y</text><text xml:space="preserve" font-family="AndaleMono" font-size="30.0" fill="#EAEAEA" transform="matrix(1.00, 0.00, -0.00, -1.00, 712.2, 506.0)">r</text><text xml:space="preserve" font-family="AndaleMono" font-size="30.0" fill="#EAEAEA" transform="matrix(1.00, 0.00, -0.00, -1.00, 730.2, 506.0)">a</text><text xml:space="preserve" font-family="AndaleMono" font-size="30.0" fill="#EAEAEA" transform="matrix(1.00, 0.00, -0.00, -1.00, 748.2, 506.0)">c</text><text xml:space="preserve" font-family="AndaleMono" font-size="30.0" fill="#EAEAEA" transform="matrix(1.00, 0.00, -0.00, -1.00, 766.2, 506.0)">u</text><text xml:space="preserve" font-family="AndaleMono" font-size="30.0" fill="#EAEAEA" transform="matrix(1.00, 0.00, -0.00, -1.00, 784.2, 506.0)">s</text><text xml:space="preserve" font-family="AndaleMono" font-size="30.0" fill="#EAEAEA" transform="matrix(1.00, 0.00, -0.00, -1.00, 802.2, 506.0)">e</text><text xml:space="preserve" font-family="AndaleMono" font-size="30.0" fill="#EAEAEA" transform="matrix(1.00, 0.00, -0.00, -1.00, 820.2, 506.0)">2</text><text xml:space="preserve" font-family="AndaleMono" font-size="30.0" fill="#EAEAEA" transform="matrix(1.00, 0.00, -0.00, -1.00, 838.3, 506.0)">,</text><text xml:space="preserve" font-family="AndaleMono" font-size="30.0" fill="#EAEAEA" transform="matrix(1.00, 0.00, -0.00, -1.00, 856.3, 506.0)"> </text><text xml:space="preserve" font-family="AndaleMono" font-size="30.0" fill="#EAEAEA" transform="matrix(1.00, 0.00, -0.00, -1.00, 874.3, 506.0)">9</text><text xml:space="preserve" font-family="AndaleMono" font-size="30.0" fill="#EAEAEA" transform="matrix(1.00, 0.00, -0.00, -1.00, 892.3, 506.0)">)</text><text xml:space="preserve" font-family="AndaleMono" font-size="30.0" fill="#EAEAEA" transform="matrix(1.00, 0.00, -0.00, -1.00, 910.1, 506.0)"> </text><image xlink:href="FFF0A22F1604D2CC6F8847DD333EB5F5.png" width="848.00" height="37.00" transform="matrix(1.00, 0.00, -0.00, -1.00, 63.0, 484.0)"></image><text xml:space="preserve" font-family="AndaleMono" font-size="30.0" fill="#EAEAEA" transform="matrix(1.00, 0.00, -0.00, -1.00, 64.0, 460.0)">&lt;</text><text xml:space="preserve" font-family="AndaleMono" font-size="30.0" fill="#EAEAEA" transform="matrix(1.00, 0.00, -0.00, -1.00, 82.0, 460.0)">g</text><text xml:space="preserve" font-family="AndaleMono" font-size="30.0" fill="#EAEAEA" transform="matrix(1.00, 0.00, -0.00, -1.00, 100.0, 460.0)">e</text><text xml:space="preserve" font-family="AndaleMono" font-size="30.0" fill="#EAEAEA" transform="matrix(1.00, 0.00, -0.00, -1.00, 118.0, 460.0)">n</text><text xml:space="preserve" font-family="AndaleMono" font-size="30.0" fill="#EAEAEA" transform="matrix(1.00, 0.00, -0.00, -1.00, 136.0, 460.0)">e</text><text xml:space="preserve" font-family="AndaleMono" font-size="30.0" fill="#EAEAEA" transform="matrix(1.00, 0.00, -0.00, -1.00, 154.0, 460.0)">r</text><text xml:space="preserve" font-family="AndaleMono" font-size="30.0" fill="#EAEAEA" transform="matrix(1.00, 0.00, -0.00, -1.00, 172.0, 460.0)">a</text><text xml:space="preserve" font-family="AndaleMono" font-size="30.0" fill="#EAEAEA" transform="matrix(1.00, 0.00, -0.00, -1.00, 190.0, 460.0)">t</text><text xml:space="preserve" font-family="AndaleMono" font-size="30.0" fill="#EAEAEA" transform="matrix(1.00, 0.00, -0.00, -1.00, 208.0, 460.0)">o</text><text xml:space="preserve" font-family="AndaleMono" font-size="30.0" fill="#EAEAEA" transform="matrix(1.00, 0.00, -0.00, -1.00, 226.1, 460.0)">r</text><text xml:space="preserve" font-family="AndaleMono" font-size="30.0" fill="#EAEAEA" transform="matrix(1.00, 0.00, -0.00, -1.00, 244.1, 460.0)"> </text><text xml:space="preserve" font-family="AndaleMono" font-size="30.0" fill="#EAEAEA" transform="matrix(1.00, 0.00, -0.00, -1.00, 262.1, 460.0)">o</text><text xml:space="preserve" font-family="AndaleMono" font-size="30.0" fill="#EAEAEA" transform="matrix(1.00, 0.00, -0.00, -1.00, 280.1, 460.0)">b</text><text xml:space="preserve" font-family="AndaleMono" font-size="30.0" fill="#EAEAEA" transform="matrix(1.00, 0.00, -0.00, -1.00, 298.1, 460.0)">j</text><text xml:space="preserve" font-family="AndaleMono" font-size="30.0" fill="#EAEAEA" transform="matrix(1.00, 0.00, -0.00, -1.00, 316.1, 460.0)">e</text><text xml:space="preserve" font-family="AndaleMono" font-size="30.0" fill="#EAEAEA" transform="matrix(1.00, 0.00, -0.00, -1.00, 334.1, 460.0)">c</text><text xml:space="preserve" font-family="AndaleMono" font-size="30.0" fill="#EAEAEA" transform="matrix(1.00, 0.00, -0.00, -1.00, 352.1, 460.0)">t</text><text xml:space="preserve" font-family="AndaleMono" font-size="30.0" fill="#EAEAEA" transform="matrix(1.00, 0.00, -0.00, -1.00, 370.1, 460.0)"> </text><text xml:space="preserve" font-family="AndaleMono" font-size="30.0" fill="#EAEAEA" transform="matrix(1.00, 0.00, -0.00, -1.00, 388.1, 460.0)">r</text><text xml:space="preserve" font-family="AndaleMono" font-size="30.0" fill="#EAEAEA" transform="matrix(1.00, 0.00, -0.00, -1.00, 406.1, 460.0)">e</text><text xml:space="preserve" font-family="AndaleMono" font-size="30.0" fill="#EAEAEA" transform="matrix(1.00, 0.00, -0.00, -1.00, 424.1, 460.0)">c</text><text xml:space="preserve" font-family="AndaleMono" font-size="30.0" fill="#EAEAEA" transform="matrix(1.00, 0.00, -0.00, -1.00, 442.1, 460.0)">u</text><text xml:space="preserve" font-family="AndaleMono" font-size="30.0" fill="#EAEAEA" transform="matrix(1.00, 0.00, -0.00, -1.00, 460.1, 460.0)">r</text><text xml:space="preserve" font-family="AndaleMono" font-size="30.0" fill="#EAEAEA" transform="matrix(1.00, 0.00, -0.00, -1.00, 478.1, 460.0)">s</text><text xml:space="preserve" font-family="AndaleMono" font-size="30.0" fill="#EAEAEA" transform="matrix(1.00, 0.00, -0.00, -1.00, 496.1, 460.0)">e</text><text xml:space="preserve" font-family="AndaleMono" font-size="30.0" fill="#EAEAEA" transform="matrix(1.00, 0.00, -0.00, -1.00, 514.1, 460.0)">_</text><text xml:space="preserve" font-family="AndaleMono" font-size="30.0" fill="#EAEAEA" transform="matrix(1.00, 0.00, -0.00, -1.00, 532.2, 460.0)">u</text><text xml:space="preserve" font-family="AndaleMono" font-size="30.0" fill="#EAEAEA" transform="matrix(1.00, 0.00, -0.00, -1.00, 550.2, 460.0)">n</text><text xml:space="preserve" font-family="AndaleMono" font-size="30.0" fill="#EAEAEA" transform="matrix(1.00, 0.00, -0.00, -1.00, 568.2, 460.0)">t</text><text xml:space="preserve" font-family="AndaleMono" font-size="30.0" fill="#EAEAEA" transform="matrix(1.00, 0.00, -0.00, -1.00, 586.2, 460.0)">i</text><text xml:space="preserve" font-family="AndaleMono" font-size="30.0" fill="#EAEAEA" transform="matrix(1.00, 0.00, -0.00, -1.00, 604.2, 460.0)">l</text><text xml:space="preserve" font-family="AndaleMono" font-size="30.0" fill="#EAEAEA" transform="matrix(1.00, 0.00, -0.00, -1.00, 622.2, 460.0)"> </text><text xml:space="preserve" font-family="AndaleMono" font-size="30.0" fill="#EAEAEA" transform="matrix(1.00, 0.00, -0.00, -1.00, 640.2, 460.0)">a</text><text xml:space="preserve" font-family="AndaleMono" font-size="30.0" fill="#EAEAEA" transform="matrix(1.00, 0.00, -0.00, -1.00, 658.2, 460.0)">t</text><text xml:space="preserve" font-family="AndaleMono" font-size="30.0" fill="#EAEAEA" transform="matrix(1.00, 0.00, -0.00, -1.00, 676.2, 460.0)"> </text><text xml:space="preserve" font-family="AndaleMono" font-size="30.0" fill="#EAEAEA" transform="matrix(1.00, 0.00, -0.00, -1.00, 694.2, 460.0)">0</text><text xml:space="preserve" font-family="AndaleMono" font-size="30.0" fill="#EAEAEA" transform="matrix(1.00, 0.00, -0.00, -1.00, 712.2, 460.0)">x</text><text xml:space="preserve" font-family="AndaleMono" font-size="30.0" fill="#EAEAEA" transform="matrix(1.00, 0.00, -0.00, -1.00, 730.2, 460.0)">1</text><text xml:space="preserve" font-family="AndaleMono" font-size="30.0" fill="#EAEAEA" transform="matrix(1.00, 0.00, -0.00, -1.00, 748.2, 460.0)">0</text><text xml:space="preserve" font-family="AndaleMono" font-size="30.0" fill="#EAEAEA" transform="matrix(1.00, 0.00, -0.00, -1.00, 766.2, 460.0)">2</text><text xml:space="preserve" font-family="AndaleMono" font-size="30.0" fill="#EAEAEA" transform="matrix(1.00, 0.00, -0.00, -1.00, 784.2, 460.0)">1</text><text xml:space="preserve" font-family="AndaleMono" font-size="30.0" fill="#EAEAEA" transform="matrix(1.00, 0.00, -0.00, -1.00, 802.2, 460.0)">2</text><text xml:space="preserve" font-family="AndaleMono" font-size="30.0" fill="#EAEAEA" transform="matrix(1.00, 0.00, -0.00, -1.00, 820.2, 460.0)">7</text><text xml:space="preserve" font-family="AndaleMono" font-size="30.0" fill="#EAEAEA" transform="matrix(1.00, 0.00, -0.00, -1.00, 838.3, 460.0)">8</text><text xml:space="preserve" font-family="AndaleMono" font-size="30.0" fill="#EAEAEA" transform="matrix(1.00, 0.00, -0.00, -1.00, 856.3, 460.0)">c</text><text xml:space="preserve" font-family="AndaleMono" font-size="30.0" fill="#EAEAEA" transform="matrix(1.00, 0.00, -0.00, -1.00, 874.3, 460.0)">0</text><text xml:space="preserve" font-family="AndaleMono" font-size="30.0" fill="#EAEAEA" transform="matrix(1.00, 0.00, -0.00, -1.00, 892.3, 460.0)">&gt;</text><text xml:space="preserve" font-family="AndaleMono" font-size="30.0" fill="#EAEAEA" transform="matrix(1.00, 0.00, -0.00, -1.00, 910.1, 460.0)"> </text><image xlink:href="../../D9433726-5947-428F-A554-7984E936C271/assets/22338A021207344BFFC0BA20AE086817.png" width="18.00" height="18.00" transform="matrix(1.00, 0.00, -0.00, -1.00, 61.0, 397.0)"></image><text xml:space="preserve" font-family="HelveticaNeue-Medium" font-size="25.5" fill="#EAEAEA" transform="matrix(1.00, 0.00, -0.00, -1.00, 64.0, 380.9)">•</text><image xlink:href="C9DF115B8725D46D3250E3D35C95A98E.png" width="205.00" height="34.00" transform="matrix(1.00, 0.00, -0.00, -1.00, 92.0, 405.0)"></image><text xml:space="preserve" font-family="HelveticaNeue-Medium" font-size="34.0" fill="#EAEAEA" transform="matrix(1.00, 0.00, -0.00, -1.00, 96.0, 378.0)">W</text><text xml:space="preserve" font-family="HelveticaNeue-Medium" font-size="34.0" fill="#EAEAEA" transform="matrix(1.00, 0.00, -0.00, -1.00, 128.1, 378.0)">h</text><text xml:space="preserve" font-family="HelveticaNeue-Medium" font-size="34.0" fill="#EAEAEA" transform="matrix(1.00, 0.00, -0.00, -1.00, 147.6, 378.0)">a</text><text xml:space="preserve" font-family="HelveticaNeue-Medium" font-size="34.0" fill="#EAEAEA" transform="matrix(1.00, 0.00, -0.00, -1.00, 166.5, 378.0)">t</text><text xml:space="preserve" font-family="HelveticaNeue-Medium" font-size="34.0" fill="#EAEAEA" transform="matrix(1.00, 0.00, -0.00, -1.00, 177.8, 378.0)">'</text><text xml:space="preserve" font-family="HelveticaNeue-Medium" font-size="34.0" fill="#EAEAEA" transform="matrix(1.00, 0.00, -0.00, -1.00, 187.3, 378.0)">s</text><text xml:space="preserve" font-family="HelveticaNeue-Medium" font-size="34.0" fill="#EAEAEA" transform="matrix(1.00, 0.00, -0.00, -1.00, 204.9, 378.0)"> </text><text xml:space="preserve" font-family="HelveticaNeue-Medium" font-size="34.0" fill="#EAEAEA" transform="matrix(1.00, 0.00, -0.00, -1.00, 214.4, 378.0)">t</text><text xml:space="preserve" font-family="HelveticaNeue-Medium" font-size="34.0" fill="#EAEAEA" transform="matrix(1.00, 0.00, -0.00, -1.00, 225.7, 378.0)">h</text><text xml:space="preserve" font-family="HelveticaNeue-Medium" font-size="34.0" fill="#EAEAEA" transform="matrix(1.00, 0.00, -0.00, -1.00, 245.2, 378.0)">a</text><text xml:space="preserve" font-family="HelveticaNeue-Medium" font-size="34.0" fill="#EAEAEA" transform="matrix(1.00, 0.00, -0.00, -1.00, 264.1, 378.0)">t</text><text xml:space="preserve" font-family="HelveticaNeue-Medium" font-size="34.0" fill="#EAEAEA" transform="matrix(1.00, 0.00, -0.00, -1.00, 275.5, 378.0)">?</text><text xml:space="preserve" font-family="HelveticaNeue-Medium" font-size="34.0" fill="#EAEAEA" transform="matrix(1.00, 0.00, -0.00, -1.00, 294.4, 378.0)"> </text><image xlink:href="../../D9433726-5947-428F-A554-7984E936C271/assets/22338A021207344BFFC0BA20AE086817.png" width="18.00" height="18.00" transform="matrix(1.00, 0.00, -0.00, -1.00, 61.0, 314.0)"></image><text xml:space="preserve" font-family="HelveticaNeue-Medium" font-size="25.5" fill="#EAEAEA" transform="matrix(1.00, 0.00, -0.00, -1.00, 64.0, 297.9)">•</text><image xlink:href="F764D0C1C41D88231F4540714BBC0EF6.png" width="364.00" height="40.00" transform="matrix(1.00, 0.00, -0.00, -1.00, 92.0, 322.0)"></image><text xml:space="preserve" font-family="HelveticaNeue-Medium" font-size="34.0" fill="#EAEAEA" transform="matrix(1.00, 0.00, -0.00, -1.00, 96.0, 295.0)">T</text><text xml:space="preserve" font-family="HelveticaNeue-Medium" font-size="34.0" fill="#EAEAEA" transform="matrix(1.00, 0.00, -0.00, -1.00, 116.2, 295.0)">h</text><text xml:space="preserve" font-family="HelveticaNeue-Medium" font-size="34.0" fill="#EAEAEA" transform="matrix(1.00, 0.00, -0.00, -1.00, 135.7, 295.0)">a</text><text xml:space="preserve" font-family="HelveticaNeue-Medium" font-size="34.0" fill="#EAEAEA" transform="matrix(1.00, 0.00, -0.00, -1.00, 154.6, 295.0)">t</text><text xml:space="preserve" font-family="HelveticaNeue-Medium" font-size="34.0" fill="#EAEAEA" transform="matrix(1.00, 0.00, -0.00, -1.00, 165.9, 295.0)">’</text><text xml:space="preserve" font-family="HelveticaNeue-Medium" font-size="34.0" fill="#EAEAEA" transform="matrix(1.00, 0.00, -0.00, -1.00, 172.8, 295.0)">s</text><text xml:space="preserve" font-family="HelveticaNeue-Medium" font-size="34.0" fill="#EAEAEA" transform="matrix(1.00, 0.00, -0.00, -1.00, 190.5, 295.0)"> </text><text xml:space="preserve" font-family="HelveticaNeue-Medium" font-size="34.0" fill="#EAEAEA" transform="matrix(1.00, 0.00, -0.00, -1.00, 199.9, 295.0)">a</text><text xml:space="preserve" font-family="HelveticaNeue-Medium" font-size="34.0" fill="#EAEAEA" transform="matrix(1.00, 0.00, -0.00, -1.00, 218.8, 295.0)"> </text><text xml:space="preserve" font-family="HelveticaNeue-Medium" font-size="34.0" fill="#EAEAEA" transform="matrix(1.00, 0.00, -0.00, -1.00, 228.3, 295.0)">l</text><text xml:space="preserve" font-family="HelveticaNeue-Medium" font-size="34.0" fill="#EAEAEA" transform="matrix(1.00, 0.00, -0.00, -1.00, 236.5, 295.0)">a</text><text xml:space="preserve" font-family="HelveticaNeue-Medium" font-size="34.0" fill="#EAEAEA" transform="matrix(1.00, 0.00, -0.00, -1.00, 255.4, 295.0)">z</text><text xml:space="preserve" font-family="HelveticaNeue-Medium" font-size="34.0" fill="#EAEAEA" transform="matrix(1.00, 0.00, -0.00, -1.00, 272.4, 295.0)">y</text><text xml:space="preserve" font-family="HelveticaNeue-Medium" font-size="34.0" fill="#EAEAEA" transform="matrix(1.00, 0.00, -0.00, -1.00, 290.0, 295.0)"> </text><text xml:space="preserve" font-family="HelveticaNeue-Medium" font-size="34.0" fill="#EAEAEA" transform="matrix(1.00, 0.00, -0.00, -1.00, 299.5, 295.0)">g</text><text xml:space="preserve" font-family="HelveticaNeue-Medium" font-size="34.0" fill="#EAEAEA" transform="matrix(1.00, 0.00, -0.00, -1.00, 319.7, 295.0)">e</text><text xml:space="preserve" font-family="HelveticaNeue-Medium" font-size="34.0" fill="#EAEAEA" transform="matrix(1.00, 0.00, -0.00, -1.00, 338.6, 295.0)">n</text><text xml:space="preserve" font-family="HelveticaNeue-Medium" font-size="34.0" fill="#EAEAEA" transform="matrix(1.00, 0.00, -0.00, -1.00, 358.1, 295.0)">e</text><text xml:space="preserve" font-family="HelveticaNeue-Medium" font-size="34.0" fill="#EAEAEA" transform="matrix(1.00, 0.00, -0.00, -1.00, 377.0, 295.0)">r</text><text xml:space="preserve" font-family="HelveticaNeue-Medium" font-size="34.0" fill="#EAEAEA" transform="matrix(1.00, 0.00, -0.00, -1.00, 388.9, 295.0)">a</text><text xml:space="preserve" font-family="HelveticaNeue-Medium" font-size="34.0" fill="#EAEAEA" transform="matrix(1.00, 0.00, -0.00, -1.00, 407.8, 295.0)">t</text><text xml:space="preserve" font-family="HelveticaNeue-Medium" font-size="34.0" fill="#EAEAEA" transform="matrix(1.00, 0.00, -0.00, -1.00, 419.2, 295.0)">o</text><text xml:space="preserve" font-family="HelveticaNeue-Medium" font-size="34.0" fill="#EAEAEA" transform="matrix(1.00, 0.00, -0.00, -1.00, 439.3, 295.0)">r</text><text xml:space="preserve" font-family="HelveticaNeue-Medium" font-size="34.0" fill="#EAEAEA" transform="matrix(1.00, 0.00, -0.00, -1.00, 451.3, 295.0)"> </text><image xlink:href="../../D9433726-5947-428F-A554-7984E936C271/assets/22338A021207344BFFC0BA20AE086817.png" width="18.00" height="18.00" transform="matrix(1.00, 0.00, -0.00, -1.00, 93.0, 231.0)"></image><text xml:space="preserve" font-family="HelveticaNeue-Medium" font-size="25.5" fill="#EAEAEA" transform="matrix(1.00, 0.00, -0.00, -1.00, 96.0, 214.9)">•</text><image xlink:href="3BD37F75685A0B86EFF5AE5417936284.png" width="404.00" height="40.00" transform="matrix(1.00, 0.00, -0.00, -1.00, 126.0, 239.0)"></image><text xml:space="preserve" font-family="HelveticaNeue-Medium" font-size="34.0" fill="#EAEAEA" transform="matrix(1.00, 0.00, -0.00, -1.00, 128.0, 212.0)">I</text><text xml:space="preserve" font-family="HelveticaNeue-Medium" font-size="34.0" fill="#EAEAEA" transform="matrix(1.00, 0.00, -0.00, -1.00, 137.5, 212.0)">t</text><text xml:space="preserve" font-family="HelveticaNeue-Medium" font-size="34.0" fill="#EAEAEA" transform="matrix(1.00, 0.00, -0.00, -1.00, 148.8, 212.0)"> </text><text xml:space="preserve" font-family="HelveticaNeue-Medium" font-size="34.0" fill="#EAEAEA" transform="matrix(1.00, 0.00, -0.00, -1.00, 158.2, 212.0)">d</text><text xml:space="preserve" font-family="HelveticaNeue-Medium" font-size="34.0" fill="#EAEAEA" transform="matrix(1.00, 0.00, -0.00, -1.00, 179.0, 212.0)">i</text><text xml:space="preserve" font-family="HelveticaNeue-Medium" font-size="34.0" fill="#EAEAEA" transform="matrix(1.00, 0.00, -0.00, -1.00, 187.2, 212.0)">d</text><text xml:space="preserve" font-family="HelveticaNeue-Medium" font-size="34.0" fill="#EAEAEA" transform="matrix(1.00, 0.00, -0.00, -1.00, 208.0, 212.0)">n</text><text xml:space="preserve" font-family="HelveticaNeue-Medium" font-size="34.0" fill="#EAEAEA" transform="matrix(1.00, 0.00, -0.00, -1.00, 227.5, 212.0)">’</text><text xml:space="preserve" font-family="HelveticaNeue-Medium" font-size="34.0" fill="#EAEAEA" transform="matrix(1.00, 0.00, -0.00, -1.00, 236.3, 212.0)">t</text><text xml:space="preserve" font-family="HelveticaNeue-Medium" font-size="34.0" fill="#EAEAEA" transform="matrix(1.00, 0.00, -0.00, -1.00, 247.6, 212.0)"> </text><text xml:space="preserve" font-family="HelveticaNeue-Medium" font-size="34.0" fill="#EAEAEA" transform="matrix(1.00, 0.00, -0.00, -1.00, 257.1, 212.0)">r</text><text xml:space="preserve" font-family="HelveticaNeue-Medium" font-size="34.0" fill="#EAEAEA" transform="matrix(1.00, 0.00, -0.00, -1.00, 268.5, 212.0)">e</text><text xml:space="preserve" font-family="HelveticaNeue-Medium" font-size="34.0" fill="#EAEAEA" transform="matrix(1.00, 0.00, -0.00, -1.00, 287.4, 212.0)">t</text><text xml:space="preserve" font-family="HelveticaNeue-Medium" font-size="34.0" fill="#EAEAEA" transform="matrix(1.00, 0.00, -0.00, -1.00, 298.7, 212.0)">u</text><text xml:space="preserve" font-family="HelveticaNeue-Medium" font-size="34.0" fill="#EAEAEA" transform="matrix(1.00, 0.00, -0.00, -1.00, 318.2, 212.0)">r</text><text xml:space="preserve" font-family="HelveticaNeue-Medium" font-size="34.0" fill="#EAEAEA" transform="matrix(1.00, 0.00, -0.00, -1.00, 330.8, 212.0)">n</text><text xml:space="preserve" font-family="HelveticaNeue-Medium" font-size="34.0" fill="#EAEAEA" transform="matrix(1.00, 0.00, -0.00, -1.00, 350.3, 212.0)"> </text><text xml:space="preserve" font-family="HelveticaNeue-Medium" font-size="34.0" fill="#EAEAEA" transform="matrix(1.00, 0.00, -0.00, -1.00, 359.7, 212.0)">a</text><text xml:space="preserve" font-family="HelveticaNeue-Medium" font-size="34.0" fill="#EAEAEA" transform="matrix(1.00, 0.00, -0.00, -1.00, 378.6, 212.0)">n</text><text xml:space="preserve" font-family="HelveticaNeue-Medium" font-size="34.0" fill="#EAEAEA" transform="matrix(1.00, 0.00, -0.00, -1.00, 398.2, 212.0)">y</text><text xml:space="preserve" font-family="HelveticaNeue-Medium" font-size="34.0" fill="#EAEAEA" transform="matrix(1.00, 0.00, -0.00, -1.00, 415.8, 212.0)"> </text><text xml:space="preserve" font-family="HelveticaNeue-Medium" font-size="34.0" fill="#EAEAEA" transform="matrix(1.00, 0.00, -0.00, -1.00, 425.3, 212.0)">v</text><text xml:space="preserve" font-family="HelveticaNeue-Medium" font-size="34.0" fill="#EAEAEA" transform="matrix(1.00, 0.00, -0.00, -1.00, 442.9, 212.0)">a</text><text xml:space="preserve" font-family="HelveticaNeue-Medium" font-size="34.0" fill="#EAEAEA" transform="matrix(1.00, 0.00, -0.00, -1.00, 461.8, 212.0)">l</text><text xml:space="preserve" font-family="HelveticaNeue-Medium" font-size="34.0" fill="#EAEAEA" transform="matrix(1.00, 0.00, -0.00, -1.00, 470.0, 212.0)">u</text><text xml:space="preserve" font-family="HelveticaNeue-Medium" font-size="34.0" fill="#EAEAEA" transform="matrix(1.00, 0.00, -0.00, -1.00, 489.5, 212.0)">e</text><text xml:space="preserve" font-family="HelveticaNeue-Medium" font-size="34.0" fill="#EAEAEA" transform="matrix(1.00, 0.00, -0.00, -1.00, 508.4, 212.0)">s</text><text xml:space="preserve" font-family="HelveticaNeue-Medium" font-size="34.0" fill="#EAEAEA" transform="matrix(1.00, 0.00, -0.00, -1.00, 526.1, 212.0)"> </text><text xml:space="preserve" font-family="HelveticaNeue-Medium" font-size="34.0" fill="#EAEAEA" transform="matrix(1.00, 0.00, -0.00, -1.00, 535.5, 212.0)"> </text><image xlink:href="../../D9433726-5947-428F-A554-7984E936C271/assets/22338A021207344BFFC0BA20AE086817.png" width="18.00" height="18.00" transform="matrix(1.00, 0.00, -0.00, -1.00, 93.0, 148.0)"></image><text xml:space="preserve" font-family="HelveticaNeue-Medium" font-size="25.5" fill="#EAEAEA" transform="matrix(1.00, 0.00, -0.00, -1.00, 96.0, 131.9)">•</text><image xlink:href="54F3920F329C0D63FD49A555EBD69E2C.png" width="674.00" height="40.00" transform="matrix(1.00, 0.00, -0.00, -1.00, 124.0, 156.0)"></image><text xml:space="preserve" font-family="HelveticaNeue-Medium" font-size="34.0" fill="#EAEAEA" transform="matrix(1.00, 0.00, -0.00, -1.00, 128.0, 129.0)">W</text><text xml:space="preserve" font-family="HelveticaNeue-Medium" font-size="34.0" fill="#EAEAEA" transform="matrix(1.00, 0.00, -0.00, -1.00, 159.5, 129.0)">e</text><text xml:space="preserve" font-family="HelveticaNeue-Medium" font-size="34.0" fill="#EAEAEA" transform="matrix(1.00, 0.00, -0.00, -1.00, 178.4, 129.0)"> </text><text xml:space="preserve" font-family="HelveticaNeue-Medium" font-size="34.0" fill="#EAEAEA" transform="matrix(1.00, 0.00, -0.00, -1.00, 187.8, 129.0)">n</text><text xml:space="preserve" font-family="HelveticaNeue-Medium" font-size="34.0" fill="#EAEAEA" transform="matrix(1.00, 0.00, -0.00, -1.00, 207.4, 129.0)">e</text><text xml:space="preserve" font-family="HelveticaNeue-Medium" font-size="34.0" fill="#EAEAEA" transform="matrix(1.00, 0.00, -0.00, -1.00, 226.3, 129.0)">e</text><text xml:space="preserve" font-family="HelveticaNeue-Medium" font-size="34.0" fill="#EAEAEA" transform="matrix(1.00, 0.00, -0.00, -1.00, 245.2, 129.0)">d</text><text xml:space="preserve" font-family="HelveticaNeue-Medium" font-size="34.0" fill="#EAEAEA" transform="matrix(1.00, 0.00, -0.00, -1.00, 265.9, 129.0)"> </text><text xml:space="preserve" font-family="HelveticaNeue-Medium" font-size="34.0" fill="#EAEAEA" transform="matrix(1.00, 0.00, -0.00, -1.00, 275.4, 129.0)">t</text><text xml:space="preserve" font-family="HelveticaNeue-Medium" font-size="34.0" fill="#EAEAEA" transform="matrix(1.00, 0.00, -0.00, -1.00, 286.7, 129.0)">o</text><text xml:space="preserve" font-family="HelveticaNeue-Medium" font-size="34.0" fill="#EAEAEA" transform="matrix(1.00, 0.00, -0.00, -1.00, 306.9, 129.0)"> </text><text xml:space="preserve" font-family="HelveticaNeue-Medium" font-size="34.0" fill="#EAEAEA" transform="matrix(1.00, 0.00, -0.00, -1.00, 316.3, 129.0)">c</text><text xml:space="preserve" font-family="HelveticaNeue-Medium" font-size="34.0" fill="#EAEAEA" transform="matrix(1.00, 0.00, -0.00, -1.00, 335.2, 129.0)">o</text><text xml:space="preserve" font-family="HelveticaNeue-Medium" font-size="34.0" fill="#EAEAEA" transform="matrix(1.00, 0.00, -0.00, -1.00, 355.4, 129.0)">n</text><text xml:space="preserve" font-family="HelveticaNeue-Medium" font-size="34.0" fill="#EAEAEA" transform="matrix(1.00, 0.00, -0.00, -1.00, 374.9, 129.0)">s</text><text xml:space="preserve" font-family="HelveticaNeue-Medium" font-size="34.0" fill="#EAEAEA" transform="matrix(1.00, 0.00, -0.00, -1.00, 392.6, 129.0)">u</text><text xml:space="preserve" font-family="HelveticaNeue-Medium" font-size="34.0" fill="#EAEAEA" transform="matrix(1.00, 0.00, -0.00, -1.00, 412.1, 129.0)">m</text><text xml:space="preserve" font-family="HelveticaNeue-Medium" font-size="34.0" fill="#EAEAEA" transform="matrix(1.00, 0.00, -0.00, -1.00, 441.6, 129.0)">e</text><text xml:space="preserve" font-family="HelveticaNeue-Medium" font-size="34.0" fill="#EAEAEA" transform="matrix(1.00, 0.00, -0.00, -1.00, 460.6, 129.0)"> </text><text xml:space="preserve" font-family="HelveticaNeue-Medium" font-size="34.0" fill="#EAEAEA" transform="matrix(1.00, 0.00, -0.00, -1.00, 470.0, 129.0)">t</text><text xml:space="preserve" font-family="HelveticaNeue-Medium" font-size="34.0" fill="#EAEAEA" transform="matrix(1.00, 0.00, -0.00, -1.00, 481.3, 129.0)">h</text><text xml:space="preserve" font-family="HelveticaNeue-Medium" font-size="34.0" fill="#EAEAEA" transform="matrix(1.00, 0.00, -0.00, -1.00, 500.8, 129.0)">e</text><text xml:space="preserve" font-family="HelveticaNeue-Medium" font-size="34.0" fill="#EAEAEA" transform="matrix(1.00, 0.00, -0.00, -1.00, 519.7, 129.0)"> </text><text xml:space="preserve" font-family="HelveticaNeue-Medium" font-size="34.0" fill="#EAEAEA" transform="matrix(1.00, 0.00, -0.00, -1.00, 529.2, 129.0)">o</text><text xml:space="preserve" font-family="HelveticaNeue-Medium" font-size="34.0" fill="#EAEAEA" transform="matrix(1.00, 0.00, -0.00, -1.00, 549.4, 129.0)">u</text><text xml:space="preserve" font-family="HelveticaNeue-Medium" font-size="34.0" fill="#EAEAEA" transform="matrix(1.00, 0.00, -0.00, -1.00, 568.9, 129.0)">t</text><text xml:space="preserve" font-family="HelveticaNeue-Medium" font-size="34.0" fill="#EAEAEA" transform="matrix(1.00, 0.00, -0.00, -1.00, 580.2, 129.0)">p</text><text xml:space="preserve" font-family="HelveticaNeue-Medium" font-size="34.0" fill="#EAEAEA" transform="matrix(1.00, 0.00, -0.00, -1.00, 601.0, 129.0)">u</text><text xml:space="preserve" font-family="HelveticaNeue-Medium" font-size="34.0" fill="#EAEAEA" transform="matrix(1.00, 0.00, -0.00, -1.00, 620.5, 129.0)">t</text><text xml:space="preserve" font-family="HelveticaNeue-Medium" font-size="34.0" fill="#EAEAEA" transform="matrix(1.00, 0.00, -0.00, -1.00, 631.8, 129.0)"> </text><text xml:space="preserve" font-family="HelveticaNeue-Medium" font-size="34.0" fill="#EAEAEA" transform="matrix(1.00, 0.00, -0.00, -1.00, 641.3, 129.0)">s</text><text xml:space="preserve" font-family="HelveticaNeue-Medium" font-size="34.0" fill="#EAEAEA" transform="matrix(1.00, 0.00, -0.00, -1.00, 658.9, 129.0)">o</text><text xml:space="preserve" font-family="HelveticaNeue-Medium" font-size="34.0" fill="#EAEAEA" transform="matrix(1.00, 0.00, -0.00, -1.00, 679.1, 129.0)">m</text><text xml:space="preserve" font-family="HelveticaNeue-Medium" font-size="34.0" fill="#EAEAEA" transform="matrix(1.00, 0.00, -0.00, -1.00, 708.7, 129.0)">e</text><text xml:space="preserve" font-family="HelveticaNeue-Medium" font-size="34.0" fill="#EAEAEA" transform="matrix(1.00, 0.00, -0.00, -1.00, 727.6, 129.0)">h</text><text xml:space="preserve" font-family="HelveticaNeue-Medium" font-size="34.0" fill="#EAEAEA" transform="matrix(1.00, 0.00, -0.00, -1.00, 747.1, 129.0)">o</text><text xml:space="preserve" font-family="HelveticaNeue-Medium" font-size="34.0" fill="#EAEAEA" transform="matrix(1.00, 0.00, -0.00, -1.00, 767.2, 129.0)">w</text></g></svg>