<?xml version="1.0" encoding="UTF-8" standalone="no"?><svg xmlns="http://www.w3.org/2000/svg" xmlns:xlink="http://www.w3.org/1999/xlink" clip-rule="evenodd" stroke-miterlimit="4.00" viewBox="0 0 1024 768"><desc>SVG generated by Keynote</desc><defs></defs><g transform="matrix(1.00, 0.00, -0.00, -1.00, 0.0, 768.0)"><g><clipPath id="clip-39"><path d="M 0.0 768.0 L 1024.0 768.0 L 1024.0 0.0 L 0.0 0.0 Z M 0.0 768.0 "></path></clipPath><g clip-path="url(#clip-39)"><image xlink:href="../../363ACDF5-F69A-4348-A617-267FC1DCB792/assets/2CA05975C404A6B79EB2D17D5C3EEC1C.jpeg" width="1024.00" height="768.00" transform="matrix(1.00, 0.00, -0.00, -1.00, 0.0, 768.0)"></image></g></g><image xlink:href="92D8F7AC2D797F82D9752C63A13F7D04.png" width="727.00" height="67.00" transform="matrix(1.00, 0.00, -0.00, -1.00, 150.0, 693.0)"></image><text xml:space="preserve" font-family="HelveticaNeue-Bold" font-weight="bold" font-size="64.0" fill="#FEFFFE" transform="matrix(1.00, 0.00, -0.00, -1.00, 150.0, 644.0)">F</text><text xml:space="preserve" font-family="HelveticaNeue-Bold" font-weight="bold" font-size="64.0" fill="#FEFFFE" transform="matrix(1.00, 0.00, -0.00, -1.00, 188.0, 644.0)">u</text><text xml:space="preserve" font-family="HelveticaNeue-Bold" font-weight="bold" font-size="64.0" fill="#FEFFFE" transform="matrix(1.00, 0.00, -0.00, -1.00, 225.9, 644.0)">n</text><text xml:space="preserve" font-family="HelveticaNeue-Bold" font-weight="bold" font-size="64.0" fill="#FEFFFE" transform="matrix(1.00, 0.00, -0.00, -1.00, 263.9, 644.0)">c</text><text xml:space="preserve" font-family="HelveticaNeue-Bold" font-weight="bold" font-size="64.0" fill="#FEFFFE" transform="matrix(1.00, 0.00, -0.00, -1.00, 300.6, 644.0)">t</text><text xml:space="preserve" font-family="HelveticaNeue-Bold" font-weight="bold" font-size="64.0" fill="#FEFFFE" transform="matrix(1.00, 0.00, -0.00, -1.00, 323.1, 644.0)">i</text><text xml:space="preserve" font-family="HelveticaNeue-Bold" font-weight="bold" font-size="64.0" fill="#FEFFFE" transform="matrix(1.00, 0.00, -0.00, -1.00, 339.6, 644.0)">o</text><text xml:space="preserve" font-family="HelveticaNeue-Bold" font-weight="bold" font-size="64.0" fill="#FEFFFE" transform="matrix(1.00, 0.00, -0.00, -1.00, 378.7, 644.0)">n</text><text xml:space="preserve" font-family="HelveticaNeue-Bold" font-weight="bold" font-size="64.0" fill="#FEFFFE" transform="matrix(1.00, 0.00, -0.00, -1.00, 416.7, 644.0)">s</text><text xml:space="preserve" font-family="HelveticaNeue-Bold" font-weight="bold" font-size="64.0" fill="#FEFFFE" transform="matrix(1.00, 0.00, -0.00, -1.00, 451.1, 644.0)"> </text><text xml:space="preserve" font-family="HelveticaNeue-Bold" font-weight="bold" font-size="64.0" fill="#FEFFFE" transform="matrix(1.00, 0.00, -0.00, -1.00, 468.8, 644.0)">a</text><text xml:space="preserve" font-family="HelveticaNeue-Bold" font-weight="bold" font-size="64.0" fill="#FEFFFE" transform="matrix(1.00, 0.00, -0.00, -1.00, 505.6, 644.0)">r</text><text xml:space="preserve" font-family="HelveticaNeue-Bold" font-weight="bold" font-size="64.0" fill="#FEFFFE" transform="matrix(1.00, 0.00, -0.00, -1.00, 529.3, 644.0)">e</text><text xml:space="preserve" font-family="HelveticaNeue-Bold" font-weight="bold" font-size="64.0" fill="#FEFFFE" transform="matrix(1.00, 0.00, -0.00, -1.00, 566.1, 644.0)"> </text><text xml:space="preserve" font-family="HelveticaNeue-Bold" font-weight="bold" font-size="64.0" fill="#FEFFFE" transform="matrix(1.00, 0.00, -0.00, -1.00, 583.9, 644.0)">O</text><text xml:space="preserve" font-family="HelveticaNeue-Bold" font-weight="bold" font-size="64.0" fill="#FEFFFE" transform="matrix(1.00, 0.00, -0.00, -1.00, 633.6, 644.0)">b</text><text xml:space="preserve" font-family="HelveticaNeue-Bold" font-weight="bold" font-size="64.0" fill="#FEFFFE" transform="matrix(1.00, 0.00, -0.00, -1.00, 672.8, 644.0)">j</text><text xml:space="preserve" font-family="HelveticaNeue-Bold" font-weight="bold" font-size="64.0" fill="#FEFFFE" transform="matrix(1.00, 0.00, -0.00, -1.00, 690.5, 644.0)">e</text><text xml:space="preserve" font-family="HelveticaNeue-Bold" font-weight="bold" font-size="64.0" fill="#FEFFFE" transform="matrix(1.00, 0.00, -0.00, -1.00, 727.3, 644.0)">c</text><text xml:space="preserve" font-family="HelveticaNeue-Bold" font-weight="bold" font-size="64.0" fill="#FEFFFE" transform="matrix(1.00, 0.00, -0.00, -1.00, 764.0, 644.0)">t</text><text xml:space="preserve" font-family="HelveticaNeue-Bold" font-weight="bold" font-size="64.0" fill="#FEFFFE" transform="matrix(1.00, 0.00, -0.00, -1.00, 786.5, 644.0)">s</text><text xml:space="preserve" font-family="HelveticaNeue-Bold" font-weight="bold" font-size="64.0" fill="#FEFFFE" transform="matrix(1.00, 0.00, -0.00, -1.00, 820.9, 644.0)"> </text><text xml:space="preserve" font-family="HelveticaNeue-Bold" font-weight="bold" font-size="64.0" fill="#FEFFFE" transform="matrix(1.00, 0.00, -0.00, -1.00, 838.7, 644.0)">2</text><image xlink:href="2099E1A9374D30370D178411D3FA7E60.png" width="12.00" height="12.00" transform="matrix(1.00, 0.00, -0.00, -1.00, 62.0, 566.0)"></image><text xml:space="preserve" font-family="HelveticaNeue-Medium" font-size="15.9" fill="#EAEAEA" transform="matrix(1.00, 0.00, -0.00, -1.00, 64.0, 555.5)">•</text><image xlink:href="2A3A4AF7DDF2577F4619A4A4D79730F8.png" width="140.00" height="23.00" transform="matrix(1.00, 0.00, -0.00, -1.00, 82.0, 570.0)"></image><text xml:space="preserve" font-family="HelveticaNeue-Medium" font-size="21.2" fill="#EAEAEA" transform="matrix(1.00, 0.00, -0.00, -1.00, 85.0, 552.0)">C</text><text xml:space="preserve" font-family="HelveticaNeue-Medium" font-size="21.2" fill="#EAEAEA" transform="matrix(1.00, 0.00, -0.00, -1.00, 100.3, 552.0)">o</text><text xml:space="preserve" font-family="HelveticaNeue-Medium" font-size="21.2" fill="#EAEAEA" transform="matrix(1.00, 0.00, -0.00, -1.00, 112.8, 552.0)">n</text><text xml:space="preserve" font-family="HelveticaNeue-Medium" font-size="21.2" fill="#EAEAEA" transform="matrix(1.00, 0.00, -0.00, -1.00, 125.0, 552.0)">s</text><text xml:space="preserve" font-family="HelveticaNeue-Medium" font-size="21.2" fill="#EAEAEA" transform="matrix(1.00, 0.00, -0.00, -1.00, 136.0, 552.0)">i</text><text xml:space="preserve" font-family="HelveticaNeue-Medium" font-size="21.2" fill="#EAEAEA" transform="matrix(1.00, 0.00, -0.00, -1.00, 141.1, 552.0)">d</text><text xml:space="preserve" font-family="HelveticaNeue-Medium" font-size="21.2" fill="#EAEAEA" transform="matrix(1.00, 0.00, -0.00, -1.00, 154.0, 552.0)">e</text><text xml:space="preserve" font-family="HelveticaNeue-Medium" font-size="21.2" fill="#EAEAEA" transform="matrix(1.00, 0.00, -0.00, -1.00, 165.7, 552.0)">r</text><text xml:space="preserve" font-family="HelveticaNeue-Medium" font-size="21.2" fill="#EAEAEA" transform="matrix(1.00, 0.00, -0.00, -1.00, 173.2, 552.0)"> </text><text xml:space="preserve" font-family="HelveticaNeue-Medium" font-size="21.2" fill="#EAEAEA" transform="matrix(1.00, 0.00, -0.00, -1.00, 179.1, 552.0)">t</text><text xml:space="preserve" font-family="HelveticaNeue-Medium" font-size="21.2" fill="#EAEAEA" transform="matrix(1.00, 0.00, -0.00, -1.00, 186.1, 552.0)">h</text><text xml:space="preserve" font-family="HelveticaNeue-Medium" font-size="21.2" fill="#EAEAEA" transform="matrix(1.00, 0.00, -0.00, -1.00, 198.3, 552.0)">i</text><text xml:space="preserve" font-family="HelveticaNeue-Medium" font-size="21.2" fill="#EAEAEA" transform="matrix(1.00, 0.00, -0.00, -1.00, 203.4, 552.0)">s</text><text xml:space="preserve" font-family="HelveticaNeue-Medium" font-size="21.2" fill="#EAEAEA" transform="matrix(1.00, 0.00, -0.00, -1.00, 214.4, 552.0)">:</text><text xml:space="preserve" font-family="HelveticaNeue-Medium" font-size="21.2" fill="#EAEAEA" transform="matrix(1.00, 0.00, -0.00, -1.00, 220.2, 552.0)"> </text><image xlink:href="3D4549C7A77F9B53A82B3C29B10FB58B.png" width="407.00" height="26.00" transform="matrix(1.00, 0.00, -0.00, -1.00, 62.0, 518.0)"></image><text xml:space="preserve" font-family="AndaleMono" font-size="21.2" fill="#EAEAEA" transform="matrix(1.00, 0.00, -0.00, -1.00, 64.0, 501.0)">d</text><text xml:space="preserve" font-family="AndaleMono" font-size="21.2" fill="#EAEAEA" transform="matrix(1.00, 0.00, -0.00, -1.00, 76.7, 501.0)">e</text><text xml:space="preserve" font-family="AndaleMono" font-size="21.2" fill="#EAEAEA" transform="matrix(1.00, 0.00, -0.00, -1.00, 89.4, 501.0)">f</text><text xml:space="preserve" font-family="AndaleMono" font-size="21.2" fill="#EAEAEA" transform="matrix(1.00, 0.00, -0.00, -1.00, 102.1, 501.0)"> </text><text xml:space="preserve" font-family="AndaleMono" font-size="21.2" fill="#EAEAEA" transform="matrix(1.00, 0.00, -0.00, -1.00, 114.8, 501.0)">s</text><text xml:space="preserve" font-family="AndaleMono" font-size="21.2" fill="#EAEAEA" transform="matrix(1.00, 0.00, -0.00, -1.00, 127.5, 501.0)">h</text><text xml:space="preserve" font-family="AndaleMono" font-size="21.2" fill="#EAEAEA" transform="matrix(1.00, 0.00, -0.00, -1.00, 140.2, 501.0)">a</text><text xml:space="preserve" font-family="AndaleMono" font-size="21.2" fill="#EAEAEA" transform="matrix(1.00, 0.00, -0.00, -1.00, 152.9, 501.0)">b</text><text xml:space="preserve" font-family="AndaleMono" font-size="21.2" fill="#EAEAEA" transform="matrix(1.00, 0.00, -0.00, -1.00, 165.6, 501.0)">b</text><text xml:space="preserve" font-family="AndaleMono" font-size="21.2" fill="#EAEAEA" transform="matrix(1.00, 0.00, -0.00, -1.00, 178.3, 501.0)">y</text><text xml:space="preserve" font-family="AndaleMono" font-size="21.2" fill="#EAEAEA" transform="matrix(1.00, 0.00, -0.00, -1.00, 191.0, 501.0)">_</text><text xml:space="preserve" font-family="AndaleMono" font-size="21.2" fill="#EAEAEA" transform="matrix(1.00, 0.00, -0.00, -1.00, 203.7, 501.0)">l</text><text xml:space="preserve" font-family="AndaleMono" font-size="21.2" fill="#EAEAEA" transform="matrix(1.00, 0.00, -0.00, -1.00, 216.4, 501.0)">o</text><text xml:space="preserve" font-family="AndaleMono" font-size="21.2" fill="#EAEAEA" transform="matrix(1.00, 0.00, -0.00, -1.00, 229.1, 501.0)">g</text><text xml:space="preserve" font-family="AndaleMono" font-size="21.2" fill="#EAEAEA" transform="matrix(1.00, 0.00, -0.00, -1.00, 241.8, 501.0)">(</text><text xml:space="preserve" font-family="AndaleMono" font-size="21.2" fill="#EAEAEA" transform="matrix(1.00, 0.00, -0.00, -1.00, 254.5, 501.0)">f</text><text xml:space="preserve" font-family="AndaleMono" font-size="21.2" fill="#EAEAEA" transform="matrix(1.00, 0.00, -0.00, -1.00, 267.2, 501.0)">u</text><text xml:space="preserve" font-family="AndaleMono" font-size="21.2" fill="#EAEAEA" transform="matrix(1.00, 0.00, -0.00, -1.00, 279.9, 501.0)">n</text><text xml:space="preserve" font-family="AndaleMono" font-size="21.2" fill="#EAEAEA" transform="matrix(1.00, 0.00, -0.00, -1.00, 292.6, 501.0)">c</text><text xml:space="preserve" font-family="AndaleMono" font-size="21.2" fill="#EAEAEA" transform="matrix(1.00, 0.00, -0.00, -1.00, 305.3, 501.0)">t</text><text xml:space="preserve" font-family="AndaleMono" font-size="21.2" fill="#EAEAEA" transform="matrix(1.00, 0.00, -0.00, -1.00, 318.0, 501.0)">i</text><text xml:space="preserve" font-family="AndaleMono" font-size="21.2" fill="#EAEAEA" transform="matrix(1.00, 0.00, -0.00, -1.00, 330.7, 501.0)">o</text><text xml:space="preserve" font-family="AndaleMono" font-size="21.2" fill="#EAEAEA" transform="matrix(1.00, 0.00, -0.00, -1.00, 343.4, 501.0)">n</text><text xml:space="preserve" font-family="AndaleMono" font-size="21.2" fill="#EAEAEA" transform="matrix(1.00, 0.00, -0.00, -1.00, 356.1, 501.0)">,</text><text xml:space="preserve" font-family="AndaleMono" font-size="21.2" fill="#EAEAEA" transform="matrix(1.00, 0.00, -0.00, -1.00, 368.8, 501.0)"> </text><text xml:space="preserve" font-family="AndaleMono" font-size="21.2" fill="#EAEAEA" transform="matrix(1.00, 0.00, -0.00, -1.00, 381.5, 501.0)">v</text><text xml:space="preserve" font-family="AndaleMono" font-size="21.2" fill="#EAEAEA" transform="matrix(1.00, 0.00, -0.00, -1.00, 394.2, 501.0)">a</text><text xml:space="preserve" font-family="AndaleMono" font-size="21.2" fill="#EAEAEA" transform="matrix(1.00, 0.00, -0.00, -1.00, 406.9, 501.0)">l</text><text xml:space="preserve" font-family="AndaleMono" font-size="21.2" fill="#EAEAEA" transform="matrix(1.00, 0.00, -0.00, -1.00, 419.6, 501.0)">u</text><text xml:space="preserve" font-family="AndaleMono" font-size="21.2" fill="#EAEAEA" transform="matrix(1.00, 0.00, -0.00, -1.00, 432.3, 501.0)">e</text><text xml:space="preserve" font-family="AndaleMono" font-size="21.2" fill="#EAEAEA" transform="matrix(1.00, 0.00, -0.00, -1.00, 445.0, 501.0)">)</text><text xml:space="preserve" font-family="AndaleMono" font-size="21.2" fill="#EAEAEA" transform="matrix(1.00, 0.00, -0.00, -1.00, 457.7, 501.0)">:</text><text xml:space="preserve" font-family="AndaleMono" font-size="21.2" fill="#EAEAEA" transform="matrix(1.00, 0.00, -0.00, -1.00, 470.3, 501.0)"> </text><image xlink:href="B6E0698DBA2F3DE043AB787F31A604DC.png" width="279.00" height="26.00" transform="matrix(1.00, 0.00, -0.00, -1.00, 101.0, 467.0)"></image><text xml:space="preserve" font-family="AndaleMono" font-size="21.2" fill="#EAEAEA" transform="matrix(1.00, 0.00, -0.00, -1.00, 64.0, 450.0)"> </text><text xml:space="preserve" font-family="AndaleMono" font-size="21.2" fill="#EAEAEA" transform="matrix(1.00, 0.00, -0.00, -1.00, 76.7, 450.0)"> </text><text xml:space="preserve" font-family="AndaleMono" font-size="21.2" fill="#EAEAEA" transform="matrix(1.00, 0.00, -0.00, -1.00, 89.4, 450.0)"> </text><text xml:space="preserve" font-family="AndaleMono" font-size="21.2" fill="#EAEAEA" transform="matrix(1.00, 0.00, -0.00, -1.00, 102.1, 450.0)">p</text><text xml:space="preserve" font-family="AndaleMono" font-size="21.2" fill="#EAEAEA" transform="matrix(1.00, 0.00, -0.00, -1.00, 114.8, 450.0)">r</text><text xml:space="preserve" font-family="AndaleMono" font-size="21.2" fill="#EAEAEA" transform="matrix(1.00, 0.00, -0.00, -1.00, 127.5, 450.0)">i</text><text xml:space="preserve" font-family="AndaleMono" font-size="21.2" fill="#EAEAEA" transform="matrix(1.00, 0.00, -0.00, -1.00, 140.2, 450.0)">n</text><text xml:space="preserve" font-family="AndaleMono" font-size="21.2" fill="#EAEAEA" transform="matrix(1.00, 0.00, -0.00, -1.00, 152.9, 450.0)">t</text><text xml:space="preserve" font-family="AndaleMono" font-size="21.2" fill="#EAEAEA" transform="matrix(1.00, 0.00, -0.00, -1.00, 165.6, 450.0)">(</text><text xml:space="preserve" font-family="AndaleMono" font-size="21.2" fill="#EAEAEA" transform="matrix(1.00, 0.00, -0.00, -1.00, 178.3, 450.0)">f</text><text xml:space="preserve" font-family="AndaleMono" font-size="21.2" fill="#EAEAEA" transform="matrix(1.00, 0.00, -0.00, -1.00, 191.0, 450.0)">u</text><text xml:space="preserve" font-family="AndaleMono" font-size="21.2" fill="#EAEAEA" transform="matrix(1.00, 0.00, -0.00, -1.00, 203.7, 450.0)">n</text><text xml:space="preserve" font-family="AndaleMono" font-size="21.2" fill="#EAEAEA" transform="matrix(1.00, 0.00, -0.00, -1.00, 216.4, 450.0)">c</text><text xml:space="preserve" font-family="AndaleMono" font-size="21.2" fill="#EAEAEA" transform="matrix(1.00, 0.00, -0.00, -1.00, 229.1, 450.0)">t</text><text xml:space="preserve" font-family="AndaleMono" font-size="21.2" fill="#EAEAEA" transform="matrix(1.00, 0.00, -0.00, -1.00, 241.8, 450.0)">i</text><text xml:space="preserve" font-family="AndaleMono" font-size="21.2" fill="#EAEAEA" transform="matrix(1.00, 0.00, -0.00, -1.00, 254.5, 450.0)">o</text><text xml:space="preserve" font-family="AndaleMono" font-size="21.2" fill="#EAEAEA" transform="matrix(1.00, 0.00, -0.00, -1.00, 267.2, 450.0)">n</text><text xml:space="preserve" font-family="AndaleMono" font-size="21.2" fill="#EAEAEA" transform="matrix(1.00, 0.00, -0.00, -1.00, 279.9, 450.0)">,</text><text xml:space="preserve" font-family="AndaleMono" font-size="21.2" fill="#EAEAEA" transform="matrix(1.00, 0.00, -0.00, -1.00, 292.6, 450.0)"> </text><text xml:space="preserve" font-family="AndaleMono" font-size="21.2" fill="#EAEAEA" transform="matrix(1.00, 0.00, -0.00, -1.00, 305.3, 450.0)">v</text><text xml:space="preserve" font-family="AndaleMono" font-size="21.2" fill="#EAEAEA" transform="matrix(1.00, 0.00, -0.00, -1.00, 318.0, 450.0)">a</text><text xml:space="preserve" font-family="AndaleMono" font-size="21.2" fill="#EAEAEA" transform="matrix(1.00, 0.00, -0.00, -1.00, 330.7, 450.0)">l</text><text xml:space="preserve" font-family="AndaleMono" font-size="21.2" fill="#EAEAEA" transform="matrix(1.00, 0.00, -0.00, -1.00, 343.4, 450.0)">u</text><text xml:space="preserve" font-family="AndaleMono" font-size="21.2" fill="#EAEAEA" transform="matrix(1.00, 0.00, -0.00, -1.00, 356.1, 450.0)">e</text><text xml:space="preserve" font-family="AndaleMono" font-size="21.2" fill="#EAEAEA" transform="matrix(1.00, 0.00, -0.00, -1.00, 368.8, 450.0)">)</text><text xml:space="preserve" font-family="AndaleMono" font-size="21.2" fill="#EAEAEA" transform="matrix(1.00, 0.00, -0.00, -1.00, 381.5, 450.0)"> </text><image xlink:href="218EDB4F5B4E0363BDCCD04F73EA1702.png" width="278.00" height="25.00" transform="matrix(1.00, 0.00, -0.00, -1.00, 102.0, 417.0)"></image><text xml:space="preserve" font-family="AndaleMono" font-size="21.2" fill="#EAEAEA" transform="matrix(1.00, 0.00, -0.00, -1.00, 64.0, 400.0)"> </text><text xml:space="preserve" font-family="AndaleMono" font-size="21.2" fill="#EAEAEA" transform="matrix(1.00, 0.00, -0.00, -1.00, 76.7, 400.0)"> </text><text xml:space="preserve" font-family="AndaleMono" font-size="21.2" fill="#EAEAEA" transform="matrix(1.00, 0.00, -0.00, -1.00, 89.4, 400.0)"> </text><text xml:space="preserve" font-family="AndaleMono" font-size="21.2" fill="#EAEAEA" transform="matrix(1.00, 0.00, -0.00, -1.00, 102.1, 400.0)">r</text><text xml:space="preserve" font-family="AndaleMono" font-size="21.2" fill="#EAEAEA" transform="matrix(1.00, 0.00, -0.00, -1.00, 114.8, 400.0)">e</text><text xml:space="preserve" font-family="AndaleMono" font-size="21.2" fill="#EAEAEA" transform="matrix(1.00, 0.00, -0.00, -1.00, 127.5, 400.0)">t</text><text xml:space="preserve" font-family="AndaleMono" font-size="21.2" fill="#EAEAEA" transform="matrix(1.00, 0.00, -0.00, -1.00, 140.2, 400.0)">u</text><text xml:space="preserve" font-family="AndaleMono" font-size="21.2" fill="#EAEAEA" transform="matrix(1.00, 0.00, -0.00, -1.00, 152.9, 400.0)">r</text><text xml:space="preserve" font-family="AndaleMono" font-size="21.2" fill="#EAEAEA" transform="matrix(1.00, 0.00, -0.00, -1.00, 165.6, 400.0)">n</text><text xml:space="preserve" font-family="AndaleMono" font-size="21.2" fill="#EAEAEA" transform="matrix(1.00, 0.00, -0.00, -1.00, 178.3, 400.0)"> </text><text xml:space="preserve" font-family="AndaleMono" font-size="21.2" fill="#EAEAEA" transform="matrix(1.00, 0.00, -0.00, -1.00, 191.0, 400.0)">f</text><text xml:space="preserve" font-family="AndaleMono" font-size="21.2" fill="#EAEAEA" transform="matrix(1.00, 0.00, -0.00, -1.00, 203.7, 400.0)">u</text><text xml:space="preserve" font-family="AndaleMono" font-size="21.2" fill="#EAEAEA" transform="matrix(1.00, 0.00, -0.00, -1.00, 216.4, 400.0)">n</text><text xml:space="preserve" font-family="AndaleMono" font-size="21.2" fill="#EAEAEA" transform="matrix(1.00, 0.00, -0.00, -1.00, 229.1, 400.0)">c</text><text xml:space="preserve" font-family="AndaleMono" font-size="21.2" fill="#EAEAEA" transform="matrix(1.00, 0.00, -0.00, -1.00, 241.8, 400.0)">t</text><text xml:space="preserve" font-family="AndaleMono" font-size="21.2" fill="#EAEAEA" transform="matrix(1.00, 0.00, -0.00, -1.00, 254.5, 400.0)">i</text><text xml:space="preserve" font-family="AndaleMono" font-size="21.2" fill="#EAEAEA" transform="matrix(1.00, 0.00, -0.00, -1.00, 267.2, 400.0)">o</text><text xml:space="preserve" font-family="AndaleMono" font-size="21.2" fill="#EAEAEA" transform="matrix(1.00, 0.00, -0.00, -1.00, 279.9, 400.0)">n</text><text xml:space="preserve" font-family="AndaleMono" font-size="21.2" fill="#EAEAEA" transform="matrix(1.00, 0.00, -0.00, -1.00, 292.6, 400.0)">(</text><text xml:space="preserve" font-family="AndaleMono" font-size="21.2" fill="#EAEAEA" transform="matrix(1.00, 0.00, -0.00, -1.00, 305.3, 400.0)">v</text><text xml:space="preserve" font-family="AndaleMono" font-size="21.2" fill="#EAEAEA" transform="matrix(1.00, 0.00, -0.00, -1.00, 318.0, 400.0)">a</text><text xml:space="preserve" font-family="AndaleMono" font-size="21.2" fill="#EAEAEA" transform="matrix(1.00, 0.00, -0.00, -1.00, 330.7, 400.0)">l</text><text xml:space="preserve" font-family="AndaleMono" font-size="21.2" fill="#EAEAEA" transform="matrix(1.00, 0.00, -0.00, -1.00, 343.4, 400.0)">u</text><text xml:space="preserve" font-family="AndaleMono" font-size="21.2" fill="#EAEAEA" transform="matrix(1.00, 0.00, -0.00, -1.00, 356.1, 400.0)">e</text><text xml:space="preserve" font-family="AndaleMono" font-size="21.2" fill="#EAEAEA" transform="matrix(1.00, 0.00, -0.00, -1.00, 368.8, 400.0)">)</text><text xml:space="preserve" font-family="AndaleMono" font-size="21.2" fill="#EAEAEA" transform="matrix(1.00, 0.00, -0.00, -1.00, 381.5, 400.0)"> </text><image xlink:href="7963560A2A545256DAB2997F0DE252C0.png" width="12.00" height="13.00" transform="matrix(1.00, 0.00, -0.00, -1.00, 62.0, 361.0)"></image><text xml:space="preserve" font-family="HelveticaNeue-Medium" font-size="15.9" fill="#EAEAEA" transform="matrix(1.00, 0.00, -0.00, -1.00, 64.0, 349.8)">•</text><image xlink:href="AA99DBC7BEE7FFBCC901C1B078C106B8.png" width="141.00" height="23.00" transform="matrix(1.00, 0.00, -0.00, -1.00, 83.0, 364.0)"></image><text xml:space="preserve" font-family="HelveticaNeue-Medium" font-size="21.2" fill="#EAEAEA" transform="matrix(1.00, 0.00, -0.00, -1.00, 85.0, 346.0)">U</text><text xml:space="preserve" font-family="HelveticaNeue-Medium" font-size="21.2" fill="#EAEAEA" transform="matrix(1.00, 0.00, -0.00, -1.00, 100.3, 346.0)">s</text><text xml:space="preserve" font-family="HelveticaNeue-Medium" font-size="21.2" fill="#EAEAEA" transform="matrix(1.00, 0.00, -0.00, -1.00, 111.3, 346.0)">e</text><text xml:space="preserve" font-family="HelveticaNeue-Medium" font-size="21.2" fill="#EAEAEA" transform="matrix(1.00, 0.00, -0.00, -1.00, 123.0, 346.0)">d</text><text xml:space="preserve" font-family="HelveticaNeue-Medium" font-size="21.2" fill="#EAEAEA" transform="matrix(1.00, 0.00, -0.00, -1.00, 136.0, 346.0)"> </text><text xml:space="preserve" font-family="HelveticaNeue-Medium" font-size="21.2" fill="#EAEAEA" transform="matrix(1.00, 0.00, -0.00, -1.00, 141.8, 346.0)">l</text><text xml:space="preserve" font-family="HelveticaNeue-Medium" font-size="21.2" fill="#EAEAEA" transform="matrix(1.00, 0.00, -0.00, -1.00, 146.9, 346.0)">i</text><text xml:space="preserve" font-family="HelveticaNeue-Medium" font-size="21.2" fill="#EAEAEA" transform="matrix(1.00, 0.00, -0.00, -1.00, 152.0, 346.0)">k</text><text xml:space="preserve" font-family="HelveticaNeue-Medium" font-size="21.2" fill="#EAEAEA" transform="matrix(1.00, 0.00, -0.00, -1.00, 163.4, 346.0)">e</text><text xml:space="preserve" font-family="HelveticaNeue-Medium" font-size="21.2" fill="#EAEAEA" transform="matrix(1.00, 0.00, -0.00, -1.00, 175.2, 346.0)"> </text><text xml:space="preserve" font-family="HelveticaNeue-Medium" font-size="21.2" fill="#EAEAEA" transform="matrix(1.00, 0.00, -0.00, -1.00, 181.0, 346.0)">t</text><text xml:space="preserve" font-family="HelveticaNeue-Medium" font-size="21.2" fill="#EAEAEA" transform="matrix(1.00, 0.00, -0.00, -1.00, 188.1, 346.0)">h</text><text xml:space="preserve" font-family="HelveticaNeue-Medium" font-size="21.2" fill="#EAEAEA" transform="matrix(1.00, 0.00, -0.00, -1.00, 200.2, 346.0)">i</text><text xml:space="preserve" font-family="HelveticaNeue-Medium" font-size="21.2" fill="#EAEAEA" transform="matrix(1.00, 0.00, -0.00, -1.00, 205.3, 346.0)">s</text><text xml:space="preserve" font-family="HelveticaNeue-Medium" font-size="21.2" fill="#EAEAEA" transform="matrix(1.00, 0.00, -0.00, -1.00, 216.3, 346.0)">:</text><text xml:space="preserve" font-family="HelveticaNeue-Medium" font-size="21.2" fill="#EAEAEA" transform="matrix(1.00, 0.00, -0.00, -1.00, 222.2, 346.0)"> </text><image xlink:href="73BE645F9FBB395D1C5E4A7CA0F3C650.png" width="279.00" height="26.00" transform="matrix(1.00, 0.00, -0.00, -1.00, 63.0, 312.0)"></image><text xml:space="preserve" font-family="AndaleMono" font-size="21.2" fill="#EAEAEA" transform="matrix(1.00, 0.00, -0.00, -1.00, 64.0, 295.0)">&gt;</text><text xml:space="preserve" font-family="AndaleMono" font-size="21.2" fill="#EAEAEA" transform="matrix(1.00, 0.00, -0.00, -1.00, 76.7, 295.0)">&gt;</text><text xml:space="preserve" font-family="AndaleMono" font-size="21.2" fill="#EAEAEA" transform="matrix(1.00, 0.00, -0.00, -1.00, 89.4, 295.0)">&gt;</text><text xml:space="preserve" font-family="AndaleMono" font-size="21.2" fill="#EAEAEA" transform="matrix(1.00, 0.00, -0.00, -1.00, 102.1, 295.0)"> </text><text xml:space="preserve" font-family="AndaleMono" font-size="21.2" fill="#EAEAEA" transform="matrix(1.00, 0.00, -0.00, -1.00, 114.8, 295.0)">s</text><text xml:space="preserve" font-family="AndaleMono" font-size="21.2" fill="#EAEAEA" transform="matrix(1.00, 0.00, -0.00, -1.00, 127.5, 295.0)">h</text><text xml:space="preserve" font-family="AndaleMono" font-size="21.2" fill="#EAEAEA" transform="matrix(1.00, 0.00, -0.00, -1.00, 140.2, 295.0)">a</text><text xml:space="preserve" font-family="AndaleMono" font-size="21.2" fill="#EAEAEA" transform="matrix(1.00, 0.00, -0.00, -1.00, 152.9, 295.0)">b</text><text xml:space="preserve" font-family="AndaleMono" font-size="21.2" fill="#EAEAEA" transform="matrix(1.00, 0.00, -0.00, -1.00, 165.6, 295.0)">b</text><text xml:space="preserve" font-family="AndaleMono" font-size="21.2" fill="#EAEAEA" transform="matrix(1.00, 0.00, -0.00, -1.00, 178.3, 295.0)">y</text><text xml:space="preserve" font-family="AndaleMono" font-size="21.2" fill="#EAEAEA" transform="matrix(1.00, 0.00, -0.00, -1.00, 191.0, 295.0)">_</text><text xml:space="preserve" font-family="AndaleMono" font-size="21.2" fill="#EAEAEA" transform="matrix(1.00, 0.00, -0.00, -1.00, 203.7, 295.0)">l</text><text xml:space="preserve" font-family="AndaleMono" font-size="21.2" fill="#EAEAEA" transform="matrix(1.00, 0.00, -0.00, -1.00, 216.4, 295.0)">o</text><text xml:space="preserve" font-family="AndaleMono" font-size="21.2" fill="#EAEAEA" transform="matrix(1.00, 0.00, -0.00, -1.00, 229.1, 295.0)">g</text><text xml:space="preserve" font-family="AndaleMono" font-size="21.2" fill="#EAEAEA" transform="matrix(1.00, 0.00, -0.00, -1.00, 241.8, 295.0)">(</text><text xml:space="preserve" font-family="AndaleMono" font-size="21.2" fill="#EAEAEA" transform="matrix(1.00, 0.00, -0.00, -1.00, 254.5, 295.0)">o</text><text xml:space="preserve" font-family="AndaleMono" font-size="21.2" fill="#EAEAEA" transform="matrix(1.00, 0.00, -0.00, -1.00, 267.2, 295.0)">d</text><text xml:space="preserve" font-family="AndaleMono" font-size="21.2" fill="#EAEAEA" transform="matrix(1.00, 0.00, -0.00, -1.00, 279.9, 295.0)">d</text><text xml:space="preserve" font-family="AndaleMono" font-size="21.2" fill="#EAEAEA" transform="matrix(1.00, 0.00, -0.00, -1.00, 292.6, 295.0)">,</text><text xml:space="preserve" font-family="AndaleMono" font-size="21.2" fill="#EAEAEA" transform="matrix(1.00, 0.00, -0.00, -1.00, 305.3, 295.0)"> </text><text xml:space="preserve" font-family="AndaleMono" font-size="21.2" fill="#EAEAEA" transform="matrix(1.00, 0.00, -0.00, -1.00, 318.0, 295.0)">3</text><text xml:space="preserve" font-family="AndaleMono" font-size="21.2" fill="#EAEAEA" transform="matrix(1.00, 0.00, -0.00, -1.00, 330.7, 295.0)">)</text><text xml:space="preserve" font-family="AndaleMono" font-size="21.2" fill="#EAEAEA" transform="matrix(1.00, 0.00, -0.00, -1.00, 343.4, 295.0)"> </text><image xlink:href="FE2CADAF3AE7F1504A8E328A0B806C15.png" width="358.00" height="22.00" transform="matrix(1.00, 0.00, -0.00, -1.00, 63.0, 262.0)"></image><text xml:space="preserve" font-family="AndaleMono" font-size="21.2" fill="#EAEAEA" transform="matrix(1.00, 0.00, -0.00, -1.00, 64.0, 245.0)">&lt;</text><text xml:space="preserve" font-family="AndaleMono" font-size="21.2" fill="#EAEAEA" transform="matrix(1.00, 0.00, -0.00, -1.00, 76.7, 245.0)">f</text><text xml:space="preserve" font-family="AndaleMono" font-size="21.2" fill="#EAEAEA" transform="matrix(1.00, 0.00, -0.00, -1.00, 89.4, 245.0)">u</text><text xml:space="preserve" font-family="AndaleMono" font-size="21.2" fill="#EAEAEA" transform="matrix(1.00, 0.00, -0.00, -1.00, 102.1, 245.0)">n</text><text xml:space="preserve" font-family="AndaleMono" font-size="21.2" fill="#EAEAEA" transform="matrix(1.00, 0.00, -0.00, -1.00, 114.8, 245.0)">c</text><text xml:space="preserve" font-family="AndaleMono" font-size="21.2" fill="#EAEAEA" transform="matrix(1.00, 0.00, -0.00, -1.00, 127.5, 245.0)">t</text><text xml:space="preserve" font-family="AndaleMono" font-size="21.2" fill="#EAEAEA" transform="matrix(1.00, 0.00, -0.00, -1.00, 140.2, 245.0)">i</text><text xml:space="preserve" font-family="AndaleMono" font-size="21.2" fill="#EAEAEA" transform="matrix(1.00, 0.00, -0.00, -1.00, 152.9, 245.0)">o</text><text xml:space="preserve" font-family="AndaleMono" font-size="21.2" fill="#EAEAEA" transform="matrix(1.00, 0.00, -0.00, -1.00, 165.6, 245.0)">n</text><text xml:space="preserve" font-family="AndaleMono" font-size="21.2" fill="#EAEAEA" transform="matrix(1.00, 0.00, -0.00, -1.00, 178.3, 245.0)"> </text><text xml:space="preserve" font-family="AndaleMono" font-size="21.2" fill="#EAEAEA" transform="matrix(1.00, 0.00, -0.00, -1.00, 191.0, 245.0)">o</text><text xml:space="preserve" font-family="AndaleMono" font-size="21.2" fill="#EAEAEA" transform="matrix(1.00, 0.00, -0.00, -1.00, 203.7, 245.0)">d</text><text xml:space="preserve" font-family="AndaleMono" font-size="21.2" fill="#EAEAEA" transform="matrix(1.00, 0.00, -0.00, -1.00, 216.4, 245.0)">d</text><text xml:space="preserve" font-family="AndaleMono" font-size="21.2" fill="#EAEAEA" transform="matrix(1.00, 0.00, -0.00, -1.00, 229.1, 245.0)"> </text><text xml:space="preserve" font-family="AndaleMono" font-size="21.2" fill="#EAEAEA" transform="matrix(1.00, 0.00, -0.00, -1.00, 241.8, 245.0)">a</text><text xml:space="preserve" font-family="AndaleMono" font-size="21.2" fill="#EAEAEA" transform="matrix(1.00, 0.00, -0.00, -1.00, 254.5, 245.0)">t</text><text xml:space="preserve" font-family="AndaleMono" font-size="21.2" fill="#EAEAEA" transform="matrix(1.00, 0.00, -0.00, -1.00, 267.2, 245.0)"> </text><text xml:space="preserve" font-family="AndaleMono" font-size="21.2" fill="#EAEAEA" transform="matrix(1.00, 0.00, -0.00, -1.00, 279.9, 245.0)">0</text><text xml:space="preserve" font-family="AndaleMono" font-size="21.2" fill="#EAEAEA" transform="matrix(1.00, 0.00, -0.00, -1.00, 292.6, 245.0)">x</text><text xml:space="preserve" font-family="AndaleMono" font-size="21.2" fill="#EAEAEA" transform="matrix(1.00, 0.00, -0.00, -1.00, 305.3, 245.0)">6</text><text xml:space="preserve" font-family="AndaleMono" font-size="21.2" fill="#EAEAEA" transform="matrix(1.00, 0.00, -0.00, -1.00, 318.0, 245.0)">1</text><text xml:space="preserve" font-family="AndaleMono" font-size="21.2" fill="#EAEAEA" transform="matrix(1.00, 0.00, -0.00, -1.00, 330.7, 245.0)">3</text><text xml:space="preserve" font-family="AndaleMono" font-size="21.2" fill="#EAEAEA" transform="matrix(1.00, 0.00, -0.00, -1.00, 343.4, 245.0)">9</text><text xml:space="preserve" font-family="AndaleMono" font-size="21.2" fill="#EAEAEA" transform="matrix(1.00, 0.00, -0.00, -1.00, 356.1, 245.0)">7</text><text xml:space="preserve" font-family="AndaleMono" font-size="21.2" fill="#EAEAEA" transform="matrix(1.00, 0.00, -0.00, -1.00, 368.8, 245.0)">8</text><text xml:space="preserve" font-family="AndaleMono" font-size="21.2" fill="#EAEAEA" transform="matrix(1.00, 0.00, -0.00, -1.00, 381.5, 245.0)">&gt;</text><text xml:space="preserve" font-family="AndaleMono" font-size="21.2" fill="#EAEAEA" transform="matrix(1.00, 0.00, -0.00, -1.00, 394.2, 245.0)"> </text><text xml:space="preserve" font-family="AndaleMono" font-size="21.2" fill="#EAEAEA" transform="matrix(1.00, 0.00, -0.00, -1.00, 406.9, 245.0)">3</text><text xml:space="preserve" font-family="AndaleMono" font-size="21.2" fill="#EAEAEA" transform="matrix(1.00, 0.00, -0.00, -1.00, 419.5, 245.0)"> </text><image xlink:href="B3E30B5D9DE1471D060AEAE1C1E74594.png" width="48.00" height="23.00" transform="matrix(1.00, 0.00, -0.00, -1.00, 61.0, 211.0)"></image><text xml:space="preserve" font-family="Helvetica" font-size="21.2" fill="#EAEAEA" transform="matrix(1.00, 0.00, -0.00, -1.00, 64.0, 193.0)">T</text><text xml:space="preserve" font-family="Helvetica" font-size="21.2" fill="#EAEAEA" transform="matrix(1.00, 0.00, -0.00, -1.00, 76.1, 193.0)">r</text><text xml:space="preserve" font-family="Helvetica" font-size="21.2" fill="#EAEAEA" transform="matrix(1.00, 0.00, -0.00, -1.00, 83.2, 193.0)">u</text><text xml:space="preserve" font-family="Helvetica" font-size="21.2" fill="#EAEAEA" transform="matrix(1.00, 0.00, -0.00, -1.00, 95.0, 193.0)">e</text><image xlink:href="10B541FF8B497B913005B55EF326D1A0.png" width="12.00" height="13.00" transform="matrix(1.00, 0.00, -0.00, -1.00, 62.0, 154.0)"></image><text xml:space="preserve" font-family="HelveticaNeue-Medium" font-size="15.9" fill="#EAEAEA" transform="matrix(1.00, 0.00, -0.00, -1.00, 64.0, 143.0)">•</text><image xlink:href="E29AEB196A45CEEE7519616538AB161D.png" width="42.00" height="23.00" transform="matrix(1.00, 0.00, -0.00, -1.00, 82.0, 158.0)"></image><text xml:space="preserve" font-family="HelveticaNeue-Medium" font-size="21.2" fill="#EAEAEA" transform="matrix(1.00, 0.00, -0.00, -1.00, 85.0, 140.0)">T</text><text xml:space="preserve" font-family="HelveticaNeue-Medium" font-size="21.2" fill="#EAEAEA" transform="matrix(1.00, 0.00, -0.00, -1.00, 97.5, 140.0)">h</text><text xml:space="preserve" font-family="HelveticaNeue-Medium" font-size="21.2" fill="#EAEAEA" transform="matrix(1.00, 0.00, -0.00, -1.00, 109.7, 140.0)">e</text><text xml:space="preserve" font-family="HelveticaNeue-Medium" font-size="21.2" fill="#EAEAEA" transform="matrix(1.00, 0.00, -0.00, -1.00, 121.5, 140.0)"> </text><image xlink:href="9B6E575C35BC4FB51253E7D4668C800E.png" width="153.00" height="26.00" transform="matrix(1.00, 0.00, -0.00, -1.00, 126.0, 157.0)"></image><text xml:space="preserve" font-family="AndaleMono" font-size="21.2" fill="#EAEAEA" transform="matrix(1.00, 0.00, -0.00, -1.00, 127.3, 140.0)">s</text><text xml:space="preserve" font-family="AndaleMono" font-size="21.2" fill="#EAEAEA" transform="matrix(1.00, 0.00, -0.00, -1.00, 140.0, 140.0)">h</text><text xml:space="preserve" font-family="AndaleMono" font-size="21.2" fill="#EAEAEA" transform="matrix(1.00, 0.00, -0.00, -1.00, 152.7, 140.0)">a</text><text xml:space="preserve" font-family="AndaleMono" font-size="21.2" fill="#EAEAEA" transform="matrix(1.00, 0.00, -0.00, -1.00, 165.4, 140.0)">b</text><text xml:space="preserve" font-family="AndaleMono" font-size="21.2" fill="#EAEAEA" transform="matrix(1.00, 0.00, -0.00, -1.00, 178.1, 140.0)">b</text><text xml:space="preserve" font-family="AndaleMono" font-size="21.2" fill="#EAEAEA" transform="matrix(1.00, 0.00, -0.00, -1.00, 190.8, 140.0)">y</text><text xml:space="preserve" font-family="AndaleMono" font-size="21.2" fill="#EAEAEA" transform="matrix(1.00, 0.00, -0.00, -1.00, 203.5, 140.0)">_</text><text xml:space="preserve" font-family="AndaleMono" font-size="21.2" fill="#EAEAEA" transform="matrix(1.00, 0.00, -0.00, -1.00, 216.2, 140.0)">l</text><text xml:space="preserve" font-family="AndaleMono" font-size="21.2" fill="#EAEAEA" transform="matrix(1.00, 0.00, -0.00, -1.00, 228.9, 140.0)">o</text><text xml:space="preserve" font-family="AndaleMono" font-size="21.2" fill="#EAEAEA" transform="matrix(1.00, 0.00, -0.00, -1.00, 241.6, 140.0)">g</text><text xml:space="preserve" font-family="AndaleMono" font-size="21.2" fill="#EAEAEA" transform="matrix(1.00, 0.00, -0.00, -1.00, 254.3, 140.0)">(</text><text xml:space="preserve" font-family="AndaleMono" font-size="21.2" fill="#EAEAEA" transform="matrix(1.00, 0.00, -0.00, -1.00, 267.0, 140.0)">)</text><image xlink:href="4DE66773137924368D15C2DE89BDEE75.png" width="444.00" height="27.00" transform="matrix(1.00, 0.00, -0.00, -1.00, 282.0, 158.0)"></image><text xml:space="preserve" font-family="HelveticaNeue-Medium" font-size="21.2" fill="#EAEAEA" transform="matrix(1.00, 0.00, -0.00, -1.00, 279.7, 140.0)"> </text><text xml:space="preserve" font-family="HelveticaNeue-Medium" font-size="21.2" fill="#EAEAEA" transform="matrix(1.00, 0.00, -0.00, -1.00, 285.6, 140.0)">f</text><text xml:space="preserve" font-family="HelveticaNeue-Medium" font-size="21.2" fill="#EAEAEA" transform="matrix(1.00, 0.00, -0.00, -1.00, 292.3, 140.0)">u</text><text xml:space="preserve" font-family="HelveticaNeue-Medium" font-size="21.2" fill="#EAEAEA" transform="matrix(1.00, 0.00, -0.00, -1.00, 304.4, 140.0)">n</text><text xml:space="preserve" font-family="HelveticaNeue-Medium" font-size="21.2" fill="#EAEAEA" transform="matrix(1.00, 0.00, -0.00, -1.00, 316.6, 140.0)">c</text><text xml:space="preserve" font-family="HelveticaNeue-Medium" font-size="21.2" fill="#EAEAEA" transform="matrix(1.00, 0.00, -0.00, -1.00, 328.3, 140.0)">t</text><text xml:space="preserve" font-family="HelveticaNeue-Medium" font-size="21.2" fill="#EAEAEA" transform="matrix(1.00, 0.00, -0.00, -1.00, 335.4, 140.0)">i</text><text xml:space="preserve" font-family="HelveticaNeue-Medium" font-size="21.2" fill="#EAEAEA" transform="matrix(1.00, 0.00, -0.00, -1.00, 340.5, 140.0)">o</text><text xml:space="preserve" font-family="HelveticaNeue-Medium" font-size="21.2" fill="#EAEAEA" transform="matrix(1.00, 0.00, -0.00, -1.00, 353.0, 140.0)">n</text><text xml:space="preserve" font-family="HelveticaNeue-Medium" font-size="21.2" fill="#EAEAEA" transform="matrix(1.00, 0.00, -0.00, -1.00, 365.2, 140.0)"> </text><text xml:space="preserve" font-family="HelveticaNeue-Medium" font-size="21.2" fill="#EAEAEA" transform="matrix(1.00, 0.00, -0.00, -1.00, 371.0, 140.0)">a</text><text xml:space="preserve" font-family="HelveticaNeue-Medium" font-size="21.2" fill="#EAEAEA" transform="matrix(1.00, 0.00, -0.00, -1.00, 382.8, 140.0)">c</text><text xml:space="preserve" font-family="HelveticaNeue-Medium" font-size="21.2" fill="#EAEAEA" transform="matrix(1.00, 0.00, -0.00, -1.00, 394.6, 140.0)">c</text><text xml:space="preserve" font-family="HelveticaNeue-Medium" font-size="21.2" fill="#EAEAEA" transform="matrix(1.00, 0.00, -0.00, -1.00, 406.3, 140.0)">e</text><text xml:space="preserve" font-family="HelveticaNeue-Medium" font-size="21.2" fill="#EAEAEA" transform="matrix(1.00, 0.00, -0.00, -1.00, 418.1, 140.0)">p</text><text xml:space="preserve" font-family="HelveticaNeue-Medium" font-size="21.2" fill="#EAEAEA" transform="matrix(1.00, 0.00, -0.00, -1.00, 431.0, 140.0)">t</text><text xml:space="preserve" font-family="HelveticaNeue-Medium" font-size="21.2" fill="#EAEAEA" transform="matrix(1.00, 0.00, -0.00, -1.00, 438.1, 140.0)">e</text><text xml:space="preserve" font-family="HelveticaNeue-Medium" font-size="21.2" fill="#EAEAEA" transform="matrix(1.00, 0.00, -0.00, -1.00, 449.8, 140.0)">d</text><text xml:space="preserve" font-family="HelveticaNeue-Medium" font-size="21.2" fill="#EAEAEA" transform="matrix(1.00, 0.00, -0.00, -1.00, 462.8, 140.0)"> </text><text xml:space="preserve" font-family="HelveticaNeue-Medium" font-size="21.2" fill="#EAEAEA" transform="matrix(1.00, 0.00, -0.00, -1.00, 468.7, 140.0)">a</text><text xml:space="preserve" font-family="HelveticaNeue-Medium" font-size="21.2" fill="#EAEAEA" transform="matrix(1.00, 0.00, -0.00, -1.00, 480.4, 140.0)"> </text><text xml:space="preserve" font-family="HelveticaNeue-Medium" font-size="21.2" fill="#EAEAEA" transform="matrix(1.00, 0.00, -0.00, -1.00, 486.3, 140.0)">f</text><text xml:space="preserve" font-family="HelveticaNeue-Medium" font-size="21.2" fill="#EAEAEA" transform="matrix(1.00, 0.00, -0.00, -1.00, 493.0, 140.0)">u</text><text xml:space="preserve" font-family="HelveticaNeue-Medium" font-size="21.2" fill="#EAEAEA" transform="matrix(1.00, 0.00, -0.00, -1.00, 505.1, 140.0)">n</text><text xml:space="preserve" font-family="HelveticaNeue-Medium" font-size="21.2" fill="#EAEAEA" transform="matrix(1.00, 0.00, -0.00, -1.00, 517.3, 140.0)">c</text><text xml:space="preserve" font-family="HelveticaNeue-Medium" font-size="21.2" fill="#EAEAEA" transform="matrix(1.00, 0.00, -0.00, -1.00, 529.0, 140.0)">t</text><text xml:space="preserve" font-family="HelveticaNeue-Medium" font-size="21.2" fill="#EAEAEA" transform="matrix(1.00, 0.00, -0.00, -1.00, 536.1, 140.0)">i</text><text xml:space="preserve" font-family="HelveticaNeue-Medium" font-size="21.2" fill="#EAEAEA" transform="matrix(1.00, 0.00, -0.00, -1.00, 541.2, 140.0)">o</text><text xml:space="preserve" font-family="HelveticaNeue-Medium" font-size="21.2" fill="#EAEAEA" transform="matrix(1.00, 0.00, -0.00, -1.00, 553.7, 140.0)">n</text><text xml:space="preserve" font-family="HelveticaNeue-Medium" font-size="21.2" fill="#EAEAEA" transform="matrix(1.00, 0.00, -0.00, -1.00, 565.9, 140.0)"> </text><text xml:space="preserve" font-family="HelveticaNeue-Medium" font-size="21.2" fill="#EAEAEA" transform="matrix(1.00, 0.00, -0.00, -1.00, 571.7, 140.0)">a</text><text xml:space="preserve" font-family="HelveticaNeue-Medium" font-size="21.2" fill="#EAEAEA" transform="matrix(1.00, 0.00, -0.00, -1.00, 583.5, 140.0)">s</text><text xml:space="preserve" font-family="HelveticaNeue-Medium" font-size="21.2" fill="#EAEAEA" transform="matrix(1.00, 0.00, -0.00, -1.00, 594.5, 140.0)"> </text><text xml:space="preserve" font-family="HelveticaNeue-Medium" font-size="21.2" fill="#EAEAEA" transform="matrix(1.00, 0.00, -0.00, -1.00, 600.4, 140.0)">a</text><text xml:space="preserve" font-family="HelveticaNeue-Medium" font-size="21.2" fill="#EAEAEA" transform="matrix(1.00, 0.00, -0.00, -1.00, 612.1, 140.0)">n</text><text xml:space="preserve" font-family="HelveticaNeue-Medium" font-size="21.2" fill="#EAEAEA" transform="matrix(1.00, 0.00, -0.00, -1.00, 624.3, 140.0)"> </text><text xml:space="preserve" font-family="HelveticaNeue-Medium" font-size="21.2" fill="#EAEAEA" transform="matrix(1.00, 0.00, -0.00, -1.00, 630.2, 140.0)">a</text><text xml:space="preserve" font-family="HelveticaNeue-Medium" font-size="21.2" fill="#EAEAEA" transform="matrix(1.00, 0.00, -0.00, -1.00, 641.9, 140.0)">r</text><text xml:space="preserve" font-family="HelveticaNeue-Medium" font-size="21.2" fill="#EAEAEA" transform="matrix(1.00, 0.00, -0.00, -1.00, 649.4, 140.0)">g</text><text xml:space="preserve" font-family="HelveticaNeue-Medium" font-size="21.2" fill="#EAEAEA" transform="matrix(1.00, 0.00, -0.00, -1.00, 661.9, 140.0)">u</text><text xml:space="preserve" font-family="HelveticaNeue-Medium" font-size="21.2" fill="#EAEAEA" transform="matrix(1.00, 0.00, -0.00, -1.00, 674.1, 140.0)">m</text><text xml:space="preserve" font-family="HelveticaNeue-Medium" font-size="21.2" fill="#EAEAEA" transform="matrix(1.00, 0.00, -0.00, -1.00, 692.5, 140.0)">e</text><text xml:space="preserve" font-family="HelveticaNeue-Medium" font-size="21.2" fill="#EAEAEA" transform="matrix(1.00, 0.00, -0.00, -1.00, 704.3, 140.0)">n</text><text xml:space="preserve" font-family="HelveticaNeue-Medium" font-size="21.2" fill="#EAEAEA" transform="matrix(1.00, 0.00, -0.00, -1.00, 716.4, 140.0)">t</text><text xml:space="preserve" font-family="HelveticaNeue-Medium" font-size="21.2" fill="#EAEAEA" transform="matrix(1.00, 0.00, -0.00, -1.00, 723.4, 140.0)"> </text><image xlink:href="95C9F01EC90C33E10B2458B1E0B60440.png" width="12.00" height="12.00" transform="matrix(1.00, 0.00, -0.00, -1.00, 94.0, 100.0)"></image><text xml:space="preserve" font-family="HelveticaNeue-Medium" font-size="15.9" fill="#EAEAEA" transform="matrix(1.00, 0.00, -0.00, -1.00, 96.0, 89.3)">•</text><image xlink:href="BCDC5E1FF4B99AF2D24E23C08FA63C16.png" width="253.00" height="27.00" transform="matrix(1.00, 0.00, -0.00, -1.00, 113.0, 104.0)"></image><text xml:space="preserve" font-family="HelveticaNeue-Medium" font-size="21.2" fill="#EAEAEA" transform="matrix(1.00, 0.00, -0.00, -1.00, 117.0, 86.0)">A</text><text xml:space="preserve" font-family="HelveticaNeue-Medium" font-size="21.2" fill="#EAEAEA" transform="matrix(1.00, 0.00, -0.00, -1.00, 131.1, 86.0)">n</text><text xml:space="preserve" font-family="HelveticaNeue-Medium" font-size="21.2" fill="#EAEAEA" transform="matrix(1.00, 0.00, -0.00, -1.00, 143.3, 86.0)">d</text><text xml:space="preserve" font-family="HelveticaNeue-Medium" font-size="21.2" fill="#EAEAEA" transform="matrix(1.00, 0.00, -0.00, -1.00, 156.2, 86.0)"> </text><text xml:space="preserve" font-family="HelveticaNeue-Medium" font-size="21.2" fill="#EAEAEA" transform="matrix(1.00, 0.00, -0.00, -1.00, 162.1, 86.0)">a</text><text xml:space="preserve" font-family="HelveticaNeue-Medium" font-size="21.2" fill="#EAEAEA" transform="matrix(1.00, 0.00, -0.00, -1.00, 173.8, 86.0)">p</text><text xml:space="preserve" font-family="HelveticaNeue-Medium" font-size="21.2" fill="#EAEAEA" transform="matrix(1.00, 0.00, -0.00, -1.00, 186.8, 86.0)">p</text><text xml:space="preserve" font-family="HelveticaNeue-Medium" font-size="21.2" fill="#EAEAEA" transform="matrix(1.00, 0.00, -0.00, -1.00, 199.7, 86.0)">l</text><text xml:space="preserve" font-family="HelveticaNeue-Medium" font-size="21.2" fill="#EAEAEA" transform="matrix(1.00, 0.00, -0.00, -1.00, 204.8, 86.0)">i</text><text xml:space="preserve" font-family="HelveticaNeue-Medium" font-size="21.2" fill="#EAEAEA" transform="matrix(1.00, 0.00, -0.00, -1.00, 209.9, 86.0)">e</text><text xml:space="preserve" font-family="HelveticaNeue-Medium" font-size="21.2" fill="#EAEAEA" transform="matrix(1.00, 0.00, -0.00, -1.00, 221.7, 86.0)">d</text><text xml:space="preserve" font-family="HelveticaNeue-Medium" font-size="21.2" fill="#EAEAEA" transform="matrix(1.00, 0.00, -0.00, -1.00, 234.6, 86.0)"> </text><text xml:space="preserve" font-family="HelveticaNeue-Medium" font-size="21.2" fill="#EAEAEA" transform="matrix(1.00, 0.00, -0.00, -1.00, 240.5, 86.0)">t</text><text xml:space="preserve" font-family="HelveticaNeue-Medium" font-size="21.2" fill="#EAEAEA" transform="matrix(1.00, 0.00, -0.00, -1.00, 247.5, 86.0)">h</text><text xml:space="preserve" font-family="HelveticaNeue-Medium" font-size="21.2" fill="#EAEAEA" transform="matrix(1.00, 0.00, -0.00, -1.00, 259.7, 86.0)">a</text><text xml:space="preserve" font-family="HelveticaNeue-Medium" font-size="21.2" fill="#EAEAEA" transform="matrix(1.00, 0.00, -0.00, -1.00, 271.4, 86.0)">t</text><text xml:space="preserve" font-family="HelveticaNeue-Medium" font-size="21.2" fill="#EAEAEA" transform="matrix(1.00, 0.00, -0.00, -1.00, 278.5, 86.0)"> </text><text xml:space="preserve" font-family="HelveticaNeue-Medium" font-size="21.2" fill="#EAEAEA" transform="matrix(1.00, 0.00, -0.00, -1.00, 284.4, 86.0)">f</text><text xml:space="preserve" font-family="HelveticaNeue-Medium" font-size="21.2" fill="#EAEAEA" transform="matrix(1.00, 0.00, -0.00, -1.00, 291.0, 86.0)">u</text><text xml:space="preserve" font-family="HelveticaNeue-Medium" font-size="21.2" fill="#EAEAEA" transform="matrix(1.00, 0.00, -0.00, -1.00, 303.2, 86.0)">n</text><text xml:space="preserve" font-family="HelveticaNeue-Medium" font-size="21.2" fill="#EAEAEA" transform="matrix(1.00, 0.00, -0.00, -1.00, 315.3, 86.0)">c</text><text xml:space="preserve" font-family="HelveticaNeue-Medium" font-size="21.2" fill="#EAEAEA" transform="matrix(1.00, 0.00, -0.00, -1.00, 327.1, 86.0)">t</text><text xml:space="preserve" font-family="HelveticaNeue-Medium" font-size="21.2" fill="#EAEAEA" transform="matrix(1.00, 0.00, -0.00, -1.00, 334.1, 86.0)">i</text><text xml:space="preserve" font-family="HelveticaNeue-Medium" font-size="21.2" fill="#EAEAEA" transform="matrix(1.00, 0.00, -0.00, -1.00, 339.2, 86.0)">o</text><text xml:space="preserve" font-family="HelveticaNeue-Medium" font-size="21.2" fill="#EAEAEA" transform="matrix(1.00, 0.00, -0.00, -1.00, 351.8, 86.0)">n</text></g></svg>