<?xml version="1.0" encoding="UTF-8" standalone="no"?><svg xmlns="http://www.w3.org/2000/svg" xmlns:xlink="http://www.w3.org/1999/xlink" clip-rule="evenodd" stroke-miterlimit="4.00" viewBox="0 0 1024 768"><desc>SVG generated by Keynote</desc><defs></defs><g transform="matrix(1.00, 0.00, -0.00, -1.00, 0.0, 768.0)"><g><clipPath id="clip-203"><path d="M 0.0 768.0 L 1024.0 768.0 L 1024.0 0.0 L 0.0 0.0 Z M 0.0 768.0 "></path></clipPath><g clip-path="url(#clip-203)"><image xlink:href="../../363ACDF5-F69A-4348-A617-267FC1DCB792/assets/2CA05975C404A6B79EB2D17D5C3EEC1C.jpeg" width="1024.00" height="768.00" transform="matrix(1.00, 0.00, -0.00, -1.00, 0.0, 768.0)"></image></g></g><image xlink:href="9EEE8174BD30ABD3844F149686E03A46.png" width="703.00" height="67.00" transform="matrix(1.00, 0.00, -0.00, -1.00, 159.0, 693.0)"></image><text xml:space="preserve" font-family="HelveticaNeue-Bold" font-weight="bold" font-size="64.0" fill="#FEFFFE" transform="matrix(1.00, 0.00, -0.00, -1.00, 163.0, 644.0)">T</text><text xml:space="preserve" font-family="HelveticaNeue-Bold" font-weight="bold" font-size="64.0" fill="#FEFFFE" transform="matrix(1.00, 0.00, -0.00, -1.00, 202.1, 644.0)">h</text><text xml:space="preserve" font-family="HelveticaNeue-Bold" font-weight="bold" font-size="64.0" fill="#FEFFFE" transform="matrix(1.00, 0.00, -0.00, -1.00, 240.1, 644.0)">e</text><text xml:space="preserve" font-family="HelveticaNeue-Bold" font-weight="bold" font-size="64.0" fill="#FEFFFE" transform="matrix(1.00, 0.00, -0.00, -1.00, 276.8, 644.0)"> </text><text xml:space="preserve" font-family="HelveticaNeue-Bold" font-weight="bold" font-size="64.0" fill="#FEFFFE" transform="matrix(1.00, 0.00, -0.00, -1.00, 294.6, 644.0)">S</text><text xml:space="preserve" font-family="HelveticaNeue-Bold" font-weight="bold" font-size="64.0" fill="#FEFFFE" transform="matrix(1.00, 0.00, -0.00, -1.00, 336.1, 644.0)">y</text><text xml:space="preserve" font-family="HelveticaNeue-Bold" font-weight="bold" font-size="64.0" fill="#FEFFFE" transform="matrix(1.00, 0.00, -0.00, -1.00, 369.3, 644.0)">r</text><text xml:space="preserve" font-family="HelveticaNeue-Bold" font-weight="bold" font-size="64.0" fill="#FEFFFE" transform="matrix(1.00, 0.00, -0.00, -1.00, 394.2, 644.0)">a</text><text xml:space="preserve" font-family="HelveticaNeue-Bold" font-weight="bold" font-size="64.0" fill="#FEFFFE" transform="matrix(1.00, 0.00, -0.00, -1.00, 431.0, 644.0)">c</text><text xml:space="preserve" font-family="HelveticaNeue-Bold" font-weight="bold" font-size="64.0" fill="#FEFFFE" transform="matrix(1.00, 0.00, -0.00, -1.00, 467.7, 644.0)">u</text><text xml:space="preserve" font-family="HelveticaNeue-Bold" font-weight="bold" font-size="64.0" fill="#FEFFFE" transform="matrix(1.00, 0.00, -0.00, -1.00, 505.7, 644.0)">s</text><text xml:space="preserve" font-family="HelveticaNeue-Bold" font-weight="bold" font-size="64.0" fill="#FEFFFE" transform="matrix(1.00, 0.00, -0.00, -1.00, 540.0, 644.0)">e</text><text xml:space="preserve" font-family="HelveticaNeue-Bold" font-weight="bold" font-size="64.0" fill="#FEFFFE" transform="matrix(1.00, 0.00, -0.00, -1.00, 576.8, 644.0)"> </text><text xml:space="preserve" font-family="HelveticaNeue-Bold" font-weight="bold" font-size="64.0" fill="#FEFFFE" transform="matrix(1.00, 0.00, -0.00, -1.00, 594.6, 644.0)">F</text><text xml:space="preserve" font-family="HelveticaNeue-Bold" font-weight="bold" font-size="64.0" fill="#FEFFFE" transform="matrix(1.00, 0.00, -0.00, -1.00, 632.5, 644.0)">u</text><text xml:space="preserve" font-family="HelveticaNeue-Bold" font-weight="bold" font-size="64.0" fill="#FEFFFE" transform="matrix(1.00, 0.00, -0.00, -1.00, 670.5, 644.0)">n</text><text xml:space="preserve" font-family="HelveticaNeue-Bold" font-weight="bold" font-size="64.0" fill="#FEFFFE" transform="matrix(1.00, 0.00, -0.00, -1.00, 708.4, 644.0)">c</text><text xml:space="preserve" font-family="HelveticaNeue-Bold" font-weight="bold" font-size="64.0" fill="#FEFFFE" transform="matrix(1.00, 0.00, -0.00, -1.00, 745.1, 644.0)">t</text><text xml:space="preserve" font-family="HelveticaNeue-Bold" font-weight="bold" font-size="64.0" fill="#FEFFFE" transform="matrix(1.00, 0.00, -0.00, -1.00, 767.7, 644.0)">i</text><text xml:space="preserve" font-family="HelveticaNeue-Bold" font-weight="bold" font-size="64.0" fill="#FEFFFE" transform="matrix(1.00, 0.00, -0.00, -1.00, 784.2, 644.0)">o</text><text xml:space="preserve" font-family="HelveticaNeue-Bold" font-weight="bold" font-size="64.0" fill="#FEFFFE" transform="matrix(1.00, 0.00, -0.00, -1.00, 823.3, 644.0)">n</text><image xlink:href="../../9A823512-6C43-4683-BE4A-FA6B1CF40B56/assets/F628CE11FF0CD75BEC860F27054C3F05.png" width="13.00" height="13.00" transform="matrix(1.00, 0.00, -0.00, -1.00, 62.0, 555.0)"></image><text xml:space="preserve" font-family="HelveticaNeue-Medium" font-size="17.2" fill="#EAEAEA" transform="matrix(1.00, 0.00, -0.00, -1.00, 64.0, 543.3)">•</text><image xlink:href="9DE81FB8262776A12077EE257FDE03F3.png" width="62.00" height="24.00" transform="matrix(1.00, 0.00, -0.00, -1.00, 83.0, 561.0)"></image><text xml:space="preserve" font-family="HelveticaNeue-Medium" font-size="23.0" fill="#EAEAEA" transform="matrix(1.00, 0.00, -0.00, -1.00, 86.0, 542.0)">C</text><text xml:space="preserve" font-family="HelveticaNeue-Medium" font-size="23.0" fill="#EAEAEA" transform="matrix(1.00, 0.00, -0.00, -1.00, 102.6, 542.0)">o</text><text xml:space="preserve" font-family="HelveticaNeue-Medium" font-size="23.0" fill="#EAEAEA" transform="matrix(1.00, 0.00, -0.00, -1.00, 116.2, 542.0)">r</text><text xml:space="preserve" font-family="HelveticaNeue-Medium" font-size="23.0" fill="#EAEAEA" transform="matrix(1.00, 0.00, -0.00, -1.00, 123.9, 542.0)">e</text><text xml:space="preserve" font-family="HelveticaNeue-Medium" font-size="23.0" fill="#EAEAEA" transform="matrix(1.00, 0.00, -0.00, -1.00, 136.7, 542.0)">:</text><text xml:space="preserve" font-family="HelveticaNeue-Medium" font-size="23.0" fill="#EAEAEA" transform="matrix(1.00, 0.00, -0.00, -1.00, 143.1, 542.0)"> </text><image xlink:href="6EEC47C1DD81CEA5303EBAA8EEE607F6.png" width="221.00" height="28.00" transform="matrix(1.00, 0.00, -0.00, -1.00, 62.0, 505.0)"></image><text xml:space="preserve" font-family="AndaleMono" font-size="23.0" fill="#EAEAEA" transform="matrix(1.00, 0.00, -0.00, -1.00, 64.0, 486.0)">d</text><text xml:space="preserve" font-family="AndaleMono" font-size="23.0" fill="#EAEAEA" transform="matrix(1.00, 0.00, -0.00, -1.00, 77.8, 486.0)">e</text><text xml:space="preserve" font-family="AndaleMono" font-size="23.0" fill="#EAEAEA" transform="matrix(1.00, 0.00, -0.00, -1.00, 91.6, 486.0)">f</text><text xml:space="preserve" font-family="AndaleMono" font-size="23.0" fill="#EAEAEA" transform="matrix(1.00, 0.00, -0.00, -1.00, 105.4, 486.0)"> </text><text xml:space="preserve" font-family="AndaleMono" font-size="23.0" fill="#EAEAEA" transform="matrix(1.00, 0.00, -0.00, -1.00, 119.2, 486.0)">s</text><text xml:space="preserve" font-family="AndaleMono" font-size="23.0" fill="#EAEAEA" transform="matrix(1.00, 0.00, -0.00, -1.00, 133.0, 486.0)">y</text><text xml:space="preserve" font-family="AndaleMono" font-size="23.0" fill="#EAEAEA" transform="matrix(1.00, 0.00, -0.00, -1.00, 146.8, 486.0)">r</text><text xml:space="preserve" font-family="AndaleMono" font-size="23.0" fill="#EAEAEA" transform="matrix(1.00, 0.00, -0.00, -1.00, 160.6, 486.0)">a</text><text xml:space="preserve" font-family="AndaleMono" font-size="23.0" fill="#EAEAEA" transform="matrix(1.00, 0.00, -0.00, -1.00, 174.4, 486.0)">c</text><text xml:space="preserve" font-family="AndaleMono" font-size="23.0" fill="#EAEAEA" transform="matrix(1.00, 0.00, -0.00, -1.00, 188.2, 486.0)">u</text><text xml:space="preserve" font-family="AndaleMono" font-size="23.0" fill="#EAEAEA" transform="matrix(1.00, 0.00, -0.00, -1.00, 202.0, 486.0)">s</text><text xml:space="preserve" font-family="AndaleMono" font-size="23.0" fill="#EAEAEA" transform="matrix(1.00, 0.00, -0.00, -1.00, 215.9, 486.0)">e</text><text xml:space="preserve" font-family="AndaleMono" font-size="23.0" fill="#EAEAEA" transform="matrix(1.00, 0.00, -0.00, -1.00, 229.7, 486.0)">(</text><text xml:space="preserve" font-family="AndaleMono" font-size="23.0" fill="#EAEAEA" transform="matrix(1.00, 0.00, -0.00, -1.00, 243.5, 486.0)">n</text><text xml:space="preserve" font-family="AndaleMono" font-size="23.0" fill="#EAEAEA" transform="matrix(1.00, 0.00, -0.00, -1.00, 257.3, 486.0)">)</text><text xml:space="preserve" font-family="AndaleMono" font-size="23.0" fill="#EAEAEA" transform="matrix(1.00, 0.00, -0.00, -1.00, 271.1, 486.0)">:</text><text xml:space="preserve" font-family="AndaleMono" font-size="23.0" fill="#EAEAEA" transform="matrix(1.00, 0.00, -0.00, -1.00, 284.8, 486.0)"> </text><image xlink:href="10206FC3CDDE1F0A3DF76FE2566AEA3D.png" width="191.00" height="24.00" transform="matrix(1.00, 0.00, -0.00, -1.00, 119.0, 450.0)"></image><text xml:space="preserve" font-family="AndaleMono" font-size="23.0" fill="#EAEAEA" transform="matrix(1.00, 0.00, -0.00, -1.00, 64.0, 431.0)"> </text><text xml:space="preserve" font-family="AndaleMono" font-size="23.0" fill="#EAEAEA" transform="matrix(1.00, 0.00, -0.00, -1.00, 77.8, 431.0)"> </text><text xml:space="preserve" font-family="AndaleMono" font-size="23.0" fill="#EAEAEA" transform="matrix(1.00, 0.00, -0.00, -1.00, 91.6, 431.0)"> </text><text xml:space="preserve" font-family="AndaleMono" font-size="23.0" fill="#EAEAEA" transform="matrix(1.00, 0.00, -0.00, -1.00, 105.4, 431.0)"> </text><text xml:space="preserve" font-family="AndaleMono" font-size="23.0" fill="#EAEAEA" transform="matrix(1.00, 0.00, -0.00, -1.00, 119.2, 431.0)">i</text><text xml:space="preserve" font-family="AndaleMono" font-size="23.0" fill="#EAEAEA" transform="matrix(1.00, 0.00, -0.00, -1.00, 133.0, 431.0)">f</text><text xml:space="preserve" font-family="AndaleMono" font-size="23.0" fill="#EAEAEA" transform="matrix(1.00, 0.00, -0.00, -1.00, 146.8, 431.0)"> </text><text xml:space="preserve" font-family="AndaleMono" font-size="23.0" fill="#EAEAEA" transform="matrix(1.00, 0.00, -0.00, -1.00, 160.6, 431.0)">n</text><text xml:space="preserve" font-family="AndaleMono" font-size="23.0" fill="#EAEAEA" transform="matrix(1.00, 0.00, -0.00, -1.00, 174.4, 431.0)"> </text><text xml:space="preserve" font-family="AndaleMono" font-size="23.0" fill="#EAEAEA" transform="matrix(1.00, 0.00, -0.00, -1.00, 188.2, 431.0)">%</text><text xml:space="preserve" font-family="AndaleMono" font-size="23.0" fill="#EAEAEA" transform="matrix(1.00, 0.00, -0.00, -1.00, 202.0, 431.0)"> </text><text xml:space="preserve" font-family="AndaleMono" font-size="23.0" fill="#EAEAEA" transform="matrix(1.00, 0.00, -0.00, -1.00, 215.9, 431.0)">2</text><text xml:space="preserve" font-family="AndaleMono" font-size="23.0" fill="#EAEAEA" transform="matrix(1.00, 0.00, -0.00, -1.00, 229.7, 431.0)"> </text><text xml:space="preserve" font-family="AndaleMono" font-size="23.0" fill="#EAEAEA" transform="matrix(1.00, 0.00, -0.00, -1.00, 243.5, 431.0)">=</text><text xml:space="preserve" font-family="AndaleMono" font-size="23.0" fill="#EAEAEA" transform="matrix(1.00, 0.00, -0.00, -1.00, 257.3, 431.0)">=</text><text xml:space="preserve" font-family="AndaleMono" font-size="23.0" fill="#EAEAEA" transform="matrix(1.00, 0.00, -0.00, -1.00, 271.1, 431.0)"> </text><text xml:space="preserve" font-family="AndaleMono" font-size="23.0" fill="#EAEAEA" transform="matrix(1.00, 0.00, -0.00, -1.00, 284.9, 431.0)">0</text><text xml:space="preserve" font-family="AndaleMono" font-size="23.0" fill="#EAEAEA" transform="matrix(1.00, 0.00, -0.00, -1.00, 298.7, 431.0)">:</text><text xml:space="preserve" font-family="AndaleMono" font-size="23.0" fill="#EAEAEA" transform="matrix(1.00, 0.00, -0.00, -1.00, 312.5, 431.0)"> </text><text xml:space="preserve" font-family="AndaleMono" font-size="23.0" fill="#EAEAEA" transform="matrix(1.00, 0.00, -0.00, -1.00, 326.2, 431.0)"> </text><image xlink:href="7023DC4BB34829979A5B4A2C32AED1B4.png" width="152.00" height="24.00" transform="matrix(1.00, 0.00, -0.00, -1.00, 175.0, 395.0)"></image><text xml:space="preserve" font-family="AndaleMono" font-size="23.0" fill="#EAEAEA" transform="matrix(1.00, 0.00, -0.00, -1.00, 64.0, 376.0)"> </text><text xml:space="preserve" font-family="AndaleMono" font-size="23.0" fill="#EAEAEA" transform="matrix(1.00, 0.00, -0.00, -1.00, 77.8, 376.0)"> </text><text xml:space="preserve" font-family="AndaleMono" font-size="23.0" fill="#EAEAEA" transform="matrix(1.00, 0.00, -0.00, -1.00, 91.6, 376.0)"> </text><text xml:space="preserve" font-family="AndaleMono" font-size="23.0" fill="#EAEAEA" transform="matrix(1.00, 0.00, -0.00, -1.00, 105.4, 376.0)"> </text><text xml:space="preserve" font-family="AndaleMono" font-size="23.0" fill="#EAEAEA" transform="matrix(1.00, 0.00, -0.00, -1.00, 119.2, 376.0)"> </text><text xml:space="preserve" font-family="AndaleMono" font-size="23.0" fill="#EAEAEA" transform="matrix(1.00, 0.00, -0.00, -1.00, 133.0, 376.0)"> </text><text xml:space="preserve" font-family="AndaleMono" font-size="23.0" fill="#EAEAEA" transform="matrix(1.00, 0.00, -0.00, -1.00, 146.8, 376.0)"> </text><text xml:space="preserve" font-family="AndaleMono" font-size="23.0" fill="#EAEAEA" transform="matrix(1.00, 0.00, -0.00, -1.00, 160.6, 376.0)"> </text><text xml:space="preserve" font-family="AndaleMono" font-size="23.0" fill="#EAEAEA" transform="matrix(1.00, 0.00, -0.00, -1.00, 174.4, 376.0)">r</text><text xml:space="preserve" font-family="AndaleMono" font-size="23.0" fill="#EAEAEA" transform="matrix(1.00, 0.00, -0.00, -1.00, 188.2, 376.0)">e</text><text xml:space="preserve" font-family="AndaleMono" font-size="23.0" fill="#EAEAEA" transform="matrix(1.00, 0.00, -0.00, -1.00, 202.0, 376.0)">t</text><text xml:space="preserve" font-family="AndaleMono" font-size="23.0" fill="#EAEAEA" transform="matrix(1.00, 0.00, -0.00, -1.00, 215.9, 376.0)">u</text><text xml:space="preserve" font-family="AndaleMono" font-size="23.0" fill="#EAEAEA" transform="matrix(1.00, 0.00, -0.00, -1.00, 229.7, 376.0)">r</text><text xml:space="preserve" font-family="AndaleMono" font-size="23.0" fill="#EAEAEA" transform="matrix(1.00, 0.00, -0.00, -1.00, 243.5, 376.0)">n</text><text xml:space="preserve" font-family="AndaleMono" font-size="23.0" fill="#EAEAEA" transform="matrix(1.00, 0.00, -0.00, -1.00, 257.3, 376.0)"> </text><text xml:space="preserve" font-family="AndaleMono" font-size="23.0" fill="#EAEAEA" transform="matrix(1.00, 0.00, -0.00, -1.00, 271.1, 376.0)">n</text><text xml:space="preserve" font-family="AndaleMono" font-size="23.0" fill="#EAEAEA" transform="matrix(1.00, 0.00, -0.00, -1.00, 284.9, 376.0)">/</text><text xml:space="preserve" font-family="AndaleMono" font-size="23.0" fill="#EAEAEA" transform="matrix(1.00, 0.00, -0.00, -1.00, 298.7, 376.0)">/</text><text xml:space="preserve" font-family="AndaleMono" font-size="23.0" fill="#EAEAEA" transform="matrix(1.00, 0.00, -0.00, -1.00, 312.5, 376.0)">2</text><text xml:space="preserve" font-family="AndaleMono" font-size="23.0" fill="#EAEAEA" transform="matrix(1.00, 0.00, -0.00, -1.00, 326.2, 376.0)"> </text><image xlink:href="1F9C967238187EED3B1CEADE429EA1E2.png" width="68.00" height="23.00" transform="matrix(1.00, 0.00, -0.00, -1.00, 118.0, 339.0)"></image><text xml:space="preserve" font-family="AndaleMono" font-size="23.0" fill="#EAEAEA" transform="matrix(1.00, 0.00, -0.00, -1.00, 64.0, 321.0)"> </text><text xml:space="preserve" font-family="AndaleMono" font-size="23.0" fill="#EAEAEA" transform="matrix(1.00, 0.00, -0.00, -1.00, 77.8, 321.0)"> </text><text xml:space="preserve" font-family="AndaleMono" font-size="23.0" fill="#EAEAEA" transform="matrix(1.00, 0.00, -0.00, -1.00, 91.6, 321.0)"> </text><text xml:space="preserve" font-family="AndaleMono" font-size="23.0" fill="#EAEAEA" transform="matrix(1.00, 0.00, -0.00, -1.00, 105.4, 321.0)"> </text><text xml:space="preserve" font-family="AndaleMono" font-size="23.0" fill="#EAEAEA" transform="matrix(1.00, 0.00, -0.00, -1.00, 119.2, 321.0)">e</text><text xml:space="preserve" font-family="AndaleMono" font-size="23.0" fill="#EAEAEA" transform="matrix(1.00, 0.00, -0.00, -1.00, 133.0, 321.0)">l</text><text xml:space="preserve" font-family="AndaleMono" font-size="23.0" fill="#EAEAEA" transform="matrix(1.00, 0.00, -0.00, -1.00, 146.8, 321.0)">s</text><text xml:space="preserve" font-family="AndaleMono" font-size="23.0" fill="#EAEAEA" transform="matrix(1.00, 0.00, -0.00, -1.00, 160.6, 321.0)">e</text><text xml:space="preserve" font-family="AndaleMono" font-size="23.0" fill="#EAEAEA" transform="matrix(1.00, 0.00, -0.00, -1.00, 174.4, 321.0)">:</text><text xml:space="preserve" font-family="AndaleMono" font-size="23.0" fill="#EAEAEA" transform="matrix(1.00, 0.00, -0.00, -1.00, 188.2, 321.0)"> </text><image xlink:href="0A180ADE242D711F4B1E1AF44E370136.png" width="166.00" height="24.00" transform="matrix(1.00, 0.00, -0.00, -1.00, 175.0, 285.0)"></image><text xml:space="preserve" font-family="AndaleMono" font-size="23.0" fill="#EAEAEA" transform="matrix(1.00, 0.00, -0.00, -1.00, 64.0, 266.0)"> </text><text xml:space="preserve" font-family="AndaleMono" font-size="23.0" fill="#EAEAEA" transform="matrix(1.00, 0.00, -0.00, -1.00, 77.8, 266.0)"> </text><text xml:space="preserve" font-family="AndaleMono" font-size="23.0" fill="#EAEAEA" transform="matrix(1.00, 0.00, -0.00, -1.00, 91.6, 266.0)"> </text><text xml:space="preserve" font-family="AndaleMono" font-size="23.0" fill="#EAEAEA" transform="matrix(1.00, 0.00, -0.00, -1.00, 105.4, 266.0)"> </text><text xml:space="preserve" font-family="AndaleMono" font-size="23.0" fill="#EAEAEA" transform="matrix(1.00, 0.00, -0.00, -1.00, 119.2, 266.0)"> </text><text xml:space="preserve" font-family="AndaleMono" font-size="23.0" fill="#EAEAEA" transform="matrix(1.00, 0.00, -0.00, -1.00, 133.0, 266.0)"> </text><text xml:space="preserve" font-family="AndaleMono" font-size="23.0" fill="#EAEAEA" transform="matrix(1.00, 0.00, -0.00, -1.00, 146.8, 266.0)"> </text><text xml:space="preserve" font-family="AndaleMono" font-size="23.0" fill="#EAEAEA" transform="matrix(1.00, 0.00, -0.00, -1.00, 160.6, 266.0)"> </text><text xml:space="preserve" font-family="AndaleMono" font-size="23.0" fill="#EAEAEA" transform="matrix(1.00, 0.00, -0.00, -1.00, 174.4, 266.0)">r</text><text xml:space="preserve" font-family="AndaleMono" font-size="23.0" fill="#EAEAEA" transform="matrix(1.00, 0.00, -0.00, -1.00, 188.2, 266.0)">e</text><text xml:space="preserve" font-family="AndaleMono" font-size="23.0" fill="#EAEAEA" transform="matrix(1.00, 0.00, -0.00, -1.00, 202.0, 266.0)">t</text><text xml:space="preserve" font-family="AndaleMono" font-size="23.0" fill="#EAEAEA" transform="matrix(1.00, 0.00, -0.00, -1.00, 215.9, 266.0)">u</text><text xml:space="preserve" font-family="AndaleMono" font-size="23.0" fill="#EAEAEA" transform="matrix(1.00, 0.00, -0.00, -1.00, 229.7, 266.0)">r</text><text xml:space="preserve" font-family="AndaleMono" font-size="23.0" fill="#EAEAEA" transform="matrix(1.00, 0.00, -0.00, -1.00, 243.5, 266.0)">n</text><text xml:space="preserve" font-family="AndaleMono" font-size="23.0" fill="#EAEAEA" transform="matrix(1.00, 0.00, -0.00, -1.00, 257.3, 266.0)"> </text><text xml:space="preserve" font-family="AndaleMono" font-size="23.0" fill="#EAEAEA" transform="matrix(1.00, 0.00, -0.00, -1.00, 271.1, 266.0)">3</text><text xml:space="preserve" font-family="AndaleMono" font-size="23.0" fill="#EAEAEA" transform="matrix(1.00, 0.00, -0.00, -1.00, 284.9, 266.0)">*</text><text xml:space="preserve" font-family="AndaleMono" font-size="23.0" fill="#EAEAEA" transform="matrix(1.00, 0.00, -0.00, -1.00, 298.7, 266.0)">n</text><text xml:space="preserve" font-family="AndaleMono" font-size="23.0" fill="#EAEAEA" transform="matrix(1.00, 0.00, -0.00, -1.00, 312.5, 266.0)">+</text><text xml:space="preserve" font-family="AndaleMono" font-size="23.0" fill="#EAEAEA" transform="matrix(1.00, 0.00, -0.00, -1.00, 326.3, 266.0)">1</text><text xml:space="preserve" font-family="AndaleMono" font-size="23.0" fill="#EAEAEA" transform="matrix(1.00, 0.00, -0.00, -1.00, 340.0, 266.0)"> </text><image xlink:href="../../9A823512-6C43-4683-BE4A-FA6B1CF40B56/assets/F628CE11FF0CD75BEC860F27054C3F05.png" width="13.00" height="13.00" transform="matrix(1.00, 0.00, -0.00, -1.00, 62.0, 223.0)"></image><text xml:space="preserve" font-family="HelveticaNeue-Medium" font-size="17.2" fill="#EAEAEA" transform="matrix(1.00, 0.00, -0.00, -1.00, 64.0, 211.3)">•</text><image xlink:href="822E00F948997E8C2D78583D23832A39.png" width="600.00" height="28.00" transform="matrix(1.00, 0.00, -0.00, -1.00, 84.0, 229.0)"></image><text xml:space="preserve" font-family="HelveticaNeue-Medium" font-size="23.0" fill="#EAEAEA" transform="matrix(1.00, 0.00, -0.00, -1.00, 86.0, 210.0)">E</text><text xml:space="preserve" font-family="HelveticaNeue-Medium" font-size="23.0" fill="#EAEAEA" transform="matrix(1.00, 0.00, -0.00, -1.00, 100.5, 210.0)">a</text><text xml:space="preserve" font-family="HelveticaNeue-Medium" font-size="23.0" fill="#EAEAEA" transform="matrix(1.00, 0.00, -0.00, -1.00, 113.3, 210.0)">c</text><text xml:space="preserve" font-family="HelveticaNeue-Medium" font-size="23.0" fill="#EAEAEA" transform="matrix(1.00, 0.00, -0.00, -1.00, 126.1, 210.0)">h</text><text xml:space="preserve" font-family="HelveticaNeue-Medium" font-size="23.0" fill="#EAEAEA" transform="matrix(1.00, 0.00, -0.00, -1.00, 139.3, 210.0)"> </text><text xml:space="preserve" font-family="HelveticaNeue-Medium" font-size="23.0" fill="#EAEAEA" transform="matrix(1.00, 0.00, -0.00, -1.00, 145.7, 210.0)">i</text><text xml:space="preserve" font-family="HelveticaNeue-Medium" font-size="23.0" fill="#EAEAEA" transform="matrix(1.00, 0.00, -0.00, -1.00, 151.2, 210.0)">n</text><text xml:space="preserve" font-family="HelveticaNeue-Medium" font-size="23.0" fill="#EAEAEA" transform="matrix(1.00, 0.00, -0.00, -1.00, 164.4, 210.0)">t</text><text xml:space="preserve" font-family="HelveticaNeue-Medium" font-size="23.0" fill="#EAEAEA" transform="matrix(1.00, 0.00, -0.00, -1.00, 172.1, 210.0)">e</text><text xml:space="preserve" font-family="HelveticaNeue-Medium" font-size="23.0" fill="#EAEAEA" transform="matrix(1.00, 0.00, -0.00, -1.00, 184.9, 210.0)">g</text><text xml:space="preserve" font-family="HelveticaNeue-Medium" font-size="23.0" fill="#EAEAEA" transform="matrix(1.00, 0.00, -0.00, -1.00, 198.5, 210.0)">e</text><text xml:space="preserve" font-family="HelveticaNeue-Medium" font-size="23.0" fill="#EAEAEA" transform="matrix(1.00, 0.00, -0.00, -1.00, 211.3, 210.0)">r</text><text xml:space="preserve" font-family="HelveticaNeue-Medium" font-size="23.0" fill="#EAEAEA" transform="matrix(1.00, 0.00, -0.00, -1.00, 219.4, 210.0)"> </text><text xml:space="preserve" font-family="HelveticaNeue-Medium" font-size="23.0" fill="#EAEAEA" transform="matrix(1.00, 0.00, -0.00, -1.00, 225.8, 210.0)">y</text><text xml:space="preserve" font-family="HelveticaNeue-Medium" font-size="23.0" fill="#EAEAEA" transform="matrix(1.00, 0.00, -0.00, -1.00, 237.7, 210.0)">i</text><text xml:space="preserve" font-family="HelveticaNeue-Medium" font-size="23.0" fill="#EAEAEA" transform="matrix(1.00, 0.00, -0.00, -1.00, 243.3, 210.0)">e</text><text xml:space="preserve" font-family="HelveticaNeue-Medium" font-size="23.0" fill="#EAEAEA" transform="matrix(1.00, 0.00, -0.00, -1.00, 256.0, 210.0)">l</text><text xml:space="preserve" font-family="HelveticaNeue-Medium" font-size="23.0" fill="#EAEAEA" transform="matrix(1.00, 0.00, -0.00, -1.00, 261.6, 210.0)">d</text><text xml:space="preserve" font-family="HelveticaNeue-Medium" font-size="23.0" fill="#EAEAEA" transform="matrix(1.00, 0.00, -0.00, -1.00, 275.6, 210.0)">s</text><text xml:space="preserve" font-family="HelveticaNeue-Medium" font-size="23.0" fill="#EAEAEA" transform="matrix(1.00, 0.00, -0.00, -1.00, 287.6, 210.0)"> </text><text xml:space="preserve" font-family="HelveticaNeue-Medium" font-size="23.0" fill="#EAEAEA" transform="matrix(1.00, 0.00, -0.00, -1.00, 294.0, 210.0)">a</text><text xml:space="preserve" font-family="HelveticaNeue-Medium" font-size="23.0" fill="#EAEAEA" transform="matrix(1.00, 0.00, -0.00, -1.00, 306.8, 210.0)">n</text><text xml:space="preserve" font-family="HelveticaNeue-Medium" font-size="23.0" fill="#EAEAEA" transform="matrix(1.00, 0.00, -0.00, -1.00, 320.0, 210.0)">o</text><text xml:space="preserve" font-family="HelveticaNeue-Medium" font-size="23.0" fill="#EAEAEA" transform="matrix(1.00, 0.00, -0.00, -1.00, 333.6, 210.0)">t</text><text xml:space="preserve" font-family="HelveticaNeue-Medium" font-size="23.0" fill="#EAEAEA" transform="matrix(1.00, 0.00, -0.00, -1.00, 341.3, 210.0)">h</text><text xml:space="preserve" font-family="HelveticaNeue-Medium" font-size="23.0" fill="#EAEAEA" transform="matrix(1.00, 0.00, -0.00, -1.00, 354.5, 210.0)">e</text><text xml:space="preserve" font-family="HelveticaNeue-Medium" font-size="23.0" fill="#EAEAEA" transform="matrix(1.00, 0.00, -0.00, -1.00, 367.2, 210.0)">r</text><text xml:space="preserve" font-family="HelveticaNeue-Medium" font-size="23.0" fill="#EAEAEA" transform="matrix(1.00, 0.00, -0.00, -1.00, 375.3, 210.0)"> </text><text xml:space="preserve" font-family="HelveticaNeue-Medium" font-size="23.0" fill="#EAEAEA" transform="matrix(1.00, 0.00, -0.00, -1.00, 381.7, 210.0)">i</text><text xml:space="preserve" font-family="HelveticaNeue-Medium" font-size="23.0" fill="#EAEAEA" transform="matrix(1.00, 0.00, -0.00, -1.00, 387.3, 210.0)">n</text><text xml:space="preserve" font-family="HelveticaNeue-Medium" font-size="23.0" fill="#EAEAEA" transform="matrix(1.00, 0.00, -0.00, -1.00, 400.5, 210.0)">t</text><text xml:space="preserve" font-family="HelveticaNeue-Medium" font-size="23.0" fill="#EAEAEA" transform="matrix(1.00, 0.00, -0.00, -1.00, 408.1, 210.0)">e</text><text xml:space="preserve" font-family="HelveticaNeue-Medium" font-size="23.0" fill="#EAEAEA" transform="matrix(1.00, 0.00, -0.00, -1.00, 420.9, 210.0)">g</text><text xml:space="preserve" font-family="HelveticaNeue-Medium" font-size="23.0" fill="#EAEAEA" transform="matrix(1.00, 0.00, -0.00, -1.00, 434.6, 210.0)">e</text><text xml:space="preserve" font-family="HelveticaNeue-Medium" font-size="23.0" fill="#EAEAEA" transform="matrix(1.00, 0.00, -0.00, -1.00, 447.4, 210.0)">r</text><text xml:space="preserve" font-family="HelveticaNeue-Medium" font-size="23.0" fill="#EAEAEA" transform="matrix(1.00, 0.00, -0.00, -1.00, 453.3, 210.0)">.</text><text xml:space="preserve" font-family="HelveticaNeue-Medium" font-size="23.0" fill="#EAEAEA" transform="matrix(1.00, 0.00, -0.00, -1.00, 459.7, 210.0)"> </text><text xml:space="preserve" font-family="HelveticaNeue-Medium" font-size="23.0" fill="#EAEAEA" transform="matrix(1.00, 0.00, -0.00, -1.00, 466.1, 210.0)"> </text><text xml:space="preserve" font-family="HelveticaNeue-Medium" font-size="23.0" fill="#EAEAEA" transform="matrix(1.00, 0.00, -0.00, -1.00, 472.5, 210.0)">T</text><text xml:space="preserve" font-family="HelveticaNeue-Medium" font-size="23.0" fill="#EAEAEA" transform="matrix(1.00, 0.00, -0.00, -1.00, 486.2, 210.0)">h</text><text xml:space="preserve" font-family="HelveticaNeue-Medium" font-size="23.0" fill="#EAEAEA" transform="matrix(1.00, 0.00, -0.00, -1.00, 499.4, 210.0)">e</text><text xml:space="preserve" font-family="HelveticaNeue-Medium" font-size="23.0" fill="#EAEAEA" transform="matrix(1.00, 0.00, -0.00, -1.00, 512.1, 210.0)">s</text><text xml:space="preserve" font-family="HelveticaNeue-Medium" font-size="23.0" fill="#EAEAEA" transform="matrix(1.00, 0.00, -0.00, -1.00, 524.1, 210.0)">e</text><text xml:space="preserve" font-family="HelveticaNeue-Medium" font-size="23.0" fill="#EAEAEA" transform="matrix(1.00, 0.00, -0.00, -1.00, 536.9, 210.0)"> </text><text xml:space="preserve" font-family="HelveticaNeue-Medium" font-size="23.0" fill="#EAEAEA" transform="matrix(1.00, 0.00, -0.00, -1.00, 543.3, 210.0)">f</text><text xml:space="preserve" font-family="HelveticaNeue-Medium" font-size="23.0" fill="#EAEAEA" transform="matrix(1.00, 0.00, -0.00, -1.00, 550.5, 210.0)">o</text><text xml:space="preserve" font-family="HelveticaNeue-Medium" font-size="23.0" fill="#EAEAEA" transform="matrix(1.00, 0.00, -0.00, -1.00, 564.1, 210.0)">r</text><text xml:space="preserve" font-family="HelveticaNeue-Medium" font-size="23.0" fill="#EAEAEA" transform="matrix(1.00, 0.00, -0.00, -1.00, 572.2, 210.0)">m</text><text xml:space="preserve" font-family="HelveticaNeue-Medium" font-size="23.0" fill="#EAEAEA" transform="matrix(1.00, 0.00, -0.00, -1.00, 592.3, 210.0)"> </text><text xml:space="preserve" font-family="HelveticaNeue-Medium" font-size="23.0" fill="#EAEAEA" transform="matrix(1.00, 0.00, -0.00, -1.00, 598.6, 210.0)">a</text><text xml:space="preserve" font-family="HelveticaNeue-Medium" font-size="23.0" fill="#EAEAEA" transform="matrix(1.00, 0.00, -0.00, -1.00, 611.4, 210.0)"> </text><text xml:space="preserve" font-family="HelveticaNeue-Medium" font-size="23.0" fill="#EAEAEA" transform="matrix(1.00, 0.00, -0.00, -1.00, 617.8, 210.0)">c</text><text xml:space="preserve" font-family="HelveticaNeue-Medium" font-size="23.0" fill="#EAEAEA" transform="matrix(1.00, 0.00, -0.00, -1.00, 630.6, 210.0)">h</text><text xml:space="preserve" font-family="HelveticaNeue-Medium" font-size="23.0" fill="#EAEAEA" transform="matrix(1.00, 0.00, -0.00, -1.00, 643.8, 210.0)">a</text><text xml:space="preserve" font-family="HelveticaNeue-Medium" font-size="23.0" fill="#EAEAEA" transform="matrix(1.00, 0.00, -0.00, -1.00, 656.6, 210.0)">i</text><text xml:space="preserve" font-family="HelveticaNeue-Medium" font-size="23.0" fill="#EAEAEA" transform="matrix(1.00, 0.00, -0.00, -1.00, 662.2, 210.0)">n</text><text xml:space="preserve" font-family="HelveticaNeue-Medium" font-size="23.0" fill="#EAEAEA" transform="matrix(1.00, 0.00, -0.00, -1.00, 675.4, 210.0)">.</text><text xml:space="preserve" font-family="HelveticaNeue-Medium" font-size="23.0" fill="#EAEAEA" transform="matrix(1.00, 0.00, -0.00, -1.00, 681.7, 210.0)"> </text><image xlink:href="09AAF36673AE991F05D6ADB2F8F96A74.png" width="13.00" height="13.00" transform="matrix(1.00, 0.00, -0.00, -1.00, 84.0, 166.0)"></image><text xml:space="preserve" font-family="HelveticaNeue-Medium" font-size="17.2" fill="#EAEAEA" transform="matrix(1.00, 0.00, -0.00, -1.00, 86.4, 154.3)">•</text><image xlink:href="B71A5CD76855AAFF9ADEC412C1954E3A.png" width="30.00" height="24.00" transform="matrix(1.00, 0.00, -0.00, -1.00, 107.0, 172.0)"></image><text xml:space="preserve" font-family="HelveticaNeue-Medium" font-size="23.0" fill="#EAEAEA" transform="matrix(1.00, 0.00, -0.00, -1.00, 109.0, 153.0)">1</text><text xml:space="preserve" font-family="HelveticaNeue-Medium" font-size="23.0" fill="#EAEAEA" transform="matrix(1.00, 0.00, -0.00, -1.00, 121.8, 153.0)">3</text><text xml:space="preserve" font-family="HelveticaNeue-Medium" font-size="23.0" fill="#EAEAEA" transform="matrix(1.00, 0.00, -0.00, -1.00, 134.6, 153.0)"> </text><image xlink:href="64BF3681AC766987970B1E95C3D45238.png" width="25.00" height="17.00" transform="matrix(1.00, 0.00, -0.00, -1.00, 140.0, 169.0)"></image><text xml:space="preserve" font-family="LucidaGrande-Bold" font-weight="bold" font-size="23.0" fill="#EAEAEA" transform="matrix(1.00, 0.00, -0.00, -1.00, 141.0, 153.0)">→</text><image xlink:href="6BDD8B1A1AA42276C193C4946EF832F9.png" width="32.00" height="24.00" transform="matrix(1.00, 0.00, -0.00, -1.00, 167.0, 172.0)"></image><text xml:space="preserve" font-family="HelveticaNeue-Medium" font-size="23.0" fill="#EAEAEA" transform="matrix(1.00, 0.00, -0.00, -1.00, 164.0, 153.0)"> </text><text xml:space="preserve" font-family="HelveticaNeue-Medium" font-size="23.0" fill="#EAEAEA" transform="matrix(1.00, 0.00, -0.00, -1.00, 170.4, 153.0)">4</text><text xml:space="preserve" font-family="HelveticaNeue-Medium" font-size="23.0" fill="#EAEAEA" transform="matrix(1.00, 0.00, -0.00, -1.00, 183.2, 153.0)">0</text><text xml:space="preserve" font-family="HelveticaNeue-Medium" font-size="23.0" fill="#EAEAEA" transform="matrix(1.00, 0.00, -0.00, -1.00, 195.9, 153.0)"> </text><image xlink:href="C8EAAE895E2ABD877E2362DEB0C6C8A9.png" width="25.00" height="17.00" transform="matrix(1.00, 0.00, -0.00, -1.00, 201.0, 169.0)"></image><text xml:space="preserve" font-family="LucidaGrande-Bold" font-weight="bold" font-size="23.0" fill="#EAEAEA" transform="matrix(1.00, 0.00, -0.00, -1.00, 202.3, 153.0)">→</text><image xlink:href="365A82F7D293EAE7678E25FCE0BE4A67.png" width="31.00" height="24.00" transform="matrix(1.00, 0.00, -0.00, -1.00, 229.0, 172.0)"></image><text xml:space="preserve" font-family="HelveticaNeue-Medium" font-size="23.0" fill="#EAEAEA" transform="matrix(1.00, 0.00, -0.00, -1.00, 225.3, 153.0)"> </text><text xml:space="preserve" font-family="HelveticaNeue-Medium" font-size="23.0" fill="#EAEAEA" transform="matrix(1.00, 0.00, -0.00, -1.00, 231.7, 153.0)">2</text><text xml:space="preserve" font-family="HelveticaNeue-Medium" font-size="23.0" fill="#EAEAEA" transform="matrix(1.00, 0.00, -0.00, -1.00, 244.5, 153.0)">0</text><text xml:space="preserve" font-family="HelveticaNeue-Medium" font-size="23.0" fill="#EAEAEA" transform="matrix(1.00, 0.00, -0.00, -1.00, 257.3, 153.0)"> </text><image xlink:href="8B66DDC9A6E2C555E224C8AAFA7C78DB.png" width="25.00" height="17.00" transform="matrix(1.00, 0.00, -0.00, -1.00, 263.0, 169.0)"></image><text xml:space="preserve" font-family="LucidaGrande-Bold" font-weight="bold" font-size="23.0" fill="#EAEAEA" transform="matrix(1.00, 0.00, -0.00, -1.00, 263.7, 153.0)">→</text><image xlink:href="DBC0F19E245D16923E8BE1B9D702E738.png" width="30.00" height="24.00" transform="matrix(1.00, 0.00, -0.00, -1.00, 291.0, 172.0)"></image><text xml:space="preserve" font-family="HelveticaNeue-Medium" font-size="23.0" fill="#EAEAEA" transform="matrix(1.00, 0.00, -0.00, -1.00, 286.7, 153.0)"> </text><text xml:space="preserve" font-family="HelveticaNeue-Medium" font-size="23.0" fill="#EAEAEA" transform="matrix(1.00, 0.00, -0.00, -1.00, 293.1, 153.0)">1</text><text xml:space="preserve" font-family="HelveticaNeue-Medium" font-size="23.0" fill="#EAEAEA" transform="matrix(1.00, 0.00, -0.00, -1.00, 305.9, 153.0)">0</text><text xml:space="preserve" font-family="HelveticaNeue-Medium" font-size="23.0" fill="#EAEAEA" transform="matrix(1.00, 0.00, -0.00, -1.00, 318.7, 153.0)"> </text><image xlink:href="CF93B93D42D93FB6F698320B3237A659.png" width="25.00" height="17.00" transform="matrix(1.00, 0.00, -0.00, -1.00, 324.0, 169.0)"></image><text xml:space="preserve" font-family="LucidaGrande-Bold" font-weight="bold" font-size="23.0" fill="#EAEAEA" transform="matrix(1.00, 0.00, -0.00, -1.00, 325.1, 153.0)">→</text><image xlink:href="4961C846FA24FA207AF30938F45DF4C1.png" width="18.00" height="24.00" transform="matrix(1.00, 0.00, -0.00, -1.00, 352.0, 172.0)"></image><text xml:space="preserve" font-family="HelveticaNeue-Medium" font-size="23.0" fill="#EAEAEA" transform="matrix(1.00, 0.00, -0.00, -1.00, 348.1, 153.0)"> </text><text xml:space="preserve" font-family="HelveticaNeue-Medium" font-size="23.0" fill="#EAEAEA" transform="matrix(1.00, 0.00, -0.00, -1.00, 354.5, 153.0)">5</text><text xml:space="preserve" font-family="HelveticaNeue-Medium" font-size="23.0" fill="#EAEAEA" transform="matrix(1.00, 0.00, -0.00, -1.00, 367.2, 153.0)"> </text><image xlink:href="0621E467EFC709170F75F138F31DFFEF.png" width="25.00" height="17.00" transform="matrix(1.00, 0.00, -0.00, -1.00, 373.0, 169.0)"></image><text xml:space="preserve" font-family="LucidaGrande-Bold" font-weight="bold" font-size="23.0" fill="#EAEAEA" transform="matrix(1.00, 0.00, -0.00, -1.00, 373.6, 153.0)">→</text><image xlink:href="1F8BCEEE8D866F27B8E73E30FFA03FBB.png" width="30.00" height="24.00" transform="matrix(1.00, 0.00, -0.00, -1.00, 401.0, 172.0)"></image><text xml:space="preserve" font-family="HelveticaNeue-Medium" font-size="23.0" fill="#EAEAEA" transform="matrix(1.00, 0.00, -0.00, -1.00, 396.6, 153.0)"> </text><text xml:space="preserve" font-family="HelveticaNeue-Medium" font-size="23.0" fill="#EAEAEA" transform="matrix(1.00, 0.00, -0.00, -1.00, 403.0, 153.0)">1</text><text xml:space="preserve" font-family="HelveticaNeue-Medium" font-size="23.0" fill="#EAEAEA" transform="matrix(1.00, 0.00, -0.00, -1.00, 415.8, 153.0)">6</text><text xml:space="preserve" font-family="HelveticaNeue-Medium" font-size="23.0" fill="#EAEAEA" transform="matrix(1.00, 0.00, -0.00, -1.00, 428.6, 153.0)"> </text><image xlink:href="EF96C727A1B9EB033D82FB8E7DE2C24B.png" width="25.00" height="17.00" transform="matrix(1.00, 0.00, -0.00, -1.00, 434.0, 169.0)"></image><text xml:space="preserve" font-family="LucidaGrande-Bold" font-weight="bold" font-size="23.0" fill="#EAEAEA" transform="matrix(1.00, 0.00, -0.00, -1.00, 435.0, 153.0)">→</text><image xlink:href="D25DCFADFA40D1DDC11645376A33E061.png" width="18.00" height="24.00" transform="matrix(1.00, 0.00, -0.00, -1.00, 462.0, 172.0)"></image><text xml:space="preserve" font-family="HelveticaNeue-Medium" font-size="23.0" fill="#EAEAEA" transform="matrix(1.00, 0.00, -0.00, -1.00, 458.0, 153.0)"> </text><text xml:space="preserve" font-family="HelveticaNeue-Medium" font-size="23.0" fill="#EAEAEA" transform="matrix(1.00, 0.00, -0.00, -1.00, 464.4, 153.0)">8</text><text xml:space="preserve" font-family="HelveticaNeue-Medium" font-size="23.0" fill="#EAEAEA" transform="matrix(1.00, 0.00, -0.00, -1.00, 477.2, 153.0)"> </text><image xlink:href="577D03157AE41B144387C3E5AEDF5658.png" width="25.00" height="17.00" transform="matrix(1.00, 0.00, -0.00, -1.00, 483.0, 169.0)"></image><text xml:space="preserve" font-family="LucidaGrande-Bold" font-weight="bold" font-size="23.0" fill="#EAEAEA" transform="matrix(1.00, 0.00, -0.00, -1.00, 483.6, 153.0)">→</text><image xlink:href="6B05928DA9E4A54DD4C37FE639DEC50E.png" width="18.00" height="23.00" transform="matrix(1.00, 0.00, -0.00, -1.00, 510.0, 172.0)"></image><text xml:space="preserve" font-family="HelveticaNeue-Medium" font-size="23.0" fill="#EAEAEA" transform="matrix(1.00, 0.00, -0.00, -1.00, 506.6, 153.0)"> </text><text xml:space="preserve" font-family="HelveticaNeue-Medium" font-size="23.0" fill="#EAEAEA" transform="matrix(1.00, 0.00, -0.00, -1.00, 513.0, 153.0)">4</text><text xml:space="preserve" font-family="HelveticaNeue-Medium" font-size="23.0" fill="#EAEAEA" transform="matrix(1.00, 0.00, -0.00, -1.00, 525.8, 153.0)"> </text><image xlink:href="27AFC6334B1E67727A7D865A6FA080B6.png" width="25.00" height="17.00" transform="matrix(1.00, 0.00, -0.00, -1.00, 531.0, 169.0)"></image><text xml:space="preserve" font-family="LucidaGrande-Bold" font-weight="bold" font-size="23.0" fill="#EAEAEA" transform="matrix(1.00, 0.00, -0.00, -1.00, 532.2, 153.0)">→</text><image xlink:href="09495942F400D441327FD22AA847AB2A.png" width="18.00" height="23.00" transform="matrix(1.00, 0.00, -0.00, -1.00, 559.0, 172.0)"></image><text xml:space="preserve" font-family="HelveticaNeue-Medium" font-size="23.0" fill="#EAEAEA" transform="matrix(1.00, 0.00, -0.00, -1.00, 555.2, 153.0)"> </text><text xml:space="preserve" font-family="HelveticaNeue-Medium" font-size="23.0" fill="#EAEAEA" transform="matrix(1.00, 0.00, -0.00, -1.00, 561.5, 153.0)">2</text><text xml:space="preserve" font-family="HelveticaNeue-Medium" font-size="23.0" fill="#EAEAEA" transform="matrix(1.00, 0.00, -0.00, -1.00, 574.3, 153.0)"> </text><image xlink:href="F2DC9F282283C902CF30145BBA93357B.png" width="25.00" height="17.00" transform="matrix(1.00, 0.00, -0.00, -1.00, 580.0, 169.0)"></image><text xml:space="preserve" font-family="LucidaGrande-Bold" font-weight="bold" font-size="23.0" fill="#EAEAEA" transform="matrix(1.00, 0.00, -0.00, -1.00, 580.7, 153.0)">→</text><image xlink:href="983DDF0A0EFEEDCBFCFF1F857512F7D0.png" width="14.00" height="23.00" transform="matrix(1.00, 0.00, -0.00, -1.00, 608.0, 172.0)"></image><text xml:space="preserve" font-family="HelveticaNeue-Medium" font-size="23.0" fill="#EAEAEA" transform="matrix(1.00, 0.00, -0.00, -1.00, 603.7, 153.0)"> </text><text xml:space="preserve" font-family="HelveticaNeue-Medium" font-size="23.0" fill="#EAEAEA" transform="matrix(1.00, 0.00, -0.00, -1.00, 610.1, 153.0)">1</text><text xml:space="preserve" font-family="HelveticaNeue-Medium" font-size="23.0" fill="#EAEAEA" transform="matrix(1.00, 0.00, -0.00, -1.00, 622.9, 153.0)"> </text><image xlink:href="../../BC4F8E8D-7ED9-49F0-B2CF-41345CFADE10/assets/09AAF36673AE991F05D6ADB2F8F96A74.png" width="13.00" height="13.00" transform="matrix(1.00, 0.00, -0.00, -1.00, 84.0, 109.0)"></image><text xml:space="preserve" font-family="HelveticaNeue-Medium" font-size="17.2" fill="#EAEAEA" transform="matrix(1.00, 0.00, -0.00, -1.00, 86.4, 97.3)">•</text><image xlink:href="4844B84685C527EFEFDD5D912C51878C.png" width="162.00" height="28.00" transform="matrix(1.00, 0.00, -0.00, -1.00, 105.0, 115.0)"></image><text xml:space="preserve" font-family="HelveticaNeue-Medium" font-size="23.0" fill="#EAEAEA" transform="matrix(1.00, 0.00, -0.00, -1.00, 109.0, 96.0)">A</text><text xml:space="preserve" font-family="HelveticaNeue-Medium" font-size="23.0" fill="#EAEAEA" transform="matrix(1.00, 0.00, -0.00, -1.00, 124.3, 96.0)">t</text><text xml:space="preserve" font-family="HelveticaNeue-Medium" font-size="23.0" fill="#EAEAEA" transform="matrix(1.00, 0.00, -0.00, -1.00, 132.0, 96.0)"> </text><text xml:space="preserve" font-family="HelveticaNeue-Medium" font-size="23.0" fill="#EAEAEA" transform="matrix(1.00, 0.00, -0.00, -1.00, 138.4, 96.0)">1</text><text xml:space="preserve" font-family="HelveticaNeue-Medium" font-size="23.0" fill="#EAEAEA" transform="matrix(1.00, 0.00, -0.00, -1.00, 151.2, 96.0)">,</text><text xml:space="preserve" font-family="HelveticaNeue-Medium" font-size="23.0" fill="#EAEAEA" transform="matrix(1.00, 0.00, -0.00, -1.00, 157.6, 96.0)"> </text><text xml:space="preserve" font-family="HelveticaNeue-Medium" font-size="23.0" fill="#EAEAEA" transform="matrix(1.00, 0.00, -0.00, -1.00, 164.0, 96.0)">i</text><text xml:space="preserve" font-family="HelveticaNeue-Medium" font-size="23.0" fill="#EAEAEA" transform="matrix(1.00, 0.00, -0.00, -1.00, 169.5, 96.0)">t</text><text xml:space="preserve" font-family="HelveticaNeue-Medium" font-size="23.0" fill="#EAEAEA" transform="matrix(1.00, 0.00, -0.00, -1.00, 177.2, 96.0)"> </text><text xml:space="preserve" font-family="HelveticaNeue-Medium" font-size="23.0" fill="#EAEAEA" transform="matrix(1.00, 0.00, -0.00, -1.00, 183.6, 96.0)">l</text><text xml:space="preserve" font-family="HelveticaNeue-Medium" font-size="23.0" fill="#EAEAEA" transform="matrix(1.00, 0.00, -0.00, -1.00, 189.1, 96.0)">o</text><text xml:space="preserve" font-family="HelveticaNeue-Medium" font-size="23.0" fill="#EAEAEA" transform="matrix(1.00, 0.00, -0.00, -1.00, 202.7, 96.0)">o</text><text xml:space="preserve" font-family="HelveticaNeue-Medium" font-size="23.0" fill="#EAEAEA" transform="matrix(1.00, 0.00, -0.00, -1.00, 216.4, 96.0)">p</text><text xml:space="preserve" font-family="HelveticaNeue-Medium" font-size="23.0" fill="#EAEAEA" transform="matrix(1.00, 0.00, -0.00, -1.00, 230.4, 96.0)">s</text><text xml:space="preserve" font-family="HelveticaNeue-Medium" font-size="23.0" fill="#EAEAEA" transform="matrix(1.00, 0.00, -0.00, -1.00, 242.4, 96.0)">:</text><text xml:space="preserve" font-family="HelveticaNeue-Medium" font-size="23.0" fill="#EAEAEA" transform="matrix(1.00, 0.00, -0.00, -1.00, 248.8, 96.0)"> </text><text xml:space="preserve" font-family="HelveticaNeue-Medium" font-size="23.0" fill="#EAEAEA" transform="matrix(1.00, 0.00, -0.00, -1.00, 255.2, 96.0)">1</text><text xml:space="preserve" font-family="HelveticaNeue-Medium" font-size="23.0" fill="#EAEAEA" transform="matrix(1.00, 0.00, -0.00, -1.00, 268.0, 96.0)"> </text><image xlink:href="D6F5743294360BC91980F4066381A9EF.png" width="25.00" height="17.00" transform="matrix(1.00, 0.00, -0.00, -1.00, 273.0, 112.0)"></image><text xml:space="preserve" font-family="LucidaGrande-Bold" font-weight="bold" font-size="23.0" fill="#EAEAEA" transform="matrix(1.00, 0.00, -0.00, -1.00, 274.3, 96.0)">→</text><image xlink:href="6EC8481236822C539D26B94A4621DDC6.png" width="18.00" height="23.00" transform="matrix(1.00, 0.00, -0.00, -1.00, 301.0, 115.0)"></image><text xml:space="preserve" font-family="HelveticaNeue-Medium" font-size="23.0" fill="#EAEAEA" transform="matrix(1.00, 0.00, -0.00, -1.00, 297.3, 96.0)"> </text><text xml:space="preserve" font-family="HelveticaNeue-Medium" font-size="23.0" fill="#EAEAEA" transform="matrix(1.00, 0.00, -0.00, -1.00, 303.7, 96.0)">4</text><text xml:space="preserve" font-family="HelveticaNeue-Medium" font-size="23.0" fill="#EAEAEA" transform="matrix(1.00, 0.00, -0.00, -1.00, 316.5, 96.0)"> </text><image xlink:href="B7344D4441A4C4A56070D7A6D03554CD.png" width="25.00" height="17.00" transform="matrix(1.00, 0.00, -0.00, -1.00, 322.0, 112.0)"></image><text xml:space="preserve" font-family="LucidaGrande-Bold" font-weight="bold" font-size="23.0" fill="#EAEAEA" transform="matrix(1.00, 0.00, -0.00, -1.00, 322.9, 96.0)">→</text><image xlink:href="E9796422EE17C867FA08567954395250.png" width="18.00" height="23.00" transform="matrix(1.00, 0.00, -0.00, -1.00, 350.0, 115.0)"></image><text xml:space="preserve" font-family="HelveticaNeue-Medium" font-size="23.0" fill="#EAEAEA" transform="matrix(1.00, 0.00, -0.00, -1.00, 345.9, 96.0)"> </text><text xml:space="preserve" font-family="HelveticaNeue-Medium" font-size="23.0" fill="#EAEAEA" transform="matrix(1.00, 0.00, -0.00, -1.00, 352.3, 96.0)">2</text><text xml:space="preserve" font-family="HelveticaNeue-Medium" font-size="23.0" fill="#EAEAEA" transform="matrix(1.00, 0.00, -0.00, -1.00, 365.1, 96.0)"> </text><image xlink:href="365339007DDF0BFF1A76D2D5DD30F913.png" width="26.00" height="17.00" transform="matrix(1.00, 0.00, -0.00, -1.00, 370.0, 112.0)"></image><text xml:space="preserve" font-family="LucidaGrande-Bold" font-weight="bold" font-size="23.0" fill="#EAEAEA" transform="matrix(1.00, 0.00, -0.00, -1.00, 371.5, 96.0)">→</text><image xlink:href="623F21FE530785DCF297CCA50C445943.png" width="45.00" height="23.00" transform="matrix(1.00, 0.00, -0.00, -1.00, 399.0, 115.0)"></image><text xml:space="preserve" font-family="HelveticaNeue-Medium" font-size="23.0" fill="#EAEAEA" transform="matrix(1.00, 0.00, -0.00, -1.00, 394.5, 96.0)"> </text><text xml:space="preserve" font-family="HelveticaNeue-Medium" font-size="23.0" fill="#EAEAEA" transform="matrix(1.00, 0.00, -0.00, -1.00, 400.9, 96.0)">1</text><text xml:space="preserve" font-family="HelveticaNeue-Medium" font-size="23.0" fill="#EAEAEA" transform="matrix(1.00, 0.00, -0.00, -1.00, 413.7, 96.0)"> </text><text xml:space="preserve" font-family="HelveticaNeue-Medium" font-size="23.0" fill="#EAEAEA" transform="matrix(1.00, 0.00, -0.00, -1.00, 420.1, 96.0)">…</text><text xml:space="preserve" font-family="HelveticaNeue-Medium" font-size="23.0" fill="#EAEAEA" transform="matrix(1.00, 0.00, -0.00, -1.00, 443.1, 96.0)"> </text></g></svg>