<?xml version="1.0" encoding="UTF-8" standalone="no"?><svg xmlns="http://www.w3.org/2000/svg" xmlns:xlink="http://www.w3.org/1999/xlink" clip-rule="evenodd" stroke-miterlimit="4.00" viewBox="0 0 1024 768"><desc>SVG generated by Keynote</desc><defs></defs><g transform="matrix(1.00, 0.00, -0.00, -1.00, 0.0, 768.0)"><g><clipPath id="clip-145"><path d="M 0.0 768.0 L 1024.0 768.0 L 1024.0 0.0 L 0.0 0.0 Z M 0.0 768.0 "></path></clipPath><g clip-path="url(#clip-145)"><image xlink:href="../../363ACDF5-F69A-4348-A617-267FC1DCB792/assets/2CA05975C404A6B79EB2D17D5C3EEC1C.jpeg" width="1024.00" height="768.00" transform="matrix(1.00, 0.00, -0.00, -1.00, 0.0, 768.0)"></image></g></g><image xlink:href="38CC25640C57F52ED395DF9E7461CA30.png" width="270.00" height="55.00" transform="matrix(1.00, 0.00, -0.00, -1.00, 378.0, 692.0)"></image><text xml:space="preserve" font-family="HelveticaNeue-Bold" font-weight="bold" font-size="64.0" fill="#FEFFFE" transform="matrix(1.00, 0.00, -0.00, -1.00, 378.0, 644.0)">L</text><text xml:space="preserve" font-family="HelveticaNeue-Bold" font-weight="bold" font-size="64.0" fill="#FEFFFE" transform="matrix(1.00, 0.00, -0.00, -1.00, 416.0, 644.0)">a</text><text xml:space="preserve" font-family="HelveticaNeue-Bold" font-weight="bold" font-size="64.0" fill="#FEFFFE" transform="matrix(1.00, 0.00, -0.00, -1.00, 452.7, 644.0)">z</text><text xml:space="preserve" font-family="HelveticaNeue-Bold" font-weight="bold" font-size="64.0" fill="#FEFFFE" transform="matrix(1.00, 0.00, -0.00, -1.00, 485.9, 644.0)">i</text><text xml:space="preserve" font-family="HelveticaNeue-Bold" font-weight="bold" font-size="64.0" fill="#FEFFFE" transform="matrix(1.00, 0.00, -0.00, -1.00, 502.4, 644.0)">n</text><text xml:space="preserve" font-family="HelveticaNeue-Bold" font-weight="bold" font-size="64.0" fill="#FEFFFE" transform="matrix(1.00, 0.00, -0.00, -1.00, 540.4, 644.0)">e</text><text xml:space="preserve" font-family="HelveticaNeue-Bold" font-weight="bold" font-size="64.0" fill="#FEFFFE" transform="matrix(1.00, 0.00, -0.00, -1.00, 577.1, 644.0)">s</text><text xml:space="preserve" font-family="HelveticaNeue-Bold" font-weight="bold" font-size="64.0" fill="#FEFFFE" transform="matrix(1.00, 0.00, -0.00, -1.00, 611.5, 644.0)">s</text><image xlink:href="../../D9433726-5947-428F-A554-7984E936C271/assets/22338A021207344BFFC0BA20AE086817.png" width="18.00" height="18.00" transform="matrix(1.00, 0.00, -0.00, -1.00, 61.0, 542.0)"></image><text xml:space="preserve" font-family="HelveticaNeue-Medium" font-size="25.5" fill="#EAEAEA" transform="matrix(1.00, 0.00, -0.00, -1.00, 64.0, 525.9)">•</text><image xlink:href="FA81F5F8FF2B0D6830495FDB8B00EF9F.png" width="674.00" height="40.00" transform="matrix(1.00, 0.00, -0.00, -1.00, 92.0, 550.0)"></image><text xml:space="preserve" font-family="HelveticaNeue-Medium" font-size="34.0" fill="#EAEAEA" transform="matrix(1.00, 0.00, -0.00, -1.00, 96.0, 523.0)">T</text><text xml:space="preserve" font-family="HelveticaNeue-Medium" font-size="34.0" fill="#EAEAEA" transform="matrix(1.00, 0.00, -0.00, -1.00, 116.2, 523.0)">h</text><text xml:space="preserve" font-family="HelveticaNeue-Medium" font-size="34.0" fill="#EAEAEA" transform="matrix(1.00, 0.00, -0.00, -1.00, 135.7, 523.0)">e</text><text xml:space="preserve" font-family="HelveticaNeue-Medium" font-size="34.0" fill="#EAEAEA" transform="matrix(1.00, 0.00, -0.00, -1.00, 154.6, 523.0)"> </text><text xml:space="preserve" font-family="HelveticaNeue-Medium" font-size="34.0" fill="#EAEAEA" transform="matrix(1.00, 0.00, -0.00, -1.00, 164.0, 523.0)">P</text><text xml:space="preserve" font-family="HelveticaNeue-Medium" font-size="34.0" fill="#EAEAEA" transform="matrix(1.00, 0.00, -0.00, -1.00, 186.7, 523.0)">y</text><text xml:space="preserve" font-family="HelveticaNeue-Medium" font-size="34.0" fill="#EAEAEA" transform="matrix(1.00, 0.00, -0.00, -1.00, 204.4, 523.0)">t</text><text xml:space="preserve" font-family="HelveticaNeue-Medium" font-size="34.0" fill="#EAEAEA" transform="matrix(1.00, 0.00, -0.00, -1.00, 215.7, 523.0)">h</text><text xml:space="preserve" font-family="HelveticaNeue-Medium" font-size="34.0" fill="#EAEAEA" transform="matrix(1.00, 0.00, -0.00, -1.00, 235.2, 523.0)">o</text><text xml:space="preserve" font-family="HelveticaNeue-Medium" font-size="34.0" fill="#EAEAEA" transform="matrix(1.00, 0.00, -0.00, -1.00, 255.4, 523.0)">n</text><text xml:space="preserve" font-family="HelveticaNeue-Medium" font-size="34.0" fill="#EAEAEA" transform="matrix(1.00, 0.00, -0.00, -1.00, 274.9, 523.0)"> </text><text xml:space="preserve" font-family="HelveticaNeue-Medium" font-size="34.0" fill="#EAEAEA" transform="matrix(1.00, 0.00, -0.00, -1.00, 284.3, 523.0)">h</text><text xml:space="preserve" font-family="HelveticaNeue-Medium" font-size="34.0" fill="#EAEAEA" transform="matrix(1.00, 0.00, -0.00, -1.00, 303.8, 523.0)">i</text><text xml:space="preserve" font-family="HelveticaNeue-Medium" font-size="34.0" fill="#EAEAEA" transform="matrix(1.00, 0.00, -0.00, -1.00, 312.0, 523.0)">g</text><text xml:space="preserve" font-family="HelveticaNeue-Medium" font-size="34.0" fill="#EAEAEA" transform="matrix(1.00, 0.00, -0.00, -1.00, 332.2, 523.0)">h</text><text xml:space="preserve" font-family="HelveticaNeue-Medium" font-size="34.0" fill="#EAEAEA" transform="matrix(1.00, 0.00, -0.00, -1.00, 351.7, 523.0)">e</text><text xml:space="preserve" font-family="HelveticaNeue-Medium" font-size="34.0" fill="#EAEAEA" transform="matrix(1.00, 0.00, -0.00, -1.00, 370.6, 523.0)">r</text><text xml:space="preserve" font-family="HelveticaNeue-Medium" font-size="34.0" fill="#EAEAEA" transform="matrix(1.00, 0.00, -0.00, -1.00, 380.7, 523.0)">-</text><text xml:space="preserve" font-family="HelveticaNeue-Medium" font-size="34.0" fill="#EAEAEA" transform="matrix(1.00, 0.00, -0.00, -1.00, 393.9, 523.0)">o</text><text xml:space="preserve" font-family="HelveticaNeue-Medium" font-size="34.0" fill="#EAEAEA" transform="matrix(1.00, 0.00, -0.00, -1.00, 414.1, 523.0)">r</text><text xml:space="preserve" font-family="HelveticaNeue-Medium" font-size="34.0" fill="#EAEAEA" transform="matrix(1.00, 0.00, -0.00, -1.00, 425.5, 523.0)">d</text><text xml:space="preserve" font-family="HelveticaNeue-Medium" font-size="34.0" fill="#EAEAEA" transform="matrix(1.00, 0.00, -0.00, -1.00, 446.2, 523.0)">e</text><text xml:space="preserve" font-family="HelveticaNeue-Medium" font-size="34.0" fill="#EAEAEA" transform="matrix(1.00, 0.00, -0.00, -1.00, 465.1, 523.0)">r</text><text xml:space="preserve" font-family="HelveticaNeue-Medium" font-size="34.0" fill="#EAEAEA" transform="matrix(1.00, 0.00, -0.00, -1.00, 477.1, 523.0)"> </text><text xml:space="preserve" font-family="HelveticaNeue-Medium" font-size="34.0" fill="#EAEAEA" transform="matrix(1.00, 0.00, -0.00, -1.00, 486.6, 523.0)">f</text><text xml:space="preserve" font-family="HelveticaNeue-Medium" font-size="34.0" fill="#EAEAEA" transform="matrix(1.00, 0.00, -0.00, -1.00, 497.3, 523.0)">u</text><text xml:space="preserve" font-family="HelveticaNeue-Medium" font-size="34.0" fill="#EAEAEA" transform="matrix(1.00, 0.00, -0.00, -1.00, 516.8, 523.0)">n</text><text xml:space="preserve" font-family="HelveticaNeue-Medium" font-size="34.0" fill="#EAEAEA" transform="matrix(1.00, 0.00, -0.00, -1.00, 536.3, 523.0)">c</text><text xml:space="preserve" font-family="HelveticaNeue-Medium" font-size="34.0" fill="#EAEAEA" transform="matrix(1.00, 0.00, -0.00, -1.00, 555.2, 523.0)">t</text><text xml:space="preserve" font-family="HelveticaNeue-Medium" font-size="34.0" fill="#EAEAEA" transform="matrix(1.00, 0.00, -0.00, -1.00, 566.5, 523.0)">i</text><text xml:space="preserve" font-family="HelveticaNeue-Medium" font-size="34.0" fill="#EAEAEA" transform="matrix(1.00, 0.00, -0.00, -1.00, 574.7, 523.0)">o</text><text xml:space="preserve" font-family="HelveticaNeue-Medium" font-size="34.0" fill="#EAEAEA" transform="matrix(1.00, 0.00, -0.00, -1.00, 594.9, 523.0)">n</text><text xml:space="preserve" font-family="HelveticaNeue-Medium" font-size="34.0" fill="#EAEAEA" transform="matrix(1.00, 0.00, -0.00, -1.00, 614.4, 523.0)">s</text><text xml:space="preserve" font-family="HelveticaNeue-Medium" font-size="34.0" fill="#EAEAEA" transform="matrix(1.00, 0.00, -0.00, -1.00, 632.0, 523.0)"> </text><text xml:space="preserve" font-family="HelveticaNeue-Medium" font-size="34.0" fill="#EAEAEA" transform="matrix(1.00, 0.00, -0.00, -1.00, 641.5, 523.0)">a</text><text xml:space="preserve" font-family="HelveticaNeue-Medium" font-size="34.0" fill="#EAEAEA" transform="matrix(1.00, 0.00, -0.00, -1.00, 660.4, 523.0)">r</text><text xml:space="preserve" font-family="HelveticaNeue-Medium" font-size="34.0" fill="#EAEAEA" transform="matrix(1.00, 0.00, -0.00, -1.00, 671.8, 523.0)">e</text><text xml:space="preserve" font-family="HelveticaNeue-Medium" font-size="34.0" fill="#EAEAEA" transform="matrix(1.00, 0.00, -0.00, -1.00, 690.7, 523.0)"> </text><text xml:space="preserve" font-family="HelveticaNeue-Medium" font-size="34.0" fill="#EAEAEA" transform="matrix(1.00, 0.00, -0.00, -1.00, 700.1, 523.0)">l</text><text xml:space="preserve" font-family="HelveticaNeue-Medium" font-size="34.0" fill="#EAEAEA" transform="matrix(1.00, 0.00, -0.00, -1.00, 708.3, 523.0)">a</text><text xml:space="preserve" font-family="HelveticaNeue-Medium" font-size="34.0" fill="#EAEAEA" transform="matrix(1.00, 0.00, -0.00, -1.00, 727.2, 523.0)">z</text><text xml:space="preserve" font-family="HelveticaNeue-Medium" font-size="34.0" fill="#EAEAEA" transform="matrix(1.00, 0.00, -0.00, -1.00, 744.2, 523.0)">y</text><text xml:space="preserve" font-family="HelveticaNeue-Medium" font-size="34.0" fill="#EAEAEA" transform="matrix(1.00, 0.00, -0.00, -1.00, 761.9, 523.0)"> </text><image xlink:href="../../47268E16-E7B5-429C-8713-3E6A76871230/assets/A21D3477D2B34BF12C9901F94EEC4D67.png" width="18.00" height="19.00" transform="matrix(1.00, 0.00, -0.00, -1.00, 93.0, 459.0)"></image><text xml:space="preserve" font-family="HelveticaNeue-Medium" font-size="25.5" fill="#EAEAEA" transform="matrix(1.00, 0.00, -0.00, -1.00, 96.0, 442.4)">•</text><image xlink:href="3858F6B675EAFCE43EDA16057622CEF2.png" width="304.00" height="34.00" transform="matrix(1.00, 0.00, -0.00, -1.00, 126.0, 467.0)"></image><text xml:space="preserve" font-family="HelveticaNeue-Medium" font-size="34.0" fill="#EAEAEA" transform="matrix(1.00, 0.00, -0.00, -1.00, 128.0, 440.0)">B</text><text xml:space="preserve" font-family="HelveticaNeue-Medium" font-size="34.0" fill="#EAEAEA" transform="matrix(1.00, 0.00, -0.00, -1.00, 151.9, 440.0)">o</text><text xml:space="preserve" font-family="HelveticaNeue-Medium" font-size="34.0" fill="#EAEAEA" transform="matrix(1.00, 0.00, -0.00, -1.00, 172.1, 440.0)">t</text><text xml:space="preserve" font-family="HelveticaNeue-Medium" font-size="34.0" fill="#EAEAEA" transform="matrix(1.00, 0.00, -0.00, -1.00, 183.4, 440.0)">h</text><text xml:space="preserve" font-family="HelveticaNeue-Medium" font-size="34.0" fill="#EAEAEA" transform="matrix(1.00, 0.00, -0.00, -1.00, 202.9, 440.0)"> </text><text xml:space="preserve" font-family="HelveticaNeue-Medium" font-size="34.0" fill="#EAEAEA" transform="matrix(1.00, 0.00, -0.00, -1.00, 212.4, 440.0)">b</text><text xml:space="preserve" font-family="HelveticaNeue-Medium" font-size="34.0" fill="#EAEAEA" transform="matrix(1.00, 0.00, -0.00, -1.00, 233.2, 440.0)">u</text><text xml:space="preserve" font-family="HelveticaNeue-Medium" font-size="34.0" fill="#EAEAEA" transform="matrix(1.00, 0.00, -0.00, -1.00, 252.7, 440.0)">i</text><text xml:space="preserve" font-family="HelveticaNeue-Medium" font-size="34.0" fill="#EAEAEA" transform="matrix(1.00, 0.00, -0.00, -1.00, 260.9, 440.0)">l</text><text xml:space="preserve" font-family="HelveticaNeue-Medium" font-size="34.0" fill="#EAEAEA" transform="matrix(1.00, 0.00, -0.00, -1.00, 269.1, 440.0)">t</text><text xml:space="preserve" font-family="HelveticaNeue-Medium" font-size="34.0" fill="#EAEAEA" transform="matrix(1.00, 0.00, -0.00, -1.00, 280.4, 440.0)">-</text><text xml:space="preserve" font-family="HelveticaNeue-Medium" font-size="34.0" fill="#EAEAEA" transform="matrix(1.00, 0.00, -0.00, -1.00, 293.6, 440.0)">i</text><text xml:space="preserve" font-family="HelveticaNeue-Medium" font-size="34.0" fill="#EAEAEA" transform="matrix(1.00, 0.00, -0.00, -1.00, 301.8, 440.0)">n</text><text xml:space="preserve" font-family="HelveticaNeue-Medium" font-size="34.0" fill="#EAEAEA" transform="matrix(1.00, 0.00, -0.00, -1.00, 321.3, 440.0)"> </text><text xml:space="preserve" font-family="HelveticaNeue-Medium" font-size="34.0" fill="#EAEAEA" transform="matrix(1.00, 0.00, -0.00, -1.00, 330.8, 440.0)">a</text><text xml:space="preserve" font-family="HelveticaNeue-Medium" font-size="34.0" fill="#EAEAEA" transform="matrix(1.00, 0.00, -0.00, -1.00, 349.7, 440.0)">n</text><text xml:space="preserve" font-family="HelveticaNeue-Medium" font-size="34.0" fill="#EAEAEA" transform="matrix(1.00, 0.00, -0.00, -1.00, 369.2, 440.0)">d</text><text xml:space="preserve" font-family="HelveticaNeue-Medium" font-size="34.0" fill="#EAEAEA" transform="matrix(1.00, 0.00, -0.00, -1.00, 390.0, 440.0)"> </text><text xml:space="preserve" font-family="HelveticaNeue-Medium" font-size="34.0" fill="#EAEAEA" transform="matrix(1.00, 0.00, -0.00, -1.00, 399.4, 440.0)">i</text><text xml:space="preserve" font-family="HelveticaNeue-Medium" font-size="34.0" fill="#EAEAEA" transform="matrix(1.00, 0.00, -0.00, -1.00, 407.6, 440.0)">n</text><text xml:space="preserve" font-family="HelveticaNeue-Medium" font-size="34.0" fill="#EAEAEA" transform="matrix(1.00, 0.00, -0.00, -1.00, 427.1, 440.0)"> </text><image xlink:href="2491868BFE4180F19AABC30A8BE77805.png" width="125.00" height="34.00" transform="matrix(1.00, 0.00, -0.00, -1.00, 434.0, 467.0)"></image><text xml:space="preserve" font-family="Helvetica" font-size="34.0" fill="#EAEAEA" transform="matrix(1.00, 0.00, -0.00, -1.00, 436.6, 440.0)">i</text><text xml:space="preserve" font-family="Helvetica" font-size="34.0" fill="#EAEAEA" transform="matrix(1.00, 0.00, -0.00, -1.00, 444.1, 440.0)">t</text><text xml:space="preserve" font-family="Helvetica" font-size="34.0" fill="#EAEAEA" transform="matrix(1.00, 0.00, -0.00, -1.00, 453.6, 440.0)">e</text><text xml:space="preserve" font-family="Helvetica" font-size="34.0" fill="#EAEAEA" transform="matrix(1.00, 0.00, -0.00, -1.00, 472.5, 440.0)">r</text><text xml:space="preserve" font-family="Helvetica" font-size="34.0" fill="#EAEAEA" transform="matrix(1.00, 0.00, -0.00, -1.00, 483.8, 440.0)">t</text><text xml:space="preserve" font-family="Helvetica" font-size="34.0" fill="#EAEAEA" transform="matrix(1.00, 0.00, -0.00, -1.00, 493.3, 440.0)">o</text><text xml:space="preserve" font-family="Helvetica" font-size="34.0" fill="#EAEAEA" transform="matrix(1.00, 0.00, -0.00, -1.00, 512.2, 440.0)">o</text><text xml:space="preserve" font-family="Helvetica" font-size="34.0" fill="#EAEAEA" transform="matrix(1.00, 0.00, -0.00, -1.00, 531.1, 440.0)">l</text><text xml:space="preserve" font-family="Helvetica" font-size="34.0" fill="#EAEAEA" transform="matrix(1.00, 0.00, -0.00, -1.00, 538.7, 440.0)">s</text><image xlink:href="ABFFF05814EFE18FE08FD00FE8FB8E4E.png" width="104.00" height="40.00" transform="matrix(1.00, 0.00, -0.00, -1.00, 563.0, 467.0)"></image><text xml:space="preserve" font-family="HelveticaNeue-Medium" font-size="34.0" fill="#EAEAEA" transform="matrix(1.00, 0.00, -0.00, -1.00, 555.6, 440.0)"> </text><text xml:space="preserve" font-family="HelveticaNeue-Medium" font-size="34.0" fill="#EAEAEA" transform="matrix(1.00, 0.00, -0.00, -1.00, 565.1, 440.0)">l</text><text xml:space="preserve" font-family="HelveticaNeue-Medium" font-size="34.0" fill="#EAEAEA" transform="matrix(1.00, 0.00, -0.00, -1.00, 573.3, 440.0)">i</text><text xml:space="preserve" font-family="HelveticaNeue-Medium" font-size="34.0" fill="#EAEAEA" transform="matrix(1.00, 0.00, -0.00, -1.00, 581.5, 440.0)">b</text><text xml:space="preserve" font-family="HelveticaNeue-Medium" font-size="34.0" fill="#EAEAEA" transform="matrix(1.00, 0.00, -0.00, -1.00, 602.2, 440.0)">r</text><text xml:space="preserve" font-family="HelveticaNeue-Medium" font-size="34.0" fill="#EAEAEA" transform="matrix(1.00, 0.00, -0.00, -1.00, 614.2, 440.0)">a</text><text xml:space="preserve" font-family="HelveticaNeue-Medium" font-size="34.0" fill="#EAEAEA" transform="matrix(1.00, 0.00, -0.00, -1.00, 633.1, 440.0)">r</text><text xml:space="preserve" font-family="HelveticaNeue-Medium" font-size="34.0" fill="#EAEAEA" transform="matrix(1.00, 0.00, -0.00, -1.00, 645.1, 440.0)">y</text><text xml:space="preserve" font-family="HelveticaNeue-Medium" font-size="34.0" fill="#EAEAEA" transform="matrix(1.00, 0.00, -0.00, -1.00, 662.7, 440.0)"> </text><image xlink:href="6D4EE4046A27DF0D1D880BD2F94EF520.png" width="18.00" height="18.00" transform="matrix(1.00, 0.00, -0.00, -1.00, 61.0, 375.0)"></image><text xml:space="preserve" font-family="HelveticaNeue-Medium" font-size="25.5" fill="#EAEAEA" transform="matrix(1.00, 0.00, -0.00, -1.00, 64.0, 358.9)">•</text><image xlink:href="54B624F60ABAEC5586D25FB23B4582B8.png" width="743.00" height="40.00" transform="matrix(1.00, 0.00, -0.00, -1.00, 92.0, 383.0)"></image><text xml:space="preserve" font-family="HelveticaNeue-Medium" font-size="34.0" fill="#EAEAEA" transform="matrix(1.00, 0.00, -0.00, -1.00, 96.0, 356.0)">T</text><text xml:space="preserve" font-family="HelveticaNeue-Medium" font-size="34.0" fill="#EAEAEA" transform="matrix(1.00, 0.00, -0.00, -1.00, 116.2, 356.0)">h</text><text xml:space="preserve" font-family="HelveticaNeue-Medium" font-size="34.0" fill="#EAEAEA" transform="matrix(1.00, 0.00, -0.00, -1.00, 135.7, 356.0)">e</text><text xml:space="preserve" font-family="HelveticaNeue-Medium" font-size="34.0" fill="#EAEAEA" transform="matrix(1.00, 0.00, -0.00, -1.00, 154.6, 356.0)">y</text><text xml:space="preserve" font-family="HelveticaNeue-Medium" font-size="34.0" fill="#EAEAEA" transform="matrix(1.00, 0.00, -0.00, -1.00, 172.2, 356.0)"> </text><text xml:space="preserve" font-family="HelveticaNeue-Medium" font-size="34.0" fill="#EAEAEA" transform="matrix(1.00, 0.00, -0.00, -1.00, 181.7, 356.0)">d</text><text xml:space="preserve" font-family="HelveticaNeue-Medium" font-size="34.0" fill="#EAEAEA" transform="matrix(1.00, 0.00, -0.00, -1.00, 202.5, 356.0)">o</text><text xml:space="preserve" font-family="HelveticaNeue-Medium" font-size="34.0" fill="#EAEAEA" transform="matrix(1.00, 0.00, -0.00, -1.00, 222.6, 356.0)">n</text><text xml:space="preserve" font-family="HelveticaNeue-Medium" font-size="34.0" fill="#EAEAEA" transform="matrix(1.00, 0.00, -0.00, -1.00, 242.1, 356.0)">’</text><text xml:space="preserve" font-family="HelveticaNeue-Medium" font-size="34.0" fill="#EAEAEA" transform="matrix(1.00, 0.00, -0.00, -1.00, 251.0, 356.0)">t</text><text xml:space="preserve" font-family="HelveticaNeue-Medium" font-size="34.0" fill="#EAEAEA" transform="matrix(1.00, 0.00, -0.00, -1.00, 262.3, 356.0)"> </text><text xml:space="preserve" font-family="HelveticaNeue-Medium" font-size="34.0" fill="#EAEAEA" transform="matrix(1.00, 0.00, -0.00, -1.00, 271.7, 356.0)">c</text><text xml:space="preserve" font-family="HelveticaNeue-Medium" font-size="34.0" fill="#EAEAEA" transform="matrix(1.00, 0.00, -0.00, -1.00, 290.6, 356.0)">o</text><text xml:space="preserve" font-family="HelveticaNeue-Medium" font-size="34.0" fill="#EAEAEA" transform="matrix(1.00, 0.00, -0.00, -1.00, 310.8, 356.0)">m</text><text xml:space="preserve" font-family="HelveticaNeue-Medium" font-size="34.0" fill="#EAEAEA" transform="matrix(1.00, 0.00, -0.00, -1.00, 340.4, 356.0)">p</text><text xml:space="preserve" font-family="HelveticaNeue-Medium" font-size="34.0" fill="#EAEAEA" transform="matrix(1.00, 0.00, -0.00, -1.00, 361.2, 356.0)">u</text><text xml:space="preserve" font-family="HelveticaNeue-Medium" font-size="34.0" fill="#EAEAEA" transform="matrix(1.00, 0.00, -0.00, -1.00, 380.7, 356.0)">t</text><text xml:space="preserve" font-family="HelveticaNeue-Medium" font-size="34.0" fill="#EAEAEA" transform="matrix(1.00, 0.00, -0.00, -1.00, 392.0, 356.0)">e</text><text xml:space="preserve" font-family="HelveticaNeue-Medium" font-size="34.0" fill="#EAEAEA" transform="matrix(1.00, 0.00, -0.00, -1.00, 410.9, 356.0)"> </text><text xml:space="preserve" font-family="HelveticaNeue-Medium" font-size="34.0" fill="#EAEAEA" transform="matrix(1.00, 0.00, -0.00, -1.00, 420.4, 356.0)">t</text><text xml:space="preserve" font-family="HelveticaNeue-Medium" font-size="34.0" fill="#EAEAEA" transform="matrix(1.00, 0.00, -0.00, -1.00, 431.7, 356.0)">h</text><text xml:space="preserve" font-family="HelveticaNeue-Medium" font-size="34.0" fill="#EAEAEA" transform="matrix(1.00, 0.00, -0.00, -1.00, 451.2, 356.0)">e</text><text xml:space="preserve" font-family="HelveticaNeue-Medium" font-size="34.0" fill="#EAEAEA" transform="matrix(1.00, 0.00, -0.00, -1.00, 470.1, 356.0)"> </text><text xml:space="preserve" font-family="HelveticaNeue-Medium" font-size="34.0" fill="#EAEAEA" transform="matrix(1.00, 0.00, -0.00, -1.00, 479.6, 356.0)">r</text><text xml:space="preserve" font-family="HelveticaNeue-Medium" font-size="34.0" fill="#EAEAEA" transform="matrix(1.00, 0.00, -0.00, -1.00, 490.9, 356.0)">e</text><text xml:space="preserve" font-family="HelveticaNeue-Medium" font-size="34.0" fill="#EAEAEA" transform="matrix(1.00, 0.00, -0.00, -1.00, 509.8, 356.0)">s</text><text xml:space="preserve" font-family="HelveticaNeue-Medium" font-size="34.0" fill="#EAEAEA" transform="matrix(1.00, 0.00, -0.00, -1.00, 527.5, 356.0)">u</text><text xml:space="preserve" font-family="HelveticaNeue-Medium" font-size="34.0" fill="#EAEAEA" transform="matrix(1.00, 0.00, -0.00, -1.00, 547.0, 356.0)">l</text><text xml:space="preserve" font-family="HelveticaNeue-Medium" font-size="34.0" fill="#EAEAEA" transform="matrix(1.00, 0.00, -0.00, -1.00, 555.2, 356.0)">t</text><text xml:space="preserve" font-family="HelveticaNeue-Medium" font-size="34.0" fill="#EAEAEA" transform="matrix(1.00, 0.00, -0.00, -1.00, 566.5, 356.0)">s</text><text xml:space="preserve" font-family="HelveticaNeue-Medium" font-size="34.0" fill="#EAEAEA" transform="matrix(1.00, 0.00, -0.00, -1.00, 584.1, 356.0)"> </text><text xml:space="preserve" font-family="HelveticaNeue-Medium" font-size="34.0" fill="#EAEAEA" transform="matrix(1.00, 0.00, -0.00, -1.00, 593.6, 356.0)">u</text><text xml:space="preserve" font-family="HelveticaNeue-Medium" font-size="34.0" fill="#EAEAEA" transform="matrix(1.00, 0.00, -0.00, -1.00, 613.1, 356.0)">n</text><text xml:space="preserve" font-family="HelveticaNeue-Medium" font-size="34.0" fill="#EAEAEA" transform="matrix(1.00, 0.00, -0.00, -1.00, 632.6, 356.0)">t</text><text xml:space="preserve" font-family="HelveticaNeue-Medium" font-size="34.0" fill="#EAEAEA" transform="matrix(1.00, 0.00, -0.00, -1.00, 643.9, 356.0)">i</text><text xml:space="preserve" font-family="HelveticaNeue-Medium" font-size="34.0" fill="#EAEAEA" transform="matrix(1.00, 0.00, -0.00, -1.00, 652.1, 356.0)">l</text><text xml:space="preserve" font-family="HelveticaNeue-Medium" font-size="34.0" fill="#EAEAEA" transform="matrix(1.00, 0.00, -0.00, -1.00, 660.3, 356.0)"> </text><text xml:space="preserve" font-family="HelveticaNeue-Medium" font-size="34.0" fill="#EAEAEA" transform="matrix(1.00, 0.00, -0.00, -1.00, 669.8, 356.0)">a</text><text xml:space="preserve" font-family="HelveticaNeue-Medium" font-size="34.0" fill="#EAEAEA" transform="matrix(1.00, 0.00, -0.00, -1.00, 688.7, 356.0)">b</text><text xml:space="preserve" font-family="HelveticaNeue-Medium" font-size="34.0" fill="#EAEAEA" transform="matrix(1.00, 0.00, -0.00, -1.00, 709.5, 356.0)">s</text><text xml:space="preserve" font-family="HelveticaNeue-Medium" font-size="34.0" fill="#EAEAEA" transform="matrix(1.00, 0.00, -0.00, -1.00, 727.1, 356.0)">o</text><text xml:space="preserve" font-family="HelveticaNeue-Medium" font-size="34.0" fill="#EAEAEA" transform="matrix(1.00, 0.00, -0.00, -1.00, 747.3, 356.0)">l</text><text xml:space="preserve" font-family="HelveticaNeue-Medium" font-size="34.0" fill="#EAEAEA" transform="matrix(1.00, 0.00, -0.00, -1.00, 755.5, 356.0)">u</text><text xml:space="preserve" font-family="HelveticaNeue-Medium" font-size="34.0" fill="#EAEAEA" transform="matrix(1.00, 0.00, -0.00, -1.00, 775.0, 356.0)">t</text><text xml:space="preserve" font-family="HelveticaNeue-Medium" font-size="34.0" fill="#EAEAEA" transform="matrix(1.00, 0.00, -0.00, -1.00, 786.3, 356.0)">e</text><text xml:space="preserve" font-family="HelveticaNeue-Medium" font-size="34.0" fill="#EAEAEA" transform="matrix(1.00, 0.00, -0.00, -1.00, 805.2, 356.0)">l</text><text xml:space="preserve" font-family="HelveticaNeue-Medium" font-size="34.0" fill="#EAEAEA" transform="matrix(1.00, 0.00, -0.00, -1.00, 813.4, 356.0)">y</text><text xml:space="preserve" font-family="HelveticaNeue-Medium" font-size="34.0" fill="#EAEAEA" transform="matrix(1.00, 0.00, -0.00, -1.00, 831.0, 356.0)"> </text><image xlink:href="C49BCB276DCCD0603AB410ABFCE203F1.png" width="332.00" height="40.00" transform="matrix(1.00, 0.00, -0.00, -1.00, 94.0, 342.0)"></image><text xml:space="preserve" font-family="HelveticaNeue-Medium" font-size="34.0" fill="#EAEAEA" transform="matrix(1.00, 0.00, -0.00, -1.00, 96.0, 315.0)">i</text><text xml:space="preserve" font-family="HelveticaNeue-Medium" font-size="34.0" fill="#EAEAEA" transform="matrix(1.00, 0.00, -0.00, -1.00, 104.2, 315.0)">n</text><text xml:space="preserve" font-family="HelveticaNeue-Medium" font-size="34.0" fill="#EAEAEA" transform="matrix(1.00, 0.00, -0.00, -1.00, 123.7, 315.0)">e</text><text xml:space="preserve" font-family="HelveticaNeue-Medium" font-size="34.0" fill="#EAEAEA" transform="matrix(1.00, 0.00, -0.00, -1.00, 142.6, 315.0)">s</text><text xml:space="preserve" font-family="HelveticaNeue-Medium" font-size="34.0" fill="#EAEAEA" transform="matrix(1.00, 0.00, -0.00, -1.00, 160.3, 315.0)">c</text><text xml:space="preserve" font-family="HelveticaNeue-Medium" font-size="34.0" fill="#EAEAEA" transform="matrix(1.00, 0.00, -0.00, -1.00, 179.2, 315.0)">a</text><text xml:space="preserve" font-family="HelveticaNeue-Medium" font-size="34.0" fill="#EAEAEA" transform="matrix(1.00, 0.00, -0.00, -1.00, 198.1, 315.0)">p</text><text xml:space="preserve" font-family="HelveticaNeue-Medium" font-size="34.0" fill="#EAEAEA" transform="matrix(1.00, 0.00, -0.00, -1.00, 218.8, 315.0)">a</text><text xml:space="preserve" font-family="HelveticaNeue-Medium" font-size="34.0" fill="#EAEAEA" transform="matrix(1.00, 0.00, -0.00, -1.00, 237.7, 315.0)">b</text><text xml:space="preserve" font-family="HelveticaNeue-Medium" font-size="34.0" fill="#EAEAEA" transform="matrix(1.00, 0.00, -0.00, -1.00, 258.5, 315.0)">l</text><text xml:space="preserve" font-family="HelveticaNeue-Medium" font-size="34.0" fill="#EAEAEA" transform="matrix(1.00, 0.00, -0.00, -1.00, 266.7, 315.0)">y</text><text xml:space="preserve" font-family="HelveticaNeue-Medium" font-size="34.0" fill="#EAEAEA" transform="matrix(1.00, 0.00, -0.00, -1.00, 284.4, 315.0)"> </text><text xml:space="preserve" font-family="HelveticaNeue-Medium" font-size="34.0" fill="#EAEAEA" transform="matrix(1.00, 0.00, -0.00, -1.00, 293.8, 315.0)">r</text><text xml:space="preserve" font-family="HelveticaNeue-Medium" font-size="34.0" fill="#EAEAEA" transform="matrix(1.00, 0.00, -0.00, -1.00, 305.2, 315.0)">e</text><text xml:space="preserve" font-family="HelveticaNeue-Medium" font-size="34.0" fill="#EAEAEA" transform="matrix(1.00, 0.00, -0.00, -1.00, 324.1, 315.0)">q</text><text xml:space="preserve" font-family="HelveticaNeue-Medium" font-size="34.0" fill="#EAEAEA" transform="matrix(1.00, 0.00, -0.00, -1.00, 344.8, 315.0)">u</text><text xml:space="preserve" font-family="HelveticaNeue-Medium" font-size="34.0" fill="#EAEAEA" transform="matrix(1.00, 0.00, -0.00, -1.00, 364.4, 315.0)">i</text><text xml:space="preserve" font-family="HelveticaNeue-Medium" font-size="34.0" fill="#EAEAEA" transform="matrix(1.00, 0.00, -0.00, -1.00, 372.6, 315.0)">r</text><text xml:space="preserve" font-family="HelveticaNeue-Medium" font-size="34.0" fill="#EAEAEA" transform="matrix(1.00, 0.00, -0.00, -1.00, 383.9, 315.0)">e</text><text xml:space="preserve" font-family="HelveticaNeue-Medium" font-size="34.0" fill="#EAEAEA" transform="matrix(1.00, 0.00, -0.00, -1.00, 402.8, 315.0)">d</text><text xml:space="preserve" font-family="HelveticaNeue-Medium" font-size="34.0" fill="#EAEAEA" transform="matrix(1.00, 0.00, -0.00, -1.00, 423.6, 315.0)"> </text><image xlink:href="../../47268E16-E7B5-429C-8713-3E6A76871230/assets/71A199655D75A9FC60918DAFB330EA59.png" width="18.00" height="19.00" transform="matrix(1.00, 0.00, -0.00, -1.00, 61.0, 251.0)"></image><text xml:space="preserve" font-family="HelveticaNeue-Medium" font-size="25.5" fill="#EAEAEA" transform="matrix(1.00, 0.00, -0.00, -1.00, 64.0, 234.4)">•</text><image xlink:href="3AE1847D94741B9CFE996A3E8BC43087.png" width="169.00" height="34.00" transform="matrix(1.00, 0.00, -0.00, -1.00, 93.0, 259.0)"></image><text xml:space="preserve" font-family="HelveticaNeue-Medium" font-size="34.0" fill="#EAEAEA" transform="matrix(1.00, 0.00, -0.00, -1.00, 96.0, 232.0)">S</text><text xml:space="preserve" font-family="HelveticaNeue-Medium" font-size="34.0" fill="#EAEAEA" transform="matrix(1.00, 0.00, -0.00, -1.00, 118.0, 232.0)">o</text><text xml:space="preserve" font-family="HelveticaNeue-Medium" font-size="34.0" fill="#EAEAEA" transform="matrix(1.00, 0.00, -0.00, -1.00, 138.2, 232.0)"> </text><text xml:space="preserve" font-family="HelveticaNeue-Medium" font-size="34.0" fill="#EAEAEA" transform="matrix(1.00, 0.00, -0.00, -1.00, 147.6, 232.0)">w</text><text xml:space="preserve" font-family="HelveticaNeue-Medium" font-size="34.0" fill="#EAEAEA" transform="matrix(1.00, 0.00, -0.00, -1.00, 174.1, 232.0)">e</text><text xml:space="preserve" font-family="HelveticaNeue-Medium" font-size="34.0" fill="#EAEAEA" transform="matrix(1.00, 0.00, -0.00, -1.00, 193.0, 232.0)"> </text><text xml:space="preserve" font-family="HelveticaNeue-Medium" font-size="34.0" fill="#EAEAEA" transform="matrix(1.00, 0.00, -0.00, -1.00, 202.5, 232.0)">u</text><text xml:space="preserve" font-family="HelveticaNeue-Medium" font-size="34.0" fill="#EAEAEA" transform="matrix(1.00, 0.00, -0.00, -1.00, 222.0, 232.0)">s</text><text xml:space="preserve" font-family="HelveticaNeue-Medium" font-size="34.0" fill="#EAEAEA" transform="matrix(1.00, 0.00, -0.00, -1.00, 239.6, 232.0)">e</text><text xml:space="preserve" font-family="HelveticaNeue-Medium" font-size="34.0" fill="#EAEAEA" transform="matrix(1.00, 0.00, -0.00, -1.00, 258.5, 232.0)"> </text><image xlink:href="8CC304E16166CF0A028193853D6502F0.png" width="120.00" height="37.00" transform="matrix(1.00, 0.00, -0.00, -1.00, 268.0, 258.0)"></image><text xml:space="preserve" font-family="AndaleMono" font-size="34.0" fill="#EAEAEA" transform="matrix(1.00, 0.00, -0.00, -1.00, 268.0, 232.0)">l</text><text xml:space="preserve" font-family="AndaleMono" font-size="34.0" fill="#EAEAEA" transform="matrix(1.00, 0.00, -0.00, -1.00, 288.4, 232.0)">i</text><text xml:space="preserve" font-family="AndaleMono" font-size="34.0" fill="#EAEAEA" transform="matrix(1.00, 0.00, -0.00, -1.00, 308.8, 232.0)">s</text><text xml:space="preserve" font-family="AndaleMono" font-size="34.0" fill="#EAEAEA" transform="matrix(1.00, 0.00, -0.00, -1.00, 329.2, 232.0)">t</text><text xml:space="preserve" font-family="AndaleMono" font-size="34.0" fill="#EAEAEA" transform="matrix(1.00, 0.00, -0.00, -1.00, 349.6, 232.0)">(</text><text xml:space="preserve" font-family="AndaleMono" font-size="34.0" fill="#EAEAEA" transform="matrix(1.00, 0.00, -0.00, -1.00, 370.0, 232.0)">)</text><image xlink:href="0147AAA2B1E7929099A1173BA7019D64.png" width="292.00" height="34.00" transform="matrix(1.00, 0.00, -0.00, -1.00, 396.0, 259.0)"></image><text xml:space="preserve" font-family="Helvetica" font-size="34.0" fill="#EAEAEA" transform="matrix(1.00, 0.00, -0.00, -1.00, 390.4, 232.0)"> </text><text xml:space="preserve" font-family="Helvetica" font-size="34.0" fill="#EAEAEA" transform="matrix(1.00, 0.00, -0.00, -1.00, 399.8, 232.0)">t</text><text xml:space="preserve" font-family="Helvetica" font-size="34.0" fill="#EAEAEA" transform="matrix(1.00, 0.00, -0.00, -1.00, 409.3, 232.0)">o</text><text xml:space="preserve" font-family="Helvetica" font-size="34.0" fill="#EAEAEA" transform="matrix(1.00, 0.00, -0.00, -1.00, 428.2, 232.0)"> </text><text xml:space="preserve" font-family="Helvetica" font-size="34.0" fill="#EAEAEA" transform="matrix(1.00, 0.00, -0.00, -1.00, 437.6, 232.0)">c</text><text xml:space="preserve" font-family="Helvetica" font-size="34.0" fill="#EAEAEA" transform="matrix(1.00, 0.00, -0.00, -1.00, 454.6, 232.0)">o</text><text xml:space="preserve" font-family="Helvetica" font-size="34.0" fill="#EAEAEA" transform="matrix(1.00, 0.00, -0.00, -1.00, 473.5, 232.0)">n</text><text xml:space="preserve" font-family="Helvetica" font-size="34.0" fill="#EAEAEA" transform="matrix(1.00, 0.00, -0.00, -1.00, 492.5, 232.0)">s</text><text xml:space="preserve" font-family="Helvetica" font-size="34.0" fill="#EAEAEA" transform="matrix(1.00, 0.00, -0.00, -1.00, 509.5, 232.0)">u</text><text xml:space="preserve" font-family="Helvetica" font-size="34.0" fill="#EAEAEA" transform="matrix(1.00, 0.00, -0.00, -1.00, 528.4, 232.0)">m</text><text xml:space="preserve" font-family="Helvetica" font-size="34.0" fill="#EAEAEA" transform="matrix(1.00, 0.00, -0.00, -1.00, 556.7, 232.0)">e</text><text xml:space="preserve" font-family="Helvetica" font-size="34.0" fill="#EAEAEA" transform="matrix(1.00, 0.00, -0.00, -1.00, 575.6, 232.0)"> </text><text xml:space="preserve" font-family="Helvetica" font-size="34.0" fill="#EAEAEA" transform="matrix(1.00, 0.00, -0.00, -1.00, 585.1, 232.0)">r</text><text xml:space="preserve" font-family="Helvetica" font-size="34.0" fill="#EAEAEA" transform="matrix(1.00, 0.00, -0.00, -1.00, 596.4, 232.0)">e</text><text xml:space="preserve" font-family="Helvetica" font-size="34.0" fill="#EAEAEA" transform="matrix(1.00, 0.00, -0.00, -1.00, 615.3, 232.0)">s</text><text xml:space="preserve" font-family="Helvetica" font-size="34.0" fill="#EAEAEA" transform="matrix(1.00, 0.00, -0.00, -1.00, 632.3, 232.0)">u</text><text xml:space="preserve" font-family="Helvetica" font-size="34.0" fill="#EAEAEA" transform="matrix(1.00, 0.00, -0.00, -1.00, 651.2, 232.0)">l</text><text xml:space="preserve" font-family="Helvetica" font-size="34.0" fill="#EAEAEA" transform="matrix(1.00, 0.00, -0.00, -1.00, 658.8, 232.0)">t</text><text xml:space="preserve" font-family="Helvetica" font-size="34.0" fill="#EAEAEA" transform="matrix(1.00, 0.00, -0.00, -1.00, 668.2, 232.0)">s</text><text xml:space="preserve" font-family="HelveticaNeue-Medium" font-size="34.0" fill="#EAEAEA" transform="matrix(1.00, 0.00, -0.00, -1.00, 685.2, 232.0)"> </text><image xlink:href="../../563C19A5-495A-4970-BAE7-18AFBB3F6339/assets/6D4EE4046A27DF0D1D880BD2F94EF520.png" width="18.00" height="18.00" transform="matrix(1.00, 0.00, -0.00, -1.00, 93.0, 167.0)"></image><text xml:space="preserve" font-family="HelveticaNeue-Medium" font-size="25.5" fill="#EAEAEA" transform="matrix(1.00, 0.00, -0.00, -1.00, 96.0, 150.9)">•</text><image xlink:href="3D7C8D5F3B9D9FC438726778E7BDABC5.png" width="113.00" height="34.00" transform="matrix(1.00, 0.00, -0.00, -1.00, 126.0, 175.0)"></image><text xml:space="preserve" font-family="HelveticaNeue-Medium" font-size="34.0" fill="#EAEAEA" transform="matrix(1.00, 0.00, -0.00, -1.00, 128.0, 148.0)">F</text><text xml:space="preserve" font-family="HelveticaNeue-Medium" font-size="34.0" fill="#EAEAEA" transform="matrix(1.00, 0.00, -0.00, -1.00, 148.2, 148.0)">o</text><text xml:space="preserve" font-family="HelveticaNeue-Medium" font-size="34.0" fill="#EAEAEA" transform="matrix(1.00, 0.00, -0.00, -1.00, 168.3, 148.0)">r</text><text xml:space="preserve" font-family="HelveticaNeue-Medium" font-size="34.0" fill="#EAEAEA" transform="matrix(1.00, 0.00, -0.00, -1.00, 179.7, 148.0)">c</text><text xml:space="preserve" font-family="HelveticaNeue-Medium" font-size="34.0" fill="#EAEAEA" transform="matrix(1.00, 0.00, -0.00, -1.00, 198.6, 148.0)">e</text><text xml:space="preserve" font-family="HelveticaNeue-Medium" font-size="34.0" fill="#EAEAEA" transform="matrix(1.00, 0.00, -0.00, -1.00, 217.5, 148.0)">s</text><text xml:space="preserve" font-family="HelveticaNeue-Medium" font-size="34.0" fill="#EAEAEA" transform="matrix(1.00, 0.00, -0.00, -1.00, 235.1, 148.0)"> </text><image xlink:href="CC7EADABB64446A2BE991859CAA4C2C6.png" width="102.00" height="39.00" transform="matrix(1.00, 0.00, -0.00, -1.00, 242.0, 174.0)"></image><text xml:space="preserve" font-family="AndaleMono" font-size="34.0" fill="#EAEAEA" transform="matrix(1.00, 0.00, -0.00, -1.00, 244.6, 148.0)">m</text><text xml:space="preserve" font-family="AndaleMono" font-size="34.0" fill="#EAEAEA" transform="matrix(1.00, 0.00, -0.00, -1.00, 265.0, 148.0)">a</text><text xml:space="preserve" font-family="AndaleMono" font-size="34.0" fill="#EAEAEA" transform="matrix(1.00, 0.00, -0.00, -1.00, 285.4, 148.0)">p</text><text xml:space="preserve" font-family="AndaleMono" font-size="34.0" fill="#EAEAEA" transform="matrix(1.00, 0.00, -0.00, -1.00, 305.8, 148.0)">(</text><text xml:space="preserve" font-family="AndaleMono" font-size="34.0" fill="#EAEAEA" transform="matrix(1.00, 0.00, -0.00, -1.00, 326.2, 148.0)">)</text><image xlink:href="11BC5243EFF0CDF8A26470346EF8B486.png" width="50.00" height="40.00" transform="matrix(1.00, 0.00, -0.00, -1.00, 353.0, 175.0)"></image><text xml:space="preserve" font-family="HelveticaNeue-Medium" font-size="34.0" fill="#EAEAEA" transform="matrix(1.00, 0.00, -0.00, -1.00, 346.6, 148.0)"> </text><text xml:space="preserve" font-family="HelveticaNeue-Medium" font-size="34.0" fill="#EAEAEA" transform="matrix(1.00, 0.00, -0.00, -1.00, 356.1, 148.0)">(</text><text xml:space="preserve" font-family="HelveticaNeue-Medium" font-size="34.0" fill="#EAEAEA" transform="matrix(1.00, 0.00, -0.00, -1.00, 365.5, 148.0)">o</text><text xml:space="preserve" font-family="HelveticaNeue-Medium" font-size="34.0" fill="#EAEAEA" transform="matrix(1.00, 0.00, -0.00, -1.00, 385.7, 148.0)">r</text><text xml:space="preserve" font-family="HelveticaNeue-Medium" font-size="34.0" fill="#EAEAEA" transform="matrix(1.00, 0.00, -0.00, -1.00, 397.6, 148.0)"> </text><image xlink:href="6A66CEC170B16DD909D99CD4705411D6.png" width="161.00" height="37.00" transform="matrix(1.00, 0.00, -0.00, -1.00, 406.0, 174.0)"></image><text xml:space="preserve" font-family="AndaleMono" font-size="34.0" fill="#EAEAEA" transform="matrix(1.00, 0.00, -0.00, -1.00, 407.1, 148.0)">f</text><text xml:space="preserve" font-family="AndaleMono" font-size="34.0" fill="#EAEAEA" transform="matrix(1.00, 0.00, -0.00, -1.00, 427.5, 148.0)">i</text><text xml:space="preserve" font-family="AndaleMono" font-size="34.0" fill="#EAEAEA" transform="matrix(1.00, 0.00, -0.00, -1.00, 447.9, 148.0)">l</text><text xml:space="preserve" font-family="AndaleMono" font-size="34.0" fill="#EAEAEA" transform="matrix(1.00, 0.00, -0.00, -1.00, 468.3, 148.0)">t</text><text xml:space="preserve" font-family="AndaleMono" font-size="34.0" fill="#EAEAEA" transform="matrix(1.00, 0.00, -0.00, -1.00, 488.7, 148.0)">e</text><text xml:space="preserve" font-family="AndaleMono" font-size="34.0" fill="#EAEAEA" transform="matrix(1.00, 0.00, -0.00, -1.00, 509.1, 148.0)">r</text><text xml:space="preserve" font-family="AndaleMono" font-size="34.0" fill="#EAEAEA" transform="matrix(1.00, 0.00, -0.00, -1.00, 529.5, 148.0)">(</text><text xml:space="preserve" font-family="AndaleMono" font-size="34.0" fill="#EAEAEA" transform="matrix(1.00, 0.00, -0.00, -1.00, 549.9, 148.0)">)</text><image xlink:href="4CC536AA64BB1F3268E956DBA6F7F311.png" width="350.00" height="40.00" transform="matrix(1.00, 0.00, -0.00, -1.00, 566.0, 175.0)"></image><text xml:space="preserve" font-family="HelveticaNeue-Medium" font-size="34.0" fill="#EAEAEA" transform="matrix(1.00, 0.00, -0.00, -1.00, 570.3, 148.0)">)</text><text xml:space="preserve" font-family="HelveticaNeue-Medium" font-size="34.0" fill="#EAEAEA" transform="matrix(1.00, 0.00, -0.00, -1.00, 579.8, 148.0)"> </text><text xml:space="preserve" font-family="HelveticaNeue-Medium" font-size="34.0" fill="#EAEAEA" transform="matrix(1.00, 0.00, -0.00, -1.00, 589.2, 148.0)">t</text><text xml:space="preserve" font-family="HelveticaNeue-Medium" font-size="34.0" fill="#EAEAEA" transform="matrix(1.00, 0.00, -0.00, -1.00, 600.5, 148.0)">o</text><text xml:space="preserve" font-family="HelveticaNeue-Medium" font-size="34.0" fill="#EAEAEA" transform="matrix(1.00, 0.00, -0.00, -1.00, 620.7, 148.0)"> </text><text xml:space="preserve" font-family="HelveticaNeue-Medium" font-size="34.0" fill="#EAEAEA" transform="matrix(1.00, 0.00, -0.00, -1.00, 630.2, 148.0)">a</text><text xml:space="preserve" font-family="HelveticaNeue-Medium" font-size="34.0" fill="#EAEAEA" transform="matrix(1.00, 0.00, -0.00, -1.00, 649.1, 148.0)">c</text><text xml:space="preserve" font-family="HelveticaNeue-Medium" font-size="34.0" fill="#EAEAEA" transform="matrix(1.00, 0.00, -0.00, -1.00, 668.0, 148.0)">t</text><text xml:space="preserve" font-family="HelveticaNeue-Medium" font-size="34.0" fill="#EAEAEA" transform="matrix(1.00, 0.00, -0.00, -1.00, 679.3, 148.0)">u</text><text xml:space="preserve" font-family="HelveticaNeue-Medium" font-size="34.0" fill="#EAEAEA" transform="matrix(1.00, 0.00, -0.00, -1.00, 698.8, 148.0)">a</text><text xml:space="preserve" font-family="HelveticaNeue-Medium" font-size="34.0" fill="#EAEAEA" transform="matrix(1.00, 0.00, -0.00, -1.00, 717.7, 148.0)">l</text><text xml:space="preserve" font-family="HelveticaNeue-Medium" font-size="34.0" fill="#EAEAEA" transform="matrix(1.00, 0.00, -0.00, -1.00, 725.9, 148.0)">l</text><text xml:space="preserve" font-family="HelveticaNeue-Medium" font-size="34.0" fill="#EAEAEA" transform="matrix(1.00, 0.00, -0.00, -1.00, 734.1, 148.0)">y</text><text xml:space="preserve" font-family="HelveticaNeue-Medium" font-size="34.0" fill="#EAEAEA" transform="matrix(1.00, 0.00, -0.00, -1.00, 751.7, 148.0)"> </text><text xml:space="preserve" font-family="HelveticaNeue-Medium" font-size="34.0" fill="#EAEAEA" transform="matrix(1.00, 0.00, -0.00, -1.00, 761.2, 148.0)">g</text><text xml:space="preserve" font-family="HelveticaNeue-Medium" font-size="34.0" fill="#EAEAEA" transform="matrix(1.00, 0.00, -0.00, -1.00, 781.4, 148.0)">e</text><text xml:space="preserve" font-family="HelveticaNeue-Medium" font-size="34.0" fill="#EAEAEA" transform="matrix(1.00, 0.00, -0.00, -1.00, 800.3, 148.0)">t</text><text xml:space="preserve" font-family="HelveticaNeue-Medium" font-size="34.0" fill="#EAEAEA" transform="matrix(1.00, 0.00, -0.00, -1.00, 811.6, 148.0)"> </text><text xml:space="preserve" font-family="HelveticaNeue-Medium" font-size="34.0" fill="#EAEAEA" transform="matrix(1.00, 0.00, -0.00, -1.00, 821.0, 148.0)">u</text><text xml:space="preserve" font-family="HelveticaNeue-Medium" font-size="34.0" fill="#EAEAEA" transform="matrix(1.00, 0.00, -0.00, -1.00, 840.5, 148.0)">p</text><text xml:space="preserve" font-family="HelveticaNeue-Medium" font-size="34.0" fill="#EAEAEA" transform="matrix(1.00, 0.00, -0.00, -1.00, 861.3, 148.0)"> </text><text xml:space="preserve" font-family="HelveticaNeue-Medium" font-size="34.0" fill="#EAEAEA" transform="matrix(1.00, 0.00, -0.00, -1.00, 870.8, 148.0)">o</text><text xml:space="preserve" font-family="HelveticaNeue-Medium" font-size="34.0" fill="#EAEAEA" transform="matrix(1.00, 0.00, -0.00, -1.00, 890.9, 148.0)">f</text><text xml:space="preserve" font-family="HelveticaNeue-Medium" font-size="34.0" fill="#EAEAEA" transform="matrix(1.00, 0.00, -0.00, -1.00, 901.0, 148.0)">f</text><text xml:space="preserve" font-family="HelveticaNeue-Medium" font-size="34.0" fill="#EAEAEA" transform="matrix(1.00, 0.00, -0.00, -1.00, 911.7, 148.0)"> </text><image xlink:href="B77B31B110B3370FBF8D0720637C2ECC.png" width="555.00" height="40.00" transform="matrix(1.00, 0.00, -0.00, -1.00, 124.0, 134.0)"></image><text xml:space="preserve" font-family="HelveticaNeue-Medium" font-size="34.0" fill="#EAEAEA" transform="matrix(1.00, 0.00, -0.00, -1.00, 128.0, 107.0)">t</text><text xml:space="preserve" font-family="HelveticaNeue-Medium" font-size="34.0" fill="#EAEAEA" transform="matrix(1.00, 0.00, -0.00, -1.00, 139.3, 107.0)">h</text><text xml:space="preserve" font-family="HelveticaNeue-Medium" font-size="34.0" fill="#EAEAEA" transform="matrix(1.00, 0.00, -0.00, -1.00, 158.8, 107.0)">e</text><text xml:space="preserve" font-family="HelveticaNeue-Medium" font-size="34.0" fill="#EAEAEA" transform="matrix(1.00, 0.00, -0.00, -1.00, 177.7, 107.0)"> </text><text xml:space="preserve" font-family="HelveticaNeue-Medium" font-size="34.0" fill="#EAEAEA" transform="matrix(1.00, 0.00, -0.00, -1.00, 187.2, 107.0)">c</text><text xml:space="preserve" font-family="HelveticaNeue-Medium" font-size="34.0" fill="#EAEAEA" transform="matrix(1.00, 0.00, -0.00, -1.00, 206.1, 107.0)">o</text><text xml:space="preserve" font-family="HelveticaNeue-Medium" font-size="34.0" fill="#EAEAEA" transform="matrix(1.00, 0.00, -0.00, -1.00, 226.3, 107.0)">u</text><text xml:space="preserve" font-family="HelveticaNeue-Medium" font-size="34.0" fill="#EAEAEA" transform="matrix(1.00, 0.00, -0.00, -1.00, 245.8, 107.0)">c</text><text xml:space="preserve" font-family="HelveticaNeue-Medium" font-size="34.0" fill="#EAEAEA" transform="matrix(1.00, 0.00, -0.00, -1.00, 264.7, 107.0)">h</text><text xml:space="preserve" font-family="HelveticaNeue-Medium" font-size="34.0" fill="#EAEAEA" transform="matrix(1.00, 0.00, -0.00, -1.00, 284.2, 107.0)"> </text><text xml:space="preserve" font-family="HelveticaNeue-Medium" font-size="34.0" fill="#EAEAEA" transform="matrix(1.00, 0.00, -0.00, -1.00, 293.6, 107.0)">a</text><text xml:space="preserve" font-family="HelveticaNeue-Medium" font-size="34.0" fill="#EAEAEA" transform="matrix(1.00, 0.00, -0.00, -1.00, 312.6, 107.0)">n</text><text xml:space="preserve" font-family="HelveticaNeue-Medium" font-size="34.0" fill="#EAEAEA" transform="matrix(1.00, 0.00, -0.00, -1.00, 332.1, 107.0)">d</text><text xml:space="preserve" font-family="HelveticaNeue-Medium" font-size="34.0" fill="#EAEAEA" transform="matrix(1.00, 0.00, -0.00, -1.00, 352.8, 107.0)"> </text><text xml:space="preserve" font-family="HelveticaNeue-Medium" font-size="34.0" fill="#EAEAEA" transform="matrix(1.00, 0.00, -0.00, -1.00, 362.3, 107.0)">c</text><text xml:space="preserve" font-family="HelveticaNeue-Medium" font-size="34.0" fill="#EAEAEA" transform="matrix(1.00, 0.00, -0.00, -1.00, 381.2, 107.0)">o</text><text xml:space="preserve" font-family="HelveticaNeue-Medium" font-size="34.0" fill="#EAEAEA" transform="matrix(1.00, 0.00, -0.00, -1.00, 401.4, 107.0)">m</text><text xml:space="preserve" font-family="HelveticaNeue-Medium" font-size="34.0" fill="#EAEAEA" transform="matrix(1.00, 0.00, -0.00, -1.00, 430.9, 107.0)">p</text><text xml:space="preserve" font-family="HelveticaNeue-Medium" font-size="34.0" fill="#EAEAEA" transform="matrix(1.00, 0.00, -0.00, -1.00, 451.7, 107.0)">u</text><text xml:space="preserve" font-family="HelveticaNeue-Medium" font-size="34.0" fill="#EAEAEA" transform="matrix(1.00, 0.00, -0.00, -1.00, 471.2, 107.0)">t</text><text xml:space="preserve" font-family="HelveticaNeue-Medium" font-size="34.0" fill="#EAEAEA" transform="matrix(1.00, 0.00, -0.00, -1.00, 482.6, 107.0)">e</text><text xml:space="preserve" font-family="HelveticaNeue-Medium" font-size="34.0" fill="#EAEAEA" transform="matrix(1.00, 0.00, -0.00, -1.00, 501.5, 107.0)"> </text><text xml:space="preserve" font-family="HelveticaNeue-Medium" font-size="34.0" fill="#EAEAEA" transform="matrix(1.00, 0.00, -0.00, -1.00, 510.9, 107.0)">s</text><text xml:space="preserve" font-family="HelveticaNeue-Medium" font-size="34.0" fill="#EAEAEA" transform="matrix(1.00, 0.00, -0.00, -1.00, 528.6, 107.0)">o</text><text xml:space="preserve" font-family="HelveticaNeue-Medium" font-size="34.0" fill="#EAEAEA" transform="matrix(1.00, 0.00, -0.00, -1.00, 548.7, 107.0)">m</text><text xml:space="preserve" font-family="HelveticaNeue-Medium" font-size="34.0" fill="#EAEAEA" transform="matrix(1.00, 0.00, -0.00, -1.00, 578.3, 107.0)">e</text><text xml:space="preserve" font-family="HelveticaNeue-Medium" font-size="34.0" fill="#EAEAEA" transform="matrix(1.00, 0.00, -0.00, -1.00, 597.2, 107.0)">t</text><text xml:space="preserve" font-family="HelveticaNeue-Medium" font-size="34.0" fill="#EAEAEA" transform="matrix(1.00, 0.00, -0.00, -1.00, 608.5, 107.0)">h</text><text xml:space="preserve" font-family="HelveticaNeue-Medium" font-size="34.0" fill="#EAEAEA" transform="matrix(1.00, 0.00, -0.00, -1.00, 628.0, 107.0)">i</text><text xml:space="preserve" font-family="HelveticaNeue-Medium" font-size="34.0" fill="#EAEAEA" transform="matrix(1.00, 0.00, -0.00, -1.00, 636.2, 107.0)">n</text><text xml:space="preserve" font-family="HelveticaNeue-Medium" font-size="34.0" fill="#EAEAEA" transform="matrix(1.00, 0.00, -0.00, -1.00, 655.7, 107.0)">g</text></g></svg>