<?xml version="1.0" encoding="UTF-8" standalone="no"?><svg xmlns="http://www.w3.org/2000/svg" xmlns:xlink="http://www.w3.org/1999/xlink" clip-rule="evenodd" stroke-miterlimit="4.00" viewBox="0 0 1024 768"><desc>SVG generated by Keynote</desc><defs></defs><g transform="matrix(1.00, 0.00, -0.00, -1.00, 0.0, 768.0)"><g><clipPath id="clip-163"><path d="M 0.0 768.0 L 1024.0 768.0 L 1024.0 0.0 L 0.0 0.0 Z M 0.0 768.0 "></path></clipPath><g clip-path="url(#clip-163)"><image xlink:href="../../363ACDF5-F69A-4348-A617-267FC1DCB792/assets/2CA05975C404A6B79EB2D17D5C3EEC1C.jpeg" width="1024.00" height="768.00" transform="matrix(1.00, 0.00, -0.00, -1.00, 0.0, 768.0)"></image></g></g><image xlink:href="../../D187B817-9F53-4F12-B043-AE91B6263576/assets/19134AE79A1BA930A29F64DD76AFD3C8.png" width="890.00" height="508.00" transform="matrix(1.00, 0.00, -0.00, -1.00, 67.0, 718.2)" opacity="0.70"></image><g><clipPath id="clip-164"><path d="M 87.0 708.0 L 937.0 708.0 L 937.0 240.0 L 87.0 240.0 Z M 87.0 708.2 "></path></clipPath><g clip-path="url(#clip-164)"><image xlink:href="10E7D32EA05FE7C01133517ADD2FE214.jpeg" width="850.00" height="477.00" transform="matrix(1.00, 0.00, -0.00, -1.00, 87.0, 713.0)"></image></g></g><image xlink:href="22B129084497314F1D12DD2718238B07.png" width="285.00" height="55.00" transform="matrix(1.00, 0.00, -0.00, -1.00, 371.0, 207.0)"></image><text xml:space="preserve" font-family="HelveticaNeue-Bold" font-weight="bold" font-size="64.0" fill="#FEFFFE" transform="matrix(1.00, 0.00, -0.00, -1.00, 371.0, 159.0)">L</text><text xml:space="preserve" font-family="HelveticaNeue-Bold" font-weight="bold" font-size="64.0" fill="#FEFFFE" transform="matrix(1.00, 0.00, -0.00, -1.00, 409.0, 159.0)">a</text><text xml:space="preserve" font-family="HelveticaNeue-Bold" font-weight="bold" font-size="64.0" fill="#FEFFFE" transform="matrix(1.00, 0.00, -0.00, -1.00, 445.7, 159.0)">m</text><text xml:space="preserve" font-family="HelveticaNeue-Bold" font-weight="bold" font-size="64.0" fill="#FEFFFE" transform="matrix(1.00, 0.00, -0.00, -1.00, 503.7, 159.0)">b</text><text xml:space="preserve" font-family="HelveticaNeue-Bold" font-weight="bold" font-size="64.0" fill="#FEFFFE" transform="matrix(1.00, 0.00, -0.00, -1.00, 542.8, 159.0)">d</text><text xml:space="preserve" font-family="HelveticaNeue-Bold" font-weight="bold" font-size="64.0" fill="#FEFFFE" transform="matrix(1.00, 0.00, -0.00, -1.00, 581.9, 159.0)">a</text><text xml:space="preserve" font-family="HelveticaNeue-Bold" font-weight="bold" font-size="64.0" fill="#FEFFFE" transform="matrix(1.00, 0.00, -0.00, -1.00, 618.6, 159.0)">s</text><image xlink:href="EED13F0C1F7524F0F50F7F202148E2B6.png" width="127.00" height="31.00" transform="matrix(1.00, 0.00, -0.00, -1.00, 448.0, 121.0)"></image><text xml:space="preserve" font-family="HelveticaNeue-Medium" font-size="24.0" fill="#FEFFFE" transform="matrix(1.00, 0.00, -0.00, -1.00, 453.0, 101.0)">A</text><text xml:space="preserve" font-family="HelveticaNeue-Medium" font-size="24.0" fill="#FEFFFE" transform="matrix(1.00, 0.00, -0.00, -1.00, 469.0, 101.0)">n</text><text xml:space="preserve" font-family="HelveticaNeue-Medium" font-size="24.0" fill="#FEFFFE" transform="matrix(1.00, 0.00, -0.00, -1.00, 482.8, 101.0)">o</text><text xml:space="preserve" font-family="HelveticaNeue-Medium" font-size="24.0" fill="#FEFFFE" transform="matrix(1.00, 0.00, -0.00, -1.00, 497.0, 101.0)">n</text><text xml:space="preserve" font-family="HelveticaNeue-Medium" font-size="24.0" fill="#FEFFFE" transform="matrix(1.00, 0.00, -0.00, -1.00, 510.8, 101.0)">y</text><text xml:space="preserve" font-family="HelveticaNeue-Medium" font-size="24.0" fill="#FEFFFE" transform="matrix(1.00, 0.00, -0.00, -1.00, 523.2, 101.0)">m</text><text xml:space="preserve" font-family="HelveticaNeue-Medium" font-size="24.0" fill="#FEFFFE" transform="matrix(1.00, 0.00, -0.00, -1.00, 544.1, 101.0)">i</text><text xml:space="preserve" font-family="HelveticaNeue-Medium" font-size="24.0" fill="#FEFFFE" transform="matrix(1.00, 0.00, -0.00, -1.00, 549.9, 101.0)">t</text><text xml:space="preserve" font-family="HelveticaNeue-Medium" font-size="24.0" fill="#FEFFFE" transform="matrix(1.00, 0.00, -0.00, -1.00, 557.9, 101.0)">y</text></g></svg>