<?xml version="1.0" encoding="UTF-8" standalone="no"?><svg xmlns="http://www.w3.org/2000/svg" xmlns:xlink="http://www.w3.org/1999/xlink" clip-rule="evenodd" stroke-miterlimit="4.00" viewBox="0 0 1024 768"><desc>SVG generated by Keynote</desc><defs></defs><g transform="matrix(1.00, 0.00, -0.00, -1.00, 0.0, 768.0)"><g><clipPath id="clip-18"><path d="M 0.0 768.0 L 1024.0 768.0 L 1024.0 0.0 L 0.0 0.0 Z M 0.0 768.0 "></path></clipPath><g clip-path="url(#clip-18)"><image xlink:href="../../363ACDF5-F69A-4348-A617-267FC1DCB792/assets/2CA05975C404A6B79EB2D17D5C3EEC1C.jpeg" width="1024.00" height="768.00" transform="matrix(1.00, 0.00, -0.00, -1.00, 0.0, 768.0)"></image></g></g><image xlink:href="../../79777EA1-362B-4C9D-8128-4DD53D00BBEA/assets/C7F6BBEC2046C4A77CCD7962E397BC22.png" width="701.00" height="55.00" transform="matrix(1.00, 0.00, -0.00, -1.00, 162.0, 731.0)"></image><text xml:space="preserve" font-family="HelveticaNeue-Bold" font-weight="bold" font-size="64.0" fill="#FEFFFE" transform="matrix(1.00, 0.00, -0.00, -1.00, 162.0, 683.0)">M</text><text xml:space="preserve" font-family="HelveticaNeue-Bold" font-weight="bold" font-size="64.0" fill="#FEFFFE" transform="matrix(1.00, 0.00, -0.00, -1.00, 220.0, 683.0)">a</text><text xml:space="preserve" font-family="HelveticaNeue-Bold" font-weight="bold" font-size="64.0" fill="#FEFFFE" transform="matrix(1.00, 0.00, -0.00, -1.00, 256.8, 683.0)">t</text><text xml:space="preserve" font-family="HelveticaNeue-Bold" font-weight="bold" font-size="64.0" fill="#FEFFFE" transform="matrix(1.00, 0.00, -0.00, -1.00, 279.3, 683.0)">h</text><text xml:space="preserve" font-family="HelveticaNeue-Bold" font-weight="bold" font-size="64.0" fill="#FEFFFE" transform="matrix(1.00, 0.00, -0.00, -1.00, 317.3, 683.0)">e</text><text xml:space="preserve" font-family="HelveticaNeue-Bold" font-weight="bold" font-size="64.0" fill="#FEFFFE" transform="matrix(1.00, 0.00, -0.00, -1.00, 354.0, 683.0)">m</text><text xml:space="preserve" font-family="HelveticaNeue-Bold" font-weight="bold" font-size="64.0" fill="#FEFFFE" transform="matrix(1.00, 0.00, -0.00, -1.00, 412.0, 683.0)">a</text><text xml:space="preserve" font-family="HelveticaNeue-Bold" font-weight="bold" font-size="64.0" fill="#FEFFFE" transform="matrix(1.00, 0.00, -0.00, -1.00, 448.7, 683.0)">t</text><text xml:space="preserve" font-family="HelveticaNeue-Bold" font-weight="bold" font-size="64.0" fill="#FEFFFE" transform="matrix(1.00, 0.00, -0.00, -1.00, 471.2, 683.0)">i</text><text xml:space="preserve" font-family="HelveticaNeue-Bold" font-weight="bold" font-size="64.0" fill="#FEFFFE" transform="matrix(1.00, 0.00, -0.00, -1.00, 487.8, 683.0)">c</text><text xml:space="preserve" font-family="HelveticaNeue-Bold" font-weight="bold" font-size="64.0" fill="#FEFFFE" transform="matrix(1.00, 0.00, -0.00, -1.00, 524.5, 683.0)">a</text><text xml:space="preserve" font-family="HelveticaNeue-Bold" font-weight="bold" font-size="64.0" fill="#FEFFFE" transform="matrix(1.00, 0.00, -0.00, -1.00, 561.2, 683.0)">l</text><text xml:space="preserve" font-family="HelveticaNeue-Bold" font-weight="bold" font-size="64.0" fill="#FEFFFE" transform="matrix(1.00, 0.00, -0.00, -1.00, 577.7, 683.0)"> </text><text xml:space="preserve" font-family="HelveticaNeue-Bold" font-weight="bold" font-size="64.0" fill="#FEFFFE" transform="matrix(1.00, 0.00, -0.00, -1.00, 595.5, 683.0)">F</text><text xml:space="preserve" font-family="HelveticaNeue-Bold" font-weight="bold" font-size="64.0" fill="#FEFFFE" transform="matrix(1.00, 0.00, -0.00, -1.00, 633.5, 683.0)">u</text><text xml:space="preserve" font-family="HelveticaNeue-Bold" font-weight="bold" font-size="64.0" fill="#FEFFFE" transform="matrix(1.00, 0.00, -0.00, -1.00, 671.4, 683.0)">n</text><text xml:space="preserve" font-family="HelveticaNeue-Bold" font-weight="bold" font-size="64.0" fill="#FEFFFE" transform="matrix(1.00, 0.00, -0.00, -1.00, 709.4, 683.0)">c</text><text xml:space="preserve" font-family="HelveticaNeue-Bold" font-weight="bold" font-size="64.0" fill="#FEFFFE" transform="matrix(1.00, 0.00, -0.00, -1.00, 746.1, 683.0)">t</text><text xml:space="preserve" font-family="HelveticaNeue-Bold" font-weight="bold" font-size="64.0" fill="#FEFFFE" transform="matrix(1.00, 0.00, -0.00, -1.00, 768.7, 683.0)">i</text><text xml:space="preserve" font-family="HelveticaNeue-Bold" font-weight="bold" font-size="64.0" fill="#FEFFFE" transform="matrix(1.00, 0.00, -0.00, -1.00, 785.2, 683.0)">o</text><text xml:space="preserve" font-family="HelveticaNeue-Bold" font-weight="bold" font-size="64.0" fill="#FEFFFE" transform="matrix(1.00, 0.00, -0.00, -1.00, 824.3, 683.0)">n</text><text xml:space="preserve" font-family="HelveticaNeue-Bold" font-weight="bold" font-size="64.0" fill="#FEFFFE" transform="matrix(1.00, 0.00, -0.00, -1.00, 862.2, 683.0)"> </text><image xlink:href="../../79777EA1-362B-4C9D-8128-4DD53D00BBEA/assets/5B430EE88C278224D414D2982CE3746A.png" width="269.00" height="55.00" transform="matrix(1.00, 0.00, -0.00, -1.00, 379.0, 653.0)"></image><text xml:space="preserve" font-family="HelveticaNeue-Bold" font-weight="bold" font-size="64.0" fill="#FEFFFE" transform="matrix(1.00, 0.00, -0.00, -1.00, 379.0, 605.0)">F</text><text xml:space="preserve" font-family="HelveticaNeue-Bold" font-weight="bold" font-size="64.0" fill="#FEFFFE" transform="matrix(1.00, 0.00, -0.00, -1.00, 417.0, 605.0)">e</text><text xml:space="preserve" font-family="HelveticaNeue-Bold" font-weight="bold" font-size="64.0" fill="#FEFFFE" transform="matrix(1.00, 0.00, -0.00, -1.00, 453.7, 605.0)">a</text><text xml:space="preserve" font-family="HelveticaNeue-Bold" font-weight="bold" font-size="64.0" fill="#FEFFFE" transform="matrix(1.00, 0.00, -0.00, -1.00, 490.4, 605.0)">t</text><text xml:space="preserve" font-family="HelveticaNeue-Bold" font-weight="bold" font-size="64.0" fill="#FEFFFE" transform="matrix(1.00, 0.00, -0.00, -1.00, 513.0, 605.0)">u</text><text xml:space="preserve" font-family="HelveticaNeue-Bold" font-weight="bold" font-size="64.0" fill="#FEFFFE" transform="matrix(1.00, 0.00, -0.00, -1.00, 550.9, 605.0)">r</text><text xml:space="preserve" font-family="HelveticaNeue-Bold" font-weight="bold" font-size="64.0" fill="#FEFFFE" transform="matrix(1.00, 0.00, -0.00, -1.00, 574.6, 605.0)">e</text><text xml:space="preserve" font-family="HelveticaNeue-Bold" font-weight="bold" font-size="64.0" fill="#FEFFFE" transform="matrix(1.00, 0.00, -0.00, -1.00, 611.4, 605.0)">s</text><image xlink:href="../../D9433726-5947-428F-A554-7984E936C271/assets/22338A021207344BFFC0BA20AE086817.png" width="18.00" height="18.00" transform="matrix(1.00, 0.00, -0.00, -1.00, 61.0, 541.0)"></image><text xml:space="preserve" font-family="HelveticaNeue-Medium" font-size="25.5" fill="#EAEAEA" transform="matrix(1.00, 0.00, -0.00, -1.00, 64.0, 524.9)">•</text><image xlink:href="../../79777EA1-362B-4C9D-8128-4DD53D00BBEA/assets/9E77D8F61D9991CD7F1161B5981988CC.png" width="678.00" height="40.00" transform="matrix(1.00, 0.00, -0.00, -1.00, 94.0, 549.0)"></image><text xml:space="preserve" font-family="HelveticaNeue-Medium" font-size="34.0" fill="#EAEAEA" transform="matrix(1.00, 0.00, -0.00, -1.00, 96.0, 522.0)">N</text><text xml:space="preserve" font-family="HelveticaNeue-Medium" font-size="34.0" fill="#EAEAEA" transform="matrix(1.00, 0.00, -0.00, -1.00, 120.5, 522.0)">o</text><text xml:space="preserve" font-family="HelveticaNeue-Medium" font-size="34.0" fill="#EAEAEA" transform="matrix(1.00, 0.00, -0.00, -1.00, 140.7, 522.0)"> </text><text xml:space="preserve" font-family="HelveticaNeue-Medium" font-size="34.0" fill="#EAEAEA" transform="matrix(1.00, 0.00, -0.00, -1.00, 150.2, 522.0)">H</text><text xml:space="preserve" font-family="HelveticaNeue-Medium" font-size="34.0" fill="#EAEAEA" transform="matrix(1.00, 0.00, -0.00, -1.00, 174.7, 522.0)">y</text><text xml:space="preserve" font-family="HelveticaNeue-Medium" font-size="34.0" fill="#EAEAEA" transform="matrix(1.00, 0.00, -0.00, -1.00, 192.4, 522.0)">s</text><text xml:space="preserve" font-family="HelveticaNeue-Medium" font-size="34.0" fill="#EAEAEA" transform="matrix(1.00, 0.00, -0.00, -1.00, 210.0, 522.0)">t</text><text xml:space="preserve" font-family="HelveticaNeue-Medium" font-size="34.0" fill="#EAEAEA" transform="matrix(1.00, 0.00, -0.00, -1.00, 221.3, 522.0)">e</text><text xml:space="preserve" font-family="HelveticaNeue-Medium" font-size="34.0" fill="#EAEAEA" transform="matrix(1.00, 0.00, -0.00, -1.00, 240.2, 522.0)">r</text><text xml:space="preserve" font-family="HelveticaNeue-Medium" font-size="34.0" fill="#EAEAEA" transform="matrix(1.00, 0.00, -0.00, -1.00, 251.6, 522.0)">e</text><text xml:space="preserve" font-family="HelveticaNeue-Medium" font-size="34.0" fill="#EAEAEA" transform="matrix(1.00, 0.00, -0.00, -1.00, 270.5, 522.0)">s</text><text xml:space="preserve" font-family="HelveticaNeue-Medium" font-size="34.0" fill="#EAEAEA" transform="matrix(1.00, 0.00, -0.00, -1.00, 288.1, 522.0)">i</text><text xml:space="preserve" font-family="HelveticaNeue-Medium" font-size="34.0" fill="#EAEAEA" transform="matrix(1.00, 0.00, -0.00, -1.00, 296.3, 522.0)">s</text><text xml:space="preserve" font-family="HelveticaNeue-Medium" font-size="34.0" fill="#EAEAEA" transform="matrix(1.00, 0.00, -0.00, -1.00, 314.0, 522.0)"> </text><text xml:space="preserve" font-family="HelveticaNeue-Medium" font-size="34.0" fill="#EAEAEA" transform="matrix(1.00, 0.00, -0.00, -1.00, 323.4, 522.0)">—</text><text xml:space="preserve" font-family="HelveticaNeue-Medium" font-size="34.0" fill="#EAEAEA" transform="matrix(1.00, 0.00, -0.00, -1.00, 357.4, 522.0)"> </text><text xml:space="preserve" font-family="HelveticaNeue-Medium" font-size="34.0" fill="#EAEAEA" transform="matrix(1.00, 0.00, -0.00, -1.00, 366.9, 522.0)">N</text><text xml:space="preserve" font-family="HelveticaNeue-Medium" font-size="34.0" fill="#EAEAEA" transform="matrix(1.00, 0.00, -0.00, -1.00, 391.4, 522.0)">o</text><text xml:space="preserve" font-family="HelveticaNeue-Medium" font-size="34.0" fill="#EAEAEA" transform="matrix(1.00, 0.00, -0.00, -1.00, 411.6, 522.0)"> </text><text xml:space="preserve" font-family="HelveticaNeue-Medium" font-size="34.0" fill="#EAEAEA" transform="matrix(1.00, 0.00, -0.00, -1.00, 421.0, 522.0)">H</text><text xml:space="preserve" font-family="HelveticaNeue-Medium" font-size="34.0" fill="#EAEAEA" transform="matrix(1.00, 0.00, -0.00, -1.00, 445.6, 522.0)">i</text><text xml:space="preserve" font-family="HelveticaNeue-Medium" font-size="34.0" fill="#EAEAEA" transform="matrix(1.00, 0.00, -0.00, -1.00, 453.8, 522.0)">s</text><text xml:space="preserve" font-family="HelveticaNeue-Medium" font-size="34.0" fill="#EAEAEA" transform="matrix(1.00, 0.00, -0.00, -1.00, 471.4, 522.0)">t</text><text xml:space="preserve" font-family="HelveticaNeue-Medium" font-size="34.0" fill="#EAEAEA" transform="matrix(1.00, 0.00, -0.00, -1.00, 482.8, 522.0)">o</text><text xml:space="preserve" font-family="HelveticaNeue-Medium" font-size="34.0" fill="#EAEAEA" transform="matrix(1.00, 0.00, -0.00, -1.00, 502.9, 522.0)">r</text><text xml:space="preserve" font-family="HelveticaNeue-Medium" font-size="34.0" fill="#EAEAEA" transform="matrix(1.00, 0.00, -0.00, -1.00, 514.9, 522.0)">y</text><text xml:space="preserve" font-family="HelveticaNeue-Medium" font-size="34.0" fill="#EAEAEA" transform="matrix(1.00, 0.00, -0.00, -1.00, 532.5, 522.0)"> </text><text xml:space="preserve" font-family="HelveticaNeue-Medium" font-size="34.0" fill="#EAEAEA" transform="matrix(1.00, 0.00, -0.00, -1.00, 542.0, 522.0)">—</text><text xml:space="preserve" font-family="HelveticaNeue-Medium" font-size="34.0" fill="#EAEAEA" transform="matrix(1.00, 0.00, -0.00, -1.00, 576.0, 522.0)"> </text><text xml:space="preserve" font-family="HelveticaNeue-Medium" font-size="34.0" fill="#EAEAEA" transform="matrix(1.00, 0.00, -0.00, -1.00, 585.4, 522.0)">N</text><text xml:space="preserve" font-family="HelveticaNeue-Medium" font-size="34.0" fill="#EAEAEA" transform="matrix(1.00, 0.00, -0.00, -1.00, 610.0, 522.0)">o</text><text xml:space="preserve" font-family="HelveticaNeue-Medium" font-size="34.0" fill="#EAEAEA" transform="matrix(1.00, 0.00, -0.00, -1.00, 630.1, 522.0)"> </text><text xml:space="preserve" font-family="HelveticaNeue-Medium" font-size="34.0" fill="#EAEAEA" transform="matrix(1.00, 0.00, -0.00, -1.00, 639.6, 522.0)">M</text><text xml:space="preserve" font-family="HelveticaNeue-Medium" font-size="34.0" fill="#EAEAEA" transform="matrix(1.00, 0.00, -0.00, -1.00, 669.8, 522.0)">e</text><text xml:space="preserve" font-family="HelveticaNeue-Medium" font-size="34.0" fill="#EAEAEA" transform="matrix(1.00, 0.00, -0.00, -1.00, 688.7, 522.0)">m</text><text xml:space="preserve" font-family="HelveticaNeue-Medium" font-size="34.0" fill="#EAEAEA" transform="matrix(1.00, 0.00, -0.00, -1.00, 718.3, 522.0)">o</text><text xml:space="preserve" font-family="HelveticaNeue-Medium" font-size="34.0" fill="#EAEAEA" transform="matrix(1.00, 0.00, -0.00, -1.00, 738.5, 522.0)">r</text><text xml:space="preserve" font-family="HelveticaNeue-Medium" font-size="34.0" fill="#EAEAEA" transform="matrix(1.00, 0.00, -0.00, -1.00, 750.4, 522.0)">y</text><text xml:space="preserve" font-family="HelveticaNeue-Medium" font-size="34.0" fill="#EAEAEA" transform="matrix(1.00, 0.00, -0.00, -1.00, 768.1, 522.0)"> </text><image xlink:href="../../D9433726-5947-428F-A554-7984E936C271/assets/22338A021207344BFFC0BA20AE086817.png" width="18.00" height="18.00" transform="matrix(1.00, 0.00, -0.00, -1.00, 61.0, 458.0)"></image><text xml:space="preserve" font-family="HelveticaNeue-Medium" font-size="25.5" fill="#EAEAEA" transform="matrix(1.00, 0.00, -0.00, -1.00, 64.0, 441.9)">•</text><image xlink:href="../../79777EA1-362B-4C9D-8128-4DD53D00BBEA/assets/78D02330FCF4D8172421749900197A32.png" width="242.00" height="40.00" transform="matrix(1.00, 0.00, -0.00, -1.00, 94.0, 466.0)"></image><text xml:space="preserve" font-family="HelveticaNeue-Medium" font-size="34.0" fill="#EAEAEA" transform="matrix(1.00, 0.00, -0.00, -1.00, 96.0, 439.0)">“</text><text xml:space="preserve" font-family="HelveticaNeue-Medium" font-size="34.0" fill="#EAEAEA" transform="matrix(1.00, 0.00, -0.00, -1.00, 111.1, 439.0)">I</text><text xml:space="preserve" font-family="HelveticaNeue-Medium" font-size="34.0" fill="#EAEAEA" transform="matrix(1.00, 0.00, -0.00, -1.00, 120.5, 439.0)">d</text><text xml:space="preserve" font-family="HelveticaNeue-Medium" font-size="34.0" fill="#EAEAEA" transform="matrix(1.00, 0.00, -0.00, -1.00, 141.3, 439.0)">e</text><text xml:space="preserve" font-family="HelveticaNeue-Medium" font-size="34.0" fill="#EAEAEA" transform="matrix(1.00, 0.00, -0.00, -1.00, 160.2, 439.0)">m</text><text xml:space="preserve" font-family="HelveticaNeue-Medium" font-size="34.0" fill="#EAEAEA" transform="matrix(1.00, 0.00, -0.00, -1.00, 189.8, 439.0)">p</text><text xml:space="preserve" font-family="HelveticaNeue-Medium" font-size="34.0" fill="#EAEAEA" transform="matrix(1.00, 0.00, -0.00, -1.00, 210.6, 439.0)">o</text><text xml:space="preserve" font-family="HelveticaNeue-Medium" font-size="34.0" fill="#EAEAEA" transform="matrix(1.00, 0.00, -0.00, -1.00, 230.7, 439.0)">t</text><text xml:space="preserve" font-family="HelveticaNeue-Medium" font-size="34.0" fill="#EAEAEA" transform="matrix(1.00, 0.00, -0.00, -1.00, 242.1, 439.0)">e</text><text xml:space="preserve" font-family="HelveticaNeue-Medium" font-size="34.0" fill="#EAEAEA" transform="matrix(1.00, 0.00, -0.00, -1.00, 261.0, 439.0)">n</text><text xml:space="preserve" font-family="HelveticaNeue-Medium" font-size="34.0" fill="#EAEAEA" transform="matrix(1.00, 0.00, -0.00, -1.00, 280.5, 439.0)">c</text><text xml:space="preserve" font-family="HelveticaNeue-Medium" font-size="34.0" fill="#EAEAEA" transform="matrix(1.00, 0.00, -0.00, -1.00, 299.4, 439.0)">e</text><text xml:space="preserve" font-family="HelveticaNeue-Medium" font-size="34.0" fill="#EAEAEA" transform="matrix(1.00, 0.00, -0.00, -1.00, 318.3, 439.0)">”</text><text xml:space="preserve" font-family="HelveticaNeue-Medium" font-size="34.0" fill="#EAEAEA" transform="matrix(1.00, 0.00, -0.00, -1.00, 333.4, 439.0)"> </text><image xlink:href="../../D9433726-5947-428F-A554-7984E936C271/assets/22338A021207344BFFC0BA20AE086817.png" width="18.00" height="18.00" transform="matrix(1.00, 0.00, -0.00, -1.00, 61.0, 375.0)"></image><text xml:space="preserve" font-family="HelveticaNeue-Medium" font-size="25.5" fill="#EAEAEA" transform="matrix(1.00, 0.00, -0.00, -1.00, 64.0, 358.9)">•</text><image xlink:href="../../79777EA1-362B-4C9D-8128-4DD53D00BBEA/assets/D84F60EC9731B48DFF7A90909BCF9F68.png" width="852.00" height="40.00" transform="matrix(1.00, 0.00, -0.00, -1.00, 92.0, 383.0)"></image><text xml:space="preserve" font-family="HelveticaNeue-Medium" font-size="34.0" fill="#EAEAEA" transform="matrix(1.00, 0.00, -0.00, -1.00, 96.0, 356.0)">T</text><text xml:space="preserve" font-family="HelveticaNeue-Medium" font-size="34.0" fill="#EAEAEA" transform="matrix(1.00, 0.00, -0.00, -1.00, 116.2, 356.0)">h</text><text xml:space="preserve" font-family="HelveticaNeue-Medium" font-size="34.0" fill="#EAEAEA" transform="matrix(1.00, 0.00, -0.00, -1.00, 135.7, 356.0)">e</text><text xml:space="preserve" font-family="HelveticaNeue-Medium" font-size="34.0" fill="#EAEAEA" transform="matrix(1.00, 0.00, -0.00, -1.00, 154.6, 356.0)"> </text><text xml:space="preserve" font-family="HelveticaNeue-Medium" font-size="34.0" fill="#EAEAEA" transform="matrix(1.00, 0.00, -0.00, -1.00, 164.0, 356.0)">r</text><text xml:space="preserve" font-family="HelveticaNeue-Medium" font-size="34.0" fill="#EAEAEA" transform="matrix(1.00, 0.00, -0.00, -1.00, 175.4, 356.0)">e</text><text xml:space="preserve" font-family="HelveticaNeue-Medium" font-size="34.0" fill="#EAEAEA" transform="matrix(1.00, 0.00, -0.00, -1.00, 194.3, 356.0)">s</text><text xml:space="preserve" font-family="HelveticaNeue-Medium" font-size="34.0" fill="#EAEAEA" transform="matrix(1.00, 0.00, -0.00, -1.00, 211.9, 356.0)">u</text><text xml:space="preserve" font-family="HelveticaNeue-Medium" font-size="34.0" fill="#EAEAEA" transform="matrix(1.00, 0.00, -0.00, -1.00, 231.5, 356.0)">l</text><text xml:space="preserve" font-family="HelveticaNeue-Medium" font-size="34.0" fill="#EAEAEA" transform="matrix(1.00, 0.00, -0.00, -1.00, 239.7, 356.0)">t</text><text xml:space="preserve" font-family="HelveticaNeue-Medium" font-size="34.0" fill="#EAEAEA" transform="matrix(1.00, 0.00, -0.00, -1.00, 251.0, 356.0)">s</text><text xml:space="preserve" font-family="HelveticaNeue-Medium" font-size="34.0" fill="#EAEAEA" transform="matrix(1.00, 0.00, -0.00, -1.00, 268.6, 356.0)"> </text><text xml:space="preserve" font-family="HelveticaNeue-Medium" font-size="34.0" fill="#EAEAEA" transform="matrix(1.00, 0.00, -0.00, -1.00, 278.1, 356.0)">a</text><text xml:space="preserve" font-family="HelveticaNeue-Medium" font-size="34.0" fill="#EAEAEA" transform="matrix(1.00, 0.00, -0.00, -1.00, 297.0, 356.0)">r</text><text xml:space="preserve" font-family="HelveticaNeue-Medium" font-size="34.0" fill="#EAEAEA" transform="matrix(1.00, 0.00, -0.00, -1.00, 308.3, 356.0)">e</text><text xml:space="preserve" font-family="HelveticaNeue-Medium" font-size="34.0" fill="#EAEAEA" transform="matrix(1.00, 0.00, -0.00, -1.00, 327.2, 356.0)"> </text><text xml:space="preserve" font-family="HelveticaNeue-Medium" font-size="34.0" fill="#EAEAEA" transform="matrix(1.00, 0.00, -0.00, -1.00, 336.7, 356.0)">a</text><text xml:space="preserve" font-family="HelveticaNeue-Medium" font-size="34.0" fill="#EAEAEA" transform="matrix(1.00, 0.00, -0.00, -1.00, 355.6, 356.0)">l</text><text xml:space="preserve" font-family="HelveticaNeue-Medium" font-size="34.0" fill="#EAEAEA" transform="matrix(1.00, 0.00, -0.00, -1.00, 363.8, 356.0)">w</text><text xml:space="preserve" font-family="HelveticaNeue-Medium" font-size="34.0" fill="#EAEAEA" transform="matrix(1.00, 0.00, -0.00, -1.00, 390.2, 356.0)">a</text><text xml:space="preserve" font-family="HelveticaNeue-Medium" font-size="34.0" fill="#EAEAEA" transform="matrix(1.00, 0.00, -0.00, -1.00, 409.1, 356.0)">y</text><text xml:space="preserve" font-family="HelveticaNeue-Medium" font-size="34.0" fill="#EAEAEA" transform="matrix(1.00, 0.00, -0.00, -1.00, 426.8, 356.0)">s</text><text xml:space="preserve" font-family="HelveticaNeue-Medium" font-size="34.0" fill="#EAEAEA" transform="matrix(1.00, 0.00, -0.00, -1.00, 444.4, 356.0)"> </text><text xml:space="preserve" font-family="HelveticaNeue-Medium" font-size="34.0" fill="#EAEAEA" transform="matrix(1.00, 0.00, -0.00, -1.00, 453.9, 356.0)">t</text><text xml:space="preserve" font-family="HelveticaNeue-Medium" font-size="34.0" fill="#EAEAEA" transform="matrix(1.00, 0.00, -0.00, -1.00, 465.2, 356.0)">h</text><text xml:space="preserve" font-family="HelveticaNeue-Medium" font-size="34.0" fill="#EAEAEA" transform="matrix(1.00, 0.00, -0.00, -1.00, 484.7, 356.0)">e</text><text xml:space="preserve" font-family="HelveticaNeue-Medium" font-size="34.0" fill="#EAEAEA" transform="matrix(1.00, 0.00, -0.00, -1.00, 503.6, 356.0)"> </text><text xml:space="preserve" font-family="HelveticaNeue-Medium" font-size="34.0" fill="#EAEAEA" transform="matrix(1.00, 0.00, -0.00, -1.00, 513.1, 356.0)">s</text><text xml:space="preserve" font-family="HelveticaNeue-Medium" font-size="34.0" fill="#EAEAEA" transform="matrix(1.00, 0.00, -0.00, -1.00, 530.7, 356.0)">a</text><text xml:space="preserve" font-family="HelveticaNeue-Medium" font-size="34.0" fill="#EAEAEA" transform="matrix(1.00, 0.00, -0.00, -1.00, 549.6, 356.0)">m</text><text xml:space="preserve" font-family="HelveticaNeue-Medium" font-size="34.0" fill="#EAEAEA" transform="matrix(1.00, 0.00, -0.00, -1.00, 579.2, 356.0)">e</text><text xml:space="preserve" font-family="HelveticaNeue-Medium" font-size="34.0" fill="#EAEAEA" transform="matrix(1.00, 0.00, -0.00, -1.00, 598.1, 356.0)"> </text><text xml:space="preserve" font-family="HelveticaNeue-Medium" font-size="34.0" fill="#EAEAEA" transform="matrix(1.00, 0.00, -0.00, -1.00, 607.6, 356.0)">f</text><text xml:space="preserve" font-family="HelveticaNeue-Medium" font-size="34.0" fill="#EAEAEA" transform="matrix(1.00, 0.00, -0.00, -1.00, 618.3, 356.0)">o</text><text xml:space="preserve" font-family="HelveticaNeue-Medium" font-size="34.0" fill="#EAEAEA" transform="matrix(1.00, 0.00, -0.00, -1.00, 638.4, 356.0)">r</text><text xml:space="preserve" font-family="HelveticaNeue-Medium" font-size="34.0" fill="#EAEAEA" transform="matrix(1.00, 0.00, -0.00, -1.00, 650.4, 356.0)"> </text><text xml:space="preserve" font-family="HelveticaNeue-Medium" font-size="34.0" fill="#EAEAEA" transform="matrix(1.00, 0.00, -0.00, -1.00, 659.9, 356.0)">a</text><text xml:space="preserve" font-family="HelveticaNeue-Medium" font-size="34.0" fill="#EAEAEA" transform="matrix(1.00, 0.00, -0.00, -1.00, 678.8, 356.0)"> </text><text xml:space="preserve" font-family="HelveticaNeue-Medium" font-size="34.0" fill="#EAEAEA" transform="matrix(1.00, 0.00, -0.00, -1.00, 688.2, 356.0)">g</text><text xml:space="preserve" font-family="HelveticaNeue-Medium" font-size="34.0" fill="#EAEAEA" transform="matrix(1.00, 0.00, -0.00, -1.00, 708.4, 356.0)">i</text><text xml:space="preserve" font-family="HelveticaNeue-Medium" font-size="34.0" fill="#EAEAEA" transform="matrix(1.00, 0.00, -0.00, -1.00, 716.6, 356.0)">v</text><text xml:space="preserve" font-family="HelveticaNeue-Medium" font-size="34.0" fill="#EAEAEA" transform="matrix(1.00, 0.00, -0.00, -1.00, 734.2, 356.0)">e</text><text xml:space="preserve" font-family="HelveticaNeue-Medium" font-size="34.0" fill="#EAEAEA" transform="matrix(1.00, 0.00, -0.00, -1.00, 753.1, 356.0)">n</text><text xml:space="preserve" font-family="HelveticaNeue-Medium" font-size="34.0" fill="#EAEAEA" transform="matrix(1.00, 0.00, -0.00, -1.00, 772.6, 356.0)"> </text><text xml:space="preserve" font-family="HelveticaNeue-Medium" font-size="34.0" fill="#EAEAEA" transform="matrix(1.00, 0.00, -0.00, -1.00, 782.1, 356.0)">a</text><text xml:space="preserve" font-family="HelveticaNeue-Medium" font-size="34.0" fill="#EAEAEA" transform="matrix(1.00, 0.00, -0.00, -1.00, 801.0, 356.0)">r</text><text xml:space="preserve" font-family="HelveticaNeue-Medium" font-size="34.0" fill="#EAEAEA" transform="matrix(1.00, 0.00, -0.00, -1.00, 813.0, 356.0)">g</text><text xml:space="preserve" font-family="HelveticaNeue-Medium" font-size="34.0" fill="#EAEAEA" transform="matrix(1.00, 0.00, -0.00, -1.00, 833.1, 356.0)">u</text><text xml:space="preserve" font-family="HelveticaNeue-Medium" font-size="34.0" fill="#EAEAEA" transform="matrix(1.00, 0.00, -0.00, -1.00, 852.6, 356.0)">m</text><text xml:space="preserve" font-family="HelveticaNeue-Medium" font-size="34.0" fill="#EAEAEA" transform="matrix(1.00, 0.00, -0.00, -1.00, 882.2, 356.0)">e</text><text xml:space="preserve" font-family="HelveticaNeue-Medium" font-size="34.0" fill="#EAEAEA" transform="matrix(1.00, 0.00, -0.00, -1.00, 901.1, 356.0)">n</text><text xml:space="preserve" font-family="HelveticaNeue-Medium" font-size="34.0" fill="#EAEAEA" transform="matrix(1.00, 0.00, -0.00, -1.00, 920.6, 356.0)">t</text><text xml:space="preserve" font-family="HelveticaNeue-Medium" font-size="34.0" fill="#EAEAEA" transform="matrix(1.00, 0.00, -0.00, -1.00, 932.0, 356.0)">.</text><text xml:space="preserve" font-family="HelveticaNeue-Medium" font-size="34.0" fill="#EAEAEA" transform="matrix(1.00, 0.00, -0.00, -1.00, 941.4, 356.0)"> </text><image xlink:href="../../79777EA1-362B-4C9D-8128-4DD53D00BBEA/assets/D8DD3E957669923713634A08C622052C.png" width="281.00" height="40.00" transform="matrix(1.00, 0.00, -0.00, -1.00, 60.0, 300.0)"></image><text xml:space="preserve" font-family="Helvetica" font-size="34.0" fill="#EAEAEA" transform="matrix(1.00, 0.00, -0.00, -1.00, 64.0, 273.0)">&gt;</text><text xml:space="preserve" font-family="Helvetica" font-size="34.0" fill="#EAEAEA" transform="matrix(1.00, 0.00, -0.00, -1.00, 83.9, 273.0)">&gt;</text><text xml:space="preserve" font-family="Helvetica" font-size="34.0" fill="#EAEAEA" transform="matrix(1.00, 0.00, -0.00, -1.00, 103.7, 273.0)">&gt;</text><text xml:space="preserve" font-family="Helvetica" font-size="34.0" fill="#EAEAEA" transform="matrix(1.00, 0.00, -0.00, -1.00, 123.6, 273.0)"> </text><text xml:space="preserve" font-family="Helvetica" font-size="34.0" fill="#EAEAEA" transform="matrix(1.00, 0.00, -0.00, -1.00, 133.0, 273.0)">i</text><text xml:space="preserve" font-family="Helvetica" font-size="34.0" fill="#EAEAEA" transform="matrix(1.00, 0.00, -0.00, -1.00, 140.6, 273.0)">n</text><text xml:space="preserve" font-family="Helvetica" font-size="34.0" fill="#EAEAEA" transform="matrix(1.00, 0.00, -0.00, -1.00, 159.5, 273.0)">t</text><text xml:space="preserve" font-family="Helvetica" font-size="34.0" fill="#EAEAEA" transform="matrix(1.00, 0.00, -0.00, -1.00, 168.9, 273.0)">(</text><text xml:space="preserve" font-family="Helvetica" font-size="34.0" fill="#EAEAEA" transform="matrix(1.00, 0.00, -0.00, -1.00, 180.2, 273.0)">"</text><text xml:space="preserve" font-family="Helvetica" font-size="34.0" fill="#EAEAEA" transform="matrix(1.00, 0.00, -0.00, -1.00, 192.3, 273.0)">1</text><text xml:space="preserve" font-family="Helvetica" font-size="34.0" fill="#EAEAEA" transform="matrix(1.00, 0.00, -0.00, -1.00, 211.2, 273.0)">0</text><text xml:space="preserve" font-family="Helvetica" font-size="34.0" fill="#EAEAEA" transform="matrix(1.00, 0.00, -0.00, -1.00, 230.1, 273.0)">f</text><text xml:space="preserve" font-family="Helvetica" font-size="34.0" fill="#EAEAEA" transform="matrix(1.00, 0.00, -0.00, -1.00, 239.6, 273.0)">1</text><text xml:space="preserve" font-family="Helvetica" font-size="34.0" fill="#EAEAEA" transform="matrix(1.00, 0.00, -0.00, -1.00, 258.5, 273.0)">"</text><text xml:space="preserve" font-family="Helvetica" font-size="34.0" fill="#EAEAEA" transform="matrix(1.00, 0.00, -0.00, -1.00, 270.6, 273.0)">,</text><text xml:space="preserve" font-family="Helvetica" font-size="34.0" fill="#EAEAEA" transform="matrix(1.00, 0.00, -0.00, -1.00, 280.0, 273.0)"> </text><text xml:space="preserve" font-family="Helvetica" font-size="34.0" fill="#EAEAEA" transform="matrix(1.00, 0.00, -0.00, -1.00, 289.4, 273.0)">1</text><text xml:space="preserve" font-family="Helvetica" font-size="34.0" fill="#EAEAEA" transform="matrix(1.00, 0.00, -0.00, -1.00, 308.4, 273.0)">6</text><text xml:space="preserve" font-family="Helvetica" font-size="34.0" fill="#EAEAEA" transform="matrix(1.00, 0.00, -0.00, -1.00, 327.3, 273.0)">)</text><image xlink:href="../../79777EA1-362B-4C9D-8128-4DD53D00BBEA/assets/4DB37D2380C1FB7D2FF54F5E4AC7C7D9.png" width="83.00" height="33.00" transform="matrix(1.00, 0.00, -0.00, -1.00, 60.0, 216.0)"></image><text xml:space="preserve" font-family="Helvetica" font-size="34.0" fill="#EAEAEA" transform="matrix(1.00, 0.00, -0.00, -1.00, 64.0, 190.0)">4</text><text xml:space="preserve" font-family="Helvetica" font-size="34.0" fill="#EAEAEA" transform="matrix(1.00, 0.00, -0.00, -1.00, 82.9, 190.0)">3</text><text xml:space="preserve" font-family="Helvetica" font-size="34.0" fill="#EAEAEA" transform="matrix(1.00, 0.00, -0.00, -1.00, 101.8, 190.0)">3</text><text xml:space="preserve" font-family="Helvetica" font-size="34.0" fill="#EAEAEA" transform="matrix(1.00, 0.00, -0.00, -1.00, 120.7, 190.0)">7</text><image xlink:href="../../D9433726-5947-428F-A554-7984E936C271/assets/22338A021207344BFFC0BA20AE086817.png" width="18.00" height="18.00" transform="matrix(1.00, 0.00, -0.00, -1.00, 61.0, 126.0)"></image><text xml:space="preserve" font-family="HelveticaNeue-Medium" font-size="25.5" fill="#EAEAEA" transform="matrix(1.00, 0.00, -0.00, -1.00, 64.0, 109.9)">•</text><image xlink:href="../../79777EA1-362B-4C9D-8128-4DD53D00BBEA/assets/D9F79784B821A8F2A67AE9251B20CCBD.png" width="754.00" height="40.00" transform="matrix(1.00, 0.00, -0.00, -1.00, 94.0, 134.0)"></image><text xml:space="preserve" font-family="HelveticaNeue-Medium" font-size="34.0" fill="#EAEAEA" transform="matrix(1.00, 0.00, -0.00, -1.00, 96.0, 107.0)">D</text><text xml:space="preserve" font-family="HelveticaNeue-Medium" font-size="34.0" fill="#EAEAEA" transform="matrix(1.00, 0.00, -0.00, -1.00, 120.5, 107.0)">o</text><text xml:space="preserve" font-family="HelveticaNeue-Medium" font-size="34.0" fill="#EAEAEA" transform="matrix(1.00, 0.00, -0.00, -1.00, 140.7, 107.0)">e</text><text xml:space="preserve" font-family="HelveticaNeue-Medium" font-size="34.0" fill="#EAEAEA" transform="matrix(1.00, 0.00, -0.00, -1.00, 159.6, 107.0)">s</text><text xml:space="preserve" font-family="HelveticaNeue-Medium" font-size="34.0" fill="#EAEAEA" transform="matrix(1.00, 0.00, -0.00, -1.00, 177.3, 107.0)"> </text><text xml:space="preserve" font-family="HelveticaNeue-Medium" font-size="34.0" fill="#EAEAEA" transform="matrix(1.00, 0.00, -0.00, -1.00, 186.7, 107.0)">n</text><text xml:space="preserve" font-family="HelveticaNeue-Medium" font-size="34.0" fill="#EAEAEA" transform="matrix(1.00, 0.00, -0.00, -1.00, 206.2, 107.0)">o</text><text xml:space="preserve" font-family="HelveticaNeue-Medium" font-size="34.0" fill="#EAEAEA" transform="matrix(1.00, 0.00, -0.00, -1.00, 226.4, 107.0)">t</text><text xml:space="preserve" font-family="HelveticaNeue-Medium" font-size="34.0" fill="#EAEAEA" transform="matrix(1.00, 0.00, -0.00, -1.00, 237.7, 107.0)"> </text><text xml:space="preserve" font-family="HelveticaNeue-Medium" font-size="34.0" fill="#EAEAEA" transform="matrix(1.00, 0.00, -0.00, -1.00, 247.2, 107.0)">d</text><text xml:space="preserve" font-family="HelveticaNeue-Medium" font-size="34.0" fill="#EAEAEA" transform="matrix(1.00, 0.00, -0.00, -1.00, 267.9, 107.0)">e</text><text xml:space="preserve" font-family="HelveticaNeue-Medium" font-size="34.0" fill="#EAEAEA" transform="matrix(1.00, 0.00, -0.00, -1.00, 286.8, 107.0)">p</text><text xml:space="preserve" font-family="HelveticaNeue-Medium" font-size="34.0" fill="#EAEAEA" transform="matrix(1.00, 0.00, -0.00, -1.00, 307.6, 107.0)">e</text><text xml:space="preserve" font-family="HelveticaNeue-Medium" font-size="34.0" fill="#EAEAEA" transform="matrix(1.00, 0.00, -0.00, -1.00, 326.5, 107.0)">n</text><text xml:space="preserve" font-family="HelveticaNeue-Medium" font-size="34.0" fill="#EAEAEA" transform="matrix(1.00, 0.00, -0.00, -1.00, 346.0, 107.0)">d</text><text xml:space="preserve" font-family="HelveticaNeue-Medium" font-size="34.0" fill="#EAEAEA" transform="matrix(1.00, 0.00, -0.00, -1.00, 366.8, 107.0)"> </text><text xml:space="preserve" font-family="HelveticaNeue-Medium" font-size="34.0" fill="#EAEAEA" transform="matrix(1.00, 0.00, -0.00, -1.00, 376.3, 107.0)">o</text><text xml:space="preserve" font-family="HelveticaNeue-Medium" font-size="34.0" fill="#EAEAEA" transform="matrix(1.00, 0.00, -0.00, -1.00, 396.4, 107.0)">n</text><text xml:space="preserve" font-family="HelveticaNeue-Medium" font-size="34.0" fill="#EAEAEA" transform="matrix(1.00, 0.00, -0.00, -1.00, 415.9, 107.0)"> </text><text xml:space="preserve" font-family="HelveticaNeue-Medium" font-size="34.0" fill="#EAEAEA" transform="matrix(1.00, 0.00, -0.00, -1.00, 425.4, 107.0)">a</text><text xml:space="preserve" font-family="HelveticaNeue-Medium" font-size="34.0" fill="#EAEAEA" transform="matrix(1.00, 0.00, -0.00, -1.00, 444.3, 107.0)">n</text><text xml:space="preserve" font-family="HelveticaNeue-Medium" font-size="34.0" fill="#EAEAEA" transform="matrix(1.00, 0.00, -0.00, -1.00, 463.8, 107.0)">y</text><text xml:space="preserve" font-family="HelveticaNeue-Medium" font-size="34.0" fill="#EAEAEA" transform="matrix(1.00, 0.00, -0.00, -1.00, 481.5, 107.0)">t</text><text xml:space="preserve" font-family="HelveticaNeue-Medium" font-size="34.0" fill="#EAEAEA" transform="matrix(1.00, 0.00, -0.00, -1.00, 492.8, 107.0)">h</text><text xml:space="preserve" font-family="HelveticaNeue-Medium" font-size="34.0" fill="#EAEAEA" transform="matrix(1.00, 0.00, -0.00, -1.00, 512.3, 107.0)">i</text><text xml:space="preserve" font-family="HelveticaNeue-Medium" font-size="34.0" fill="#EAEAEA" transform="matrix(1.00, 0.00, -0.00, -1.00, 520.5, 107.0)">n</text><text xml:space="preserve" font-family="HelveticaNeue-Medium" font-size="34.0" fill="#EAEAEA" transform="matrix(1.00, 0.00, -0.00, -1.00, 540.0, 107.0)">g</text><text xml:space="preserve" font-family="HelveticaNeue-Medium" font-size="34.0" fill="#EAEAEA" transform="matrix(1.00, 0.00, -0.00, -1.00, 560.2, 107.0)"> </text><text xml:space="preserve" font-family="HelveticaNeue-Medium" font-size="34.0" fill="#EAEAEA" transform="matrix(1.00, 0.00, -0.00, -1.00, 569.6, 107.0)">t</text><text xml:space="preserve" font-family="HelveticaNeue-Medium" font-size="34.0" fill="#EAEAEA" transform="matrix(1.00, 0.00, -0.00, -1.00, 580.9, 107.0)">h</text><text xml:space="preserve" font-family="HelveticaNeue-Medium" font-size="34.0" fill="#EAEAEA" transform="matrix(1.00, 0.00, -0.00, -1.00, 600.5, 107.0)">a</text><text xml:space="preserve" font-family="HelveticaNeue-Medium" font-size="34.0" fill="#EAEAEA" transform="matrix(1.00, 0.00, -0.00, -1.00, 619.4, 107.0)">t</text><text xml:space="preserve" font-family="HelveticaNeue-Medium" font-size="34.0" fill="#EAEAEA" transform="matrix(1.00, 0.00, -0.00, -1.00, 630.7, 107.0)"> </text><text xml:space="preserve" font-family="HelveticaNeue-Medium" font-size="34.0" fill="#EAEAEA" transform="matrix(1.00, 0.00, -0.00, -1.00, 640.1, 107.0)">c</text><text xml:space="preserve" font-family="HelveticaNeue-Medium" font-size="34.0" fill="#EAEAEA" transform="matrix(1.00, 0.00, -0.00, -1.00, 659.0, 107.0)">a</text><text xml:space="preserve" font-family="HelveticaNeue-Medium" font-size="34.0" fill="#EAEAEA" transform="matrix(1.00, 0.00, -0.00, -1.00, 677.9, 107.0)">m</text><text xml:space="preserve" font-family="HelveticaNeue-Medium" font-size="34.0" fill="#EAEAEA" transform="matrix(1.00, 0.00, -0.00, -1.00, 707.5, 107.0)">e</text><text xml:space="preserve" font-family="HelveticaNeue-Medium" font-size="34.0" fill="#EAEAEA" transform="matrix(1.00, 0.00, -0.00, -1.00, 726.4, 107.0)"> </text><text xml:space="preserve" font-family="HelveticaNeue-Medium" font-size="34.0" fill="#EAEAEA" transform="matrix(1.00, 0.00, -0.00, -1.00, 735.9, 107.0)">b</text><text xml:space="preserve" font-family="HelveticaNeue-Medium" font-size="34.0" fill="#EAEAEA" transform="matrix(1.00, 0.00, -0.00, -1.00, 756.7, 107.0)">e</text><text xml:space="preserve" font-family="HelveticaNeue-Medium" font-size="34.0" fill="#EAEAEA" transform="matrix(1.00, 0.00, -0.00, -1.00, 775.6, 107.0)">f</text><text xml:space="preserve" font-family="HelveticaNeue-Medium" font-size="34.0" fill="#EAEAEA" transform="matrix(1.00, 0.00, -0.00, -1.00, 786.3, 107.0)">o</text><text xml:space="preserve" font-family="HelveticaNeue-Medium" font-size="34.0" fill="#EAEAEA" transform="matrix(1.00, 0.00, -0.00, -1.00, 806.4, 107.0)">r</text><text xml:space="preserve" font-family="HelveticaNeue-Medium" font-size="34.0" fill="#EAEAEA" transform="matrix(1.00, 0.00, -0.00, -1.00, 817.8, 107.0)">e</text><text xml:space="preserve" font-family="HelveticaNeue-Medium" font-size="34.0" fill="#EAEAEA" transform="matrix(1.00, 0.00, -0.00, -1.00, 836.7, 107.0)">.</text></g></svg>