<?xml version="1.0" encoding="UTF-8" standalone="no"?><svg xmlns="http://www.w3.org/2000/svg" xmlns:xlink="http://www.w3.org/1999/xlink" clip-rule="evenodd" stroke-miterlimit="4.00" viewBox="0 0 1024 768"><desc>SVG generated by Keynote</desc><defs></defs><g transform="matrix(1.00, 0.00, -0.00, -1.00, 0.0, 768.0)"><g><clipPath id="clip-184"><path d="M 0.0 768.0 L 1024.0 768.0 L 1024.0 0.0 L 0.0 0.0 Z M 0.0 768.0 "></path></clipPath><g clip-path="url(#clip-184)"><image xlink:href="../../363ACDF5-F69A-4348-A617-267FC1DCB792/assets/2CA05975C404A6B79EB2D17D5C3EEC1C.jpeg" width="1024.00" height="768.00" transform="matrix(1.00, 0.00, -0.00, -1.00, 0.0, 768.0)"></image></g></g><image xlink:href="../../261D8758-22D5-4836-8D27-031A355DE298/assets/C0ACE03E3CDE8F8DD2B5A98FCFC0EE3C.png" width="410.00" height="67.00" transform="matrix(1.00, 0.00, -0.00, -1.00, 307.0, 693.0)"></image><text xml:space="preserve" font-family="HelveticaNeue-Bold" font-weight="bold" font-size="64.0" fill="#FEFFFE" transform="matrix(1.00, 0.00, -0.00, -1.00, 310.0, 644.0)">S</text><text xml:space="preserve" font-family="HelveticaNeue-Bold" font-weight="bold" font-size="64.0" fill="#FEFFFE" transform="matrix(1.00, 0.00, -0.00, -1.00, 351.5, 644.0)">t</text><text xml:space="preserve" font-family="HelveticaNeue-Bold" font-weight="bold" font-size="64.0" fill="#FEFFFE" transform="matrix(1.00, 0.00, -0.00, -1.00, 374.1, 644.0)">e</text><text xml:space="preserve" font-family="HelveticaNeue-Bold" font-weight="bold" font-size="64.0" fill="#FEFFFE" transform="matrix(1.00, 0.00, -0.00, -1.00, 410.8, 644.0)">p</text><text xml:space="preserve" font-family="HelveticaNeue-Bold" font-weight="bold" font-size="64.0" fill="#FEFFFE" transform="matrix(1.00, 0.00, -0.00, -1.00, 449.9, 644.0)">-</text><text xml:space="preserve" font-family="HelveticaNeue-Bold" font-weight="bold" font-size="64.0" fill="#FEFFFE" transform="matrix(1.00, 0.00, -0.00, -1.00, 476.0, 644.0)">b</text><text xml:space="preserve" font-family="HelveticaNeue-Bold" font-weight="bold" font-size="64.0" fill="#FEFFFE" transform="matrix(1.00, 0.00, -0.00, -1.00, 515.1, 644.0)">y</text><text xml:space="preserve" font-family="HelveticaNeue-Bold" font-weight="bold" font-size="64.0" fill="#FEFFFE" transform="matrix(1.00, 0.00, -0.00, -1.00, 548.3, 644.0)">-</text><text xml:space="preserve" font-family="HelveticaNeue-Bold" font-weight="bold" font-size="64.0" fill="#FEFFFE" transform="matrix(1.00, 0.00, -0.00, -1.00, 574.3, 644.0)">S</text><text xml:space="preserve" font-family="HelveticaNeue-Bold" font-weight="bold" font-size="64.0" fill="#FEFFFE" transform="matrix(1.00, 0.00, -0.00, -1.00, 615.9, 644.0)">t</text><text xml:space="preserve" font-family="HelveticaNeue-Bold" font-weight="bold" font-size="64.0" fill="#FEFFFE" transform="matrix(1.00, 0.00, -0.00, -1.00, 638.4, 644.0)">e</text><text xml:space="preserve" font-family="HelveticaNeue-Bold" font-weight="bold" font-size="64.0" fill="#FEFFFE" transform="matrix(1.00, 0.00, -0.00, -1.00, 675.1, 644.0)">p</text><image xlink:href="../../D9433726-5947-428F-A554-7984E936C271/assets/22338A021207344BFFC0BA20AE086817.png" width="18.00" height="18.00" transform="matrix(1.00, 0.00, -0.00, -1.00, 61.0, 542.0)"></image><text xml:space="preserve" font-family="HelveticaNeue-Medium" font-size="25.5" fill="#EAEAEA" transform="matrix(1.00, 0.00, -0.00, -1.00, 64.0, 525.9)">•</text><image xlink:href="../../9585C8E5-A17B-49EA-A7E1-89DA55D8E747/assets/F04BFC5523A8471D4D8F761FCABA6185.png" width="225.00" height="34.00" transform="matrix(1.00, 0.00, -0.00, -1.00, 94.0, 550.0)"></image><text xml:space="preserve" font-family="HelveticaNeue-Medium" font-size="34.0" fill="#EAEAEA" transform="matrix(1.00, 0.00, -0.00, -1.00, 96.0, 523.0)">D</text><text xml:space="preserve" font-family="HelveticaNeue-Medium" font-size="34.0" fill="#EAEAEA" transform="matrix(1.00, 0.00, -0.00, -1.00, 120.5, 523.0)">e</text><text xml:space="preserve" font-family="HelveticaNeue-Medium" font-size="34.0" fill="#EAEAEA" transform="matrix(1.00, 0.00, -0.00, -1.00, 139.5, 523.0)">ﬁ</text><text xml:space="preserve" font-family="HelveticaNeue-Medium" font-size="34.0" fill="#EAEAEA" transform="matrix(1.00, 0.00, -0.00, -1.00, 158.4, 523.0)">n</text><text xml:space="preserve" font-family="HelveticaNeue-Medium" font-size="34.0" fill="#EAEAEA" transform="matrix(1.00, 0.00, -0.00, -1.00, 177.9, 523.0)">e</text><text xml:space="preserve" font-family="HelveticaNeue-Medium" font-size="34.0" fill="#EAEAEA" transform="matrix(1.00, 0.00, -0.00, -1.00, 196.8, 523.0)"> </text><text xml:space="preserve" font-family="HelveticaNeue-Medium" font-size="34.0" fill="#EAEAEA" transform="matrix(1.00, 0.00, -0.00, -1.00, 206.2, 523.0)">a</text><text xml:space="preserve" font-family="HelveticaNeue-Medium" font-size="34.0" fill="#EAEAEA" transform="matrix(1.00, 0.00, -0.00, -1.00, 225.1, 523.0)"> </text><text xml:space="preserve" font-family="HelveticaNeue-Medium" font-size="34.0" fill="#EAEAEA" transform="matrix(1.00, 0.00, -0.00, -1.00, 234.6, 523.0)">c</text><text xml:space="preserve" font-family="HelveticaNeue-Medium" font-size="34.0" fill="#EAEAEA" transform="matrix(1.00, 0.00, -0.00, -1.00, 253.5, 523.0)">l</text><text xml:space="preserve" font-family="HelveticaNeue-Medium" font-size="34.0" fill="#EAEAEA" transform="matrix(1.00, 0.00, -0.00, -1.00, 261.7, 523.0)">a</text><text xml:space="preserve" font-family="HelveticaNeue-Medium" font-size="34.0" fill="#EAEAEA" transform="matrix(1.00, 0.00, -0.00, -1.00, 280.6, 523.0)">s</text><text xml:space="preserve" font-family="HelveticaNeue-Medium" font-size="34.0" fill="#EAEAEA" transform="matrix(1.00, 0.00, -0.00, -1.00, 298.2, 523.0)">s</text><text xml:space="preserve" font-family="HelveticaNeue-Medium" font-size="34.0" fill="#EAEAEA" transform="matrix(1.00, 0.00, -0.00, -1.00, 315.9, 523.0)"> </text><image xlink:href="../../3D22B4D2-ADB8-49BA-AB82-64DDDFBD2CFF/assets/0434DE27F38E5E710791A6F105FD76FC.png" width="18.00" height="18.00" transform="matrix(1.00, 0.00, -0.00, -1.00, 93.0, 459.0)"></image><text xml:space="preserve" font-family="HelveticaNeue-Medium" font-size="25.5" fill="#EAEAEA" transform="matrix(1.00, 0.00, -0.00, -1.00, 96.0, 442.9)">•</text><image xlink:href="../../9585C8E5-A17B-49EA-A7E1-89DA55D8E747/assets/4260BB89B7F2FA6E4A274616B960D82D.png" width="192.00" height="34.00" transform="matrix(1.00, 0.00, -0.00, -1.00, 125.0, 467.0)"></image><text xml:space="preserve" font-family="HelveticaNeue-Medium" font-size="34.0" fill="#EAEAEA" transform="matrix(1.00, 0.00, -0.00, -1.00, 128.0, 440.0)">S</text><text xml:space="preserve" font-family="HelveticaNeue-Medium" font-size="34.0" fill="#EAEAEA" transform="matrix(1.00, 0.00, -0.00, -1.00, 150.0, 440.0)">u</text><text xml:space="preserve" font-family="HelveticaNeue-Medium" font-size="34.0" fill="#EAEAEA" transform="matrix(1.00, 0.00, -0.00, -1.00, 169.5, 440.0)">b</text><text xml:space="preserve" font-family="HelveticaNeue-Medium" font-size="34.0" fill="#EAEAEA" transform="matrix(1.00, 0.00, -0.00, -1.00, 190.3, 440.0)">c</text><text xml:space="preserve" font-family="HelveticaNeue-Medium" font-size="34.0" fill="#EAEAEA" transform="matrix(1.00, 0.00, -0.00, -1.00, 209.2, 440.0)">l</text><text xml:space="preserve" font-family="HelveticaNeue-Medium" font-size="34.0" fill="#EAEAEA" transform="matrix(1.00, 0.00, -0.00, -1.00, 217.4, 440.0)">a</text><text xml:space="preserve" font-family="HelveticaNeue-Medium" font-size="34.0" fill="#EAEAEA" transform="matrix(1.00, 0.00, -0.00, -1.00, 236.3, 440.0)">s</text><text xml:space="preserve" font-family="HelveticaNeue-Medium" font-size="34.0" fill="#EAEAEA" transform="matrix(1.00, 0.00, -0.00, -1.00, 254.0, 440.0)">s</text><text xml:space="preserve" font-family="HelveticaNeue-Medium" font-size="34.0" fill="#EAEAEA" transform="matrix(1.00, 0.00, -0.00, -1.00, 271.6, 440.0)"> </text><text xml:space="preserve" font-family="HelveticaNeue-Medium" font-size="34.0" fill="#EAEAEA" transform="matrix(1.00, 0.00, -0.00, -1.00, 281.1, 440.0)">o</text><text xml:space="preserve" font-family="HelveticaNeue-Medium" font-size="34.0" fill="#EAEAEA" transform="matrix(1.00, 0.00, -0.00, -1.00, 301.2, 440.0)">f</text><text xml:space="preserve" font-family="HelveticaNeue-Medium" font-size="34.0" fill="#EAEAEA" transform="matrix(1.00, 0.00, -0.00, -1.00, 311.9, 440.0)"> </text><image xlink:href="../../9585C8E5-A17B-49EA-A7E1-89DA55D8E747/assets/9973A57EB5076951BDB990D758C953A0.png" width="493.00" height="33.00" transform="matrix(1.00, 0.00, -0.00, -1.00, 320.0, 466.0)"></image><text xml:space="preserve" font-family="AndaleMono" font-size="34.0" fill="#EAEAEA" transform="matrix(1.00, 0.00, -0.00, -1.00, 321.4, 440.0)">c</text><text xml:space="preserve" font-family="AndaleMono" font-size="34.0" fill="#EAEAEA" transform="matrix(1.00, 0.00, -0.00, -1.00, 341.8, 440.0)">o</text><text xml:space="preserve" font-family="AndaleMono" font-size="34.0" fill="#EAEAEA" transform="matrix(1.00, 0.00, -0.00, -1.00, 362.2, 440.0)">l</text><text xml:space="preserve" font-family="AndaleMono" font-size="34.0" fill="#EAEAEA" transform="matrix(1.00, 0.00, -0.00, -1.00, 382.6, 440.0)">l</text><text xml:space="preserve" font-family="AndaleMono" font-size="34.0" fill="#EAEAEA" transform="matrix(1.00, 0.00, -0.00, -1.00, 403.0, 440.0)">e</text><text xml:space="preserve" font-family="AndaleMono" font-size="34.0" fill="#EAEAEA" transform="matrix(1.00, 0.00, -0.00, -1.00, 423.4, 440.0)">c</text><text xml:space="preserve" font-family="AndaleMono" font-size="34.0" fill="#EAEAEA" transform="matrix(1.00, 0.00, -0.00, -1.00, 443.8, 440.0)">t</text><text xml:space="preserve" font-family="AndaleMono" font-size="34.0" fill="#EAEAEA" transform="matrix(1.00, 0.00, -0.00, -1.00, 464.2, 440.0)">i</text><text xml:space="preserve" font-family="AndaleMono" font-size="34.0" fill="#EAEAEA" transform="matrix(1.00, 0.00, -0.00, -1.00, 484.6, 440.0)">o</text><text xml:space="preserve" font-family="AndaleMono" font-size="34.0" fill="#EAEAEA" transform="matrix(1.00, 0.00, -0.00, -1.00, 505.1, 440.0)">n</text><text xml:space="preserve" font-family="AndaleMono" font-size="34.0" fill="#EAEAEA" transform="matrix(1.00, 0.00, -0.00, -1.00, 525.5, 440.0)">s</text><text xml:space="preserve" font-family="AndaleMono" font-size="34.0" fill="#EAEAEA" transform="matrix(1.00, 0.00, -0.00, -1.00, 545.9, 440.0)">.</text><text xml:space="preserve" font-family="AndaleMono" font-size="34.0" fill="#EAEAEA" transform="matrix(1.00, 0.00, -0.00, -1.00, 566.3, 440.0)">a</text><text xml:space="preserve" font-family="AndaleMono" font-size="34.0" fill="#EAEAEA" transform="matrix(1.00, 0.00, -0.00, -1.00, 586.7, 440.0)">b</text><text xml:space="preserve" font-family="AndaleMono" font-size="34.0" fill="#EAEAEA" transform="matrix(1.00, 0.00, -0.00, -1.00, 607.1, 440.0)">c</text><text xml:space="preserve" font-family="AndaleMono" font-size="34.0" fill="#EAEAEA" transform="matrix(1.00, 0.00, -0.00, -1.00, 627.5, 440.0)">.</text><text xml:space="preserve" font-family="AndaleMono" font-size="34.0" fill="#EAEAEA" transform="matrix(1.00, 0.00, -0.00, -1.00, 647.9, 440.0)">C</text><text xml:space="preserve" font-family="AndaleMono" font-size="34.0" fill="#EAEAEA" transform="matrix(1.00, 0.00, -0.00, -1.00, 668.3, 440.0)">a</text><text xml:space="preserve" font-family="AndaleMono" font-size="34.0" fill="#EAEAEA" transform="matrix(1.00, 0.00, -0.00, -1.00, 688.7, 440.0)">l</text><text xml:space="preserve" font-family="AndaleMono" font-size="34.0" fill="#EAEAEA" transform="matrix(1.00, 0.00, -0.00, -1.00, 709.1, 440.0)">l</text><text xml:space="preserve" font-family="AndaleMono" font-size="34.0" fill="#EAEAEA" transform="matrix(1.00, 0.00, -0.00, -1.00, 729.5, 440.0)">a</text><text xml:space="preserve" font-family="AndaleMono" font-size="34.0" fill="#EAEAEA" transform="matrix(1.00, 0.00, -0.00, -1.00, 749.9, 440.0)">b</text><text xml:space="preserve" font-family="AndaleMono" font-size="34.0" fill="#EAEAEA" transform="matrix(1.00, 0.00, -0.00, -1.00, 770.3, 440.0)">l</text><text xml:space="preserve" font-family="AndaleMono" font-size="34.0" fill="#EAEAEA" transform="matrix(1.00, 0.00, -0.00, -1.00, 790.7, 440.0)">e</text><image xlink:href="../../9585C8E5-A17B-49EA-A7E1-89DA55D8E747/assets/0163AAB28DB63E9CB73F739FC83DAE0C.png" width="18.00" height="19.00" transform="matrix(1.00, 0.00, -0.00, -1.00, 93.0, 376.0)"></image><text xml:space="preserve" font-family="HelveticaNeue-Medium" font-size="25.5" fill="#EAEAEA" transform="matrix(1.00, 0.00, -0.00, -1.00, 96.0, 359.4)">•</text><image xlink:href="../../9585C8E5-A17B-49EA-A7E1-89DA55D8E747/assets/780412F4C35EA3BD4EF7ED6C33123EF9.png" width="189.00" height="40.00" transform="matrix(1.00, 0.00, -0.00, -1.00, 126.0, 384.0)"></image><text xml:space="preserve" font-family="HelveticaNeue-Medium" font-size="34.0" fill="#EAEAEA" transform="matrix(1.00, 0.00, -0.00, -1.00, 128.0, 357.0)">I</text><text xml:space="preserve" font-family="HelveticaNeue-Medium" font-size="34.0" fill="#EAEAEA" transform="matrix(1.00, 0.00, -0.00, -1.00, 137.5, 357.0)">m</text><text xml:space="preserve" font-family="HelveticaNeue-Medium" font-size="34.0" fill="#EAEAEA" transform="matrix(1.00, 0.00, -0.00, -1.00, 167.0, 357.0)">p</text><text xml:space="preserve" font-family="HelveticaNeue-Medium" font-size="34.0" fill="#EAEAEA" transform="matrix(1.00, 0.00, -0.00, -1.00, 187.8, 357.0)">l</text><text xml:space="preserve" font-family="HelveticaNeue-Medium" font-size="34.0" fill="#EAEAEA" transform="matrix(1.00, 0.00, -0.00, -1.00, 196.0, 357.0)">e</text><text xml:space="preserve" font-family="HelveticaNeue-Medium" font-size="34.0" fill="#EAEAEA" transform="matrix(1.00, 0.00, -0.00, -1.00, 214.9, 357.0)">m</text><text xml:space="preserve" font-family="HelveticaNeue-Medium" font-size="34.0" fill="#EAEAEA" transform="matrix(1.00, 0.00, -0.00, -1.00, 244.5, 357.0)">e</text><text xml:space="preserve" font-family="HelveticaNeue-Medium" font-size="34.0" fill="#EAEAEA" transform="matrix(1.00, 0.00, -0.00, -1.00, 263.4, 357.0)">n</text><text xml:space="preserve" font-family="HelveticaNeue-Medium" font-size="34.0" fill="#EAEAEA" transform="matrix(1.00, 0.00, -0.00, -1.00, 282.9, 357.0)">t</text><text xml:space="preserve" font-family="HelveticaNeue-Medium" font-size="34.0" fill="#EAEAEA" transform="matrix(1.00, 0.00, -0.00, -1.00, 294.2, 357.0)">s</text><text xml:space="preserve" font-family="HelveticaNeue-Medium" font-size="34.0" fill="#EAEAEA" transform="matrix(1.00, 0.00, -0.00, -1.00, 311.9, 357.0)"> </text><image xlink:href="../../9585C8E5-A17B-49EA-A7E1-89DA55D8E747/assets/C053CC24F28BA5CCEB524E8B384ED7C3.png" width="135.00" height="38.00" transform="matrix(1.00, 0.00, -0.00, -1.00, 317.0, 384.0)"></image><text xml:space="preserve" font-family="Helvetica" font-size="34.0" fill="#EAEAEA" transform="matrix(1.00, 0.00, -0.00, -1.00, 321.3, 357.0)">_</text><text xml:space="preserve" font-family="Helvetica" font-size="34.0" fill="#EAEAEA" transform="matrix(1.00, 0.00, -0.00, -1.00, 340.2, 357.0)">_</text><text xml:space="preserve" font-family="Helvetica" font-size="34.0" fill="#EAEAEA" transform="matrix(1.00, 0.00, -0.00, -1.00, 359.2, 357.0)">c</text><text xml:space="preserve" font-family="Helvetica" font-size="34.0" fill="#EAEAEA" transform="matrix(1.00, 0.00, -0.00, -1.00, 376.2, 357.0)">a</text><text xml:space="preserve" font-family="Helvetica" font-size="34.0" fill="#EAEAEA" transform="matrix(1.00, 0.00, -0.00, -1.00, 395.1, 357.0)">l</text><text xml:space="preserve" font-family="Helvetica" font-size="34.0" fill="#EAEAEA" transform="matrix(1.00, 0.00, -0.00, -1.00, 402.6, 357.0)">l</text><text xml:space="preserve" font-family="Helvetica" font-size="34.0" fill="#EAEAEA" transform="matrix(1.00, 0.00, -0.00, -1.00, 410.2, 357.0)">_</text><text xml:space="preserve" font-family="Helvetica" font-size="34.0" fill="#EAEAEA" transform="matrix(1.00, 0.00, -0.00, -1.00, 429.1, 357.0)">_</text><image xlink:href="../../9585C8E5-A17B-49EA-A7E1-89DA55D8E747/assets/B99ECFA2BFDE25A6AC88E74B43F18485.png" width="125.00" height="34.00" transform="matrix(1.00, 0.00, -0.00, -1.00, 455.0, 384.0)"></image><text xml:space="preserve" font-family="HelveticaNeue-Medium" font-size="34.0" fill="#EAEAEA" transform="matrix(1.00, 0.00, -0.00, -1.00, 448.0, 357.0)"> </text><text xml:space="preserve" font-family="HelveticaNeue-Medium" font-size="34.0" fill="#EAEAEA" transform="matrix(1.00, 0.00, -0.00, -1.00, 457.4, 357.0)">m</text><text xml:space="preserve" font-family="HelveticaNeue-Medium" font-size="34.0" fill="#EAEAEA" transform="matrix(1.00, 0.00, -0.00, -1.00, 487.0, 357.0)">e</text><text xml:space="preserve" font-family="HelveticaNeue-Medium" font-size="34.0" fill="#EAEAEA" transform="matrix(1.00, 0.00, -0.00, -1.00, 505.9, 357.0)">t</text><text xml:space="preserve" font-family="HelveticaNeue-Medium" font-size="34.0" fill="#EAEAEA" transform="matrix(1.00, 0.00, -0.00, -1.00, 517.2, 357.0)">h</text><text xml:space="preserve" font-family="HelveticaNeue-Medium" font-size="34.0" fill="#EAEAEA" transform="matrix(1.00, 0.00, -0.00, -1.00, 536.8, 357.0)">o</text><text xml:space="preserve" font-family="HelveticaNeue-Medium" font-size="34.0" fill="#EAEAEA" transform="matrix(1.00, 0.00, -0.00, -1.00, 556.9, 357.0)">d</text><text xml:space="preserve" font-family="HelveticaNeue-Medium" font-size="34.0" fill="#EAEAEA" transform="matrix(1.00, 0.00, -0.00, -1.00, 577.7, 357.0)"> </text><image xlink:href="../../3D22B4D2-ADB8-49BA-AB82-64DDDFBD2CFF/assets/0434DE27F38E5E710791A6F105FD76FC.png" width="18.00" height="18.00" transform="matrix(1.00, 0.00, -0.00, -1.00, 61.0, 292.0)"></image><text xml:space="preserve" font-family="HelveticaNeue-Medium" font-size="25.5" fill="#EAEAEA" transform="matrix(1.00, 0.00, -0.00, -1.00, 64.0, 275.9)">•</text><image xlink:href="../../9585C8E5-A17B-49EA-A7E1-89DA55D8E747/assets/DADD1712D567C2CA60BE28C5E8936CE8.png" width="491.00" height="34.00" transform="matrix(1.00, 0.00, -0.00, -1.00, 93.0, 300.0)"></image><text xml:space="preserve" font-family="HelveticaNeue-Medium" font-size="34.0" fill="#EAEAEA" transform="matrix(1.00, 0.00, -0.00, -1.00, 96.0, 273.0)">C</text><text xml:space="preserve" font-family="HelveticaNeue-Medium" font-size="34.0" fill="#EAEAEA" transform="matrix(1.00, 0.00, -0.00, -1.00, 120.5, 273.0)">r</text><text xml:space="preserve" font-family="HelveticaNeue-Medium" font-size="34.0" fill="#EAEAEA" transform="matrix(1.00, 0.00, -0.00, -1.00, 131.9, 273.0)">e</text><text xml:space="preserve" font-family="HelveticaNeue-Medium" font-size="34.0" fill="#EAEAEA" transform="matrix(1.00, 0.00, -0.00, -1.00, 150.8, 273.0)">a</text><text xml:space="preserve" font-family="HelveticaNeue-Medium" font-size="34.0" fill="#EAEAEA" transform="matrix(1.00, 0.00, -0.00, -1.00, 169.7, 273.0)">t</text><text xml:space="preserve" font-family="HelveticaNeue-Medium" font-size="34.0" fill="#EAEAEA" transform="matrix(1.00, 0.00, -0.00, -1.00, 181.0, 273.0)">e</text><text xml:space="preserve" font-family="HelveticaNeue-Medium" font-size="34.0" fill="#EAEAEA" transform="matrix(1.00, 0.00, -0.00, -1.00, 199.9, 273.0)"> </text><text xml:space="preserve" font-family="HelveticaNeue-Medium" font-size="34.0" fill="#EAEAEA" transform="matrix(1.00, 0.00, -0.00, -1.00, 209.4, 273.0)">a</text><text xml:space="preserve" font-family="HelveticaNeue-Medium" font-size="34.0" fill="#EAEAEA" transform="matrix(1.00, 0.00, -0.00, -1.00, 228.3, 273.0)">n</text><text xml:space="preserve" font-family="HelveticaNeue-Medium" font-size="34.0" fill="#EAEAEA" transform="matrix(1.00, 0.00, -0.00, -1.00, 247.8, 273.0)"> </text><text xml:space="preserve" font-family="HelveticaNeue-Medium" font-size="34.0" fill="#EAEAEA" transform="matrix(1.00, 0.00, -0.00, -1.00, 257.3, 273.0)">i</text><text xml:space="preserve" font-family="HelveticaNeue-Medium" font-size="34.0" fill="#EAEAEA" transform="matrix(1.00, 0.00, -0.00, -1.00, 265.5, 273.0)">n</text><text xml:space="preserve" font-family="HelveticaNeue-Medium" font-size="34.0" fill="#EAEAEA" transform="matrix(1.00, 0.00, -0.00, -1.00, 285.0, 273.0)">s</text><text xml:space="preserve" font-family="HelveticaNeue-Medium" font-size="34.0" fill="#EAEAEA" transform="matrix(1.00, 0.00, -0.00, -1.00, 302.6, 273.0)">t</text><text xml:space="preserve" font-family="HelveticaNeue-Medium" font-size="34.0" fill="#EAEAEA" transform="matrix(1.00, 0.00, -0.00, -1.00, 313.9, 273.0)">a</text><text xml:space="preserve" font-family="HelveticaNeue-Medium" font-size="34.0" fill="#EAEAEA" transform="matrix(1.00, 0.00, -0.00, -1.00, 332.8, 273.0)">n</text><text xml:space="preserve" font-family="HelveticaNeue-Medium" font-size="34.0" fill="#EAEAEA" transform="matrix(1.00, 0.00, -0.00, -1.00, 352.4, 273.0)">c</text><text xml:space="preserve" font-family="HelveticaNeue-Medium" font-size="34.0" fill="#EAEAEA" transform="matrix(1.00, 0.00, -0.00, -1.00, 371.3, 273.0)">e</text><text xml:space="preserve" font-family="HelveticaNeue-Medium" font-size="34.0" fill="#EAEAEA" transform="matrix(1.00, 0.00, -0.00, -1.00, 390.2, 273.0)"> </text><text xml:space="preserve" font-family="HelveticaNeue-Medium" font-size="34.0" fill="#EAEAEA" transform="matrix(1.00, 0.00, -0.00, -1.00, 399.6, 273.0)">o</text><text xml:space="preserve" font-family="HelveticaNeue-Medium" font-size="34.0" fill="#EAEAEA" transform="matrix(1.00, 0.00, -0.00, -1.00, 419.8, 273.0)">f</text><text xml:space="preserve" font-family="HelveticaNeue-Medium" font-size="34.0" fill="#EAEAEA" transform="matrix(1.00, 0.00, -0.00, -1.00, 430.5, 273.0)"> </text><text xml:space="preserve" font-family="HelveticaNeue-Medium" font-size="34.0" fill="#EAEAEA" transform="matrix(1.00, 0.00, -0.00, -1.00, 439.9, 273.0)">t</text><text xml:space="preserve" font-family="HelveticaNeue-Medium" font-size="34.0" fill="#EAEAEA" transform="matrix(1.00, 0.00, -0.00, -1.00, 451.3, 273.0)">h</text><text xml:space="preserve" font-family="HelveticaNeue-Medium" font-size="34.0" fill="#EAEAEA" transform="matrix(1.00, 0.00, -0.00, -1.00, 470.8, 273.0)">e</text><text xml:space="preserve" font-family="HelveticaNeue-Medium" font-size="34.0" fill="#EAEAEA" transform="matrix(1.00, 0.00, -0.00, -1.00, 489.7, 273.0)"> </text><text xml:space="preserve" font-family="HelveticaNeue-Medium" font-size="34.0" fill="#EAEAEA" transform="matrix(1.00, 0.00, -0.00, -1.00, 499.1, 273.0)">c</text><text xml:space="preserve" font-family="HelveticaNeue-Medium" font-size="34.0" fill="#EAEAEA" transform="matrix(1.00, 0.00, -0.00, -1.00, 518.0, 273.0)">l</text><text xml:space="preserve" font-family="HelveticaNeue-Medium" font-size="34.0" fill="#EAEAEA" transform="matrix(1.00, 0.00, -0.00, -1.00, 526.2, 273.0)">a</text><text xml:space="preserve" font-family="HelveticaNeue-Medium" font-size="34.0" fill="#EAEAEA" transform="matrix(1.00, 0.00, -0.00, -1.00, 545.1, 273.0)">s</text><text xml:space="preserve" font-family="HelveticaNeue-Medium" font-size="34.0" fill="#EAEAEA" transform="matrix(1.00, 0.00, -0.00, -1.00, 562.8, 273.0)">s</text><text xml:space="preserve" font-family="HelveticaNeue-Medium" font-size="34.0" fill="#EAEAEA" transform="matrix(1.00, 0.00, -0.00, -1.00, 580.4, 273.0)"> </text><image xlink:href="../../3D22B4D2-ADB8-49BA-AB82-64DDDFBD2CFF/assets/0434DE27F38E5E710791A6F105FD76FC.png" width="18.00" height="18.00" transform="matrix(1.00, 0.00, -0.00, -1.00, 93.0, 209.0)"></image><text xml:space="preserve" font-family="HelveticaNeue-Medium" font-size="25.5" fill="#EAEAEA" transform="matrix(1.00, 0.00, -0.00, -1.00, 96.0, 192.9)">•</text><image xlink:href="../../9585C8E5-A17B-49EA-A7E1-89DA55D8E747/assets/EB8203DD701CE4A313E23AD54AF1B322.png" width="406.00" height="40.00" transform="matrix(1.00, 0.00, -0.00, -1.00, 124.0, 217.0)"></image><text xml:space="preserve" font-family="HelveticaNeue-Medium" font-size="34.0" fill="#EAEAEA" transform="matrix(1.00, 0.00, -0.00, -1.00, 128.0, 190.0)">T</text><text xml:space="preserve" font-family="HelveticaNeue-Medium" font-size="34.0" fill="#EAEAEA" transform="matrix(1.00, 0.00, -0.00, -1.00, 148.2, 190.0)">h</text><text xml:space="preserve" font-family="HelveticaNeue-Medium" font-size="34.0" fill="#EAEAEA" transform="matrix(1.00, 0.00, -0.00, -1.00, 167.7, 190.0)">i</text><text xml:space="preserve" font-family="HelveticaNeue-Medium" font-size="34.0" fill="#EAEAEA" transform="matrix(1.00, 0.00, -0.00, -1.00, 175.9, 190.0)">s</text><text xml:space="preserve" font-family="HelveticaNeue-Medium" font-size="34.0" fill="#EAEAEA" transform="matrix(1.00, 0.00, -0.00, -1.00, 193.5, 190.0)"> </text><text xml:space="preserve" font-family="HelveticaNeue-Medium" font-size="34.0" fill="#EAEAEA" transform="matrix(1.00, 0.00, -0.00, -1.00, 203.0, 190.0)">i</text><text xml:space="preserve" font-family="HelveticaNeue-Medium" font-size="34.0" fill="#EAEAEA" transform="matrix(1.00, 0.00, -0.00, -1.00, 211.2, 190.0)">s</text><text xml:space="preserve" font-family="HelveticaNeue-Medium" font-size="34.0" fill="#EAEAEA" transform="matrix(1.00, 0.00, -0.00, -1.00, 228.8, 190.0)"> </text><text xml:space="preserve" font-family="HelveticaNeue-Medium" font-size="34.0" fill="#EAEAEA" transform="matrix(1.00, 0.00, -0.00, -1.00, 238.3, 190.0)">t</text><text xml:space="preserve" font-family="HelveticaNeue-Medium" font-size="34.0" fill="#EAEAEA" transform="matrix(1.00, 0.00, -0.00, -1.00, 249.6, 190.0)">h</text><text xml:space="preserve" font-family="HelveticaNeue-Medium" font-size="34.0" fill="#EAEAEA" transform="matrix(1.00, 0.00, -0.00, -1.00, 269.1, 190.0)">e</text><text xml:space="preserve" font-family="HelveticaNeue-Medium" font-size="34.0" fill="#EAEAEA" transform="matrix(1.00, 0.00, -0.00, -1.00, 288.0, 190.0)"> </text><text xml:space="preserve" font-family="HelveticaNeue-Medium" font-size="34.0" fill="#EAEAEA" transform="matrix(1.00, 0.00, -0.00, -1.00, 297.5, 190.0)">c</text><text xml:space="preserve" font-family="HelveticaNeue-Medium" font-size="34.0" fill="#EAEAEA" transform="matrix(1.00, 0.00, -0.00, -1.00, 316.4, 190.0)">a</text><text xml:space="preserve" font-family="HelveticaNeue-Medium" font-size="34.0" fill="#EAEAEA" transform="matrix(1.00, 0.00, -0.00, -1.00, 335.3, 190.0)">l</text><text xml:space="preserve" font-family="HelveticaNeue-Medium" font-size="34.0" fill="#EAEAEA" transform="matrix(1.00, 0.00, -0.00, -1.00, 343.5, 190.0)">l</text><text xml:space="preserve" font-family="HelveticaNeue-Medium" font-size="34.0" fill="#EAEAEA" transform="matrix(1.00, 0.00, -0.00, -1.00, 351.7, 190.0)">a</text><text xml:space="preserve" font-family="HelveticaNeue-Medium" font-size="34.0" fill="#EAEAEA" transform="matrix(1.00, 0.00, -0.00, -1.00, 370.6, 190.0)">b</text><text xml:space="preserve" font-family="HelveticaNeue-Medium" font-size="34.0" fill="#EAEAEA" transform="matrix(1.00, 0.00, -0.00, -1.00, 391.3, 190.0)">l</text><text xml:space="preserve" font-family="HelveticaNeue-Medium" font-size="34.0" fill="#EAEAEA" transform="matrix(1.00, 0.00, -0.00, -1.00, 399.5, 190.0)">e</text><text xml:space="preserve" font-family="HelveticaNeue-Medium" font-size="34.0" fill="#EAEAEA" transform="matrix(1.00, 0.00, -0.00, -1.00, 418.4, 190.0)"> </text><text xml:space="preserve" font-family="HelveticaNeue-Medium" font-size="34.0" fill="#EAEAEA" transform="matrix(1.00, 0.00, -0.00, -1.00, 427.9, 190.0)">o</text><text xml:space="preserve" font-family="HelveticaNeue-Medium" font-size="34.0" fill="#EAEAEA" transform="matrix(1.00, 0.00, -0.00, -1.00, 448.0, 190.0)">b</text><text xml:space="preserve" font-family="HelveticaNeue-Medium" font-size="34.0" fill="#EAEAEA" transform="matrix(1.00, 0.00, -0.00, -1.00, 468.8, 190.0)">j</text><text xml:space="preserve" font-family="HelveticaNeue-Medium" font-size="34.0" fill="#EAEAEA" transform="matrix(1.00, 0.00, -0.00, -1.00, 477.0, 190.0)">e</text><text xml:space="preserve" font-family="HelveticaNeue-Medium" font-size="34.0" fill="#EAEAEA" transform="matrix(1.00, 0.00, -0.00, -1.00, 495.9, 190.0)">c</text><text xml:space="preserve" font-family="HelveticaNeue-Medium" font-size="34.0" fill="#EAEAEA" transform="matrix(1.00, 0.00, -0.00, -1.00, 514.8, 190.0)">t</text><text xml:space="preserve" font-family="HelveticaNeue-Medium" font-size="34.0" fill="#EAEAEA" transform="matrix(1.00, 0.00, -0.00, -1.00, 526.1, 190.0)"> </text><image xlink:href="../../3D22B4D2-ADB8-49BA-AB82-64DDDFBD2CFF/assets/0434DE27F38E5E710791A6F105FD76FC.png" width="18.00" height="18.00" transform="matrix(1.00, 0.00, -0.00, -1.00, 93.0, 126.0)"></image><text xml:space="preserve" font-family="HelveticaNeue-Medium" font-size="25.5" fill="#EAEAEA" transform="matrix(1.00, 0.00, -0.00, -1.00, 96.0, 109.9)">•</text><image xlink:href="../../9585C8E5-A17B-49EA-A7E1-89DA55D8E747/assets/57995A3D1142A38B2F26B5238E1606A5.png" width="345.00" height="39.00" transform="matrix(1.00, 0.00, -0.00, -1.00, 125.0, 134.0)"></image><text xml:space="preserve" font-family="HelveticaNeue-Medium" font-size="34.0" fill="#EAEAEA" transform="matrix(1.00, 0.00, -0.00, -1.00, 128.0, 107.0)">S</text><text xml:space="preserve" font-family="HelveticaNeue-Medium" font-size="34.0" fill="#EAEAEA" transform="matrix(1.00, 0.00, -0.00, -1.00, 150.0, 107.0)">i</text><text xml:space="preserve" font-family="HelveticaNeue-Medium" font-size="34.0" fill="#EAEAEA" transform="matrix(1.00, 0.00, -0.00, -1.00, 158.2, 107.0)">m</text><text xml:space="preserve" font-family="HelveticaNeue-Medium" font-size="34.0" fill="#EAEAEA" transform="matrix(1.00, 0.00, -0.00, -1.00, 187.8, 107.0)">i</text><text xml:space="preserve" font-family="HelveticaNeue-Medium" font-size="34.0" fill="#EAEAEA" transform="matrix(1.00, 0.00, -0.00, -1.00, 196.0, 107.0)">l</text><text xml:space="preserve" font-family="HelveticaNeue-Medium" font-size="34.0" fill="#EAEAEA" transform="matrix(1.00, 0.00, -0.00, -1.00, 204.2, 107.0)">a</text><text xml:space="preserve" font-family="HelveticaNeue-Medium" font-size="34.0" fill="#EAEAEA" transform="matrix(1.00, 0.00, -0.00, -1.00, 223.1, 107.0)">r</text><text xml:space="preserve" font-family="HelveticaNeue-Medium" font-size="34.0" fill="#EAEAEA" transform="matrix(1.00, 0.00, -0.00, -1.00, 235.1, 107.0)"> </text><text xml:space="preserve" font-family="HelveticaNeue-Medium" font-size="34.0" fill="#EAEAEA" transform="matrix(1.00, 0.00, -0.00, -1.00, 244.5, 107.0)">t</text><text xml:space="preserve" font-family="HelveticaNeue-Medium" font-size="34.0" fill="#EAEAEA" transform="matrix(1.00, 0.00, -0.00, -1.00, 255.8, 107.0)">o</text><text xml:space="preserve" font-family="HelveticaNeue-Medium" font-size="34.0" fill="#EAEAEA" transform="matrix(1.00, 0.00, -0.00, -1.00, 276.0, 107.0)"> </text><text xml:space="preserve" font-family="HelveticaNeue-Medium" font-size="34.0" fill="#EAEAEA" transform="matrix(1.00, 0.00, -0.00, -1.00, 285.5, 107.0)">a</text><text xml:space="preserve" font-family="HelveticaNeue-Medium" font-size="34.0" fill="#EAEAEA" transform="matrix(1.00, 0.00, -0.00, -1.00, 304.4, 107.0)"> </text><text xml:space="preserve" font-family="HelveticaNeue-Medium" font-size="34.0" fill="#EAEAEA" transform="matrix(1.00, 0.00, -0.00, -1.00, 313.8, 107.0)">d</text><text xml:space="preserve" font-family="HelveticaNeue-Medium" font-size="34.0" fill="#EAEAEA" transform="matrix(1.00, 0.00, -0.00, -1.00, 334.6, 107.0)">e</text><text xml:space="preserve" font-family="HelveticaNeue-Medium" font-size="34.0" fill="#EAEAEA" transform="matrix(1.00, 0.00, -0.00, -1.00, 353.5, 107.0)">f</text><text xml:space="preserve" font-family="HelveticaNeue-Medium" font-size="34.0" fill="#EAEAEA" transform="matrix(1.00, 0.00, -0.00, -1.00, 364.2, 107.0)">,</text><text xml:space="preserve" font-family="HelveticaNeue-Medium" font-size="34.0" fill="#EAEAEA" transform="matrix(1.00, 0.00, -0.00, -1.00, 373.6, 107.0)"> </text><text xml:space="preserve" font-family="HelveticaNeue-Medium" font-size="34.0" fill="#EAEAEA" transform="matrix(1.00, 0.00, -0.00, -1.00, 383.1, 107.0)">b</text><text xml:space="preserve" font-family="HelveticaNeue-Medium" font-size="34.0" fill="#EAEAEA" transform="matrix(1.00, 0.00, -0.00, -1.00, 403.9, 107.0)">u</text><text xml:space="preserve" font-family="HelveticaNeue-Medium" font-size="34.0" fill="#EAEAEA" transform="matrix(1.00, 0.00, -0.00, -1.00, 423.4, 107.0)">t</text><text xml:space="preserve" font-family="HelveticaNeue-Medium" font-size="34.0" fill="#EAEAEA" transform="matrix(1.00, 0.00, -0.00, -1.00, 434.7, 107.0)">…</text></g></svg>