<?xml version="1.0" encoding="UTF-8" standalone="no"?><svg xmlns="http://www.w3.org/2000/svg" xmlns:xlink="http://www.w3.org/1999/xlink" clip-rule="evenodd" stroke-miterlimit="4.00" viewBox="0 0 1024 768"><desc>SVG generated by Keynote</desc><defs></defs><g transform="matrix(1.00, 0.00, -0.00, -1.00, 0.0, 768.0)"><g><clipPath id="clip-191"><path d="M 0.0 768.0 L 1024.0 768.0 L 1024.0 0.0 L 0.0 0.0 Z M 0.0 768.0 "></path></clipPath><g clip-path="url(#clip-191)"><image xlink:href="../../363ACDF5-F69A-4348-A617-267FC1DCB792/assets/2CA05975C404A6B79EB2D17D5C3EEC1C.jpeg" width="1024.00" height="768.00" transform="matrix(1.00, 0.00, -0.00, -1.00, 0.0, 768.0)"></image></g></g><image xlink:href="730030E8720BB226D79760FC47595F32.png" width="669.00" height="67.00" transform="matrix(1.00, 0.00, -0.00, -1.00, 176.0, 693.0)"></image><text xml:space="preserve" font-family="HelveticaNeue-Bold" font-weight="bold" font-size="64.0" fill="#FEFFFE" transform="matrix(1.00, 0.00, -0.00, -1.00, 180.0, 644.0)">T</text><text xml:space="preserve" font-family="HelveticaNeue-Bold" font-weight="bold" font-size="64.0" fill="#FEFFFE" transform="matrix(1.00, 0.00, -0.00, -1.00, 219.1, 644.0)">h</text><text xml:space="preserve" font-family="HelveticaNeue-Bold" font-weight="bold" font-size="64.0" fill="#FEFFFE" transform="matrix(1.00, 0.00, -0.00, -1.00, 257.1, 644.0)">e</text><text xml:space="preserve" font-family="HelveticaNeue-Bold" font-weight="bold" font-size="64.0" fill="#FEFFFE" transform="matrix(1.00, 0.00, -0.00, -1.00, 293.8, 644.0)"> </text><text xml:space="preserve" font-family="HelveticaNeue-Bold" font-weight="bold" font-size="64.0" fill="#FEFFFE" transform="matrix(1.00, 0.00, -0.00, -1.00, 311.6, 644.0)">C</text><text xml:space="preserve" font-family="HelveticaNeue-Bold" font-weight="bold" font-size="64.0" fill="#FEFFFE" transform="matrix(1.00, 0.00, -0.00, -1.00, 359.0, 644.0)">o</text><text xml:space="preserve" font-family="HelveticaNeue-Bold" font-weight="bold" font-size="64.0" fill="#FEFFFE" transform="matrix(1.00, 0.00, -0.00, -1.00, 398.1, 644.0)">m</text><text xml:space="preserve" font-family="HelveticaNeue-Bold" font-weight="bold" font-size="64.0" fill="#FEFFFE" transform="matrix(1.00, 0.00, -0.00, -1.00, 456.1, 644.0)">p</text><text xml:space="preserve" font-family="HelveticaNeue-Bold" font-weight="bold" font-size="64.0" fill="#FEFFFE" transform="matrix(1.00, 0.00, -0.00, -1.00, 495.2, 644.0)">u</text><text xml:space="preserve" font-family="HelveticaNeue-Bold" font-weight="bold" font-size="64.0" fill="#FEFFFE" transform="matrix(1.00, 0.00, -0.00, -1.00, 533.2, 644.0)">t</text><text xml:space="preserve" font-family="HelveticaNeue-Bold" font-weight="bold" font-size="64.0" fill="#FEFFFE" transform="matrix(1.00, 0.00, -0.00, -1.00, 555.7, 644.0)">e</text><text xml:space="preserve" font-family="HelveticaNeue-Bold" font-weight="bold" font-size="64.0" fill="#FEFFFE" transform="matrix(1.00, 0.00, -0.00, -1.00, 592.4, 644.0)"> </text><text xml:space="preserve" font-family="HelveticaNeue-Bold" font-weight="bold" font-size="64.0" fill="#FEFFFE" transform="matrix(1.00, 0.00, -0.00, -1.00, 610.2, 644.0)">M</text><text xml:space="preserve" font-family="HelveticaNeue-Bold" font-weight="bold" font-size="64.0" fill="#FEFFFE" transform="matrix(1.00, 0.00, -0.00, -1.00, 668.3, 644.0)">e</text><text xml:space="preserve" font-family="HelveticaNeue-Bold" font-weight="bold" font-size="64.0" fill="#FEFFFE" transform="matrix(1.00, 0.00, -0.00, -1.00, 705.0, 644.0)">t</text><text xml:space="preserve" font-family="HelveticaNeue-Bold" font-weight="bold" font-size="64.0" fill="#FEFFFE" transform="matrix(1.00, 0.00, -0.00, -1.00, 727.5, 644.0)">h</text><text xml:space="preserve" font-family="HelveticaNeue-Bold" font-weight="bold" font-size="64.0" fill="#FEFFFE" transform="matrix(1.00, 0.00, -0.00, -1.00, 765.5, 644.0)">o</text><text xml:space="preserve" font-family="HelveticaNeue-Bold" font-weight="bold" font-size="64.0" fill="#FEFFFE" transform="matrix(1.00, 0.00, -0.00, -1.00, 804.6, 644.0)">d</text><image xlink:href="BE65956AAF86EB600196AD924B3F17E2.png" width="414.00" height="39.00" transform="matrix(1.00, 0.00, -0.00, -1.00, 141.0, 545.0)"></image><text xml:space="preserve" font-family="AndaleMono" font-size="33.0" fill="#EAEAEA" transform="matrix(1.00, 0.00, -0.00, -1.00, 64.0, 519.0)"> </text><text xml:space="preserve" font-family="AndaleMono" font-size="33.0" fill="#EAEAEA" transform="matrix(1.00, 0.00, -0.00, -1.00, 83.8, 519.0)"> </text><text xml:space="preserve" font-family="AndaleMono" font-size="33.0" fill="#EAEAEA" transform="matrix(1.00, 0.00, -0.00, -1.00, 103.6, 519.0)"> </text><text xml:space="preserve" font-family="AndaleMono" font-size="33.0" fill="#EAEAEA" transform="matrix(1.00, 0.00, -0.00, -1.00, 123.4, 519.0)"> </text><text xml:space="preserve" font-family="AndaleMono" font-size="33.0" fill="#EAEAEA" transform="matrix(1.00, 0.00, -0.00, -1.00, 143.2, 519.0)">d</text><text xml:space="preserve" font-family="AndaleMono" font-size="33.0" fill="#EAEAEA" transform="matrix(1.00, 0.00, -0.00, -1.00, 163.0, 519.0)">e</text><text xml:space="preserve" font-family="AndaleMono" font-size="33.0" fill="#EAEAEA" transform="matrix(1.00, 0.00, -0.00, -1.00, 182.8, 519.0)">f</text><text xml:space="preserve" font-family="AndaleMono" font-size="33.0" fill="#EAEAEA" transform="matrix(1.00, 0.00, -0.00, -1.00, 202.6, 519.0)"> </text><text xml:space="preserve" font-family="AndaleMono" font-size="33.0" fill="#EAEAEA" transform="matrix(1.00, 0.00, -0.00, -1.00, 222.5, 519.0)">c</text><text xml:space="preserve" font-family="AndaleMono" font-size="33.0" fill="#EAEAEA" transform="matrix(1.00, 0.00, -0.00, -1.00, 242.3, 519.0)">o</text><text xml:space="preserve" font-family="AndaleMono" font-size="33.0" fill="#EAEAEA" transform="matrix(1.00, 0.00, -0.00, -1.00, 262.1, 519.0)">m</text><text xml:space="preserve" font-family="AndaleMono" font-size="33.0" fill="#EAEAEA" transform="matrix(1.00, 0.00, -0.00, -1.00, 281.9, 519.0)">p</text><text xml:space="preserve" font-family="AndaleMono" font-size="33.0" fill="#EAEAEA" transform="matrix(1.00, 0.00, -0.00, -1.00, 301.7, 519.0)">u</text><text xml:space="preserve" font-family="AndaleMono" font-size="33.0" fill="#EAEAEA" transform="matrix(1.00, 0.00, -0.00, -1.00, 321.5, 519.0)">t</text><text xml:space="preserve" font-family="AndaleMono" font-size="33.0" fill="#EAEAEA" transform="matrix(1.00, 0.00, -0.00, -1.00, 341.3, 519.0)">e</text><text xml:space="preserve" font-family="AndaleMono" font-size="33.0" fill="#EAEAEA" transform="matrix(1.00, 0.00, -0.00, -1.00, 361.1, 519.0)">(</text><text xml:space="preserve" font-family="AndaleMono" font-size="33.0" fill="#EAEAEA" transform="matrix(1.00, 0.00, -0.00, -1.00, 380.9, 519.0)">s</text><text xml:space="preserve" font-family="AndaleMono" font-size="33.0" fill="#EAEAEA" transform="matrix(1.00, 0.00, -0.00, -1.00, 400.7, 519.0)">e</text><text xml:space="preserve" font-family="AndaleMono" font-size="33.0" fill="#EAEAEA" transform="matrix(1.00, 0.00, -0.00, -1.00, 420.5, 519.0)">l</text><text xml:space="preserve" font-family="AndaleMono" font-size="33.0" fill="#EAEAEA" transform="matrix(1.00, 0.00, -0.00, -1.00, 440.3, 519.0)">f</text><text xml:space="preserve" font-family="AndaleMono" font-size="33.0" fill="#EAEAEA" transform="matrix(1.00, 0.00, -0.00, -1.00, 460.1, 519.0)">,</text><text xml:space="preserve" font-family="AndaleMono" font-size="33.0" fill="#EAEAEA" transform="matrix(1.00, 0.00, -0.00, -1.00, 479.9, 519.0)"> </text><text xml:space="preserve" font-family="AndaleMono" font-size="33.0" fill="#EAEAEA" transform="matrix(1.00, 0.00, -0.00, -1.00, 499.7, 519.0)">n</text><text xml:space="preserve" font-family="AndaleMono" font-size="33.0" fill="#EAEAEA" transform="matrix(1.00, 0.00, -0.00, -1.00, 519.6, 519.0)">)</text><text xml:space="preserve" font-family="AndaleMono" font-size="33.0" fill="#EAEAEA" transform="matrix(1.00, 0.00, -0.00, -1.00, 539.4, 519.0)">:</text><text xml:space="preserve" font-family="AndaleMono" font-size="33.0" fill="#EAEAEA" transform="matrix(1.00, 0.00, -0.00, -1.00, 559.1, 519.0)"> </text><image xlink:href="A9017D86C9DF9C786348E293FAAE1478.png" width="377.00" height="33.00" transform="matrix(1.00, 0.00, -0.00, -1.00, 223.0, 466.0)"></image><text xml:space="preserve" font-family="AndaleMono" font-size="33.0" fill="#EAEAEA" transform="matrix(1.00, 0.00, -0.00, -1.00, 64.0, 440.0)"> </text><text xml:space="preserve" font-family="AndaleMono" font-size="33.0" fill="#EAEAEA" transform="matrix(1.00, 0.00, -0.00, -1.00, 83.8, 440.0)"> </text><text xml:space="preserve" font-family="AndaleMono" font-size="33.0" fill="#EAEAEA" transform="matrix(1.00, 0.00, -0.00, -1.00, 103.6, 440.0)"> </text><text xml:space="preserve" font-family="AndaleMono" font-size="33.0" fill="#EAEAEA" transform="matrix(1.00, 0.00, -0.00, -1.00, 123.4, 440.0)"> </text><text xml:space="preserve" font-family="AndaleMono" font-size="33.0" fill="#EAEAEA" transform="matrix(1.00, 0.00, -0.00, -1.00, 143.2, 440.0)"> </text><text xml:space="preserve" font-family="AndaleMono" font-size="33.0" fill="#EAEAEA" transform="matrix(1.00, 0.00, -0.00, -1.00, 163.0, 440.0)"> </text><text xml:space="preserve" font-family="AndaleMono" font-size="33.0" fill="#EAEAEA" transform="matrix(1.00, 0.00, -0.00, -1.00, 182.8, 440.0)"> </text><text xml:space="preserve" font-family="AndaleMono" font-size="33.0" fill="#EAEAEA" transform="matrix(1.00, 0.00, -0.00, -1.00, 202.6, 440.0)"> </text><text xml:space="preserve" font-family="AndaleMono" font-size="33.0" fill="#EAEAEA" transform="matrix(1.00, 0.00, -0.00, -1.00, 222.5, 440.0)">i</text><text xml:space="preserve" font-family="AndaleMono" font-size="33.0" fill="#EAEAEA" transform="matrix(1.00, 0.00, -0.00, -1.00, 242.3, 440.0)">f</text><text xml:space="preserve" font-family="AndaleMono" font-size="33.0" fill="#EAEAEA" transform="matrix(1.00, 0.00, -0.00, -1.00, 262.1, 440.0)"> </text><text xml:space="preserve" font-family="AndaleMono" font-size="33.0" fill="#EAEAEA" transform="matrix(1.00, 0.00, -0.00, -1.00, 281.9, 440.0)">n</text><text xml:space="preserve" font-family="AndaleMono" font-size="33.0" fill="#EAEAEA" transform="matrix(1.00, 0.00, -0.00, -1.00, 301.7, 440.0)"> </text><text xml:space="preserve" font-family="AndaleMono" font-size="33.0" fill="#EAEAEA" transform="matrix(1.00, 0.00, -0.00, -1.00, 321.5, 440.0)">=</text><text xml:space="preserve" font-family="AndaleMono" font-size="33.0" fill="#EAEAEA" transform="matrix(1.00, 0.00, -0.00, -1.00, 341.3, 440.0)">=</text><text xml:space="preserve" font-family="AndaleMono" font-size="33.0" fill="#EAEAEA" transform="matrix(1.00, 0.00, -0.00, -1.00, 361.1, 440.0)"> </text><text xml:space="preserve" font-family="AndaleMono" font-size="33.0" fill="#EAEAEA" transform="matrix(1.00, 0.00, -0.00, -1.00, 380.9, 440.0)">0</text><text xml:space="preserve" font-family="AndaleMono" font-size="33.0" fill="#EAEAEA" transform="matrix(1.00, 0.00, -0.00, -1.00, 400.7, 440.0)">:</text><text xml:space="preserve" font-family="AndaleMono" font-size="33.0" fill="#EAEAEA" transform="matrix(1.00, 0.00, -0.00, -1.00, 420.5, 440.0)"> </text><text xml:space="preserve" font-family="AndaleMono" font-size="33.0" fill="#EAEAEA" transform="matrix(1.00, 0.00, -0.00, -1.00, 440.3, 440.0)">r</text><text xml:space="preserve" font-family="AndaleMono" font-size="33.0" fill="#EAEAEA" transform="matrix(1.00, 0.00, -0.00, -1.00, 460.1, 440.0)">e</text><text xml:space="preserve" font-family="AndaleMono" font-size="33.0" fill="#EAEAEA" transform="matrix(1.00, 0.00, -0.00, -1.00, 479.9, 440.0)">t</text><text xml:space="preserve" font-family="AndaleMono" font-size="33.0" fill="#EAEAEA" transform="matrix(1.00, 0.00, -0.00, -1.00, 499.7, 440.0)">u</text><text xml:space="preserve" font-family="AndaleMono" font-size="33.0" fill="#EAEAEA" transform="matrix(1.00, 0.00, -0.00, -1.00, 519.6, 440.0)">r</text><text xml:space="preserve" font-family="AndaleMono" font-size="33.0" fill="#EAEAEA" transform="matrix(1.00, 0.00, -0.00, -1.00, 539.4, 440.0)">n</text><text xml:space="preserve" font-family="AndaleMono" font-size="33.0" fill="#EAEAEA" transform="matrix(1.00, 0.00, -0.00, -1.00, 559.2, 440.0)"> </text><text xml:space="preserve" font-family="AndaleMono" font-size="33.0" fill="#EAEAEA" transform="matrix(1.00, 0.00, -0.00, -1.00, 579.0, 440.0)">1</text><text xml:space="preserve" font-family="AndaleMono" font-size="33.0" fill="#EAEAEA" transform="matrix(1.00, 0.00, -0.00, -1.00, 598.7, 440.0)"> </text><image xlink:href="05B425E0EE5598A25A1DD7BBF472B13D.png" width="532.00" height="40.00" transform="matrix(1.00, 0.00, -0.00, -1.00, 302.0, 387.0)"></image><text xml:space="preserve" font-family="AndaleMono" font-size="33.0" fill="#EAEAEA" transform="matrix(1.00, 0.00, -0.00, -1.00, 64.0, 361.0)"> </text><text xml:space="preserve" font-family="AndaleMono" font-size="33.0" fill="#EAEAEA" transform="matrix(1.00, 0.00, -0.00, -1.00, 83.8, 361.0)"> </text><text xml:space="preserve" font-family="AndaleMono" font-size="33.0" fill="#EAEAEA" transform="matrix(1.00, 0.00, -0.00, -1.00, 103.6, 361.0)"> </text><text xml:space="preserve" font-family="AndaleMono" font-size="33.0" fill="#EAEAEA" transform="matrix(1.00, 0.00, -0.00, -1.00, 123.4, 361.0)"> </text><text xml:space="preserve" font-family="AndaleMono" font-size="33.0" fill="#EAEAEA" transform="matrix(1.00, 0.00, -0.00, -1.00, 143.2, 361.0)"> </text><text xml:space="preserve" font-family="AndaleMono" font-size="33.0" fill="#EAEAEA" transform="matrix(1.00, 0.00, -0.00, -1.00, 163.0, 361.0)"> </text><text xml:space="preserve" font-family="AndaleMono" font-size="33.0" fill="#EAEAEA" transform="matrix(1.00, 0.00, -0.00, -1.00, 182.8, 361.0)"> </text><text xml:space="preserve" font-family="AndaleMono" font-size="33.0" fill="#EAEAEA" transform="matrix(1.00, 0.00, -0.00, -1.00, 202.6, 361.0)"> </text><text xml:space="preserve" font-family="AndaleMono" font-size="33.0" fill="#EAEAEA" transform="matrix(1.00, 0.00, -0.00, -1.00, 222.5, 361.0)"> </text><text xml:space="preserve" font-family="AndaleMono" font-size="33.0" fill="#EAEAEA" transform="matrix(1.00, 0.00, -0.00, -1.00, 242.3, 361.0)"> </text><text xml:space="preserve" font-family="AndaleMono" font-size="33.0" fill="#EAEAEA" transform="matrix(1.00, 0.00, -0.00, -1.00, 262.1, 361.0)"> </text><text xml:space="preserve" font-family="AndaleMono" font-size="33.0" fill="#EAEAEA" transform="matrix(1.00, 0.00, -0.00, -1.00, 281.9, 361.0)"> </text><text xml:space="preserve" font-family="AndaleMono" font-size="33.0" fill="#EAEAEA" transform="matrix(1.00, 0.00, -0.00, -1.00, 301.7, 361.0)">r</text><text xml:space="preserve" font-family="AndaleMono" font-size="33.0" fill="#EAEAEA" transform="matrix(1.00, 0.00, -0.00, -1.00, 321.5, 361.0)">e</text><text xml:space="preserve" font-family="AndaleMono" font-size="33.0" fill="#EAEAEA" transform="matrix(1.00, 0.00, -0.00, -1.00, 341.3, 361.0)">t</text><text xml:space="preserve" font-family="AndaleMono" font-size="33.0" fill="#EAEAEA" transform="matrix(1.00, 0.00, -0.00, -1.00, 361.1, 361.0)">u</text><text xml:space="preserve" font-family="AndaleMono" font-size="33.0" fill="#EAEAEA" transform="matrix(1.00, 0.00, -0.00, -1.00, 380.9, 361.0)">r</text><text xml:space="preserve" font-family="AndaleMono" font-size="33.0" fill="#EAEAEA" transform="matrix(1.00, 0.00, -0.00, -1.00, 400.7, 361.0)">n</text><text xml:space="preserve" font-family="AndaleMono" font-size="33.0" fill="#EAEAEA" transform="matrix(1.00, 0.00, -0.00, -1.00, 420.5, 361.0)"> </text><text xml:space="preserve" font-family="AndaleMono" font-size="33.0" fill="#EAEAEA" transform="matrix(1.00, 0.00, -0.00, -1.00, 440.3, 361.0)">n</text><text xml:space="preserve" font-family="AndaleMono" font-size="33.0" fill="#EAEAEA" transform="matrix(1.00, 0.00, -0.00, -1.00, 460.1, 361.0)">*</text><text xml:space="preserve" font-family="AndaleMono" font-size="33.0" fill="#EAEAEA" transform="matrix(1.00, 0.00, -0.00, -1.00, 479.9, 361.0)">s</text><text xml:space="preserve" font-family="AndaleMono" font-size="33.0" fill="#EAEAEA" transform="matrix(1.00, 0.00, -0.00, -1.00, 499.7, 361.0)">e</text><text xml:space="preserve" font-family="AndaleMono" font-size="33.0" fill="#EAEAEA" transform="matrix(1.00, 0.00, -0.00, -1.00, 519.6, 361.0)">l</text><text xml:space="preserve" font-family="AndaleMono" font-size="33.0" fill="#EAEAEA" transform="matrix(1.00, 0.00, -0.00, -1.00, 539.4, 361.0)">f</text><text xml:space="preserve" font-family="AndaleMono" font-size="33.0" fill="#EAEAEA" transform="matrix(1.00, 0.00, -0.00, -1.00, 559.2, 361.0)">.</text><text xml:space="preserve" font-family="AndaleMono" font-size="33.0" fill="#EAEAEA" transform="matrix(1.00, 0.00, -0.00, -1.00, 579.0, 361.0)">_</text><text xml:space="preserve" font-family="AndaleMono" font-size="33.0" fill="#EAEAEA" transform="matrix(1.00, 0.00, -0.00, -1.00, 598.8, 361.0)">_</text><text xml:space="preserve" font-family="AndaleMono" font-size="33.0" fill="#EAEAEA" transform="matrix(1.00, 0.00, -0.00, -1.00, 618.6, 361.0)">c</text><text xml:space="preserve" font-family="AndaleMono" font-size="33.0" fill="#EAEAEA" transform="matrix(1.00, 0.00, -0.00, -1.00, 638.4, 361.0)">a</text><text xml:space="preserve" font-family="AndaleMono" font-size="33.0" fill="#EAEAEA" transform="matrix(1.00, 0.00, -0.00, -1.00, 658.2, 361.0)">l</text><text xml:space="preserve" font-family="AndaleMono" font-size="33.0" fill="#EAEAEA" transform="matrix(1.00, 0.00, -0.00, -1.00, 678.0, 361.0)">l</text><text xml:space="preserve" font-family="AndaleMono" font-size="33.0" fill="#EAEAEA" transform="matrix(1.00, 0.00, -0.00, -1.00, 697.8, 361.0)">_</text><text xml:space="preserve" font-family="AndaleMono" font-size="33.0" fill="#EAEAEA" transform="matrix(1.00, 0.00, -0.00, -1.00, 717.6, 361.0)">_</text><text xml:space="preserve" font-family="AndaleMono" font-size="33.0" fill="#EAEAEA" transform="matrix(1.00, 0.00, -0.00, -1.00, 737.4, 361.0)">(</text><text xml:space="preserve" font-family="AndaleMono" font-size="33.0" fill="#EAEAEA" transform="matrix(1.00, 0.00, -0.00, -1.00, 757.2, 361.0)">n</text><text xml:space="preserve" font-family="AndaleMono" font-size="33.0" fill="#EAEAEA" transform="matrix(1.00, 0.00, -0.00, -1.00, 777.0, 361.0)">-</text><text xml:space="preserve" font-family="AndaleMono" font-size="33.0" fill="#EAEAEA" transform="matrix(1.00, 0.00, -0.00, -1.00, 796.8, 361.0)">1</text><text xml:space="preserve" font-family="AndaleMono" font-size="33.0" fill="#EAEAEA" transform="matrix(1.00, 0.00, -0.00, -1.00, 816.6, 361.0)">)</text><image xlink:href="../../D9433726-5947-428F-A554-7984E936C271/assets/22338A021207344BFFC0BA20AE086817.png" width="18.00" height="18.00" transform="matrix(1.00, 0.00, -0.00, -1.00, 61.0, 298.0)"></image><text xml:space="preserve" font-family="HelveticaNeue-Medium" font-size="25.5" fill="#EAEAEA" transform="matrix(1.00, 0.00, -0.00, -1.00, 64.0, 281.9)">•</text><image xlink:href="F57B4B7C86CE13A33F154A48B2FC0FBB.png" width="565.00" height="40.00" transform="matrix(1.00, 0.00, -0.00, -1.00, 92.0, 306.0)"></image><text xml:space="preserve" font-family="HelveticaNeue-Medium" font-size="34.0" fill="#EAEAEA" transform="matrix(1.00, 0.00, -0.00, -1.00, 96.0, 279.0)">T</text><text xml:space="preserve" font-family="HelveticaNeue-Medium" font-size="34.0" fill="#EAEAEA" transform="matrix(1.00, 0.00, -0.00, -1.00, 116.2, 279.0)">h</text><text xml:space="preserve" font-family="HelveticaNeue-Medium" font-size="34.0" fill="#EAEAEA" transform="matrix(1.00, 0.00, -0.00, -1.00, 135.7, 279.0)">e</text><text xml:space="preserve" font-family="HelveticaNeue-Medium" font-size="34.0" fill="#EAEAEA" transform="matrix(1.00, 0.00, -0.00, -1.00, 154.6, 279.0)"> </text><text xml:space="preserve" font-family="HelveticaNeue-Medium" font-size="34.0" fill="#EAEAEA" transform="matrix(1.00, 0.00, -0.00, -1.00, 164.0, 279.0)">r</text><text xml:space="preserve" font-family="HelveticaNeue-Medium" font-size="34.0" fill="#EAEAEA" transform="matrix(1.00, 0.00, -0.00, -1.00, 175.4, 279.0)">e</text><text xml:space="preserve" font-family="HelveticaNeue-Medium" font-size="34.0" fill="#EAEAEA" transform="matrix(1.00, 0.00, -0.00, -1.00, 194.3, 279.0)">a</text><text xml:space="preserve" font-family="HelveticaNeue-Medium" font-size="34.0" fill="#EAEAEA" transform="matrix(1.00, 0.00, -0.00, -1.00, 213.2, 279.0)">l</text><text xml:space="preserve" font-family="HelveticaNeue-Medium" font-size="34.0" fill="#EAEAEA" transform="matrix(1.00, 0.00, -0.00, -1.00, 221.4, 279.0)"> </text><text xml:space="preserve" font-family="HelveticaNeue-Medium" font-size="34.0" fill="#EAEAEA" transform="matrix(1.00, 0.00, -0.00, -1.00, 230.8, 279.0)">w</text><text xml:space="preserve" font-family="HelveticaNeue-Medium" font-size="34.0" fill="#EAEAEA" transform="matrix(1.00, 0.00, -0.00, -1.00, 257.3, 279.0)">o</text><text xml:space="preserve" font-family="HelveticaNeue-Medium" font-size="34.0" fill="#EAEAEA" transform="matrix(1.00, 0.00, -0.00, -1.00, 277.5, 279.0)">r</text><text xml:space="preserve" font-family="HelveticaNeue-Medium" font-size="34.0" fill="#EAEAEA" transform="matrix(1.00, 0.00, -0.00, -1.00, 289.4, 279.0)">k</text><text xml:space="preserve" font-family="HelveticaNeue-Medium" font-size="34.0" fill="#EAEAEA" transform="matrix(1.00, 0.00, -0.00, -1.00, 307.7, 279.0)"> </text><text xml:space="preserve" font-family="HelveticaNeue-Medium" font-size="34.0" fill="#EAEAEA" transform="matrix(1.00, 0.00, -0.00, -1.00, 317.1, 279.0)">o</text><text xml:space="preserve" font-family="HelveticaNeue-Medium" font-size="34.0" fill="#EAEAEA" transform="matrix(1.00, 0.00, -0.00, -1.00, 337.3, 279.0)">f</text><text xml:space="preserve" font-family="HelveticaNeue-Medium" font-size="34.0" fill="#EAEAEA" transform="matrix(1.00, 0.00, -0.00, -1.00, 348.0, 279.0)"> </text><text xml:space="preserve" font-family="HelveticaNeue-Medium" font-size="34.0" fill="#EAEAEA" transform="matrix(1.00, 0.00, -0.00, -1.00, 357.5, 279.0)">t</text><text xml:space="preserve" font-family="HelveticaNeue-Medium" font-size="34.0" fill="#EAEAEA" transform="matrix(1.00, 0.00, -0.00, -1.00, 368.8, 279.0)">h</text><text xml:space="preserve" font-family="HelveticaNeue-Medium" font-size="34.0" fill="#EAEAEA" transform="matrix(1.00, 0.00, -0.00, -1.00, 388.3, 279.0)">e</text><text xml:space="preserve" font-family="HelveticaNeue-Medium" font-size="34.0" fill="#EAEAEA" transform="matrix(1.00, 0.00, -0.00, -1.00, 407.2, 279.0)"> </text><text xml:space="preserve" font-family="HelveticaNeue-Medium" font-size="34.0" fill="#EAEAEA" transform="matrix(1.00, 0.00, -0.00, -1.00, 416.7, 279.0)">c</text><text xml:space="preserve" font-family="HelveticaNeue-Medium" font-size="34.0" fill="#EAEAEA" transform="matrix(1.00, 0.00, -0.00, -1.00, 435.6, 279.0)">a</text><text xml:space="preserve" font-family="HelveticaNeue-Medium" font-size="34.0" fill="#EAEAEA" transform="matrix(1.00, 0.00, -0.00, -1.00, 454.5, 279.0)">l</text><text xml:space="preserve" font-family="HelveticaNeue-Medium" font-size="34.0" fill="#EAEAEA" transform="matrix(1.00, 0.00, -0.00, -1.00, 462.7, 279.0)">l</text><text xml:space="preserve" font-family="HelveticaNeue-Medium" font-size="34.0" fill="#EAEAEA" transform="matrix(1.00, 0.00, -0.00, -1.00, 470.9, 279.0)">a</text><text xml:space="preserve" font-family="HelveticaNeue-Medium" font-size="34.0" fill="#EAEAEA" transform="matrix(1.00, 0.00, -0.00, -1.00, 489.8, 279.0)">b</text><text xml:space="preserve" font-family="HelveticaNeue-Medium" font-size="34.0" fill="#EAEAEA" transform="matrix(1.00, 0.00, -0.00, -1.00, 510.5, 279.0)">l</text><text xml:space="preserve" font-family="HelveticaNeue-Medium" font-size="34.0" fill="#EAEAEA" transform="matrix(1.00, 0.00, -0.00, -1.00, 518.7, 279.0)">e</text><text xml:space="preserve" font-family="HelveticaNeue-Medium" font-size="34.0" fill="#EAEAEA" transform="matrix(1.00, 0.00, -0.00, -1.00, 537.6, 279.0)"> </text><text xml:space="preserve" font-family="HelveticaNeue-Medium" font-size="34.0" fill="#EAEAEA" transform="matrix(1.00, 0.00, -0.00, -1.00, 547.1, 279.0)">o</text><text xml:space="preserve" font-family="HelveticaNeue-Medium" font-size="34.0" fill="#EAEAEA" transform="matrix(1.00, 0.00, -0.00, -1.00, 567.2, 279.0)">b</text><text xml:space="preserve" font-family="HelveticaNeue-Medium" font-size="34.0" fill="#EAEAEA" transform="matrix(1.00, 0.00, -0.00, -1.00, 588.0, 279.0)">j</text><text xml:space="preserve" font-family="HelveticaNeue-Medium" font-size="34.0" fill="#EAEAEA" transform="matrix(1.00, 0.00, -0.00, -1.00, 596.2, 279.0)">e</text><text xml:space="preserve" font-family="HelveticaNeue-Medium" font-size="34.0" fill="#EAEAEA" transform="matrix(1.00, 0.00, -0.00, -1.00, 615.1, 279.0)">c</text><text xml:space="preserve" font-family="HelveticaNeue-Medium" font-size="34.0" fill="#EAEAEA" transform="matrix(1.00, 0.00, -0.00, -1.00, 634.0, 279.0)">t</text><text xml:space="preserve" font-family="HelveticaNeue-Medium" font-size="34.0" fill="#EAEAEA" transform="matrix(1.00, 0.00, -0.00, -1.00, 645.3, 279.0)">.</text><text xml:space="preserve" font-family="HelveticaNeue-Medium" font-size="34.0" fill="#EAEAEA" transform="matrix(1.00, 0.00, -0.00, -1.00, 654.8, 279.0)"> </text><image xlink:href="../../D9433726-5947-428F-A554-7984E936C271/assets/22338A021207344BFFC0BA20AE086817.png" width="18.00" height="18.00" transform="matrix(1.00, 0.00, -0.00, -1.00, 61.0, 215.0)"></image><text xml:space="preserve" font-family="HelveticaNeue-Medium" font-size="25.5" fill="#EAEAEA" transform="matrix(1.00, 0.00, -0.00, -1.00, 64.0, 198.9)">•</text><image xlink:href="036A93813DE9E14546195D549230F5E6.png" width="733.00" height="40.00" transform="matrix(1.00, 0.00, -0.00, -1.00, 91.0, 223.0)"></image><text xml:space="preserve" font-family="HelveticaNeue-Medium" font-size="34.0" fill="#EAEAEA" transform="matrix(1.00, 0.00, -0.00, -1.00, 96.0, 196.0)">A</text><text xml:space="preserve" font-family="HelveticaNeue-Medium" font-size="34.0" fill="#EAEAEA" transform="matrix(1.00, 0.00, -0.00, -1.00, 118.7, 196.0)"> </text><text xml:space="preserve" font-family="HelveticaNeue-Medium" font-size="34.0" fill="#EAEAEA" transform="matrix(1.00, 0.00, -0.00, -1.00, 128.1, 196.0)">p</text><text xml:space="preserve" font-family="HelveticaNeue-Medium" font-size="34.0" fill="#EAEAEA" transform="matrix(1.00, 0.00, -0.00, -1.00, 148.9, 196.0)">r</text><text xml:space="preserve" font-family="HelveticaNeue-Medium" font-size="34.0" fill="#EAEAEA" transform="matrix(1.00, 0.00, -0.00, -1.00, 160.3, 196.0)">e</text><text xml:space="preserve" font-family="HelveticaNeue-Medium" font-size="34.0" fill="#EAEAEA" transform="matrix(1.00, 0.00, -0.00, -1.00, 179.2, 196.0)">t</text><text xml:space="preserve" font-family="HelveticaNeue-Medium" font-size="34.0" fill="#EAEAEA" transform="matrix(1.00, 0.00, -0.00, -1.00, 190.5, 196.0)">t</text><text xml:space="preserve" font-family="HelveticaNeue-Medium" font-size="34.0" fill="#EAEAEA" transform="matrix(1.00, 0.00, -0.00, -1.00, 201.8, 196.0)">y</text><text xml:space="preserve" font-family="HelveticaNeue-Medium" font-size="34.0" fill="#EAEAEA" transform="matrix(1.00, 0.00, -0.00, -1.00, 219.5, 196.0)"> </text><text xml:space="preserve" font-family="HelveticaNeue-Medium" font-size="34.0" fill="#EAEAEA" transform="matrix(1.00, 0.00, -0.00, -1.00, 228.9, 196.0)">s</text><text xml:space="preserve" font-family="HelveticaNeue-Medium" font-size="34.0" fill="#EAEAEA" transform="matrix(1.00, 0.00, -0.00, -1.00, 246.6, 196.0)">t</text><text xml:space="preserve" font-family="HelveticaNeue-Medium" font-size="34.0" fill="#EAEAEA" transform="matrix(1.00, 0.00, -0.00, -1.00, 257.9, 196.0)">a</text><text xml:space="preserve" font-family="HelveticaNeue-Medium" font-size="34.0" fill="#EAEAEA" transform="matrix(1.00, 0.00, -0.00, -1.00, 276.8, 196.0)">n</text><text xml:space="preserve" font-family="HelveticaNeue-Medium" font-size="34.0" fill="#EAEAEA" transform="matrix(1.00, 0.00, -0.00, -1.00, 296.3, 196.0)">d</text><text xml:space="preserve" font-family="HelveticaNeue-Medium" font-size="34.0" fill="#EAEAEA" transform="matrix(1.00, 0.00, -0.00, -1.00, 317.1, 196.0)">a</text><text xml:space="preserve" font-family="HelveticaNeue-Medium" font-size="34.0" fill="#EAEAEA" transform="matrix(1.00, 0.00, -0.00, -1.00, 336.0, 196.0)">r</text><text xml:space="preserve" font-family="HelveticaNeue-Medium" font-size="34.0" fill="#EAEAEA" transform="matrix(1.00, 0.00, -0.00, -1.00, 347.3, 196.0)">d</text><text xml:space="preserve" font-family="HelveticaNeue-Medium" font-size="34.0" fill="#EAEAEA" transform="matrix(1.00, 0.00, -0.00, -1.00, 368.1, 196.0)"> </text><text xml:space="preserve" font-family="HelveticaNeue-Medium" font-size="34.0" fill="#EAEAEA" transform="matrix(1.00, 0.00, -0.00, -1.00, 377.6, 196.0)">r</text><text xml:space="preserve" font-family="HelveticaNeue-Medium" font-size="34.0" fill="#EAEAEA" transform="matrix(1.00, 0.00, -0.00, -1.00, 388.9, 196.0)">e</text><text xml:space="preserve" font-family="HelveticaNeue-Medium" font-size="34.0" fill="#EAEAEA" transform="matrix(1.00, 0.00, -0.00, -1.00, 407.8, 196.0)">c</text><text xml:space="preserve" font-family="HelveticaNeue-Medium" font-size="34.0" fill="#EAEAEA" transform="matrix(1.00, 0.00, -0.00, -1.00, 426.7, 196.0)">u</text><text xml:space="preserve" font-family="HelveticaNeue-Medium" font-size="34.0" fill="#EAEAEA" transform="matrix(1.00, 0.00, -0.00, -1.00, 446.2, 196.0)">r</text><text xml:space="preserve" font-family="HelveticaNeue-Medium" font-size="34.0" fill="#EAEAEA" transform="matrix(1.00, 0.00, -0.00, -1.00, 458.2, 196.0)">s</text><text xml:space="preserve" font-family="HelveticaNeue-Medium" font-size="34.0" fill="#EAEAEA" transform="matrix(1.00, 0.00, -0.00, -1.00, 475.8, 196.0)">i</text><text xml:space="preserve" font-family="HelveticaNeue-Medium" font-size="34.0" fill="#EAEAEA" transform="matrix(1.00, 0.00, -0.00, -1.00, 484.0, 196.0)">v</text><text xml:space="preserve" font-family="HelveticaNeue-Medium" font-size="34.0" fill="#EAEAEA" transform="matrix(1.00, 0.00, -0.00, -1.00, 501.7, 196.0)">e</text><text xml:space="preserve" font-family="HelveticaNeue-Medium" font-size="34.0" fill="#EAEAEA" transform="matrix(1.00, 0.00, -0.00, -1.00, 520.6, 196.0)"> </text><text xml:space="preserve" font-family="HelveticaNeue-Medium" font-size="34.0" fill="#EAEAEA" transform="matrix(1.00, 0.00, -0.00, -1.00, 530.0, 196.0)">f</text><text xml:space="preserve" font-family="HelveticaNeue-Medium" font-size="34.0" fill="#EAEAEA" transform="matrix(1.00, 0.00, -0.00, -1.00, 540.8, 196.0)">a</text><text xml:space="preserve" font-family="HelveticaNeue-Medium" font-size="34.0" fill="#EAEAEA" transform="matrix(1.00, 0.00, -0.00, -1.00, 559.7, 196.0)">c</text><text xml:space="preserve" font-family="HelveticaNeue-Medium" font-size="34.0" fill="#EAEAEA" transform="matrix(1.00, 0.00, -0.00, -1.00, 578.6, 196.0)">t</text><text xml:space="preserve" font-family="HelveticaNeue-Medium" font-size="34.0" fill="#EAEAEA" transform="matrix(1.00, 0.00, -0.00, -1.00, 589.9, 196.0)">o</text><text xml:space="preserve" font-family="HelveticaNeue-Medium" font-size="34.0" fill="#EAEAEA" transform="matrix(1.00, 0.00, -0.00, -1.00, 610.0, 196.0)">r</text><text xml:space="preserve" font-family="HelveticaNeue-Medium" font-size="34.0" fill="#EAEAEA" transform="matrix(1.00, 0.00, -0.00, -1.00, 622.0, 196.0)">i</text><text xml:space="preserve" font-family="HelveticaNeue-Medium" font-size="34.0" fill="#EAEAEA" transform="matrix(1.00, 0.00, -0.00, -1.00, 630.2, 196.0)">a</text><text xml:space="preserve" font-family="HelveticaNeue-Medium" font-size="34.0" fill="#EAEAEA" transform="matrix(1.00, 0.00, -0.00, -1.00, 649.1, 196.0)">l</text><text xml:space="preserve" font-family="HelveticaNeue-Medium" font-size="34.0" fill="#EAEAEA" transform="matrix(1.00, 0.00, -0.00, -1.00, 657.3, 196.0)"> </text><text xml:space="preserve" font-family="HelveticaNeue-Medium" font-size="34.0" fill="#EAEAEA" transform="matrix(1.00, 0.00, -0.00, -1.00, 666.8, 196.0)">d</text><text xml:space="preserve" font-family="HelveticaNeue-Medium" font-size="34.0" fill="#EAEAEA" transform="matrix(1.00, 0.00, -0.00, -1.00, 687.5, 196.0)">e</text><text xml:space="preserve" font-family="HelveticaNeue-Medium" font-size="34.0" fill="#EAEAEA" transform="matrix(1.00, 0.00, -0.00, -1.00, 706.4, 196.0)">ﬁ</text><text xml:space="preserve" font-family="HelveticaNeue-Medium" font-size="34.0" fill="#EAEAEA" transform="matrix(1.00, 0.00, -0.00, -1.00, 725.3, 196.0)">n</text><text xml:space="preserve" font-family="HelveticaNeue-Medium" font-size="34.0" fill="#EAEAEA" transform="matrix(1.00, 0.00, -0.00, -1.00, 744.9, 196.0)">i</text><text xml:space="preserve" font-family="HelveticaNeue-Medium" font-size="34.0" fill="#EAEAEA" transform="matrix(1.00, 0.00, -0.00, -1.00, 753.0, 196.0)">t</text><text xml:space="preserve" font-family="HelveticaNeue-Medium" font-size="34.0" fill="#EAEAEA" transform="matrix(1.00, 0.00, -0.00, -1.00, 764.4, 196.0)">i</text><text xml:space="preserve" font-family="HelveticaNeue-Medium" font-size="34.0" fill="#EAEAEA" transform="matrix(1.00, 0.00, -0.00, -1.00, 772.6, 196.0)">o</text><text xml:space="preserve" font-family="HelveticaNeue-Medium" font-size="34.0" fill="#EAEAEA" transform="matrix(1.00, 0.00, -0.00, -1.00, 792.7, 196.0)">n</text><text xml:space="preserve" font-family="HelveticaNeue-Medium" font-size="34.0" fill="#EAEAEA" transform="matrix(1.00, 0.00, -0.00, -1.00, 812.2, 196.0)">.</text><text xml:space="preserve" font-family="HelveticaNeue-Medium" font-size="34.0" fill="#EAEAEA" transform="matrix(1.00, 0.00, -0.00, -1.00, 821.7, 196.0)"> </text><image xlink:href="../../D9433726-5947-428F-A554-7984E936C271/assets/22338A021207344BFFC0BA20AE086817.png" width="18.00" height="18.00" transform="matrix(1.00, 0.00, -0.00, -1.00, 61.0, 132.0)"></image><text xml:space="preserve" font-family="HelveticaNeue-Medium" font-size="25.5" fill="#EAEAEA" transform="matrix(1.00, 0.00, -0.00, -1.00, 64.0, 115.9)">•</text><image xlink:href="E6A45A521B9F21ECBB208801109B0F74.png" width="810.00" height="40.00" transform="matrix(1.00, 0.00, -0.00, -1.00, 94.0, 140.0)"></image><text xml:space="preserve" font-family="HelveticaNeue-Medium" font-size="34.0" fill="#EAEAEA" transform="matrix(1.00, 0.00, -0.00, -1.00, 96.0, 113.0)">D</text><text xml:space="preserve" font-family="HelveticaNeue-Medium" font-size="34.0" fill="#EAEAEA" transform="matrix(1.00, 0.00, -0.00, -1.00, 120.5, 113.0)">e</text><text xml:space="preserve" font-family="HelveticaNeue-Medium" font-size="34.0" fill="#EAEAEA" transform="matrix(1.00, 0.00, -0.00, -1.00, 139.5, 113.0)">p</text><text xml:space="preserve" font-family="HelveticaNeue-Medium" font-size="34.0" fill="#EAEAEA" transform="matrix(1.00, 0.00, -0.00, -1.00, 160.2, 113.0)">e</text><text xml:space="preserve" font-family="HelveticaNeue-Medium" font-size="34.0" fill="#EAEAEA" transform="matrix(1.00, 0.00, -0.00, -1.00, 179.1, 113.0)">n</text><text xml:space="preserve" font-family="HelveticaNeue-Medium" font-size="34.0" fill="#EAEAEA" transform="matrix(1.00, 0.00, -0.00, -1.00, 198.6, 113.0)">d</text><text xml:space="preserve" font-family="HelveticaNeue-Medium" font-size="34.0" fill="#EAEAEA" transform="matrix(1.00, 0.00, -0.00, -1.00, 219.4, 113.0)">s</text><text xml:space="preserve" font-family="HelveticaNeue-Medium" font-size="34.0" fill="#EAEAEA" transform="matrix(1.00, 0.00, -0.00, -1.00, 237.1, 113.0)"> </text><text xml:space="preserve" font-family="HelveticaNeue-Medium" font-size="34.0" fill="#EAEAEA" transform="matrix(1.00, 0.00, -0.00, -1.00, 246.5, 113.0)">o</text><text xml:space="preserve" font-family="HelveticaNeue-Medium" font-size="34.0" fill="#EAEAEA" transform="matrix(1.00, 0.00, -0.00, -1.00, 266.7, 113.0)">n</text><text xml:space="preserve" font-family="HelveticaNeue-Medium" font-size="34.0" fill="#EAEAEA" transform="matrix(1.00, 0.00, -0.00, -1.00, 286.2, 113.0)"> </text><text xml:space="preserve" font-family="HelveticaNeue-Medium" font-size="34.0" fill="#EAEAEA" transform="matrix(1.00, 0.00, -0.00, -1.00, 295.6, 113.0)">m</text><text xml:space="preserve" font-family="HelveticaNeue-Medium" font-size="34.0" fill="#EAEAEA" transform="matrix(1.00, 0.00, -0.00, -1.00, 325.2, 113.0)">e</text><text xml:space="preserve" font-family="HelveticaNeue-Medium" font-size="34.0" fill="#EAEAEA" transform="matrix(1.00, 0.00, -0.00, -1.00, 344.1, 113.0)">m</text><text xml:space="preserve" font-family="HelveticaNeue-Medium" font-size="34.0" fill="#EAEAEA" transform="matrix(1.00, 0.00, -0.00, -1.00, 373.7, 113.0)">o</text><text xml:space="preserve" font-family="HelveticaNeue-Medium" font-size="34.0" fill="#EAEAEA" transform="matrix(1.00, 0.00, -0.00, -1.00, 393.9, 113.0)">r</text><text xml:space="preserve" font-family="HelveticaNeue-Medium" font-size="34.0" fill="#EAEAEA" transform="matrix(1.00, 0.00, -0.00, -1.00, 405.8, 113.0)">i</text><text xml:space="preserve" font-family="HelveticaNeue-Medium" font-size="34.0" fill="#EAEAEA" transform="matrix(1.00, 0.00, -0.00, -1.00, 414.0, 113.0)">z</text><text xml:space="preserve" font-family="HelveticaNeue-Medium" font-size="34.0" fill="#EAEAEA" transform="matrix(1.00, 0.00, -0.00, -1.00, 431.0, 113.0)">a</text><text xml:space="preserve" font-family="HelveticaNeue-Medium" font-size="34.0" fill="#EAEAEA" transform="matrix(1.00, 0.00, -0.00, -1.00, 449.9, 113.0)">t</text><text xml:space="preserve" font-family="HelveticaNeue-Medium" font-size="34.0" fill="#EAEAEA" transform="matrix(1.00, 0.00, -0.00, -1.00, 461.3, 113.0)">i</text><text xml:space="preserve" font-family="HelveticaNeue-Medium" font-size="34.0" fill="#EAEAEA" transform="matrix(1.00, 0.00, -0.00, -1.00, 469.5, 113.0)">o</text><text xml:space="preserve" font-family="HelveticaNeue-Medium" font-size="34.0" fill="#EAEAEA" transform="matrix(1.00, 0.00, -0.00, -1.00, 489.6, 113.0)">n</text><text xml:space="preserve" font-family="HelveticaNeue-Medium" font-size="34.0" fill="#EAEAEA" transform="matrix(1.00, 0.00, -0.00, -1.00, 509.1, 113.0)"> </text><text xml:space="preserve" font-family="HelveticaNeue-Medium" font-size="34.0" fill="#EAEAEA" transform="matrix(1.00, 0.00, -0.00, -1.00, 518.6, 113.0)">t</text><text xml:space="preserve" font-family="HelveticaNeue-Medium" font-size="34.0" fill="#EAEAEA" transform="matrix(1.00, 0.00, -0.00, -1.00, 529.9, 113.0)">o</text><text xml:space="preserve" font-family="HelveticaNeue-Medium" font-size="34.0" fill="#EAEAEA" transform="matrix(1.00, 0.00, -0.00, -1.00, 550.1, 113.0)"> </text><text xml:space="preserve" font-family="HelveticaNeue-Medium" font-size="34.0" fill="#EAEAEA" transform="matrix(1.00, 0.00, -0.00, -1.00, 559.5, 113.0)">h</text><text xml:space="preserve" font-family="HelveticaNeue-Medium" font-size="34.0" fill="#EAEAEA" transform="matrix(1.00, 0.00, -0.00, -1.00, 579.0, 113.0)">a</text><text xml:space="preserve" font-family="HelveticaNeue-Medium" font-size="34.0" fill="#EAEAEA" transform="matrix(1.00, 0.00, -0.00, -1.00, 597.9, 113.0)">v</text><text xml:space="preserve" font-family="HelveticaNeue-Medium" font-size="34.0" fill="#EAEAEA" transform="matrix(1.00, 0.00, -0.00, -1.00, 615.6, 113.0)">e</text><text xml:space="preserve" font-family="HelveticaNeue-Medium" font-size="34.0" fill="#EAEAEA" transform="matrix(1.00, 0.00, -0.00, -1.00, 634.5, 113.0)"> </text><text xml:space="preserve" font-family="HelveticaNeue-Medium" font-size="34.0" fill="#EAEAEA" transform="matrix(1.00, 0.00, -0.00, -1.00, 643.9, 113.0)">p</text><text xml:space="preserve" font-family="HelveticaNeue-Medium" font-size="34.0" fill="#EAEAEA" transform="matrix(1.00, 0.00, -0.00, -1.00, 664.7, 113.0)">r</text><text xml:space="preserve" font-family="HelveticaNeue-Medium" font-size="34.0" fill="#EAEAEA" transform="matrix(1.00, 0.00, -0.00, -1.00, 676.1, 113.0)">e</text><text xml:space="preserve" font-family="HelveticaNeue-Medium" font-size="34.0" fill="#EAEAEA" transform="matrix(1.00, 0.00, -0.00, -1.00, 695.0, 113.0)">v</text><text xml:space="preserve" font-family="HelveticaNeue-Medium" font-size="34.0" fill="#EAEAEA" transform="matrix(1.00, 0.00, -0.00, -1.00, 712.6, 113.0)">i</text><text xml:space="preserve" font-family="HelveticaNeue-Medium" font-size="34.0" fill="#EAEAEA" transform="matrix(1.00, 0.00, -0.00, -1.00, 720.8, 113.0)">o</text><text xml:space="preserve" font-family="HelveticaNeue-Medium" font-size="34.0" fill="#EAEAEA" transform="matrix(1.00, 0.00, -0.00, -1.00, 741.0, 113.0)">u</text><text xml:space="preserve" font-family="HelveticaNeue-Medium" font-size="34.0" fill="#EAEAEA" transform="matrix(1.00, 0.00, -0.00, -1.00, 760.5, 113.0)">s</text><text xml:space="preserve" font-family="HelveticaNeue-Medium" font-size="34.0" fill="#EAEAEA" transform="matrix(1.00, 0.00, -0.00, -1.00, 778.1, 113.0)"> </text><text xml:space="preserve" font-family="HelveticaNeue-Medium" font-size="34.0" fill="#EAEAEA" transform="matrix(1.00, 0.00, -0.00, -1.00, 787.6, 113.0)">r</text><text xml:space="preserve" font-family="HelveticaNeue-Medium" font-size="34.0" fill="#EAEAEA" transform="matrix(1.00, 0.00, -0.00, -1.00, 798.9, 113.0)">e</text><text xml:space="preserve" font-family="HelveticaNeue-Medium" font-size="34.0" fill="#EAEAEA" transform="matrix(1.00, 0.00, -0.00, -1.00, 817.9, 113.0)">s</text><text xml:space="preserve" font-family="HelveticaNeue-Medium" font-size="34.0" fill="#EAEAEA" transform="matrix(1.00, 0.00, -0.00, -1.00, 835.5, 113.0)">u</text><text xml:space="preserve" font-family="HelveticaNeue-Medium" font-size="34.0" fill="#EAEAEA" transform="matrix(1.00, 0.00, -0.00, -1.00, 855.0, 113.0)">l</text><text xml:space="preserve" font-family="HelveticaNeue-Medium" font-size="34.0" fill="#EAEAEA" transform="matrix(1.00, 0.00, -0.00, -1.00, 863.2, 113.0)">t</text><text xml:space="preserve" font-family="HelveticaNeue-Medium" font-size="34.0" fill="#EAEAEA" transform="matrix(1.00, 0.00, -0.00, -1.00, 874.5, 113.0)">s</text><text xml:space="preserve" font-family="HelveticaNeue-Medium" font-size="34.0" fill="#EAEAEA" transform="matrix(1.00, 0.00, -0.00, -1.00, 892.2, 113.0)">.</text></g></svg>