<?xml version="1.0" encoding="UTF-8" standalone="no"?><svg xmlns="http://www.w3.org/2000/svg" xmlns:xlink="http://www.w3.org/1999/xlink" clip-rule="evenodd" stroke-miterlimit="4.00" viewBox="0 0 1024 768"><desc>SVG generated by Keynote</desc><defs></defs><g transform="matrix(1.00, 0.00, -0.00, -1.00, 0.0, 768.0)"><g><clipPath id="clip-221"><path d="M 0.0 768.0 L 1024.0 768.0 L 1024.0 0.0 L 0.0 0.0 Z M 0.0 768.0 "></path></clipPath><g clip-path="url(#clip-221)"><image xlink:href="../../363ACDF5-F69A-4348-A617-267FC1DCB792/assets/2CA05975C404A6B79EB2D17D5C3EEC1C.jpeg" width="1024.00" height="768.00" transform="matrix(1.00, 0.00, -0.00, -1.00, 0.0, 768.0)"></image></g></g><image xlink:href="F89D5AF3DD11D7A314B0D5A6728A086B.png" width="743.00" height="68.00" transform="matrix(1.00, 0.00, -0.00, -1.00, 141.0, 693.0)"></image><text xml:space="preserve" font-family="HelveticaNeue-Bold" font-weight="bold" font-size="64.0" fill="#FEFFFE" transform="matrix(1.00, 0.00, -0.00, -1.00, 143.0, 644.0)">G</text><text xml:space="preserve" font-family="HelveticaNeue-Bold" font-weight="bold" font-size="64.0" fill="#FEFFFE" transform="matrix(1.00, 0.00, -0.00, -1.00, 191.6, 644.0)">e</text><text xml:space="preserve" font-family="HelveticaNeue-Bold" font-weight="bold" font-size="64.0" fill="#FEFFFE" transform="matrix(1.00, 0.00, -0.00, -1.00, 228.3, 644.0)">t</text><text xml:space="preserve" font-family="HelveticaNeue-Bold" font-weight="bold" font-size="64.0" fill="#FEFFFE" transform="matrix(1.00, 0.00, -0.00, -1.00, 250.8, 644.0)">t</text><text xml:space="preserve" font-family="HelveticaNeue-Bold" font-weight="bold" font-size="64.0" fill="#FEFFFE" transform="matrix(1.00, 0.00, -0.00, -1.00, 273.4, 644.0)">i</text><text xml:space="preserve" font-family="HelveticaNeue-Bold" font-weight="bold" font-size="64.0" fill="#FEFFFE" transform="matrix(1.00, 0.00, -0.00, -1.00, 289.9, 644.0)">n</text><text xml:space="preserve" font-family="HelveticaNeue-Bold" font-weight="bold" font-size="64.0" fill="#FEFFFE" transform="matrix(1.00, 0.00, -0.00, -1.00, 327.8, 644.0)">g</text><text xml:space="preserve" font-family="HelveticaNeue-Bold" font-weight="bold" font-size="64.0" fill="#FEFFFE" transform="matrix(1.00, 0.00, -0.00, -1.00, 366.9, 644.0)"> </text><text xml:space="preserve" font-family="HelveticaNeue-Bold" font-weight="bold" font-size="64.0" fill="#FEFFFE" transform="matrix(1.00, 0.00, -0.00, -1.00, 384.7, 644.0)">t</text><text xml:space="preserve" font-family="HelveticaNeue-Bold" font-weight="bold" font-size="64.0" fill="#FEFFFE" transform="matrix(1.00, 0.00, -0.00, -1.00, 407.3, 644.0)">h</text><text xml:space="preserve" font-family="HelveticaNeue-Bold" font-weight="bold" font-size="64.0" fill="#FEFFFE" transform="matrix(1.00, 0.00, -0.00, -1.00, 445.2, 644.0)">e</text><text xml:space="preserve" font-family="HelveticaNeue-Bold" font-weight="bold" font-size="64.0" fill="#FEFFFE" transform="matrix(1.00, 0.00, -0.00, -1.00, 481.9, 644.0)"> </text><text xml:space="preserve" font-family="HelveticaNeue-Bold" font-weight="bold" font-size="64.0" fill="#FEFFFE" transform="matrix(1.00, 0.00, -0.00, -1.00, 499.7, 644.0)">l</text><text xml:space="preserve" font-family="HelveticaNeue-Bold" font-weight="bold" font-size="64.0" fill="#FEFFFE" transform="matrix(1.00, 0.00, -0.00, -1.00, 516.2, 644.0)">i</text><text xml:space="preserve" font-family="HelveticaNeue-Bold" font-weight="bold" font-size="64.0" fill="#FEFFFE" transform="matrix(1.00, 0.00, -0.00, -1.00, 532.8, 644.0)">s</text><text xml:space="preserve" font-family="HelveticaNeue-Bold" font-weight="bold" font-size="64.0" fill="#FEFFFE" transform="matrix(1.00, 0.00, -0.00, -1.00, 567.1, 644.0)">t</text><text xml:space="preserve" font-family="HelveticaNeue-Bold" font-weight="bold" font-size="64.0" fill="#FEFFFE" transform="matrix(1.00, 0.00, -0.00, -1.00, 589.7, 644.0)"> </text><text xml:space="preserve" font-family="HelveticaNeue-Bold" font-weight="bold" font-size="64.0" fill="#FEFFFE" transform="matrix(1.00, 0.00, -0.00, -1.00, 607.4, 644.0)">o</text><text xml:space="preserve" font-family="HelveticaNeue-Bold" font-weight="bold" font-size="64.0" fill="#FEFFFE" transform="matrix(1.00, 0.00, -0.00, -1.00, 646.6, 644.0)">f</text><text xml:space="preserve" font-family="HelveticaNeue-Bold" font-weight="bold" font-size="64.0" fill="#FEFFFE" transform="matrix(1.00, 0.00, -0.00, -1.00, 667.9, 644.0)"> </text><text xml:space="preserve" font-family="HelveticaNeue-Bold" font-weight="bold" font-size="64.0" fill="#FEFFFE" transform="matrix(1.00, 0.00, -0.00, -1.00, 685.7, 644.0)">v</text><text xml:space="preserve" font-family="HelveticaNeue-Bold" font-weight="bold" font-size="64.0" fill="#FEFFFE" transform="matrix(1.00, 0.00, -0.00, -1.00, 718.9, 644.0)">a</text><text xml:space="preserve" font-family="HelveticaNeue-Bold" font-weight="bold" font-size="64.0" fill="#FEFFFE" transform="matrix(1.00, 0.00, -0.00, -1.00, 755.7, 644.0)">l</text><text xml:space="preserve" font-family="HelveticaNeue-Bold" font-weight="bold" font-size="64.0" fill="#FEFFFE" transform="matrix(1.00, 0.00, -0.00, -1.00, 772.2, 644.0)">u</text><text xml:space="preserve" font-family="HelveticaNeue-Bold" font-weight="bold" font-size="64.0" fill="#FEFFFE" transform="matrix(1.00, 0.00, -0.00, -1.00, 810.1, 644.0)">e</text><text xml:space="preserve" font-family="HelveticaNeue-Bold" font-weight="bold" font-size="64.0" fill="#FEFFFE" transform="matrix(1.00, 0.00, -0.00, -1.00, 846.9, 644.0)">s</text><image xlink:href="../../D9433726-5947-428F-A554-7984E936C271/assets/22338A021207344BFFC0BA20AE086817.png" width="18.00" height="18.00" transform="matrix(1.00, 0.00, -0.00, -1.00, 61.0, 473.0)"></image><text xml:space="preserve" font-family="HelveticaNeue-Medium" font-size="25.5" fill="#EAEAEA" transform="matrix(1.00, 0.00, -0.00, -1.00, 64.0, 456.9)">•</text><image xlink:href="682563119FE82885A17B17960C28C694.png" width="615.00" height="40.00" transform="matrix(1.00, 0.00, -0.00, -1.00, 94.0, 481.0)"></image><text xml:space="preserve" font-family="HelveticaNeue-Medium" font-size="34.0" fill="#EAEAEA" transform="matrix(1.00, 0.00, -0.00, -1.00, 96.0, 454.0)">M</text><text xml:space="preserve" font-family="HelveticaNeue-Medium" font-size="34.0" fill="#EAEAEA" transform="matrix(1.00, 0.00, -0.00, -1.00, 126.2, 454.0)">a</text><text xml:space="preserve" font-family="HelveticaNeue-Medium" font-size="34.0" fill="#EAEAEA" transform="matrix(1.00, 0.00, -0.00, -1.00, 145.1, 454.0)">k</text><text xml:space="preserve" font-family="HelveticaNeue-Medium" font-size="34.0" fill="#EAEAEA" transform="matrix(1.00, 0.00, -0.00, -1.00, 163.4, 454.0)">i</text><text xml:space="preserve" font-family="HelveticaNeue-Medium" font-size="34.0" fill="#EAEAEA" transform="matrix(1.00, 0.00, -0.00, -1.00, 171.6, 454.0)">n</text><text xml:space="preserve" font-family="HelveticaNeue-Medium" font-size="34.0" fill="#EAEAEA" transform="matrix(1.00, 0.00, -0.00, -1.00, 191.1, 454.0)">g</text><text xml:space="preserve" font-family="HelveticaNeue-Medium" font-size="34.0" fill="#EAEAEA" transform="matrix(1.00, 0.00, -0.00, -1.00, 211.3, 454.0)"> </text><text xml:space="preserve" font-family="HelveticaNeue-Medium" font-size="34.0" fill="#EAEAEA" transform="matrix(1.00, 0.00, -0.00, -1.00, 220.7, 454.0)">a</text><text xml:space="preserve" font-family="HelveticaNeue-Medium" font-size="34.0" fill="#EAEAEA" transform="matrix(1.00, 0.00, -0.00, -1.00, 239.6, 454.0)"> </text><text xml:space="preserve" font-family="HelveticaNeue-Medium" font-size="34.0" fill="#EAEAEA" transform="matrix(1.00, 0.00, -0.00, -1.00, 249.1, 454.0)">l</text><text xml:space="preserve" font-family="HelveticaNeue-Medium" font-size="34.0" fill="#EAEAEA" transform="matrix(1.00, 0.00, -0.00, -1.00, 257.3, 454.0)">a</text><text xml:space="preserve" font-family="HelveticaNeue-Medium" font-size="34.0" fill="#EAEAEA" transform="matrix(1.00, 0.00, -0.00, -1.00, 276.2, 454.0)">z</text><text xml:space="preserve" font-family="HelveticaNeue-Medium" font-size="34.0" fill="#EAEAEA" transform="matrix(1.00, 0.00, -0.00, -1.00, 293.2, 454.0)">y</text><text xml:space="preserve" font-family="HelveticaNeue-Medium" font-size="34.0" fill="#EAEAEA" transform="matrix(1.00, 0.00, -0.00, -1.00, 310.8, 454.0)"> </text><text xml:space="preserve" font-family="HelveticaNeue-Medium" font-size="34.0" fill="#EAEAEA" transform="matrix(1.00, 0.00, -0.00, -1.00, 320.3, 454.0)">g</text><text xml:space="preserve" font-family="HelveticaNeue-Medium" font-size="34.0" fill="#EAEAEA" transform="matrix(1.00, 0.00, -0.00, -1.00, 340.4, 454.0)">e</text><text xml:space="preserve" font-family="HelveticaNeue-Medium" font-size="34.0" fill="#EAEAEA" transform="matrix(1.00, 0.00, -0.00, -1.00, 359.3, 454.0)">n</text><text xml:space="preserve" font-family="HelveticaNeue-Medium" font-size="34.0" fill="#EAEAEA" transform="matrix(1.00, 0.00, -0.00, -1.00, 378.8, 454.0)">e</text><text xml:space="preserve" font-family="HelveticaNeue-Medium" font-size="34.0" fill="#EAEAEA" transform="matrix(1.00, 0.00, -0.00, -1.00, 397.8, 454.0)">r</text><text xml:space="preserve" font-family="HelveticaNeue-Medium" font-size="34.0" fill="#EAEAEA" transform="matrix(1.00, 0.00, -0.00, -1.00, 409.7, 454.0)">a</text><text xml:space="preserve" font-family="HelveticaNeue-Medium" font-size="34.0" fill="#EAEAEA" transform="matrix(1.00, 0.00, -0.00, -1.00, 428.6, 454.0)">t</text><text xml:space="preserve" font-family="HelveticaNeue-Medium" font-size="34.0" fill="#EAEAEA" transform="matrix(1.00, 0.00, -0.00, -1.00, 439.9, 454.0)">o</text><text xml:space="preserve" font-family="HelveticaNeue-Medium" font-size="34.0" fill="#EAEAEA" transform="matrix(1.00, 0.00, -0.00, -1.00, 460.1, 454.0)">r</text><text xml:space="preserve" font-family="HelveticaNeue-Medium" font-size="34.0" fill="#EAEAEA" transform="matrix(1.00, 0.00, -0.00, -1.00, 472.1, 454.0)"> </text><text xml:space="preserve" font-family="HelveticaNeue-Medium" font-size="34.0" fill="#EAEAEA" transform="matrix(1.00, 0.00, -0.00, -1.00, 481.5, 454.0)">d</text><text xml:space="preserve" font-family="HelveticaNeue-Medium" font-size="34.0" fill="#EAEAEA" transform="matrix(1.00, 0.00, -0.00, -1.00, 502.3, 454.0)">o</text><text xml:space="preserve" font-family="HelveticaNeue-Medium" font-size="34.0" fill="#EAEAEA" transform="matrix(1.00, 0.00, -0.00, -1.00, 522.5, 454.0)"> </text><text xml:space="preserve" font-family="HelveticaNeue-Medium" font-size="34.0" fill="#EAEAEA" transform="matrix(1.00, 0.00, -0.00, -1.00, 531.9, 454.0)">s</text><text xml:space="preserve" font-family="HelveticaNeue-Medium" font-size="34.0" fill="#EAEAEA" transform="matrix(1.00, 0.00, -0.00, -1.00, 549.6, 454.0)">o</text><text xml:space="preserve" font-family="HelveticaNeue-Medium" font-size="34.0" fill="#EAEAEA" transform="matrix(1.00, 0.00, -0.00, -1.00, 569.7, 454.0)">m</text><text xml:space="preserve" font-family="HelveticaNeue-Medium" font-size="34.0" fill="#EAEAEA" transform="matrix(1.00, 0.00, -0.00, -1.00, 599.3, 454.0)">e</text><text xml:space="preserve" font-family="HelveticaNeue-Medium" font-size="34.0" fill="#EAEAEA" transform="matrix(1.00, 0.00, -0.00, -1.00, 618.2, 454.0)"> </text><text xml:space="preserve" font-family="HelveticaNeue-Medium" font-size="34.0" fill="#EAEAEA" transform="matrix(1.00, 0.00, -0.00, -1.00, 627.7, 454.0)">w</text><text xml:space="preserve" font-family="HelveticaNeue-Medium" font-size="34.0" fill="#EAEAEA" transform="matrix(1.00, 0.00, -0.00, -1.00, 654.1, 454.0)">o</text><text xml:space="preserve" font-family="HelveticaNeue-Medium" font-size="34.0" fill="#EAEAEA" transform="matrix(1.00, 0.00, -0.00, -1.00, 674.3, 454.0)">r</text><text xml:space="preserve" font-family="HelveticaNeue-Medium" font-size="34.0" fill="#EAEAEA" transform="matrix(1.00, 0.00, -0.00, -1.00, 686.2, 454.0)">k</text><text xml:space="preserve" font-family="HelveticaNeue-Medium" font-size="34.0" fill="#EAEAEA" transform="matrix(1.00, 0.00, -0.00, -1.00, 704.5, 454.0)"> </text><image xlink:href="E127293BB95E32D7FB7C967DEC409BEC.png" width="215.00" height="40.00" transform="matrix(1.00, 0.00, -0.00, -1.00, 64.0, 400.0)"></image><text xml:space="preserve" font-family="AndaleMono" font-size="33.0" fill="#EAEAEA" transform="matrix(1.00, 0.00, -0.00, -1.00, 64.0, 374.0)">&gt;</text><text xml:space="preserve" font-family="AndaleMono" font-size="33.0" fill="#EAEAEA" transform="matrix(1.00, 0.00, -0.00, -1.00, 83.8, 374.0)">&gt;</text><text xml:space="preserve" font-family="AndaleMono" font-size="33.0" fill="#EAEAEA" transform="matrix(1.00, 0.00, -0.00, -1.00, 103.6, 374.0)">&gt;</text><text xml:space="preserve" font-family="AndaleMono" font-size="33.0" fill="#EAEAEA" transform="matrix(1.00, 0.00, -0.00, -1.00, 123.4, 374.0)"> </text><text xml:space="preserve" font-family="AndaleMono" font-size="33.0" fill="#EAEAEA" transform="matrix(1.00, 0.00, -0.00, -1.00, 143.2, 374.0)">l</text><text xml:space="preserve" font-family="AndaleMono" font-size="33.0" fill="#EAEAEA" transform="matrix(1.00, 0.00, -0.00, -1.00, 163.0, 374.0)">i</text><text xml:space="preserve" font-family="AndaleMono" font-size="33.0" fill="#EAEAEA" transform="matrix(1.00, 0.00, -0.00, -1.00, 182.8, 374.0)">s</text><text xml:space="preserve" font-family="AndaleMono" font-size="33.0" fill="#EAEAEA" transform="matrix(1.00, 0.00, -0.00, -1.00, 202.6, 374.0)">t</text><text xml:space="preserve" font-family="AndaleMono" font-size="33.0" fill="#EAEAEA" transform="matrix(1.00, 0.00, -0.00, -1.00, 222.5, 374.0)">(</text><text xml:space="preserve" font-family="AndaleMono" font-size="33.0" fill="#EAEAEA" transform="matrix(1.00, 0.00, -0.00, -1.00, 242.3, 374.0)">_</text><text xml:space="preserve" font-family="AndaleMono" font-size="33.0" fill="#EAEAEA" transform="matrix(1.00, 0.00, -0.00, -1.00, 262.1, 374.0)">)</text><text xml:space="preserve" font-family="AndaleMono" font-size="33.0" fill="#EAEAEA" transform="matrix(1.00, 0.00, -0.00, -1.00, 281.8, 374.0)"> </text><image xlink:href="784164E0C05057B94D241F8AE098A764.png" width="825.00" height="37.00" transform="matrix(1.00, 0.00, -0.00, -1.00, 68.0, 321.0)"></image><text xml:space="preserve" font-family="AndaleMono" font-size="33.0" fill="#EAEAEA" transform="matrix(1.00, 0.00, -0.00, -1.00, 64.0, 295.0)">[</text><text xml:space="preserve" font-family="AndaleMono" font-size="33.0" fill="#EAEAEA" transform="matrix(1.00, 0.00, -0.00, -1.00, 83.8, 295.0)">9</text><text xml:space="preserve" font-family="AndaleMono" font-size="33.0" fill="#EAEAEA" transform="matrix(1.00, 0.00, -0.00, -1.00, 103.6, 295.0)">,</text><text xml:space="preserve" font-family="AndaleMono" font-size="33.0" fill="#EAEAEA" transform="matrix(1.00, 0.00, -0.00, -1.00, 123.4, 295.0)"> </text><text xml:space="preserve" font-family="AndaleMono" font-size="33.0" fill="#EAEAEA" transform="matrix(1.00, 0.00, -0.00, -1.00, 143.2, 295.0)">2</text><text xml:space="preserve" font-family="AndaleMono" font-size="33.0" fill="#EAEAEA" transform="matrix(1.00, 0.00, -0.00, -1.00, 163.0, 295.0)">8</text><text xml:space="preserve" font-family="AndaleMono" font-size="33.0" fill="#EAEAEA" transform="matrix(1.00, 0.00, -0.00, -1.00, 182.8, 295.0)">,</text><text xml:space="preserve" font-family="AndaleMono" font-size="33.0" fill="#EAEAEA" transform="matrix(1.00, 0.00, -0.00, -1.00, 202.6, 295.0)"> </text><text xml:space="preserve" font-family="AndaleMono" font-size="33.0" fill="#EAEAEA" transform="matrix(1.00, 0.00, -0.00, -1.00, 222.5, 295.0)">1</text><text xml:space="preserve" font-family="AndaleMono" font-size="33.0" fill="#EAEAEA" transform="matrix(1.00, 0.00, -0.00, -1.00, 242.3, 295.0)">4</text><text xml:space="preserve" font-family="AndaleMono" font-size="33.0" fill="#EAEAEA" transform="matrix(1.00, 0.00, -0.00, -1.00, 262.1, 295.0)">,</text><text xml:space="preserve" font-family="AndaleMono" font-size="33.0" fill="#EAEAEA" transform="matrix(1.00, 0.00, -0.00, -1.00, 281.9, 295.0)"> </text><text xml:space="preserve" font-family="AndaleMono" font-size="33.0" fill="#EAEAEA" transform="matrix(1.00, 0.00, -0.00, -1.00, 301.7, 295.0)">7</text><text xml:space="preserve" font-family="AndaleMono" font-size="33.0" fill="#EAEAEA" transform="matrix(1.00, 0.00, -0.00, -1.00, 321.5, 295.0)">,</text><text xml:space="preserve" font-family="AndaleMono" font-size="33.0" fill="#EAEAEA" transform="matrix(1.00, 0.00, -0.00, -1.00, 341.3, 295.0)"> </text><text xml:space="preserve" font-family="AndaleMono" font-size="33.0" fill="#EAEAEA" transform="matrix(1.00, 0.00, -0.00, -1.00, 361.1, 295.0)">2</text><text xml:space="preserve" font-family="AndaleMono" font-size="33.0" fill="#EAEAEA" transform="matrix(1.00, 0.00, -0.00, -1.00, 380.9, 295.0)">2</text><text xml:space="preserve" font-family="AndaleMono" font-size="33.0" fill="#EAEAEA" transform="matrix(1.00, 0.00, -0.00, -1.00, 400.7, 295.0)">,</text><text xml:space="preserve" font-family="AndaleMono" font-size="33.0" fill="#EAEAEA" transform="matrix(1.00, 0.00, -0.00, -1.00, 420.5, 295.0)"> </text><text xml:space="preserve" font-family="AndaleMono" font-size="33.0" fill="#EAEAEA" transform="matrix(1.00, 0.00, -0.00, -1.00, 440.3, 295.0)">1</text><text xml:space="preserve" font-family="AndaleMono" font-size="33.0" fill="#EAEAEA" transform="matrix(1.00, 0.00, -0.00, -1.00, 460.1, 295.0)">1</text><text xml:space="preserve" font-family="AndaleMono" font-size="33.0" fill="#EAEAEA" transform="matrix(1.00, 0.00, -0.00, -1.00, 479.9, 295.0)">,</text><text xml:space="preserve" font-family="AndaleMono" font-size="33.0" fill="#EAEAEA" transform="matrix(1.00, 0.00, -0.00, -1.00, 499.7, 295.0)"> </text><text xml:space="preserve" font-family="AndaleMono" font-size="33.0" fill="#EAEAEA" transform="matrix(1.00, 0.00, -0.00, -1.00, 519.6, 295.0)">3</text><text xml:space="preserve" font-family="AndaleMono" font-size="33.0" fill="#EAEAEA" transform="matrix(1.00, 0.00, -0.00, -1.00, 539.4, 295.0)">4</text><text xml:space="preserve" font-family="AndaleMono" font-size="33.0" fill="#EAEAEA" transform="matrix(1.00, 0.00, -0.00, -1.00, 559.2, 295.0)">,</text><text xml:space="preserve" font-family="AndaleMono" font-size="33.0" fill="#EAEAEA" transform="matrix(1.00, 0.00, -0.00, -1.00, 579.0, 295.0)"> </text><text xml:space="preserve" font-family="AndaleMono" font-size="33.0" fill="#EAEAEA" transform="matrix(1.00, 0.00, -0.00, -1.00, 598.8, 295.0)">1</text><text xml:space="preserve" font-family="AndaleMono" font-size="33.0" fill="#EAEAEA" transform="matrix(1.00, 0.00, -0.00, -1.00, 618.6, 295.0)">7</text><text xml:space="preserve" font-family="AndaleMono" font-size="33.0" fill="#EAEAEA" transform="matrix(1.00, 0.00, -0.00, -1.00, 638.4, 295.0)">,</text><text xml:space="preserve" font-family="AndaleMono" font-size="33.0" fill="#EAEAEA" transform="matrix(1.00, 0.00, -0.00, -1.00, 658.2, 295.0)"> </text><text xml:space="preserve" font-family="AndaleMono" font-size="33.0" fill="#EAEAEA" transform="matrix(1.00, 0.00, -0.00, -1.00, 678.0, 295.0)">5</text><text xml:space="preserve" font-family="AndaleMono" font-size="33.0" fill="#EAEAEA" transform="matrix(1.00, 0.00, -0.00, -1.00, 697.8, 295.0)">2</text><text xml:space="preserve" font-family="AndaleMono" font-size="33.0" fill="#EAEAEA" transform="matrix(1.00, 0.00, -0.00, -1.00, 717.6, 295.0)">,</text><text xml:space="preserve" font-family="AndaleMono" font-size="33.0" fill="#EAEAEA" transform="matrix(1.00, 0.00, -0.00, -1.00, 737.4, 295.0)"> </text><text xml:space="preserve" font-family="AndaleMono" font-size="33.0" fill="#EAEAEA" transform="matrix(1.00, 0.00, -0.00, -1.00, 757.2, 295.0)">2</text><text xml:space="preserve" font-family="AndaleMono" font-size="33.0" fill="#EAEAEA" transform="matrix(1.00, 0.00, -0.00, -1.00, 777.0, 295.0)">6</text><text xml:space="preserve" font-family="AndaleMono" font-size="33.0" fill="#EAEAEA" transform="matrix(1.00, 0.00, -0.00, -1.00, 796.8, 295.0)">,</text><text xml:space="preserve" font-family="AndaleMono" font-size="33.0" fill="#EAEAEA" transform="matrix(1.00, 0.00, -0.00, -1.00, 816.6, 295.0)"> </text><text xml:space="preserve" font-family="AndaleMono" font-size="33.0" fill="#EAEAEA" transform="matrix(1.00, 0.00, -0.00, -1.00, 836.5, 295.0)">1</text><text xml:space="preserve" font-family="AndaleMono" font-size="33.0" fill="#EAEAEA" transform="matrix(1.00, 0.00, -0.00, -1.00, 856.3, 295.0)">3</text><text xml:space="preserve" font-family="AndaleMono" font-size="33.0" fill="#EAEAEA" transform="matrix(1.00, 0.00, -0.00, -1.00, 876.1, 295.0)">,</text><text xml:space="preserve" font-family="AndaleMono" font-size="33.0" fill="#EAEAEA" transform="matrix(1.00, 0.00, -0.00, -1.00, 895.9, 295.0)"> </text><image xlink:href="3D9051C7B0782F8121DBE5CD54C93A3B.png" width="593.00" height="37.00" transform="matrix(1.00, 0.00, -0.00, -1.00, 61.0, 284.0)"></image><text xml:space="preserve" font-family="AndaleMono" font-size="33.0" fill="#EAEAEA" transform="matrix(1.00, 0.00, -0.00, -1.00, 64.0, 258.0)">4</text><text xml:space="preserve" font-family="AndaleMono" font-size="33.0" fill="#EAEAEA" transform="matrix(1.00, 0.00, -0.00, -1.00, 83.8, 258.0)">0</text><text xml:space="preserve" font-family="AndaleMono" font-size="33.0" fill="#EAEAEA" transform="matrix(1.00, 0.00, -0.00, -1.00, 103.6, 258.0)">,</text><text xml:space="preserve" font-family="AndaleMono" font-size="33.0" fill="#EAEAEA" transform="matrix(1.00, 0.00, -0.00, -1.00, 123.4, 258.0)"> </text><text xml:space="preserve" font-family="AndaleMono" font-size="33.0" fill="#EAEAEA" transform="matrix(1.00, 0.00, -0.00, -1.00, 143.2, 258.0)">2</text><text xml:space="preserve" font-family="AndaleMono" font-size="33.0" fill="#EAEAEA" transform="matrix(1.00, 0.00, -0.00, -1.00, 163.0, 258.0)">0</text><text xml:space="preserve" font-family="AndaleMono" font-size="33.0" fill="#EAEAEA" transform="matrix(1.00, 0.00, -0.00, -1.00, 182.8, 258.0)">,</text><text xml:space="preserve" font-family="AndaleMono" font-size="33.0" fill="#EAEAEA" transform="matrix(1.00, 0.00, -0.00, -1.00, 202.6, 258.0)"> </text><text xml:space="preserve" font-family="AndaleMono" font-size="33.0" fill="#EAEAEA" transform="matrix(1.00, 0.00, -0.00, -1.00, 222.5, 258.0)">1</text><text xml:space="preserve" font-family="AndaleMono" font-size="33.0" fill="#EAEAEA" transform="matrix(1.00, 0.00, -0.00, -1.00, 242.3, 258.0)">0</text><text xml:space="preserve" font-family="AndaleMono" font-size="33.0" fill="#EAEAEA" transform="matrix(1.00, 0.00, -0.00, -1.00, 262.1, 258.0)">,</text><text xml:space="preserve" font-family="AndaleMono" font-size="33.0" fill="#EAEAEA" transform="matrix(1.00, 0.00, -0.00, -1.00, 281.9, 258.0)"> </text><text xml:space="preserve" font-family="AndaleMono" font-size="33.0" fill="#EAEAEA" transform="matrix(1.00, 0.00, -0.00, -1.00, 301.7, 258.0)">5</text><text xml:space="preserve" font-family="AndaleMono" font-size="33.0" fill="#EAEAEA" transform="matrix(1.00, 0.00, -0.00, -1.00, 321.5, 258.0)">,</text><text xml:space="preserve" font-family="AndaleMono" font-size="33.0" fill="#EAEAEA" transform="matrix(1.00, 0.00, -0.00, -1.00, 341.3, 258.0)"> </text><text xml:space="preserve" font-family="AndaleMono" font-size="33.0" fill="#EAEAEA" transform="matrix(1.00, 0.00, -0.00, -1.00, 361.1, 258.0)">1</text><text xml:space="preserve" font-family="AndaleMono" font-size="33.0" fill="#EAEAEA" transform="matrix(1.00, 0.00, -0.00, -1.00, 380.9, 258.0)">6</text><text xml:space="preserve" font-family="AndaleMono" font-size="33.0" fill="#EAEAEA" transform="matrix(1.00, 0.00, -0.00, -1.00, 400.7, 258.0)">,</text><text xml:space="preserve" font-family="AndaleMono" font-size="33.0" fill="#EAEAEA" transform="matrix(1.00, 0.00, -0.00, -1.00, 420.5, 258.0)"> </text><text xml:space="preserve" font-family="AndaleMono" font-size="33.0" fill="#EAEAEA" transform="matrix(1.00, 0.00, -0.00, -1.00, 440.3, 258.0)">8</text><text xml:space="preserve" font-family="AndaleMono" font-size="33.0" fill="#EAEAEA" transform="matrix(1.00, 0.00, -0.00, -1.00, 460.1, 258.0)">,</text><text xml:space="preserve" font-family="AndaleMono" font-size="33.0" fill="#EAEAEA" transform="matrix(1.00, 0.00, -0.00, -1.00, 479.9, 258.0)"> </text><text xml:space="preserve" font-family="AndaleMono" font-size="33.0" fill="#EAEAEA" transform="matrix(1.00, 0.00, -0.00, -1.00, 499.7, 258.0)">4</text><text xml:space="preserve" font-family="AndaleMono" font-size="33.0" fill="#EAEAEA" transform="matrix(1.00, 0.00, -0.00, -1.00, 519.6, 258.0)">,</text><text xml:space="preserve" font-family="AndaleMono" font-size="33.0" fill="#EAEAEA" transform="matrix(1.00, 0.00, -0.00, -1.00, 539.4, 258.0)"> </text><text xml:space="preserve" font-family="AndaleMono" font-size="33.0" fill="#EAEAEA" transform="matrix(1.00, 0.00, -0.00, -1.00, 559.2, 258.0)">2</text><text xml:space="preserve" font-family="AndaleMono" font-size="33.0" fill="#EAEAEA" transform="matrix(1.00, 0.00, -0.00, -1.00, 579.0, 258.0)">,</text><text xml:space="preserve" font-family="AndaleMono" font-size="33.0" fill="#EAEAEA" transform="matrix(1.00, 0.00, -0.00, -1.00, 598.8, 258.0)"> </text><text xml:space="preserve" font-family="AndaleMono" font-size="33.0" fill="#EAEAEA" transform="matrix(1.00, 0.00, -0.00, -1.00, 618.6, 258.0)">1</text><text xml:space="preserve" font-family="AndaleMono" font-size="33.0" fill="#EAEAEA" transform="matrix(1.00, 0.00, -0.00, -1.00, 638.4, 258.0)">]</text><text xml:space="preserve" font-family="AndaleMono" font-size="33.0" fill="#EAEAEA" transform="matrix(1.00, 0.00, -0.00, -1.00, 658.1, 258.0)"> </text><image xlink:href="../../3D22B4D2-ADB8-49BA-AB82-64DDDFBD2CFF/assets/0434DE27F38E5E710791A6F105FD76FC.png" width="18.00" height="18.00" transform="matrix(1.00, 0.00, -0.00, -1.00, 61.0, 195.0)"></image><text xml:space="preserve" font-family="HelveticaNeue-Medium" font-size="25.5" fill="#EAEAEA" transform="matrix(1.00, 0.00, -0.00, -1.00, 64.0, 178.9)">•</text><image xlink:href="../../47268E16-E7B5-429C-8713-3E6A76871230/assets/EB6A5F2ED735A9DCFE70FEE77575CAA8.png" width="66.00" height="34.00" transform="matrix(1.00, 0.00, -0.00, -1.00, 92.0, 203.0)"></image><text xml:space="preserve" font-family="HelveticaNeue-Medium" font-size="34.0" fill="#EAEAEA" transform="matrix(1.00, 0.00, -0.00, -1.00, 96.0, 176.0)">T</text><text xml:space="preserve" font-family="HelveticaNeue-Medium" font-size="34.0" fill="#EAEAEA" transform="matrix(1.00, 0.00, -0.00, -1.00, 116.2, 176.0)">h</text><text xml:space="preserve" font-family="HelveticaNeue-Medium" font-size="34.0" fill="#EAEAEA" transform="matrix(1.00, 0.00, -0.00, -1.00, 135.7, 176.0)">e</text><text xml:space="preserve" font-family="HelveticaNeue-Medium" font-size="34.0" fill="#EAEAEA" transform="matrix(1.00, 0.00, -0.00, -1.00, 154.6, 176.0)"> </text><image xlink:href="458C043B4C2E85718FED043B8A1C1992.png" width="29.00" height="11.00" transform="matrix(1.00, 0.00, -0.00, -1.00, 160.0, 173.0)"></image><text xml:space="preserve" font-family="AndaleMono" font-size="34.0" fill="#EAEAEA" transform="matrix(1.00, 0.00, -0.00, -1.00, 164.0, 176.0)">_</text><image xlink:href="50926B58222AD92AB151301961C98228.png" width="522.00" height="40.00" transform="matrix(1.00, 0.00, -0.00, -1.00, 192.0, 203.0)"></image><text xml:space="preserve" font-family="HelveticaNeue-Medium" font-size="34.0" fill="#EAEAEA" transform="matrix(1.00, 0.00, -0.00, -1.00, 184.4, 176.0)"> </text><text xml:space="preserve" font-family="HelveticaNeue-Medium" font-size="34.0" fill="#EAEAEA" transform="matrix(1.00, 0.00, -0.00, -1.00, 193.9, 176.0)">i</text><text xml:space="preserve" font-family="HelveticaNeue-Medium" font-size="34.0" fill="#EAEAEA" transform="matrix(1.00, 0.00, -0.00, -1.00, 202.1, 176.0)">s</text><text xml:space="preserve" font-family="HelveticaNeue-Medium" font-size="34.0" fill="#EAEAEA" transform="matrix(1.00, 0.00, -0.00, -1.00, 219.7, 176.0)"> </text><text xml:space="preserve" font-family="HelveticaNeue-Medium" font-size="34.0" fill="#EAEAEA" transform="matrix(1.00, 0.00, -0.00, -1.00, 229.2, 176.0)">t</text><text xml:space="preserve" font-family="HelveticaNeue-Medium" font-size="34.0" fill="#EAEAEA" transform="matrix(1.00, 0.00, -0.00, -1.00, 240.5, 176.0)">h</text><text xml:space="preserve" font-family="HelveticaNeue-Medium" font-size="34.0" fill="#EAEAEA" transform="matrix(1.00, 0.00, -0.00, -1.00, 260.0, 176.0)">e</text><text xml:space="preserve" font-family="HelveticaNeue-Medium" font-size="34.0" fill="#EAEAEA" transform="matrix(1.00, 0.00, -0.00, -1.00, 278.9, 176.0)"> </text><text xml:space="preserve" font-family="HelveticaNeue-Medium" font-size="34.0" fill="#EAEAEA" transform="matrix(1.00, 0.00, -0.00, -1.00, 288.4, 176.0)">p</text><text xml:space="preserve" font-family="HelveticaNeue-Medium" font-size="34.0" fill="#EAEAEA" transform="matrix(1.00, 0.00, -0.00, -1.00, 309.1, 176.0)">r</text><text xml:space="preserve" font-family="HelveticaNeue-Medium" font-size="34.0" fill="#EAEAEA" transform="matrix(1.00, 0.00, -0.00, -1.00, 320.5, 176.0)">e</text><text xml:space="preserve" font-family="HelveticaNeue-Medium" font-size="34.0" fill="#EAEAEA" transform="matrix(1.00, 0.00, -0.00, -1.00, 339.4, 176.0)">v</text><text xml:space="preserve" font-family="HelveticaNeue-Medium" font-size="34.0" fill="#EAEAEA" transform="matrix(1.00, 0.00, -0.00, -1.00, 357.1, 176.0)">i</text><text xml:space="preserve" font-family="HelveticaNeue-Medium" font-size="34.0" fill="#EAEAEA" transform="matrix(1.00, 0.00, -0.00, -1.00, 365.2, 176.0)">o</text><text xml:space="preserve" font-family="HelveticaNeue-Medium" font-size="34.0" fill="#EAEAEA" transform="matrix(1.00, 0.00, -0.00, -1.00, 385.4, 176.0)">u</text><text xml:space="preserve" font-family="HelveticaNeue-Medium" font-size="34.0" fill="#EAEAEA" transform="matrix(1.00, 0.00, -0.00, -1.00, 404.9, 176.0)">s</text><text xml:space="preserve" font-family="HelveticaNeue-Medium" font-size="34.0" fill="#EAEAEA" transform="matrix(1.00, 0.00, -0.00, -1.00, 422.6, 176.0)">l</text><text xml:space="preserve" font-family="HelveticaNeue-Medium" font-size="34.0" fill="#EAEAEA" transform="matrix(1.00, 0.00, -0.00, -1.00, 430.8, 176.0)">y</text><text xml:space="preserve" font-family="HelveticaNeue-Medium" font-size="34.0" fill="#EAEAEA" transform="matrix(1.00, 0.00, -0.00, -1.00, 448.4, 176.0)"> </text><text xml:space="preserve" font-family="HelveticaNeue-Medium" font-size="34.0" fill="#EAEAEA" transform="matrix(1.00, 0.00, -0.00, -1.00, 457.9, 176.0)">c</text><text xml:space="preserve" font-family="HelveticaNeue-Medium" font-size="34.0" fill="#EAEAEA" transform="matrix(1.00, 0.00, -0.00, -1.00, 476.8, 176.0)">o</text><text xml:space="preserve" font-family="HelveticaNeue-Medium" font-size="34.0" fill="#EAEAEA" transform="matrix(1.00, 0.00, -0.00, -1.00, 496.9, 176.0)">m</text><text xml:space="preserve" font-family="HelveticaNeue-Medium" font-size="34.0" fill="#EAEAEA" transform="matrix(1.00, 0.00, -0.00, -1.00, 526.5, 176.0)">p</text><text xml:space="preserve" font-family="HelveticaNeue-Medium" font-size="34.0" fill="#EAEAEA" transform="matrix(1.00, 0.00, -0.00, -1.00, 547.3, 176.0)">u</text><text xml:space="preserve" font-family="HelveticaNeue-Medium" font-size="34.0" fill="#EAEAEA" transform="matrix(1.00, 0.00, -0.00, -1.00, 566.8, 176.0)">t</text><text xml:space="preserve" font-family="HelveticaNeue-Medium" font-size="34.0" fill="#EAEAEA" transform="matrix(1.00, 0.00, -0.00, -1.00, 578.1, 176.0)">e</text><text xml:space="preserve" font-family="HelveticaNeue-Medium" font-size="34.0" fill="#EAEAEA" transform="matrix(1.00, 0.00, -0.00, -1.00, 597.0, 176.0)">d</text><text xml:space="preserve" font-family="HelveticaNeue-Medium" font-size="34.0" fill="#EAEAEA" transform="matrix(1.00, 0.00, -0.00, -1.00, 617.8, 176.0)"> </text><text xml:space="preserve" font-family="HelveticaNeue-Medium" font-size="34.0" fill="#EAEAEA" transform="matrix(1.00, 0.00, -0.00, -1.00, 627.3, 176.0)">v</text><text xml:space="preserve" font-family="HelveticaNeue-Medium" font-size="34.0" fill="#EAEAEA" transform="matrix(1.00, 0.00, -0.00, -1.00, 644.9, 176.0)">a</text><text xml:space="preserve" font-family="HelveticaNeue-Medium" font-size="34.0" fill="#EAEAEA" transform="matrix(1.00, 0.00, -0.00, -1.00, 663.8, 176.0)">l</text><text xml:space="preserve" font-family="HelveticaNeue-Medium" font-size="34.0" fill="#EAEAEA" transform="matrix(1.00, 0.00, -0.00, -1.00, 672.0, 176.0)">u</text><text xml:space="preserve" font-family="HelveticaNeue-Medium" font-size="34.0" fill="#EAEAEA" transform="matrix(1.00, 0.00, -0.00, -1.00, 691.5, 176.0)">e</text></g></svg>