<?xml version="1.0" encoding="UTF-8" standalone="no"?><svg xmlns="http://www.w3.org/2000/svg" xmlns:xlink="http://www.w3.org/1999/xlink" clip-rule="evenodd" stroke-miterlimit="4.00" viewBox="0 0 1024 768"><desc>SVG generated by Keynote</desc><defs></defs><g transform="matrix(1.00, 0.00, -0.00, -1.00, 0.0, 768.0)"><g><clipPath id="clip-161"><path d="M 0.0 768.0 L 1024.0 768.0 L 1024.0 0.0 L 0.0 0.0 Z M 0.0 768.0 "></path></clipPath><g clip-path="url(#clip-161)"><image xlink:href="../../363ACDF5-F69A-4348-A617-267FC1DCB792/assets/2CA05975C404A6B79EB2D17D5C3EEC1C.jpeg" width="1024.00" height="768.00" transform="matrix(1.00, 0.00, -0.00, -1.00, 0.0, 768.0)"></image></g></g><image xlink:href="../../71E3E0D9-B196-4FE6-B5CC-DE8D1CBE4DC5/assets/72EE5047DC4D61DCFB7E810765CA2F00.png" width="314.00" height="60.00" transform="matrix(1.00, 0.00, -0.00, -1.00, 355.0, 441.0)"></image><text xml:space="preserve" font-family="HelveticaNeue-Bold" font-weight="bold" font-size="64.0" fill="#FEFFFE" transform="matrix(1.00, 0.00, -0.00, -1.00, 357.0, 392.0)">Q</text><text xml:space="preserve" font-family="HelveticaNeue-Bold" font-weight="bold" font-size="64.0" fill="#FEFFFE" transform="matrix(1.00, 0.00, -0.00, -1.00, 406.8, 392.0)">u</text><text xml:space="preserve" font-family="HelveticaNeue-Bold" font-weight="bold" font-size="64.0" fill="#FEFFFE" transform="matrix(1.00, 0.00, -0.00, -1.00, 444.7, 392.0)">e</text><text xml:space="preserve" font-family="HelveticaNeue-Bold" font-weight="bold" font-size="64.0" fill="#FEFFFE" transform="matrix(1.00, 0.00, -0.00, -1.00, 481.5, 392.0)">s</text><text xml:space="preserve" font-family="HelveticaNeue-Bold" font-weight="bold" font-size="64.0" fill="#FEFFFE" transform="matrix(1.00, 0.00, -0.00, -1.00, 515.8, 392.0)">t</text><text xml:space="preserve" font-family="HelveticaNeue-Bold" font-weight="bold" font-size="64.0" fill="#FEFFFE" transform="matrix(1.00, 0.00, -0.00, -1.00, 538.4, 392.0)">i</text><text xml:space="preserve" font-family="HelveticaNeue-Bold" font-weight="bold" font-size="64.0" fill="#FEFFFE" transform="matrix(1.00, 0.00, -0.00, -1.00, 554.9, 392.0)">o</text><text xml:space="preserve" font-family="HelveticaNeue-Bold" font-weight="bold" font-size="64.0" fill="#FEFFFE" transform="matrix(1.00, 0.00, -0.00, -1.00, 594.0, 392.0)">n</text><text xml:space="preserve" font-family="HelveticaNeue-Bold" font-weight="bold" font-size="64.0" fill="#FEFFFE" transform="matrix(1.00, 0.00, -0.00, -1.00, 631.9, 392.0)">s</text><image xlink:href="B5C0BCB8FFA34662FD20909B5EB04A06.png" width="218.00" height="31.00" transform="matrix(1.00, 0.00, -0.00, -1.00, 403.0, 355.0)"></image><text xml:space="preserve" font-family="HelveticaNeue-Medium" font-size="24.0" fill="#FEFFFE" transform="matrix(1.00, 0.00, -0.00, -1.00, 406.0, 335.0)">F</text><text xml:space="preserve" font-family="HelveticaNeue-Medium" font-size="24.0" fill="#FEFFFE" transform="matrix(1.00, 0.00, -0.00, -1.00, 420.2, 335.0)">u</text><text xml:space="preserve" font-family="HelveticaNeue-Medium" font-size="24.0" fill="#FEFFFE" transform="matrix(1.00, 0.00, -0.00, -1.00, 434.0, 335.0)">n</text><text xml:space="preserve" font-family="HelveticaNeue-Medium" font-size="24.0" fill="#FEFFFE" transform="matrix(1.00, 0.00, -0.00, -1.00, 447.8, 335.0)">c</text><text xml:space="preserve" font-family="HelveticaNeue-Medium" font-size="24.0" fill="#FEFFFE" transform="matrix(1.00, 0.00, -0.00, -1.00, 461.1, 335.0)">t</text><text xml:space="preserve" font-family="HelveticaNeue-Medium" font-size="24.0" fill="#FEFFFE" transform="matrix(1.00, 0.00, -0.00, -1.00, 469.1, 335.0)">i</text><text xml:space="preserve" font-family="HelveticaNeue-Medium" font-size="24.0" fill="#FEFFFE" transform="matrix(1.00, 0.00, -0.00, -1.00, 474.9, 335.0)">o</text><text xml:space="preserve" font-family="HelveticaNeue-Medium" font-size="24.0" fill="#FEFFFE" transform="matrix(1.00, 0.00, -0.00, -1.00, 489.1, 335.0)">n</text><text xml:space="preserve" font-family="HelveticaNeue-Medium" font-size="24.0" fill="#FEFFFE" transform="matrix(1.00, 0.00, -0.00, -1.00, 502.9, 335.0)"> </text><text xml:space="preserve" font-family="HelveticaNeue-Medium" font-size="24.0" fill="#FEFFFE" transform="matrix(1.00, 0.00, -0.00, -1.00, 509.6, 335.0)">W</text><text xml:space="preserve" font-family="HelveticaNeue-Medium" font-size="24.0" fill="#FEFFFE" transform="matrix(1.00, 0.00, -0.00, -1.00, 531.8, 335.0)">r</text><text xml:space="preserve" font-family="HelveticaNeue-Medium" font-size="24.0" fill="#FEFFFE" transform="matrix(1.00, 0.00, -0.00, -1.00, 540.3, 335.0)">a</text><text xml:space="preserve" font-family="HelveticaNeue-Medium" font-size="24.0" fill="#FEFFFE" transform="matrix(1.00, 0.00, -0.00, -1.00, 553.6, 335.0)">p</text><text xml:space="preserve" font-family="HelveticaNeue-Medium" font-size="24.0" fill="#FEFFFE" transform="matrix(1.00, 0.00, -0.00, -1.00, 568.3, 335.0)">p</text><text xml:space="preserve" font-family="HelveticaNeue-Medium" font-size="24.0" fill="#FEFFFE" transform="matrix(1.00, 0.00, -0.00, -1.00, 582.9, 335.0)">e</text><text xml:space="preserve" font-family="HelveticaNeue-Medium" font-size="24.0" fill="#FEFFFE" transform="matrix(1.00, 0.00, -0.00, -1.00, 596.3, 335.0)">r</text><text xml:space="preserve" font-family="HelveticaNeue-Medium" font-size="24.0" fill="#FEFFFE" transform="matrix(1.00, 0.00, -0.00, -1.00, 604.7, 335.0)">s</text></g></svg>