<?xml version="1.0" encoding="UTF-8" standalone="no"?><svg xmlns="http://www.w3.org/2000/svg" xmlns:xlink="http://www.w3.org/1999/xlink" clip-rule="evenodd" stroke-miterlimit="4.00" viewBox="0 0 1024 768"><desc>SVG generated by Keynote</desc><defs></defs><g transform="matrix(1.00, 0.00, -0.00, -1.00, 0.0, 768.0)"><g><clipPath id="clip-194"><path d="M 0.0 768.0 L 1024.0 768.0 L 1024.0 0.0 L 0.0 0.0 Z M 0.0 768.0 "></path></clipPath><g clip-path="url(#clip-194)"><image xlink:href="../../363ACDF5-F69A-4348-A617-267FC1DCB792/assets/2CA05975C404A6B79EB2D17D5C3EEC1C.jpeg" width="1024.00" height="768.00" transform="matrix(1.00, 0.00, -0.00, -1.00, 0.0, 768.0)"></image></g></g><image xlink:href="../../02D6327D-3301-4719-8E82-9B09B6248CA4/assets/12584A83F309F1544B30CE23F4BB0302.png" width="441.00" height="55.00" transform="matrix(1.00, 0.00, -0.00, -1.00, 293.0, 692.0)"></image><text xml:space="preserve" font-family="HelveticaNeue-Bold" font-weight="bold" font-size="64.0" fill="#FEFFFE" transform="matrix(1.00, 0.00, -0.00, -1.00, 293.0, 644.0)">N</text><text xml:space="preserve" font-family="HelveticaNeue-Bold" font-weight="bold" font-size="64.0" fill="#FEFFFE" transform="matrix(1.00, 0.00, -0.00, -1.00, 340.4, 644.0)">o</text><text xml:space="preserve" font-family="HelveticaNeue-Bold" font-weight="bold" font-size="64.0" fill="#FEFFFE" transform="matrix(1.00, 0.00, -0.00, -1.00, 379.5, 644.0)">t</text><text xml:space="preserve" font-family="HelveticaNeue-Bold" font-weight="bold" font-size="64.0" fill="#FEFFFE" transform="matrix(1.00, 0.00, -0.00, -1.00, 402.1, 644.0)">e</text><text xml:space="preserve" font-family="HelveticaNeue-Bold" font-weight="bold" font-size="64.0" fill="#FEFFFE" transform="matrix(1.00, 0.00, -0.00, -1.00, 438.8, 644.0)"> </text><text xml:space="preserve" font-family="HelveticaNeue-Bold" font-weight="bold" font-size="64.0" fill="#FEFFFE" transform="matrix(1.00, 0.00, -0.00, -1.00, 456.6, 644.0)">t</text><text xml:space="preserve" font-family="HelveticaNeue-Bold" font-weight="bold" font-size="64.0" fill="#FEFFFE" transform="matrix(1.00, 0.00, -0.00, -1.00, 479.1, 644.0)">h</text><text xml:space="preserve" font-family="HelveticaNeue-Bold" font-weight="bold" font-size="64.0" fill="#FEFFFE" transform="matrix(1.00, 0.00, -0.00, -1.00, 517.1, 644.0)">e</text><text xml:space="preserve" font-family="HelveticaNeue-Bold" font-weight="bold" font-size="64.0" fill="#FEFFFE" transform="matrix(1.00, 0.00, -0.00, -1.00, 553.8, 644.0)"> </text><text xml:space="preserve" font-family="HelveticaNeue-Bold" font-weight="bold" font-size="64.0" fill="#FEFFFE" transform="matrix(1.00, 0.00, -0.00, -1.00, 571.6, 644.0)">i</text><text xml:space="preserve" font-family="HelveticaNeue-Bold" font-weight="bold" font-size="64.0" fill="#FEFFFE" transform="matrix(1.00, 0.00, -0.00, -1.00, 588.1, 644.0)">s</text><text xml:space="preserve" font-family="HelveticaNeue-Bold" font-weight="bold" font-size="64.0" fill="#FEFFFE" transform="matrix(1.00, 0.00, -0.00, -1.00, 622.5, 644.0)">s</text><text xml:space="preserve" font-family="HelveticaNeue-Bold" font-weight="bold" font-size="64.0" fill="#FEFFFE" transform="matrix(1.00, 0.00, -0.00, -1.00, 656.8, 644.0)">u</text><text xml:space="preserve" font-family="HelveticaNeue-Bold" font-weight="bold" font-size="64.0" fill="#FEFFFE" transform="matrix(1.00, 0.00, -0.00, -1.00, 694.8, 644.0)">e</text><image xlink:href="../../363ACDF5-F69A-4348-A617-267FC1DCB792/assets/7AC7675442C37451EC00DCA9ADA7780C.png" width="17.00" height="18.00" transform="matrix(1.00, 0.00, -0.00, -1.00, 61.0, 561.0)"></image><text xml:space="preserve" font-family="HelveticaNeue-Medium" font-size="22.9" fill="#EAEAEA" transform="matrix(1.00, 0.00, -0.00, -1.00, 64.0, 545.8)">•</text><image xlink:href="../../02D6327D-3301-4719-8E82-9B09B6248CA4/assets/1C0832FB33BBD4BEB7D4F3A7FC9A5A22.png" width="615.00" height="37.00" transform="matrix(1.00, 0.00, -0.00, -1.00, 91.0, 567.0)"></image><text xml:space="preserve" font-family="HelveticaNeue-Medium" font-size="30.6" fill="#EAEAEA" transform="matrix(1.00, 0.00, -0.00, -1.00, 93.0, 543.0)">H</text><text xml:space="preserve" font-family="HelveticaNeue-Medium" font-size="30.6" fill="#EAEAEA" transform="matrix(1.00, 0.00, -0.00, -1.00, 115.1, 543.0)">y</text><text xml:space="preserve" font-family="HelveticaNeue-Medium" font-size="30.6" fill="#EAEAEA" transform="matrix(1.00, 0.00, -0.00, -1.00, 131.0, 543.0)">s</text><text xml:space="preserve" font-family="HelveticaNeue-Medium" font-size="30.6" fill="#EAEAEA" transform="matrix(1.00, 0.00, -0.00, -1.00, 146.9, 543.0)">t</text><text xml:space="preserve" font-family="HelveticaNeue-Medium" font-size="30.6" fill="#EAEAEA" transform="matrix(1.00, 0.00, -0.00, -1.00, 157.0, 543.0)">e</text><text xml:space="preserve" font-family="HelveticaNeue-Medium" font-size="30.6" fill="#EAEAEA" transform="matrix(1.00, 0.00, -0.00, -1.00, 174.1, 543.0)">r</text><text xml:space="preserve" font-family="HelveticaNeue-Medium" font-size="30.6" fill="#EAEAEA" transform="matrix(1.00, 0.00, -0.00, -1.00, 184.3, 543.0)">e</text><text xml:space="preserve" font-family="HelveticaNeue-Medium" font-size="30.6" fill="#EAEAEA" transform="matrix(1.00, 0.00, -0.00, -1.00, 201.3, 543.0)">s</text><text xml:space="preserve" font-family="HelveticaNeue-Medium" font-size="30.6" fill="#EAEAEA" transform="matrix(1.00, 0.00, -0.00, -1.00, 217.2, 543.0)">i</text><text xml:space="preserve" font-family="HelveticaNeue-Medium" font-size="30.6" fill="#EAEAEA" transform="matrix(1.00, 0.00, -0.00, -1.00, 224.5, 543.0)">s</text><text xml:space="preserve" font-family="HelveticaNeue-Medium" font-size="30.6" fill="#EAEAEA" transform="matrix(1.00, 0.00, -0.00, -1.00, 240.4, 543.0)"> </text><text xml:space="preserve" font-family="HelveticaNeue-Medium" font-size="30.6" fill="#EAEAEA" transform="matrix(1.00, 0.00, -0.00, -1.00, 248.9, 543.0)">—</text><text xml:space="preserve" font-family="HelveticaNeue-Medium" font-size="30.6" fill="#EAEAEA" transform="matrix(1.00, 0.00, -0.00, -1.00, 279.5, 543.0)"> </text><text xml:space="preserve" font-family="HelveticaNeue-Medium" font-size="30.6" fill="#EAEAEA" transform="matrix(1.00, 0.00, -0.00, -1.00, 288.0, 543.0)">m</text><text xml:space="preserve" font-family="HelveticaNeue-Medium" font-size="30.6" fill="#EAEAEA" transform="matrix(1.00, 0.00, -0.00, -1.00, 314.7, 543.0)">e</text><text xml:space="preserve" font-family="HelveticaNeue-Medium" font-size="30.6" fill="#EAEAEA" transform="matrix(1.00, 0.00, -0.00, -1.00, 331.7, 543.0)">m</text><text xml:space="preserve" font-family="HelveticaNeue-Medium" font-size="30.6" fill="#EAEAEA" transform="matrix(1.00, 0.00, -0.00, -1.00, 358.3, 543.0)">o</text><text xml:space="preserve" font-family="HelveticaNeue-Medium" font-size="30.6" fill="#EAEAEA" transform="matrix(1.00, 0.00, -0.00, -1.00, 376.4, 543.0)">r</text><text xml:space="preserve" font-family="HelveticaNeue-Medium" font-size="30.6" fill="#EAEAEA" transform="matrix(1.00, 0.00, -0.00, -1.00, 387.2, 543.0)">y</text><text xml:space="preserve" font-family="HelveticaNeue-Medium" font-size="30.6" fill="#EAEAEA" transform="matrix(1.00, 0.00, -0.00, -1.00, 403.1, 543.0)"> </text><text xml:space="preserve" font-family="HelveticaNeue-Medium" font-size="30.6" fill="#EAEAEA" transform="matrix(1.00, 0.00, -0.00, -1.00, 411.6, 543.0)">o</text><text xml:space="preserve" font-family="HelveticaNeue-Medium" font-size="30.6" fill="#EAEAEA" transform="matrix(1.00, 0.00, -0.00, -1.00, 429.8, 543.0)">f</text><text xml:space="preserve" font-family="HelveticaNeue-Medium" font-size="30.6" fill="#EAEAEA" transform="matrix(1.00, 0.00, -0.00, -1.00, 439.4, 543.0)"> </text><text xml:space="preserve" font-family="HelveticaNeue-Medium" font-size="30.6" fill="#EAEAEA" transform="matrix(1.00, 0.00, -0.00, -1.00, 447.9, 543.0)">w</text><text xml:space="preserve" font-family="HelveticaNeue-Medium" font-size="30.6" fill="#EAEAEA" transform="matrix(1.00, 0.00, -0.00, -1.00, 471.7, 543.0)">h</text><text xml:space="preserve" font-family="HelveticaNeue-Medium" font-size="30.6" fill="#EAEAEA" transform="matrix(1.00, 0.00, -0.00, -1.00, 489.3, 543.0)">a</text><text xml:space="preserve" font-family="HelveticaNeue-Medium" font-size="30.6" fill="#EAEAEA" transform="matrix(1.00, 0.00, -0.00, -1.00, 506.3, 543.0)">t</text><text xml:space="preserve" font-family="HelveticaNeue-Medium" font-size="30.6" fill="#EAEAEA" transform="matrix(1.00, 0.00, -0.00, -1.00, 516.5, 543.0)"> </text><text xml:space="preserve" font-family="HelveticaNeue-Medium" font-size="30.6" fill="#EAEAEA" transform="matrix(1.00, 0.00, -0.00, -1.00, 525.0, 543.0)">c</text><text xml:space="preserve" font-family="HelveticaNeue-Medium" font-size="30.6" fill="#EAEAEA" transform="matrix(1.00, 0.00, -0.00, -1.00, 542.0, 543.0)">a</text><text xml:space="preserve" font-family="HelveticaNeue-Medium" font-size="30.6" fill="#EAEAEA" transform="matrix(1.00, 0.00, -0.00, -1.00, 559.0, 543.0)">m</text><text xml:space="preserve" font-family="HelveticaNeue-Medium" font-size="30.6" fill="#EAEAEA" transform="matrix(1.00, 0.00, -0.00, -1.00, 585.6, 543.0)">e</text><text xml:space="preserve" font-family="HelveticaNeue-Medium" font-size="30.6" fill="#EAEAEA" transform="matrix(1.00, 0.00, -0.00, -1.00, 602.6, 543.0)"> </text><text xml:space="preserve" font-family="HelveticaNeue-Medium" font-size="30.6" fill="#EAEAEA" transform="matrix(1.00, 0.00, -0.00, -1.00, 611.1, 543.0)">b</text><text xml:space="preserve" font-family="HelveticaNeue-Medium" font-size="30.6" fill="#EAEAEA" transform="matrix(1.00, 0.00, -0.00, -1.00, 629.8, 543.0)">e</text><text xml:space="preserve" font-family="HelveticaNeue-Medium" font-size="30.6" fill="#EAEAEA" transform="matrix(1.00, 0.00, -0.00, -1.00, 646.9, 543.0)">f</text><text xml:space="preserve" font-family="HelveticaNeue-Medium" font-size="30.6" fill="#EAEAEA" transform="matrix(1.00, 0.00, -0.00, -1.00, 656.5, 543.0)">o</text><text xml:space="preserve" font-family="HelveticaNeue-Medium" font-size="30.6" fill="#EAEAEA" transform="matrix(1.00, 0.00, -0.00, -1.00, 674.6, 543.0)">r</text><text xml:space="preserve" font-family="HelveticaNeue-Medium" font-size="30.6" fill="#EAEAEA" transform="matrix(1.00, 0.00, -0.00, -1.00, 684.9, 543.0)">e</text><text xml:space="preserve" font-family="HelveticaNeue-Medium" font-size="30.6" fill="#EAEAEA" transform="matrix(1.00, 0.00, -0.00, -1.00, 701.9, 543.0)"> </text><image xlink:href="../../363ACDF5-F69A-4348-A617-267FC1DCB792/assets/3E3B313EB42B8C1F9FD513694AB65154.png" width="17.00" height="17.00" transform="matrix(1.00, 0.00, -0.00, -1.00, 61.0, 485.0)"></image><text xml:space="preserve" font-family="HelveticaNeue-Medium" font-size="22.9" fill="#EAEAEA" transform="matrix(1.00, 0.00, -0.00, -1.00, 64.0, 470.0)">•</text><image xlink:href="../../02D6327D-3301-4719-8E82-9B09B6248CA4/assets/60FF88E60C353A33D6892E934AB81BEA.png" width="460.00" height="37.00" transform="matrix(1.00, 0.00, -0.00, -1.00, 88.0, 491.0)"></image><text xml:space="preserve" font-family="HelveticaNeue-Medium" font-size="30.6" fill="#EAEAEA" transform="matrix(1.00, 0.00, -0.00, -1.00, 93.0, 467.0)">A</text><text xml:space="preserve" font-family="HelveticaNeue-Medium" font-size="30.6" fill="#EAEAEA" transform="matrix(1.00, 0.00, -0.00, -1.00, 113.4, 467.0)"> </text><text xml:space="preserve" font-family="HelveticaNeue-Medium" font-size="30.6" fill="#EAEAEA" transform="matrix(1.00, 0.00, -0.00, -1.00, 121.9, 467.0)">c</text><text xml:space="preserve" font-family="HelveticaNeue-Medium" font-size="30.6" fill="#EAEAEA" transform="matrix(1.00, 0.00, -0.00, -1.00, 138.9, 467.0)">a</text><text xml:space="preserve" font-family="HelveticaNeue-Medium" font-size="30.6" fill="#EAEAEA" transform="matrix(1.00, 0.00, -0.00, -1.00, 155.9, 467.0)">l</text><text xml:space="preserve" font-family="HelveticaNeue-Medium" font-size="30.6" fill="#EAEAEA" transform="matrix(1.00, 0.00, -0.00, -1.00, 163.3, 467.0)">l</text><text xml:space="preserve" font-family="HelveticaNeue-Medium" font-size="30.6" fill="#EAEAEA" transform="matrix(1.00, 0.00, -0.00, -1.00, 170.7, 467.0)">a</text><text xml:space="preserve" font-family="HelveticaNeue-Medium" font-size="30.6" fill="#EAEAEA" transform="matrix(1.00, 0.00, -0.00, -1.00, 187.7, 467.0)">b</text><text xml:space="preserve" font-family="HelveticaNeue-Medium" font-size="30.6" fill="#EAEAEA" transform="matrix(1.00, 0.00, -0.00, -1.00, 206.4, 467.0)">l</text><text xml:space="preserve" font-family="HelveticaNeue-Medium" font-size="30.6" fill="#EAEAEA" transform="matrix(1.00, 0.00, -0.00, -1.00, 213.8, 467.0)">e</text><text xml:space="preserve" font-family="HelveticaNeue-Medium" font-size="30.6" fill="#EAEAEA" transform="matrix(1.00, 0.00, -0.00, -1.00, 230.8, 467.0)"> </text><text xml:space="preserve" font-family="HelveticaNeue-Medium" font-size="30.6" fill="#EAEAEA" transform="matrix(1.00, 0.00, -0.00, -1.00, 239.3, 467.0)">o</text><text xml:space="preserve" font-family="HelveticaNeue-Medium" font-size="30.6" fill="#EAEAEA" transform="matrix(1.00, 0.00, -0.00, -1.00, 257.4, 467.0)">b</text><text xml:space="preserve" font-family="HelveticaNeue-Medium" font-size="30.6" fill="#EAEAEA" transform="matrix(1.00, 0.00, -0.00, -1.00, 276.1, 467.0)">j</text><text xml:space="preserve" font-family="HelveticaNeue-Medium" font-size="30.6" fill="#EAEAEA" transform="matrix(1.00, 0.00, -0.00, -1.00, 283.5, 467.0)">e</text><text xml:space="preserve" font-family="HelveticaNeue-Medium" font-size="30.6" fill="#EAEAEA" transform="matrix(1.00, 0.00, -0.00, -1.00, 300.5, 467.0)">c</text><text xml:space="preserve" font-family="HelveticaNeue-Medium" font-size="30.6" fill="#EAEAEA" transform="matrix(1.00, 0.00, -0.00, -1.00, 317.5, 467.0)">t</text><text xml:space="preserve" font-family="HelveticaNeue-Medium" font-size="30.6" fill="#EAEAEA" transform="matrix(1.00, 0.00, -0.00, -1.00, 327.7, 467.0)"> </text><text xml:space="preserve" font-family="HelveticaNeue-Medium" font-size="30.6" fill="#EAEAEA" transform="matrix(1.00, 0.00, -0.00, -1.00, 336.2, 467.0)">c</text><text xml:space="preserve" font-family="HelveticaNeue-Medium" font-size="30.6" fill="#EAEAEA" transform="matrix(1.00, 0.00, -0.00, -1.00, 353.3, 467.0)">a</text><text xml:space="preserve" font-family="HelveticaNeue-Medium" font-size="30.6" fill="#EAEAEA" transform="matrix(1.00, 0.00, -0.00, -1.00, 370.3, 467.0)">n</text><text xml:space="preserve" font-family="HelveticaNeue-Medium" font-size="30.6" fill="#EAEAEA" transform="matrix(1.00, 0.00, -0.00, -1.00, 387.8, 467.0)"> </text><text xml:space="preserve" font-family="HelveticaNeue-Medium" font-size="30.6" fill="#EAEAEA" transform="matrix(1.00, 0.00, -0.00, -1.00, 396.3, 467.0)">b</text><text xml:space="preserve" font-family="HelveticaNeue-Medium" font-size="30.6" fill="#EAEAEA" transform="matrix(1.00, 0.00, -0.00, -1.00, 415.0, 467.0)">e</text><text xml:space="preserve" font-family="HelveticaNeue-Medium" font-size="30.6" fill="#EAEAEA" transform="matrix(1.00, 0.00, -0.00, -1.00, 432.0, 467.0)"> </text><text xml:space="preserve" font-family="HelveticaNeue-Medium" font-size="30.6" fill="#EAEAEA" transform="matrix(1.00, 0.00, -0.00, -1.00, 440.6, 467.0)">s</text><text xml:space="preserve" font-family="HelveticaNeue-Medium" font-size="30.6" fill="#EAEAEA" transform="matrix(1.00, 0.00, -0.00, -1.00, 456.4, 467.0)">t</text><text xml:space="preserve" font-family="HelveticaNeue-Medium" font-size="30.6" fill="#EAEAEA" transform="matrix(1.00, 0.00, -0.00, -1.00, 466.6, 467.0)">a</text><text xml:space="preserve" font-family="HelveticaNeue-Medium" font-size="30.6" fill="#EAEAEA" transform="matrix(1.00, 0.00, -0.00, -1.00, 483.6, 467.0)">t</text><text xml:space="preserve" font-family="HelveticaNeue-Medium" font-size="30.6" fill="#EAEAEA" transform="matrix(1.00, 0.00, -0.00, -1.00, 493.8, 467.0)">e</text><text xml:space="preserve" font-family="HelveticaNeue-Medium" font-size="30.6" fill="#EAEAEA" transform="matrix(1.00, 0.00, -0.00, -1.00, 510.8, 467.0)">f</text><text xml:space="preserve" font-family="HelveticaNeue-Medium" font-size="30.6" fill="#EAEAEA" transform="matrix(1.00, 0.00, -0.00, -1.00, 520.5, 467.0)">u</text><text xml:space="preserve" font-family="HelveticaNeue-Medium" font-size="30.6" fill="#EAEAEA" transform="matrix(1.00, 0.00, -0.00, -1.00, 538.0, 467.0)">l</text><text xml:space="preserve" font-family="HelveticaNeue-Medium" font-size="30.6" fill="#EAEAEA" transform="matrix(1.00, 0.00, -0.00, -1.00, 545.4, 467.0)"> </text><image xlink:href="../../363ACDF5-F69A-4348-A617-267FC1DCB792/assets/CB20C70EADA90375779C44F883921BB0.png" width="17.00" height="17.00" transform="matrix(1.00, 0.00, -0.00, -1.00, 61.0, 409.0)"></image><text xml:space="preserve" font-family="HelveticaNeue-Medium" font-size="22.9" fill="#EAEAEA" transform="matrix(1.00, 0.00, -0.00, -1.00, 64.0, 394.2)">•</text><image xlink:href="../../02D6327D-3301-4719-8E82-9B09B6248CA4/assets/C99CC38D39B5B15A37C34ED5E4F31C4D.png" width="672.00" height="37.00" transform="matrix(1.00, 0.00, -0.00, -1.00, 89.0, 415.0)"></image><text xml:space="preserve" font-family="HelveticaNeue-Medium" font-size="30.6" fill="#EAEAEA" transform="matrix(1.00, 0.00, -0.00, -1.00, 93.0, 391.0)">T</text><text xml:space="preserve" font-family="HelveticaNeue-Medium" font-size="30.6" fill="#EAEAEA" transform="matrix(1.00, 0.00, -0.00, -1.00, 111.1, 391.0)">h</text><text xml:space="preserve" font-family="HelveticaNeue-Medium" font-size="30.6" fill="#EAEAEA" transform="matrix(1.00, 0.00, -0.00, -1.00, 128.7, 391.0)">i</text><text xml:space="preserve" font-family="HelveticaNeue-Medium" font-size="30.6" fill="#EAEAEA" transform="matrix(1.00, 0.00, -0.00, -1.00, 136.1, 391.0)">s</text><text xml:space="preserve" font-family="HelveticaNeue-Medium" font-size="30.6" fill="#EAEAEA" transform="matrix(1.00, 0.00, -0.00, -1.00, 152.0, 391.0)"> </text><text xml:space="preserve" font-family="HelveticaNeue-Medium" font-size="30.6" fill="#EAEAEA" transform="matrix(1.00, 0.00, -0.00, -1.00, 160.5, 391.0)">m</text><text xml:space="preserve" font-family="HelveticaNeue-Medium" font-size="30.6" fill="#EAEAEA" transform="matrix(1.00, 0.00, -0.00, -1.00, 187.1, 391.0)">a</text><text xml:space="preserve" font-family="HelveticaNeue-Medium" font-size="30.6" fill="#EAEAEA" transform="matrix(1.00, 0.00, -0.00, -1.00, 204.1, 391.0)">y</text><text xml:space="preserve" font-family="HelveticaNeue-Medium" font-size="30.6" fill="#EAEAEA" transform="matrix(1.00, 0.00, -0.00, -1.00, 220.0, 391.0)"> </text><text xml:space="preserve" font-family="HelveticaNeue-Medium" font-size="30.6" fill="#EAEAEA" transform="matrix(1.00, 0.00, -0.00, -1.00, 228.5, 391.0)">b</text><text xml:space="preserve" font-family="HelveticaNeue-Medium" font-size="30.6" fill="#EAEAEA" transform="matrix(1.00, 0.00, -0.00, -1.00, 247.2, 391.0)">e</text><text xml:space="preserve" font-family="HelveticaNeue-Medium" font-size="30.6" fill="#EAEAEA" transform="matrix(1.00, 0.00, -0.00, -1.00, 264.2, 391.0)"> </text><text xml:space="preserve" font-family="HelveticaNeue-Medium" font-size="30.6" fill="#EAEAEA" transform="matrix(1.00, 0.00, -0.00, -1.00, 272.7, 391.0)">d</text><text xml:space="preserve" font-family="HelveticaNeue-Medium" font-size="30.6" fill="#EAEAEA" transform="matrix(1.00, 0.00, -0.00, -1.00, 291.4, 391.0)">e</text><text xml:space="preserve" font-family="HelveticaNeue-Medium" font-size="30.6" fill="#EAEAEA" transform="matrix(1.00, 0.00, -0.00, -1.00, 308.4, 391.0)">s</text><text xml:space="preserve" font-family="HelveticaNeue-Medium" font-size="30.6" fill="#EAEAEA" transform="matrix(1.00, 0.00, -0.00, -1.00, 324.3, 391.0)">i</text><text xml:space="preserve" font-family="HelveticaNeue-Medium" font-size="30.6" fill="#EAEAEA" transform="matrix(1.00, 0.00, -0.00, -1.00, 331.7, 391.0)">r</text><text xml:space="preserve" font-family="HelveticaNeue-Medium" font-size="30.6" fill="#EAEAEA" transform="matrix(1.00, 0.00, -0.00, -1.00, 342.5, 391.0)">a</text><text xml:space="preserve" font-family="HelveticaNeue-Medium" font-size="30.6" fill="#EAEAEA" transform="matrix(1.00, 0.00, -0.00, -1.00, 359.5, 391.0)">b</text><text xml:space="preserve" font-family="HelveticaNeue-Medium" font-size="30.6" fill="#EAEAEA" transform="matrix(1.00, 0.00, -0.00, -1.00, 378.2, 391.0)">l</text><text xml:space="preserve" font-family="HelveticaNeue-Medium" font-size="30.6" fill="#EAEAEA" transform="matrix(1.00, 0.00, -0.00, -1.00, 385.5, 391.0)">e</text><text xml:space="preserve" font-family="HelveticaNeue-Medium" font-size="30.6" fill="#EAEAEA" transform="matrix(1.00, 0.00, -0.00, -1.00, 402.5, 391.0)"> </text><text xml:space="preserve" font-family="HelveticaNeue-Medium" font-size="30.6" fill="#EAEAEA" transform="matrix(1.00, 0.00, -0.00, -1.00, 411.1, 391.0)">t</text><text xml:space="preserve" font-family="HelveticaNeue-Medium" font-size="30.6" fill="#EAEAEA" transform="matrix(1.00, 0.00, -0.00, -1.00, 421.2, 391.0)">o</text><text xml:space="preserve" font-family="HelveticaNeue-Medium" font-size="30.6" fill="#EAEAEA" transform="matrix(1.00, 0.00, -0.00, -1.00, 439.4, 391.0)"> </text><text xml:space="preserve" font-family="HelveticaNeue-Medium" font-size="30.6" fill="#EAEAEA" transform="matrix(1.00, 0.00, -0.00, -1.00, 447.9, 391.0)">o</text><text xml:space="preserve" font-family="HelveticaNeue-Medium" font-size="30.6" fill="#EAEAEA" transform="matrix(1.00, 0.00, -0.00, -1.00, 466.0, 391.0)">p</text><text xml:space="preserve" font-family="HelveticaNeue-Medium" font-size="30.6" fill="#EAEAEA" transform="matrix(1.00, 0.00, -0.00, -1.00, 484.7, 391.0)">t</text><text xml:space="preserve" font-family="HelveticaNeue-Medium" font-size="30.6" fill="#EAEAEA" transform="matrix(1.00, 0.00, -0.00, -1.00, 494.9, 391.0)">i</text><text xml:space="preserve" font-family="HelveticaNeue-Medium" font-size="30.6" fill="#EAEAEA" transform="matrix(1.00, 0.00, -0.00, -1.00, 502.3, 391.0)">m</text><text xml:space="preserve" font-family="HelveticaNeue-Medium" font-size="30.6" fill="#EAEAEA" transform="matrix(1.00, 0.00, -0.00, -1.00, 528.9, 391.0)">i</text><text xml:space="preserve" font-family="HelveticaNeue-Medium" font-size="30.6" fill="#EAEAEA" transform="matrix(1.00, 0.00, -0.00, -1.00, 536.3, 391.0)">z</text><text xml:space="preserve" font-family="HelveticaNeue-Medium" font-size="30.6" fill="#EAEAEA" transform="matrix(1.00, 0.00, -0.00, -1.00, 551.6, 391.0)">e</text><text xml:space="preserve" font-family="HelveticaNeue-Medium" font-size="30.6" fill="#EAEAEA" transform="matrix(1.00, 0.00, -0.00, -1.00, 568.6, 391.0)"> </text><text xml:space="preserve" font-family="HelveticaNeue-Medium" font-size="30.6" fill="#EAEAEA" transform="matrix(1.00, 0.00, -0.00, -1.00, 577.1, 391.0)">p</text><text xml:space="preserve" font-family="HelveticaNeue-Medium" font-size="30.6" fill="#EAEAEA" transform="matrix(1.00, 0.00, -0.00, -1.00, 595.8, 391.0)">e</text><text xml:space="preserve" font-family="HelveticaNeue-Medium" font-size="30.6" fill="#EAEAEA" transform="matrix(1.00, 0.00, -0.00, -1.00, 612.8, 391.0)">r</text><text xml:space="preserve" font-family="HelveticaNeue-Medium" font-size="30.6" fill="#EAEAEA" transform="matrix(1.00, 0.00, -0.00, -1.00, 623.6, 391.0)">f</text><text xml:space="preserve" font-family="HelveticaNeue-Medium" font-size="30.6" fill="#EAEAEA" transform="matrix(1.00, 0.00, -0.00, -1.00, 633.2, 391.0)">o</text><text xml:space="preserve" font-family="HelveticaNeue-Medium" font-size="30.6" fill="#EAEAEA" transform="matrix(1.00, 0.00, -0.00, -1.00, 651.4, 391.0)">r</text><text xml:space="preserve" font-family="HelveticaNeue-Medium" font-size="30.6" fill="#EAEAEA" transform="matrix(1.00, 0.00, -0.00, -1.00, 662.2, 391.0)">m</text><text xml:space="preserve" font-family="HelveticaNeue-Medium" font-size="30.6" fill="#EAEAEA" transform="matrix(1.00, 0.00, -0.00, -1.00, 688.8, 391.0)">a</text><text xml:space="preserve" font-family="HelveticaNeue-Medium" font-size="30.6" fill="#EAEAEA" transform="matrix(1.00, 0.00, -0.00, -1.00, 705.8, 391.0)">n</text><text xml:space="preserve" font-family="HelveticaNeue-Medium" font-size="30.6" fill="#EAEAEA" transform="matrix(1.00, 0.00, -0.00, -1.00, 723.4, 391.0)">c</text><text xml:space="preserve" font-family="HelveticaNeue-Medium" font-size="30.6" fill="#EAEAEA" transform="matrix(1.00, 0.00, -0.00, -1.00, 740.4, 391.0)">e</text><text xml:space="preserve" font-family="HelveticaNeue-Medium" font-size="30.6" fill="#EAEAEA" transform="matrix(1.00, 0.00, -0.00, -1.00, 757.4, 391.0)"> </text><image xlink:href="../../363ACDF5-F69A-4348-A617-267FC1DCB792/assets/0E4D3C428646EE2AFA3F54174FD2F14E.png" width="17.00" height="17.00" transform="matrix(1.00, 0.00, -0.00, -1.00, 61.0, 333.0)"></image><text xml:space="preserve" font-family="HelveticaNeue-MediumItalic" font-style="italic" font-size="22.9" fill="#EAEAEA" transform="matrix(1.00, 0.00, -0.00, -1.00, 64.0, 318.4)">•</text><image xlink:href="../../02D6327D-3301-4719-8E82-9B09B6248CA4/assets/F3BBC24CCF203332FF83A0968BBCFA10.png" width="44.00" height="32.00" transform="matrix(1.00, 0.00, -0.00, -1.00, 89.0, 340.0)"></image><text xml:space="preserve" font-family="HelveticaNeue-MediumItalic" font-style="italic" font-size="30.6" fill="#EAEAEA" transform="matrix(1.00, 0.00, -0.00, -1.00, 93.0, 315.0)">O</text><text xml:space="preserve" font-family="HelveticaNeue-MediumItalic" font-style="italic" font-size="30.6" fill="#EAEAEA" transform="matrix(1.00, 0.00, -0.00, -1.00, 116.2, 315.0)">r</text><text xml:space="preserve" font-family="HelveticaNeue-MediumItalic" font-style="italic" font-size="30.6" fill="#EAEAEA" transform="matrix(1.00, 0.00, -0.00, -1.00, 127.5, 315.0)"> </text><image xlink:href="../../363ACDF5-F69A-4348-A617-267FC1DCB792/assets/6F200EE0B8D0DE7BF25E6738F01683FF.png" width="17.00" height="17.00" transform="matrix(1.00, 0.00, -0.00, -1.00, 61.0, 257.0)"></image><text xml:space="preserve" font-family="HelveticaNeue-Medium" font-size="22.9" fill="#EAEAEA" transform="matrix(1.00, 0.00, -0.00, -1.00, 64.0, 242.6)">•</text><image xlink:href="../../02D6327D-3301-4719-8E82-9B09B6248CA4/assets/89F8BCC36FD06E673C8A9AA45B353D31.png" width="577.00" height="37.00" transform="matrix(1.00, 0.00, -0.00, -1.00, 91.0, 263.0)"></image><text xml:space="preserve" font-family="HelveticaNeue-Medium" font-size="30.6" fill="#EAEAEA" transform="matrix(1.00, 0.00, -0.00, -1.00, 93.0, 239.0)">I</text><text xml:space="preserve" font-family="HelveticaNeue-Medium" font-size="30.6" fill="#EAEAEA" transform="matrix(1.00, 0.00, -0.00, -1.00, 101.5, 239.0)">t</text><text xml:space="preserve" font-family="HelveticaNeue-Medium" font-size="30.6" fill="#EAEAEA" transform="matrix(1.00, 0.00, -0.00, -1.00, 111.7, 239.0)"> </text><text xml:space="preserve" font-family="HelveticaNeue-Medium" font-size="30.6" fill="#EAEAEA" transform="matrix(1.00, 0.00, -0.00, -1.00, 120.2, 239.0)">m</text><text xml:space="preserve" font-family="HelveticaNeue-Medium" font-size="30.6" fill="#EAEAEA" transform="matrix(1.00, 0.00, -0.00, -1.00, 146.8, 239.0)">a</text><text xml:space="preserve" font-family="HelveticaNeue-Medium" font-size="30.6" fill="#EAEAEA" transform="matrix(1.00, 0.00, -0.00, -1.00, 163.8, 239.0)">y</text><text xml:space="preserve" font-family="HelveticaNeue-Medium" font-size="30.6" fill="#EAEAEA" transform="matrix(1.00, 0.00, -0.00, -1.00, 179.7, 239.0)"> </text><text xml:space="preserve" font-family="HelveticaNeue-Medium" font-size="30.6" fill="#EAEAEA" transform="matrix(1.00, 0.00, -0.00, -1.00, 188.2, 239.0)">b</text><text xml:space="preserve" font-family="HelveticaNeue-Medium" font-size="30.6" fill="#EAEAEA" transform="matrix(1.00, 0.00, -0.00, -1.00, 206.9, 239.0)">e</text><text xml:space="preserve" font-family="HelveticaNeue-Medium" font-size="30.6" fill="#EAEAEA" transform="matrix(1.00, 0.00, -0.00, -1.00, 223.9, 239.0)"> </text><text xml:space="preserve" font-family="HelveticaNeue-Medium" font-size="30.6" fill="#EAEAEA" transform="matrix(1.00, 0.00, -0.00, -1.00, 232.4, 239.0)">s</text><text xml:space="preserve" font-family="HelveticaNeue-Medium" font-size="30.6" fill="#EAEAEA" transform="matrix(1.00, 0.00, -0.00, -1.00, 248.3, 239.0)">i</text><text xml:space="preserve" font-family="HelveticaNeue-Medium" font-size="30.6" fill="#EAEAEA" transform="matrix(1.00, 0.00, -0.00, -1.00, 255.7, 239.0)">m</text><text xml:space="preserve" font-family="HelveticaNeue-Medium" font-size="30.6" fill="#EAEAEA" transform="matrix(1.00, 0.00, -0.00, -1.00, 282.3, 239.0)">p</text><text xml:space="preserve" font-family="HelveticaNeue-Medium" font-size="30.6" fill="#EAEAEA" transform="matrix(1.00, 0.00, -0.00, -1.00, 301.0, 239.0)">l</text><text xml:space="preserve" font-family="HelveticaNeue-Medium" font-size="30.6" fill="#EAEAEA" transform="matrix(1.00, 0.00, -0.00, -1.00, 308.4, 239.0)">y</text><text xml:space="preserve" font-family="HelveticaNeue-Medium" font-size="30.6" fill="#EAEAEA" transform="matrix(1.00, 0.00, -0.00, -1.00, 324.3, 239.0)"> </text><text xml:space="preserve" font-family="HelveticaNeue-Medium" font-size="30.6" fill="#EAEAEA" transform="matrix(1.00, 0.00, -0.00, -1.00, 332.8, 239.0)">c</text><text xml:space="preserve" font-family="HelveticaNeue-Medium" font-size="30.6" fill="#EAEAEA" transform="matrix(1.00, 0.00, -0.00, -1.00, 349.8, 239.0)">o</text><text xml:space="preserve" font-family="HelveticaNeue-Medium" font-size="30.6" fill="#EAEAEA" transform="matrix(1.00, 0.00, -0.00, -1.00, 367.9, 239.0)">n</text><text xml:space="preserve" font-family="HelveticaNeue-Medium" font-size="30.6" fill="#EAEAEA" transform="matrix(1.00, 0.00, -0.00, -1.00, 385.5, 239.0)">f</text><text xml:space="preserve" font-family="HelveticaNeue-Medium" font-size="30.6" fill="#EAEAEA" transform="matrix(1.00, 0.00, -0.00, -1.00, 395.1, 239.0)">u</text><text xml:space="preserve" font-family="HelveticaNeue-Medium" font-size="30.6" fill="#EAEAEA" transform="matrix(1.00, 0.00, -0.00, -1.00, 412.7, 239.0)">s</text><text xml:space="preserve" font-family="HelveticaNeue-Medium" font-size="30.6" fill="#EAEAEA" transform="matrix(1.00, 0.00, -0.00, -1.00, 428.6, 239.0)">i</text><text xml:space="preserve" font-family="HelveticaNeue-Medium" font-size="30.6" fill="#EAEAEA" transform="matrix(1.00, 0.00, -0.00, -1.00, 436.0, 239.0)">n</text><text xml:space="preserve" font-family="HelveticaNeue-Medium" font-size="30.6" fill="#EAEAEA" transform="matrix(1.00, 0.00, -0.00, -1.00, 453.5, 239.0)">g</text><text xml:space="preserve" font-family="HelveticaNeue-Medium" font-size="30.6" fill="#EAEAEA" transform="matrix(1.00, 0.00, -0.00, -1.00, 471.7, 239.0)"> </text><text xml:space="preserve" font-family="HelveticaNeue-Medium" font-size="30.6" fill="#EAEAEA" transform="matrix(1.00, 0.00, -0.00, -1.00, 480.2, 239.0)">i</text><text xml:space="preserve" font-family="HelveticaNeue-Medium" font-size="30.6" fill="#EAEAEA" transform="matrix(1.00, 0.00, -0.00, -1.00, 487.6, 239.0)">f</text><text xml:space="preserve" font-family="HelveticaNeue-Medium" font-size="30.6" fill="#EAEAEA" transform="matrix(1.00, 0.00, -0.00, -1.00, 497.2, 239.0)"> </text><text xml:space="preserve" font-family="HelveticaNeue-Medium" font-size="30.6" fill="#EAEAEA" transform="matrix(1.00, 0.00, -0.00, -1.00, 505.7, 239.0)">d</text><text xml:space="preserve" font-family="HelveticaNeue-Medium" font-size="30.6" fill="#EAEAEA" transform="matrix(1.00, 0.00, -0.00, -1.00, 524.4, 239.0)">o</text><text xml:space="preserve" font-family="HelveticaNeue-Medium" font-size="30.6" fill="#EAEAEA" transform="matrix(1.00, 0.00, -0.00, -1.00, 542.5, 239.0)">n</text><text xml:space="preserve" font-family="HelveticaNeue-Medium" font-size="30.6" fill="#EAEAEA" transform="matrix(1.00, 0.00, -0.00, -1.00, 560.1, 239.0)">e</text><text xml:space="preserve" font-family="HelveticaNeue-Medium" font-size="30.6" fill="#EAEAEA" transform="matrix(1.00, 0.00, -0.00, -1.00, 577.1, 239.0)"> </text><text xml:space="preserve" font-family="HelveticaNeue-Medium" font-size="30.6" fill="#EAEAEA" transform="matrix(1.00, 0.00, -0.00, -1.00, 585.6, 239.0)">b</text><text xml:space="preserve" font-family="HelveticaNeue-Medium" font-size="30.6" fill="#EAEAEA" transform="matrix(1.00, 0.00, -0.00, -1.00, 604.3, 239.0)">a</text><text xml:space="preserve" font-family="HelveticaNeue-Medium" font-size="30.6" fill="#EAEAEA" transform="matrix(1.00, 0.00, -0.00, -1.00, 621.3, 239.0)">d</text><text xml:space="preserve" font-family="HelveticaNeue-Medium" font-size="30.6" fill="#EAEAEA" transform="matrix(1.00, 0.00, -0.00, -1.00, 640.0, 239.0)">l</text><text xml:space="preserve" font-family="HelveticaNeue-Medium" font-size="30.6" fill="#EAEAEA" transform="matrix(1.00, 0.00, -0.00, -1.00, 647.4, 239.0)">y</text><text xml:space="preserve" font-family="HelveticaNeue-Medium" font-size="30.6" fill="#EAEAEA" transform="matrix(1.00, 0.00, -0.00, -1.00, 663.3, 239.0)"> </text><image xlink:href="../../363ACDF5-F69A-4348-A617-267FC1DCB792/assets/7AC7675442C37451EC00DCA9ADA7780C.png" width="17.00" height="18.00" transform="matrix(1.00, 0.00, -0.00, -1.00, 61.0, 182.0)"></image><text xml:space="preserve" font-family="HelveticaNeue-Medium" font-size="22.9" fill="#EAEAEA" transform="matrix(1.00, 0.00, -0.00, -1.00, 64.0, 166.8)">•</text><image xlink:href="../../02D6327D-3301-4719-8E82-9B09B6248CA4/assets/458BE17468C47139466A9987A6038873.png" width="496.00" height="37.00" transform="matrix(1.00, 0.00, -0.00, -1.00, 89.0, 188.0)"></image><text xml:space="preserve" font-family="HelveticaNeue-Medium" font-size="30.6" fill="#EAEAEA" transform="matrix(1.00, 0.00, -0.00, -1.00, 93.0, 164.0)">W</text><text xml:space="preserve" font-family="HelveticaNeue-Medium" font-size="30.6" fill="#EAEAEA" transform="matrix(1.00, 0.00, -0.00, -1.00, 121.3, 164.0)">e</text><text xml:space="preserve" font-family="HelveticaNeue-Medium" font-size="30.6" fill="#EAEAEA" transform="matrix(1.00, 0.00, -0.00, -1.00, 138.3, 164.0)"> </text><text xml:space="preserve" font-family="HelveticaNeue-Medium" font-size="30.6" fill="#EAEAEA" transform="matrix(1.00, 0.00, -0.00, -1.00, 146.9, 164.0)">g</text><text xml:space="preserve" font-family="HelveticaNeue-Medium" font-size="30.6" fill="#EAEAEA" transform="matrix(1.00, 0.00, -0.00, -1.00, 165.0, 164.0)">e</text><text xml:space="preserve" font-family="HelveticaNeue-Medium" font-size="30.6" fill="#EAEAEA" transform="matrix(1.00, 0.00, -0.00, -1.00, 182.0, 164.0)">n</text><text xml:space="preserve" font-family="HelveticaNeue-Medium" font-size="30.6" fill="#EAEAEA" transform="matrix(1.00, 0.00, -0.00, -1.00, 199.6, 164.0)">e</text><text xml:space="preserve" font-family="HelveticaNeue-Medium" font-size="30.6" fill="#EAEAEA" transform="matrix(1.00, 0.00, -0.00, -1.00, 216.6, 164.0)">r</text><text xml:space="preserve" font-family="HelveticaNeue-Medium" font-size="30.6" fill="#EAEAEA" transform="matrix(1.00, 0.00, -0.00, -1.00, 227.4, 164.0)">a</text><text xml:space="preserve" font-family="HelveticaNeue-Medium" font-size="30.6" fill="#EAEAEA" transform="matrix(1.00, 0.00, -0.00, -1.00, 244.4, 164.0)">l</text><text xml:space="preserve" font-family="HelveticaNeue-Medium" font-size="30.6" fill="#EAEAEA" transform="matrix(1.00, 0.00, -0.00, -1.00, 251.8, 164.0)">l</text><text xml:space="preserve" font-family="HelveticaNeue-Medium" font-size="30.6" fill="#EAEAEA" transform="matrix(1.00, 0.00, -0.00, -1.00, 259.1, 164.0)">y</text><text xml:space="preserve" font-family="HelveticaNeue-Medium" font-size="30.6" fill="#EAEAEA" transform="matrix(1.00, 0.00, -0.00, -1.00, 275.0, 164.0)"> </text><text xml:space="preserve" font-family="HelveticaNeue-Medium" font-size="30.6" fill="#EAEAEA" transform="matrix(1.00, 0.00, -0.00, -1.00, 283.5, 164.0)">e</text><text xml:space="preserve" font-family="HelveticaNeue-Medium" font-size="30.6" fill="#EAEAEA" transform="matrix(1.00, 0.00, -0.00, -1.00, 300.5, 164.0)">x</text><text xml:space="preserve" font-family="HelveticaNeue-Medium" font-size="30.6" fill="#EAEAEA" transform="matrix(1.00, 0.00, -0.00, -1.00, 317.0, 164.0)">p</text><text xml:space="preserve" font-family="HelveticaNeue-Medium" font-size="30.6" fill="#EAEAEA" transform="matrix(1.00, 0.00, -0.00, -1.00, 335.7, 164.0)">e</text><text xml:space="preserve" font-family="HelveticaNeue-Medium" font-size="30.6" fill="#EAEAEA" transform="matrix(1.00, 0.00, -0.00, -1.00, 352.7, 164.0)">c</text><text xml:space="preserve" font-family="HelveticaNeue-Medium" font-size="30.6" fill="#EAEAEA" transform="matrix(1.00, 0.00, -0.00, -1.00, 369.7, 164.0)">t</text><text xml:space="preserve" font-family="HelveticaNeue-Medium" font-size="30.6" fill="#EAEAEA" transform="matrix(1.00, 0.00, -0.00, -1.00, 379.9, 164.0)"> </text><text xml:space="preserve" font-family="HelveticaNeue-Medium" font-size="30.6" fill="#EAEAEA" transform="matrix(1.00, 0.00, -0.00, -1.00, 388.4, 164.0)">i</text><text xml:space="preserve" font-family="HelveticaNeue-Medium" font-size="30.6" fill="#EAEAEA" transform="matrix(1.00, 0.00, -0.00, -1.00, 395.8, 164.0)">d</text><text xml:space="preserve" font-family="HelveticaNeue-Medium" font-size="30.6" fill="#EAEAEA" transform="matrix(1.00, 0.00, -0.00, -1.00, 414.5, 164.0)">e</text><text xml:space="preserve" font-family="HelveticaNeue-Medium" font-size="30.6" fill="#EAEAEA" transform="matrix(1.00, 0.00, -0.00, -1.00, 431.5, 164.0)">m</text><text xml:space="preserve" font-family="HelveticaNeue-Medium" font-size="30.6" fill="#EAEAEA" transform="matrix(1.00, 0.00, -0.00, -1.00, 458.1, 164.0)">p</text><text xml:space="preserve" font-family="HelveticaNeue-Medium" font-size="30.6" fill="#EAEAEA" transform="matrix(1.00, 0.00, -0.00, -1.00, 476.8, 164.0)">o</text><text xml:space="preserve" font-family="HelveticaNeue-Medium" font-size="30.6" fill="#EAEAEA" transform="matrix(1.00, 0.00, -0.00, -1.00, 494.9, 164.0)">t</text><text xml:space="preserve" font-family="HelveticaNeue-Medium" font-size="30.6" fill="#EAEAEA" transform="matrix(1.00, 0.00, -0.00, -1.00, 505.1, 164.0)">e</text><text xml:space="preserve" font-family="HelveticaNeue-Medium" font-size="30.6" fill="#EAEAEA" transform="matrix(1.00, 0.00, -0.00, -1.00, 522.1, 164.0)">n</text><text xml:space="preserve" font-family="HelveticaNeue-Medium" font-size="30.6" fill="#EAEAEA" transform="matrix(1.00, 0.00, -0.00, -1.00, 539.7, 164.0)">c</text><text xml:space="preserve" font-family="HelveticaNeue-Medium" font-size="30.6" fill="#EAEAEA" transform="matrix(1.00, 0.00, -0.00, -1.00, 556.7, 164.0)">e</text><text xml:space="preserve" font-family="HelveticaNeue-Medium" font-size="30.6" fill="#EAEAEA" transform="matrix(1.00, 0.00, -0.00, -1.00, 573.7, 164.0)">:</text><text xml:space="preserve" font-family="HelveticaNeue-Medium" font-size="30.6" fill="#EAEAEA" transform="matrix(1.00, 0.00, -0.00, -1.00, 582.2, 164.0)"> </text><image xlink:href="../../363ACDF5-F69A-4348-A617-267FC1DCB792/assets/3E3B313EB42B8C1F9FD513694AB65154.png" width="17.00" height="17.00" transform="matrix(1.00, 0.00, -0.00, -1.00, 93.0, 106.0)"></image><text xml:space="preserve" font-family="HelveticaNeue-Medium" font-size="22.9" fill="#EAEAEA" transform="matrix(1.00, 0.00, -0.00, -1.00, 96.0, 91.0)">•</text><image xlink:href="../../02D6327D-3301-4719-8E82-9B09B6248CA4/assets/28BC3E836D9117FF45227F1577EF039C.png" width="548.00" height="37.00" transform="matrix(1.00, 0.00, -0.00, -1.00, 121.0, 112.0)"></image><text xml:space="preserve" font-family="HelveticaNeue-Medium" font-size="30.6" fill="#EAEAEA" transform="matrix(1.00, 0.00, -0.00, -1.00, 125.0, 88.0)">f</text><text xml:space="preserve" font-family="HelveticaNeue-Medium" font-size="30.6" fill="#EAEAEA" transform="matrix(1.00, 0.00, -0.00, -1.00, 134.6, 88.0)">u</text><text xml:space="preserve" font-family="HelveticaNeue-Medium" font-size="30.6" fill="#EAEAEA" transform="matrix(1.00, 0.00, -0.00, -1.00, 152.2, 88.0)">n</text><text xml:space="preserve" font-family="HelveticaNeue-Medium" font-size="30.6" fill="#EAEAEA" transform="matrix(1.00, 0.00, -0.00, -1.00, 169.8, 88.0)">c</text><text xml:space="preserve" font-family="HelveticaNeue-Medium" font-size="30.6" fill="#EAEAEA" transform="matrix(1.00, 0.00, -0.00, -1.00, 186.8, 88.0)">t</text><text xml:space="preserve" font-family="HelveticaNeue-Medium" font-size="30.6" fill="#EAEAEA" transform="matrix(1.00, 0.00, -0.00, -1.00, 197.0, 88.0)">i</text><text xml:space="preserve" font-family="HelveticaNeue-Medium" font-size="30.6" fill="#EAEAEA" transform="matrix(1.00, 0.00, -0.00, -1.00, 204.3, 88.0)">o</text><text xml:space="preserve" font-family="HelveticaNeue-Medium" font-size="30.6" fill="#EAEAEA" transform="matrix(1.00, 0.00, -0.00, -1.00, 222.5, 88.0)">n</text><text xml:space="preserve" font-family="HelveticaNeue-Medium" font-size="30.6" fill="#EAEAEA" transform="matrix(1.00, 0.00, -0.00, -1.00, 240.1, 88.0)">s</text><text xml:space="preserve" font-family="HelveticaNeue-Medium" font-size="30.6" fill="#EAEAEA" transform="matrix(1.00, 0.00, -0.00, -1.00, 255.9, 88.0)"> </text><text xml:space="preserve" font-family="HelveticaNeue-Medium" font-size="30.6" fill="#EAEAEA" transform="matrix(1.00, 0.00, -0.00, -1.00, 264.4, 88.0)">d</text><text xml:space="preserve" font-family="HelveticaNeue-Medium" font-size="30.6" fill="#EAEAEA" transform="matrix(1.00, 0.00, -0.00, -1.00, 283.1, 88.0)">o</text><text xml:space="preserve" font-family="HelveticaNeue-Medium" font-size="30.6" fill="#EAEAEA" transform="matrix(1.00, 0.00, -0.00, -1.00, 301.3, 88.0)"> </text><text xml:space="preserve" font-family="HelveticaNeue-Medium" font-size="30.6" fill="#EAEAEA" transform="matrix(1.00, 0.00, -0.00, -1.00, 309.8, 88.0)">t</text><text xml:space="preserve" font-family="HelveticaNeue-Medium" font-size="30.6" fill="#EAEAEA" transform="matrix(1.00, 0.00, -0.00, -1.00, 320.0, 88.0)">h</text><text xml:space="preserve" font-family="HelveticaNeue-Medium" font-size="30.6" fill="#EAEAEA" transform="matrix(1.00, 0.00, -0.00, -1.00, 337.5, 88.0)">e</text><text xml:space="preserve" font-family="HelveticaNeue-Medium" font-size="30.6" fill="#EAEAEA" transform="matrix(1.00, 0.00, -0.00, -1.00, 354.6, 88.0)"> </text><text xml:space="preserve" font-family="HelveticaNeue-Medium" font-size="30.6" fill="#EAEAEA" transform="matrix(1.00, 0.00, -0.00, -1.00, 363.1, 88.0)">s</text><text xml:space="preserve" font-family="HelveticaNeue-Medium" font-size="30.6" fill="#EAEAEA" transform="matrix(1.00, 0.00, -0.00, -1.00, 378.9, 88.0)">a</text><text xml:space="preserve" font-family="HelveticaNeue-Medium" font-size="30.6" fill="#EAEAEA" transform="matrix(1.00, 0.00, -0.00, -1.00, 396.0, 88.0)">m</text><text xml:space="preserve" font-family="HelveticaNeue-Medium" font-size="30.6" fill="#EAEAEA" transform="matrix(1.00, 0.00, -0.00, -1.00, 422.6, 88.0)">e</text><text xml:space="preserve" font-family="HelveticaNeue-Medium" font-size="30.6" fill="#EAEAEA" transform="matrix(1.00, 0.00, -0.00, -1.00, 439.6, 88.0)"> </text><text xml:space="preserve" font-family="HelveticaNeue-Medium" font-size="30.6" fill="#EAEAEA" transform="matrix(1.00, 0.00, -0.00, -1.00, 448.1, 88.0)">t</text><text xml:space="preserve" font-family="HelveticaNeue-Medium" font-size="30.6" fill="#EAEAEA" transform="matrix(1.00, 0.00, -0.00, -1.00, 458.3, 88.0)">h</text><text xml:space="preserve" font-family="HelveticaNeue-Medium" font-size="30.6" fill="#EAEAEA" transform="matrix(1.00, 0.00, -0.00, -1.00, 475.9, 88.0)">i</text><text xml:space="preserve" font-family="HelveticaNeue-Medium" font-size="30.6" fill="#EAEAEA" transform="matrix(1.00, 0.00, -0.00, -1.00, 483.2, 88.0)">n</text><text xml:space="preserve" font-family="HelveticaNeue-Medium" font-size="30.6" fill="#EAEAEA" transform="matrix(1.00, 0.00, -0.00, -1.00, 500.8, 88.0)">g</text><text xml:space="preserve" font-family="HelveticaNeue-Medium" font-size="30.6" fill="#EAEAEA" transform="matrix(1.00, 0.00, -0.00, -1.00, 518.9, 88.0)"> </text><text xml:space="preserve" font-family="HelveticaNeue-Medium" font-size="30.6" fill="#EAEAEA" transform="matrix(1.00, 0.00, -0.00, -1.00, 527.5, 88.0)">e</text><text xml:space="preserve" font-family="HelveticaNeue-Medium" font-size="30.6" fill="#EAEAEA" transform="matrix(1.00, 0.00, -0.00, -1.00, 544.5, 88.0)">a</text><text xml:space="preserve" font-family="HelveticaNeue-Medium" font-size="30.6" fill="#EAEAEA" transform="matrix(1.00, 0.00, -0.00, -1.00, 561.5, 88.0)">c</text><text xml:space="preserve" font-family="HelveticaNeue-Medium" font-size="30.6" fill="#EAEAEA" transform="matrix(1.00, 0.00, -0.00, -1.00, 578.5, 88.0)">h</text><text xml:space="preserve" font-family="HelveticaNeue-Medium" font-size="30.6" fill="#EAEAEA" transform="matrix(1.00, 0.00, -0.00, -1.00, 596.1, 88.0)"> </text><text xml:space="preserve" font-family="HelveticaNeue-Medium" font-size="30.6" fill="#EAEAEA" transform="matrix(1.00, 0.00, -0.00, -1.00, 604.6, 88.0)">t</text><text xml:space="preserve" font-family="HelveticaNeue-Medium" font-size="30.6" fill="#EAEAEA" transform="matrix(1.00, 0.00, -0.00, -1.00, 614.8, 88.0)">i</text><text xml:space="preserve" font-family="HelveticaNeue-Medium" font-size="30.6" fill="#EAEAEA" transform="matrix(1.00, 0.00, -0.00, -1.00, 622.1, 88.0)">m</text><text xml:space="preserve" font-family="HelveticaNeue-Medium" font-size="30.6" fill="#EAEAEA" transform="matrix(1.00, 0.00, -0.00, -1.00, 648.7, 88.0)">e</text></g></svg>