<?xml version="1.0" encoding="UTF-8" standalone="no"?><svg xmlns="http://www.w3.org/2000/svg" xmlns:xlink="http://www.w3.org/1999/xlink" clip-rule="evenodd" stroke-miterlimit="4.00" viewBox="0 0 1024 768"><desc>SVG generated by Keynote</desc><defs></defs><g transform="matrix(1.00, 0.00, -0.00, -1.00, 0.0, 768.0)"><g><clipPath id="clip-49"><path d="M 0.0 768.0 L 1024.0 768.0 L 1024.0 0.0 L 0.0 0.0 Z M 0.0 768.0 "></path></clipPath><g clip-path="url(#clip-49)"><image xlink:href="../../363ACDF5-F69A-4348-A617-267FC1DCB792/assets/2CA05975C404A6B79EB2D17D5C3EEC1C.jpeg" width="1024.00" height="768.00" transform="matrix(1.00, 0.00, -0.00, -1.00, 0.0, 768.0)"></image></g></g><image xlink:href="5957DEC2E6D2559A3E1B7E3307EBB29E.png" width="480.00" height="576.00" transform="matrix(1.00, 0.00, -0.00, -1.00, 504.0, 591.0)" opacity="0.70"></image><g><clipPath id="clip-50"><path d="M 524.0 581.0 L 964.0 581.0 L 964.0 45.0 L 524.0 45.0 Z M 524.0 581.0 "></path></clipPath><g clip-path="url(#clip-50)"><image xlink:href="76B0F6B14E5AF5DD8BE01320676CAAAD.jpeg" width="630.00" height="588.00" transform="matrix(1.00, 0.00, -0.00, -1.00, 457.0, 633.0)"></image></g></g><image xlink:href="6544FC115EC22934CBDB4D7D257C877F.png" width="480.00" height="576.00" transform="matrix(1.00, 0.00, -0.00, -1.00, 504.0, 591.0)" opacity="0.70"></image><g><clipPath id="clip-51"><path d="M 524.0 581.0 L 964.0 581.0 L 964.0 45.0 L 524.0 45.0 Z M 524.0 581.0 "></path></clipPath><g clip-path="url(#clip-51)"><image xlink:href="C21585F49848C2A8AD0C472092ACBDE1.jpeg" width="715.00" height="536.00" transform="matrix(1.00, 0.00, -0.00, -1.00, 387.0, 581.0)"></image></g></g><image xlink:href="C6985372AF6FE57F330641493C3B4D9B.png" width="807.00" height="67.00" transform="matrix(1.00, 0.00, -0.00, -1.00, 109.0, 692.0)"></image><text xml:space="preserve" font-family="HelveticaNeue-Bold" font-weight="bold" font-size="64.0" fill="#FEFFFE" transform="matrix(1.00, 0.00, -0.00, -1.00, 109.0, 644.0)">D</text><text xml:space="preserve" font-family="HelveticaNeue-Bold" font-weight="bold" font-size="64.0" fill="#FEFFFE" transform="matrix(1.00, 0.00, -0.00, -1.00, 156.4, 644.0)">i</text><text xml:space="preserve" font-family="HelveticaNeue-Bold" font-weight="bold" font-size="64.0" fill="#FEFFFE" transform="matrix(1.00, 0.00, -0.00, -1.00, 172.9, 644.0)">e</text><text xml:space="preserve" font-family="HelveticaNeue-Bold" font-weight="bold" font-size="64.0" fill="#FEFFFE" transform="matrix(1.00, 0.00, -0.00, -1.00, 209.7, 644.0)">s</text><text xml:space="preserve" font-family="HelveticaNeue-Bold" font-weight="bold" font-size="64.0" fill="#FEFFFE" transform="matrix(1.00, 0.00, -0.00, -1.00, 244.0, 644.0)">e</text><text xml:space="preserve" font-family="HelveticaNeue-Bold" font-weight="bold" font-size="64.0" fill="#FEFFFE" transform="matrix(1.00, 0.00, -0.00, -1.00, 280.8, 644.0)">l</text><text xml:space="preserve" font-family="HelveticaNeue-Bold" font-weight="bold" font-size="64.0" fill="#FEFFFE" transform="matrix(1.00, 0.00, -0.00, -1.00, 297.3, 644.0)"> </text><text xml:space="preserve" font-family="HelveticaNeue-Bold" font-weight="bold" font-size="64.0" fill="#FEFFFE" transform="matrix(1.00, 0.00, -0.00, -1.00, 315.1, 644.0)">E</text><text xml:space="preserve" font-family="HelveticaNeue-Bold" font-weight="bold" font-size="64.0" fill="#FEFFFE" transform="matrix(1.00, 0.00, -0.00, -1.00, 356.6, 644.0)">n</text><text xml:space="preserve" font-family="HelveticaNeue-Bold" font-weight="bold" font-size="64.0" fill="#FEFFFE" transform="matrix(1.00, 0.00, -0.00, -1.00, 394.5, 644.0)">g</text><text xml:space="preserve" font-family="HelveticaNeue-Bold" font-weight="bold" font-size="64.0" fill="#FEFFFE" transform="matrix(1.00, 0.00, -0.00, -1.00, 433.6, 644.0)">i</text><text xml:space="preserve" font-family="HelveticaNeue-Bold" font-weight="bold" font-size="64.0" fill="#FEFFFE" transform="matrix(1.00, 0.00, -0.00, -1.00, 450.1, 644.0)">n</text><text xml:space="preserve" font-family="HelveticaNeue-Bold" font-weight="bold" font-size="64.0" fill="#FEFFFE" transform="matrix(1.00, 0.00, -0.00, -1.00, 488.1, 644.0)">e</text><text xml:space="preserve" font-family="HelveticaNeue-Bold" font-weight="bold" font-size="64.0" fill="#FEFFFE" transform="matrix(1.00, 0.00, -0.00, -1.00, 524.8, 644.0)"> </text><text xml:space="preserve" font-family="HelveticaNeue-Bold" font-weight="bold" font-size="64.0" fill="#FEFFFE" transform="matrix(1.00, 0.00, -0.00, -1.00, 542.6, 644.0)">B</text><text xml:space="preserve" font-family="HelveticaNeue-Bold" font-weight="bold" font-size="64.0" fill="#FEFFFE" transform="matrix(1.00, 0.00, -0.00, -1.00, 587.7, 644.0)">a</text><text xml:space="preserve" font-family="HelveticaNeue-Bold" font-weight="bold" font-size="64.0" fill="#FEFFFE" transform="matrix(1.00, 0.00, -0.00, -1.00, 624.4, 644.0)">c</text><text xml:space="preserve" font-family="HelveticaNeue-Bold" font-weight="bold" font-size="64.0" fill="#FEFFFE" transform="matrix(1.00, 0.00, -0.00, -1.00, 661.1, 644.0)">k</text><text xml:space="preserve" font-family="HelveticaNeue-Bold" font-weight="bold" font-size="64.0" fill="#FEFFFE" transform="matrix(1.00, 0.00, -0.00, -1.00, 697.9, 644.0)">g</text><text xml:space="preserve" font-family="HelveticaNeue-Bold" font-weight="bold" font-size="64.0" fill="#FEFFFE" transform="matrix(1.00, 0.00, -0.00, -1.00, 737.0, 644.0)">r</text><text xml:space="preserve" font-family="HelveticaNeue-Bold" font-weight="bold" font-size="64.0" fill="#FEFFFE" transform="matrix(1.00, 0.00, -0.00, -1.00, 760.7, 644.0)">o</text><text xml:space="preserve" font-family="HelveticaNeue-Bold" font-weight="bold" font-size="64.0" fill="#FEFFFE" transform="matrix(1.00, 0.00, -0.00, -1.00, 799.8, 644.0)">u</text><text xml:space="preserve" font-family="HelveticaNeue-Bold" font-weight="bold" font-size="64.0" fill="#FEFFFE" transform="matrix(1.00, 0.00, -0.00, -1.00, 837.8, 644.0)">n</text><text xml:space="preserve" font-family="HelveticaNeue-Bold" font-weight="bold" font-size="64.0" fill="#FEFFFE" transform="matrix(1.00, 0.00, -0.00, -1.00, 875.7, 644.0)">d</text><image xlink:href="6288F7B1ED39D6885A9D788C82D4013C.png" width="17.00" height="16.00" transform="matrix(1.00, 0.00, -0.00, -1.00, 61.0, 419.0)"></image><text xml:space="preserve" font-family="HelveticaNeue-Medium" font-size="21.0" fill="#EBEAEA" transform="matrix(1.00, 0.00, -0.00, -1.00, 64.0, 405.3)">•</text><image xlink:href="19FA9213E4A8032E4A6B7DDD4D1B2BA0.png" width="351.00" height="34.00" transform="matrix(1.00, 0.00, -0.00, -1.00, 89.0, 425.0)"></image><text xml:space="preserve" font-family="HelveticaNeue-Medium" font-size="28.0" fill="#EAEAEA" transform="matrix(1.00, 0.00, -0.00, -1.00, 91.0, 403.0)">E</text><text xml:space="preserve" font-family="HelveticaNeue-Medium" font-size="28.0" fill="#EAEAEA" transform="matrix(1.00, 0.00, -0.00, -1.00, 108.6, 403.0)">n</text><text xml:space="preserve" font-family="HelveticaNeue-Medium" font-size="28.0" fill="#EAEAEA" transform="matrix(1.00, 0.00, -0.00, -1.00, 124.7, 403.0)">g</text><text xml:space="preserve" font-family="HelveticaNeue-Medium" font-size="28.0" fill="#EAEAEA" transform="matrix(1.00, 0.00, -0.00, -1.00, 141.3, 403.0)">i</text><text xml:space="preserve" font-family="HelveticaNeue-Medium" font-size="28.0" fill="#EAEAEA" transform="matrix(1.00, 0.00, -0.00, -1.00, 148.1, 403.0)">n</text><text xml:space="preserve" font-family="HelveticaNeue-Medium" font-size="28.0" fill="#EAEAEA" transform="matrix(1.00, 0.00, -0.00, -1.00, 164.1, 403.0)">e</text><text xml:space="preserve" font-family="HelveticaNeue-Medium" font-size="28.0" fill="#EAEAEA" transform="matrix(1.00, 0.00, -0.00, -1.00, 179.7, 403.0)"> </text><text xml:space="preserve" font-family="HelveticaNeue-Medium" font-size="28.0" fill="#EAEAEA" transform="matrix(1.00, 0.00, -0.00, -1.00, 187.5, 403.0)">t</text><text xml:space="preserve" font-family="HelveticaNeue-Medium" font-size="28.0" fill="#EAEAEA" transform="matrix(1.00, 0.00, -0.00, -1.00, 196.8, 403.0)">u</text><text xml:space="preserve" font-family="HelveticaNeue-Medium" font-size="28.0" fill="#EAEAEA" transform="matrix(1.00, 0.00, -0.00, -1.00, 212.9, 403.0)">r</text><text xml:space="preserve" font-family="HelveticaNeue-Medium" font-size="28.0" fill="#EAEAEA" transform="matrix(1.00, 0.00, -0.00, -1.00, 223.2, 403.0)">n</text><text xml:space="preserve" font-family="HelveticaNeue-Medium" font-size="28.0" fill="#EAEAEA" transform="matrix(1.00, 0.00, -0.00, -1.00, 239.3, 403.0)">s</text><text xml:space="preserve" font-family="HelveticaNeue-Medium" font-size="28.0" fill="#EAEAEA" transform="matrix(1.00, 0.00, -0.00, -1.00, 253.8, 403.0)"> </text><text xml:space="preserve" font-family="HelveticaNeue-Medium" font-size="28.0" fill="#EAEAEA" transform="matrix(1.00, 0.00, -0.00, -1.00, 261.6, 403.0)">t</text><text xml:space="preserve" font-family="HelveticaNeue-Medium" font-size="28.0" fill="#EAEAEA" transform="matrix(1.00, 0.00, -0.00, -1.00, 271.0, 403.0)">h</text><text xml:space="preserve" font-family="HelveticaNeue-Medium" font-size="28.0" fill="#EAEAEA" transform="matrix(1.00, 0.00, -0.00, -1.00, 287.0, 403.0)">e</text><text xml:space="preserve" font-family="HelveticaNeue-Medium" font-size="28.0" fill="#EAEAEA" transform="matrix(1.00, 0.00, -0.00, -1.00, 302.6, 403.0)"> </text><text xml:space="preserve" font-family="HelveticaNeue-Medium" font-size="28.0" fill="#EAEAEA" transform="matrix(1.00, 0.00, -0.00, -1.00, 310.4, 403.0)">a</text><text xml:space="preserve" font-family="HelveticaNeue-Medium" font-size="28.0" fill="#EAEAEA" transform="matrix(1.00, 0.00, -0.00, -1.00, 325.9, 403.0)">l</text><text xml:space="preserve" font-family="HelveticaNeue-Medium" font-size="28.0" fill="#EAEAEA" transform="matrix(1.00, 0.00, -0.00, -1.00, 332.7, 403.0)">t</text><text xml:space="preserve" font-family="HelveticaNeue-Medium" font-size="28.0" fill="#EAEAEA" transform="matrix(1.00, 0.00, -0.00, -1.00, 342.0, 403.0)">e</text><text xml:space="preserve" font-family="HelveticaNeue-Medium" font-size="28.0" fill="#EAEAEA" transform="matrix(1.00, 0.00, -0.00, -1.00, 357.6, 403.0)">r</text><text xml:space="preserve" font-family="HelveticaNeue-Medium" font-size="28.0" fill="#EAEAEA" transform="matrix(1.00, 0.00, -0.00, -1.00, 367.9, 403.0)">n</text><text xml:space="preserve" font-family="HelveticaNeue-Medium" font-size="28.0" fill="#EAEAEA" transform="matrix(1.00, 0.00, -0.00, -1.00, 384.0, 403.0)">a</text><text xml:space="preserve" font-family="HelveticaNeue-Medium" font-size="28.0" fill="#EAEAEA" transform="matrix(1.00, 0.00, -0.00, -1.00, 399.6, 403.0)">t</text><text xml:space="preserve" font-family="HelveticaNeue-Medium" font-size="28.0" fill="#EAEAEA" transform="matrix(1.00, 0.00, -0.00, -1.00, 408.9, 403.0)">o</text><text xml:space="preserve" font-family="HelveticaNeue-Medium" font-size="28.0" fill="#EAEAEA" transform="matrix(1.00, 0.00, -0.00, -1.00, 425.5, 403.0)">r</text><text xml:space="preserve" font-family="HelveticaNeue-Medium" font-size="28.0" fill="#EAEAEA" transform="matrix(1.00, 0.00, -0.00, -1.00, 435.4, 403.0)"> </text><image xlink:href="../../DEEE0F8F-52B5-4CE6-ACF2-A868EC70DA3E/assets/6288F7B1ED39D6885A9D788C82D4013C.png" width="17.00" height="16.00" transform="matrix(1.00, 0.00, -0.00, -1.00, 61.0, 353.0)"></image><text xml:space="preserve" font-family="HelveticaNeue-Medium" font-size="21.0" fill="#EBEAEA" transform="matrix(1.00, 0.00, -0.00, -1.00, 64.0, 339.3)">•</text><image xlink:href="9C178D5FBB9E47B4F541DF5447D1A28F.png" width="366.00" height="34.00" transform="matrix(1.00, 0.00, -0.00, -1.00, 86.0, 359.0)"></image><text xml:space="preserve" font-family="HelveticaNeue-Medium" font-size="28.0" fill="#EAEAEA" transform="matrix(1.00, 0.00, -0.00, -1.00, 91.0, 337.0)">A</text><text xml:space="preserve" font-family="HelveticaNeue-Medium" font-size="28.0" fill="#EAEAEA" transform="matrix(1.00, 0.00, -0.00, -1.00, 109.7, 337.0)">l</text><text xml:space="preserve" font-family="HelveticaNeue-Medium" font-size="28.0" fill="#EAEAEA" transform="matrix(1.00, 0.00, -0.00, -1.00, 116.4, 337.0)">t</text><text xml:space="preserve" font-family="HelveticaNeue-Medium" font-size="28.0" fill="#EAEAEA" transform="matrix(1.00, 0.00, -0.00, -1.00, 125.7, 337.0)">e</text><text xml:space="preserve" font-family="HelveticaNeue-Medium" font-size="28.0" fill="#EAEAEA" transform="matrix(1.00, 0.00, -0.00, -1.00, 141.3, 337.0)">r</text><text xml:space="preserve" font-family="HelveticaNeue-Medium" font-size="28.0" fill="#EAEAEA" transform="matrix(1.00, 0.00, -0.00, -1.00, 151.7, 337.0)">n</text><text xml:space="preserve" font-family="HelveticaNeue-Medium" font-size="28.0" fill="#EAEAEA" transform="matrix(1.00, 0.00, -0.00, -1.00, 167.7, 337.0)">a</text><text xml:space="preserve" font-family="HelveticaNeue-Medium" font-size="28.0" fill="#EAEAEA" transform="matrix(1.00, 0.00, -0.00, -1.00, 183.3, 337.0)">t</text><text xml:space="preserve" font-family="HelveticaNeue-Medium" font-size="28.0" fill="#EAEAEA" transform="matrix(1.00, 0.00, -0.00, -1.00, 192.6, 337.0)">o</text><text xml:space="preserve" font-family="HelveticaNeue-Medium" font-size="28.0" fill="#EAEAEA" transform="matrix(1.00, 0.00, -0.00, -1.00, 209.2, 337.0)">r</text><text xml:space="preserve" font-family="HelveticaNeue-Medium" font-size="28.0" fill="#EAEAEA" transform="matrix(1.00, 0.00, -0.00, -1.00, 219.1, 337.0)"> </text><text xml:space="preserve" font-family="HelveticaNeue-Medium" font-size="28.0" fill="#EAEAEA" transform="matrix(1.00, 0.00, -0.00, -1.00, 226.9, 337.0)">g</text><text xml:space="preserve" font-family="HelveticaNeue-Medium" font-size="28.0" fill="#EAEAEA" transform="matrix(1.00, 0.00, -0.00, -1.00, 243.5, 337.0)">e</text><text xml:space="preserve" font-family="HelveticaNeue-Medium" font-size="28.0" fill="#EAEAEA" transform="matrix(1.00, 0.00, -0.00, -1.00, 259.1, 337.0)">n</text><text xml:space="preserve" font-family="HelveticaNeue-Medium" font-size="28.0" fill="#EAEAEA" transform="matrix(1.00, 0.00, -0.00, -1.00, 275.1, 337.0)">e</text><text xml:space="preserve" font-family="HelveticaNeue-Medium" font-size="28.0" fill="#EAEAEA" transform="matrix(1.00, 0.00, -0.00, -1.00, 290.7, 337.0)">r</text><text xml:space="preserve" font-family="HelveticaNeue-Medium" font-size="28.0" fill="#EAEAEA" transform="matrix(1.00, 0.00, -0.00, -1.00, 300.6, 337.0)">a</text><text xml:space="preserve" font-family="HelveticaNeue-Medium" font-size="28.0" fill="#EAEAEA" transform="matrix(1.00, 0.00, -0.00, -1.00, 316.1, 337.0)">t</text><text xml:space="preserve" font-family="HelveticaNeue-Medium" font-size="28.0" fill="#EAEAEA" transform="matrix(1.00, 0.00, -0.00, -1.00, 325.4, 337.0)">e</text><text xml:space="preserve" font-family="HelveticaNeue-Medium" font-size="28.0" fill="#EAEAEA" transform="matrix(1.00, 0.00, -0.00, -1.00, 341.0, 337.0)">s</text><text xml:space="preserve" font-family="HelveticaNeue-Medium" font-size="28.0" fill="#EAEAEA" transform="matrix(1.00, 0.00, -0.00, -1.00, 355.5, 337.0)"> </text><text xml:space="preserve" font-family="HelveticaNeue-Medium" font-size="28.0" fill="#EAEAEA" transform="matrix(1.00, 0.00, -0.00, -1.00, 363.3, 337.0)">p</text><text xml:space="preserve" font-family="HelveticaNeue-Medium" font-size="28.0" fill="#EAEAEA" transform="matrix(1.00, 0.00, -0.00, -1.00, 380.4, 337.0)">u</text><text xml:space="preserve" font-family="HelveticaNeue-Medium" font-size="28.0" fill="#EAEAEA" transform="matrix(1.00, 0.00, -0.00, -1.00, 396.5, 337.0)">l</text><text xml:space="preserve" font-family="HelveticaNeue-Medium" font-size="28.0" fill="#EAEAEA" transform="matrix(1.00, 0.00, -0.00, -1.00, 403.3, 337.0)">s</text><text xml:space="preserve" font-family="HelveticaNeue-Medium" font-size="28.0" fill="#EAEAEA" transform="matrix(1.00, 0.00, -0.00, -1.00, 417.8, 337.0)">e</text><text xml:space="preserve" font-family="HelveticaNeue-Medium" font-size="28.0" fill="#EAEAEA" transform="matrix(1.00, 0.00, -0.00, -1.00, 433.4, 337.0)">s</text><text xml:space="preserve" font-family="HelveticaNeue-Medium" font-size="28.0" fill="#EAEAEA" transform="matrix(1.00, 0.00, -0.00, -1.00, 447.9, 337.0)"> </text><image xlink:href="42B5536A09E91EF5B8D25C226B100284.png" width="335.00" height="29.00" transform="matrix(1.00, 0.00, -0.00, -1.00, 87.0, 325.0)"></image><text xml:space="preserve" font-family="HelveticaNeue-Medium" font-size="28.0" fill="#EAEAEA" transform="matrix(1.00, 0.00, -0.00, -1.00, 91.0, 303.0)">t</text><text xml:space="preserve" font-family="HelveticaNeue-Medium" font-size="28.0" fill="#EAEAEA" transform="matrix(1.00, 0.00, -0.00, -1.00, 100.3, 303.0)">h</text><text xml:space="preserve" font-family="HelveticaNeue-Medium" font-size="28.0" fill="#EAEAEA" transform="matrix(1.00, 0.00, -0.00, -1.00, 116.4, 303.0)">a</text><text xml:space="preserve" font-family="HelveticaNeue-Medium" font-size="28.0" fill="#EAEAEA" transform="matrix(1.00, 0.00, -0.00, -1.00, 132.0, 303.0)">t</text><text xml:space="preserve" font-family="HelveticaNeue-Medium" font-size="28.0" fill="#EAEAEA" transform="matrix(1.00, 0.00, -0.00, -1.00, 141.3, 303.0)"> </text><text xml:space="preserve" font-family="HelveticaNeue-Medium" font-size="28.0" fill="#EAEAEA" transform="matrix(1.00, 0.00, -0.00, -1.00, 149.1, 303.0)">d</text><text xml:space="preserve" font-family="HelveticaNeue-Medium" font-size="28.0" fill="#EAEAEA" transform="matrix(1.00, 0.00, -0.00, -1.00, 166.2, 303.0)">r</text><text xml:space="preserve" font-family="HelveticaNeue-Medium" font-size="28.0" fill="#EAEAEA" transform="matrix(1.00, 0.00, -0.00, -1.00, 176.0, 303.0)">i</text><text xml:space="preserve" font-family="HelveticaNeue-Medium" font-size="28.0" fill="#EAEAEA" transform="matrix(1.00, 0.00, -0.00, -1.00, 182.8, 303.0)">v</text><text xml:space="preserve" font-family="HelveticaNeue-Medium" font-size="28.0" fill="#EAEAEA" transform="matrix(1.00, 0.00, -0.00, -1.00, 197.3, 303.0)">e</text><text xml:space="preserve" font-family="HelveticaNeue-Medium" font-size="28.0" fill="#EAEAEA" transform="matrix(1.00, 0.00, -0.00, -1.00, 212.9, 303.0)"> </text><text xml:space="preserve" font-family="HelveticaNeue-Medium" font-size="28.0" fill="#EAEAEA" transform="matrix(1.00, 0.00, -0.00, -1.00, 220.7, 303.0)">t</text><text xml:space="preserve" font-family="HelveticaNeue-Medium" font-size="28.0" fill="#EAEAEA" transform="matrix(1.00, 0.00, -0.00, -1.00, 230.0, 303.0)">h</text><text xml:space="preserve" font-family="HelveticaNeue-Medium" font-size="28.0" fill="#EAEAEA" transform="matrix(1.00, 0.00, -0.00, -1.00, 246.1, 303.0)">e</text><text xml:space="preserve" font-family="HelveticaNeue-Medium" font-size="28.0" fill="#EAEAEA" transform="matrix(1.00, 0.00, -0.00, -1.00, 261.6, 303.0)"> </text><text xml:space="preserve" font-family="HelveticaNeue-Medium" font-size="28.0" fill="#EAEAEA" transform="matrix(1.00, 0.00, -0.00, -1.00, 269.4, 303.0)">t</text><text xml:space="preserve" font-family="HelveticaNeue-Medium" font-size="28.0" fill="#EAEAEA" transform="matrix(1.00, 0.00, -0.00, -1.00, 278.7, 303.0)">a</text><text xml:space="preserve" font-family="HelveticaNeue-Medium" font-size="28.0" fill="#EAEAEA" transform="matrix(1.00, 0.00, -0.00, -1.00, 294.3, 303.0)">c</text><text xml:space="preserve" font-family="HelveticaNeue-Medium" font-size="28.0" fill="#EAEAEA" transform="matrix(1.00, 0.00, -0.00, -1.00, 309.9, 303.0)">h</text><text xml:space="preserve" font-family="HelveticaNeue-Medium" font-size="28.0" fill="#EAEAEA" transform="matrix(1.00, 0.00, -0.00, -1.00, 325.9, 303.0)">o</text><text xml:space="preserve" font-family="HelveticaNeue-Medium" font-size="28.0" fill="#EAEAEA" transform="matrix(1.00, 0.00, -0.00, -1.00, 342.6, 303.0)">m</text><text xml:space="preserve" font-family="HelveticaNeue-Medium" font-size="28.0" fill="#EAEAEA" transform="matrix(1.00, 0.00, -0.00, -1.00, 366.9, 303.0)">e</text><text xml:space="preserve" font-family="HelveticaNeue-Medium" font-size="28.0" fill="#EAEAEA" transform="matrix(1.00, 0.00, -0.00, -1.00, 382.5, 303.0)">t</text><text xml:space="preserve" font-family="HelveticaNeue-Medium" font-size="28.0" fill="#EAEAEA" transform="matrix(1.00, 0.00, -0.00, -1.00, 391.8, 303.0)">e</text><text xml:space="preserve" font-family="HelveticaNeue-Medium" font-size="28.0" fill="#EAEAEA" transform="matrix(1.00, 0.00, -0.00, -1.00, 407.4, 303.0)">r</text><text xml:space="preserve" font-family="HelveticaNeue-Medium" font-size="28.0" fill="#EAEAEA" transform="matrix(1.00, 0.00, -0.00, -1.00, 417.2, 303.0)"> </text><image xlink:href="../../DEEE0F8F-52B5-4CE6-ACF2-A868EC70DA3E/assets/6288F7B1ED39D6885A9D788C82D4013C.png" width="17.00" height="16.00" transform="matrix(1.00, 0.00, -0.00, -1.00, 61.0, 253.0)"></image><text xml:space="preserve" font-family="HelveticaNeue-Medium" font-size="21.0" fill="#EBEAEA" transform="matrix(1.00, 0.00, -0.00, -1.00, 64.0, 239.3)">•</text><image xlink:href="7FC34F8F51EB9BC0280BC1EDEE6A41C1.png" width="321.00" height="29.00" transform="matrix(1.00, 0.00, -0.00, -1.00, 89.0, 259.0)"></image><text xml:space="preserve" font-family="HelveticaNeue-Medium" font-size="28.0" fill="#EAEAEA" transform="matrix(1.00, 0.00, -0.00, -1.00, 91.0, 237.0)">I</text><text xml:space="preserve" font-family="HelveticaNeue-Medium" font-size="28.0" fill="#EAEAEA" transform="matrix(1.00, 0.00, -0.00, -1.00, 98.8, 237.0)">n</text><text xml:space="preserve" font-family="HelveticaNeue-Medium" font-size="28.0" fill="#EAEAEA" transform="matrix(1.00, 0.00, -0.00, -1.00, 114.9, 237.0)">d</text><text xml:space="preserve" font-family="HelveticaNeue-Medium" font-size="28.0" fill="#EAEAEA" transform="matrix(1.00, 0.00, -0.00, -1.00, 132.0, 237.0)">i</text><text xml:space="preserve" font-family="HelveticaNeue-Medium" font-size="28.0" fill="#EAEAEA" transform="matrix(1.00, 0.00, -0.00, -1.00, 138.7, 237.0)">r</text><text xml:space="preserve" font-family="HelveticaNeue-Medium" font-size="28.0" fill="#EAEAEA" transform="matrix(1.00, 0.00, -0.00, -1.00, 148.1, 237.0)">e</text><text xml:space="preserve" font-family="HelveticaNeue-Medium" font-size="28.0" fill="#EAEAEA" transform="matrix(1.00, 0.00, -0.00, -1.00, 163.6, 237.0)">c</text><text xml:space="preserve" font-family="HelveticaNeue-Medium" font-size="28.0" fill="#EAEAEA" transform="matrix(1.00, 0.00, -0.00, -1.00, 179.2, 237.0)">t</text><text xml:space="preserve" font-family="HelveticaNeue-Medium" font-size="28.0" fill="#EAEAEA" transform="matrix(1.00, 0.00, -0.00, -1.00, 188.5, 237.0)"> </text><text xml:space="preserve" font-family="HelveticaNeue-Medium" font-size="28.0" fill="#EAEAEA" transform="matrix(1.00, 0.00, -0.00, -1.00, 196.3, 237.0)">m</text><text xml:space="preserve" font-family="HelveticaNeue-Medium" font-size="28.0" fill="#EAEAEA" transform="matrix(1.00, 0.00, -0.00, -1.00, 220.7, 237.0)">e</text><text xml:space="preserve" font-family="HelveticaNeue-Medium" font-size="28.0" fill="#EAEAEA" transform="matrix(1.00, 0.00, -0.00, -1.00, 236.2, 237.0)">a</text><text xml:space="preserve" font-family="HelveticaNeue-Medium" font-size="28.0" fill="#EAEAEA" transform="matrix(1.00, 0.00, -0.00, -1.00, 251.8, 237.0)">s</text><text xml:space="preserve" font-family="HelveticaNeue-Medium" font-size="28.0" fill="#EAEAEA" transform="matrix(1.00, 0.00, -0.00, -1.00, 266.3, 237.0)">u</text><text xml:space="preserve" font-family="HelveticaNeue-Medium" font-size="28.0" fill="#EAEAEA" transform="matrix(1.00, 0.00, -0.00, -1.00, 282.4, 237.0)">r</text><text xml:space="preserve" font-family="HelveticaNeue-Medium" font-size="28.0" fill="#EAEAEA" transform="matrix(1.00, 0.00, -0.00, -1.00, 291.8, 237.0)">e</text><text xml:space="preserve" font-family="HelveticaNeue-Medium" font-size="28.0" fill="#EAEAEA" transform="matrix(1.00, 0.00, -0.00, -1.00, 307.3, 237.0)">m</text><text xml:space="preserve" font-family="HelveticaNeue-Medium" font-size="28.0" fill="#EAEAEA" transform="matrix(1.00, 0.00, -0.00, -1.00, 331.7, 237.0)">e</text><text xml:space="preserve" font-family="HelveticaNeue-Medium" font-size="28.0" fill="#EAEAEA" transform="matrix(1.00, 0.00, -0.00, -1.00, 347.3, 237.0)">n</text><text xml:space="preserve" font-family="HelveticaNeue-Medium" font-size="28.0" fill="#EAEAEA" transform="matrix(1.00, 0.00, -0.00, -1.00, 363.3, 237.0)">t</text><text xml:space="preserve" font-family="HelveticaNeue-Medium" font-size="28.0" fill="#EAEAEA" transform="matrix(1.00, 0.00, -0.00, -1.00, 372.7, 237.0)"> </text><text xml:space="preserve" font-family="HelveticaNeue-Medium" font-size="28.0" fill="#EAEAEA" transform="matrix(1.00, 0.00, -0.00, -1.00, 380.4, 237.0)">o</text><text xml:space="preserve" font-family="HelveticaNeue-Medium" font-size="28.0" fill="#EAEAEA" transform="matrix(1.00, 0.00, -0.00, -1.00, 397.0, 237.0)">f</text><text xml:space="preserve" font-family="HelveticaNeue-Medium" font-size="28.0" fill="#EAEAEA" transform="matrix(1.00, 0.00, -0.00, -1.00, 405.9, 237.0)"> </text><image xlink:href="F1BB849D757CDB0A6F7170B3E24ADA17.png" width="89.00" height="29.00" transform="matrix(1.00, 0.00, -0.00, -1.00, 89.0, 225.0)"></image><text xml:space="preserve" font-family="HelveticaNeue-Medium" font-size="28.0" fill="#EAEAEA" transform="matrix(1.00, 0.00, -0.00, -1.00, 91.0, 203.0)">R</text><text xml:space="preserve" font-family="HelveticaNeue-Medium" font-size="28.0" fill="#EAEAEA" transform="matrix(1.00, 0.00, -0.00, -1.00, 110.7, 203.0)">P</text><text xml:space="preserve" font-family="HelveticaNeue-Medium" font-size="28.0" fill="#EAEAEA" transform="matrix(1.00, 0.00, -0.00, -1.00, 129.4, 203.0)">M</text><text xml:space="preserve" font-family="HelveticaNeue-Medium" font-size="28.0" fill="#EAEAEA" transform="matrix(1.00, 0.00, -0.00, -1.00, 154.3, 203.0)">’</text><text xml:space="preserve" font-family="HelveticaNeue-Medium" font-size="28.0" fill="#EAEAEA" transform="matrix(1.00, 0.00, -0.00, -1.00, 160.0, 203.0)">s</text></g></svg>