<?xml version="1.0" encoding="UTF-8" standalone="no"?><svg xmlns="http://www.w3.org/2000/svg" xmlns:xlink="http://www.w3.org/1999/xlink" clip-rule="evenodd" stroke-miterlimit="4.00" viewBox="0 0 1024 768"><desc>SVG generated by Keynote</desc><defs></defs><g transform="matrix(1.00, 0.00, -0.00, -1.00, 0.0, 768.0)"><g><clipPath id="clip-174"><path d="M 0.0 768.0 L 1024.0 768.0 L 1024.0 0.0 L 0.0 0.0 Z M 0.0 768.0 "></path></clipPath><g clip-path="url(#clip-174)"><image xlink:href="../../363ACDF5-F69A-4348-A617-267FC1DCB792/assets/2CA05975C404A6B79EB2D17D5C3EEC1C.jpeg" width="1024.00" height="768.00" transform="matrix(1.00, 0.00, -0.00, -1.00, 0.0, 768.0)"></image></g></g><image xlink:href="../../A2BBAA74-D37A-4870-88D2-935464DD7FE8/assets/3434A69070204529AFCBA62ECD35D859.png" width="722.00" height="55.00" transform="matrix(1.00, 0.00, -0.00, -1.00, 148.0, 692.0)"></image><text xml:space="preserve" font-family="HelveticaNeue-Bold" font-weight="bold" font-size="64.0" fill="#FEFFFE" transform="matrix(1.00, 0.00, -0.00, -1.00, 153.0, 644.0)">Y</text><text xml:space="preserve" font-family="HelveticaNeue-Bold" font-weight="bold" font-size="64.0" fill="#FEFFFE" transform="matrix(1.00, 0.00, -0.00, -1.00, 188.6, 644.0)">o</text><text xml:space="preserve" font-family="HelveticaNeue-Bold" font-weight="bold" font-size="64.0" fill="#FEFFFE" transform="matrix(1.00, 0.00, -0.00, -1.00, 227.7, 644.0)">u</text><text xml:space="preserve" font-family="HelveticaNeue-Bold" font-weight="bold" font-size="64.0" fill="#FEFFFE" transform="matrix(1.00, 0.00, -0.00, -1.00, 265.6, 644.0)"> </text><text xml:space="preserve" font-family="HelveticaNeue-Bold" font-weight="bold" font-size="64.0" fill="#FEFFFE" transform="matrix(1.00, 0.00, -0.00, -1.00, 283.4, 644.0)">c</text><text xml:space="preserve" font-family="HelveticaNeue-Bold" font-weight="bold" font-size="64.0" fill="#FEFFFE" transform="matrix(1.00, 0.00, -0.00, -1.00, 320.2, 644.0)">a</text><text xml:space="preserve" font-family="HelveticaNeue-Bold" font-weight="bold" font-size="64.0" fill="#FEFFFE" transform="matrix(1.00, 0.00, -0.00, -1.00, 356.9, 644.0)">n</text><text xml:space="preserve" font-family="HelveticaNeue-Bold" font-weight="bold" font-size="64.0" fill="#FEFFFE" transform="matrix(1.00, 0.00, -0.00, -1.00, 394.9, 644.0)"> </text><text xml:space="preserve" font-family="HelveticaNeue-Bold" font-weight="bold" font-size="64.0" fill="#FEFFFE" transform="matrix(1.00, 0.00, -0.00, -1.00, 412.6, 644.0)">d</text><text xml:space="preserve" font-family="HelveticaNeue-Bold" font-weight="bold" font-size="64.0" fill="#FEFFFE" transform="matrix(1.00, 0.00, -0.00, -1.00, 451.8, 644.0)">o</text><text xml:space="preserve" font-family="HelveticaNeue-Bold" font-weight="bold" font-size="64.0" fill="#FEFFFE" transform="matrix(1.00, 0.00, -0.00, -1.00, 490.9, 644.0)"> </text><text xml:space="preserve" font-family="HelveticaNeue-Bold" font-weight="bold" font-size="64.0" fill="#FEFFFE" transform="matrix(1.00, 0.00, -0.00, -1.00, 508.6, 644.0)">t</text><text xml:space="preserve" font-family="HelveticaNeue-Bold" font-weight="bold" font-size="64.0" fill="#FEFFFE" transform="matrix(1.00, 0.00, -0.00, -1.00, 531.2, 644.0)">h</text><text xml:space="preserve" font-family="HelveticaNeue-Bold" font-weight="bold" font-size="64.0" fill="#FEFFFE" transform="matrix(1.00, 0.00, -0.00, -1.00, 569.1, 644.0)">i</text><text xml:space="preserve" font-family="HelveticaNeue-Bold" font-weight="bold" font-size="64.0" fill="#FEFFFE" transform="matrix(1.00, 0.00, -0.00, -1.00, 585.6, 644.0)">s</text><text xml:space="preserve" font-family="HelveticaNeue-Bold" font-weight="bold" font-size="64.0" fill="#FEFFFE" transform="matrix(1.00, 0.00, -0.00, -1.00, 620.0, 644.0)">…</text><text xml:space="preserve" font-family="HelveticaNeue-Bold" font-weight="bold" font-size="64.0" fill="#FEFFFE" transform="matrix(1.00, 0.00, -0.00, -1.00, 684.0, 644.0)"> </text><text xml:space="preserve" font-family="HelveticaNeue-Bold" font-weight="bold" font-size="64.0" fill="#FEFFFE" transform="matrix(1.00, 0.00, -0.00, -1.00, 701.8, 644.0)">B</text><text xml:space="preserve" font-family="HelveticaNeue-Bold" font-weight="bold" font-size="64.0" fill="#FEFFFE" transform="matrix(1.00, 0.00, -0.00, -1.00, 746.9, 644.0)">u</text><text xml:space="preserve" font-family="HelveticaNeue-Bold" font-weight="bold" font-size="64.0" fill="#FEFFFE" transform="matrix(1.00, 0.00, -0.00, -1.00, 784.8, 644.0)">t</text><text xml:space="preserve" font-family="HelveticaNeue-Bold" font-weight="bold" font-size="64.0" fill="#FEFFFE" transform="matrix(1.00, 0.00, -0.00, -1.00, 807.3, 644.0)">…</text><image xlink:href="../../462FAAD1-348F-404D-AF28-2D915DBD9711/assets/7D360F15E6E68D2A35773B98E25571B0.png" width="14.00" height="14.00" transform="matrix(1.00, 0.00, -0.00, -1.00, 62.0, 559.0)"></image><text xml:space="preserve" font-family="HelveticaNeue-Medium" font-size="19.5" fill="#EAEAEA" transform="matrix(1.00, 0.00, -0.00, -1.00, 64.0, 546.9)">•</text><image xlink:href="../../A2BBAA74-D37A-4870-88D2-935464DD7FE8/assets/3F8ED1E5A6ECE8786247344CAECB3707.png" width="220.00" height="26.00" transform="matrix(1.00, 0.00, -0.00, -1.00, 86.0, 564.0)"></image><text xml:space="preserve" font-family="HelveticaNeue-Medium" font-size="26.0" fill="#EAEAEA" transform="matrix(1.00, 0.00, -0.00, -1.00, 89.0, 544.0)">T</text><text xml:space="preserve" font-family="HelveticaNeue-Medium" font-size="26.0" fill="#EAEAEA" transform="matrix(1.00, 0.00, -0.00, -1.00, 104.4, 544.0)">h</text><text xml:space="preserve" font-family="HelveticaNeue-Medium" font-size="26.0" fill="#EAEAEA" transform="matrix(1.00, 0.00, -0.00, -1.00, 119.3, 544.0)">i</text><text xml:space="preserve" font-family="HelveticaNeue-Medium" font-size="26.0" fill="#EAEAEA" transform="matrix(1.00, 0.00, -0.00, -1.00, 125.6, 544.0)">s</text><text xml:space="preserve" font-family="HelveticaNeue-Medium" font-size="26.0" fill="#EAEAEA" transform="matrix(1.00, 0.00, -0.00, -1.00, 139.1, 544.0)"> </text><text xml:space="preserve" font-family="HelveticaNeue-Medium" font-size="26.0" fill="#EAEAEA" transform="matrix(1.00, 0.00, -0.00, -1.00, 146.3, 544.0)">m</text><text xml:space="preserve" font-family="HelveticaNeue-Medium" font-size="26.0" fill="#EAEAEA" transform="matrix(1.00, 0.00, -0.00, -1.00, 168.9, 544.0)">a</text><text xml:space="preserve" font-family="HelveticaNeue-Medium" font-size="26.0" fill="#EAEAEA" transform="matrix(1.00, 0.00, -0.00, -1.00, 183.4, 544.0)">k</text><text xml:space="preserve" font-family="HelveticaNeue-Medium" font-size="26.0" fill="#EAEAEA" transform="matrix(1.00, 0.00, -0.00, -1.00, 197.4, 544.0)">e</text><text xml:space="preserve" font-family="HelveticaNeue-Medium" font-size="26.0" fill="#EAEAEA" transform="matrix(1.00, 0.00, -0.00, -1.00, 211.8, 544.0)">s</text><text xml:space="preserve" font-family="HelveticaNeue-Medium" font-size="26.0" fill="#EAEAEA" transform="matrix(1.00, 0.00, -0.00, -1.00, 225.3, 544.0)"> </text><text xml:space="preserve" font-family="HelveticaNeue-Medium" font-size="26.0" fill="#EAEAEA" transform="matrix(1.00, 0.00, -0.00, -1.00, 232.5, 544.0)">s</text><text xml:space="preserve" font-family="HelveticaNeue-Medium" font-size="26.0" fill="#EAEAEA" transform="matrix(1.00, 0.00, -0.00, -1.00, 246.0, 544.0)">e</text><text xml:space="preserve" font-family="HelveticaNeue-Medium" font-size="26.0" fill="#EAEAEA" transform="matrix(1.00, 0.00, -0.00, -1.00, 260.5, 544.0)">n</text><text xml:space="preserve" font-family="HelveticaNeue-Medium" font-size="26.0" fill="#EAEAEA" transform="matrix(1.00, 0.00, -0.00, -1.00, 275.4, 544.0)">s</text><text xml:space="preserve" font-family="HelveticaNeue-Medium" font-size="26.0" fill="#EAEAEA" transform="matrix(1.00, 0.00, -0.00, -1.00, 288.9, 544.0)">e</text><text xml:space="preserve" font-family="HelveticaNeue-Medium" font-size="26.0" fill="#EAEAEA" transform="matrix(1.00, 0.00, -0.00, -1.00, 303.4, 544.0)"> </text><image xlink:href="../../A2BBAA74-D37A-4870-88D2-935464DD7FE8/assets/74833989D4329FAE7ACC67A9D127EEA4.png" width="423.00" height="31.00" transform="matrix(1.00, 0.00, -0.00, -1.00, 63.0, 501.0)"></image><text xml:space="preserve" font-family="AndaleMono" font-size="26.0" fill="#EAEAEA" transform="matrix(1.00, 0.00, -0.00, -1.00, 64.0, 481.0)">s</text><text xml:space="preserve" font-family="AndaleMono" font-size="26.0" fill="#EAEAEA" transform="matrix(1.00, 0.00, -0.00, -1.00, 79.6, 481.0)">o</text><text xml:space="preserve" font-family="AndaleMono" font-size="26.0" fill="#EAEAEA" transform="matrix(1.00, 0.00, -0.00, -1.00, 95.2, 481.0)">m</text><text xml:space="preserve" font-family="AndaleMono" font-size="26.0" fill="#EAEAEA" transform="matrix(1.00, 0.00, -0.00, -1.00, 110.8, 481.0)">e</text><text xml:space="preserve" font-family="AndaleMono" font-size="26.0" fill="#EAEAEA" transform="matrix(1.00, 0.00, -0.00, -1.00, 126.4, 481.0)">_</text><text xml:space="preserve" font-family="AndaleMono" font-size="26.0" fill="#EAEAEA" transform="matrix(1.00, 0.00, -0.00, -1.00, 142.0, 481.0)">n</text><text xml:space="preserve" font-family="AndaleMono" font-size="26.0" fill="#EAEAEA" transform="matrix(1.00, 0.00, -0.00, -1.00, 157.6, 481.0)">a</text><text xml:space="preserve" font-family="AndaleMono" font-size="26.0" fill="#EAEAEA" transform="matrix(1.00, 0.00, -0.00, -1.00, 173.2, 481.0)">m</text><text xml:space="preserve" font-family="AndaleMono" font-size="26.0" fill="#EAEAEA" transform="matrix(1.00, 0.00, -0.00, -1.00, 188.8, 481.0)">e</text><text xml:space="preserve" font-family="AndaleMono" font-size="26.0" fill="#EAEAEA" transform="matrix(1.00, 0.00, -0.00, -1.00, 204.4, 481.0)"> </text><text xml:space="preserve" font-family="AndaleMono" font-size="26.0" fill="#EAEAEA" transform="matrix(1.00, 0.00, -0.00, -1.00, 220.1, 481.0)">=</text><text xml:space="preserve" font-family="AndaleMono" font-size="26.0" fill="#EAEAEA" transform="matrix(1.00, 0.00, -0.00, -1.00, 235.7, 481.0)"> </text><text xml:space="preserve" font-family="AndaleMono" font-size="26.0" fill="#EAEAEA" transform="matrix(1.00, 0.00, -0.00, -1.00, 251.3, 481.0)">l</text><text xml:space="preserve" font-family="AndaleMono" font-size="26.0" fill="#EAEAEA" transform="matrix(1.00, 0.00, -0.00, -1.00, 266.9, 481.0)">a</text><text xml:space="preserve" font-family="AndaleMono" font-size="26.0" fill="#EAEAEA" transform="matrix(1.00, 0.00, -0.00, -1.00, 282.5, 481.0)">m</text><text xml:space="preserve" font-family="AndaleMono" font-size="26.0" fill="#EAEAEA" transform="matrix(1.00, 0.00, -0.00, -1.00, 298.1, 481.0)">b</text><text xml:space="preserve" font-family="AndaleMono" font-size="26.0" fill="#EAEAEA" transform="matrix(1.00, 0.00, -0.00, -1.00, 313.7, 481.0)">d</text><text xml:space="preserve" font-family="AndaleMono" font-size="26.0" fill="#EAEAEA" transform="matrix(1.00, 0.00, -0.00, -1.00, 329.3, 481.0)">a</text><text xml:space="preserve" font-family="AndaleMono" font-size="26.0" fill="#EAEAEA" transform="matrix(1.00, 0.00, -0.00, -1.00, 344.9, 481.0)"> </text><text xml:space="preserve" font-family="AndaleMono" font-size="26.0" fill="#EAEAEA" transform="matrix(1.00, 0.00, -0.00, -1.00, 360.5, 481.0)">x</text><text xml:space="preserve" font-family="AndaleMono" font-size="26.0" fill="#EAEAEA" transform="matrix(1.00, 0.00, -0.00, -1.00, 376.1, 481.0)">:</text><text xml:space="preserve" font-family="AndaleMono" font-size="26.0" fill="#EAEAEA" transform="matrix(1.00, 0.00, -0.00, -1.00, 391.7, 481.0)"> </text><text xml:space="preserve" font-family="AndaleMono" font-size="26.0" fill="#EAEAEA" transform="matrix(1.00, 0.00, -0.00, -1.00, 407.3, 481.0)">3</text><text xml:space="preserve" font-family="AndaleMono" font-size="26.0" fill="#EAEAEA" transform="matrix(1.00, 0.00, -0.00, -1.00, 422.9, 481.0)">*</text><text xml:space="preserve" font-family="AndaleMono" font-size="26.0" fill="#EAEAEA" transform="matrix(1.00, 0.00, -0.00, -1.00, 438.5, 481.0)">x</text><text xml:space="preserve" font-family="AndaleMono" font-size="26.0" fill="#EAEAEA" transform="matrix(1.00, 0.00, -0.00, -1.00, 454.1, 481.0)">+</text><text xml:space="preserve" font-family="AndaleMono" font-size="26.0" fill="#EAEAEA" transform="matrix(1.00, 0.00, -0.00, -1.00, 469.7, 481.0)">1</text><text xml:space="preserve" font-family="AndaleMono" font-size="26.0" fill="#EAEAEA" transform="matrix(1.00, 0.00, -0.00, -1.00, 485.3, 481.0)"> </text><image xlink:href="../../462FAAD1-348F-404D-AF28-2D915DBD9711/assets/829A33124F9EE55BF1DA416A2A9FB6C9.png" width="14.00" height="14.00" transform="matrix(1.00, 0.00, -0.00, -1.00, 62.0, 431.0)"></image><text xml:space="preserve" font-family="HelveticaNeue-Medium" font-size="19.5" fill="#EAEAEA" transform="matrix(1.00, 0.00, -0.00, -1.00, 64.0, 418.7)">•</text><image xlink:href="../../A2BBAA74-D37A-4870-88D2-935464DD7FE8/assets/9595C89D8E2741D15BA14C1D34FBF71C.png" width="349.00" height="31.00" transform="matrix(1.00, 0.00, -0.00, -1.00, 87.0, 436.0)"></image><text xml:space="preserve" font-family="HelveticaNeue-Medium" font-size="26.0" fill="#EAEAEA" transform="matrix(1.00, 0.00, -0.00, -1.00, 89.0, 416.0)">I</text><text xml:space="preserve" font-family="HelveticaNeue-Medium" font-size="26.0" fill="#EAEAEA" transform="matrix(1.00, 0.00, -0.00, -1.00, 96.2, 416.0)">t</text><text xml:space="preserve" font-family="HelveticaNeue-Medium" font-size="26.0" fill="#EAEAEA" transform="matrix(1.00, 0.00, -0.00, -1.00, 104.9, 416.0)">’</text><text xml:space="preserve" font-family="HelveticaNeue-Medium" font-size="26.0" fill="#EAEAEA" transform="matrix(1.00, 0.00, -0.00, -1.00, 110.2, 416.0)">s</text><text xml:space="preserve" font-family="HelveticaNeue-Medium" font-size="26.0" fill="#EAEAEA" transform="matrix(1.00, 0.00, -0.00, -1.00, 123.7, 416.0)"> </text><text xml:space="preserve" font-family="HelveticaNeue-Medium" font-size="26.0" fill="#EAEAEA" transform="matrix(1.00, 0.00, -0.00, -1.00, 130.9, 416.0)">a</text><text xml:space="preserve" font-family="HelveticaNeue-Medium" font-size="26.0" fill="#EAEAEA" transform="matrix(1.00, 0.00, -0.00, -1.00, 145.4, 416.0)"> </text><text xml:space="preserve" font-family="HelveticaNeue-Medium" font-size="26.0" fill="#EAEAEA" transform="matrix(1.00, 0.00, -0.00, -1.00, 152.6, 416.0)">c</text><text xml:space="preserve" font-family="HelveticaNeue-Medium" font-size="26.0" fill="#EAEAEA" transform="matrix(1.00, 0.00, -0.00, -1.00, 167.1, 416.0)">a</text><text xml:space="preserve" font-family="HelveticaNeue-Medium" font-size="26.0" fill="#EAEAEA" transform="matrix(1.00, 0.00, -0.00, -1.00, 181.5, 416.0)">l</text><text xml:space="preserve" font-family="HelveticaNeue-Medium" font-size="26.0" fill="#EAEAEA" transform="matrix(1.00, 0.00, -0.00, -1.00, 187.8, 416.0)">l</text><text xml:space="preserve" font-family="HelveticaNeue-Medium" font-size="26.0" fill="#EAEAEA" transform="matrix(1.00, 0.00, -0.00, -1.00, 194.0, 416.0)">a</text><text xml:space="preserve" font-family="HelveticaNeue-Medium" font-size="26.0" fill="#EAEAEA" transform="matrix(1.00, 0.00, -0.00, -1.00, 208.5, 416.0)">b</text><text xml:space="preserve" font-family="HelveticaNeue-Medium" font-size="26.0" fill="#EAEAEA" transform="matrix(1.00, 0.00, -0.00, -1.00, 224.4, 416.0)">l</text><text xml:space="preserve" font-family="HelveticaNeue-Medium" font-size="26.0" fill="#EAEAEA" transform="matrix(1.00, 0.00, -0.00, -1.00, 230.6, 416.0)">e</text><text xml:space="preserve" font-family="HelveticaNeue-Medium" font-size="26.0" fill="#EAEAEA" transform="matrix(1.00, 0.00, -0.00, -1.00, 245.1, 416.0)"> </text><text xml:space="preserve" font-family="HelveticaNeue-Medium" font-size="26.0" fill="#EAEAEA" transform="matrix(1.00, 0.00, -0.00, -1.00, 252.3, 416.0)">o</text><text xml:space="preserve" font-family="HelveticaNeue-Medium" font-size="26.0" fill="#EAEAEA" transform="matrix(1.00, 0.00, -0.00, -1.00, 267.8, 416.0)">b</text><text xml:space="preserve" font-family="HelveticaNeue-Medium" font-size="26.0" fill="#EAEAEA" transform="matrix(1.00, 0.00, -0.00, -1.00, 283.6, 416.0)">j</text><text xml:space="preserve" font-family="HelveticaNeue-Medium" font-size="26.0" fill="#EAEAEA" transform="matrix(1.00, 0.00, -0.00, -1.00, 289.9, 416.0)">e</text><text xml:space="preserve" font-family="HelveticaNeue-Medium" font-size="26.0" fill="#EAEAEA" transform="matrix(1.00, 0.00, -0.00, -1.00, 304.4, 416.0)">c</text><text xml:space="preserve" font-family="HelveticaNeue-Medium" font-size="26.0" fill="#EAEAEA" transform="matrix(1.00, 0.00, -0.00, -1.00, 318.8, 416.0)">t</text><text xml:space="preserve" font-family="HelveticaNeue-Medium" font-size="26.0" fill="#EAEAEA" transform="matrix(1.00, 0.00, -0.00, -1.00, 327.5, 416.0)">,</text><text xml:space="preserve" font-family="HelveticaNeue-Medium" font-size="26.0" fill="#EAEAEA" transform="matrix(1.00, 0.00, -0.00, -1.00, 334.7, 416.0)"> </text><text xml:space="preserve" font-family="HelveticaNeue-Medium" font-size="26.0" fill="#EAEAEA" transform="matrix(1.00, 0.00, -0.00, -1.00, 341.9, 416.0)">j</text><text xml:space="preserve" font-family="HelveticaNeue-Medium" font-size="26.0" fill="#EAEAEA" transform="matrix(1.00, 0.00, -0.00, -1.00, 348.2, 416.0)">u</text><text xml:space="preserve" font-family="HelveticaNeue-Medium" font-size="26.0" fill="#EAEAEA" transform="matrix(1.00, 0.00, -0.00, -1.00, 363.1, 416.0)">s</text><text xml:space="preserve" font-family="HelveticaNeue-Medium" font-size="26.0" fill="#EAEAEA" transform="matrix(1.00, 0.00, -0.00, -1.00, 376.6, 416.0)">t</text><text xml:space="preserve" font-family="HelveticaNeue-Medium" font-size="26.0" fill="#EAEAEA" transform="matrix(1.00, 0.00, -0.00, -1.00, 385.3, 416.0)"> </text><text xml:space="preserve" font-family="HelveticaNeue-Medium" font-size="26.0" fill="#EAEAEA" transform="matrix(1.00, 0.00, -0.00, -1.00, 392.5, 416.0)">l</text><text xml:space="preserve" font-family="HelveticaNeue-Medium" font-size="26.0" fill="#EAEAEA" transform="matrix(1.00, 0.00, -0.00, -1.00, 398.8, 416.0)">i</text><text xml:space="preserve" font-family="HelveticaNeue-Medium" font-size="26.0" fill="#EAEAEA" transform="matrix(1.00, 0.00, -0.00, -1.00, 405.0, 416.0)">k</text><text xml:space="preserve" font-family="HelveticaNeue-Medium" font-size="26.0" fill="#EAEAEA" transform="matrix(1.00, 0.00, -0.00, -1.00, 419.0, 416.0)">e</text><text xml:space="preserve" font-family="HelveticaNeue-Medium" font-size="26.0" fill="#EAEAEA" transform="matrix(1.00, 0.00, -0.00, -1.00, 433.4, 416.0)"> </text><image xlink:href="../../A2BBAA74-D37A-4870-88D2-935464DD7FE8/assets/DF6428C0241FDBAF4F031C9CDAC34CA9.png" width="249.00" height="31.00" transform="matrix(1.00, 0.00, -0.00, -1.00, 439.0, 436.0)"></image><text xml:space="preserve" font-family="AndaleMono" font-size="26.0" fill="#EAEAEA" transform="matrix(1.00, 0.00, -0.00, -1.00, 440.7, 416.0)">d</text><text xml:space="preserve" font-family="AndaleMono" font-size="26.0" fill="#EAEAEA" transform="matrix(1.00, 0.00, -0.00, -1.00, 456.3, 416.0)">e</text><text xml:space="preserve" font-family="AndaleMono" font-size="26.0" fill="#EAEAEA" transform="matrix(1.00, 0.00, -0.00, -1.00, 471.9, 416.0)">f</text><text xml:space="preserve" font-family="AndaleMono" font-size="26.0" fill="#EAEAEA" transform="matrix(1.00, 0.00, -0.00, -1.00, 487.5, 416.0)"> </text><text xml:space="preserve" font-family="AndaleMono" font-size="26.0" fill="#EAEAEA" transform="matrix(1.00, 0.00, -0.00, -1.00, 503.1, 416.0)">s</text><text xml:space="preserve" font-family="AndaleMono" font-size="26.0" fill="#EAEAEA" transform="matrix(1.00, 0.00, -0.00, -1.00, 518.7, 416.0)">o</text><text xml:space="preserve" font-family="AndaleMono" font-size="26.0" fill="#EAEAEA" transform="matrix(1.00, 0.00, -0.00, -1.00, 534.3, 416.0)">m</text><text xml:space="preserve" font-family="AndaleMono" font-size="26.0" fill="#EAEAEA" transform="matrix(1.00, 0.00, -0.00, -1.00, 549.9, 416.0)">e</text><text xml:space="preserve" font-family="AndaleMono" font-size="26.0" fill="#EAEAEA" transform="matrix(1.00, 0.00, -0.00, -1.00, 565.5, 416.0)">_</text><text xml:space="preserve" font-family="AndaleMono" font-size="26.0" fill="#EAEAEA" transform="matrix(1.00, 0.00, -0.00, -1.00, 581.1, 416.0)">n</text><text xml:space="preserve" font-family="AndaleMono" font-size="26.0" fill="#EAEAEA" transform="matrix(1.00, 0.00, -0.00, -1.00, 596.7, 416.0)">a</text><text xml:space="preserve" font-family="AndaleMono" font-size="26.0" fill="#EAEAEA" transform="matrix(1.00, 0.00, -0.00, -1.00, 612.3, 416.0)">m</text><text xml:space="preserve" font-family="AndaleMono" font-size="26.0" fill="#EAEAEA" transform="matrix(1.00, 0.00, -0.00, -1.00, 627.9, 416.0)">e</text><text xml:space="preserve" font-family="AndaleMono" font-size="26.0" fill="#EAEAEA" transform="matrix(1.00, 0.00, -0.00, -1.00, 643.5, 416.0)">(</text><text xml:space="preserve" font-family="AndaleMono" font-size="26.0" fill="#EAEAEA" transform="matrix(1.00, 0.00, -0.00, -1.00, 659.1, 416.0)">x</text><text xml:space="preserve" font-family="AndaleMono" font-size="26.0" fill="#EAEAEA" transform="matrix(1.00, 0.00, -0.00, -1.00, 674.8, 416.0)">)</text><image xlink:href="../../A2BBAA74-D37A-4870-88D2-935464DD7FE8/assets/ACFCE8D12B7C6E6BE3E17201AA8A65C9.png" width="27.00" height="9.00" transform="matrix(1.00, 0.00, -0.00, -1.00, 690.0, 420.0)"></image><text xml:space="preserve" font-family="Helvetica" font-size="26.0" fill="#EAEAEA" transform="matrix(1.00, 0.00, -0.00, -1.00, 690.3, 416.0)">…</text><text xml:space="preserve" font-family="HelveticaNeue-Medium" font-size="26.0" fill="#EAEAEA" transform="matrix(1.00, 0.00, -0.00, -1.00, 716.3, 416.0)"> </text><image xlink:href="../../462FAAD1-348F-404D-AF28-2D915DBD9711/assets/36B2BFB1F76302AD0D8DA2684E3D5E34.png" width="14.00" height="13.00" transform="matrix(1.00, 0.00, -0.00, -1.00, 62.0, 365.0)"></image><text xml:space="preserve" font-family="HelveticaNeue-Medium" font-size="19.5" fill="#EAEAEA" transform="matrix(1.00, 0.00, -0.00, -1.00, 64.0, 353.6)">•</text><image xlink:href="../../A2BBAA74-D37A-4870-88D2-935464DD7FE8/assets/3CD9EBC95E3C6E304B344104F0314FB8.png" width="47.00" height="26.00" transform="matrix(1.00, 0.00, -0.00, -1.00, 87.0, 371.0)"></image><text xml:space="preserve" font-family="HelveticaNeue-Medium" font-size="26.0" fill="#EAEAEA" transform="matrix(1.00, 0.00, -0.00, -1.00, 89.0, 351.0)">B</text><text xml:space="preserve" font-family="HelveticaNeue-Medium" font-size="26.0" fill="#EAEAEA" transform="matrix(1.00, 0.00, -0.00, -1.00, 107.3, 351.0)">u</text><text xml:space="preserve" font-family="HelveticaNeue-Medium" font-size="26.0" fill="#EAEAEA" transform="matrix(1.00, 0.00, -0.00, -1.00, 122.2, 351.0)">t</text><text xml:space="preserve" font-family="HelveticaNeue-Medium" font-size="26.0" fill="#EAEAEA" transform="matrix(1.00, 0.00, -0.00, -1.00, 130.9, 351.0)"> </text><text xml:space="preserve" font-family="HelveticaNeue-Medium" font-size="26.0" fill="#EAEAEA" transform="matrix(1.00, 0.00, -0.00, -1.00, 138.1, 351.0)"> </text><image xlink:href="../../A2BBAA74-D37A-4870-88D2-935464DD7FE8/assets/7A216DAA72ED39E5FCDD5D53408F7F71.png" width="14.00" height="13.00" transform="matrix(1.00, 0.00, -0.00, -1.00, 87.0, 300.0)"></image><text xml:space="preserve" font-family="HelveticaNeue-Medium" font-size="19.5" fill="#EAEAEA" transform="matrix(1.00, 0.00, -0.00, -1.00, 89.3, 288.6)">•</text><image xlink:href="../../A2BBAA74-D37A-4870-88D2-935464DD7FE8/assets/12816591B3EC79294871562450679847.png" width="274.00" height="26.00" transform="matrix(1.00, 0.00, -0.00, -1.00, 111.0, 306.0)"></image><text xml:space="preserve" font-family="HelveticaNeue-Medium" font-size="26.0" fill="#EAEAEA" transform="matrix(1.00, 0.00, -0.00, -1.00, 115.0, 286.0)">A</text><text xml:space="preserve" font-family="HelveticaNeue-Medium" font-size="26.0" fill="#EAEAEA" transform="matrix(1.00, 0.00, -0.00, -1.00, 132.3, 286.0)">l</text><text xml:space="preserve" font-family="HelveticaNeue-Medium" font-size="26.0" fill="#EAEAEA" transform="matrix(1.00, 0.00, -0.00, -1.00, 138.6, 286.0)">l</text><text xml:space="preserve" font-family="HelveticaNeue-Medium" font-size="26.0" fill="#EAEAEA" transform="matrix(1.00, 0.00, -0.00, -1.00, 144.9, 286.0)"> </text><text xml:space="preserve" font-family="HelveticaNeue-Medium" font-size="26.0" fill="#EAEAEA" transform="matrix(1.00, 0.00, -0.00, -1.00, 152.1, 286.0)">o</text><text xml:space="preserve" font-family="HelveticaNeue-Medium" font-size="26.0" fill="#EAEAEA" transform="matrix(1.00, 0.00, -0.00, -1.00, 167.5, 286.0)">n</text><text xml:space="preserve" font-family="HelveticaNeue-Medium" font-size="26.0" fill="#EAEAEA" transform="matrix(1.00, 0.00, -0.00, -1.00, 182.4, 286.0)"> </text><text xml:space="preserve" font-family="HelveticaNeue-Medium" font-size="26.0" fill="#EAEAEA" transform="matrix(1.00, 0.00, -0.00, -1.00, 189.7, 286.0)">o</text><text xml:space="preserve" font-family="HelveticaNeue-Medium" font-size="26.0" fill="#EAEAEA" transform="matrix(1.00, 0.00, -0.00, -1.00, 205.1, 286.0)">n</text><text xml:space="preserve" font-family="HelveticaNeue-Medium" font-size="26.0" fill="#EAEAEA" transform="matrix(1.00, 0.00, -0.00, -1.00, 220.0, 286.0)">e</text><text xml:space="preserve" font-family="HelveticaNeue-Medium" font-size="26.0" fill="#EAEAEA" transform="matrix(1.00, 0.00, -0.00, -1.00, 234.5, 286.0)"> </text><text xml:space="preserve" font-family="HelveticaNeue-Medium" font-size="26.0" fill="#EAEAEA" transform="matrix(1.00, 0.00, -0.00, -1.00, 241.7, 286.0)">l</text><text xml:space="preserve" font-family="HelveticaNeue-Medium" font-size="26.0" fill="#EAEAEA" transform="matrix(1.00, 0.00, -0.00, -1.00, 248.0, 286.0)">i</text><text xml:space="preserve" font-family="HelveticaNeue-Medium" font-size="26.0" fill="#EAEAEA" transform="matrix(1.00, 0.00, -0.00, -1.00, 254.2, 286.0)">n</text><text xml:space="preserve" font-family="HelveticaNeue-Medium" font-size="26.0" fill="#EAEAEA" transform="matrix(1.00, 0.00, -0.00, -1.00, 269.2, 286.0)">e</text><text xml:space="preserve" font-family="HelveticaNeue-Medium" font-size="26.0" fill="#EAEAEA" transform="matrix(1.00, 0.00, -0.00, -1.00, 283.6, 286.0)"> </text><text xml:space="preserve" font-family="HelveticaNeue-Medium" font-size="26.0" fill="#EAEAEA" transform="matrix(1.00, 0.00, -0.00, -1.00, 290.8, 286.0)">o</text><text xml:space="preserve" font-family="HelveticaNeue-Medium" font-size="26.0" fill="#EAEAEA" transform="matrix(1.00, 0.00, -0.00, -1.00, 306.3, 286.0)">f</text><text xml:space="preserve" font-family="HelveticaNeue-Medium" font-size="26.0" fill="#EAEAEA" transform="matrix(1.00, 0.00, -0.00, -1.00, 314.4, 286.0)"> </text><text xml:space="preserve" font-family="HelveticaNeue-Medium" font-size="26.0" fill="#EAEAEA" transform="matrix(1.00, 0.00, -0.00, -1.00, 321.7, 286.0)">c</text><text xml:space="preserve" font-family="HelveticaNeue-Medium" font-size="26.0" fill="#EAEAEA" transform="matrix(1.00, 0.00, -0.00, -1.00, 336.1, 286.0)">o</text><text xml:space="preserve" font-family="HelveticaNeue-Medium" font-size="26.0" fill="#EAEAEA" transform="matrix(1.00, 0.00, -0.00, -1.00, 351.5, 286.0)">d</text><text xml:space="preserve" font-family="HelveticaNeue-Medium" font-size="26.0" fill="#EAEAEA" transform="matrix(1.00, 0.00, -0.00, -1.00, 367.4, 286.0)">e</text><text xml:space="preserve" font-family="HelveticaNeue-Medium" font-size="26.0" fill="#EAEAEA" transform="matrix(1.00, 0.00, -0.00, -1.00, 381.9, 286.0)"> </text><image xlink:href="../../A2BBAA74-D37A-4870-88D2-935464DD7FE8/assets/7A216DAA72ED39E5FCDD5D53408F7F71.png" width="14.00" height="13.00" transform="matrix(1.00, 0.00, -0.00, -1.00, 87.0, 235.0)"></image><text xml:space="preserve" font-family="HelveticaNeue-Medium" font-size="19.5" fill="#EAEAEA" transform="matrix(1.00, 0.00, -0.00, -1.00, 89.3, 223.6)">•</text><image xlink:href="../../A2BBAA74-D37A-4870-88D2-935464DD7FE8/assets/DEC8D53046010C917F067345E8EF6916.png" width="218.00" height="31.00" transform="matrix(1.00, 0.00, -0.00, -1.00, 112.0, 241.0)"></image><text xml:space="preserve" font-family="HelveticaNeue-Medium" font-size="26.0" fill="#EAEAEA" transform="matrix(1.00, 0.00, -0.00, -1.00, 115.0, 221.0)">W</text><text xml:space="preserve" font-family="HelveticaNeue-Medium" font-size="26.0" fill="#EAEAEA" transform="matrix(1.00, 0.00, -0.00, -1.00, 139.5, 221.0)">i</text><text xml:space="preserve" font-family="HelveticaNeue-Medium" font-size="26.0" fill="#EAEAEA" transform="matrix(1.00, 0.00, -0.00, -1.00, 145.8, 221.0)">t</text><text xml:space="preserve" font-family="HelveticaNeue-Medium" font-size="26.0" fill="#EAEAEA" transform="matrix(1.00, 0.00, -0.00, -1.00, 154.5, 221.0)">h</text><text xml:space="preserve" font-family="HelveticaNeue-Medium" font-size="26.0" fill="#EAEAEA" transform="matrix(1.00, 0.00, -0.00, -1.00, 169.4, 221.0)"> </text><text xml:space="preserve" font-family="HelveticaNeue-Medium" font-size="26.0" fill="#EAEAEA" transform="matrix(1.00, 0.00, -0.00, -1.00, 176.6, 221.0)">n</text><text xml:space="preserve" font-family="HelveticaNeue-Medium" font-size="26.0" fill="#EAEAEA" transform="matrix(1.00, 0.00, -0.00, -1.00, 191.5, 221.0)">o</text><text xml:space="preserve" font-family="HelveticaNeue-Medium" font-size="26.0" fill="#EAEAEA" transform="matrix(1.00, 0.00, -0.00, -1.00, 207.0, 221.0)"> </text><text xml:space="preserve" font-family="HelveticaNeue-Medium" font-size="26.0" fill="#EAEAEA" transform="matrix(1.00, 0.00, -0.00, -1.00, 214.2, 221.0)">d</text><text xml:space="preserve" font-family="HelveticaNeue-Medium" font-size="26.0" fill="#EAEAEA" transform="matrix(1.00, 0.00, -0.00, -1.00, 230.1, 221.0)">o</text><text xml:space="preserve" font-family="HelveticaNeue-Medium" font-size="26.0" fill="#EAEAEA" transform="matrix(1.00, 0.00, -0.00, -1.00, 245.5, 221.0)">c</text><text xml:space="preserve" font-family="HelveticaNeue-Medium" font-size="26.0" fill="#EAEAEA" transform="matrix(1.00, 0.00, -0.00, -1.00, 259.9, 221.0)">s</text><text xml:space="preserve" font-family="HelveticaNeue-Medium" font-size="26.0" fill="#EAEAEA" transform="matrix(1.00, 0.00, -0.00, -1.00, 273.4, 221.0)">t</text><text xml:space="preserve" font-family="HelveticaNeue-Medium" font-size="26.0" fill="#EAEAEA" transform="matrix(1.00, 0.00, -0.00, -1.00, 282.1, 221.0)">r</text><text xml:space="preserve" font-family="HelveticaNeue-Medium" font-size="26.0" fill="#EAEAEA" transform="matrix(1.00, 0.00, -0.00, -1.00, 291.3, 221.0)">i</text><text xml:space="preserve" font-family="HelveticaNeue-Medium" font-size="26.0" fill="#EAEAEA" transform="matrix(1.00, 0.00, -0.00, -1.00, 297.5, 221.0)">n</text><text xml:space="preserve" font-family="HelveticaNeue-Medium" font-size="26.0" fill="#EAEAEA" transform="matrix(1.00, 0.00, -0.00, -1.00, 312.4, 221.0)">g</text><text xml:space="preserve" font-family="HelveticaNeue-Medium" font-size="26.0" fill="#EAEAEA" transform="matrix(1.00, 0.00, -0.00, -1.00, 327.9, 221.0)"> </text><image xlink:href="../../A2BBAA74-D37A-4870-88D2-935464DD7FE8/assets/6E2DCBD64B7341781D951B91EED7F072.png" width="14.00" height="13.00" transform="matrix(1.00, 0.00, -0.00, -1.00, 112.0, 170.0)"></image><text xml:space="preserve" font-family="HelveticaNeue-Medium" font-size="19.5" fill="#EAEAEA" transform="matrix(1.00, 0.00, -0.00, -1.00, 114.6, 158.6)">•</text><image xlink:href="../../A2BBAA74-D37A-4870-88D2-935464DD7FE8/assets/12E3518CE428543EC1447A39569DA38E.png" width="390.00" height="31.00" transform="matrix(1.00, 0.00, -0.00, -1.00, 138.0, 176.0)"></image><text xml:space="preserve" font-family="HelveticaNeue-Medium" font-size="26.0" fill="#EAEAEA" transform="matrix(1.00, 0.00, -0.00, -1.00, 140.0, 156.0)">N</text><text xml:space="preserve" font-family="HelveticaNeue-Medium" font-size="26.0" fill="#EAEAEA" transform="matrix(1.00, 0.00, -0.00, -1.00, 158.8, 156.0)">o</text><text xml:space="preserve" font-family="HelveticaNeue-Medium" font-size="26.0" fill="#EAEAEA" transform="matrix(1.00, 0.00, -0.00, -1.00, 174.2, 156.0)">r</text><text xml:space="preserve" font-family="HelveticaNeue-Medium" font-size="26.0" fill="#EAEAEA" transform="matrix(1.00, 0.00, -0.00, -1.00, 183.3, 156.0)"> </text><text xml:space="preserve" font-family="HelveticaNeue-Medium" font-size="26.0" fill="#EAEAEA" transform="matrix(1.00, 0.00, -0.00, -1.00, 190.6, 156.0)">a</text><text xml:space="preserve" font-family="HelveticaNeue-Medium" font-size="26.0" fill="#EAEAEA" transform="matrix(1.00, 0.00, -0.00, -1.00, 205.0, 156.0)">n</text><text xml:space="preserve" font-family="HelveticaNeue-Medium" font-size="26.0" fill="#EAEAEA" transform="matrix(1.00, 0.00, -0.00, -1.00, 219.9, 156.0)">y</text><text xml:space="preserve" font-family="HelveticaNeue-Medium" font-size="26.0" fill="#EAEAEA" transform="matrix(1.00, 0.00, -0.00, -1.00, 233.4, 156.0)"> </text><text xml:space="preserve" font-family="HelveticaNeue-Medium" font-size="26.0" fill="#EAEAEA" transform="matrix(1.00, 0.00, -0.00, -1.00, 240.7, 156.0)">d</text><text xml:space="preserve" font-family="HelveticaNeue-Medium" font-size="26.0" fill="#EAEAEA" transform="matrix(1.00, 0.00, -0.00, -1.00, 256.6, 156.0)">o</text><text xml:space="preserve" font-family="HelveticaNeue-Medium" font-size="26.0" fill="#EAEAEA" transform="matrix(1.00, 0.00, -0.00, -1.00, 272.0, 156.0)">c</text><text xml:space="preserve" font-family="HelveticaNeue-Medium" font-size="26.0" fill="#EAEAEA" transform="matrix(1.00, 0.00, -0.00, -1.00, 286.4, 156.0)">t</text><text xml:space="preserve" font-family="HelveticaNeue-Medium" font-size="26.0" fill="#EAEAEA" transform="matrix(1.00, 0.00, -0.00, -1.00, 295.1, 156.0)">e</text><text xml:space="preserve" font-family="HelveticaNeue-Medium" font-size="26.0" fill="#EAEAEA" transform="matrix(1.00, 0.00, -0.00, -1.00, 309.5, 156.0)">s</text><text xml:space="preserve" font-family="HelveticaNeue-Medium" font-size="26.0" fill="#EAEAEA" transform="matrix(1.00, 0.00, -0.00, -1.00, 323.0, 156.0)">t</text><text xml:space="preserve" font-family="HelveticaNeue-Medium" font-size="26.0" fill="#EAEAEA" transform="matrix(1.00, 0.00, -0.00, -1.00, 331.7, 156.0)"> </text><text xml:space="preserve" font-family="HelveticaNeue-Medium" font-size="26.0" fill="#EAEAEA" transform="matrix(1.00, 0.00, -0.00, -1.00, 338.9, 156.0)">i</text><text xml:space="preserve" font-family="HelveticaNeue-Medium" font-size="26.0" fill="#EAEAEA" transform="matrix(1.00, 0.00, -0.00, -1.00, 345.2, 156.0)">n</text><text xml:space="preserve" font-family="HelveticaNeue-Medium" font-size="26.0" fill="#EAEAEA" transform="matrix(1.00, 0.00, -0.00, -1.00, 360.1, 156.0)"> </text><text xml:space="preserve" font-family="HelveticaNeue-Medium" font-size="26.0" fill="#EAEAEA" transform="matrix(1.00, 0.00, -0.00, -1.00, 367.3, 156.0)">t</text><text xml:space="preserve" font-family="HelveticaNeue-Medium" font-size="26.0" fill="#EAEAEA" transform="matrix(1.00, 0.00, -0.00, -1.00, 376.0, 156.0)">h</text><text xml:space="preserve" font-family="HelveticaNeue-Medium" font-size="26.0" fill="#EAEAEA" transform="matrix(1.00, 0.00, -0.00, -1.00, 390.9, 156.0)">e</text><text xml:space="preserve" font-family="HelveticaNeue-Medium" font-size="26.0" fill="#EAEAEA" transform="matrix(1.00, 0.00, -0.00, -1.00, 405.4, 156.0)"> </text><text xml:space="preserve" font-family="HelveticaNeue-Medium" font-size="26.0" fill="#EAEAEA" transform="matrix(1.00, 0.00, -0.00, -1.00, 412.6, 156.0)">d</text><text xml:space="preserve" font-family="HelveticaNeue-Medium" font-size="26.0" fill="#EAEAEA" transform="matrix(1.00, 0.00, -0.00, -1.00, 428.5, 156.0)">o</text><text xml:space="preserve" font-family="HelveticaNeue-Medium" font-size="26.0" fill="#EAEAEA" transform="matrix(1.00, 0.00, -0.00, -1.00, 443.9, 156.0)">c</text><text xml:space="preserve" font-family="HelveticaNeue-Medium" font-size="26.0" fill="#EAEAEA" transform="matrix(1.00, 0.00, -0.00, -1.00, 458.4, 156.0)">s</text><text xml:space="preserve" font-family="HelveticaNeue-Medium" font-size="26.0" fill="#EAEAEA" transform="matrix(1.00, 0.00, -0.00, -1.00, 471.9, 156.0)">t</text><text xml:space="preserve" font-family="HelveticaNeue-Medium" font-size="26.0" fill="#EAEAEA" transform="matrix(1.00, 0.00, -0.00, -1.00, 480.5, 156.0)">r</text><text xml:space="preserve" font-family="HelveticaNeue-Medium" font-size="26.0" fill="#EAEAEA" transform="matrix(1.00, 0.00, -0.00, -1.00, 489.7, 156.0)">i</text><text xml:space="preserve" font-family="HelveticaNeue-Medium" font-size="26.0" fill="#EAEAEA" transform="matrix(1.00, 0.00, -0.00, -1.00, 495.9, 156.0)">n</text><text xml:space="preserve" font-family="HelveticaNeue-Medium" font-size="26.0" fill="#EAEAEA" transform="matrix(1.00, 0.00, -0.00, -1.00, 510.9, 156.0)">g</text><text xml:space="preserve" font-family="HelveticaNeue-Medium" font-size="26.0" fill="#EAEAEA" transform="matrix(1.00, 0.00, -0.00, -1.00, 526.3, 156.0)"> </text><image xlink:href="../../A2BBAA74-D37A-4870-88D2-935464DD7FE8/assets/7A216DAA72ED39E5FCDD5D53408F7F71.png" width="14.00" height="13.00" transform="matrix(1.00, 0.00, -0.00, -1.00, 87.0, 105.0)"></image><text xml:space="preserve" font-family="HelveticaNeue-Medium" font-size="19.5" fill="#EAEAEA" transform="matrix(1.00, 0.00, -0.00, -1.00, 89.3, 93.6)">•</text><image xlink:href="../../A2BBAA74-D37A-4870-88D2-935464DD7FE8/assets/C565EA9204FE080BAA775F357DD70504.png" width="451.00" height="31.00" transform="matrix(1.00, 0.00, -0.00, -1.00, 112.0, 111.0)"></image><text xml:space="preserve" font-family="HelveticaNeue-Medium" font-size="26.0" fill="#EAEAEA" transform="matrix(1.00, 0.00, -0.00, -1.00, 115.0, 91.0)">W</text><text xml:space="preserve" font-family="HelveticaNeue-Medium" font-size="26.0" fill="#EAEAEA" transform="matrix(1.00, 0.00, -0.00, -1.00, 139.1, 91.0)">e</text><text xml:space="preserve" font-family="HelveticaNeue-Medium" font-size="26.0" fill="#EAEAEA" transform="matrix(1.00, 0.00, -0.00, -1.00, 153.5, 91.0)"> </text><text xml:space="preserve" font-family="HelveticaNeue-Medium" font-size="26.0" fill="#EAEAEA" transform="matrix(1.00, 0.00, -0.00, -1.00, 160.8, 91.0)">c</text><text xml:space="preserve" font-family="HelveticaNeue-Medium" font-size="26.0" fill="#EAEAEA" transform="matrix(1.00, 0.00, -0.00, -1.00, 175.2, 91.0)">a</text><text xml:space="preserve" font-family="HelveticaNeue-Medium" font-size="26.0" fill="#EAEAEA" transform="matrix(1.00, 0.00, -0.00, -1.00, 189.7, 91.0)">n</text><text xml:space="preserve" font-family="HelveticaNeue-Medium" font-size="26.0" fill="#EAEAEA" transform="matrix(1.00, 0.00, -0.00, -1.00, 204.6, 91.0)">’</text><text xml:space="preserve" font-family="HelveticaNeue-Medium" font-size="26.0" fill="#EAEAEA" transform="matrix(1.00, 0.00, -0.00, -1.00, 211.4, 91.0)">t</text><text xml:space="preserve" font-family="HelveticaNeue-Medium" font-size="26.0" fill="#EAEAEA" transform="matrix(1.00, 0.00, -0.00, -1.00, 220.0, 91.0)"> </text><text xml:space="preserve" font-family="HelveticaNeue-Medium" font-size="26.0" fill="#EAEAEA" transform="matrix(1.00, 0.00, -0.00, -1.00, 227.2, 91.0)">e</text><text xml:space="preserve" font-family="HelveticaNeue-Medium" font-size="26.0" fill="#EAEAEA" transform="matrix(1.00, 0.00, -0.00, -1.00, 241.7, 91.0)">a</text><text xml:space="preserve" font-family="HelveticaNeue-Medium" font-size="26.0" fill="#EAEAEA" transform="matrix(1.00, 0.00, -0.00, -1.00, 256.2, 91.0)">s</text><text xml:space="preserve" font-family="HelveticaNeue-Medium" font-size="26.0" fill="#EAEAEA" transform="matrix(1.00, 0.00, -0.00, -1.00, 269.6, 91.0)">i</text><text xml:space="preserve" font-family="HelveticaNeue-Medium" font-size="26.0" fill="#EAEAEA" transform="matrix(1.00, 0.00, -0.00, -1.00, 275.9, 91.0)">l</text><text xml:space="preserve" font-family="HelveticaNeue-Medium" font-size="26.0" fill="#EAEAEA" transform="matrix(1.00, 0.00, -0.00, -1.00, 282.2, 91.0)">y</text><text xml:space="preserve" font-family="HelveticaNeue-Medium" font-size="26.0" fill="#EAEAEA" transform="matrix(1.00, 0.00, -0.00, -1.00, 295.7, 91.0)"> </text><text xml:space="preserve" font-family="HelveticaNeue-Medium" font-size="26.0" fill="#EAEAEA" transform="matrix(1.00, 0.00, -0.00, -1.00, 302.9, 91.0)">a</text><text xml:space="preserve" font-family="HelveticaNeue-Medium" font-size="26.0" fill="#EAEAEA" transform="matrix(1.00, 0.00, -0.00, -1.00, 317.4, 91.0)">p</text><text xml:space="preserve" font-family="HelveticaNeue-Medium" font-size="26.0" fill="#EAEAEA" transform="matrix(1.00, 0.00, -0.00, -1.00, 333.2, 91.0)">p</text><text xml:space="preserve" font-family="HelveticaNeue-Medium" font-size="26.0" fill="#EAEAEA" transform="matrix(1.00, 0.00, -0.00, -1.00, 349.1, 91.0)">l</text><text xml:space="preserve" font-family="HelveticaNeue-Medium" font-size="26.0" fill="#EAEAEA" transform="matrix(1.00, 0.00, -0.00, -1.00, 355.4, 91.0)">y</text><text xml:space="preserve" font-family="HelveticaNeue-Medium" font-size="26.0" fill="#EAEAEA" transform="matrix(1.00, 0.00, -0.00, -1.00, 368.9, 91.0)"> </text><text xml:space="preserve" font-family="HelveticaNeue-Medium" font-size="26.0" fill="#EAEAEA" transform="matrix(1.00, 0.00, -0.00, -1.00, 376.1, 91.0)">d</text><text xml:space="preserve" font-family="HelveticaNeue-Medium" font-size="26.0" fill="#EAEAEA" transform="matrix(1.00, 0.00, -0.00, -1.00, 392.0, 91.0)">e</text><text xml:space="preserve" font-family="HelveticaNeue-Medium" font-size="26.0" fill="#EAEAEA" transform="matrix(1.00, 0.00, -0.00, -1.00, 406.5, 91.0)">c</text><text xml:space="preserve" font-family="HelveticaNeue-Medium" font-size="26.0" fill="#EAEAEA" transform="matrix(1.00, 0.00, -0.00, -1.00, 420.9, 91.0)">o</text><text xml:space="preserve" font-family="HelveticaNeue-Medium" font-size="26.0" fill="#EAEAEA" transform="matrix(1.00, 0.00, -0.00, -1.00, 436.3, 91.0)">r</text><text xml:space="preserve" font-family="HelveticaNeue-Medium" font-size="26.0" fill="#EAEAEA" transform="matrix(1.00, 0.00, -0.00, -1.00, 445.5, 91.0)">a</text><text xml:space="preserve" font-family="HelveticaNeue-Medium" font-size="26.0" fill="#EAEAEA" transform="matrix(1.00, 0.00, -0.00, -1.00, 459.9, 91.0)">t</text><text xml:space="preserve" font-family="HelveticaNeue-Medium" font-size="26.0" fill="#EAEAEA" transform="matrix(1.00, 0.00, -0.00, -1.00, 468.6, 91.0)">o</text><text xml:space="preserve" font-family="HelveticaNeue-Medium" font-size="26.0" fill="#EAEAEA" transform="matrix(1.00, 0.00, -0.00, -1.00, 484.0, 91.0)">r</text><text xml:space="preserve" font-family="HelveticaNeue-Medium" font-size="26.0" fill="#EAEAEA" transform="matrix(1.00, 0.00, -0.00, -1.00, 493.2, 91.0)">s</text><text xml:space="preserve" font-family="HelveticaNeue-Medium" font-size="26.0" fill="#EAEAEA" transform="matrix(1.00, 0.00, -0.00, -1.00, 506.7, 91.0)"> </text><text xml:space="preserve" font-family="HelveticaNeue-Medium" font-size="26.0" fill="#EAEAEA" transform="matrix(1.00, 0.00, -0.00, -1.00, 513.9, 91.0)">t</text><text xml:space="preserve" font-family="HelveticaNeue-Medium" font-size="26.0" fill="#EAEAEA" transform="matrix(1.00, 0.00, -0.00, -1.00, 522.5, 91.0)">o</text><text xml:space="preserve" font-family="HelveticaNeue-Medium" font-size="26.0" fill="#EAEAEA" transform="matrix(1.00, 0.00, -0.00, -1.00, 538.0, 91.0)"> </text><text xml:space="preserve" font-family="HelveticaNeue-Medium" font-size="26.0" fill="#EAEAEA" transform="matrix(1.00, 0.00, -0.00, -1.00, 545.2, 91.0)">i</text><text xml:space="preserve" font-family="HelveticaNeue-Medium" font-size="26.0" fill="#EAEAEA" transform="matrix(1.00, 0.00, -0.00, -1.00, 551.5, 91.0)">t</text></g></svg>