<?xml version="1.0" encoding="UTF-8" standalone="no"?><svg xmlns="http://www.w3.org/2000/svg" xmlns:xlink="http://www.w3.org/1999/xlink" clip-rule="evenodd" stroke-miterlimit="4.00" viewBox="0 0 1024 768"><desc>SVG generated by Keynote</desc><defs></defs><g transform="matrix(1.00, 0.00, -0.00, -1.00, 0.0, 768.0)"><g><clipPath id="clip-2"><path d="M 0.0 768.0 L 1024.0 768.0 L 1024.0 0.0 L 0.0 0.0 Z M 0.0 768.0 "></path></clipPath><g clip-path="url(#clip-2)"><image xlink:href="../../363ACDF5-F69A-4348-A617-267FC1DCB792/assets/2CA05975C404A6B79EB2D17D5C3EEC1C.jpeg" width="1024.00" height="768.00" transform="matrix(1.00, 0.00, -0.00, -1.00, 0.0, 768.0)"></image></g></g><image xlink:href="D6FF012BC19754FCB5A3DC47A6DAF21D.png" width="197.00" height="55.00" transform="matrix(1.00, 0.00, -0.00, -1.00, 415.0, 692.0)"></image><text xml:space="preserve" font-family="HelveticaNeue-Bold" font-weight="bold" font-size="64.0" fill="#FEFFFE" transform="matrix(1.00, 0.00, -0.00, -1.00, 415.0, 644.0)">B</text><text xml:space="preserve" font-family="HelveticaNeue-Bold" font-weight="bold" font-size="64.0" fill="#FEFFFE" transform="matrix(1.00, 0.00, -0.00, -1.00, 460.1, 644.0)">o</text><text xml:space="preserve" font-family="HelveticaNeue-Bold" font-weight="bold" font-size="64.0" fill="#FEFFFE" transform="matrix(1.00, 0.00, -0.00, -1.00, 499.2, 644.0)">o</text><text xml:space="preserve" font-family="HelveticaNeue-Bold" font-weight="bold" font-size="64.0" fill="#FEFFFE" transform="matrix(1.00, 0.00, -0.00, -1.00, 538.3, 644.0)">k</text><text xml:space="preserve" font-family="HelveticaNeue-Bold" font-weight="bold" font-size="64.0" fill="#FEFFFE" transform="matrix(1.00, 0.00, -0.00, -1.00, 575.0, 644.0)">s</text><image xlink:href="7AC7675442C37451EC00DCA9ADA7780C.png" width="17.00" height="18.00" transform="matrix(1.00, 0.00, -0.00, -1.00, 61.0, 561.0)"></image><text xml:space="preserve" font-family="HelveticaNeue-Medium" font-size="22.9" fill="#EAEAEA" transform="matrix(1.00, 0.00, -0.00, -1.00, 64.0, 545.8)">•</text><image xlink:href="73D1DA9C9E39A760E3AB404D3B65E17B.png" width="490.00" height="38.00" transform="matrix(1.00, 0.00, -0.00, -1.00, 91.0, 568.0)"></image><text xml:space="preserve" font-family="HelveticaNeue-Medium" font-size="30.6" fill="#EAEAEA" transform="matrix(1.00, 0.00, -0.00, -1.00, 93.0, 543.0)">M</text><text xml:space="preserve" font-family="HelveticaNeue-Medium" font-size="30.6" fill="#EAEAEA" transform="matrix(1.00, 0.00, -0.00, -1.00, 120.2, 543.0)">a</text><text xml:space="preserve" font-family="HelveticaNeue-Medium" font-size="30.6" fill="#EAEAEA" transform="matrix(1.00, 0.00, -0.00, -1.00, 137.2, 543.0)">s</text><text xml:space="preserve" font-family="HelveticaNeue-Medium" font-size="30.6" fill="#EAEAEA" transform="matrix(1.00, 0.00, -0.00, -1.00, 153.1, 543.0)">t</text><text xml:space="preserve" font-family="HelveticaNeue-Medium" font-size="30.6" fill="#EAEAEA" transform="matrix(1.00, 0.00, -0.00, -1.00, 163.3, 543.0)">e</text><text xml:space="preserve" font-family="HelveticaNeue-Medium" font-size="30.6" fill="#EAEAEA" transform="matrix(1.00, 0.00, -0.00, -1.00, 180.3, 543.0)">r</text><text xml:space="preserve" font-family="HelveticaNeue-Medium" font-size="30.6" fill="#EAEAEA" transform="matrix(1.00, 0.00, -0.00, -1.00, 191.1, 543.0)">i</text><text xml:space="preserve" font-family="HelveticaNeue-Medium" font-size="30.6" fill="#EAEAEA" transform="matrix(1.00, 0.00, -0.00, -1.00, 198.4, 543.0)">n</text><text xml:space="preserve" font-family="HelveticaNeue-Medium" font-size="30.6" fill="#EAEAEA" transform="matrix(1.00, 0.00, -0.00, -1.00, 216.0, 543.0)">g</text><text xml:space="preserve" font-family="HelveticaNeue-Medium" font-size="30.6" fill="#EAEAEA" transform="matrix(1.00, 0.00, -0.00, -1.00, 234.2, 543.0)"> </text><text xml:space="preserve" font-family="HelveticaNeue-Medium" font-size="30.6" fill="#EAEAEA" transform="matrix(1.00, 0.00, -0.00, -1.00, 242.7, 543.0)">O</text><text xml:space="preserve" font-family="HelveticaNeue-Medium" font-size="30.6" fill="#EAEAEA" transform="matrix(1.00, 0.00, -0.00, -1.00, 265.9, 543.0)">b</text><text xml:space="preserve" font-family="HelveticaNeue-Medium" font-size="30.6" fill="#EAEAEA" transform="matrix(1.00, 0.00, -0.00, -1.00, 284.6, 543.0)">j</text><text xml:space="preserve" font-family="HelveticaNeue-Medium" font-size="30.6" fill="#EAEAEA" transform="matrix(1.00, 0.00, -0.00, -1.00, 292.0, 543.0)">e</text><text xml:space="preserve" font-family="HelveticaNeue-Medium" font-size="30.6" fill="#EAEAEA" transform="matrix(1.00, 0.00, -0.00, -1.00, 309.0, 543.0)">c</text><text xml:space="preserve" font-family="HelveticaNeue-Medium" font-size="30.6" fill="#EAEAEA" transform="matrix(1.00, 0.00, -0.00, -1.00, 326.0, 543.0)">t</text><text xml:space="preserve" font-family="HelveticaNeue-Medium" font-size="30.6" fill="#EAEAEA" transform="matrix(1.00, 0.00, -0.00, -1.00, 336.2, 543.0)">-</text><text xml:space="preserve" font-family="HelveticaNeue-Medium" font-size="30.6" fill="#EAEAEA" transform="matrix(1.00, 0.00, -0.00, -1.00, 348.1, 543.0)">O</text><text xml:space="preserve" font-family="HelveticaNeue-Medium" font-size="30.6" fill="#EAEAEA" transform="matrix(1.00, 0.00, -0.00, -1.00, 371.4, 543.0)">r</text><text xml:space="preserve" font-family="HelveticaNeue-Medium" font-size="30.6" fill="#EAEAEA" transform="matrix(1.00, 0.00, -0.00, -1.00, 382.1, 543.0)">i</text><text xml:space="preserve" font-family="HelveticaNeue-Medium" font-size="30.6" fill="#EAEAEA" transform="matrix(1.00, 0.00, -0.00, -1.00, 389.5, 543.0)">e</text><text xml:space="preserve" font-family="HelveticaNeue-Medium" font-size="30.6" fill="#EAEAEA" transform="matrix(1.00, 0.00, -0.00, -1.00, 406.5, 543.0)">n</text><text xml:space="preserve" font-family="HelveticaNeue-Medium" font-size="30.6" fill="#EAEAEA" transform="matrix(1.00, 0.00, -0.00, -1.00, 424.1, 543.0)">t</text><text xml:space="preserve" font-family="HelveticaNeue-Medium" font-size="30.6" fill="#EAEAEA" transform="matrix(1.00, 0.00, -0.00, -1.00, 434.3, 543.0)">e</text><text xml:space="preserve" font-family="HelveticaNeue-Medium" font-size="30.6" fill="#EAEAEA" transform="matrix(1.00, 0.00, -0.00, -1.00, 451.3, 543.0)">d</text><text xml:space="preserve" font-family="HelveticaNeue-Medium" font-size="30.6" fill="#EAEAEA" transform="matrix(1.00, 0.00, -0.00, -1.00, 470.0, 543.0)"> </text><text xml:space="preserve" font-family="HelveticaNeue-Medium" font-size="30.6" fill="#EAEAEA" transform="matrix(1.00, 0.00, -0.00, -1.00, 478.5, 543.0)">P</text><text xml:space="preserve" font-family="HelveticaNeue-Medium" font-size="30.6" fill="#EAEAEA" transform="matrix(1.00, 0.00, -0.00, -1.00, 498.9, 543.0)">y</text><text xml:space="preserve" font-family="HelveticaNeue-Medium" font-size="30.6" fill="#EAEAEA" transform="matrix(1.00, 0.00, -0.00, -1.00, 514.8, 543.0)">t</text><text xml:space="preserve" font-family="HelveticaNeue-Medium" font-size="30.6" fill="#EAEAEA" transform="matrix(1.00, 0.00, -0.00, -1.00, 525.0, 543.0)">h</text><text xml:space="preserve" font-family="HelveticaNeue-Medium" font-size="30.6" fill="#EAEAEA" transform="matrix(1.00, 0.00, -0.00, -1.00, 542.5, 543.0)">o</text><text xml:space="preserve" font-family="HelveticaNeue-Medium" font-size="30.6" fill="#EAEAEA" transform="matrix(1.00, 0.00, -0.00, -1.00, 560.7, 543.0)">n</text><text xml:space="preserve" font-family="HelveticaNeue-Medium" font-size="30.6" fill="#EAEAEA" transform="matrix(1.00, 0.00, -0.00, -1.00, 578.3, 543.0)"> </text><image xlink:href="3E3B313EB42B8C1F9FD513694AB65154.png" width="17.00" height="17.00" transform="matrix(1.00, 0.00, -0.00, -1.00, 61.0, 485.0)"></image><text xml:space="preserve" font-family="HelveticaNeue-Medium" font-size="22.9" fill="#EAEAEA" transform="matrix(1.00, 0.00, -0.00, -1.00, 64.0, 470.0)">•</text><image xlink:href="5472587FCFC8AF00B7C618E1341D1919.png" width="257.00" height="37.00" transform="matrix(1.00, 0.00, -0.00, -1.00, 91.0, 491.0)"></image><text xml:space="preserve" font-family="HelveticaNeue-Medium" font-size="30.6" fill="#EAEAEA" transform="matrix(1.00, 0.00, -0.00, -1.00, 93.0, 467.0)">P</text><text xml:space="preserve" font-family="HelveticaNeue-Medium" font-size="30.6" fill="#EAEAEA" transform="matrix(1.00, 0.00, -0.00, -1.00, 113.4, 467.0)">y</text><text xml:space="preserve" font-family="HelveticaNeue-Medium" font-size="30.6" fill="#EAEAEA" transform="matrix(1.00, 0.00, -0.00, -1.00, 129.3, 467.0)">t</text><text xml:space="preserve" font-family="HelveticaNeue-Medium" font-size="30.6" fill="#EAEAEA" transform="matrix(1.00, 0.00, -0.00, -1.00, 139.5, 467.0)">h</text><text xml:space="preserve" font-family="HelveticaNeue-Medium" font-size="30.6" fill="#EAEAEA" transform="matrix(1.00, 0.00, -0.00, -1.00, 157.0, 467.0)">o</text><text xml:space="preserve" font-family="HelveticaNeue-Medium" font-size="30.6" fill="#EAEAEA" transform="matrix(1.00, 0.00, -0.00, -1.00, 175.2, 467.0)">n</text><text xml:space="preserve" font-family="HelveticaNeue-Medium" font-size="30.6" fill="#EAEAEA" transform="matrix(1.00, 0.00, -0.00, -1.00, 192.8, 467.0)"> </text><text xml:space="preserve" font-family="HelveticaNeue-Medium" font-size="30.6" fill="#EAEAEA" transform="matrix(1.00, 0.00, -0.00, -1.00, 201.3, 467.0)">E</text><text xml:space="preserve" font-family="HelveticaNeue-Medium" font-size="30.6" fill="#EAEAEA" transform="matrix(1.00, 0.00, -0.00, -1.00, 220.5, 467.0)">s</text><text xml:space="preserve" font-family="HelveticaNeue-Medium" font-size="30.6" fill="#EAEAEA" transform="matrix(1.00, 0.00, -0.00, -1.00, 236.4, 467.0)">s</text><text xml:space="preserve" font-family="HelveticaNeue-Medium" font-size="30.6" fill="#EAEAEA" transform="matrix(1.00, 0.00, -0.00, -1.00, 252.3, 467.0)">e</text><text xml:space="preserve" font-family="HelveticaNeue-Medium" font-size="30.6" fill="#EAEAEA" transform="matrix(1.00, 0.00, -0.00, -1.00, 269.3, 467.0)">n</text><text xml:space="preserve" font-family="HelveticaNeue-Medium" font-size="30.6" fill="#EAEAEA" transform="matrix(1.00, 0.00, -0.00, -1.00, 286.9, 467.0)">t</text><text xml:space="preserve" font-family="HelveticaNeue-Medium" font-size="30.6" fill="#EAEAEA" transform="matrix(1.00, 0.00, -0.00, -1.00, 297.1, 467.0)">i</text><text xml:space="preserve" font-family="HelveticaNeue-Medium" font-size="30.6" fill="#EAEAEA" transform="matrix(1.00, 0.00, -0.00, -1.00, 304.4, 467.0)">a</text><text xml:space="preserve" font-family="HelveticaNeue-Medium" font-size="30.6" fill="#EAEAEA" transform="matrix(1.00, 0.00, -0.00, -1.00, 321.5, 467.0)">l</text><text xml:space="preserve" font-family="HelveticaNeue-Medium" font-size="30.6" fill="#EAEAEA" transform="matrix(1.00, 0.00, -0.00, -1.00, 328.8, 467.0)">s</text><text xml:space="preserve" font-family="HelveticaNeue-Medium" font-size="30.6" fill="#EAEAEA" transform="matrix(1.00, 0.00, -0.00, -1.00, 344.7, 467.0)"> </text><image xlink:href="CB20C70EADA90375779C44F883921BB0.png" width="17.00" height="17.00" transform="matrix(1.00, 0.00, -0.00, -1.00, 61.0, 409.0)"></image><text xml:space="preserve" font-family="HelveticaNeue-Medium" font-size="22.9" fill="#EAEAEA" transform="matrix(1.00, 0.00, -0.00, -1.00, 64.0, 394.2)">•</text><image xlink:href="A61CDF8418A8E5F479066C3FE2DA3131.png" width="461.00" height="37.00" transform="matrix(1.00, 0.00, -0.00, -1.00, 91.0, 415.0)"></image><text xml:space="preserve" font-family="HelveticaNeue-Medium" font-size="30.6" fill="#EAEAEA" transform="matrix(1.00, 0.00, -0.00, -1.00, 93.0, 391.0)">F</text><text xml:space="preserve" font-family="HelveticaNeue-Medium" font-size="30.6" fill="#EAEAEA" transform="matrix(1.00, 0.00, -0.00, -1.00, 111.1, 391.0)">u</text><text xml:space="preserve" font-family="HelveticaNeue-Medium" font-size="30.6" fill="#EAEAEA" transform="matrix(1.00, 0.00, -0.00, -1.00, 128.7, 391.0)">n</text><text xml:space="preserve" font-family="HelveticaNeue-Medium" font-size="30.6" fill="#EAEAEA" transform="matrix(1.00, 0.00, -0.00, -1.00, 146.3, 391.0)">c</text><text xml:space="preserve" font-family="HelveticaNeue-Medium" font-size="30.6" fill="#EAEAEA" transform="matrix(1.00, 0.00, -0.00, -1.00, 163.3, 391.0)">t</text><text xml:space="preserve" font-family="HelveticaNeue-Medium" font-size="30.6" fill="#EAEAEA" transform="matrix(1.00, 0.00, -0.00, -1.00, 173.5, 391.0)">i</text><text xml:space="preserve" font-family="HelveticaNeue-Medium" font-size="30.6" fill="#EAEAEA" transform="matrix(1.00, 0.00, -0.00, -1.00, 180.9, 391.0)">o</text><text xml:space="preserve" font-family="HelveticaNeue-Medium" font-size="30.6" fill="#EAEAEA" transform="matrix(1.00, 0.00, -0.00, -1.00, 199.0, 391.0)">n</text><text xml:space="preserve" font-family="HelveticaNeue-Medium" font-size="30.6" fill="#EAEAEA" transform="matrix(1.00, 0.00, -0.00, -1.00, 216.6, 391.0)">a</text><text xml:space="preserve" font-family="HelveticaNeue-Medium" font-size="30.6" fill="#EAEAEA" transform="matrix(1.00, 0.00, -0.00, -1.00, 233.6, 391.0)">l</text><text xml:space="preserve" font-family="HelveticaNeue-Medium" font-size="30.6" fill="#EAEAEA" transform="matrix(1.00, 0.00, -0.00, -1.00, 241.0, 391.0)"> </text><text xml:space="preserve" font-family="HelveticaNeue-Medium" font-size="30.6" fill="#EAEAEA" transform="matrix(1.00, 0.00, -0.00, -1.00, 249.5, 391.0)">P</text><text xml:space="preserve" font-family="HelveticaNeue-Medium" font-size="30.6" fill="#EAEAEA" transform="matrix(1.00, 0.00, -0.00, -1.00, 269.9, 391.0)">y</text><text xml:space="preserve" font-family="HelveticaNeue-Medium" font-size="30.6" fill="#EAEAEA" transform="matrix(1.00, 0.00, -0.00, -1.00, 285.7, 391.0)">t</text><text xml:space="preserve" font-family="HelveticaNeue-Medium" font-size="30.6" fill="#EAEAEA" transform="matrix(1.00, 0.00, -0.00, -1.00, 295.9, 391.0)">h</text><text xml:space="preserve" font-family="HelveticaNeue-Medium" font-size="30.6" fill="#EAEAEA" transform="matrix(1.00, 0.00, -0.00, -1.00, 313.5, 391.0)">o</text><text xml:space="preserve" font-family="HelveticaNeue-Medium" font-size="30.6" fill="#EAEAEA" transform="matrix(1.00, 0.00, -0.00, -1.00, 331.6, 391.0)">n</text><text xml:space="preserve" font-family="HelveticaNeue-Medium" font-size="30.6" fill="#EAEAEA" transform="matrix(1.00, 0.00, -0.00, -1.00, 349.2, 391.0)"> </text><text xml:space="preserve" font-family="HelveticaNeue-Medium" font-size="30.6" fill="#EAEAEA" transform="matrix(1.00, 0.00, -0.00, -1.00, 357.7, 391.0)">P</text><text xml:space="preserve" font-family="HelveticaNeue-Medium" font-size="30.6" fill="#EAEAEA" transform="matrix(1.00, 0.00, -0.00, -1.00, 378.1, 391.0)">r</text><text xml:space="preserve" font-family="HelveticaNeue-Medium" font-size="30.6" fill="#EAEAEA" transform="matrix(1.00, 0.00, -0.00, -1.00, 388.4, 391.0)">o</text><text xml:space="preserve" font-family="HelveticaNeue-Medium" font-size="30.6" fill="#EAEAEA" transform="matrix(1.00, 0.00, -0.00, -1.00, 406.5, 391.0)">g</text><text xml:space="preserve" font-family="HelveticaNeue-Medium" font-size="30.6" fill="#EAEAEA" transform="matrix(1.00, 0.00, -0.00, -1.00, 424.6, 391.0)">r</text><text xml:space="preserve" font-family="HelveticaNeue-Medium" font-size="30.6" fill="#EAEAEA" transform="matrix(1.00, 0.00, -0.00, -1.00, 435.4, 391.0)">a</text><text xml:space="preserve" font-family="HelveticaNeue-Medium" font-size="30.6" fill="#EAEAEA" transform="matrix(1.00, 0.00, -0.00, -1.00, 452.4, 391.0)">m</text><text xml:space="preserve" font-family="HelveticaNeue-Medium" font-size="30.6" fill="#EAEAEA" transform="matrix(1.00, 0.00, -0.00, -1.00, 479.0, 391.0)">m</text><text xml:space="preserve" font-family="HelveticaNeue-Medium" font-size="30.6" fill="#EAEAEA" transform="matrix(1.00, 0.00, -0.00, -1.00, 505.7, 391.0)">i</text><text xml:space="preserve" font-family="HelveticaNeue-Medium" font-size="30.6" fill="#EAEAEA" transform="matrix(1.00, 0.00, -0.00, -1.00, 513.0, 391.0)">n</text><text xml:space="preserve" font-family="HelveticaNeue-Medium" font-size="30.6" fill="#EAEAEA" transform="matrix(1.00, 0.00, -0.00, -1.00, 530.6, 391.0)">g</text><text xml:space="preserve" font-family="HelveticaNeue-Medium" font-size="30.6" fill="#EAEAEA" transform="matrix(1.00, 0.00, -0.00, -1.00, 548.8, 391.0)"> </text><image xlink:href="0E4D3C428646EE2AFA3F54174FD2F14E.png" width="17.00" height="17.00" transform="matrix(1.00, 0.00, -0.00, -1.00, 61.0, 333.0)"></image><text xml:space="preserve" font-family="HelveticaNeue-Medium" font-size="22.9" fill="#EAEAEA" transform="matrix(1.00, 0.00, -0.00, -1.00, 64.0, 318.4)">•</text><image xlink:href="0EBF3C6162389932DAB755283070BDD9.png" width="360.00" height="38.00" transform="matrix(1.00, 0.00, -0.00, -1.00, 91.0, 340.0)"></image><text xml:space="preserve" font-family="HelveticaNeue-Medium" font-size="30.6" fill="#EAEAEA" transform="matrix(1.00, 0.00, -0.00, -1.00, 93.0, 315.0)">P</text><text xml:space="preserve" font-family="HelveticaNeue-Medium" font-size="30.6" fill="#EAEAEA" transform="matrix(1.00, 0.00, -0.00, -1.00, 113.4, 315.0)">y</text><text xml:space="preserve" font-family="HelveticaNeue-Medium" font-size="30.6" fill="#EAEAEA" transform="matrix(1.00, 0.00, -0.00, -1.00, 129.3, 315.0)">t</text><text xml:space="preserve" font-family="HelveticaNeue-Medium" font-size="30.6" fill="#EAEAEA" transform="matrix(1.00, 0.00, -0.00, -1.00, 139.5, 315.0)">h</text><text xml:space="preserve" font-family="HelveticaNeue-Medium" font-size="30.6" fill="#EAEAEA" transform="matrix(1.00, 0.00, -0.00, -1.00, 157.0, 315.0)">o</text><text xml:space="preserve" font-family="HelveticaNeue-Medium" font-size="30.6" fill="#EAEAEA" transform="matrix(1.00, 0.00, -0.00, -1.00, 175.2, 315.0)">n</text><text xml:space="preserve" font-family="HelveticaNeue-Medium" font-size="30.6" fill="#EAEAEA" transform="matrix(1.00, 0.00, -0.00, -1.00, 192.8, 315.0)"> </text><text xml:space="preserve" font-family="HelveticaNeue-Medium" font-size="30.6" fill="#EAEAEA" transform="matrix(1.00, 0.00, -0.00, -1.00, 201.3, 315.0)">f</text><text xml:space="preserve" font-family="HelveticaNeue-Medium" font-size="30.6" fill="#EAEAEA" transform="matrix(1.00, 0.00, -0.00, -1.00, 210.9, 315.0)">o</text><text xml:space="preserve" font-family="HelveticaNeue-Medium" font-size="30.6" fill="#EAEAEA" transform="matrix(1.00, 0.00, -0.00, -1.00, 229.0, 315.0)">r</text><text xml:space="preserve" font-family="HelveticaNeue-Medium" font-size="30.6" fill="#EAEAEA" transform="matrix(1.00, 0.00, -0.00, -1.00, 239.8, 315.0)"> </text><text xml:space="preserve" font-family="HelveticaNeue-Medium" font-size="30.6" fill="#EAEAEA" transform="matrix(1.00, 0.00, -0.00, -1.00, 248.3, 315.0)">S</text><text xml:space="preserve" font-family="HelveticaNeue-Medium" font-size="30.6" fill="#EAEAEA" transform="matrix(1.00, 0.00, -0.00, -1.00, 268.2, 315.0)">e</text><text xml:space="preserve" font-family="HelveticaNeue-Medium" font-size="30.6" fill="#EAEAEA" transform="matrix(1.00, 0.00, -0.00, -1.00, 285.2, 315.0)">c</text><text xml:space="preserve" font-family="HelveticaNeue-Medium" font-size="30.6" fill="#EAEAEA" transform="matrix(1.00, 0.00, -0.00, -1.00, 302.2, 315.0)">r</text><text xml:space="preserve" font-family="HelveticaNeue-Medium" font-size="30.6" fill="#EAEAEA" transform="matrix(1.00, 0.00, -0.00, -1.00, 312.4, 315.0)">e</text><text xml:space="preserve" font-family="HelveticaNeue-Medium" font-size="30.6" fill="#EAEAEA" transform="matrix(1.00, 0.00, -0.00, -1.00, 329.4, 315.0)">t</text><text xml:space="preserve" font-family="HelveticaNeue-Medium" font-size="30.6" fill="#EAEAEA" transform="matrix(1.00, 0.00, -0.00, -1.00, 339.6, 315.0)"> </text><text xml:space="preserve" font-family="HelveticaNeue-Medium" font-size="30.6" fill="#EAEAEA" transform="matrix(1.00, 0.00, -0.00, -1.00, 348.1, 315.0)">A</text><text xml:space="preserve" font-family="HelveticaNeue-Medium" font-size="30.6" fill="#EAEAEA" transform="matrix(1.00, 0.00, -0.00, -1.00, 368.5, 315.0)">g</text><text xml:space="preserve" font-family="HelveticaNeue-Medium" font-size="30.6" fill="#EAEAEA" transform="matrix(1.00, 0.00, -0.00, -1.00, 386.7, 315.0)">e</text><text xml:space="preserve" font-family="HelveticaNeue-Medium" font-size="30.6" fill="#EAEAEA" transform="matrix(1.00, 0.00, -0.00, -1.00, 403.7, 315.0)">n</text><text xml:space="preserve" font-family="HelveticaNeue-Medium" font-size="30.6" fill="#EAEAEA" transform="matrix(1.00, 0.00, -0.00, -1.00, 421.2, 315.0)">t</text><text xml:space="preserve" font-family="HelveticaNeue-Medium" font-size="30.6" fill="#EAEAEA" transform="matrix(1.00, 0.00, -0.00, -1.00, 431.4, 315.0)">s</text><text xml:space="preserve" font-family="HelveticaNeue-Medium" font-size="30.6" fill="#EAEAEA" transform="matrix(1.00, 0.00, -0.00, -1.00, 447.3, 315.0)"> </text><image xlink:href="6F200EE0B8D0DE7BF25E6738F01683FF.png" width="17.00" height="17.00" transform="matrix(1.00, 0.00, -0.00, -1.00, 61.0, 257.0)"></image><text xml:space="preserve" font-family="HelveticaNeue-Medium" font-size="22.9" fill="#EAEAEA" transform="matrix(1.00, 0.00, -0.00, -1.00, 64.0, 242.6)">•</text><image xlink:href="E4913A748CB83CC658A0E26EB3B7EC74.png" width="384.00" height="38.00" transform="matrix(1.00, 0.00, -0.00, -1.00, 91.0, 264.0)"></image><text xml:space="preserve" font-family="HelveticaNeue-Medium" font-size="30.6" fill="#EAEAEA" transform="matrix(1.00, 0.00, -0.00, -1.00, 93.0, 239.0)">P</text><text xml:space="preserve" font-family="HelveticaNeue-Medium" font-size="30.6" fill="#EAEAEA" transform="matrix(1.00, 0.00, -0.00, -1.00, 113.4, 239.0)">y</text><text xml:space="preserve" font-family="HelveticaNeue-Medium" font-size="30.6" fill="#EAEAEA" transform="matrix(1.00, 0.00, -0.00, -1.00, 129.3, 239.0)">t</text><text xml:space="preserve" font-family="HelveticaNeue-Medium" font-size="30.6" fill="#EAEAEA" transform="matrix(1.00, 0.00, -0.00, -1.00, 139.5, 239.0)">h</text><text xml:space="preserve" font-family="HelveticaNeue-Medium" font-size="30.6" fill="#EAEAEA" transform="matrix(1.00, 0.00, -0.00, -1.00, 157.0, 239.0)">o</text><text xml:space="preserve" font-family="HelveticaNeue-Medium" font-size="30.6" fill="#EAEAEA" transform="matrix(1.00, 0.00, -0.00, -1.00, 175.2, 239.0)">n</text><text xml:space="preserve" font-family="HelveticaNeue-Medium" font-size="30.6" fill="#EAEAEA" transform="matrix(1.00, 0.00, -0.00, -1.00, 192.8, 239.0)"> </text><text xml:space="preserve" font-family="HelveticaNeue-Medium" font-size="30.6" fill="#EAEAEA" transform="matrix(1.00, 0.00, -0.00, -1.00, 201.3, 239.0)">f</text><text xml:space="preserve" font-family="HelveticaNeue-Medium" font-size="30.6" fill="#EAEAEA" transform="matrix(1.00, 0.00, -0.00, -1.00, 210.9, 239.0)">o</text><text xml:space="preserve" font-family="HelveticaNeue-Medium" font-size="30.6" fill="#EAEAEA" transform="matrix(1.00, 0.00, -0.00, -1.00, 229.0, 239.0)">r</text><text xml:space="preserve" font-family="HelveticaNeue-Medium" font-size="30.6" fill="#EAEAEA" transform="matrix(1.00, 0.00, -0.00, -1.00, 239.8, 239.0)"> </text><text xml:space="preserve" font-family="HelveticaNeue-Medium" font-size="30.6" fill="#EAEAEA" transform="matrix(1.00, 0.00, -0.00, -1.00, 248.3, 239.0)">S</text><text xml:space="preserve" font-family="HelveticaNeue-Medium" font-size="30.6" fill="#EAEAEA" transform="matrix(1.00, 0.00, -0.00, -1.00, 268.2, 239.0)">e</text><text xml:space="preserve" font-family="HelveticaNeue-Medium" font-size="30.6" fill="#EAEAEA" transform="matrix(1.00, 0.00, -0.00, -1.00, 285.2, 239.0)">c</text><text xml:space="preserve" font-family="HelveticaNeue-Medium" font-size="30.6" fill="#EAEAEA" transform="matrix(1.00, 0.00, -0.00, -1.00, 302.2, 239.0)">r</text><text xml:space="preserve" font-family="HelveticaNeue-Medium" font-size="30.6" fill="#EAEAEA" transform="matrix(1.00, 0.00, -0.00, -1.00, 312.4, 239.0)">e</text><text xml:space="preserve" font-family="HelveticaNeue-Medium" font-size="30.6" fill="#EAEAEA" transform="matrix(1.00, 0.00, -0.00, -1.00, 329.4, 239.0)">t</text><text xml:space="preserve" font-family="HelveticaNeue-Medium" font-size="30.6" fill="#EAEAEA" transform="matrix(1.00, 0.00, -0.00, -1.00, 339.6, 239.0)"> </text><text xml:space="preserve" font-family="HelveticaNeue-Medium" font-size="30.6" fill="#EAEAEA" transform="matrix(1.00, 0.00, -0.00, -1.00, 348.1, 239.0)">A</text><text xml:space="preserve" font-family="HelveticaNeue-Medium" font-size="30.6" fill="#EAEAEA" transform="matrix(1.00, 0.00, -0.00, -1.00, 368.5, 239.0)">g</text><text xml:space="preserve" font-family="HelveticaNeue-Medium" font-size="30.6" fill="#EAEAEA" transform="matrix(1.00, 0.00, -0.00, -1.00, 386.7, 239.0)">e</text><text xml:space="preserve" font-family="HelveticaNeue-Medium" font-size="30.6" fill="#EAEAEA" transform="matrix(1.00, 0.00, -0.00, -1.00, 403.7, 239.0)">n</text><text xml:space="preserve" font-family="HelveticaNeue-Medium" font-size="30.6" fill="#EAEAEA" transform="matrix(1.00, 0.00, -0.00, -1.00, 421.2, 239.0)">t</text><text xml:space="preserve" font-family="HelveticaNeue-Medium" font-size="30.6" fill="#EAEAEA" transform="matrix(1.00, 0.00, -0.00, -1.00, 431.4, 239.0)">s</text><text xml:space="preserve" font-family="HelveticaNeue-Medium" font-size="30.6" fill="#EAEAEA" transform="matrix(1.00, 0.00, -0.00, -1.00, 447.3, 239.0)"> </text><text xml:space="preserve" font-family="HelveticaNeue-Medium" font-size="30.6" fill="#EAEAEA" transform="matrix(1.00, 0.00, -0.00, -1.00, 455.8, 239.0)">I</text><text xml:space="preserve" font-family="HelveticaNeue-Medium" font-size="30.6" fill="#EAEAEA" transform="matrix(1.00, 0.00, -0.00, -1.00, 464.3, 239.0)">I</text><text xml:space="preserve" font-family="HelveticaNeue-Medium" font-size="30.6" fill="#EAEAEA" transform="matrix(1.00, 0.00, -0.00, -1.00, 472.8, 239.0)"> </text><image xlink:href="../../363ACDF5-F69A-4348-A617-267FC1DCB792/assets/7AC7675442C37451EC00DCA9ADA7780C.png" width="17.00" height="18.00" transform="matrix(1.00, 0.00, -0.00, -1.00, 61.0, 182.0)"></image><text xml:space="preserve" font-family="HelveticaNeue-Medium" font-size="22.9" fill="#EAEAEA" transform="matrix(1.00, 0.00, -0.00, -1.00, 64.0, 166.8)">•</text><image xlink:href="D426672C1FDFA75239C1B47DE06E9442.png" width="324.00" height="38.00" transform="matrix(1.00, 0.00, -0.00, -1.00, 89.0, 189.0)"></image><text xml:space="preserve" font-family="HelveticaNeue-Medium" font-size="30.6" fill="#EAEAEA" transform="matrix(1.00, 0.00, -0.00, -1.00, 93.0, 164.0)">T</text><text xml:space="preserve" font-family="HelveticaNeue-Medium" font-size="30.6" fill="#EAEAEA" transform="matrix(1.00, 0.00, -0.00, -1.00, 111.1, 164.0)">h</text><text xml:space="preserve" font-family="HelveticaNeue-Medium" font-size="30.6" fill="#EAEAEA" transform="matrix(1.00, 0.00, -0.00, -1.00, 128.7, 164.0)">e</text><text xml:space="preserve" font-family="HelveticaNeue-Medium" font-size="30.6" fill="#EAEAEA" transform="matrix(1.00, 0.00, -0.00, -1.00, 145.7, 164.0)"> </text><text xml:space="preserve" font-family="HelveticaNeue-Medium" font-size="30.6" fill="#EAEAEA" transform="matrix(1.00, 0.00, -0.00, -1.00, 154.2, 164.0)">P</text><text xml:space="preserve" font-family="HelveticaNeue-Medium" font-size="30.6" fill="#EAEAEA" transform="matrix(1.00, 0.00, -0.00, -1.00, 174.6, 164.0)">y</text><text xml:space="preserve" font-family="HelveticaNeue-Medium" font-size="30.6" fill="#EAEAEA" transform="matrix(1.00, 0.00, -0.00, -1.00, 190.5, 164.0)">t</text><text xml:space="preserve" font-family="HelveticaNeue-Medium" font-size="30.6" fill="#EAEAEA" transform="matrix(1.00, 0.00, -0.00, -1.00, 200.7, 164.0)">h</text><text xml:space="preserve" font-family="HelveticaNeue-Medium" font-size="30.6" fill="#EAEAEA" transform="matrix(1.00, 0.00, -0.00, -1.00, 218.3, 164.0)">o</text><text xml:space="preserve" font-family="HelveticaNeue-Medium" font-size="30.6" fill="#EAEAEA" transform="matrix(1.00, 0.00, -0.00, -1.00, 236.4, 164.0)">n</text><text xml:space="preserve" font-family="HelveticaNeue-Medium" font-size="30.6" fill="#EAEAEA" transform="matrix(1.00, 0.00, -0.00, -1.00, 254.0, 164.0)"> </text><text xml:space="preserve" font-family="HelveticaNeue-Medium" font-size="30.6" fill="#EAEAEA" transform="matrix(1.00, 0.00, -0.00, -1.00, 262.5, 164.0)">C</text><text xml:space="preserve" font-family="HelveticaNeue-Medium" font-size="30.6" fill="#EAEAEA" transform="matrix(1.00, 0.00, -0.00, -1.00, 284.6, 164.0)">o</text><text xml:space="preserve" font-family="HelveticaNeue-Medium" font-size="30.6" fill="#EAEAEA" transform="matrix(1.00, 0.00, -0.00, -1.00, 302.7, 164.0)">o</text><text xml:space="preserve" font-family="HelveticaNeue-Medium" font-size="30.6" fill="#EAEAEA" transform="matrix(1.00, 0.00, -0.00, -1.00, 320.9, 164.0)">k</text><text xml:space="preserve" font-family="HelveticaNeue-Medium" font-size="30.6" fill="#EAEAEA" transform="matrix(1.00, 0.00, -0.00, -1.00, 337.3, 164.0)">b</text><text xml:space="preserve" font-family="HelveticaNeue-Medium" font-size="30.6" fill="#EAEAEA" transform="matrix(1.00, 0.00, -0.00, -1.00, 356.0, 164.0)">o</text><text xml:space="preserve" font-family="HelveticaNeue-Medium" font-size="30.6" fill="#EAEAEA" transform="matrix(1.00, 0.00, -0.00, -1.00, 374.2, 164.0)">o</text><text xml:space="preserve" font-family="HelveticaNeue-Medium" font-size="30.6" fill="#EAEAEA" transform="matrix(1.00, 0.00, -0.00, -1.00, 392.3, 164.0)">k</text><text xml:space="preserve" font-family="HelveticaNeue-Medium" font-size="30.6" fill="#EAEAEA" transform="matrix(1.00, 0.00, -0.00, -1.00, 408.7, 164.0)"> </text><image xlink:href="../../363ACDF5-F69A-4348-A617-267FC1DCB792/assets/3E3B313EB42B8C1F9FD513694AB65154.png" width="17.00" height="17.00" transform="matrix(1.00, 0.00, -0.00, -1.00, 61.0, 106.0)"></image><text xml:space="preserve" font-family="HelveticaNeue-Medium" font-size="22.9" fill="#EAEAEA" transform="matrix(1.00, 0.00, -0.00, -1.00, 64.0, 91.0)">•</text><image xlink:href="7D3E7BC1888FF003C65AD706B38F12BB.png" width="61.00" height="32.00" transform="matrix(1.00, 0.00, -0.00, -1.00, 90.0, 113.0)"></image><text xml:space="preserve" font-family="HelveticaNeue-Medium" font-size="30.6" fill="#EAEAEA" transform="matrix(1.00, 0.00, -0.00, -1.00, 93.0, 88.0)">S</text><text xml:space="preserve" font-family="HelveticaNeue-Medium" font-size="30.6" fill="#EAEAEA" transform="matrix(1.00, 0.00, -0.00, -1.00, 112.8, 88.0)">e</text><text xml:space="preserve" font-family="HelveticaNeue-Medium" font-size="30.6" fill="#EAEAEA" transform="matrix(1.00, 0.00, -0.00, -1.00, 129.8, 88.0)">e</text><text xml:space="preserve" font-family="HelveticaNeue-Medium" font-size="30.6" fill="#EAEAEA" transform="matrix(1.00, 0.00, -0.00, -1.00, 146.9, 88.0)"> </text><image xlink:href="2FF0D8F07244918CF9B94B7AFCFDC95C.png" width="375.00" height="37.00" transform="matrix(1.00, 0.00, -0.00, -1.00, 153.0, 113.0)"></image><text xml:space="preserve" font-family="HelveticaNeue-Medium" font-size="30.6" fill="#EAEAEA" transform="matrix(1.00, 0.00, -0.00, -1.00, 155.4, 88.0)">h</text><text xml:space="preserve" font-family="HelveticaNeue-Medium" font-size="30.6" fill="#EAEAEA" transform="matrix(1.00, 0.00, -0.00, -1.00, 172.9, 88.0)">t</text><text xml:space="preserve" font-family="HelveticaNeue-Medium" font-size="30.6" fill="#EAEAEA" transform="matrix(1.00, 0.00, -0.00, -1.00, 183.1, 88.0)">t</text><text xml:space="preserve" font-family="HelveticaNeue-Medium" font-size="30.6" fill="#EAEAEA" transform="matrix(1.00, 0.00, -0.00, -1.00, 193.3, 88.0)">p</text><text xml:space="preserve" font-family="HelveticaNeue-Medium" font-size="30.6" fill="#EAEAEA" transform="matrix(1.00, 0.00, -0.00, -1.00, 212.0, 88.0)">:</text><text xml:space="preserve" font-family="HelveticaNeue-Medium" font-size="30.6" fill="#EAEAEA" transform="matrix(1.00, 0.00, -0.00, -1.00, 220.5, 88.0)">/</text><text xml:space="preserve" font-family="HelveticaNeue-Medium" font-size="30.6" fill="#EAEAEA" transform="matrix(1.00, 0.00, -0.00, -1.00, 231.3, 88.0)">/</text><text xml:space="preserve" font-family="HelveticaNeue-Medium" font-size="30.6" fill="#EAEAEA" transform="matrix(1.00, 0.00, -0.00, -1.00, 242.1, 88.0)">w</text><text xml:space="preserve" font-family="HelveticaNeue-Medium" font-size="30.6" fill="#EAEAEA" transform="matrix(1.00, 0.00, -0.00, -1.00, 265.9, 88.0)">w</text><text xml:space="preserve" font-family="HelveticaNeue-Medium" font-size="30.6" fill="#EAEAEA" transform="matrix(1.00, 0.00, -0.00, -1.00, 289.7, 88.0)">w</text><text xml:space="preserve" font-family="HelveticaNeue-Medium" font-size="30.6" fill="#EAEAEA" transform="matrix(1.00, 0.00, -0.00, -1.00, 311.8, 88.0)">.</text><text xml:space="preserve" font-family="HelveticaNeue-Medium" font-size="30.6" fill="#EAEAEA" transform="matrix(1.00, 0.00, -0.00, -1.00, 320.3, 88.0)">p</text><text xml:space="preserve" font-family="HelveticaNeue-Medium" font-size="30.6" fill="#EAEAEA" transform="matrix(1.00, 0.00, -0.00, -1.00, 339.0, 88.0)">a</text><text xml:space="preserve" font-family="HelveticaNeue-Medium" font-size="30.6" fill="#EAEAEA" transform="matrix(1.00, 0.00, -0.00, -1.00, 356.0, 88.0)">c</text><text xml:space="preserve" font-family="HelveticaNeue-Medium" font-size="30.6" fill="#EAEAEA" transform="matrix(1.00, 0.00, -0.00, -1.00, 373.0, 88.0)">k</text><text xml:space="preserve" font-family="HelveticaNeue-Medium" font-size="30.6" fill="#EAEAEA" transform="matrix(1.00, 0.00, -0.00, -1.00, 389.5, 88.0)">t</text><text xml:space="preserve" font-family="HelveticaNeue-Medium" font-size="30.6" fill="#EAEAEA" transform="matrix(1.00, 0.00, -0.00, -1.00, 399.6, 88.0)">p</text><text xml:space="preserve" font-family="HelveticaNeue-Medium" font-size="30.6" fill="#EAEAEA" transform="matrix(1.00, 0.00, -0.00, -1.00, 418.3, 88.0)">u</text><text xml:space="preserve" font-family="HelveticaNeue-Medium" font-size="30.6" fill="#EAEAEA" transform="matrix(1.00, 0.00, -0.00, -1.00, 435.9, 88.0)">b</text><text xml:space="preserve" font-family="HelveticaNeue-Medium" font-size="30.6" fill="#EAEAEA" transform="matrix(1.00, 0.00, -0.00, -1.00, 454.6, 88.0)">.</text><text xml:space="preserve" font-family="HelveticaNeue-Medium" font-size="30.6" fill="#EAEAEA" transform="matrix(1.00, 0.00, -0.00, -1.00, 463.1, 88.0)">c</text><text xml:space="preserve" font-family="HelveticaNeue-Medium" font-size="30.6" fill="#EAEAEA" transform="matrix(1.00, 0.00, -0.00, -1.00, 480.1, 88.0)">o</text><text xml:space="preserve" font-family="HelveticaNeue-Medium" font-size="30.6" fill="#EAEAEA" transform="matrix(1.00, 0.00, -0.00, -1.00, 498.3, 88.0)">m</text><g><clipPath id="clip-3"><path d="M 154.2 83.7 L 524.7 83.7 L 524.7 87.2 L 154.2 87.2 Z M 154.2 83.7 "></path></clipPath><g clip-path="url(#clip-3)"><path d="M 95.2 492.6 L 464.7 492.6 " fill="none" stroke="#EAEAEA" stroke-width="1.53" stroke-miterlimit="0.00" transform="matrix(1.00, 0.00, 0.00, -1.00, 60.0, 578.0)"></path></g></g></g></svg>