<?xml version="1.0" encoding="UTF-8" standalone="no"?><svg xmlns="http://www.w3.org/2000/svg" xmlns:xlink="http://www.w3.org/1999/xlink" clip-rule="evenodd" stroke-miterlimit="4.00" viewBox="0 0 1024 768"><desc>SVG generated by Keynote</desc><defs></defs><g transform="matrix(1.00, 0.00, -0.00, -1.00, 0.0, 768.0)"><g><clipPath id="clip-155"><path d="M 0.0 768.0 L 1024.0 768.0 L 1024.0 0.0 L 0.0 0.0 Z M 0.0 768.0 "></path></clipPath><g clip-path="url(#clip-155)"><image xlink:href="../../363ACDF5-F69A-4348-A617-267FC1DCB792/assets/2CA05975C404A6B79EB2D17D5C3EEC1C.jpeg" width="1024.00" height="768.00" transform="matrix(1.00, 0.00, -0.00, -1.00, 0.0, 768.0)"></image></g></g><image xlink:href="../../8D9314FD-3AD2-41B5-BDFB-6EB3834CFB2E/assets/89E442FC5AAF3A8BEE227E3F5241DB63.png" width="582.00" height="66.00" transform="matrix(1.00, 0.00, -0.00, -1.00, 222.0, 692.0)"></image><text xml:space="preserve" font-family="HelveticaNeue-Bold" font-weight="bold" font-size="64.0" fill="#FEFFFE" transform="matrix(1.00, 0.00, -0.00, -1.00, 222.0, 644.0)">F</text><text xml:space="preserve" font-family="HelveticaNeue-Bold" font-weight="bold" font-size="64.0" fill="#FEFFFE" transform="matrix(1.00, 0.00, -0.00, -1.00, 260.0, 644.0)">u</text><text xml:space="preserve" font-family="HelveticaNeue-Bold" font-weight="bold" font-size="64.0" fill="#FEFFFE" transform="matrix(1.00, 0.00, -0.00, -1.00, 297.9, 644.0)">n</text><text xml:space="preserve" font-family="HelveticaNeue-Bold" font-weight="bold" font-size="64.0" fill="#FEFFFE" transform="matrix(1.00, 0.00, -0.00, -1.00, 335.9, 644.0)">c</text><text xml:space="preserve" font-family="HelveticaNeue-Bold" font-weight="bold" font-size="64.0" fill="#FEFFFE" transform="matrix(1.00, 0.00, -0.00, -1.00, 372.6, 644.0)">t</text><text xml:space="preserve" font-family="HelveticaNeue-Bold" font-weight="bold" font-size="64.0" fill="#FEFFFE" transform="matrix(1.00, 0.00, -0.00, -1.00, 395.1, 644.0)">i</text><text xml:space="preserve" font-family="HelveticaNeue-Bold" font-weight="bold" font-size="64.0" fill="#FEFFFE" transform="matrix(1.00, 0.00, -0.00, -1.00, 411.6, 644.0)">o</text><text xml:space="preserve" font-family="HelveticaNeue-Bold" font-weight="bold" font-size="64.0" fill="#FEFFFE" transform="matrix(1.00, 0.00, -0.00, -1.00, 450.7, 644.0)">n</text><text xml:space="preserve" font-family="HelveticaNeue-Bold" font-weight="bold" font-size="64.0" fill="#FEFFFE" transform="matrix(1.00, 0.00, -0.00, -1.00, 488.7, 644.0)"> </text><text xml:space="preserve" font-family="HelveticaNeue-Bold" font-weight="bold" font-size="64.0" fill="#FEFFFE" transform="matrix(1.00, 0.00, -0.00, -1.00, 506.5, 644.0)">W</text><text xml:space="preserve" font-family="HelveticaNeue-Bold" font-weight="bold" font-size="64.0" fill="#FEFFFE" transform="matrix(1.00, 0.00, -0.00, -1.00, 565.7, 644.0)">r</text><text xml:space="preserve" font-family="HelveticaNeue-Bold" font-weight="bold" font-size="64.0" fill="#FEFFFE" transform="matrix(1.00, 0.00, -0.00, -1.00, 590.6, 644.0)">a</text><text xml:space="preserve" font-family="HelveticaNeue-Bold" font-weight="bold" font-size="64.0" fill="#FEFFFE" transform="matrix(1.00, 0.00, -0.00, -1.00, 627.4, 644.0)">p</text><text xml:space="preserve" font-family="HelveticaNeue-Bold" font-weight="bold" font-size="64.0" fill="#FEFFFE" transform="matrix(1.00, 0.00, -0.00, -1.00, 666.5, 644.0)">p</text><text xml:space="preserve" font-family="HelveticaNeue-Bold" font-weight="bold" font-size="64.0" fill="#FEFFFE" transform="matrix(1.00, 0.00, -0.00, -1.00, 705.6, 644.0)">e</text><text xml:space="preserve" font-family="HelveticaNeue-Bold" font-weight="bold" font-size="64.0" fill="#FEFFFE" transform="matrix(1.00, 0.00, -0.00, -1.00, 742.3, 644.0)">r</text><text xml:space="preserve" font-family="HelveticaNeue-Bold" font-weight="bold" font-size="64.0" fill="#FEFFFE" transform="matrix(1.00, 0.00, -0.00, -1.00, 767.2, 644.0)">s</text><image xlink:href="../../3D22B4D2-ADB8-49BA-AB82-64DDDFBD2CFF/assets/0434DE27F38E5E710791A6F105FD76FC.png" width="18.00" height="18.00" transform="matrix(1.00, 0.00, -0.00, -1.00, 61.0, 538.0)"></image><text xml:space="preserve" font-family="HelveticaNeue-Medium" font-size="25.5" fill="#EAEAEA" transform="matrix(1.00, 0.00, -0.00, -1.00, 64.0, 521.9)">•</text><image xlink:href="D6D8010403697D6B8F808E41236C1A08.png" width="150.00" height="34.00" transform="matrix(1.00, 0.00, -0.00, -1.00, 93.0, 546.0)"></image><text xml:space="preserve" font-family="HelveticaNeue-Medium" font-size="34.0" fill="#EAEAEA" transform="matrix(1.00, 0.00, -0.00, -1.00, 96.0, 519.0)">C</text><text xml:space="preserve" font-family="HelveticaNeue-Medium" font-size="34.0" fill="#EAEAEA" transform="matrix(1.00, 0.00, -0.00, -1.00, 120.5, 519.0)">o</text><text xml:space="preserve" font-family="HelveticaNeue-Medium" font-size="34.0" fill="#EAEAEA" transform="matrix(1.00, 0.00, -0.00, -1.00, 140.7, 519.0)">n</text><text xml:space="preserve" font-family="HelveticaNeue-Medium" font-size="34.0" fill="#EAEAEA" transform="matrix(1.00, 0.00, -0.00, -1.00, 160.2, 519.0)">s</text><text xml:space="preserve" font-family="HelveticaNeue-Medium" font-size="34.0" fill="#EAEAEA" transform="matrix(1.00, 0.00, -0.00, -1.00, 177.9, 519.0)">i</text><text xml:space="preserve" font-family="HelveticaNeue-Medium" font-size="34.0" fill="#EAEAEA" transform="matrix(1.00, 0.00, -0.00, -1.00, 186.1, 519.0)">d</text><text xml:space="preserve" font-family="HelveticaNeue-Medium" font-size="34.0" fill="#EAEAEA" transform="matrix(1.00, 0.00, -0.00, -1.00, 206.8, 519.0)">e</text><text xml:space="preserve" font-family="HelveticaNeue-Medium" font-size="34.0" fill="#EAEAEA" transform="matrix(1.00, 0.00, -0.00, -1.00, 225.7, 519.0)">r</text><text xml:space="preserve" font-family="HelveticaNeue-Medium" font-size="34.0" fill="#EAEAEA" transform="matrix(1.00, 0.00, -0.00, -1.00, 237.7, 519.0)"> </text><image xlink:href="FD2DA7B51673E19280C6675AB04FE5EC.png" width="283.00" height="40.00" transform="matrix(1.00, 0.00, -0.00, -1.00, 247.0, 545.0)"></image><text xml:space="preserve" font-family="AndaleMono" font-size="34.0" fill="#EAEAEA" transform="matrix(1.00, 0.00, -0.00, -1.00, 247.2, 519.0)">l</text><text xml:space="preserve" font-family="AndaleMono" font-size="34.0" fill="#EAEAEA" transform="matrix(1.00, 0.00, -0.00, -1.00, 267.6, 519.0)">e</text><text xml:space="preserve" font-family="AndaleMono" font-size="34.0" fill="#EAEAEA" transform="matrix(1.00, 0.00, -0.00, -1.00, 288.0, 519.0)">n</text><text xml:space="preserve" font-family="AndaleMono" font-size="34.0" fill="#EAEAEA" transform="matrix(1.00, 0.00, -0.00, -1.00, 308.4, 519.0)">(</text><text xml:space="preserve" font-family="AndaleMono" font-size="34.0" fill="#EAEAEA" transform="matrix(1.00, 0.00, -0.00, -1.00, 328.8, 519.0)">s</text><text xml:space="preserve" font-family="AndaleMono" font-size="34.0" fill="#EAEAEA" transform="matrix(1.00, 0.00, -0.00, -1.00, 349.2, 519.0)">o</text><text xml:space="preserve" font-family="AndaleMono" font-size="34.0" fill="#EAEAEA" transform="matrix(1.00, 0.00, -0.00, -1.00, 369.6, 519.0)">m</text><text xml:space="preserve" font-family="AndaleMono" font-size="34.0" fill="#EAEAEA" transform="matrix(1.00, 0.00, -0.00, -1.00, 390.0, 519.0)">e</text><text xml:space="preserve" font-family="AndaleMono" font-size="34.0" fill="#EAEAEA" transform="matrix(1.00, 0.00, -0.00, -1.00, 410.4, 519.0)">_</text><text xml:space="preserve" font-family="AndaleMono" font-size="34.0" fill="#EAEAEA" transform="matrix(1.00, 0.00, -0.00, -1.00, 430.8, 519.0)">l</text><text xml:space="preserve" font-family="AndaleMono" font-size="34.0" fill="#EAEAEA" transform="matrix(1.00, 0.00, -0.00, -1.00, 451.2, 519.0)">i</text><text xml:space="preserve" font-family="AndaleMono" font-size="34.0" fill="#EAEAEA" transform="matrix(1.00, 0.00, -0.00, -1.00, 471.6, 519.0)">s</text><text xml:space="preserve" font-family="AndaleMono" font-size="34.0" fill="#EAEAEA" transform="matrix(1.00, 0.00, -0.00, -1.00, 492.0, 519.0)">t</text><text xml:space="preserve" font-family="AndaleMono" font-size="34.0" fill="#EAEAEA" transform="matrix(1.00, 0.00, -0.00, -1.00, 512.5, 519.0)">)</text><image xlink:href="../../3D22B4D2-ADB8-49BA-AB82-64DDDFBD2CFF/assets/C625B3AEE65514AB45EE37CB374F698E.png" width="18.00" height="18.00" transform="matrix(1.00, 0.00, -0.00, -1.00, 61.0, 455.0)"></image><text xml:space="preserve" font-family="HelveticaNeue-Medium" font-size="25.5" fill="#EAEAEA" transform="matrix(1.00, 0.00, -0.00, -1.00, 64.0, 438.9)">•</text><image xlink:href="6D5D98E6364343CADE834160B82FA159.png" width="576.00" height="34.00" transform="matrix(1.00, 0.00, -0.00, -1.00, 94.0, 463.0)"></image><text xml:space="preserve" font-family="HelveticaNeue-Medium" font-size="34.0" fill="#EAEAEA" transform="matrix(1.00, 0.00, -0.00, -1.00, 96.0, 436.0)">B</text><text xml:space="preserve" font-family="HelveticaNeue-Medium" font-size="34.0" fill="#EAEAEA" transform="matrix(1.00, 0.00, -0.00, -1.00, 119.9, 436.0)">e</text><text xml:space="preserve" font-family="HelveticaNeue-Medium" font-size="34.0" fill="#EAEAEA" transform="matrix(1.00, 0.00, -0.00, -1.00, 138.8, 436.0)">h</text><text xml:space="preserve" font-family="HelveticaNeue-Medium" font-size="34.0" fill="#EAEAEA" transform="matrix(1.00, 0.00, -0.00, -1.00, 158.4, 436.0)">a</text><text xml:space="preserve" font-family="HelveticaNeue-Medium" font-size="34.0" fill="#EAEAEA" transform="matrix(1.00, 0.00, -0.00, -1.00, 177.3, 436.0)">v</text><text xml:space="preserve" font-family="HelveticaNeue-Medium" font-size="34.0" fill="#EAEAEA" transform="matrix(1.00, 0.00, -0.00, -1.00, 194.9, 436.0)">e</text><text xml:space="preserve" font-family="HelveticaNeue-Medium" font-size="34.0" fill="#EAEAEA" transform="matrix(1.00, 0.00, -0.00, -1.00, 213.8, 436.0)">s</text><text xml:space="preserve" font-family="HelveticaNeue-Medium" font-size="34.0" fill="#EAEAEA" transform="matrix(1.00, 0.00, -0.00, -1.00, 231.5, 436.0)"> </text><text xml:space="preserve" font-family="HelveticaNeue-Medium" font-size="34.0" fill="#EAEAEA" transform="matrix(1.00, 0.00, -0.00, -1.00, 240.9, 436.0)">a</text><text xml:space="preserve" font-family="HelveticaNeue-Medium" font-size="34.0" fill="#EAEAEA" transform="matrix(1.00, 0.00, -0.00, -1.00, 259.8, 436.0)">s</text><text xml:space="preserve" font-family="HelveticaNeue-Medium" font-size="34.0" fill="#EAEAEA" transform="matrix(1.00, 0.00, -0.00, -1.00, 277.5, 436.0)"> </text><text xml:space="preserve" font-family="HelveticaNeue-Medium" font-size="34.0" fill="#EAEAEA" transform="matrix(1.00, 0.00, -0.00, -1.00, 286.9, 436.0)">i</text><text xml:space="preserve" font-family="HelveticaNeue-Medium" font-size="34.0" fill="#EAEAEA" transform="matrix(1.00, 0.00, -0.00, -1.00, 295.1, 436.0)">f</text><text xml:space="preserve" font-family="HelveticaNeue-Medium" font-size="34.0" fill="#EAEAEA" transform="matrix(1.00, 0.00, -0.00, -1.00, 305.8, 436.0)"> </text><text xml:space="preserve" font-family="HelveticaNeue-Medium" font-size="34.0" fill="#EAEAEA" transform="matrix(1.00, 0.00, -0.00, -1.00, 315.3, 436.0)">t</text><text xml:space="preserve" font-family="HelveticaNeue-Medium" font-size="34.0" fill="#EAEAEA" transform="matrix(1.00, 0.00, -0.00, -1.00, 326.6, 436.0)">h</text><text xml:space="preserve" font-family="HelveticaNeue-Medium" font-size="34.0" fill="#EAEAEA" transform="matrix(1.00, 0.00, -0.00, -1.00, 346.1, 436.0)">i</text><text xml:space="preserve" font-family="HelveticaNeue-Medium" font-size="34.0" fill="#EAEAEA" transform="matrix(1.00, 0.00, -0.00, -1.00, 354.3, 436.0)">s</text><text xml:space="preserve" font-family="HelveticaNeue-Medium" font-size="34.0" fill="#EAEAEA" transform="matrix(1.00, 0.00, -0.00, -1.00, 371.9, 436.0)"> </text><text xml:space="preserve" font-family="HelveticaNeue-Medium" font-size="34.0" fill="#EAEAEA" transform="matrix(1.00, 0.00, -0.00, -1.00, 381.4, 436.0)">w</text><text xml:space="preserve" font-family="HelveticaNeue-Medium" font-size="34.0" fill="#EAEAEA" transform="matrix(1.00, 0.00, -0.00, -1.00, 407.8, 436.0)">a</text><text xml:space="preserve" font-family="HelveticaNeue-Medium" font-size="34.0" fill="#EAEAEA" transform="matrix(1.00, 0.00, -0.00, -1.00, 426.8, 436.0)">s</text><text xml:space="preserve" font-family="HelveticaNeue-Medium" font-size="34.0" fill="#EAEAEA" transform="matrix(1.00, 0.00, -0.00, -1.00, 444.4, 436.0)"> </text><text xml:space="preserve" font-family="HelveticaNeue-Medium" font-size="34.0" fill="#EAEAEA" transform="matrix(1.00, 0.00, -0.00, -1.00, 453.9, 436.0)">t</text><text xml:space="preserve" font-family="HelveticaNeue-Medium" font-size="34.0" fill="#EAEAEA" transform="matrix(1.00, 0.00, -0.00, -1.00, 465.2, 436.0)">h</text><text xml:space="preserve" font-family="HelveticaNeue-Medium" font-size="34.0" fill="#EAEAEA" transform="matrix(1.00, 0.00, -0.00, -1.00, 484.7, 436.0)">e</text><text xml:space="preserve" font-family="HelveticaNeue-Medium" font-size="34.0" fill="#EAEAEA" transform="matrix(1.00, 0.00, -0.00, -1.00, 503.6, 436.0)"> </text><text xml:space="preserve" font-family="HelveticaNeue-Medium" font-size="34.0" fill="#EAEAEA" transform="matrix(1.00, 0.00, -0.00, -1.00, 513.0, 436.0)">d</text><text xml:space="preserve" font-family="HelveticaNeue-Medium" font-size="34.0" fill="#EAEAEA" transform="matrix(1.00, 0.00, -0.00, -1.00, 533.8, 436.0)">e</text><text xml:space="preserve" font-family="HelveticaNeue-Medium" font-size="34.0" fill="#EAEAEA" transform="matrix(1.00, 0.00, -0.00, -1.00, 552.7, 436.0)">ﬁ</text><text xml:space="preserve" font-family="HelveticaNeue-Medium" font-size="34.0" fill="#EAEAEA" transform="matrix(1.00, 0.00, -0.00, -1.00, 571.6, 436.0)">n</text><text xml:space="preserve" font-family="HelveticaNeue-Medium" font-size="34.0" fill="#EAEAEA" transform="matrix(1.00, 0.00, -0.00, -1.00, 591.1, 436.0)">i</text><text xml:space="preserve" font-family="HelveticaNeue-Medium" font-size="34.0" fill="#EAEAEA" transform="matrix(1.00, 0.00, -0.00, -1.00, 599.3, 436.0)">t</text><text xml:space="preserve" font-family="HelveticaNeue-Medium" font-size="34.0" fill="#EAEAEA" transform="matrix(1.00, 0.00, -0.00, -1.00, 610.7, 436.0)">i</text><text xml:space="preserve" font-family="HelveticaNeue-Medium" font-size="34.0" fill="#EAEAEA" transform="matrix(1.00, 0.00, -0.00, -1.00, 618.9, 436.0)">o</text><text xml:space="preserve" font-family="HelveticaNeue-Medium" font-size="34.0" fill="#EAEAEA" transform="matrix(1.00, 0.00, -0.00, -1.00, 639.0, 436.0)">n</text><text xml:space="preserve" font-family="HelveticaNeue-Medium" font-size="34.0" fill="#EAEAEA" transform="matrix(1.00, 0.00, -0.00, -1.00, 658.5, 436.0)">:</text><image xlink:href="FFCC609B3580A7F278D9C61E177E93A7.png" width="256.00" height="39.00" transform="matrix(1.00, 0.00, -0.00, -1.00, 80.0, 382.0)"></image><text xml:space="preserve" font-family="AndaleMono" font-size="33.0" fill="#EAEAEA" transform="matrix(1.00, 0.00, -0.00, -1.00, 82.0, 356.0)">d</text><text xml:space="preserve" font-family="AndaleMono" font-size="33.0" fill="#EAEAEA" transform="matrix(1.00, 0.00, -0.00, -1.00, 101.8, 356.0)">e</text><text xml:space="preserve" font-family="AndaleMono" font-size="33.0" fill="#EAEAEA" transform="matrix(1.00, 0.00, -0.00, -1.00, 121.6, 356.0)">f</text><text xml:space="preserve" font-family="AndaleMono" font-size="33.0" fill="#EAEAEA" transform="matrix(1.00, 0.00, -0.00, -1.00, 141.4, 356.0)"> </text><text xml:space="preserve" font-family="AndaleMono" font-size="33.0" fill="#EAEAEA" transform="matrix(1.00, 0.00, -0.00, -1.00, 161.2, 356.0)">l</text><text xml:space="preserve" font-family="AndaleMono" font-size="33.0" fill="#EAEAEA" transform="matrix(1.00, 0.00, -0.00, -1.00, 181.0, 356.0)">e</text><text xml:space="preserve" font-family="AndaleMono" font-size="33.0" fill="#EAEAEA" transform="matrix(1.00, 0.00, -0.00, -1.00, 200.8, 356.0)">n</text><text xml:space="preserve" font-family="AndaleMono" font-size="33.0" fill="#EAEAEA" transform="matrix(1.00, 0.00, -0.00, -1.00, 220.6, 356.0)">(</text><text xml:space="preserve" font-family="AndaleMono" font-size="33.0" fill="#EAEAEA" transform="matrix(1.00, 0.00, -0.00, -1.00, 240.5, 356.0)">o</text><text xml:space="preserve" font-family="AndaleMono" font-size="33.0" fill="#EAEAEA" transform="matrix(1.00, 0.00, -0.00, -1.00, 260.3, 356.0)">b</text><text xml:space="preserve" font-family="AndaleMono" font-size="33.0" fill="#EAEAEA" transform="matrix(1.00, 0.00, -0.00, -1.00, 280.1, 356.0)">j</text><text xml:space="preserve" font-family="AndaleMono" font-size="33.0" fill="#EAEAEA" transform="matrix(1.00, 0.00, -0.00, -1.00, 299.9, 356.0)">)</text><text xml:space="preserve" font-family="AndaleMono" font-size="33.0" fill="#EAEAEA" transform="matrix(1.00, 0.00, -0.00, -1.00, 319.7, 356.0)">:</text><text xml:space="preserve" font-family="AndaleMono" font-size="33.0" fill="#EAEAEA" transform="matrix(1.00, 0.00, -0.00, -1.00, 339.5, 356.0)"> </text><text xml:space="preserve" font-family="AndaleMono" font-size="33.0" fill="#EAEAEA" transform="matrix(1.00, 0.00, -0.00, -1.00, 359.2, 356.0)"> </text><image xlink:href="621BFD71B214205DC951E69C07C41880.png" width="393.00" height="40.00" transform="matrix(1.00, 0.00, -0.00, -1.00, 162.0, 303.0)"></image><text xml:space="preserve" font-family="AndaleMono" font-size="33.0" fill="#EAEAEA" transform="matrix(1.00, 0.00, -0.00, -1.00, 82.0, 277.0)"> </text><text xml:space="preserve" font-family="AndaleMono" font-size="33.0" fill="#EAEAEA" transform="matrix(1.00, 0.00, -0.00, -1.00, 101.8, 277.0)"> </text><text xml:space="preserve" font-family="AndaleMono" font-size="33.0" fill="#EAEAEA" transform="matrix(1.00, 0.00, -0.00, -1.00, 121.6, 277.0)"> </text><text xml:space="preserve" font-family="AndaleMono" font-size="33.0" fill="#EAEAEA" transform="matrix(1.00, 0.00, -0.00, -1.00, 141.4, 277.0)"> </text><text xml:space="preserve" font-family="AndaleMono" font-size="33.0" fill="#EAEAEA" transform="matrix(1.00, 0.00, -0.00, -1.00, 161.2, 277.0)">r</text><text xml:space="preserve" font-family="AndaleMono" font-size="33.0" fill="#EAEAEA" transform="matrix(1.00, 0.00, -0.00, -1.00, 181.0, 277.0)">e</text><text xml:space="preserve" font-family="AndaleMono" font-size="33.0" fill="#EAEAEA" transform="matrix(1.00, 0.00, -0.00, -1.00, 200.8, 277.0)">t</text><text xml:space="preserve" font-family="AndaleMono" font-size="33.0" fill="#EAEAEA" transform="matrix(1.00, 0.00, -0.00, -1.00, 220.6, 277.0)">u</text><text xml:space="preserve" font-family="AndaleMono" font-size="33.0" fill="#EAEAEA" transform="matrix(1.00, 0.00, -0.00, -1.00, 240.5, 277.0)">r</text><text xml:space="preserve" font-family="AndaleMono" font-size="33.0" fill="#EAEAEA" transform="matrix(1.00, 0.00, -0.00, -1.00, 260.3, 277.0)">n</text><text xml:space="preserve" font-family="AndaleMono" font-size="33.0" fill="#EAEAEA" transform="matrix(1.00, 0.00, -0.00, -1.00, 280.1, 277.0)"> </text><text xml:space="preserve" font-family="AndaleMono" font-size="33.0" fill="#EAEAEA" transform="matrix(1.00, 0.00, -0.00, -1.00, 299.9, 277.0)">o</text><text xml:space="preserve" font-family="AndaleMono" font-size="33.0" fill="#EAEAEA" transform="matrix(1.00, 0.00, -0.00, -1.00, 319.7, 277.0)">b</text><text xml:space="preserve" font-family="AndaleMono" font-size="33.0" fill="#EAEAEA" transform="matrix(1.00, 0.00, -0.00, -1.00, 339.5, 277.0)">j</text><text xml:space="preserve" font-family="AndaleMono" font-size="33.0" fill="#EAEAEA" transform="matrix(1.00, 0.00, -0.00, -1.00, 359.3, 277.0)">.</text><text xml:space="preserve" font-family="AndaleMono" font-size="33.0" fill="#EAEAEA" transform="matrix(1.00, 0.00, -0.00, -1.00, 379.1, 277.0)">_</text><text xml:space="preserve" font-family="AndaleMono" font-size="33.0" fill="#EAEAEA" transform="matrix(1.00, 0.00, -0.00, -1.00, 398.9, 277.0)">_</text><text xml:space="preserve" font-family="AndaleMono" font-size="33.0" fill="#EAEAEA" transform="matrix(1.00, 0.00, -0.00, -1.00, 418.7, 277.0)">l</text><text xml:space="preserve" font-family="AndaleMono" font-size="33.0" fill="#EAEAEA" transform="matrix(1.00, 0.00, -0.00, -1.00, 438.5, 277.0)">e</text><text xml:space="preserve" font-family="AndaleMono" font-size="33.0" fill="#EAEAEA" transform="matrix(1.00, 0.00, -0.00, -1.00, 458.3, 277.0)">n</text><text xml:space="preserve" font-family="AndaleMono" font-size="33.0" fill="#EAEAEA" transform="matrix(1.00, 0.00, -0.00, -1.00, 478.1, 277.0)">_</text><text xml:space="preserve" font-family="AndaleMono" font-size="33.0" fill="#EAEAEA" transform="matrix(1.00, 0.00, -0.00, -1.00, 497.9, 277.0)">_</text><text xml:space="preserve" font-family="AndaleMono" font-size="33.0" fill="#EAEAEA" transform="matrix(1.00, 0.00, -0.00, -1.00, 517.7, 277.0)">(</text><text xml:space="preserve" font-family="AndaleMono" font-size="33.0" fill="#EAEAEA" transform="matrix(1.00, 0.00, -0.00, -1.00, 537.6, 277.0)">)</text><text xml:space="preserve" font-family="AndaleMono" font-size="33.0" fill="#EAEAEA" transform="matrix(1.00, 0.00, -0.00, -1.00, 557.3, 277.0)"> </text><image xlink:href="1765C135C2D107ABDBD81EFD9EA4EAB3.png" width="15.00" height="14.00" transform="matrix(1.00, 0.00, -0.00, -1.00, 61.0, 212.0)"></image><text xml:space="preserve" font-family="Helvetica" font-size="25.5" fill="#EAEAEA" transform="matrix(1.00, 0.00, -0.00, -1.00, 64.0, 197.8)">•</text><image xlink:href="AEF135E211078C5F645531F872F1E9C7.png" width="82.00" height="34.00" transform="matrix(1.00, 0.00, -0.00, -1.00, 94.0, 222.0)"></image><text xml:space="preserve" font-family="Helvetica" font-size="34.0" fill="#EAEAEA" transform="matrix(1.00, 0.00, -0.00, -1.00, 96.0, 195.0)">E</text><text xml:space="preserve" font-family="Helvetica" font-size="34.0" fill="#EAEAEA" transform="matrix(1.00, 0.00, -0.00, -1.00, 118.7, 195.0)">v</text><text xml:space="preserve" font-family="Helvetica" font-size="34.0" fill="#EAEAEA" transform="matrix(1.00, 0.00, -0.00, -1.00, 135.7, 195.0)">e</text><text xml:space="preserve" font-family="Helvetica" font-size="34.0" fill="#EAEAEA" transform="matrix(1.00, 0.00, -0.00, -1.00, 154.6, 195.0)">n</text><text xml:space="preserve" font-family="Helvetica" font-size="34.0" fill="#EAEAEA" transform="matrix(1.00, 0.00, -0.00, -1.00, 173.5, 195.0)"> </text><image xlink:href="9759D6A08CFFE74F2CEF80EFF440A75F.png" width="224.00" height="37.00" transform="matrix(1.00, 0.00, -0.00, -1.00, 181.0, 221.0)"></image><text xml:space="preserve" font-family="AndaleMono" font-size="34.0" fill="#EAEAEA" transform="matrix(1.00, 0.00, -0.00, -1.00, 182.9, 195.0)">d</text><text xml:space="preserve" font-family="AndaleMono" font-size="34.0" fill="#EAEAEA" transform="matrix(1.00, 0.00, -0.00, -1.00, 203.3, 195.0)">i</text><text xml:space="preserve" font-family="AndaleMono" font-size="34.0" fill="#EAEAEA" transform="matrix(1.00, 0.00, -0.00, -1.00, 223.8, 195.0)">v</text><text xml:space="preserve" font-family="AndaleMono" font-size="34.0" fill="#EAEAEA" transform="matrix(1.00, 0.00, -0.00, -1.00, 244.2, 195.0)">m</text><text xml:space="preserve" font-family="AndaleMono" font-size="34.0" fill="#EAEAEA" transform="matrix(1.00, 0.00, -0.00, -1.00, 264.6, 195.0)">o</text><text xml:space="preserve" font-family="AndaleMono" font-size="34.0" fill="#EAEAEA" transform="matrix(1.00, 0.00, -0.00, -1.00, 285.0, 195.0)">d</text><text xml:space="preserve" font-family="AndaleMono" font-size="34.0" fill="#EAEAEA" transform="matrix(1.00, 0.00, -0.00, -1.00, 305.4, 195.0)">(</text><text xml:space="preserve" font-family="AndaleMono" font-size="34.0" fill="#EAEAEA" transform="matrix(1.00, 0.00, -0.00, -1.00, 325.8, 195.0)">a</text><text xml:space="preserve" font-family="AndaleMono" font-size="34.0" fill="#EAEAEA" transform="matrix(1.00, 0.00, -0.00, -1.00, 346.2, 195.0)">,</text><text xml:space="preserve" font-family="AndaleMono" font-size="34.0" fill="#EAEAEA" transform="matrix(1.00, 0.00, -0.00, -1.00, 366.6, 195.0)">b</text><text xml:space="preserve" font-family="AndaleMono" font-size="34.0" fill="#EAEAEA" transform="matrix(1.00, 0.00, -0.00, -1.00, 387.0, 195.0)">)</text><image xlink:href="00231913C0C933607AA9F33D48940098.png" width="410.00" height="34.00" transform="matrix(1.00, 0.00, -0.00, -1.00, 415.0, 222.0)"></image><text xml:space="preserve" font-family="Helvetica" font-size="34.0" fill="#EAEAEA" transform="matrix(1.00, 0.00, -0.00, -1.00, 407.4, 195.0)"> </text><text xml:space="preserve" font-family="Helvetica" font-size="34.0" fill="#EAEAEA" transform="matrix(1.00, 0.00, -0.00, -1.00, 416.8, 195.0)">r</text><text xml:space="preserve" font-family="Helvetica" font-size="34.0" fill="#EAEAEA" transform="matrix(1.00, 0.00, -0.00, -1.00, 428.1, 195.0)">e</text><text xml:space="preserve" font-family="Helvetica" font-size="34.0" fill="#EAEAEA" transform="matrix(1.00, 0.00, -0.00, -1.00, 447.1, 195.0)">l</text><text xml:space="preserve" font-family="Helvetica" font-size="34.0" fill="#EAEAEA" transform="matrix(1.00, 0.00, -0.00, -1.00, 454.6, 195.0)">i</text><text xml:space="preserve" font-family="Helvetica" font-size="34.0" fill="#EAEAEA" transform="matrix(1.00, 0.00, -0.00, -1.00, 462.2, 195.0)">e</text><text xml:space="preserve" font-family="Helvetica" font-size="34.0" fill="#EAEAEA" transform="matrix(1.00, 0.00, -0.00, -1.00, 481.1, 195.0)">s</text><text xml:space="preserve" font-family="Helvetica" font-size="34.0" fill="#EAEAEA" transform="matrix(1.00, 0.00, -0.00, -1.00, 498.1, 195.0)"> </text><text xml:space="preserve" font-family="Helvetica" font-size="34.0" fill="#EAEAEA" transform="matrix(1.00, 0.00, -0.00, -1.00, 507.5, 195.0)">o</text><text xml:space="preserve" font-family="Helvetica" font-size="34.0" fill="#EAEAEA" transform="matrix(1.00, 0.00, -0.00, -1.00, 526.4, 195.0)">n</text><text xml:space="preserve" font-family="Helvetica" font-size="34.0" fill="#EAEAEA" transform="matrix(1.00, 0.00, -0.00, -1.00, 545.4, 195.0)"> </text><text xml:space="preserve" font-family="Helvetica" font-size="34.0" fill="#EAEAEA" transform="matrix(1.00, 0.00, -0.00, -1.00, 554.8, 195.0)">m</text><text xml:space="preserve" font-family="Helvetica" font-size="34.0" fill="#EAEAEA" transform="matrix(1.00, 0.00, -0.00, -1.00, 583.1, 195.0)">e</text><text xml:space="preserve" font-family="Helvetica" font-size="34.0" fill="#EAEAEA" transform="matrix(1.00, 0.00, -0.00, -1.00, 602.0, 195.0)">t</text><text xml:space="preserve" font-family="Helvetica" font-size="34.0" fill="#EAEAEA" transform="matrix(1.00, 0.00, -0.00, -1.00, 611.5, 195.0)">h</text><text xml:space="preserve" font-family="Helvetica" font-size="34.0" fill="#EAEAEA" transform="matrix(1.00, 0.00, -0.00, -1.00, 630.4, 195.0)">o</text><text xml:space="preserve" font-family="Helvetica" font-size="34.0" fill="#EAEAEA" transform="matrix(1.00, 0.00, -0.00, -1.00, 649.3, 195.0)">d</text><text xml:space="preserve" font-family="Helvetica" font-size="34.0" fill="#EAEAEA" transform="matrix(1.00, 0.00, -0.00, -1.00, 668.2, 195.0)"> </text><text xml:space="preserve" font-family="Helvetica" font-size="34.0" fill="#EAEAEA" transform="matrix(1.00, 0.00, -0.00, -1.00, 677.7, 195.0)">f</text><text xml:space="preserve" font-family="Helvetica" font-size="34.0" fill="#EAEAEA" transform="matrix(1.00, 0.00, -0.00, -1.00, 687.1, 195.0)">u</text><text xml:space="preserve" font-family="Helvetica" font-size="34.0" fill="#EAEAEA" transform="matrix(1.00, 0.00, -0.00, -1.00, 706.0, 195.0)">n</text><text xml:space="preserve" font-family="Helvetica" font-size="34.0" fill="#EAEAEA" transform="matrix(1.00, 0.00, -0.00, -1.00, 724.9, 195.0)">c</text><text xml:space="preserve" font-family="Helvetica" font-size="34.0" fill="#EAEAEA" transform="matrix(1.00, 0.00, -0.00, -1.00, 741.9, 195.0)">t</text><text xml:space="preserve" font-family="Helvetica" font-size="34.0" fill="#EAEAEA" transform="matrix(1.00, 0.00, -0.00, -1.00, 751.4, 195.0)">i</text><text xml:space="preserve" font-family="Helvetica" font-size="34.0" fill="#EAEAEA" transform="matrix(1.00, 0.00, -0.00, -1.00, 758.9, 195.0)">o</text><text xml:space="preserve" font-family="Helvetica" font-size="34.0" fill="#EAEAEA" transform="matrix(1.00, 0.00, -0.00, -1.00, 777.9, 195.0)">n</text><text xml:space="preserve" font-family="Helvetica" font-size="34.0" fill="#EAEAEA" transform="matrix(1.00, 0.00, -0.00, -1.00, 796.8, 195.0)">s</text><text xml:space="preserve" font-family="Helvetica" font-size="34.0" fill="#EAEAEA" transform="matrix(1.00, 0.00, -0.00, -1.00, 813.8, 195.0)">.</text><image xlink:href="../../B17633AA-ADBF-4873-9E9D-75F944E3AC33/assets/1765C135C2D107ABDBD81EFD9EA4EAB3.png" width="15.00" height="14.00" transform="matrix(1.00, 0.00, -0.00, -1.00, 93.0, 129.0)"></image><text xml:space="preserve" font-family="Helvetica" font-size="25.5" fill="#EAEAEA" transform="matrix(1.00, 0.00, -0.00, -1.00, 96.0, 114.8)">•</text><image xlink:href="6AD063C105905498AAF9C2849D429642.png" width="304.00" height="40.00" transform="matrix(1.00, 0.00, -0.00, -1.00, 127.0, 138.0)"></image><text xml:space="preserve" font-family="AndaleMono" font-size="34.0" fill="#EAEAEA" transform="matrix(1.00, 0.00, -0.00, -1.00, 128.0, 112.0)">a</text><text xml:space="preserve" font-family="AndaleMono" font-size="34.0" fill="#EAEAEA" transform="matrix(1.00, 0.00, -0.00, -1.00, 148.4, 112.0)">.</text><text xml:space="preserve" font-family="AndaleMono" font-size="34.0" fill="#EAEAEA" transform="matrix(1.00, 0.00, -0.00, -1.00, 168.8, 112.0)">_</text><text xml:space="preserve" font-family="AndaleMono" font-size="34.0" fill="#EAEAEA" transform="matrix(1.00, 0.00, -0.00, -1.00, 189.2, 112.0)">_</text><text xml:space="preserve" font-family="AndaleMono" font-size="34.0" fill="#EAEAEA" transform="matrix(1.00, 0.00, -0.00, -1.00, 209.6, 112.0)">d</text><text xml:space="preserve" font-family="AndaleMono" font-size="34.0" fill="#EAEAEA" transform="matrix(1.00, 0.00, -0.00, -1.00, 230.0, 112.0)">i</text><text xml:space="preserve" font-family="AndaleMono" font-size="34.0" fill="#EAEAEA" transform="matrix(1.00, 0.00, -0.00, -1.00, 250.4, 112.0)">v</text><text xml:space="preserve" font-family="AndaleMono" font-size="34.0" fill="#EAEAEA" transform="matrix(1.00, 0.00, -0.00, -1.00, 270.8, 112.0)">m</text><text xml:space="preserve" font-family="AndaleMono" font-size="34.0" fill="#EAEAEA" transform="matrix(1.00, 0.00, -0.00, -1.00, 291.3, 112.0)">o</text><text xml:space="preserve" font-family="AndaleMono" font-size="34.0" fill="#EAEAEA" transform="matrix(1.00, 0.00, -0.00, -1.00, 311.7, 112.0)">d</text><text xml:space="preserve" font-family="AndaleMono" font-size="34.0" fill="#EAEAEA" transform="matrix(1.00, 0.00, -0.00, -1.00, 332.1, 112.0)">_</text><text xml:space="preserve" font-family="AndaleMono" font-size="34.0" fill="#EAEAEA" transform="matrix(1.00, 0.00, -0.00, -1.00, 352.5, 112.0)">_</text><text xml:space="preserve" font-family="AndaleMono" font-size="34.0" fill="#EAEAEA" transform="matrix(1.00, 0.00, -0.00, -1.00, 372.9, 112.0)">(</text><text xml:space="preserve" font-family="AndaleMono" font-size="34.0" fill="#EAEAEA" transform="matrix(1.00, 0.00, -0.00, -1.00, 393.3, 112.0)">b</text><text xml:space="preserve" font-family="AndaleMono" font-size="34.0" fill="#EAEAEA" transform="matrix(1.00, 0.00, -0.00, -1.00, 413.7, 112.0)">)</text><image xlink:href="2E9E1B7E99324FEEE1D747446F088903.png" width="38.00" height="28.00" transform="matrix(1.00, 0.00, -0.00, -1.00, 440.0, 133.0)"></image><text xml:space="preserve" font-family="Helvetica" font-size="34.0" fill="#EAEAEA" transform="matrix(1.00, 0.00, -0.00, -1.00, 434.0, 112.0)"> </text><text xml:space="preserve" font-family="Helvetica" font-size="34.0" fill="#EAEAEA" transform="matrix(1.00, 0.00, -0.00, -1.00, 443.5, 112.0)">o</text><text xml:space="preserve" font-family="Helvetica" font-size="34.0" fill="#EAEAEA" transform="matrix(1.00, 0.00, -0.00, -1.00, 462.4, 112.0)">r</text><text xml:space="preserve" font-family="Helvetica" font-size="34.0" fill="#EAEAEA" transform="matrix(1.00, 0.00, -0.00, -1.00, 473.7, 112.0)"> </text><image xlink:href="64BFA3DAFA53ED25DC1A411D7852D676.png" width="325.00" height="40.00" transform="matrix(1.00, 0.00, -0.00, -1.00, 482.0, 138.0)"></image><text xml:space="preserve" font-family="AndaleMono" font-size="34.0" fill="#EAEAEA" transform="matrix(1.00, 0.00, -0.00, -1.00, 483.2, 112.0)">b</text><text xml:space="preserve" font-family="AndaleMono" font-size="34.0" fill="#EAEAEA" transform="matrix(1.00, 0.00, -0.00, -1.00, 503.6, 112.0)">.</text><text xml:space="preserve" font-family="AndaleMono" font-size="34.0" fill="#EAEAEA" transform="matrix(1.00, 0.00, -0.00, -1.00, 524.0, 112.0)">_</text><text xml:space="preserve" font-family="AndaleMono" font-size="34.0" fill="#EAEAEA" transform="matrix(1.00, 0.00, -0.00, -1.00, 544.4, 112.0)">_</text><text xml:space="preserve" font-family="AndaleMono" font-size="34.0" fill="#EAEAEA" transform="matrix(1.00, 0.00, -0.00, -1.00, 564.8, 112.0)">r</text><text xml:space="preserve" font-family="AndaleMono" font-size="34.0" fill="#EAEAEA" transform="matrix(1.00, 0.00, -0.00, -1.00, 585.2, 112.0)">d</text><text xml:space="preserve" font-family="AndaleMono" font-size="34.0" fill="#EAEAEA" transform="matrix(1.00, 0.00, -0.00, -1.00, 605.6, 112.0)">i</text><text xml:space="preserve" font-family="AndaleMono" font-size="34.0" fill="#EAEAEA" transform="matrix(1.00, 0.00, -0.00, -1.00, 626.0, 112.0)">v</text><text xml:space="preserve" font-family="AndaleMono" font-size="34.0" fill="#EAEAEA" transform="matrix(1.00, 0.00, -0.00, -1.00, 646.4, 112.0)">m</text><text xml:space="preserve" font-family="AndaleMono" font-size="34.0" fill="#EAEAEA" transform="matrix(1.00, 0.00, -0.00, -1.00, 666.8, 112.0)">o</text><text xml:space="preserve" font-family="AndaleMono" font-size="34.0" fill="#EAEAEA" transform="matrix(1.00, 0.00, -0.00, -1.00, 687.2, 112.0)">d</text><text xml:space="preserve" font-family="AndaleMono" font-size="34.0" fill="#EAEAEA" transform="matrix(1.00, 0.00, -0.00, -1.00, 707.6, 112.0)">_</text><text xml:space="preserve" font-family="AndaleMono" font-size="34.0" fill="#EAEAEA" transform="matrix(1.00, 0.00, -0.00, -1.00, 728.1, 112.0)">_</text><text xml:space="preserve" font-family="AndaleMono" font-size="34.0" fill="#EAEAEA" transform="matrix(1.00, 0.00, -0.00, -1.00, 748.5, 112.0)">(</text><text xml:space="preserve" font-family="AndaleMono" font-size="34.0" fill="#EAEAEA" transform="matrix(1.00, 0.00, -0.00, -1.00, 768.9, 112.0)">a</text><text xml:space="preserve" font-family="AndaleMono" font-size="34.0" fill="#EAEAEA" transform="matrix(1.00, 0.00, -0.00, -1.00, 789.3, 112.0)">)</text></g></svg>