<?xml version="1.0" encoding="UTF-8" standalone="no"?><svg xmlns="http://www.w3.org/2000/svg" xmlns:xlink="http://www.w3.org/1999/xlink" clip-rule="evenodd" stroke-miterlimit="4.00" viewBox="0 0 1024 768"><desc>SVG generated by Keynote</desc><defs></defs><g transform="matrix(1.00, 0.00, -0.00, -1.00, 0.0, 768.0)"><g><clipPath id="clip-210"><path d="M 0.0 768.0 L 1024.0 768.0 L 1024.0 0.0 L 0.0 0.0 Z M 0.0 768.0 "></path></clipPath><g clip-path="url(#clip-210)"><image xlink:href="../../363ACDF5-F69A-4348-A617-267FC1DCB792/assets/2CA05975C404A6B79EB2D17D5C3EEC1C.jpeg" width="1024.00" height="768.00" transform="matrix(1.00, 0.00, -0.00, -1.00, 0.0, 768.0)"></image></g></g><image xlink:href="../../C910A64B-0A3A-4498-AE05-03120CC0C2C8/assets/1E70BA45F5F3FBA0F5F3C0EE3FB6F824.png" width="748.00" height="67.00" transform="matrix(1.00, 0.00, -0.00, -1.00, 138.0, 693.0)"></image><text xml:space="preserve" font-family="HelveticaNeue-Bold" font-weight="bold" font-size="64.0" fill="#FEFFFE" transform="matrix(1.00, 0.00, -0.00, -1.00, 142.0, 644.0)">T</text><text xml:space="preserve" font-family="HelveticaNeue-Bold" font-weight="bold" font-size="64.0" fill="#FEFFFE" transform="matrix(1.00, 0.00, -0.00, -1.00, 181.1, 644.0)">h</text><text xml:space="preserve" font-family="HelveticaNeue-Bold" font-weight="bold" font-size="64.0" fill="#FEFFFE" transform="matrix(1.00, 0.00, -0.00, -1.00, 219.1, 644.0)">e</text><text xml:space="preserve" font-family="HelveticaNeue-Bold" font-weight="bold" font-size="64.0" fill="#FEFFFE" transform="matrix(1.00, 0.00, -0.00, -1.00, 255.8, 644.0)"> </text><text xml:space="preserve" font-family="HelveticaNeue-Bold" font-weight="bold" font-size="64.0" fill="#FEFFFE" transform="matrix(1.00, 0.00, -0.00, -1.00, 273.6, 644.0)">S</text><text xml:space="preserve" font-family="HelveticaNeue-Bold" font-weight="bold" font-size="64.0" fill="#FEFFFE" transform="matrix(1.00, 0.00, -0.00, -1.00, 315.1, 644.0)">y</text><text xml:space="preserve" font-family="HelveticaNeue-Bold" font-weight="bold" font-size="64.0" fill="#FEFFFE" transform="matrix(1.00, 0.00, -0.00, -1.00, 348.3, 644.0)">r</text><text xml:space="preserve" font-family="HelveticaNeue-Bold" font-weight="bold" font-size="64.0" fill="#FEFFFE" transform="matrix(1.00, 0.00, -0.00, -1.00, 373.2, 644.0)">a</text><text xml:space="preserve" font-family="HelveticaNeue-Bold" font-weight="bold" font-size="64.0" fill="#FEFFFE" transform="matrix(1.00, 0.00, -0.00, -1.00, 410.0, 644.0)">c</text><text xml:space="preserve" font-family="HelveticaNeue-Bold" font-weight="bold" font-size="64.0" fill="#FEFFFE" transform="matrix(1.00, 0.00, -0.00, -1.00, 446.7, 644.0)">u</text><text xml:space="preserve" font-family="HelveticaNeue-Bold" font-weight="bold" font-size="64.0" fill="#FEFFFE" transform="matrix(1.00, 0.00, -0.00, -1.00, 484.7, 644.0)">s</text><text xml:space="preserve" font-family="HelveticaNeue-Bold" font-weight="bold" font-size="64.0" fill="#FEFFFE" transform="matrix(1.00, 0.00, -0.00, -1.00, 519.0, 644.0)">e</text><text xml:space="preserve" font-family="HelveticaNeue-Bold" font-weight="bold" font-size="64.0" fill="#FEFFFE" transform="matrix(1.00, 0.00, -0.00, -1.00, 555.8, 644.0)"> </text><text xml:space="preserve" font-family="HelveticaNeue-Bold" font-weight="bold" font-size="64.0" fill="#FEFFFE" transform="matrix(1.00, 0.00, -0.00, -1.00, 573.6, 644.0)">G</text><text xml:space="preserve" font-family="HelveticaNeue-Bold" font-weight="bold" font-size="64.0" fill="#FEFFFE" transform="matrix(1.00, 0.00, -0.00, -1.00, 622.1, 644.0)">e</text><text xml:space="preserve" font-family="HelveticaNeue-Bold" font-weight="bold" font-size="64.0" fill="#FEFFFE" transform="matrix(1.00, 0.00, -0.00, -1.00, 658.9, 644.0)">n</text><text xml:space="preserve" font-family="HelveticaNeue-Bold" font-weight="bold" font-size="64.0" fill="#FEFFFE" transform="matrix(1.00, 0.00, -0.00, -1.00, 696.8, 644.0)">e</text><text xml:space="preserve" font-family="HelveticaNeue-Bold" font-weight="bold" font-size="64.0" fill="#FEFFFE" transform="matrix(1.00, 0.00, -0.00, -1.00, 733.6, 644.0)">r</text><text xml:space="preserve" font-family="HelveticaNeue-Bold" font-weight="bold" font-size="64.0" fill="#FEFFFE" transform="matrix(1.00, 0.00, -0.00, -1.00, 758.4, 644.0)">a</text><text xml:space="preserve" font-family="HelveticaNeue-Bold" font-weight="bold" font-size="64.0" fill="#FEFFFE" transform="matrix(1.00, 0.00, -0.00, -1.00, 795.2, 644.0)">t</text><text xml:space="preserve" font-family="HelveticaNeue-Bold" font-weight="bold" font-size="64.0" fill="#FEFFFE" transform="matrix(1.00, 0.00, -0.00, -1.00, 817.7, 644.0)">o</text><text xml:space="preserve" font-family="HelveticaNeue-Bold" font-weight="bold" font-size="64.0" fill="#FEFFFE" transform="matrix(1.00, 0.00, -0.00, -1.00, 856.8, 644.0)">r</text><image xlink:href="../../C910A64B-0A3A-4498-AE05-03120CC0C2C8/assets/C93D61AE4771C6E771756D2D0A0394E6.png" width="290.00" height="29.00" transform="matrix(1.00, 0.00, -0.00, -1.00, 62.0, 562.0)"></image><text xml:space="preserve" font-family="AndaleMono" font-size="23.0" fill="#EAEAEA" transform="matrix(1.00, 0.00, -0.00, -1.00, 64.0, 543.0)">d</text><text xml:space="preserve" font-family="AndaleMono" font-size="23.0" fill="#EAEAEA" transform="matrix(1.00, 0.00, -0.00, -1.00, 77.8, 543.0)">e</text><text xml:space="preserve" font-family="AndaleMono" font-size="23.0" fill="#EAEAEA" transform="matrix(1.00, 0.00, -0.00, -1.00, 91.6, 543.0)">f</text><text xml:space="preserve" font-family="AndaleMono" font-size="23.0" fill="#EAEAEA" transform="matrix(1.00, 0.00, -0.00, -1.00, 105.4, 543.0)"> </text><text xml:space="preserve" font-family="AndaleMono" font-size="23.0" fill="#EAEAEA" transform="matrix(1.00, 0.00, -0.00, -1.00, 119.2, 543.0)">s</text><text xml:space="preserve" font-family="AndaleMono" font-size="23.0" fill="#EAEAEA" transform="matrix(1.00, 0.00, -0.00, -1.00, 133.0, 543.0)">y</text><text xml:space="preserve" font-family="AndaleMono" font-size="23.0" fill="#EAEAEA" transform="matrix(1.00, 0.00, -0.00, -1.00, 146.8, 543.0)">r</text><text xml:space="preserve" font-family="AndaleMono" font-size="23.0" fill="#EAEAEA" transform="matrix(1.00, 0.00, -0.00, -1.00, 160.6, 543.0)">a</text><text xml:space="preserve" font-family="AndaleMono" font-size="23.0" fill="#EAEAEA" transform="matrix(1.00, 0.00, -0.00, -1.00, 174.4, 543.0)">c</text><text xml:space="preserve" font-family="AndaleMono" font-size="23.0" fill="#EAEAEA" transform="matrix(1.00, 0.00, -0.00, -1.00, 188.2, 543.0)">u</text><text xml:space="preserve" font-family="AndaleMono" font-size="23.0" fill="#EAEAEA" transform="matrix(1.00, 0.00, -0.00, -1.00, 202.0, 543.0)">s</text><text xml:space="preserve" font-family="AndaleMono" font-size="23.0" fill="#EAEAEA" transform="matrix(1.00, 0.00, -0.00, -1.00, 215.9, 543.0)">e</text><text xml:space="preserve" font-family="AndaleMono" font-size="23.0" fill="#EAEAEA" transform="matrix(1.00, 0.00, -0.00, -1.00, 229.7, 543.0)">_</text><text xml:space="preserve" font-family="AndaleMono" font-size="23.0" fill="#EAEAEA" transform="matrix(1.00, 0.00, -0.00, -1.00, 243.5, 543.0)">i</text><text xml:space="preserve" font-family="AndaleMono" font-size="23.0" fill="#EAEAEA" transform="matrix(1.00, 0.00, -0.00, -1.00, 257.3, 543.0)">t</text><text xml:space="preserve" font-family="AndaleMono" font-size="23.0" fill="#EAEAEA" transform="matrix(1.00, 0.00, -0.00, -1.00, 271.1, 543.0)">e</text><text xml:space="preserve" font-family="AndaleMono" font-size="23.0" fill="#EAEAEA" transform="matrix(1.00, 0.00, -0.00, -1.00, 284.9, 543.0)">r</text><text xml:space="preserve" font-family="AndaleMono" font-size="23.0" fill="#EAEAEA" transform="matrix(1.00, 0.00, -0.00, -1.00, 298.7, 543.0)">(</text><text xml:space="preserve" font-family="AndaleMono" font-size="23.0" fill="#EAEAEA" transform="matrix(1.00, 0.00, -0.00, -1.00, 312.5, 543.0)">n</text><text xml:space="preserve" font-family="AndaleMono" font-size="23.0" fill="#EAEAEA" transform="matrix(1.00, 0.00, -0.00, -1.00, 326.3, 543.0)">)</text><text xml:space="preserve" font-family="AndaleMono" font-size="23.0" fill="#EAEAEA" transform="matrix(1.00, 0.00, -0.00, -1.00, 340.1, 543.0)">:</text><text xml:space="preserve" font-family="AndaleMono" font-size="23.0" fill="#EAEAEA" transform="matrix(1.00, 0.00, -0.00, -1.00, 353.8, 543.0)"> </text><image xlink:href="../../C910A64B-0A3A-4498-AE05-03120CC0C2C8/assets/CFD830F2E804782AEF588C74527DD0A5.png" width="100.00" height="28.00" transform="matrix(1.00, 0.00, -0.00, -1.00, 117.0, 507.0)"></image><text xml:space="preserve" font-family="AndaleMono" font-size="23.0" fill="#EAEAEA" transform="matrix(1.00, 0.00, -0.00, -1.00, 64.0, 488.0)"> </text><text xml:space="preserve" font-family="AndaleMono" font-size="23.0" fill="#EAEAEA" transform="matrix(1.00, 0.00, -0.00, -1.00, 77.8, 488.0)"> </text><text xml:space="preserve" font-family="AndaleMono" font-size="23.0" fill="#EAEAEA" transform="matrix(1.00, 0.00, -0.00, -1.00, 91.6, 488.0)"> </text><text xml:space="preserve" font-family="AndaleMono" font-size="23.0" fill="#EAEAEA" transform="matrix(1.00, 0.00, -0.00, -1.00, 105.4, 488.0)"> </text><text xml:space="preserve" font-family="AndaleMono" font-size="23.0" fill="#EAEAEA" transform="matrix(1.00, 0.00, -0.00, -1.00, 119.2, 488.0)">y</text><text xml:space="preserve" font-family="AndaleMono" font-size="23.0" fill="#EAEAEA" transform="matrix(1.00, 0.00, -0.00, -1.00, 133.0, 488.0)">i</text><text xml:space="preserve" font-family="AndaleMono" font-size="23.0" fill="#EAEAEA" transform="matrix(1.00, 0.00, -0.00, -1.00, 146.8, 488.0)">e</text><text xml:space="preserve" font-family="AndaleMono" font-size="23.0" fill="#EAEAEA" transform="matrix(1.00, 0.00, -0.00, -1.00, 160.6, 488.0)">l</text><text xml:space="preserve" font-family="AndaleMono" font-size="23.0" fill="#EAEAEA" transform="matrix(1.00, 0.00, -0.00, -1.00, 174.4, 488.0)">d</text><text xml:space="preserve" font-family="AndaleMono" font-size="23.0" fill="#EAEAEA" transform="matrix(1.00, 0.00, -0.00, -1.00, 188.2, 488.0)"> </text><text xml:space="preserve" font-family="AndaleMono" font-size="23.0" fill="#EAEAEA" transform="matrix(1.00, 0.00, -0.00, -1.00, 202.0, 488.0)">n</text><text xml:space="preserve" font-family="AndaleMono" font-size="23.0" fill="#EAEAEA" transform="matrix(1.00, 0.00, -0.00, -1.00, 215.8, 488.0)"> </text><image xlink:href="../../C910A64B-0A3A-4498-AE05-03120CC0C2C8/assets/A0319E74A313CD2F80114DAAA5B0911F.png" width="180.00" height="24.00" transform="matrix(1.00, 0.00, -0.00, -1.00, 117.0, 452.0)"></image><text xml:space="preserve" font-family="AndaleMono" font-size="23.0" fill="#EAEAEA" transform="matrix(1.00, 0.00, -0.00, -1.00, 64.0, 433.0)"> </text><text xml:space="preserve" font-family="AndaleMono" font-size="23.0" fill="#EAEAEA" transform="matrix(1.00, 0.00, -0.00, -1.00, 77.8, 433.0)"> </text><text xml:space="preserve" font-family="AndaleMono" font-size="23.0" fill="#EAEAEA" transform="matrix(1.00, 0.00, -0.00, -1.00, 91.6, 433.0)"> </text><text xml:space="preserve" font-family="AndaleMono" font-size="23.0" fill="#EAEAEA" transform="matrix(1.00, 0.00, -0.00, -1.00, 105.4, 433.0)"> </text><text xml:space="preserve" font-family="AndaleMono" font-size="23.0" fill="#EAEAEA" transform="matrix(1.00, 0.00, -0.00, -1.00, 119.2, 433.0)">w</text><text xml:space="preserve" font-family="AndaleMono" font-size="23.0" fill="#EAEAEA" transform="matrix(1.00, 0.00, -0.00, -1.00, 133.0, 433.0)">h</text><text xml:space="preserve" font-family="AndaleMono" font-size="23.0" fill="#EAEAEA" transform="matrix(1.00, 0.00, -0.00, -1.00, 146.8, 433.0)">i</text><text xml:space="preserve" font-family="AndaleMono" font-size="23.0" fill="#EAEAEA" transform="matrix(1.00, 0.00, -0.00, -1.00, 160.6, 433.0)">l</text><text xml:space="preserve" font-family="AndaleMono" font-size="23.0" fill="#EAEAEA" transform="matrix(1.00, 0.00, -0.00, -1.00, 174.4, 433.0)">e</text><text xml:space="preserve" font-family="AndaleMono" font-size="23.0" fill="#EAEAEA" transform="matrix(1.00, 0.00, -0.00, -1.00, 188.2, 433.0)"> </text><text xml:space="preserve" font-family="AndaleMono" font-size="23.0" fill="#EAEAEA" transform="matrix(1.00, 0.00, -0.00, -1.00, 202.0, 433.0)">n</text><text xml:space="preserve" font-family="AndaleMono" font-size="23.0" fill="#EAEAEA" transform="matrix(1.00, 0.00, -0.00, -1.00, 215.9, 433.0)"> </text><text xml:space="preserve" font-family="AndaleMono" font-size="23.0" fill="#EAEAEA" transform="matrix(1.00, 0.00, -0.00, -1.00, 229.7, 433.0)">!</text><text xml:space="preserve" font-family="AndaleMono" font-size="23.0" fill="#EAEAEA" transform="matrix(1.00, 0.00, -0.00, -1.00, 243.5, 433.0)">=</text><text xml:space="preserve" font-family="AndaleMono" font-size="23.0" fill="#EAEAEA" transform="matrix(1.00, 0.00, -0.00, -1.00, 257.3, 433.0)"> </text><text xml:space="preserve" font-family="AndaleMono" font-size="23.0" fill="#EAEAEA" transform="matrix(1.00, 0.00, -0.00, -1.00, 271.1, 433.0)">1</text><text xml:space="preserve" font-family="AndaleMono" font-size="23.0" fill="#EAEAEA" transform="matrix(1.00, 0.00, -0.00, -1.00, 284.9, 433.0)">:</text><text xml:space="preserve" font-family="AndaleMono" font-size="23.0" fill="#EAEAEA" transform="matrix(1.00, 0.00, -0.00, -1.00, 298.6, 433.0)"> </text><image xlink:href="../../C910A64B-0A3A-4498-AE05-03120CC0C2C8/assets/9FD3AFFC91A88281C1E50C999F1F2C87.png" width="193.00" height="28.00" transform="matrix(1.00, 0.00, -0.00, -1.00, 173.0, 397.0)"></image><text xml:space="preserve" font-family="AndaleMono" font-size="23.0" fill="#EAEAEA" transform="matrix(1.00, 0.00, -0.00, -1.00, 64.0, 378.0)"> </text><text xml:space="preserve" font-family="AndaleMono" font-size="23.0" fill="#EAEAEA" transform="matrix(1.00, 0.00, -0.00, -1.00, 77.8, 378.0)"> </text><text xml:space="preserve" font-family="AndaleMono" font-size="23.0" fill="#EAEAEA" transform="matrix(1.00, 0.00, -0.00, -1.00, 91.6, 378.0)"> </text><text xml:space="preserve" font-family="AndaleMono" font-size="23.0" fill="#EAEAEA" transform="matrix(1.00, 0.00, -0.00, -1.00, 105.4, 378.0)"> </text><text xml:space="preserve" font-family="AndaleMono" font-size="23.0" fill="#EAEAEA" transform="matrix(1.00, 0.00, -0.00, -1.00, 119.2, 378.0)"> </text><text xml:space="preserve" font-family="AndaleMono" font-size="23.0" fill="#EAEAEA" transform="matrix(1.00, 0.00, -0.00, -1.00, 133.0, 378.0)"> </text><text xml:space="preserve" font-family="AndaleMono" font-size="23.0" fill="#EAEAEA" transform="matrix(1.00, 0.00, -0.00, -1.00, 146.8, 378.0)"> </text><text xml:space="preserve" font-family="AndaleMono" font-size="23.0" fill="#EAEAEA" transform="matrix(1.00, 0.00, -0.00, -1.00, 160.6, 378.0)"> </text><text xml:space="preserve" font-family="AndaleMono" font-size="23.0" fill="#EAEAEA" transform="matrix(1.00, 0.00, -0.00, -1.00, 174.4, 378.0)">n</text><text xml:space="preserve" font-family="AndaleMono" font-size="23.0" fill="#EAEAEA" transform="matrix(1.00, 0.00, -0.00, -1.00, 188.2, 378.0)">=</text><text xml:space="preserve" font-family="AndaleMono" font-size="23.0" fill="#EAEAEA" transform="matrix(1.00, 0.00, -0.00, -1.00, 202.0, 378.0)"> </text><text xml:space="preserve" font-family="AndaleMono" font-size="23.0" fill="#EAEAEA" transform="matrix(1.00, 0.00, -0.00, -1.00, 215.9, 378.0)">s</text><text xml:space="preserve" font-family="AndaleMono" font-size="23.0" fill="#EAEAEA" transform="matrix(1.00, 0.00, -0.00, -1.00, 229.7, 378.0)">y</text><text xml:space="preserve" font-family="AndaleMono" font-size="23.0" fill="#EAEAEA" transform="matrix(1.00, 0.00, -0.00, -1.00, 243.5, 378.0)">r</text><text xml:space="preserve" font-family="AndaleMono" font-size="23.0" fill="#EAEAEA" transform="matrix(1.00, 0.00, -0.00, -1.00, 257.3, 378.0)">a</text><text xml:space="preserve" font-family="AndaleMono" font-size="23.0" fill="#EAEAEA" transform="matrix(1.00, 0.00, -0.00, -1.00, 271.1, 378.0)">c</text><text xml:space="preserve" font-family="AndaleMono" font-size="23.0" fill="#EAEAEA" transform="matrix(1.00, 0.00, -0.00, -1.00, 284.9, 378.0)">u</text><text xml:space="preserve" font-family="AndaleMono" font-size="23.0" fill="#EAEAEA" transform="matrix(1.00, 0.00, -0.00, -1.00, 298.7, 378.0)">s</text><text xml:space="preserve" font-family="AndaleMono" font-size="23.0" fill="#EAEAEA" transform="matrix(1.00, 0.00, -0.00, -1.00, 312.5, 378.0)">e</text><text xml:space="preserve" font-family="AndaleMono" font-size="23.0" fill="#EAEAEA" transform="matrix(1.00, 0.00, -0.00, -1.00, 326.3, 378.0)">(</text><text xml:space="preserve" font-family="AndaleMono" font-size="23.0" fill="#EAEAEA" transform="matrix(1.00, 0.00, -0.00, -1.00, 340.1, 378.0)">n</text><text xml:space="preserve" font-family="AndaleMono" font-size="23.0" fill="#EAEAEA" transform="matrix(1.00, 0.00, -0.00, -1.00, 353.9, 378.0)">)</text><text xml:space="preserve" font-family="AndaleMono" font-size="23.0" fill="#EAEAEA" transform="matrix(1.00, 0.00, -0.00, -1.00, 367.7, 378.0)"> </text><text xml:space="preserve" font-family="AndaleMono" font-size="23.0" fill="#EAEAEA" transform="matrix(1.00, 0.00, -0.00, -1.00, 381.5, 378.0)"> </text><image xlink:href="../../C910A64B-0A3A-4498-AE05-03120CC0C2C8/assets/72322B3E6FEC6C818AF8727B6DC648D3.png" width="100.00" height="28.00" transform="matrix(1.00, 0.00, -0.00, -1.00, 172.0, 342.0)"></image><text xml:space="preserve" font-family="AndaleMono" font-size="23.0" fill="#EAEAEA" transform="matrix(1.00, 0.00, -0.00, -1.00, 64.0, 323.0)"> </text><text xml:space="preserve" font-family="AndaleMono" font-size="23.0" fill="#EAEAEA" transform="matrix(1.00, 0.00, -0.00, -1.00, 77.8, 323.0)"> </text><text xml:space="preserve" font-family="AndaleMono" font-size="23.0" fill="#EAEAEA" transform="matrix(1.00, 0.00, -0.00, -1.00, 91.6, 323.0)"> </text><text xml:space="preserve" font-family="AndaleMono" font-size="23.0" fill="#EAEAEA" transform="matrix(1.00, 0.00, -0.00, -1.00, 105.4, 323.0)"> </text><text xml:space="preserve" font-family="AndaleMono" font-size="23.0" fill="#EAEAEA" transform="matrix(1.00, 0.00, -0.00, -1.00, 119.2, 323.0)"> </text><text xml:space="preserve" font-family="AndaleMono" font-size="23.0" fill="#EAEAEA" transform="matrix(1.00, 0.00, -0.00, -1.00, 133.0, 323.0)"> </text><text xml:space="preserve" font-family="AndaleMono" font-size="23.0" fill="#EAEAEA" transform="matrix(1.00, 0.00, -0.00, -1.00, 146.8, 323.0)"> </text><text xml:space="preserve" font-family="AndaleMono" font-size="23.0" fill="#EAEAEA" transform="matrix(1.00, 0.00, -0.00, -1.00, 160.6, 323.0)"> </text><text xml:space="preserve" font-family="AndaleMono" font-size="23.0" fill="#EAEAEA" transform="matrix(1.00, 0.00, -0.00, -1.00, 174.4, 323.0)">y</text><text xml:space="preserve" font-family="AndaleMono" font-size="23.0" fill="#EAEAEA" transform="matrix(1.00, 0.00, -0.00, -1.00, 188.2, 323.0)">i</text><text xml:space="preserve" font-family="AndaleMono" font-size="23.0" fill="#EAEAEA" transform="matrix(1.00, 0.00, -0.00, -1.00, 202.0, 323.0)">e</text><text xml:space="preserve" font-family="AndaleMono" font-size="23.0" fill="#EAEAEA" transform="matrix(1.00, 0.00, -0.00, -1.00, 215.9, 323.0)">l</text><text xml:space="preserve" font-family="AndaleMono" font-size="23.0" fill="#EAEAEA" transform="matrix(1.00, 0.00, -0.00, -1.00, 229.7, 323.0)">d</text><text xml:space="preserve" font-family="AndaleMono" font-size="23.0" fill="#EAEAEA" transform="matrix(1.00, 0.00, -0.00, -1.00, 243.5, 323.0)"> </text><text xml:space="preserve" font-family="AndaleMono" font-size="23.0" fill="#EAEAEA" transform="matrix(1.00, 0.00, -0.00, -1.00, 257.3, 323.0)">n</text><text xml:space="preserve" font-family="AndaleMono" font-size="23.0" fill="#EAEAEA" transform="matrix(1.00, 0.00, -0.00, -1.00, 271.0, 323.0)"> </text><image xlink:href="../../9A823512-6C43-4683-BE4A-FA6B1CF40B56/assets/F628CE11FF0CD75BEC860F27054C3F05.png" width="13.00" height="13.00" transform="matrix(1.00, 0.00, -0.00, -1.00, 62.0, 280.0)"></image><text xml:space="preserve" font-family="HelveticaNeue-Medium" font-size="17.2" fill="#EAEAEA" transform="matrix(1.00, 0.00, -0.00, -1.00, 64.0, 268.3)">•</text><image xlink:href="../../C910A64B-0A3A-4498-AE05-03120CC0C2C8/assets/E0B61C9BC92F9F41448A2E0B4634D1C7.png" width="316.00" height="28.00" transform="matrix(1.00, 0.00, -0.00, -1.00, 83.0, 286.0)"></image><text xml:space="preserve" font-family="HelveticaNeue-Medium" font-size="23.0" fill="#EAEAEA" transform="matrix(1.00, 0.00, -0.00, -1.00, 86.0, 267.0)">W</text><text xml:space="preserve" font-family="HelveticaNeue-Medium" font-size="23.0" fill="#EAEAEA" transform="matrix(1.00, 0.00, -0.00, -1.00, 107.7, 267.0)">i</text><text xml:space="preserve" font-family="HelveticaNeue-Medium" font-size="23.0" fill="#EAEAEA" transform="matrix(1.00, 0.00, -0.00, -1.00, 113.3, 267.0)">l</text><text xml:space="preserve" font-family="HelveticaNeue-Medium" font-size="23.0" fill="#EAEAEA" transform="matrix(1.00, 0.00, -0.00, -1.00, 118.8, 267.0)">l</text><text xml:space="preserve" font-family="HelveticaNeue-Medium" font-size="23.0" fill="#EAEAEA" transform="matrix(1.00, 0.00, -0.00, -1.00, 124.3, 267.0)"> </text><text xml:space="preserve" font-family="HelveticaNeue-Medium" font-size="23.0" fill="#EAEAEA" transform="matrix(1.00, 0.00, -0.00, -1.00, 130.7, 267.0)">y</text><text xml:space="preserve" font-family="HelveticaNeue-Medium" font-size="23.0" fill="#EAEAEA" transform="matrix(1.00, 0.00, -0.00, -1.00, 142.7, 267.0)">i</text><text xml:space="preserve" font-family="HelveticaNeue-Medium" font-size="23.0" fill="#EAEAEA" transform="matrix(1.00, 0.00, -0.00, -1.00, 148.2, 267.0)">e</text><text xml:space="preserve" font-family="HelveticaNeue-Medium" font-size="23.0" fill="#EAEAEA" transform="matrix(1.00, 0.00, -0.00, -1.00, 161.0, 267.0)">l</text><text xml:space="preserve" font-family="HelveticaNeue-Medium" font-size="23.0" fill="#EAEAEA" transform="matrix(1.00, 0.00, -0.00, -1.00, 166.5, 267.0)">d</text><text xml:space="preserve" font-family="HelveticaNeue-Medium" font-size="23.0" fill="#EAEAEA" transform="matrix(1.00, 0.00, -0.00, -1.00, 180.6, 267.0)"> </text><text xml:space="preserve" font-family="HelveticaNeue-Medium" font-size="23.0" fill="#EAEAEA" transform="matrix(1.00, 0.00, -0.00, -1.00, 187.0, 267.0)">t</text><text xml:space="preserve" font-family="HelveticaNeue-Medium" font-size="23.0" fill="#EAEAEA" transform="matrix(1.00, 0.00, -0.00, -1.00, 194.7, 267.0)">h</text><text xml:space="preserve" font-family="HelveticaNeue-Medium" font-size="23.0" fill="#EAEAEA" transform="matrix(1.00, 0.00, -0.00, -1.00, 207.9, 267.0)">e</text><text xml:space="preserve" font-family="HelveticaNeue-Medium" font-size="23.0" fill="#EAEAEA" transform="matrix(1.00, 0.00, -0.00, -1.00, 220.6, 267.0)"> </text><text xml:space="preserve" font-family="HelveticaNeue-Medium" font-size="23.0" fill="#EAEAEA" transform="matrix(1.00, 0.00, -0.00, -1.00, 227.0, 267.0)">s</text><text xml:space="preserve" font-family="HelveticaNeue-Medium" font-size="23.0" fill="#EAEAEA" transform="matrix(1.00, 0.00, -0.00, -1.00, 239.0, 267.0)">t</text><text xml:space="preserve" font-family="HelveticaNeue-Medium" font-size="23.0" fill="#EAEAEA" transform="matrix(1.00, 0.00, -0.00, -1.00, 246.6, 267.0)">a</text><text xml:space="preserve" font-family="HelveticaNeue-Medium" font-size="23.0" fill="#EAEAEA" transform="matrix(1.00, 0.00, -0.00, -1.00, 259.4, 267.0)">r</text><text xml:space="preserve" font-family="HelveticaNeue-Medium" font-size="23.0" fill="#EAEAEA" transform="matrix(1.00, 0.00, -0.00, -1.00, 267.5, 267.0)">t</text><text xml:space="preserve" font-family="HelveticaNeue-Medium" font-size="23.0" fill="#EAEAEA" transform="matrix(1.00, 0.00, -0.00, -1.00, 275.2, 267.0)">i</text><text xml:space="preserve" font-family="HelveticaNeue-Medium" font-size="23.0" fill="#EAEAEA" transform="matrix(1.00, 0.00, -0.00, -1.00, 280.7, 267.0)">n</text><text xml:space="preserve" font-family="HelveticaNeue-Medium" font-size="23.0" fill="#EAEAEA" transform="matrix(1.00, 0.00, -0.00, -1.00, 293.9, 267.0)">g</text><text xml:space="preserve" font-family="HelveticaNeue-Medium" font-size="23.0" fill="#EAEAEA" transform="matrix(1.00, 0.00, -0.00, -1.00, 307.6, 267.0)"> </text><text xml:space="preserve" font-family="HelveticaNeue-Medium" font-size="23.0" fill="#EAEAEA" transform="matrix(1.00, 0.00, -0.00, -1.00, 314.0, 267.0)">n</text><text xml:space="preserve" font-family="HelveticaNeue-Medium" font-size="23.0" fill="#EAEAEA" transform="matrix(1.00, 0.00, -0.00, -1.00, 327.2, 267.0)">u</text><text xml:space="preserve" font-family="HelveticaNeue-Medium" font-size="23.0" fill="#EAEAEA" transform="matrix(1.00, 0.00, -0.00, -1.00, 340.4, 267.0)">m</text><text xml:space="preserve" font-family="HelveticaNeue-Medium" font-size="23.0" fill="#EAEAEA" transform="matrix(1.00, 0.00, -0.00, -1.00, 360.4, 267.0)">b</text><text xml:space="preserve" font-family="HelveticaNeue-Medium" font-size="23.0" fill="#EAEAEA" transform="matrix(1.00, 0.00, -0.00, -1.00, 374.4, 267.0)">e</text><text xml:space="preserve" font-family="HelveticaNeue-Medium" font-size="23.0" fill="#EAEAEA" transform="matrix(1.00, 0.00, -0.00, -1.00, 387.2, 267.0)">r</text><text xml:space="preserve" font-family="HelveticaNeue-Medium" font-size="23.0" fill="#EAEAEA" transform="matrix(1.00, 0.00, -0.00, -1.00, 395.3, 267.0)"> </text><image xlink:href="../../9A823512-6C43-4683-BE4A-FA6B1CF40B56/assets/F628CE11FF0CD75BEC860F27054C3F05.png" width="13.00" height="13.00" transform="matrix(1.00, 0.00, -0.00, -1.00, 62.0, 223.0)"></image><text xml:space="preserve" font-family="HelveticaNeue-Medium" font-size="17.2" fill="#EAEAEA" transform="matrix(1.00, 0.00, -0.00, -1.00, 64.0, 211.3)">•</text><image xlink:href="../../C910A64B-0A3A-4498-AE05-03120CC0C2C8/assets/36F30D7DDE03CCF2C38064CC68837A3A.png" width="598.00" height="28.00" transform="matrix(1.00, 0.00, -0.00, -1.00, 83.0, 229.0)"></image><text xml:space="preserve" font-family="HelveticaNeue-Medium" font-size="23.0" fill="#EAEAEA" transform="matrix(1.00, 0.00, -0.00, -1.00, 86.0, 210.0)">W</text><text xml:space="preserve" font-family="HelveticaNeue-Medium" font-size="23.0" fill="#EAEAEA" transform="matrix(1.00, 0.00, -0.00, -1.00, 107.7, 210.0)">h</text><text xml:space="preserve" font-family="HelveticaNeue-Medium" font-size="23.0" fill="#EAEAEA" transform="matrix(1.00, 0.00, -0.00, -1.00, 120.9, 210.0)">i</text><text xml:space="preserve" font-family="HelveticaNeue-Medium" font-size="23.0" fill="#EAEAEA" transform="matrix(1.00, 0.00, -0.00, -1.00, 126.5, 210.0)">l</text><text xml:space="preserve" font-family="HelveticaNeue-Medium" font-size="23.0" fill="#EAEAEA" transform="matrix(1.00, 0.00, -0.00, -1.00, 132.0, 210.0)">e</text><text xml:space="preserve" font-family="HelveticaNeue-Medium" font-size="23.0" fill="#EAEAEA" transform="matrix(1.00, 0.00, -0.00, -1.00, 144.8, 210.0)"> </text><text xml:space="preserve" font-family="HelveticaNeue-Medium" font-size="23.0" fill="#EAEAEA" transform="matrix(1.00, 0.00, -0.00, -1.00, 151.2, 210.0)">n</text><text xml:space="preserve" font-family="HelveticaNeue-Medium" font-size="23.0" fill="#EAEAEA" transform="matrix(1.00, 0.00, -0.00, -1.00, 164.4, 210.0)"> </text><text xml:space="preserve" font-family="HelveticaNeue-Medium" font-size="23.0" fill="#EAEAEA" transform="matrix(1.00, 0.00, -0.00, -1.00, 170.8, 210.0)">!</text><text xml:space="preserve" font-family="HelveticaNeue-Medium" font-size="23.0" fill="#EAEAEA" transform="matrix(1.00, 0.00, -0.00, -1.00, 177.2, 210.0)">=</text><text xml:space="preserve" font-family="HelveticaNeue-Medium" font-size="23.0" fill="#EAEAEA" transform="matrix(1.00, 0.00, -0.00, -1.00, 191.0, 210.0)"> </text><text xml:space="preserve" font-family="HelveticaNeue-Medium" font-size="23.0" fill="#EAEAEA" transform="matrix(1.00, 0.00, -0.00, -1.00, 197.4, 210.0)">1</text><text xml:space="preserve" font-family="HelveticaNeue-Medium" font-size="23.0" fill="#EAEAEA" transform="matrix(1.00, 0.00, -0.00, -1.00, 210.2, 210.0)"> </text><text xml:space="preserve" font-family="HelveticaNeue-Medium" font-size="23.0" fill="#EAEAEA" transform="matrix(1.00, 0.00, -0.00, -1.00, 216.5, 210.0)">w</text><text xml:space="preserve" font-family="HelveticaNeue-Medium" font-size="23.0" fill="#EAEAEA" transform="matrix(1.00, 0.00, -0.00, -1.00, 234.4, 210.0)">i</text><text xml:space="preserve" font-family="HelveticaNeue-Medium" font-size="23.0" fill="#EAEAEA" transform="matrix(1.00, 0.00, -0.00, -1.00, 240.0, 210.0)">l</text><text xml:space="preserve" font-family="HelveticaNeue-Medium" font-size="23.0" fill="#EAEAEA" transform="matrix(1.00, 0.00, -0.00, -1.00, 245.5, 210.0)">l</text><text xml:space="preserve" font-family="HelveticaNeue-Medium" font-size="23.0" fill="#EAEAEA" transform="matrix(1.00, 0.00, -0.00, -1.00, 251.1, 210.0)"> </text><text xml:space="preserve" font-family="HelveticaNeue-Medium" font-size="23.0" fill="#EAEAEA" transform="matrix(1.00, 0.00, -0.00, -1.00, 257.5, 210.0)">a</text><text xml:space="preserve" font-family="HelveticaNeue-Medium" font-size="23.0" fill="#EAEAEA" transform="matrix(1.00, 0.00, -0.00, -1.00, 270.3, 210.0)">p</text><text xml:space="preserve" font-family="HelveticaNeue-Medium" font-size="23.0" fill="#EAEAEA" transform="matrix(1.00, 0.00, -0.00, -1.00, 284.3, 210.0)">p</text><text xml:space="preserve" font-family="HelveticaNeue-Medium" font-size="23.0" fill="#EAEAEA" transform="matrix(1.00, 0.00, -0.00, -1.00, 298.4, 210.0)">l</text><text xml:space="preserve" font-family="HelveticaNeue-Medium" font-size="23.0" fill="#EAEAEA" transform="matrix(1.00, 0.00, -0.00, -1.00, 303.9, 210.0)">y</text><text xml:space="preserve" font-family="HelveticaNeue-Medium" font-size="23.0" fill="#EAEAEA" transform="matrix(1.00, 0.00, -0.00, -1.00, 315.8, 210.0)"> </text><text xml:space="preserve" font-family="HelveticaNeue-Medium" font-size="23.0" fill="#EAEAEA" transform="matrix(1.00, 0.00, -0.00, -1.00, 322.2, 210.0)">t</text><text xml:space="preserve" font-family="HelveticaNeue-Medium" font-size="23.0" fill="#EAEAEA" transform="matrix(1.00, 0.00, -0.00, -1.00, 329.9, 210.0)">h</text><text xml:space="preserve" font-family="HelveticaNeue-Medium" font-size="23.0" fill="#EAEAEA" transform="matrix(1.00, 0.00, -0.00, -1.00, 343.1, 210.0)">e</text><text xml:space="preserve" font-family="HelveticaNeue-Medium" font-size="23.0" fill="#EAEAEA" transform="matrix(1.00, 0.00, -0.00, -1.00, 355.9, 210.0)"> </text><text xml:space="preserve" font-family="HelveticaNeue-Medium" font-size="23.0" fill="#EAEAEA" transform="matrix(1.00, 0.00, -0.00, -1.00, 362.3, 210.0)">f</text><text xml:space="preserve" font-family="HelveticaNeue-Medium" font-size="23.0" fill="#EAEAEA" transform="matrix(1.00, 0.00, -0.00, -1.00, 369.5, 210.0)">u</text><text xml:space="preserve" font-family="HelveticaNeue-Medium" font-size="23.0" fill="#EAEAEA" transform="matrix(1.00, 0.00, -0.00, -1.00, 382.7, 210.0)">n</text><text xml:space="preserve" font-family="HelveticaNeue-Medium" font-size="23.0" fill="#EAEAEA" transform="matrix(1.00, 0.00, -0.00, -1.00, 395.9, 210.0)">c</text><text xml:space="preserve" font-family="HelveticaNeue-Medium" font-size="23.0" fill="#EAEAEA" transform="matrix(1.00, 0.00, -0.00, -1.00, 408.7, 210.0)">t</text><text xml:space="preserve" font-family="HelveticaNeue-Medium" font-size="23.0" fill="#EAEAEA" transform="matrix(1.00, 0.00, -0.00, -1.00, 416.4, 210.0)">i</text><text xml:space="preserve" font-family="HelveticaNeue-Medium" font-size="23.0" fill="#EAEAEA" transform="matrix(1.00, 0.00, -0.00, -1.00, 421.9, 210.0)">o</text><text xml:space="preserve" font-family="HelveticaNeue-Medium" font-size="23.0" fill="#EAEAEA" transform="matrix(1.00, 0.00, -0.00, -1.00, 435.6, 210.0)">n</text><text xml:space="preserve" font-family="HelveticaNeue-Medium" font-size="23.0" fill="#EAEAEA" transform="matrix(1.00, 0.00, -0.00, -1.00, 448.8, 210.0)"> </text><text xml:space="preserve" font-family="HelveticaNeue-Medium" font-size="23.0" fill="#EAEAEA" transform="matrix(1.00, 0.00, -0.00, -1.00, 455.2, 210.0)">a</text><text xml:space="preserve" font-family="HelveticaNeue-Medium" font-size="23.0" fill="#EAEAEA" transform="matrix(1.00, 0.00, -0.00, -1.00, 467.9, 210.0)">n</text><text xml:space="preserve" font-family="HelveticaNeue-Medium" font-size="23.0" fill="#EAEAEA" transform="matrix(1.00, 0.00, -0.00, -1.00, 481.1, 210.0)">d</text><text xml:space="preserve" font-family="HelveticaNeue-Medium" font-size="23.0" fill="#EAEAEA" transform="matrix(1.00, 0.00, -0.00, -1.00, 495.2, 210.0)"> </text><text xml:space="preserve" font-family="HelveticaNeue-Medium" font-size="23.0" fill="#EAEAEA" transform="matrix(1.00, 0.00, -0.00, -1.00, 501.6, 210.0)">y</text><text xml:space="preserve" font-family="HelveticaNeue-Medium" font-size="23.0" fill="#EAEAEA" transform="matrix(1.00, 0.00, -0.00, -1.00, 513.5, 210.0)">i</text><text xml:space="preserve" font-family="HelveticaNeue-Medium" font-size="23.0" fill="#EAEAEA" transform="matrix(1.00, 0.00, -0.00, -1.00, 519.1, 210.0)">e</text><text xml:space="preserve" font-family="HelveticaNeue-Medium" font-size="23.0" fill="#EAEAEA" transform="matrix(1.00, 0.00, -0.00, -1.00, 531.9, 210.0)">l</text><text xml:space="preserve" font-family="HelveticaNeue-Medium" font-size="23.0" fill="#EAEAEA" transform="matrix(1.00, 0.00, -0.00, -1.00, 537.4, 210.0)">d</text><text xml:space="preserve" font-family="HelveticaNeue-Medium" font-size="23.0" fill="#EAEAEA" transform="matrix(1.00, 0.00, -0.00, -1.00, 551.5, 210.0)"> </text><text xml:space="preserve" font-family="HelveticaNeue-Medium" font-size="23.0" fill="#EAEAEA" transform="matrix(1.00, 0.00, -0.00, -1.00, 557.8, 210.0)">n</text><text xml:space="preserve" font-family="HelveticaNeue-Medium" font-size="23.0" fill="#EAEAEA" transform="matrix(1.00, 0.00, -0.00, -1.00, 571.0, 210.0)">e</text><text xml:space="preserve" font-family="HelveticaNeue-Medium" font-size="23.0" fill="#EAEAEA" transform="matrix(1.00, 0.00, -0.00, -1.00, 583.8, 210.0)">x</text><text xml:space="preserve" font-family="HelveticaNeue-Medium" font-size="23.0" fill="#EAEAEA" transform="matrix(1.00, 0.00, -0.00, -1.00, 596.2, 210.0)">t</text><text xml:space="preserve" font-family="HelveticaNeue-Medium" font-size="23.0" fill="#EAEAEA" transform="matrix(1.00, 0.00, -0.00, -1.00, 603.8, 210.0)"> </text><text xml:space="preserve" font-family="HelveticaNeue-Medium" font-size="23.0" fill="#EAEAEA" transform="matrix(1.00, 0.00, -0.00, -1.00, 610.2, 210.0)">v</text><text xml:space="preserve" font-family="HelveticaNeue-Medium" font-size="23.0" fill="#EAEAEA" transform="matrix(1.00, 0.00, -0.00, -1.00, 622.2, 210.0)">a</text><text xml:space="preserve" font-family="HelveticaNeue-Medium" font-size="23.0" fill="#EAEAEA" transform="matrix(1.00, 0.00, -0.00, -1.00, 635.0, 210.0)">l</text><text xml:space="preserve" font-family="HelveticaNeue-Medium" font-size="23.0" fill="#EAEAEA" transform="matrix(1.00, 0.00, -0.00, -1.00, 640.5, 210.0)">u</text><text xml:space="preserve" font-family="HelveticaNeue-Medium" font-size="23.0" fill="#EAEAEA" transform="matrix(1.00, 0.00, -0.00, -1.00, 653.7, 210.0)">e</text><text xml:space="preserve" font-family="HelveticaNeue-Medium" font-size="23.0" fill="#EAEAEA" transform="matrix(1.00, 0.00, -0.00, -1.00, 666.5, 210.0)">s</text><text xml:space="preserve" font-family="HelveticaNeue-Medium" font-size="23.0" fill="#EAEAEA" transform="matrix(1.00, 0.00, -0.00, -1.00, 678.4, 210.0)"> </text><image xlink:href="../../9A823512-6C43-4683-BE4A-FA6B1CF40B56/assets/F628CE11FF0CD75BEC860F27054C3F05.png" width="13.00" height="13.00" transform="matrix(1.00, 0.00, -0.00, -1.00, 62.0, 166.0)"></image><text xml:space="preserve" font-family="HelveticaNeue-Medium" font-size="17.2" fill="#EAEAEA" transform="matrix(1.00, 0.00, -0.00, -1.00, 64.0, 154.3)">•</text><image xlink:href="../../C910A64B-0A3A-4498-AE05-03120CC0C2C8/assets/44A73476A9C5E7B37CBB1E03B6638D6B.png" width="132.00" height="28.00" transform="matrix(1.00, 0.00, -0.00, -1.00, 84.0, 172.0)"></image><text xml:space="preserve" font-family="HelveticaNeue-Medium" font-size="23.0" fill="#EAEAEA" transform="matrix(1.00, 0.00, -0.00, -1.00, 86.0, 153.0)">B</text><text xml:space="preserve" font-family="HelveticaNeue-Medium" font-size="23.0" fill="#EAEAEA" transform="matrix(1.00, 0.00, -0.00, -1.00, 102.2, 153.0)">u</text><text xml:space="preserve" font-family="HelveticaNeue-Medium" font-size="23.0" fill="#EAEAEA" transform="matrix(1.00, 0.00, -0.00, -1.00, 115.4, 153.0)">t</text><text xml:space="preserve" font-family="HelveticaNeue-Medium" font-size="23.0" fill="#EAEAEA" transform="matrix(1.00, 0.00, -0.00, -1.00, 123.1, 153.0)"> </text><text xml:space="preserve" font-family="HelveticaNeue-Medium" font-size="23.0" fill="#EAEAEA" transform="matrix(1.00, 0.00, -0.00, -1.00, 129.4, 153.0)">i</text><text xml:space="preserve" font-family="HelveticaNeue-Medium" font-size="23.0" fill="#EAEAEA" transform="matrix(1.00, 0.00, -0.00, -1.00, 135.0, 153.0)">t</text><text xml:space="preserve" font-family="HelveticaNeue-Medium" font-size="23.0" fill="#EAEAEA" transform="matrix(1.00, 0.00, -0.00, -1.00, 142.6, 153.0)">’</text><text xml:space="preserve" font-family="HelveticaNeue-Medium" font-size="23.0" fill="#EAEAEA" transform="matrix(1.00, 0.00, -0.00, -1.00, 147.3, 153.0)">s</text><text xml:space="preserve" font-family="HelveticaNeue-Medium" font-size="23.0" fill="#EAEAEA" transform="matrix(1.00, 0.00, -0.00, -1.00, 159.3, 153.0)"> </text><text xml:space="preserve" font-family="HelveticaNeue-Medium" font-size="23.0" fill="#EAEAEA" transform="matrix(1.00, 0.00, -0.00, -1.00, 165.7, 153.0)">l</text><text xml:space="preserve" font-family="HelveticaNeue-Medium" font-size="23.0" fill="#EAEAEA" transform="matrix(1.00, 0.00, -0.00, -1.00, 171.2, 153.0)">a</text><text xml:space="preserve" font-family="HelveticaNeue-Medium" font-size="23.0" fill="#EAEAEA" transform="matrix(1.00, 0.00, -0.00, -1.00, 184.0, 153.0)">z</text><text xml:space="preserve" font-family="HelveticaNeue-Medium" font-size="23.0" fill="#EAEAEA" transform="matrix(1.00, 0.00, -0.00, -1.00, 195.5, 153.0)">y</text><text xml:space="preserve" font-family="HelveticaNeue-Medium" font-size="23.0" fill="#EAEAEA" transform="matrix(1.00, 0.00, -0.00, -1.00, 207.4, 153.0)">!</text><text xml:space="preserve" font-family="HelveticaNeue-Medium" font-size="23.0" fill="#EAEAEA" transform="matrix(1.00, 0.00, -0.00, -1.00, 213.8, 153.0)"> </text><image xlink:href="../../C910A64B-0A3A-4498-AE05-03120CC0C2C8/assets/88911CC285BE96C7371541DE9ABD156D.png" width="13.00" height="13.00" transform="matrix(1.00, 0.00, -0.00, -1.00, 84.0, 109.0)"></image><text xml:space="preserve" font-family="HelveticaNeue-Medium" font-size="17.2" fill="#EAEAEA" transform="matrix(1.00, 0.00, -0.00, -1.00, 86.4, 97.0)">•</text><image xlink:href="../../C910A64B-0A3A-4498-AE05-03120CC0C2C8/assets/F5D8BA6804DEDBF9804BE2FD041EFA0E.png" width="200.00" height="28.00" transform="matrix(1.00, 0.00, -0.00, -1.00, 106.0, 114.0)"></image><text xml:space="preserve" font-family="HelveticaNeue-Medium" font-size="23.0" fill="#EAEAEA" transform="matrix(1.00, 0.00, -0.00, -1.00, 109.0, 95.0)">O</text><text xml:space="preserve" font-family="HelveticaNeue-Medium" font-size="23.0" fill="#EAEAEA" transform="matrix(1.00, 0.00, -0.00, -1.00, 126.5, 95.0)">n</text><text xml:space="preserve" font-family="HelveticaNeue-Medium" font-size="23.0" fill="#EAEAEA" transform="matrix(1.00, 0.00, -0.00, -1.00, 139.7, 95.0)">l</text><text xml:space="preserve" font-family="HelveticaNeue-Medium" font-size="23.0" fill="#EAEAEA" transform="matrix(1.00, 0.00, -0.00, -1.00, 145.2, 95.0)">y</text><text xml:space="preserve" font-family="HelveticaNeue-Medium" font-size="23.0" fill="#EAEAEA" transform="matrix(1.00, 0.00, -0.00, -1.00, 157.2, 95.0)"> </text><text xml:space="preserve" font-family="HelveticaNeue-Medium" font-size="23.0" fill="#EAEAEA" transform="matrix(1.00, 0.00, -0.00, -1.00, 163.6, 95.0)">w</text><text xml:space="preserve" font-family="HelveticaNeue-Medium" font-size="23.0" fill="#EAEAEA" transform="matrix(1.00, 0.00, -0.00, -1.00, 181.4, 95.0)">h</text><text xml:space="preserve" font-family="HelveticaNeue-Medium" font-size="23.0" fill="#EAEAEA" transform="matrix(1.00, 0.00, -0.00, -1.00, 194.7, 95.0)">e</text><text xml:space="preserve" font-family="HelveticaNeue-Medium" font-size="23.0" fill="#EAEAEA" transform="matrix(1.00, 0.00, -0.00, -1.00, 207.4, 95.0)">n</text><text xml:space="preserve" font-family="HelveticaNeue-Medium" font-size="23.0" fill="#EAEAEA" transform="matrix(1.00, 0.00, -0.00, -1.00, 220.6, 95.0)"> </text><text xml:space="preserve" font-family="HelveticaNeue-Medium" font-size="23.0" fill="#EAEAEA" transform="matrix(1.00, 0.00, -0.00, -1.00, 227.0, 95.0)">u</text><text xml:space="preserve" font-family="HelveticaNeue-Medium" font-size="23.0" fill="#EAEAEA" transform="matrix(1.00, 0.00, -0.00, -1.00, 240.2, 95.0)">s</text><text xml:space="preserve" font-family="HelveticaNeue-Medium" font-size="23.0" fill="#EAEAEA" transform="matrix(1.00, 0.00, -0.00, -1.00, 252.2, 95.0)">e</text><text xml:space="preserve" font-family="HelveticaNeue-Medium" font-size="23.0" fill="#EAEAEA" transform="matrix(1.00, 0.00, -0.00, -1.00, 265.0, 95.0)">d</text><text xml:space="preserve" font-family="HelveticaNeue-Medium" font-size="23.0" fill="#EAEAEA" transform="matrix(1.00, 0.00, -0.00, -1.00, 279.0, 95.0)"> </text><text xml:space="preserve" font-family="HelveticaNeue-Medium" font-size="23.0" fill="#EAEAEA" transform="matrix(1.00, 0.00, -0.00, -1.00, 285.4, 95.0)">i</text><text xml:space="preserve" font-family="HelveticaNeue-Medium" font-size="23.0" fill="#EAEAEA" transform="matrix(1.00, 0.00, -0.00, -1.00, 291.0, 95.0)">n</text><text xml:space="preserve" font-family="HelveticaNeue-Medium" font-size="23.0" fill="#EAEAEA" transform="matrix(1.00, 0.00, -0.00, -1.00, 304.2, 95.0)"> </text><image xlink:href="../../C910A64B-0A3A-4498-AE05-03120CC0C2C8/assets/B3CC958E7BA8425275E0EBAAD3627ACC.png" width="82.00" height="27.00" transform="matrix(1.00, 0.00, -0.00, -1.00, 310.0, 114.0)"></image><text xml:space="preserve" font-family="AndaleMono" font-size="23.0" fill="#EAEAEA" transform="matrix(1.00, 0.00, -0.00, -1.00, 310.5, 95.0)">l</text><text xml:space="preserve" font-family="AndaleMono" font-size="23.0" fill="#EAEAEA" transform="matrix(1.00, 0.00, -0.00, -1.00, 324.4, 95.0)">i</text><text xml:space="preserve" font-family="AndaleMono" font-size="23.0" fill="#EAEAEA" transform="matrix(1.00, 0.00, -0.00, -1.00, 338.2, 95.0)">s</text><text xml:space="preserve" font-family="AndaleMono" font-size="23.0" fill="#EAEAEA" transform="matrix(1.00, 0.00, -0.00, -1.00, 352.0, 95.0)">t</text><text xml:space="preserve" font-family="AndaleMono" font-size="23.0" fill="#EAEAEA" transform="matrix(1.00, 0.00, -0.00, -1.00, 365.8, 95.0)">(</text><text xml:space="preserve" font-family="AndaleMono" font-size="23.0" fill="#EAEAEA" transform="matrix(1.00, 0.00, -0.00, -1.00, 379.6, 95.0)">)</text><image xlink:href="../../C910A64B-0A3A-4498-AE05-03120CC0C2C8/assets/9977B097F29C9B78BE1C254BF27AFC98.png" width="28.00" height="20.00" transform="matrix(1.00, 0.00, -0.00, -1.00, 397.0, 110.0)"></image><text xml:space="preserve" font-family="HelveticaNeue-Medium" font-size="23.0" fill="#EAEAEA" transform="matrix(1.00, 0.00, -0.00, -1.00, 393.4, 95.0)"> </text><text xml:space="preserve" font-family="HelveticaNeue-Medium" font-size="23.0" fill="#EAEAEA" transform="matrix(1.00, 0.00, -0.00, -1.00, 399.8, 95.0)">o</text><text xml:space="preserve" font-family="HelveticaNeue-Medium" font-size="23.0" fill="#EAEAEA" transform="matrix(1.00, 0.00, -0.00, -1.00, 413.4, 95.0)">r</text><text xml:space="preserve" font-family="HelveticaNeue-Medium" font-size="23.0" fill="#EAEAEA" transform="matrix(1.00, 0.00, -0.00, -1.00, 421.5, 95.0)"> </text><image xlink:href="../../C910A64B-0A3A-4498-AE05-03120CC0C2C8/assets/71BFAEF669182366478CC307AF05920A.png" width="96.00" height="28.00" transform="matrix(1.00, 0.00, -0.00, -1.00, 427.0, 114.0)"></image><text xml:space="preserve" font-family="AndaleMono" font-size="23.0" fill="#EAEAEA" transform="matrix(1.00, 0.00, -0.00, -1.00, 427.9, 95.0)">t</text><text xml:space="preserve" font-family="AndaleMono" font-size="23.0" fill="#EAEAEA" transform="matrix(1.00, 0.00, -0.00, -1.00, 441.7, 95.0)">u</text><text xml:space="preserve" font-family="AndaleMono" font-size="23.0" fill="#EAEAEA" transform="matrix(1.00, 0.00, -0.00, -1.00, 455.5, 95.0)">p</text><text xml:space="preserve" font-family="AndaleMono" font-size="23.0" fill="#EAEAEA" transform="matrix(1.00, 0.00, -0.00, -1.00, 469.3, 95.0)">l</text><text xml:space="preserve" font-family="AndaleMono" font-size="23.0" fill="#EAEAEA" transform="matrix(1.00, 0.00, -0.00, -1.00, 483.1, 95.0)">e</text><text xml:space="preserve" font-family="AndaleMono" font-size="23.0" fill="#EAEAEA" transform="matrix(1.00, 0.00, -0.00, -1.00, 496.9, 95.0)">(</text><text xml:space="preserve" font-family="AndaleMono" font-size="23.0" fill="#EAEAEA" transform="matrix(1.00, 0.00, -0.00, -1.00, 510.7, 95.0)">)</text><image xlink:href="../../C910A64B-0A3A-4498-AE05-03120CC0C2C8/assets/B075F9F417B9061A6FE56DDBA1F27AA8.png" width="28.00" height="20.00" transform="matrix(1.00, 0.00, -0.00, -1.00, 528.0, 110.0)"></image><text xml:space="preserve" font-family="HelveticaNeue-Medium" font-size="23.0" fill="#EAEAEA" transform="matrix(1.00, 0.00, -0.00, -1.00, 524.5, 95.0)"> </text><text xml:space="preserve" font-family="HelveticaNeue-Medium" font-size="23.0" fill="#EAEAEA" transform="matrix(1.00, 0.00, -0.00, -1.00, 530.9, 95.0)">o</text><text xml:space="preserve" font-family="HelveticaNeue-Medium" font-size="23.0" fill="#EAEAEA" transform="matrix(1.00, 0.00, -0.00, -1.00, 544.5, 95.0)">r</text><text xml:space="preserve" font-family="HelveticaNeue-Medium" font-size="23.0" fill="#EAEAEA" transform="matrix(1.00, 0.00, -0.00, -1.00, 552.6, 95.0)"> </text><image xlink:href="../../C910A64B-0A3A-4498-AE05-03120CC0C2C8/assets/D82FEA898EDDE3D80834ED52EEFB1DE2.png" width="37.00" height="24.00" transform="matrix(1.00, 0.00, -0.00, -1.00, 556.0, 114.0)"></image><text xml:space="preserve" font-family="Helvetica-Bold" font-weight="bold" font-size="23.0" fill="#EAEAEA" transform="matrix(1.00, 0.00, -0.00, -1.00, 559.0, 95.0)">f</text><text xml:space="preserve" font-family="Helvetica-Bold" font-weight="bold" font-size="23.0" fill="#EAEAEA" transform="matrix(1.00, 0.00, -0.00, -1.00, 566.7, 95.0)">o</text><text xml:space="preserve" font-family="Helvetica-Bold" font-weight="bold" font-size="23.0" fill="#EAEAEA" transform="matrix(1.00, 0.00, -0.00, -1.00, 580.7, 95.0)">r</text><image xlink:href="../../C910A64B-0A3A-4498-AE05-03120CC0C2C8/assets/CC0F20D63A37B42E7AF99DC0ECD10FB4.png" width="199.00" height="23.00" transform="matrix(1.00, 0.00, -0.00, -1.00, 593.0, 113.0)"></image><text xml:space="preserve" font-family="HelveticaNeue-Medium" font-size="23.0" fill="#EAEAEA" transform="matrix(1.00, 0.00, -0.00, -1.00, 589.7, 95.0)"> </text><text xml:space="preserve" font-family="HelveticaNeue-Medium" font-size="23.0" fill="#EAEAEA" transform="matrix(1.00, 0.00, -0.00, -1.00, 596.1, 95.0)">s</text><text xml:space="preserve" font-family="HelveticaNeue-Medium" font-size="23.0" fill="#EAEAEA" transform="matrix(1.00, 0.00, -0.00, -1.00, 608.0, 95.0)">t</text><text xml:space="preserve" font-family="HelveticaNeue-Medium" font-size="23.0" fill="#EAEAEA" transform="matrix(1.00, 0.00, -0.00, -1.00, 615.7, 95.0)">a</text><text xml:space="preserve" font-family="HelveticaNeue-Medium" font-size="23.0" fill="#EAEAEA" transform="matrix(1.00, 0.00, -0.00, -1.00, 628.5, 95.0)">t</text><text xml:space="preserve" font-family="HelveticaNeue-Medium" font-size="23.0" fill="#EAEAEA" transform="matrix(1.00, 0.00, -0.00, -1.00, 636.1, 95.0)">e</text><text xml:space="preserve" font-family="HelveticaNeue-Medium" font-size="23.0" fill="#EAEAEA" transform="matrix(1.00, 0.00, -0.00, -1.00, 648.9, 95.0)">m</text><text xml:space="preserve" font-family="HelveticaNeue-Medium" font-size="23.0" fill="#EAEAEA" transform="matrix(1.00, 0.00, -0.00, -1.00, 668.9, 95.0)">e</text><text xml:space="preserve" font-family="HelveticaNeue-Medium" font-size="23.0" fill="#EAEAEA" transform="matrix(1.00, 0.00, -0.00, -1.00, 681.7, 95.0)">n</text><text xml:space="preserve" font-family="HelveticaNeue-Medium" font-size="23.0" fill="#EAEAEA" transform="matrix(1.00, 0.00, -0.00, -1.00, 694.9, 95.0)">t</text><text xml:space="preserve" font-family="HelveticaNeue-Medium" font-size="23.0" fill="#EAEAEA" transform="matrix(1.00, 0.00, -0.00, -1.00, 702.6, 95.0)"> </text><text xml:space="preserve" font-family="HelveticaNeue-Medium" font-size="23.0" fill="#EAEAEA" transform="matrix(1.00, 0.00, -0.00, -1.00, 709.0, 95.0)">c</text><text xml:space="preserve" font-family="HelveticaNeue-Medium" font-size="23.0" fill="#EAEAEA" transform="matrix(1.00, 0.00, -0.00, -1.00, 721.7, 95.0)">o</text><text xml:space="preserve" font-family="HelveticaNeue-Medium" font-size="23.0" fill="#EAEAEA" transform="matrix(1.00, 0.00, -0.00, -1.00, 735.4, 95.0)">n</text><text xml:space="preserve" font-family="HelveticaNeue-Medium" font-size="23.0" fill="#EAEAEA" transform="matrix(1.00, 0.00, -0.00, -1.00, 748.6, 95.0)">t</text><text xml:space="preserve" font-family="HelveticaNeue-Medium" font-size="23.0" fill="#EAEAEA" transform="matrix(1.00, 0.00, -0.00, -1.00, 756.2, 95.0)">e</text><text xml:space="preserve" font-family="HelveticaNeue-Medium" font-size="23.0" fill="#EAEAEA" transform="matrix(1.00, 0.00, -0.00, -1.00, 769.0, 95.0)">x</text><text xml:space="preserve" font-family="HelveticaNeue-Medium" font-size="23.0" fill="#EAEAEA" transform="matrix(1.00, 0.00, -0.00, -1.00, 781.4, 95.0)">t</text></g></svg>