<?xml version="1.0" encoding="UTF-8" standalone="no"?><svg xmlns="http://www.w3.org/2000/svg" xmlns:xlink="http://www.w3.org/1999/xlink" clip-rule="evenodd" stroke-miterlimit="4.00" viewBox="0 0 1024 768"><desc>SVG generated by Keynote</desc><defs></defs><g transform="matrix(1.00, 0.00, -0.00, -1.00, 0.0, 768.0)"><g><clipPath id="clip-212"><path d="M 0.0 768.0 L 1024.0 768.0 L 1024.0 0.0 L 0.0 0.0 Z M 0.0 768.0 "></path></clipPath><g clip-path="url(#clip-212)"><image xlink:href="../../363ACDF5-F69A-4348-A617-267FC1DCB792/assets/2CA05975C404A6B79EB2D17D5C3EEC1C.jpeg" width="1024.00" height="768.00" transform="matrix(1.00, 0.00, -0.00, -1.00, 0.0, 768.0)"></image></g></g><image xlink:href="../../96060AD3-5312-4B3F-B33D-20EE283AF5D1/assets/6ECCCA52760D7B0AB6D6D2A428517C76.png" width="841.00" height="68.00" transform="matrix(1.00, 0.00, -0.00, -1.00, 92.0, 693.0)"></image><text xml:space="preserve" font-family="HelveticaNeue-Bold" font-weight="bold" font-size="64.0" fill="#FEFFFE" transform="matrix(1.00, 0.00, -0.00, -1.00, 92.0, 644.0)">U</text><text xml:space="preserve" font-family="HelveticaNeue-Bold" font-weight="bold" font-size="64.0" fill="#FEFFFE" transform="matrix(1.00, 0.00, -0.00, -1.00, 139.4, 644.0)">s</text><text xml:space="preserve" font-family="HelveticaNeue-Bold" font-weight="bold" font-size="64.0" fill="#FEFFFE" transform="matrix(1.00, 0.00, -0.00, -1.00, 173.8, 644.0)">i</text><text xml:space="preserve" font-family="HelveticaNeue-Bold" font-weight="bold" font-size="64.0" fill="#FEFFFE" transform="matrix(1.00, 0.00, -0.00, -1.00, 190.3, 644.0)">n</text><text xml:space="preserve" font-family="HelveticaNeue-Bold" font-weight="bold" font-size="64.0" fill="#FEFFFE" transform="matrix(1.00, 0.00, -0.00, -1.00, 228.3, 644.0)">g</text><text xml:space="preserve" font-family="HelveticaNeue-Bold" font-weight="bold" font-size="64.0" fill="#FEFFFE" transform="matrix(1.00, 0.00, -0.00, -1.00, 267.4, 644.0)"> </text><text xml:space="preserve" font-family="HelveticaNeue-Bold" font-weight="bold" font-size="64.0" fill="#FEFFFE" transform="matrix(1.00, 0.00, -0.00, -1.00, 285.2, 644.0)">a</text><text xml:space="preserve" font-family="HelveticaNeue-Bold" font-weight="bold" font-size="64.0" fill="#FEFFFE" transform="matrix(1.00, 0.00, -0.00, -1.00, 321.9, 644.0)"> </text><text xml:space="preserve" font-family="HelveticaNeue-Bold" font-weight="bold" font-size="64.0" fill="#FEFFFE" transform="matrix(1.00, 0.00, -0.00, -1.00, 339.7, 644.0)">G</text><text xml:space="preserve" font-family="HelveticaNeue-Bold" font-weight="bold" font-size="64.0" fill="#FEFFFE" transform="matrix(1.00, 0.00, -0.00, -1.00, 388.3, 644.0)">e</text><text xml:space="preserve" font-family="HelveticaNeue-Bold" font-weight="bold" font-size="64.0" fill="#FEFFFE" transform="matrix(1.00, 0.00, -0.00, -1.00, 425.0, 644.0)">n</text><text xml:space="preserve" font-family="HelveticaNeue-Bold" font-weight="bold" font-size="64.0" fill="#FEFFFE" transform="matrix(1.00, 0.00, -0.00, -1.00, 462.9, 644.0)">e</text><text xml:space="preserve" font-family="HelveticaNeue-Bold" font-weight="bold" font-size="64.0" fill="#FEFFFE" transform="matrix(1.00, 0.00, -0.00, -1.00, 499.7, 644.0)">r</text><text xml:space="preserve" font-family="HelveticaNeue-Bold" font-weight="bold" font-size="64.0" fill="#FEFFFE" transform="matrix(1.00, 0.00, -0.00, -1.00, 524.6, 644.0)">a</text><text xml:space="preserve" font-family="HelveticaNeue-Bold" font-weight="bold" font-size="64.0" fill="#FEFFFE" transform="matrix(1.00, 0.00, -0.00, -1.00, 561.3, 644.0)">t</text><text xml:space="preserve" font-family="HelveticaNeue-Bold" font-weight="bold" font-size="64.0" fill="#FEFFFE" transform="matrix(1.00, 0.00, -0.00, -1.00, 583.8, 644.0)">o</text><text xml:space="preserve" font-family="HelveticaNeue-Bold" font-weight="bold" font-size="64.0" fill="#FEFFFE" transform="matrix(1.00, 0.00, -0.00, -1.00, 622.9, 644.0)">r</text><text xml:space="preserve" font-family="HelveticaNeue-Bold" font-weight="bold" font-size="64.0" fill="#FEFFFE" transform="matrix(1.00, 0.00, -0.00, -1.00, 647.8, 644.0)"> </text><text xml:space="preserve" font-family="HelveticaNeue-Bold" font-weight="bold" font-size="64.0" fill="#FEFFFE" transform="matrix(1.00, 0.00, -0.00, -1.00, 665.6, 644.0)">F</text><text xml:space="preserve" font-family="HelveticaNeue-Bold" font-weight="bold" font-size="64.0" fill="#FEFFFE" transform="matrix(1.00, 0.00, -0.00, -1.00, 703.6, 644.0)">u</text><text xml:space="preserve" font-family="HelveticaNeue-Bold" font-weight="bold" font-size="64.0" fill="#FEFFFE" transform="matrix(1.00, 0.00, -0.00, -1.00, 741.5, 644.0)">n</text><text xml:space="preserve" font-family="HelveticaNeue-Bold" font-weight="bold" font-size="64.0" fill="#FEFFFE" transform="matrix(1.00, 0.00, -0.00, -1.00, 779.5, 644.0)">c</text><text xml:space="preserve" font-family="HelveticaNeue-Bold" font-weight="bold" font-size="64.0" fill="#FEFFFE" transform="matrix(1.00, 0.00, -0.00, -1.00, 816.2, 644.0)">t</text><text xml:space="preserve" font-family="HelveticaNeue-Bold" font-weight="bold" font-size="64.0" fill="#FEFFFE" transform="matrix(1.00, 0.00, -0.00, -1.00, 838.8, 644.0)">i</text><text xml:space="preserve" font-family="HelveticaNeue-Bold" font-weight="bold" font-size="64.0" fill="#FEFFFE" transform="matrix(1.00, 0.00, -0.00, -1.00, 855.3, 644.0)">o</text><text xml:space="preserve" font-family="HelveticaNeue-Bold" font-weight="bold" font-size="64.0" fill="#FEFFFE" transform="matrix(1.00, 0.00, -0.00, -1.00, 894.4, 644.0)">n</text><image xlink:href="../../96060AD3-5312-4B3F-B33D-20EE283AF5D1/assets/03CDB94D6D22B110721C236D103564CC.png" width="377.00" height="26.00" transform="matrix(1.00, 0.00, -0.00, -1.00, 63.0, 562.0)"></image><text xml:space="preserve" font-family="AndaleMono" font-size="21.0" fill="#EAEAEA" transform="matrix(1.00, 0.00, -0.00, -1.00, 64.0, 545.0)">&gt;</text><text xml:space="preserve" font-family="AndaleMono" font-size="21.0" fill="#EAEAEA" transform="matrix(1.00, 0.00, -0.00, -1.00, 76.6, 545.0)">&gt;</text><text xml:space="preserve" font-family="AndaleMono" font-size="21.0" fill="#EAEAEA" transform="matrix(1.00, 0.00, -0.00, -1.00, 89.2, 545.0)">&gt;</text><text xml:space="preserve" font-family="AndaleMono" font-size="21.0" fill="#EAEAEA" transform="matrix(1.00, 0.00, -0.00, -1.00, 101.8, 545.0)"> </text><text xml:space="preserve" font-family="AndaleMono" font-size="21.0" fill="#EAEAEA" transform="matrix(1.00, 0.00, -0.00, -1.00, 114.4, 545.0)">f</text><text xml:space="preserve" font-family="AndaleMono" font-size="21.0" fill="#EAEAEA" transform="matrix(1.00, 0.00, -0.00, -1.00, 127.0, 545.0)">o</text><text xml:space="preserve" font-family="AndaleMono" font-size="21.0" fill="#EAEAEA" transform="matrix(1.00, 0.00, -0.00, -1.00, 139.6, 545.0)">r</text><text xml:space="preserve" font-family="AndaleMono" font-size="21.0" fill="#EAEAEA" transform="matrix(1.00, 0.00, -0.00, -1.00, 152.2, 545.0)"> </text><text xml:space="preserve" font-family="AndaleMono" font-size="21.0" fill="#EAEAEA" transform="matrix(1.00, 0.00, -0.00, -1.00, 164.8, 545.0)">i</text><text xml:space="preserve" font-family="AndaleMono" font-size="21.0" fill="#EAEAEA" transform="matrix(1.00, 0.00, -0.00, -1.00, 177.4, 545.0)"> </text><text xml:space="preserve" font-family="AndaleMono" font-size="21.0" fill="#EAEAEA" transform="matrix(1.00, 0.00, -0.00, -1.00, 190.0, 545.0)">i</text><text xml:space="preserve" font-family="AndaleMono" font-size="21.0" fill="#EAEAEA" transform="matrix(1.00, 0.00, -0.00, -1.00, 202.6, 545.0)">n</text><text xml:space="preserve" font-family="AndaleMono" font-size="21.0" fill="#EAEAEA" transform="matrix(1.00, 0.00, -0.00, -1.00, 215.2, 545.0)"> </text><text xml:space="preserve" font-family="AndaleMono" font-size="21.0" fill="#EAEAEA" transform="matrix(1.00, 0.00, -0.00, -1.00, 227.9, 545.0)">s</text><text xml:space="preserve" font-family="AndaleMono" font-size="21.0" fill="#EAEAEA" transform="matrix(1.00, 0.00, -0.00, -1.00, 240.5, 545.0)">y</text><text xml:space="preserve" font-family="AndaleMono" font-size="21.0" fill="#EAEAEA" transform="matrix(1.00, 0.00, -0.00, -1.00, 253.1, 545.0)">r</text><text xml:space="preserve" font-family="AndaleMono" font-size="21.0" fill="#EAEAEA" transform="matrix(1.00, 0.00, -0.00, -1.00, 265.7, 545.0)">a</text><text xml:space="preserve" font-family="AndaleMono" font-size="21.0" fill="#EAEAEA" transform="matrix(1.00, 0.00, -0.00, -1.00, 278.3, 545.0)">c</text><text xml:space="preserve" font-family="AndaleMono" font-size="21.0" fill="#EAEAEA" transform="matrix(1.00, 0.00, -0.00, -1.00, 290.9, 545.0)">u</text><text xml:space="preserve" font-family="AndaleMono" font-size="21.0" fill="#EAEAEA" transform="matrix(1.00, 0.00, -0.00, -1.00, 303.5, 545.0)">s</text><text xml:space="preserve" font-family="AndaleMono" font-size="21.0" fill="#EAEAEA" transform="matrix(1.00, 0.00, -0.00, -1.00, 316.1, 545.0)">e</text><text xml:space="preserve" font-family="AndaleMono" font-size="21.0" fill="#EAEAEA" transform="matrix(1.00, 0.00, -0.00, -1.00, 328.7, 545.0)">_</text><text xml:space="preserve" font-family="AndaleMono" font-size="21.0" fill="#EAEAEA" transform="matrix(1.00, 0.00, -0.00, -1.00, 341.3, 545.0)">i</text><text xml:space="preserve" font-family="AndaleMono" font-size="21.0" fill="#EAEAEA" transform="matrix(1.00, 0.00, -0.00, -1.00, 353.9, 545.0)">t</text><text xml:space="preserve" font-family="AndaleMono" font-size="21.0" fill="#EAEAEA" transform="matrix(1.00, 0.00, -0.00, -1.00, 366.5, 545.0)">e</text><text xml:space="preserve" font-family="AndaleMono" font-size="21.0" fill="#EAEAEA" transform="matrix(1.00, 0.00, -0.00, -1.00, 379.1, 545.0)">r</text><text xml:space="preserve" font-family="AndaleMono" font-size="21.0" fill="#EAEAEA" transform="matrix(1.00, 0.00, -0.00, -1.00, 391.7, 545.0)">(</text><text xml:space="preserve" font-family="AndaleMono" font-size="21.0" fill="#EAEAEA" transform="matrix(1.00, 0.00, -0.00, -1.00, 404.3, 545.0)">3</text><text xml:space="preserve" font-family="AndaleMono" font-size="21.0" fill="#EAEAEA" transform="matrix(1.00, 0.00, -0.00, -1.00, 416.9, 545.0)">)</text><text xml:space="preserve" font-family="AndaleMono" font-size="21.0" fill="#EAEAEA" transform="matrix(1.00, 0.00, -0.00, -1.00, 429.5, 545.0)">:</text><text xml:space="preserve" font-family="AndaleMono" font-size="21.0" fill="#EAEAEA" transform="matrix(1.00, 0.00, -0.00, -1.00, 442.1, 545.0)"> </text><image xlink:href="../../96060AD3-5312-4B3F-B33D-20EE283AF5D1/assets/47F9A8B3F9F6F3AFE117359658C3813B.png" width="178.00" height="26.00" transform="matrix(1.00, 0.00, -0.00, -1.00, 61.0, 512.0)"></image><text xml:space="preserve" font-family="AndaleMono" font-size="21.0" fill="#EAEAEA" transform="matrix(1.00, 0.00, -0.00, -1.00, 64.0, 495.0)">…</text><text xml:space="preserve" font-family="AndaleMono" font-size="21.0" fill="#EAEAEA" transform="matrix(1.00, 0.00, -0.00, -1.00, 76.6, 495.0)"> </text><text xml:space="preserve" font-family="AndaleMono" font-size="21.0" fill="#EAEAEA" transform="matrix(1.00, 0.00, -0.00, -1.00, 89.2, 495.0)"> </text><text xml:space="preserve" font-family="AndaleMono" font-size="21.0" fill="#EAEAEA" transform="matrix(1.00, 0.00, -0.00, -1.00, 101.8, 495.0)"> </text><text xml:space="preserve" font-family="AndaleMono" font-size="21.0" fill="#EAEAEA" transform="matrix(1.00, 0.00, -0.00, -1.00, 114.4, 495.0)"> </text><text xml:space="preserve" font-family="AndaleMono" font-size="21.0" fill="#EAEAEA" transform="matrix(1.00, 0.00, -0.00, -1.00, 127.0, 495.0)"> </text><text xml:space="preserve" font-family="AndaleMono" font-size="21.0" fill="#EAEAEA" transform="matrix(1.00, 0.00, -0.00, -1.00, 139.6, 495.0)">p</text><text xml:space="preserve" font-family="AndaleMono" font-size="21.0" fill="#EAEAEA" transform="matrix(1.00, 0.00, -0.00, -1.00, 152.2, 495.0)">r</text><text xml:space="preserve" font-family="AndaleMono" font-size="21.0" fill="#EAEAEA" transform="matrix(1.00, 0.00, -0.00, -1.00, 164.8, 495.0)">i</text><text xml:space="preserve" font-family="AndaleMono" font-size="21.0" fill="#EAEAEA" transform="matrix(1.00, 0.00, -0.00, -1.00, 177.4, 495.0)">n</text><text xml:space="preserve" font-family="AndaleMono" font-size="21.0" fill="#EAEAEA" transform="matrix(1.00, 0.00, -0.00, -1.00, 190.0, 495.0)">t</text><text xml:space="preserve" font-family="AndaleMono" font-size="21.0" fill="#EAEAEA" transform="matrix(1.00, 0.00, -0.00, -1.00, 202.6, 495.0)">(</text><text xml:space="preserve" font-family="AndaleMono" font-size="21.0" fill="#EAEAEA" transform="matrix(1.00, 0.00, -0.00, -1.00, 215.2, 495.0)">i</text><text xml:space="preserve" font-family="AndaleMono" font-size="21.0" fill="#EAEAEA" transform="matrix(1.00, 0.00, -0.00, -1.00, 227.9, 495.0)">)</text><text xml:space="preserve" font-family="AndaleMono" font-size="21.0" fill="#EAEAEA" transform="matrix(1.00, 0.00, -0.00, -1.00, 240.4, 495.0)"> </text><image xlink:href="../../96060AD3-5312-4B3F-B33D-20EE283AF5D1/assets/4E4F81B9D499AD8CCB9413ACF4706913.png" width="15.00" height="22.00" transform="matrix(1.00, 0.00, -0.00, -1.00, 63.0, 462.0)"></image><text xml:space="preserve" font-family="AndaleMono" font-size="21.0" fill="#EAEAEA" transform="matrix(1.00, 0.00, -0.00, -1.00, 64.0, 445.0)">3</text><text xml:space="preserve" font-family="AndaleMono" font-size="21.0" fill="#EAEAEA" transform="matrix(1.00, 0.00, -0.00, -1.00, 76.6, 445.0)"> </text><image xlink:href="../../96060AD3-5312-4B3F-B33D-20EE283AF5D1/assets/39DE0F7E8D9190CB7261CB6E85C83517.png" width="28.00" height="22.00" transform="matrix(1.00, 0.00, -0.00, -1.00, 63.0, 412.0)"></image><text xml:space="preserve" font-family="AndaleMono" font-size="21.0" fill="#EAEAEA" transform="matrix(1.00, 0.00, -0.00, -1.00, 64.0, 395.0)">1</text><text xml:space="preserve" font-family="AndaleMono" font-size="21.0" fill="#EAEAEA" transform="matrix(1.00, 0.00, -0.00, -1.00, 76.6, 395.0)">0</text><text xml:space="preserve" font-family="AndaleMono" font-size="21.0" fill="#EAEAEA" transform="matrix(1.00, 0.00, -0.00, -1.00, 89.2, 395.0)"> </text><image xlink:href="../../96060AD3-5312-4B3F-B33D-20EE283AF5D1/assets/F7E23D262F08DEF4A7BF64580F8968D2.png" width="15.00" height="22.00" transform="matrix(1.00, 0.00, -0.00, -1.00, 63.0, 362.0)"></image><text xml:space="preserve" font-family="AndaleMono" font-size="21.0" fill="#EAEAEA" transform="matrix(1.00, 0.00, -0.00, -1.00, 64.0, 345.0)">5</text><text xml:space="preserve" font-family="AndaleMono" font-size="21.0" fill="#EAEAEA" transform="matrix(1.00, 0.00, -0.00, -1.00, 76.6, 345.0)"> </text><image xlink:href="../../96060AD3-5312-4B3F-B33D-20EE283AF5D1/assets/F46D90FB3B7051F4E60730E7D77214BF.png" width="28.00" height="22.00" transform="matrix(1.00, 0.00, -0.00, -1.00, 63.0, 312.0)"></image><text xml:space="preserve" font-family="AndaleMono" font-size="21.0" fill="#EAEAEA" transform="matrix(1.00, 0.00, -0.00, -1.00, 64.0, 295.0)">1</text><text xml:space="preserve" font-family="AndaleMono" font-size="21.0" fill="#EAEAEA" transform="matrix(1.00, 0.00, -0.00, -1.00, 76.6, 295.0)">6</text><text xml:space="preserve" font-family="AndaleMono" font-size="21.0" fill="#EAEAEA" transform="matrix(1.00, 0.00, -0.00, -1.00, 89.2, 295.0)"> </text><image xlink:href="../../96060AD3-5312-4B3F-B33D-20EE283AF5D1/assets/CB5530FC3BA1A5584979D3428777405B.png" width="16.00" height="22.00" transform="matrix(1.00, 0.00, -0.00, -1.00, 62.0, 262.0)"></image><text xml:space="preserve" font-family="AndaleMono" font-size="21.0" fill="#EAEAEA" transform="matrix(1.00, 0.00, -0.00, -1.00, 64.0, 245.0)">8</text><text xml:space="preserve" font-family="AndaleMono" font-size="21.0" fill="#EAEAEA" transform="matrix(1.00, 0.00, -0.00, -1.00, 76.6, 245.0)"> </text><image xlink:href="../../96060AD3-5312-4B3F-B33D-20EE283AF5D1/assets/AE7F35B10514591CFF7B8F9C4423849C.png" width="17.00" height="21.00" transform="matrix(1.00, 0.00, -0.00, -1.00, 62.0, 212.0)"></image><text xml:space="preserve" font-family="AndaleMono" font-size="21.0" fill="#EAEAEA" transform="matrix(1.00, 0.00, -0.00, -1.00, 64.0, 195.0)">4</text><text xml:space="preserve" font-family="AndaleMono" font-size="21.0" fill="#EAEAEA" transform="matrix(1.00, 0.00, -0.00, -1.00, 76.6, 195.0)"> </text><image xlink:href="../../96060AD3-5312-4B3F-B33D-20EE283AF5D1/assets/79571D8AC7AE4BFF66837ABAD91BF562.png" width="15.00" height="21.00" transform="matrix(1.00, 0.00, -0.00, -1.00, 63.0, 162.0)"></image><text xml:space="preserve" font-family="AndaleMono" font-size="21.0" fill="#EAEAEA" transform="matrix(1.00, 0.00, -0.00, -1.00, 64.0, 145.0)">2</text><text xml:space="preserve" font-family="AndaleMono" font-size="21.0" fill="#EAEAEA" transform="matrix(1.00, 0.00, -0.00, -1.00, 76.6, 145.0)"> </text><image xlink:href="../../96060AD3-5312-4B3F-B33D-20EE283AF5D1/assets/11D3DFF422ADF30F053537ED16CEF04D.png" width="15.00" height="21.00" transform="matrix(1.00, 0.00, -0.00, -1.00, 63.0, 112.0)"></image><text xml:space="preserve" font-family="AndaleMono" font-size="21.0" fill="#EAEAEA" transform="matrix(1.00, 0.00, -0.00, -1.00, 64.0, 95.0)">1</text></g></svg>