<?xml version="1.0" encoding="UTF-8" standalone="no"?><svg xmlns="http://www.w3.org/2000/svg" xmlns:xlink="http://www.w3.org/1999/xlink" clip-rule="evenodd" stroke-miterlimit="4.00" viewBox="0 0 1024 768"><desc>SVG generated by Keynote</desc><defs></defs><g transform="matrix(1.00, 0.00, -0.00, -1.00, 0.0, 768.0)"><g><clipPath id="clip-207"><path d="M 0.0 768.0 L 1024.0 768.0 L 1024.0 0.0 L 0.0 0.0 Z M 0.0 768.0 "></path></clipPath><g clip-path="url(#clip-207)"><image xlink:href="../../363ACDF5-F69A-4348-A617-267FC1DCB792/assets/2CA05975C404A6B79EB2D17D5C3EEC1C.jpeg" width="1024.00" height="768.00" transform="matrix(1.00, 0.00, -0.00, -1.00, 0.0, 768.0)"></image></g></g><image xlink:href="../../6B5A9A23-53A4-4A1B-BE3F-027EBEA96A4B/assets/0A2334F14AD9AEC62681CF907BD90A2B.png" width="632.00" height="57.00" transform="matrix(1.00, 0.00, -0.00, -1.00, 196.0, 693.0)"></image><text xml:space="preserve" font-family="HelveticaNeue-Bold" font-weight="bold" font-size="64.0" fill="#FEFFFE" transform="matrix(1.00, 0.00, -0.00, -1.00, 198.0, 644.0)">G</text><text xml:space="preserve" font-family="HelveticaNeue-Bold" font-weight="bold" font-size="64.0" fill="#FEFFFE" transform="matrix(1.00, 0.00, -0.00, -1.00, 246.6, 644.0)">e</text><text xml:space="preserve" font-family="HelveticaNeue-Bold" font-weight="bold" font-size="64.0" fill="#FEFFFE" transform="matrix(1.00, 0.00, -0.00, -1.00, 283.3, 644.0)">n</text><text xml:space="preserve" font-family="HelveticaNeue-Bold" font-weight="bold" font-size="64.0" fill="#FEFFFE" transform="matrix(1.00, 0.00, -0.00, -1.00, 321.3, 644.0)">e</text><text xml:space="preserve" font-family="HelveticaNeue-Bold" font-weight="bold" font-size="64.0" fill="#FEFFFE" transform="matrix(1.00, 0.00, -0.00, -1.00, 358.0, 644.0)">r</text><text xml:space="preserve" font-family="HelveticaNeue-Bold" font-weight="bold" font-size="64.0" fill="#FEFFFE" transform="matrix(1.00, 0.00, -0.00, -1.00, 382.9, 644.0)">a</text><text xml:space="preserve" font-family="HelveticaNeue-Bold" font-weight="bold" font-size="64.0" fill="#FEFFFE" transform="matrix(1.00, 0.00, -0.00, -1.00, 419.6, 644.0)">t</text><text xml:space="preserve" font-family="HelveticaNeue-Bold" font-weight="bold" font-size="64.0" fill="#FEFFFE" transform="matrix(1.00, 0.00, -0.00, -1.00, 442.2, 644.0)">o</text><text xml:space="preserve" font-family="HelveticaNeue-Bold" font-weight="bold" font-size="64.0" fill="#FEFFFE" transform="matrix(1.00, 0.00, -0.00, -1.00, 481.3, 644.0)">r</text><text xml:space="preserve" font-family="HelveticaNeue-Bold" font-weight="bold" font-size="64.0" fill="#FEFFFE" transform="matrix(1.00, 0.00, -0.00, -1.00, 506.2, 644.0)"> </text><text xml:space="preserve" font-family="HelveticaNeue-Bold" font-weight="bold" font-size="64.0" fill="#FEFFFE" transform="matrix(1.00, 0.00, -0.00, -1.00, 524.0, 644.0)">F</text><text xml:space="preserve" font-family="HelveticaNeue-Bold" font-weight="bold" font-size="64.0" fill="#FEFFFE" transform="matrix(1.00, 0.00, -0.00, -1.00, 561.9, 644.0)">u</text><text xml:space="preserve" font-family="HelveticaNeue-Bold" font-weight="bold" font-size="64.0" fill="#FEFFFE" transform="matrix(1.00, 0.00, -0.00, -1.00, 599.9, 644.0)">n</text><text xml:space="preserve" font-family="HelveticaNeue-Bold" font-weight="bold" font-size="64.0" fill="#FEFFFE" transform="matrix(1.00, 0.00, -0.00, -1.00, 637.8, 644.0)">c</text><text xml:space="preserve" font-family="HelveticaNeue-Bold" font-weight="bold" font-size="64.0" fill="#FEFFFE" transform="matrix(1.00, 0.00, -0.00, -1.00, 674.5, 644.0)">t</text><text xml:space="preserve" font-family="HelveticaNeue-Bold" font-weight="bold" font-size="64.0" fill="#FEFFFE" transform="matrix(1.00, 0.00, -0.00, -1.00, 697.1, 644.0)">i</text><text xml:space="preserve" font-family="HelveticaNeue-Bold" font-weight="bold" font-size="64.0" fill="#FEFFFE" transform="matrix(1.00, 0.00, -0.00, -1.00, 713.6, 644.0)">o</text><text xml:space="preserve" font-family="HelveticaNeue-Bold" font-weight="bold" font-size="64.0" fill="#FEFFFE" transform="matrix(1.00, 0.00, -0.00, -1.00, 752.7, 644.0)">n</text><text xml:space="preserve" font-family="HelveticaNeue-Bold" font-weight="bold" font-size="64.0" fill="#FEFFFE" transform="matrix(1.00, 0.00, -0.00, -1.00, 790.6, 644.0)">s</text><image xlink:href="34BE167CE634167C2ECA1343F78D2A17.png" width="17.00" height="16.00" transform="matrix(1.00, 0.00, -0.00, -1.00, 61.0, 557.0)"></image><text xml:space="preserve" font-family="HelveticaNeue-Medium" font-size="21.0" fill="#EAEAEA" transform="matrix(1.00, 0.00, -0.00, -1.00, 64.0, 543.4)">•</text><image xlink:href="DEC079F1BDC5B60FDB4FE597DEFD401F.png" width="106.00" height="30.00" transform="matrix(1.00, 0.00, -0.00, -1.00, 88.0, 564.0)"></image><text xml:space="preserve" font-family="HelveticaNeue-Medium" font-size="28.1" fill="#EAEAEA" transform="matrix(1.00, 0.00, -0.00, -1.00, 91.0, 541.0)">U</text><text xml:space="preserve" font-family="HelveticaNeue-Medium" font-size="28.1" fill="#EAEAEA" transform="matrix(1.00, 0.00, -0.00, -1.00, 111.3, 541.0)">s</text><text xml:space="preserve" font-family="HelveticaNeue-Medium" font-size="28.1" fill="#EAEAEA" transform="matrix(1.00, 0.00, -0.00, -1.00, 125.8, 541.0)">e</text><text xml:space="preserve" font-family="HelveticaNeue-Medium" font-size="28.1" fill="#EAEAEA" transform="matrix(1.00, 0.00, -0.00, -1.00, 141.4, 541.0)"> </text><text xml:space="preserve" font-family="HelveticaNeue-Medium" font-size="28.1" fill="#EAEAEA" transform="matrix(1.00, 0.00, -0.00, -1.00, 149.2, 541.0)">t</text><text xml:space="preserve" font-family="HelveticaNeue-Medium" font-size="28.1" fill="#EAEAEA" transform="matrix(1.00, 0.00, -0.00, -1.00, 158.5, 541.0)">h</text><text xml:space="preserve" font-family="HelveticaNeue-Medium" font-size="28.1" fill="#EAEAEA" transform="matrix(1.00, 0.00, -0.00, -1.00, 174.6, 541.0)">e</text><text xml:space="preserve" font-family="HelveticaNeue-Medium" font-size="28.1" fill="#EAEAEA" transform="matrix(1.00, 0.00, -0.00, -1.00, 190.2, 541.0)"> </text><image xlink:href="F12F56612396A56F374F1D2670DE450A.png" width="71.00" height="36.00" transform="matrix(1.00, 0.00, -0.00, -1.00, 194.0, 564.0)"></image><text xml:space="preserve" font-family="Helvetica-Bold" font-weight="bold" font-size="28.1" fill="#EAEAEA" transform="matrix(1.00, 0.00, -0.00, -1.00, 198.0, 541.0)">y</text><text xml:space="preserve" font-family="Helvetica-Bold" font-weight="bold" font-size="28.1" fill="#EAEAEA" transform="matrix(1.00, 0.00, -0.00, -1.00, 213.6, 541.0)">i</text><text xml:space="preserve" font-family="Helvetica-Bold" font-weight="bold" font-size="28.1" fill="#EAEAEA" transform="matrix(1.00, 0.00, -0.00, -1.00, 221.4, 541.0)">e</text><text xml:space="preserve" font-family="Helvetica-Bold" font-weight="bold" font-size="28.1" fill="#EAEAEA" transform="matrix(1.00, 0.00, -0.00, -1.00, 237.0, 541.0)">l</text><text xml:space="preserve" font-family="Helvetica-Bold" font-weight="bold" font-size="28.1" fill="#EAEAEA" transform="matrix(1.00, 0.00, -0.00, -1.00, 244.8, 541.0)">d</text><image xlink:href="8B40EB73C97E11AABD046FC036C7DBE0.png" width="138.00" height="28.00" transform="matrix(1.00, 0.00, -0.00, -1.00, 266.0, 562.0)"></image><text xml:space="preserve" font-family="HelveticaNeue-Medium" font-size="28.1" fill="#EAEAEA" transform="matrix(1.00, 0.00, -0.00, -1.00, 262.0, 541.0)"> </text><text xml:space="preserve" font-family="HelveticaNeue-Medium" font-size="28.1" fill="#EAEAEA" transform="matrix(1.00, 0.00, -0.00, -1.00, 269.8, 541.0)">s</text><text xml:space="preserve" font-family="HelveticaNeue-Medium" font-size="28.1" fill="#EAEAEA" transform="matrix(1.00, 0.00, -0.00, -1.00, 284.3, 541.0)">t</text><text xml:space="preserve" font-family="HelveticaNeue-Medium" font-size="28.1" fill="#EAEAEA" transform="matrix(1.00, 0.00, -0.00, -1.00, 293.7, 541.0)">a</text><text xml:space="preserve" font-family="HelveticaNeue-Medium" font-size="28.1" fill="#EAEAEA" transform="matrix(1.00, 0.00, -0.00, -1.00, 309.3, 541.0)">t</text><text xml:space="preserve" font-family="HelveticaNeue-Medium" font-size="28.1" fill="#EAEAEA" transform="matrix(1.00, 0.00, -0.00, -1.00, 318.6, 541.0)">e</text><text xml:space="preserve" font-family="HelveticaNeue-Medium" font-size="28.1" fill="#EAEAEA" transform="matrix(1.00, 0.00, -0.00, -1.00, 334.2, 541.0)">m</text><text xml:space="preserve" font-family="HelveticaNeue-Medium" font-size="28.1" fill="#EAEAEA" transform="matrix(1.00, 0.00, -0.00, -1.00, 358.6, 541.0)">e</text><text xml:space="preserve" font-family="HelveticaNeue-Medium" font-size="28.1" fill="#EAEAEA" transform="matrix(1.00, 0.00, -0.00, -1.00, 374.2, 541.0)">n</text><text xml:space="preserve" font-family="HelveticaNeue-Medium" font-size="28.1" fill="#EAEAEA" transform="matrix(1.00, 0.00, -0.00, -1.00, 390.3, 541.0)">t</text><text xml:space="preserve" font-family="HelveticaNeue-Medium" font-size="28.1" fill="#EAEAEA" transform="matrix(1.00, 0.00, -0.00, -1.00, 399.6, 541.0)"> </text><image xlink:href="71F1D837A0181C3F6009EAE940936412.png" width="17.00" height="17.00" transform="matrix(1.00, 0.00, -0.00, -1.00, 61.0, 488.0)"></image><text xml:space="preserve" font-family="HelveticaNeue-Medium" font-size="21.0" fill="#EAEAEA" transform="matrix(1.00, 0.00, -0.00, -1.00, 64.0, 474.1)">•</text><image xlink:href="EEEA1BA5522D4713AE02B0529DF8189A.png" width="249.00" height="30.00" transform="matrix(1.00, 0.00, -0.00, -1.00, 86.0, 495.0)"></image><text xml:space="preserve" font-family="HelveticaNeue-Medium" font-size="28.1" fill="#EAEAEA" transform="matrix(1.00, 0.00, -0.00, -1.00, 91.0, 472.0)">A</text><text xml:space="preserve" font-family="HelveticaNeue-Medium" font-size="28.1" fill="#EAEAEA" transform="matrix(1.00, 0.00, -0.00, -1.00, 109.7, 472.0)">c</text><text xml:space="preserve" font-family="HelveticaNeue-Medium" font-size="28.1" fill="#EAEAEA" transform="matrix(1.00, 0.00, -0.00, -1.00, 125.3, 472.0)">t</text><text xml:space="preserve" font-family="HelveticaNeue-Medium" font-size="28.1" fill="#EAEAEA" transform="matrix(1.00, 0.00, -0.00, -1.00, 134.6, 472.0)">s</text><text xml:space="preserve" font-family="HelveticaNeue-Medium" font-size="28.1" fill="#EAEAEA" transform="matrix(1.00, 0.00, -0.00, -1.00, 149.2, 472.0)"> </text><text xml:space="preserve" font-family="HelveticaNeue-Medium" font-size="28.1" fill="#EAEAEA" transform="matrix(1.00, 0.00, -0.00, -1.00, 157.0, 472.0)">a</text><text xml:space="preserve" font-family="HelveticaNeue-Medium" font-size="28.1" fill="#EAEAEA" transform="matrix(1.00, 0.00, -0.00, -1.00, 172.6, 472.0)">s</text><text xml:space="preserve" font-family="HelveticaNeue-Medium" font-size="28.1" fill="#EAEAEA" transform="matrix(1.00, 0.00, -0.00, -1.00, 187.2, 472.0)"> </text><text xml:space="preserve" font-family="HelveticaNeue-Medium" font-size="28.1" fill="#EAEAEA" transform="matrix(1.00, 0.00, -0.00, -1.00, 195.0, 472.0)">a</text><text xml:space="preserve" font-family="HelveticaNeue-Medium" font-size="28.1" fill="#EAEAEA" transform="matrix(1.00, 0.00, -0.00, -1.00, 210.5, 472.0)">n</text><text xml:space="preserve" font-family="HelveticaNeue-Medium" font-size="28.1" fill="#EAEAEA" transform="matrix(1.00, 0.00, -0.00, -1.00, 226.6, 472.0)"> </text><text xml:space="preserve" font-family="HelveticaNeue-Medium" font-size="28.1" fill="#EAEAEA" transform="matrix(1.00, 0.00, -0.00, -1.00, 234.4, 472.0)">i</text><text xml:space="preserve" font-family="HelveticaNeue-Medium" font-size="28.1" fill="#EAEAEA" transform="matrix(1.00, 0.00, -0.00, -1.00, 241.2, 472.0)">t</text><text xml:space="preserve" font-family="HelveticaNeue-Medium" font-size="28.1" fill="#EAEAEA" transform="matrix(1.00, 0.00, -0.00, -1.00, 250.5, 472.0)">e</text><text xml:space="preserve" font-family="HelveticaNeue-Medium" font-size="28.1" fill="#EAEAEA" transform="matrix(1.00, 0.00, -0.00, -1.00, 266.1, 472.0)">r</text><text xml:space="preserve" font-family="HelveticaNeue-Medium" font-size="28.1" fill="#EAEAEA" transform="matrix(1.00, 0.00, -0.00, -1.00, 276.0, 472.0)">a</text><text xml:space="preserve" font-family="HelveticaNeue-Medium" font-size="28.1" fill="#EAEAEA" transform="matrix(1.00, 0.00, -0.00, -1.00, 291.6, 472.0)">b</text><text xml:space="preserve" font-family="HelveticaNeue-Medium" font-size="28.1" fill="#EAEAEA" transform="matrix(1.00, 0.00, -0.00, -1.00, 308.8, 472.0)">l</text><text xml:space="preserve" font-family="HelveticaNeue-Medium" font-size="28.1" fill="#EAEAEA" transform="matrix(1.00, 0.00, -0.00, -1.00, 315.5, 472.0)">e</text><text xml:space="preserve" font-family="HelveticaNeue-Medium" font-size="28.1" fill="#EAEAEA" transform="matrix(1.00, 0.00, -0.00, -1.00, 331.1, 472.0)"> </text><image xlink:href="4E7D8F3B6168DC4B287F4A4F3DB15A3E.png" width="17.00" height="17.00" transform="matrix(1.00, 0.00, -0.00, -1.00, 61.0, 419.0)"></image><text xml:space="preserve" font-family="HelveticaNeue-Medium" font-size="21.0" fill="#EAEAEA" transform="matrix(1.00, 0.00, -0.00, -1.00, 64.0, 404.9)">•</text><image xlink:href="60FAAF1E651413B0A63EC9DA9B190C49.png" width="225.00" height="30.00" transform="matrix(1.00, 0.00, -0.00, -1.00, 88.0, 426.0)"></image><text xml:space="preserve" font-family="HelveticaNeue-Medium" font-size="28.1" fill="#EAEAEA" transform="matrix(1.00, 0.00, -0.00, -1.00, 91.0, 403.0)">C</text><text xml:space="preserve" font-family="HelveticaNeue-Medium" font-size="28.1" fill="#EAEAEA" transform="matrix(1.00, 0.00, -0.00, -1.00, 111.3, 403.0)">a</text><text xml:space="preserve" font-family="HelveticaNeue-Medium" font-size="28.1" fill="#EAEAEA" transform="matrix(1.00, 0.00, -0.00, -1.00, 126.8, 403.0)">n</text><text xml:space="preserve" font-family="HelveticaNeue-Medium" font-size="28.1" fill="#EAEAEA" transform="matrix(1.00, 0.00, -0.00, -1.00, 142.9, 403.0)"> </text><text xml:space="preserve" font-family="HelveticaNeue-Medium" font-size="28.1" fill="#EAEAEA" transform="matrix(1.00, 0.00, -0.00, -1.00, 150.7, 403.0)">b</text><text xml:space="preserve" font-family="HelveticaNeue-Medium" font-size="28.1" fill="#EAEAEA" transform="matrix(1.00, 0.00, -0.00, -1.00, 167.9, 403.0)">e</text><text xml:space="preserve" font-family="HelveticaNeue-Medium" font-size="28.1" fill="#EAEAEA" transform="matrix(1.00, 0.00, -0.00, -1.00, 183.5, 403.0)"> </text><text xml:space="preserve" font-family="HelveticaNeue-Medium" font-size="28.1" fill="#EAEAEA" transform="matrix(1.00, 0.00, -0.00, -1.00, 191.3, 403.0)">u</text><text xml:space="preserve" font-family="HelveticaNeue-Medium" font-size="28.1" fill="#EAEAEA" transform="matrix(1.00, 0.00, -0.00, -1.00, 207.4, 403.0)">s</text><text xml:space="preserve" font-family="HelveticaNeue-Medium" font-size="28.1" fill="#EAEAEA" transform="matrix(1.00, 0.00, -0.00, -1.00, 221.9, 403.0)">e</text><text xml:space="preserve" font-family="HelveticaNeue-Medium" font-size="28.1" fill="#EAEAEA" transform="matrix(1.00, 0.00, -0.00, -1.00, 237.5, 403.0)">d</text><text xml:space="preserve" font-family="HelveticaNeue-Medium" font-size="28.1" fill="#EAEAEA" transform="matrix(1.00, 0.00, -0.00, -1.00, 254.7, 403.0)"> </text><text xml:space="preserve" font-family="HelveticaNeue-Medium" font-size="28.1" fill="#EAEAEA" transform="matrix(1.00, 0.00, -0.00, -1.00, 262.5, 403.0)">i</text><text xml:space="preserve" font-family="HelveticaNeue-Medium" font-size="28.1" fill="#EAEAEA" transform="matrix(1.00, 0.00, -0.00, -1.00, 269.2, 403.0)">n</text><text xml:space="preserve" font-family="HelveticaNeue-Medium" font-size="28.1" fill="#EAEAEA" transform="matrix(1.00, 0.00, -0.00, -1.00, 285.3, 403.0)"> </text><text xml:space="preserve" font-family="HelveticaNeue-Medium" font-size="28.1" fill="#EAEAEA" transform="matrix(1.00, 0.00, -0.00, -1.00, 293.1, 403.0)">a</text><text xml:space="preserve" font-family="HelveticaNeue-Medium" font-size="28.1" fill="#EAEAEA" transform="matrix(1.00, 0.00, -0.00, -1.00, 308.7, 403.0)"> </text><image xlink:href="3D7BE070E7BB00509F8D1D2B0A30BE92.png" width="46.00" height="30.00" transform="matrix(1.00, 0.00, -0.00, -1.00, 312.0, 426.0)"></image><text xml:space="preserve" font-family="Helvetica-Bold" font-weight="bold" font-size="28.1" fill="#EAEAEA" transform="matrix(1.00, 0.00, -0.00, -1.00, 316.5, 403.0)">f</text><text xml:space="preserve" font-family="Helvetica-Bold" font-weight="bold" font-size="28.1" fill="#EAEAEA" transform="matrix(1.00, 0.00, -0.00, -1.00, 325.9, 403.0)">o</text><text xml:space="preserve" font-family="Helvetica-Bold" font-weight="bold" font-size="28.1" fill="#EAEAEA" transform="matrix(1.00, 0.00, -0.00, -1.00, 343.0, 403.0)">r</text><image xlink:href="D8987264D9B82A6FEE9F77E2CD1F8FDA.png" width="137.00" height="28.00" transform="matrix(1.00, 0.00, -0.00, -1.00, 358.0, 424.0)"></image><text xml:space="preserve" font-family="HelveticaNeue-Medium" font-size="28.1" fill="#EAEAEA" transform="matrix(1.00, 0.00, -0.00, -1.00, 353.9, 403.0)"> </text><text xml:space="preserve" font-family="HelveticaNeue-Medium" font-size="28.1" fill="#EAEAEA" transform="matrix(1.00, 0.00, -0.00, -1.00, 361.7, 403.0)">s</text><text xml:space="preserve" font-family="HelveticaNeue-Medium" font-size="28.1" fill="#EAEAEA" transform="matrix(1.00, 0.00, -0.00, -1.00, 376.3, 403.0)">t</text><text xml:space="preserve" font-family="HelveticaNeue-Medium" font-size="28.1" fill="#EAEAEA" transform="matrix(1.00, 0.00, -0.00, -1.00, 385.6, 403.0)">a</text><text xml:space="preserve" font-family="HelveticaNeue-Medium" font-size="28.1" fill="#EAEAEA" transform="matrix(1.00, 0.00, -0.00, -1.00, 401.2, 403.0)">t</text><text xml:space="preserve" font-family="HelveticaNeue-Medium" font-size="28.1" fill="#EAEAEA" transform="matrix(1.00, 0.00, -0.00, -1.00, 410.5, 403.0)">e</text><text xml:space="preserve" font-family="HelveticaNeue-Medium" font-size="28.1" fill="#EAEAEA" transform="matrix(1.00, 0.00, -0.00, -1.00, 426.1, 403.0)">m</text><text xml:space="preserve" font-family="HelveticaNeue-Medium" font-size="28.1" fill="#EAEAEA" transform="matrix(1.00, 0.00, -0.00, -1.00, 450.5, 403.0)">e</text><text xml:space="preserve" font-family="HelveticaNeue-Medium" font-size="28.1" fill="#EAEAEA" transform="matrix(1.00, 0.00, -0.00, -1.00, 466.1, 403.0)">n</text><text xml:space="preserve" font-family="HelveticaNeue-Medium" font-size="28.1" fill="#EAEAEA" transform="matrix(1.00, 0.00, -0.00, -1.00, 482.2, 403.0)">t</text><text xml:space="preserve" font-family="HelveticaNeue-Medium" font-size="28.1" fill="#EAEAEA" transform="matrix(1.00, 0.00, -0.00, -1.00, 491.6, 403.0)"> </text><image xlink:href="A291B57765AAFB29356C7FE7B4609779.png" width="17.00" height="16.00" transform="matrix(1.00, 0.00, -0.00, -1.00, 61.0, 349.0)"></image><text xml:space="preserve" font-family="HelveticaNeue-Medium" font-size="21.0" fill="#EAEAEA" transform="matrix(1.00, 0.00, -0.00, -1.00, 64.0, 335.6)">•</text><image xlink:href="C6D2AA5B83915A12F7F27550E5648526.png" width="391.00" height="35.00" transform="matrix(1.00, 0.00, -0.00, -1.00, 89.0, 357.0)"></image><text xml:space="preserve" font-family="HelveticaNeue-Medium" font-size="28.1" fill="#EAEAEA" transform="matrix(1.00, 0.00, -0.00, -1.00, 91.0, 334.0)">D</text><text xml:space="preserve" font-family="HelveticaNeue-Medium" font-size="28.1" fill="#EAEAEA" transform="matrix(1.00, 0.00, -0.00, -1.00, 111.3, 334.0)">o</text><text xml:space="preserve" font-family="HelveticaNeue-Medium" font-size="28.1" fill="#EAEAEA" transform="matrix(1.00, 0.00, -0.00, -1.00, 127.9, 334.0)">e</text><text xml:space="preserve" font-family="HelveticaNeue-Medium" font-size="28.1" fill="#EAEAEA" transform="matrix(1.00, 0.00, -0.00, -1.00, 143.5, 334.0)">s</text><text xml:space="preserve" font-family="HelveticaNeue-Medium" font-size="28.1" fill="#EAEAEA" transform="matrix(1.00, 0.00, -0.00, -1.00, 158.0, 334.0)">n</text><text xml:space="preserve" font-family="HelveticaNeue-Medium" font-size="28.1" fill="#EAEAEA" transform="matrix(1.00, 0.00, -0.00, -1.00, 174.1, 334.0)">’</text><text xml:space="preserve" font-family="HelveticaNeue-Medium" font-size="28.1" fill="#EAEAEA" transform="matrix(1.00, 0.00, -0.00, -1.00, 181.4, 334.0)">t</text><text xml:space="preserve" font-family="HelveticaNeue-Medium" font-size="28.1" fill="#EAEAEA" transform="matrix(1.00, 0.00, -0.00, -1.00, 190.8, 334.0)"> </text><text xml:space="preserve" font-family="HelveticaNeue-Medium" font-size="28.1" fill="#EAEAEA" transform="matrix(1.00, 0.00, -0.00, -1.00, 198.6, 334.0)">c</text><text xml:space="preserve" font-family="HelveticaNeue-Medium" font-size="28.1" fill="#EAEAEA" transform="matrix(1.00, 0.00, -0.00, -1.00, 214.2, 334.0)">r</text><text xml:space="preserve" font-family="HelveticaNeue-Medium" font-size="28.1" fill="#EAEAEA" transform="matrix(1.00, 0.00, -0.00, -1.00, 223.5, 334.0)">e</text><text xml:space="preserve" font-family="HelveticaNeue-Medium" font-size="28.1" fill="#EAEAEA" transform="matrix(1.00, 0.00, -0.00, -1.00, 239.1, 334.0)">a</text><text xml:space="preserve" font-family="HelveticaNeue-Medium" font-size="28.1" fill="#EAEAEA" transform="matrix(1.00, 0.00, -0.00, -1.00, 254.7, 334.0)">t</text><text xml:space="preserve" font-family="HelveticaNeue-Medium" font-size="28.1" fill="#EAEAEA" transform="matrix(1.00, 0.00, -0.00, -1.00, 264.1, 334.0)">e</text><text xml:space="preserve" font-family="HelveticaNeue-Medium" font-size="28.1" fill="#EAEAEA" transform="matrix(1.00, 0.00, -0.00, -1.00, 279.7, 334.0)"> </text><text xml:space="preserve" font-family="HelveticaNeue-Medium" font-size="28.1" fill="#EAEAEA" transform="matrix(1.00, 0.00, -0.00, -1.00, 287.5, 334.0)">b</text><text xml:space="preserve" font-family="HelveticaNeue-Medium" font-size="28.1" fill="#EAEAEA" transform="matrix(1.00, 0.00, -0.00, -1.00, 304.6, 334.0)">i</text><text xml:space="preserve" font-family="HelveticaNeue-Medium" font-size="28.1" fill="#EAEAEA" transform="matrix(1.00, 0.00, -0.00, -1.00, 311.4, 334.0)">g</text><text xml:space="preserve" font-family="HelveticaNeue-Medium" font-size="28.1" fill="#EAEAEA" transform="matrix(1.00, 0.00, -0.00, -1.00, 328.0, 334.0)"> </text><text xml:space="preserve" font-family="HelveticaNeue-Medium" font-size="28.1" fill="#EAEAEA" transform="matrix(1.00, 0.00, -0.00, -1.00, 335.8, 334.0)">l</text><text xml:space="preserve" font-family="HelveticaNeue-Medium" font-size="28.1" fill="#EAEAEA" transform="matrix(1.00, 0.00, -0.00, -1.00, 342.6, 334.0)">i</text><text xml:space="preserve" font-family="HelveticaNeue-Medium" font-size="28.1" fill="#EAEAEA" transform="matrix(1.00, 0.00, -0.00, -1.00, 349.3, 334.0)">s</text><text xml:space="preserve" font-family="HelveticaNeue-Medium" font-size="28.1" fill="#EAEAEA" transform="matrix(1.00, 0.00, -0.00, -1.00, 363.9, 334.0)">t</text><text xml:space="preserve" font-family="HelveticaNeue-Medium" font-size="28.1" fill="#EAEAEA" transform="matrix(1.00, 0.00, -0.00, -1.00, 373.2, 334.0)"> </text><text xml:space="preserve" font-family="HelveticaNeue-Medium" font-size="28.1" fill="#EAEAEA" transform="matrix(1.00, 0.00, -0.00, -1.00, 381.0, 334.0)">o</text><text xml:space="preserve" font-family="HelveticaNeue-Medium" font-size="28.1" fill="#EAEAEA" transform="matrix(1.00, 0.00, -0.00, -1.00, 397.6, 334.0)">b</text><text xml:space="preserve" font-family="HelveticaNeue-Medium" font-size="28.1" fill="#EAEAEA" transform="matrix(1.00, 0.00, -0.00, -1.00, 414.8, 334.0)">j</text><text xml:space="preserve" font-family="HelveticaNeue-Medium" font-size="28.1" fill="#EAEAEA" transform="matrix(1.00, 0.00, -0.00, -1.00, 421.5, 334.0)">e</text><text xml:space="preserve" font-family="HelveticaNeue-Medium" font-size="28.1" fill="#EAEAEA" transform="matrix(1.00, 0.00, -0.00, -1.00, 437.1, 334.0)">c</text><text xml:space="preserve" font-family="HelveticaNeue-Medium" font-size="28.1" fill="#EAEAEA" transform="matrix(1.00, 0.00, -0.00, -1.00, 452.7, 334.0)">t</text><text xml:space="preserve" font-family="HelveticaNeue-Medium" font-size="28.1" fill="#EAEAEA" transform="matrix(1.00, 0.00, -0.00, -1.00, 462.1, 334.0)">s</text><text xml:space="preserve" font-family="HelveticaNeue-Medium" font-size="28.1" fill="#EAEAEA" transform="matrix(1.00, 0.00, -0.00, -1.00, 476.6, 334.0)"> </text><image xlink:href="3D2491065EF6FA777330B12C81D7925D.png" width="17.00" height="17.00" transform="matrix(1.00, 0.00, -0.00, -1.00, 61.0, 281.0)"></image><text xml:space="preserve" font-family="HelveticaNeue-Medium" font-size="21.0" fill="#EAEAEA" transform="matrix(1.00, 0.00, -0.00, -1.00, 64.0, 266.7)">•</text><image xlink:href="D2E3ECC6206BDF9514E3AA291E054F08.png" width="67.00" height="35.00" transform="matrix(1.00, 0.00, -0.00, -1.00, 89.0, 288.0)"></image><text xml:space="preserve" font-family="HelveticaNeue-Medium" font-size="28.1" fill="#EAEAEA" transform="matrix(1.00, 0.00, -0.00, -1.00, 91.0, 265.0)">L</text><text xml:space="preserve" font-family="HelveticaNeue-Medium" font-size="28.1" fill="#EAEAEA" transform="matrix(1.00, 0.00, -0.00, -1.00, 107.1, 265.0)">a</text><text xml:space="preserve" font-family="HelveticaNeue-Medium" font-size="28.1" fill="#EAEAEA" transform="matrix(1.00, 0.00, -0.00, -1.00, 122.7, 265.0)">z</text><text xml:space="preserve" font-family="HelveticaNeue-Medium" font-size="28.1" fill="#EAEAEA" transform="matrix(1.00, 0.00, -0.00, -1.00, 136.7, 265.0)">y</text><text xml:space="preserve" font-family="HelveticaNeue-Medium" font-size="28.1" fill="#EAEAEA" transform="matrix(1.00, 0.00, -0.00, -1.00, 151.3, 265.0)"> </text><image xlink:href="09C4B72817E54CE349E111455A49C89E.png" width="17.00" height="17.00" transform="matrix(1.00, 0.00, -0.00, -1.00, 93.0, 212.0)"></image><text xml:space="preserve" font-family="HelveticaNeue-Medium" font-size="21.0" fill="#EAEAEA" transform="matrix(1.00, 0.00, -0.00, -1.00, 96.0, 197.9)">•</text><image xlink:href="E62C07158C04A3E10CD45023F5FDB284.png" width="800.00" height="35.00" transform="matrix(1.00, 0.00, -0.00, -1.00, 121.0, 219.0)"></image><text xml:space="preserve" font-family="HelveticaNeue-Medium" font-size="28.1" fill="#EAEAEA" transform="matrix(1.00, 0.00, -0.00, -1.00, 123.0, 196.0)">D</text><text xml:space="preserve" font-family="HelveticaNeue-Medium" font-size="28.1" fill="#EAEAEA" transform="matrix(1.00, 0.00, -0.00, -1.00, 143.3, 196.0)">o</text><text xml:space="preserve" font-family="HelveticaNeue-Medium" font-size="28.1" fill="#EAEAEA" transform="matrix(1.00, 0.00, -0.00, -1.00, 159.9, 196.0)">e</text><text xml:space="preserve" font-family="HelveticaNeue-Medium" font-size="28.1" fill="#EAEAEA" transform="matrix(1.00, 0.00, -0.00, -1.00, 175.5, 196.0)">s</text><text xml:space="preserve" font-family="HelveticaNeue-Medium" font-size="28.1" fill="#EAEAEA" transform="matrix(1.00, 0.00, -0.00, -1.00, 190.0, 196.0)">n</text><text xml:space="preserve" font-family="HelveticaNeue-Medium" font-size="28.1" fill="#EAEAEA" transform="matrix(1.00, 0.00, -0.00, -1.00, 206.1, 196.0)">’</text><text xml:space="preserve" font-family="HelveticaNeue-Medium" font-size="28.1" fill="#EAEAEA" transform="matrix(1.00, 0.00, -0.00, -1.00, 213.4, 196.0)">t</text><text xml:space="preserve" font-family="HelveticaNeue-Medium" font-size="28.1" fill="#EAEAEA" transform="matrix(1.00, 0.00, -0.00, -1.00, 222.8, 196.0)"> </text><text xml:space="preserve" font-family="HelveticaNeue-Medium" font-size="28.1" fill="#EAEAEA" transform="matrix(1.00, 0.00, -0.00, -1.00, 230.6, 196.0)">c</text><text xml:space="preserve" font-family="HelveticaNeue-Medium" font-size="28.1" fill="#EAEAEA" transform="matrix(1.00, 0.00, -0.00, -1.00, 246.2, 196.0)">o</text><text xml:space="preserve" font-family="HelveticaNeue-Medium" font-size="28.1" fill="#EAEAEA" transform="matrix(1.00, 0.00, -0.00, -1.00, 262.8, 196.0)">m</text><text xml:space="preserve" font-family="HelveticaNeue-Medium" font-size="28.1" fill="#EAEAEA" transform="matrix(1.00, 0.00, -0.00, -1.00, 287.2, 196.0)">p</text><text xml:space="preserve" font-family="HelveticaNeue-Medium" font-size="28.1" fill="#EAEAEA" transform="matrix(1.00, 0.00, -0.00, -1.00, 304.3, 196.0)">u</text><text xml:space="preserve" font-family="HelveticaNeue-Medium" font-size="28.1" fill="#EAEAEA" transform="matrix(1.00, 0.00, -0.00, -1.00, 320.4, 196.0)">t</text><text xml:space="preserve" font-family="HelveticaNeue-Medium" font-size="28.1" fill="#EAEAEA" transform="matrix(1.00, 0.00, -0.00, -1.00, 329.8, 196.0)">e</text><text xml:space="preserve" font-family="HelveticaNeue-Medium" font-size="28.1" fill="#EAEAEA" transform="matrix(1.00, 0.00, -0.00, -1.00, 345.4, 196.0)"> </text><text xml:space="preserve" font-family="HelveticaNeue-Medium" font-size="28.1" fill="#EAEAEA" transform="matrix(1.00, 0.00, -0.00, -1.00, 353.2, 196.0)">a</text><text xml:space="preserve" font-family="HelveticaNeue-Medium" font-size="28.1" fill="#EAEAEA" transform="matrix(1.00, 0.00, -0.00, -1.00, 368.8, 196.0)">n</text><text xml:space="preserve" font-family="HelveticaNeue-Medium" font-size="28.1" fill="#EAEAEA" transform="matrix(1.00, 0.00, -0.00, -1.00, 384.9, 196.0)">y</text><text xml:space="preserve" font-family="HelveticaNeue-Medium" font-size="28.1" fill="#EAEAEA" transform="matrix(1.00, 0.00, -0.00, -1.00, 399.4, 196.0)">t</text><text xml:space="preserve" font-family="HelveticaNeue-Medium" font-size="28.1" fill="#EAEAEA" transform="matrix(1.00, 0.00, -0.00, -1.00, 408.8, 196.0)">h</text><text xml:space="preserve" font-family="HelveticaNeue-Medium" font-size="28.1" fill="#EAEAEA" transform="matrix(1.00, 0.00, -0.00, -1.00, 424.9, 196.0)">i</text><text xml:space="preserve" font-family="HelveticaNeue-Medium" font-size="28.1" fill="#EAEAEA" transform="matrix(1.00, 0.00, -0.00, -1.00, 431.6, 196.0)">n</text><text xml:space="preserve" font-family="HelveticaNeue-Medium" font-size="28.1" fill="#EAEAEA" transform="matrix(1.00, 0.00, -0.00, -1.00, 447.7, 196.0)">g</text><text xml:space="preserve" font-family="HelveticaNeue-Medium" font-size="28.1" fill="#EAEAEA" transform="matrix(1.00, 0.00, -0.00, -1.00, 464.4, 196.0)"> </text><text xml:space="preserve" font-family="HelveticaNeue-Medium" font-size="28.1" fill="#EAEAEA" transform="matrix(1.00, 0.00, -0.00, -1.00, 472.2, 196.0)">u</text><text xml:space="preserve" font-family="HelveticaNeue-Medium" font-size="28.1" fill="#EAEAEA" transform="matrix(1.00, 0.00, -0.00, -1.00, 488.3, 196.0)">n</text><text xml:space="preserve" font-family="HelveticaNeue-Medium" font-size="28.1" fill="#EAEAEA" transform="matrix(1.00, 0.00, -0.00, -1.00, 504.4, 196.0)">l</text><text xml:space="preserve" font-family="HelveticaNeue-Medium" font-size="28.1" fill="#EAEAEA" transform="matrix(1.00, 0.00, -0.00, -1.00, 511.1, 196.0)">e</text><text xml:space="preserve" font-family="HelveticaNeue-Medium" font-size="28.1" fill="#EAEAEA" transform="matrix(1.00, 0.00, -0.00, -1.00, 526.7, 196.0)">s</text><text xml:space="preserve" font-family="HelveticaNeue-Medium" font-size="28.1" fill="#EAEAEA" transform="matrix(1.00, 0.00, -0.00, -1.00, 541.3, 196.0)">s</text><text xml:space="preserve" font-family="HelveticaNeue-Medium" font-size="28.1" fill="#EAEAEA" transform="matrix(1.00, 0.00, -0.00, -1.00, 555.8, 196.0)"> </text><text xml:space="preserve" font-family="HelveticaNeue-Medium" font-size="28.1" fill="#EAEAEA" transform="matrix(1.00, 0.00, -0.00, -1.00, 563.6, 196.0)">a</text><text xml:space="preserve" font-family="HelveticaNeue-Medium" font-size="28.1" fill="#EAEAEA" transform="matrix(1.00, 0.00, -0.00, -1.00, 579.2, 196.0)">n</text><text xml:space="preserve" font-family="HelveticaNeue-Medium" font-size="28.1" fill="#EAEAEA" transform="matrix(1.00, 0.00, -0.00, -1.00, 595.3, 196.0)">o</text><text xml:space="preserve" font-family="HelveticaNeue-Medium" font-size="28.1" fill="#EAEAEA" transform="matrix(1.00, 0.00, -0.00, -1.00, 612.0, 196.0)">t</text><text xml:space="preserve" font-family="HelveticaNeue-Medium" font-size="28.1" fill="#EAEAEA" transform="matrix(1.00, 0.00, -0.00, -1.00, 621.3, 196.0)">h</text><text xml:space="preserve" font-family="HelveticaNeue-Medium" font-size="28.1" fill="#EAEAEA" transform="matrix(1.00, 0.00, -0.00, -1.00, 637.4, 196.0)">e</text><text xml:space="preserve" font-family="HelveticaNeue-Medium" font-size="28.1" fill="#EAEAEA" transform="matrix(1.00, 0.00, -0.00, -1.00, 653.0, 196.0)">r</text><text xml:space="preserve" font-family="HelveticaNeue-Medium" font-size="28.1" fill="#EAEAEA" transform="matrix(1.00, 0.00, -0.00, -1.00, 662.9, 196.0)"> </text><text xml:space="preserve" font-family="HelveticaNeue-Medium" font-size="28.1" fill="#EAEAEA" transform="matrix(1.00, 0.00, -0.00, -1.00, 670.7, 196.0)">f</text><text xml:space="preserve" font-family="HelveticaNeue-Medium" font-size="28.1" fill="#EAEAEA" transform="matrix(1.00, 0.00, -0.00, -1.00, 679.5, 196.0)">u</text><text xml:space="preserve" font-family="HelveticaNeue-Medium" font-size="28.1" fill="#EAEAEA" transform="matrix(1.00, 0.00, -0.00, -1.00, 695.6, 196.0)">n</text><text xml:space="preserve" font-family="HelveticaNeue-Medium" font-size="28.1" fill="#EAEAEA" transform="matrix(1.00, 0.00, -0.00, -1.00, 711.7, 196.0)">c</text><text xml:space="preserve" font-family="HelveticaNeue-Medium" font-size="28.1" fill="#EAEAEA" transform="matrix(1.00, 0.00, -0.00, -1.00, 727.3, 196.0)">t</text><text xml:space="preserve" font-family="HelveticaNeue-Medium" font-size="28.1" fill="#EAEAEA" transform="matrix(1.00, 0.00, -0.00, -1.00, 736.6, 196.0)">i</text><text xml:space="preserve" font-family="HelveticaNeue-Medium" font-size="28.1" fill="#EAEAEA" transform="matrix(1.00, 0.00, -0.00, -1.00, 743.4, 196.0)">o</text><text xml:space="preserve" font-family="HelveticaNeue-Medium" font-size="28.1" fill="#EAEAEA" transform="matrix(1.00, 0.00, -0.00, -1.00, 760.0, 196.0)">n</text><text xml:space="preserve" font-family="HelveticaNeue-Medium" font-size="28.1" fill="#EAEAEA" transform="matrix(1.00, 0.00, -0.00, -1.00, 776.1, 196.0)"> </text><text xml:space="preserve" font-family="HelveticaNeue-Medium" font-size="28.1" fill="#EAEAEA" transform="matrix(1.00, 0.00, -0.00, -1.00, 783.9, 196.0)">c</text><text xml:space="preserve" font-family="HelveticaNeue-Medium" font-size="28.1" fill="#EAEAEA" transform="matrix(1.00, 0.00, -0.00, -1.00, 799.5, 196.0)">o</text><text xml:space="preserve" font-family="HelveticaNeue-Medium" font-size="28.1" fill="#EAEAEA" transform="matrix(1.00, 0.00, -0.00, -1.00, 816.2, 196.0)">n</text><text xml:space="preserve" font-family="HelveticaNeue-Medium" font-size="28.1" fill="#EAEAEA" transform="matrix(1.00, 0.00, -0.00, -1.00, 832.3, 196.0)">s</text><text xml:space="preserve" font-family="HelveticaNeue-Medium" font-size="28.1" fill="#EAEAEA" transform="matrix(1.00, 0.00, -0.00, -1.00, 846.8, 196.0)">u</text><text xml:space="preserve" font-family="HelveticaNeue-Medium" font-size="28.1" fill="#EAEAEA" transform="matrix(1.00, 0.00, -0.00, -1.00, 862.9, 196.0)">m</text><text xml:space="preserve" font-family="HelveticaNeue-Medium" font-size="28.1" fill="#EAEAEA" transform="matrix(1.00, 0.00, -0.00, -1.00, 887.3, 196.0)">e</text><text xml:space="preserve" font-family="HelveticaNeue-Medium" font-size="28.1" fill="#EAEAEA" transform="matrix(1.00, 0.00, -0.00, -1.00, 902.9, 196.0)">s</text><text xml:space="preserve" font-family="HelveticaNeue-Medium" font-size="28.1" fill="#EAEAEA" transform="matrix(1.00, 0.00, -0.00, -1.00, 917.5, 196.0)"> </text><image xlink:href="A2EC7D2FCA6BA9E13BBAD5D622976B2F.png" width="93.00" height="30.00" transform="matrix(1.00, 0.00, -0.00, -1.00, 120.0, 185.0)"></image><text xml:space="preserve" font-family="HelveticaNeue-Medium" font-size="28.1" fill="#EAEAEA" transform="matrix(1.00, 0.00, -0.00, -1.00, 123.0, 162.0)">r</text><text xml:space="preserve" font-family="HelveticaNeue-Medium" font-size="28.1" fill="#EAEAEA" transform="matrix(1.00, 0.00, -0.00, -1.00, 132.4, 162.0)">e</text><text xml:space="preserve" font-family="HelveticaNeue-Medium" font-size="28.1" fill="#EAEAEA" transform="matrix(1.00, 0.00, -0.00, -1.00, 148.0, 162.0)">s</text><text xml:space="preserve" font-family="HelveticaNeue-Medium" font-size="28.1" fill="#EAEAEA" transform="matrix(1.00, 0.00, -0.00, -1.00, 162.5, 162.0)">u</text><text xml:space="preserve" font-family="HelveticaNeue-Medium" font-size="28.1" fill="#EAEAEA" transform="matrix(1.00, 0.00, -0.00, -1.00, 178.6, 162.0)">l</text><text xml:space="preserve" font-family="HelveticaNeue-Medium" font-size="28.1" fill="#EAEAEA" transform="matrix(1.00, 0.00, -0.00, -1.00, 185.4, 162.0)">t</text><text xml:space="preserve" font-family="HelveticaNeue-Medium" font-size="28.1" fill="#EAEAEA" transform="matrix(1.00, 0.00, -0.00, -1.00, 194.7, 162.0)">s</text><text xml:space="preserve" font-family="HelveticaNeue-Medium" font-size="28.1" fill="#EAEAEA" transform="matrix(1.00, 0.00, -0.00, -1.00, 209.3, 162.0)"> </text><image xlink:href="8600D2A5F8CE507C71CBA95869925E83.png" width="17.00" height="16.00" transform="matrix(1.00, 0.00, -0.00, -1.00, 93.0, 108.0)"></image><text xml:space="preserve" font-family="HelveticaNeue-Medium" font-size="21.0" fill="#EAEAEA" transform="matrix(1.00, 0.00, -0.00, -1.00, 96.0, 94.6)">•</text><image xlink:href="06E254E149A725123C9ACB642FD0C168.png" width="353.00" height="35.00" transform="matrix(1.00, 0.00, -0.00, -1.00, 122.0, 115.0)"></image><text xml:space="preserve" font-family="AndaleMono" font-size="28.1" fill="#EAEAEA" transform="matrix(1.00, 0.00, -0.00, -1.00, 123.0, 93.0)">l</text><text xml:space="preserve" font-family="AndaleMono" font-size="28.1" fill="#EAEAEA" transform="matrix(1.00, 0.00, -0.00, -1.00, 139.8, 93.0)">i</text><text xml:space="preserve" font-family="AndaleMono" font-size="28.1" fill="#EAEAEA" transform="matrix(1.00, 0.00, -0.00, -1.00, 156.7, 93.0)">s</text><text xml:space="preserve" font-family="AndaleMono" font-size="28.1" fill="#EAEAEA" transform="matrix(1.00, 0.00, -0.00, -1.00, 173.5, 93.0)">t</text><text xml:space="preserve" font-family="AndaleMono" font-size="28.1" fill="#EAEAEA" transform="matrix(1.00, 0.00, -0.00, -1.00, 190.3, 93.0)">(</text><text xml:space="preserve" font-family="AndaleMono" font-size="28.1" fill="#EAEAEA" transform="matrix(1.00, 0.00, -0.00, -1.00, 207.2, 93.0)">s</text><text xml:space="preserve" font-family="AndaleMono" font-size="28.1" fill="#EAEAEA" transform="matrix(1.00, 0.00, -0.00, -1.00, 224.0, 93.0)">o</text><text xml:space="preserve" font-family="AndaleMono" font-size="28.1" fill="#EAEAEA" transform="matrix(1.00, 0.00, -0.00, -1.00, 240.8, 93.0)">m</text><text xml:space="preserve" font-family="AndaleMono" font-size="28.1" fill="#EAEAEA" transform="matrix(1.00, 0.00, -0.00, -1.00, 257.7, 93.0)">e</text><text xml:space="preserve" font-family="AndaleMono" font-size="28.1" fill="#EAEAEA" transform="matrix(1.00, 0.00, -0.00, -1.00, 274.5, 93.0)">_</text><text xml:space="preserve" font-family="AndaleMono" font-size="28.1" fill="#EAEAEA" transform="matrix(1.00, 0.00, -0.00, -1.00, 291.4, 93.0)">f</text><text xml:space="preserve" font-family="AndaleMono" font-size="28.1" fill="#EAEAEA" transform="matrix(1.00, 0.00, -0.00, -1.00, 308.2, 93.0)">u</text><text xml:space="preserve" font-family="AndaleMono" font-size="28.1" fill="#EAEAEA" transform="matrix(1.00, 0.00, -0.00, -1.00, 325.0, 93.0)">n</text><text xml:space="preserve" font-family="AndaleMono" font-size="28.1" fill="#EAEAEA" transform="matrix(1.00, 0.00, -0.00, -1.00, 341.9, 93.0)">c</text><text xml:space="preserve" font-family="AndaleMono" font-size="28.1" fill="#EAEAEA" transform="matrix(1.00, 0.00, -0.00, -1.00, 358.7, 93.0)">t</text><text xml:space="preserve" font-family="AndaleMono" font-size="28.1" fill="#EAEAEA" transform="matrix(1.00, 0.00, -0.00, -1.00, 375.5, 93.0)">i</text><text xml:space="preserve" font-family="AndaleMono" font-size="28.1" fill="#EAEAEA" transform="matrix(1.00, 0.00, -0.00, -1.00, 392.4, 93.0)">o</text><text xml:space="preserve" font-family="AndaleMono" font-size="28.1" fill="#EAEAEA" transform="matrix(1.00, 0.00, -0.00, -1.00, 409.2, 93.0)">n</text><text xml:space="preserve" font-family="AndaleMono" font-size="28.1" fill="#EAEAEA" transform="matrix(1.00, 0.00, -0.00, -1.00, 426.0, 93.0)">(</text><text xml:space="preserve" font-family="AndaleMono" font-size="28.1" fill="#EAEAEA" transform="matrix(1.00, 0.00, -0.00, -1.00, 442.9, 93.0)">)</text><text xml:space="preserve" font-family="AndaleMono" font-size="28.1" fill="#EAEAEA" transform="matrix(1.00, 0.00, -0.00, -1.00, 459.7, 93.0)">)</text><text xml:space="preserve" font-family="Helvetica" font-size="28.1" fill="#EAEAEA" transform="matrix(1.00, 0.00, -0.00, -1.00, 476.5, 93.0)"> </text><image xlink:href="88459A3C53713FF561B35430B9CC90B3.png" width="232.00" height="30.00" transform="matrix(1.00, 0.00, -0.00, -1.00, 481.0, 116.0)"></image><text xml:space="preserve" font-family="HelveticaNeue-Medium" font-size="28.1" fill="#EAEAEA" transform="matrix(1.00, 0.00, -0.00, -1.00, 484.3, 93.0)">c</text><text xml:space="preserve" font-family="HelveticaNeue-Medium" font-size="28.1" fill="#EAEAEA" transform="matrix(1.00, 0.00, -0.00, -1.00, 499.9, 93.0)">o</text><text xml:space="preserve" font-family="HelveticaNeue-Medium" font-size="28.1" fill="#EAEAEA" transform="matrix(1.00, 0.00, -0.00, -1.00, 516.5, 93.0)">n</text><text xml:space="preserve" font-family="HelveticaNeue-Medium" font-size="28.1" fill="#EAEAEA" transform="matrix(1.00, 0.00, -0.00, -1.00, 532.6, 93.0)">s</text><text xml:space="preserve" font-family="HelveticaNeue-Medium" font-size="28.1" fill="#EAEAEA" transform="matrix(1.00, 0.00, -0.00, -1.00, 547.2, 93.0)">u</text><text xml:space="preserve" font-family="HelveticaNeue-Medium" font-size="28.1" fill="#EAEAEA" transform="matrix(1.00, 0.00, -0.00, -1.00, 563.3, 93.0)">m</text><text xml:space="preserve" font-family="HelveticaNeue-Medium" font-size="28.1" fill="#EAEAEA" transform="matrix(1.00, 0.00, -0.00, -1.00, 587.7, 93.0)">e</text><text xml:space="preserve" font-family="HelveticaNeue-Medium" font-size="28.1" fill="#EAEAEA" transform="matrix(1.00, 0.00, -0.00, -1.00, 603.3, 93.0)">s</text><text xml:space="preserve" font-family="HelveticaNeue-Medium" font-size="28.1" fill="#EAEAEA" transform="matrix(1.00, 0.00, -0.00, -1.00, 617.8, 93.0)"> </text><text xml:space="preserve" font-family="HelveticaNeue-Medium" font-size="28.1" fill="#EAEAEA" transform="matrix(1.00, 0.00, -0.00, -1.00, 625.6, 93.0)">v</text><text xml:space="preserve" font-family="HelveticaNeue-Medium" font-size="28.1" fill="#EAEAEA" transform="matrix(1.00, 0.00, -0.00, -1.00, 640.2, 93.0)">a</text><text xml:space="preserve" font-family="HelveticaNeue-Medium" font-size="28.1" fill="#EAEAEA" transform="matrix(1.00, 0.00, -0.00, -1.00, 655.8, 93.0)">l</text><text xml:space="preserve" font-family="HelveticaNeue-Medium" font-size="28.1" fill="#EAEAEA" transform="matrix(1.00, 0.00, -0.00, -1.00, 662.5, 93.0)">u</text><text xml:space="preserve" font-family="HelveticaNeue-Medium" font-size="28.1" fill="#EAEAEA" transform="matrix(1.00, 0.00, -0.00, -1.00, 678.6, 93.0)">e</text><text xml:space="preserve" font-family="HelveticaNeue-Medium" font-size="28.1" fill="#EAEAEA" transform="matrix(1.00, 0.00, -0.00, -1.00, 694.2, 93.0)">s</text></g></svg>