<?xml version="1.0" encoding="UTF-8" standalone="no"?><svg xmlns="http://www.w3.org/2000/svg" xmlns:xlink="http://www.w3.org/1999/xlink" clip-rule="evenodd" stroke-miterlimit="4.00" viewBox="0 0 1024 768"><desc>SVG generated by Keynote</desc><defs></defs><g transform="matrix(1.00, 0.00, -0.00, -1.00, 0.0, 768.0)"><g><clipPath id="clip-11"><path d="M 0.0 768.0 L 1024.0 768.0 L 1024.0 0.0 L 0.0 0.0 Z M 0.0 768.0 "></path></clipPath><g clip-path="url(#clip-11)"><image xlink:href="../../363ACDF5-F69A-4348-A617-267FC1DCB792/assets/2CA05975C404A6B79EB2D17D5C3EEC1C.jpeg" width="1024.00" height="768.00" transform="matrix(1.00, 0.00, -0.00, -1.00, 0.0, 768.0)"></image></g></g><image xlink:href="A65B20E46F8AD6BF82C7A4CF051F45ED.png" width="569.00" height="68.00" transform="matrix(1.00, 0.00, -0.00, -1.00, 226.0, 693.0)"></image><text xml:space="preserve" font-family="HelveticaNeue-Bold" font-weight="bold" font-size="64.0" fill="#FEFFFE" transform="matrix(1.00, 0.00, -0.00, -1.00, 229.0, 644.0)">S</text><text xml:space="preserve" font-family="HelveticaNeue-Bold" font-weight="bold" font-size="64.0" fill="#FEFFFE" transform="matrix(1.00, 0.00, -0.00, -1.00, 270.5, 644.0)">o</text><text xml:space="preserve" font-family="HelveticaNeue-Bold" font-weight="bold" font-size="64.0" fill="#FEFFFE" transform="matrix(1.00, 0.00, -0.00, -1.00, 309.6, 644.0)">m</text><text xml:space="preserve" font-family="HelveticaNeue-Bold" font-weight="bold" font-size="64.0" fill="#FEFFFE" transform="matrix(1.00, 0.00, -0.00, -1.00, 367.6, 644.0)">e</text><text xml:space="preserve" font-family="HelveticaNeue-Bold" font-weight="bold" font-size="64.0" fill="#FEFFFE" transform="matrix(1.00, 0.00, -0.00, -1.00, 404.4, 644.0)"> </text><text xml:space="preserve" font-family="HelveticaNeue-Bold" font-weight="bold" font-size="64.0" fill="#FEFFFE" transform="matrix(1.00, 0.00, -0.00, -1.00, 422.2, 644.0)">B</text><text xml:space="preserve" font-family="HelveticaNeue-Bold" font-weight="bold" font-size="64.0" fill="#FEFFFE" transform="matrix(1.00, 0.00, -0.00, -1.00, 467.2, 644.0)">a</text><text xml:space="preserve" font-family="HelveticaNeue-Bold" font-weight="bold" font-size="64.0" fill="#FEFFFE" transform="matrix(1.00, 0.00, -0.00, -1.00, 503.9, 644.0)">c</text><text xml:space="preserve" font-family="HelveticaNeue-Bold" font-weight="bold" font-size="64.0" fill="#FEFFFE" transform="matrix(1.00, 0.00, -0.00, -1.00, 540.7, 644.0)">k</text><text xml:space="preserve" font-family="HelveticaNeue-Bold" font-weight="bold" font-size="64.0" fill="#FEFFFE" transform="matrix(1.00, 0.00, -0.00, -1.00, 577.4, 644.0)">g</text><text xml:space="preserve" font-family="HelveticaNeue-Bold" font-weight="bold" font-size="64.0" fill="#FEFFFE" transform="matrix(1.00, 0.00, -0.00, -1.00, 616.5, 644.0)">r</text><text xml:space="preserve" font-family="HelveticaNeue-Bold" font-weight="bold" font-size="64.0" fill="#FEFFFE" transform="matrix(1.00, 0.00, -0.00, -1.00, 640.3, 644.0)">o</text><text xml:space="preserve" font-family="HelveticaNeue-Bold" font-weight="bold" font-size="64.0" fill="#FEFFFE" transform="matrix(1.00, 0.00, -0.00, -1.00, 679.4, 644.0)">u</text><text xml:space="preserve" font-family="HelveticaNeue-Bold" font-weight="bold" font-size="64.0" fill="#FEFFFE" transform="matrix(1.00, 0.00, -0.00, -1.00, 717.3, 644.0)">n</text><text xml:space="preserve" font-family="HelveticaNeue-Bold" font-weight="bold" font-size="64.0" fill="#FEFFFE" transform="matrix(1.00, 0.00, -0.00, -1.00, 755.3, 644.0)">d</text><image xlink:href="../../D9433726-5947-428F-A554-7984E936C271/assets/22338A021207344BFFC0BA20AE086817.png" width="18.00" height="18.00" transform="matrix(1.00, 0.00, -0.00, -1.00, 61.0, 541.0)"></image><text xml:space="preserve" font-family="HelveticaNeue-Medium" font-size="25.5" fill="#EAEAEA" transform="matrix(1.00, 0.00, -0.00, -1.00, 64.0, 524.9)">•</text><image xlink:href="5A5A369B7BF271CD8277EC9656B97D11.png" width="191.00" height="34.00" transform="matrix(1.00, 0.00, -0.00, -1.00, 94.0, 549.0)"></image><text xml:space="preserve" font-family="HelveticaNeue-Medium" font-size="34.0" fill="#EAEAEA" transform="matrix(1.00, 0.00, -0.00, -1.00, 96.0, 522.0)">B</text><text xml:space="preserve" font-family="HelveticaNeue-Medium" font-size="34.0" fill="#EAEAEA" transform="matrix(1.00, 0.00, -0.00, -1.00, 119.9, 522.0)">a</text><text xml:space="preserve" font-family="HelveticaNeue-Medium" font-size="34.0" fill="#EAEAEA" transform="matrix(1.00, 0.00, -0.00, -1.00, 138.8, 522.0)">s</text><text xml:space="preserve" font-family="HelveticaNeue-Medium" font-size="34.0" fill="#EAEAEA" transform="matrix(1.00, 0.00, -0.00, -1.00, 156.5, 522.0)">i</text><text xml:space="preserve" font-family="HelveticaNeue-Medium" font-size="34.0" fill="#EAEAEA" transform="matrix(1.00, 0.00, -0.00, -1.00, 164.7, 522.0)">c</text><text xml:space="preserve" font-family="HelveticaNeue-Medium" font-size="34.0" fill="#EAEAEA" transform="matrix(1.00, 0.00, -0.00, -1.00, 183.6, 522.0)"> </text><text xml:space="preserve" font-family="HelveticaNeue-Medium" font-size="34.0" fill="#EAEAEA" transform="matrix(1.00, 0.00, -0.00, -1.00, 193.0, 522.0)">M</text><text xml:space="preserve" font-family="HelveticaNeue-Medium" font-size="34.0" fill="#EAEAEA" transform="matrix(1.00, 0.00, -0.00, -1.00, 223.3, 522.0)">a</text><text xml:space="preserve" font-family="HelveticaNeue-Medium" font-size="34.0" fill="#EAEAEA" transform="matrix(1.00, 0.00, -0.00, -1.00, 242.2, 522.0)">t</text><text xml:space="preserve" font-family="HelveticaNeue-Medium" font-size="34.0" fill="#EAEAEA" transform="matrix(1.00, 0.00, -0.00, -1.00, 253.5, 522.0)">h</text><text xml:space="preserve" font-family="HelveticaNeue-Medium" font-size="34.0" fill="#EAEAEA" transform="matrix(1.00, 0.00, -0.00, -1.00, 273.0, 522.0)">:</text><text xml:space="preserve" font-family="HelveticaNeue-Medium" font-size="34.0" fill="#EAEAEA" transform="matrix(1.00, 0.00, -0.00, -1.00, 282.5, 522.0)"> </text><image xlink:href="9FCD99C884C5F4155718B94C426C863B.png" width="15.00" height="15.00" transform="matrix(1.00, 0.00, -0.00, -1.00, 62.0, 374.0)"></image><text xml:space="preserve" font-family="TimesNewRomanPS-ItalicMT" font-style="italic" font-size="25.5" fill="#EAEAEA" transform="matrix(1.00, 0.00, -0.00, -1.00, 64.0, 360.1)">•</text><image xlink:href="CD7E1E0E286439C3892B965B39BC88A5.png" width="31.00" height="40.00" transform="matrix(1.00, 0.00, -0.00, -1.00, 86.0, 382.0)"></image><text xml:space="preserve" font-family="TimesNewRomanPS-ItalicMT" font-style="italic" font-size="34.0" fill="#EAEAEA" transform="matrix(1.00, 0.00, -0.00, -1.00, 96.0, 356.0)">f</text><image xlink:href="ED23D0F1E675A490E2D57035C9FD0B30.png" width="205.00" height="34.00" transform="matrix(1.00, 0.00, -0.00, -1.00, 113.0, 383.0)"></image><text xml:space="preserve" font-family="HelveticaNeue-Medium" font-size="34.0" fill="#EAEAEA" transform="matrix(1.00, 0.00, -0.00, -1.00, 105.4, 356.0)"> </text><text xml:space="preserve" font-family="HelveticaNeue-Medium" font-size="34.0" fill="#EAEAEA" transform="matrix(1.00, 0.00, -0.00, -1.00, 114.9, 356.0)">i</text><text xml:space="preserve" font-family="HelveticaNeue-Medium" font-size="34.0" fill="#EAEAEA" transform="matrix(1.00, 0.00, -0.00, -1.00, 123.1, 356.0)">s</text><text xml:space="preserve" font-family="HelveticaNeue-Medium" font-size="34.0" fill="#EAEAEA" transform="matrix(1.00, 0.00, -0.00, -1.00, 140.7, 356.0)"> </text><text xml:space="preserve" font-family="HelveticaNeue-Medium" font-size="34.0" fill="#EAEAEA" transform="matrix(1.00, 0.00, -0.00, -1.00, 150.2, 356.0)">a</text><text xml:space="preserve" font-family="HelveticaNeue-Medium" font-size="34.0" fill="#EAEAEA" transform="matrix(1.00, 0.00, -0.00, -1.00, 169.1, 356.0)"> </text><text xml:space="preserve" font-family="HelveticaNeue-Medium" font-size="34.0" fill="#EAEAEA" transform="matrix(1.00, 0.00, -0.00, -1.00, 178.5, 356.0)">f</text><text xml:space="preserve" font-family="HelveticaNeue-Medium" font-size="34.0" fill="#EAEAEA" transform="matrix(1.00, 0.00, -0.00, -1.00, 189.3, 356.0)">u</text><text xml:space="preserve" font-family="HelveticaNeue-Medium" font-size="34.0" fill="#EAEAEA" transform="matrix(1.00, 0.00, -0.00, -1.00, 208.8, 356.0)">n</text><text xml:space="preserve" font-family="HelveticaNeue-Medium" font-size="34.0" fill="#EAEAEA" transform="matrix(1.00, 0.00, -0.00, -1.00, 228.3, 356.0)">c</text><text xml:space="preserve" font-family="HelveticaNeue-Medium" font-size="34.0" fill="#EAEAEA" transform="matrix(1.00, 0.00, -0.00, -1.00, 247.2, 356.0)">t</text><text xml:space="preserve" font-family="HelveticaNeue-Medium" font-size="34.0" fill="#EAEAEA" transform="matrix(1.00, 0.00, -0.00, -1.00, 258.5, 356.0)">i</text><text xml:space="preserve" font-family="HelveticaNeue-Medium" font-size="34.0" fill="#EAEAEA" transform="matrix(1.00, 0.00, -0.00, -1.00, 266.7, 356.0)">o</text><text xml:space="preserve" font-family="HelveticaNeue-Medium" font-size="34.0" fill="#EAEAEA" transform="matrix(1.00, 0.00, -0.00, -1.00, 286.9, 356.0)">n</text><text xml:space="preserve" font-family="HelveticaNeue-Medium" font-size="34.0" fill="#EAEAEA" transform="matrix(1.00, 0.00, -0.00, -1.00, 306.4, 356.0)">.</text><text xml:space="preserve" font-family="HelveticaNeue-Medium" font-size="34.0" fill="#EAEAEA" transform="matrix(1.00, 0.00, -0.00, -1.00, 315.8, 356.0)"> </text><image xlink:href="DC8B97CE3A0651E5ABA4AA2CEDEE8F17.png" width="18.00" height="19.00" transform="matrix(1.00, 0.00, -0.00, -1.00, 61.0, 292.0)"></image><text xml:space="preserve" font-family="HelveticaNeue-Medium" font-size="25.5" fill="#EAEAEA" transform="matrix(1.00, 0.00, -0.00, -1.00, 64.0, 275.4)">•</text><image xlink:href="E993AE22055595E7292C3DC408E87ABB.png" width="159.00" height="40.00" transform="matrix(1.00, 0.00, -0.00, -1.00, 94.0, 300.0)"></image><text xml:space="preserve" font-family="HelveticaNeue-Medium" font-size="34.0" fill="#EAEAEA" transform="matrix(1.00, 0.00, -0.00, -1.00, 96.0, 273.0)">E</text><text xml:space="preserve" font-family="HelveticaNeue-Medium" font-size="34.0" fill="#EAEAEA" transform="matrix(1.00, 0.00, -0.00, -1.00, 117.4, 273.0)">x</text><text xml:space="preserve" font-family="HelveticaNeue-Medium" font-size="34.0" fill="#EAEAEA" transform="matrix(1.00, 0.00, -0.00, -1.00, 135.7, 273.0)">a</text><text xml:space="preserve" font-family="HelveticaNeue-Medium" font-size="34.0" fill="#EAEAEA" transform="matrix(1.00, 0.00, -0.00, -1.00, 154.6, 273.0)">m</text><text xml:space="preserve" font-family="HelveticaNeue-Medium" font-size="34.0" fill="#EAEAEA" transform="matrix(1.00, 0.00, -0.00, -1.00, 184.2, 273.0)">p</text><text xml:space="preserve" font-family="HelveticaNeue-Medium" font-size="34.0" fill="#EAEAEA" transform="matrix(1.00, 0.00, -0.00, -1.00, 204.9, 273.0)">l</text><text xml:space="preserve" font-family="HelveticaNeue-Medium" font-size="34.0" fill="#EAEAEA" transform="matrix(1.00, 0.00, -0.00, -1.00, 213.1, 273.0)">e</text><text xml:space="preserve" font-family="HelveticaNeue-Medium" font-size="34.0" fill="#EAEAEA" transform="matrix(1.00, 0.00, -0.00, -1.00, 232.0, 273.0)">:</text><text xml:space="preserve" font-family="HelveticaNeue-Medium" font-size="34.0" fill="#EAEAEA" transform="matrix(1.00, 0.00, -0.00, -1.00, 241.5, 273.0)">:</text><text xml:space="preserve" font-family="HelveticaNeue-Medium" font-size="34.0" fill="#EAEAEA" transform="matrix(1.00, 0.00, -0.00, -1.00, 250.9, 273.0)"> </text><image xlink:href="4532CB68B0E801D07A4E734D1A657BE1.png" width="178.00" height="40.00" transform="matrix(1.00, 0.00, -0.00, -1.00, 60.0, 217.0)"></image><text xml:space="preserve" font-family="Helvetica" font-size="33.0" fill="#EAEAEA" transform="matrix(1.00, 0.00, -0.00, -1.00, 64.0, 190.0)">&gt;</text><text xml:space="preserve" font-family="Helvetica" font-size="33.0" fill="#EAEAEA" transform="matrix(1.00, 0.00, -0.00, -1.00, 83.3, 190.0)">&gt;</text><text xml:space="preserve" font-family="Helvetica" font-size="33.0" fill="#EAEAEA" transform="matrix(1.00, 0.00, -0.00, -1.00, 102.5, 190.0)">&gt;</text><text xml:space="preserve" font-family="Helvetica" font-size="33.0" fill="#EAEAEA" transform="matrix(1.00, 0.00, -0.00, -1.00, 121.8, 190.0)"> </text><text xml:space="preserve" font-family="Helvetica" font-size="33.0" fill="#EAEAEA" transform="matrix(1.00, 0.00, -0.00, -1.00, 131.0, 190.0)">a</text><text xml:space="preserve" font-family="Helvetica" font-size="33.0" fill="#EAEAEA" transform="matrix(1.00, 0.00, -0.00, -1.00, 149.3, 190.0)">b</text><text xml:space="preserve" font-family="Helvetica" font-size="33.0" fill="#EAEAEA" transform="matrix(1.00, 0.00, -0.00, -1.00, 167.7, 190.0)">s</text><text xml:space="preserve" font-family="Helvetica" font-size="33.0" fill="#EAEAEA" transform="matrix(1.00, 0.00, -0.00, -1.00, 184.2, 190.0)">(</text><text xml:space="preserve" font-family="Helvetica" font-size="33.0" fill="#EAEAEA" transform="matrix(1.00, 0.00, -0.00, -1.00, 195.2, 190.0)">-</text><text xml:space="preserve" font-family="Helvetica" font-size="33.0" fill="#EAEAEA" transform="matrix(1.00, 0.00, -0.00, -1.00, 206.2, 190.0)">5</text><text xml:space="preserve" font-family="Helvetica" font-size="33.0" fill="#EAEAEA" transform="matrix(1.00, 0.00, -0.00, -1.00, 224.5, 190.0)">)</text><image xlink:href="06D2F4A7E5FEC2A2CAA84C6519AB050D.png" width="24.00" height="32.00" transform="matrix(1.00, 0.00, -0.00, -1.00, 61.0, 133.0)"></image><text xml:space="preserve" font-family="Helvetica" font-size="33.0" fill="#EAEAEA" transform="matrix(1.00, 0.00, -0.00, -1.00, 64.0, 108.0)">5</text><image xlink:href="7B41A5C050605FF30EDAD00EF881B977.png" width="274.00" height="88.00" transform="matrix(1.00, 0.00, -0.00, -1.00, 140.0, 502.0)"></image></g></svg>