<?xml version="1.0" encoding="UTF-8" standalone="no"?><svg xmlns="http://www.w3.org/2000/svg" xmlns:xlink="http://www.w3.org/1999/xlink" clip-rule="evenodd" stroke-miterlimit="4.00" viewBox="0 0 1024 768"><desc>SVG generated by Keynote</desc><defs></defs><g transform="matrix(1.00, 0.00, -0.00, -1.00, 0.0, 768.0)"><g><clipPath id="clip-205"><path d="M 0.0 768.0 L 1024.0 768.0 L 1024.0 0.0 L 0.0 0.0 Z M 0.0 768.0 "></path></clipPath><g clip-path="url(#clip-205)"><image xlink:href="../../363ACDF5-F69A-4348-A617-267FC1DCB792/assets/2CA05975C404A6B79EB2D17D5C3EEC1C.jpeg" width="1024.00" height="768.00" transform="matrix(1.00, 0.00, -0.00, -1.00, 0.0, 768.0)"></image></g></g><image xlink:href="AB6997EB810180D57CCA94E7985FEEF6.png" width="567.00" height="57.00" transform="matrix(1.00, 0.00, -0.00, -1.00, 228.0, 693.0)"></image><text xml:space="preserve" font-family="HelveticaNeue-Bold" font-weight="bold" font-size="64.0" fill="#FEFFFE" transform="matrix(1.00, 0.00, -0.00, -1.00, 231.0, 644.0)">S</text><text xml:space="preserve" font-family="HelveticaNeue-Bold" font-weight="bold" font-size="64.0" fill="#FEFFFE" transform="matrix(1.00, 0.00, -0.00, -1.00, 272.5, 644.0)">u</text><text xml:space="preserve" font-family="HelveticaNeue-Bold" font-weight="bold" font-size="64.0" fill="#FEFFFE" transform="matrix(1.00, 0.00, -0.00, -1.00, 310.5, 644.0)">c</text><text xml:space="preserve" font-family="HelveticaNeue-Bold" font-weight="bold" font-size="64.0" fill="#FEFFFE" transform="matrix(1.00, 0.00, -0.00, -1.00, 347.2, 644.0)">c</text><text xml:space="preserve" font-family="HelveticaNeue-Bold" font-weight="bold" font-size="64.0" fill="#FEFFFE" transform="matrix(1.00, 0.00, -0.00, -1.00, 384.0, 644.0)">e</text><text xml:space="preserve" font-family="HelveticaNeue-Bold" font-weight="bold" font-size="64.0" fill="#FEFFFE" transform="matrix(1.00, 0.00, -0.00, -1.00, 420.7, 644.0)">s</text><text xml:space="preserve" font-family="HelveticaNeue-Bold" font-weight="bold" font-size="64.0" fill="#FEFFFE" transform="matrix(1.00, 0.00, -0.00, -1.00, 455.1, 644.0)">s</text><text xml:space="preserve" font-family="HelveticaNeue-Bold" font-weight="bold" font-size="64.0" fill="#FEFFFE" transform="matrix(1.00, 0.00, -0.00, -1.00, 489.4, 644.0)">i</text><text xml:space="preserve" font-family="HelveticaNeue-Bold" font-weight="bold" font-size="64.0" fill="#FEFFFE" transform="matrix(1.00, 0.00, -0.00, -1.00, 505.9, 644.0)">v</text><text xml:space="preserve" font-family="HelveticaNeue-Bold" font-weight="bold" font-size="64.0" fill="#FEFFFE" transform="matrix(1.00, 0.00, -0.00, -1.00, 539.2, 644.0)">e</text><text xml:space="preserve" font-family="HelveticaNeue-Bold" font-weight="bold" font-size="64.0" fill="#FEFFFE" transform="matrix(1.00, 0.00, -0.00, -1.00, 576.0, 644.0)"> </text><text xml:space="preserve" font-family="HelveticaNeue-Bold" font-weight="bold" font-size="64.0" fill="#FEFFFE" transform="matrix(1.00, 0.00, -0.00, -1.00, 593.8, 644.0)">V</text><text xml:space="preserve" font-family="HelveticaNeue-Bold" font-weight="bold" font-size="64.0" fill="#FEFFFE" transform="matrix(1.00, 0.00, -0.00, -1.00, 630.6, 644.0)">a</text><text xml:space="preserve" font-family="HelveticaNeue-Bold" font-weight="bold" font-size="64.0" fill="#FEFFFE" transform="matrix(1.00, 0.00, -0.00, -1.00, 667.3, 644.0)">l</text><text xml:space="preserve" font-family="HelveticaNeue-Bold" font-weight="bold" font-size="64.0" fill="#FEFFFE" transform="matrix(1.00, 0.00, -0.00, -1.00, 683.8, 644.0)">u</text><text xml:space="preserve" font-family="HelveticaNeue-Bold" font-weight="bold" font-size="64.0" fill="#FEFFFE" transform="matrix(1.00, 0.00, -0.00, -1.00, 721.8, 644.0)">e</text><text xml:space="preserve" font-family="HelveticaNeue-Bold" font-weight="bold" font-size="64.0" fill="#FEFFFE" transform="matrix(1.00, 0.00, -0.00, -1.00, 758.5, 644.0)">s</text><image xlink:href="1306CB38313FB21E0FA9BC196D4D3F3E.png" width="249.00" height="31.00" transform="matrix(1.00, 0.00, -0.00, -1.00, 62.0, 562.0)"></image><text xml:space="preserve" font-family="AndaleMono" font-size="26.0" fill="#EAEAEA" transform="matrix(1.00, 0.00, -0.00, -1.00, 64.0, 542.0)">d</text><text xml:space="preserve" font-family="AndaleMono" font-size="26.0" fill="#EAEAEA" transform="matrix(1.00, 0.00, -0.00, -1.00, 79.6, 542.0)">e</text><text xml:space="preserve" font-family="AndaleMono" font-size="26.0" fill="#EAEAEA" transform="matrix(1.00, 0.00, -0.00, -1.00, 95.2, 542.0)">f</text><text xml:space="preserve" font-family="AndaleMono" font-size="26.0" fill="#EAEAEA" transform="matrix(1.00, 0.00, -0.00, -1.00, 110.8, 542.0)"> </text><text xml:space="preserve" font-family="AndaleMono" font-size="26.0" fill="#EAEAEA" transform="matrix(1.00, 0.00, -0.00, -1.00, 126.4, 542.0)">s</text><text xml:space="preserve" font-family="AndaleMono" font-size="26.0" fill="#EAEAEA" transform="matrix(1.00, 0.00, -0.00, -1.00, 142.0, 542.0)">y</text><text xml:space="preserve" font-family="AndaleMono" font-size="26.0" fill="#EAEAEA" transform="matrix(1.00, 0.00, -0.00, -1.00, 157.6, 542.0)">r</text><text xml:space="preserve" font-family="AndaleMono" font-size="26.0" fill="#EAEAEA" transform="matrix(1.00, 0.00, -0.00, -1.00, 173.2, 542.0)">_</text><text xml:space="preserve" font-family="AndaleMono" font-size="26.0" fill="#EAEAEA" transform="matrix(1.00, 0.00, -0.00, -1.00, 188.8, 542.0)">l</text><text xml:space="preserve" font-family="AndaleMono" font-size="26.0" fill="#EAEAEA" transform="matrix(1.00, 0.00, -0.00, -1.00, 204.4, 542.0)">i</text><text xml:space="preserve" font-family="AndaleMono" font-size="26.0" fill="#EAEAEA" transform="matrix(1.00, 0.00, -0.00, -1.00, 220.1, 542.0)">s</text><text xml:space="preserve" font-family="AndaleMono" font-size="26.0" fill="#EAEAEA" transform="matrix(1.00, 0.00, -0.00, -1.00, 235.7, 542.0)">t</text><text xml:space="preserve" font-family="AndaleMono" font-size="26.0" fill="#EAEAEA" transform="matrix(1.00, 0.00, -0.00, -1.00, 251.3, 542.0)">(</text><text xml:space="preserve" font-family="AndaleMono" font-size="26.0" fill="#EAEAEA" transform="matrix(1.00, 0.00, -0.00, -1.00, 266.9, 542.0)">n</text><text xml:space="preserve" font-family="AndaleMono" font-size="26.0" fill="#EAEAEA" transform="matrix(1.00, 0.00, -0.00, -1.00, 282.5, 542.0)">)</text><text xml:space="preserve" font-family="AndaleMono" font-size="26.0" fill="#EAEAEA" transform="matrix(1.00, 0.00, -0.00, -1.00, 298.1, 542.0)">:</text><text xml:space="preserve" font-family="AndaleMono" font-size="26.0" fill="#EAEAEA" transform="matrix(1.00, 0.00, -0.00, -1.00, 313.6, 542.0)"> </text><image xlink:href="BC1F15E39C8561BB395CA3D8709C4B2B.png" width="122.00" height="30.00" transform="matrix(1.00, 0.00, -0.00, -1.00, 126.0, 498.0)"></image><text xml:space="preserve" font-family="AndaleMono" font-size="26.0" fill="#EAEAEA" transform="matrix(1.00, 0.00, -0.00, -1.00, 64.0, 479.0)"> </text><text xml:space="preserve" font-family="AndaleMono" font-size="26.0" fill="#EAEAEA" transform="matrix(1.00, 0.00, -0.00, -1.00, 79.6, 479.0)"> </text><text xml:space="preserve" font-family="AndaleMono" font-size="26.0" fill="#EAEAEA" transform="matrix(1.00, 0.00, -0.00, -1.00, 95.2, 479.0)"> </text><text xml:space="preserve" font-family="AndaleMono" font-size="26.0" fill="#EAEAEA" transform="matrix(1.00, 0.00, -0.00, -1.00, 110.8, 479.0)"> </text><text xml:space="preserve" font-family="AndaleMono" font-size="26.0" fill="#EAEAEA" transform="matrix(1.00, 0.00, -0.00, -1.00, 126.4, 479.0)">s</text><text xml:space="preserve" font-family="AndaleMono" font-size="26.0" fill="#EAEAEA" transform="matrix(1.00, 0.00, -0.00, -1.00, 142.0, 479.0)">e</text><text xml:space="preserve" font-family="AndaleMono" font-size="26.0" fill="#EAEAEA" transform="matrix(1.00, 0.00, -0.00, -1.00, 157.6, 479.0)">q</text><text xml:space="preserve" font-family="AndaleMono" font-size="26.0" fill="#EAEAEA" transform="matrix(1.00, 0.00, -0.00, -1.00, 173.2, 479.0)">=</text><text xml:space="preserve" font-family="AndaleMono" font-size="26.0" fill="#EAEAEA" transform="matrix(1.00, 0.00, -0.00, -1.00, 188.8, 479.0)"> </text><text xml:space="preserve" font-family="AndaleMono" font-size="26.0" fill="#EAEAEA" transform="matrix(1.00, 0.00, -0.00, -1.00, 204.4, 479.0)">[</text><text xml:space="preserve" font-family="AndaleMono" font-size="26.0" fill="#EAEAEA" transform="matrix(1.00, 0.00, -0.00, -1.00, 220.1, 479.0)">n</text><text xml:space="preserve" font-family="AndaleMono" font-size="26.0" fill="#EAEAEA" transform="matrix(1.00, 0.00, -0.00, -1.00, 235.7, 479.0)">]</text><text xml:space="preserve" font-family="AndaleMono" font-size="26.0" fill="#EAEAEA" transform="matrix(1.00, 0.00, -0.00, -1.00, 251.2, 479.0)"> </text><image xlink:href="028636EBC6B7ED5900CDEEB8ECB5D2B3.png" width="202.00" height="26.00" transform="matrix(1.00, 0.00, -0.00, -1.00, 124.0, 436.0)"></image><text xml:space="preserve" font-family="AndaleMono" font-size="26.0" fill="#EAEAEA" transform="matrix(1.00, 0.00, -0.00, -1.00, 64.0, 416.0)"> </text><text xml:space="preserve" font-family="AndaleMono" font-size="26.0" fill="#EAEAEA" transform="matrix(1.00, 0.00, -0.00, -1.00, 79.6, 416.0)"> </text><text xml:space="preserve" font-family="AndaleMono" font-size="26.0" fill="#EAEAEA" transform="matrix(1.00, 0.00, -0.00, -1.00, 95.2, 416.0)"> </text><text xml:space="preserve" font-family="AndaleMono" font-size="26.0" fill="#EAEAEA" transform="matrix(1.00, 0.00, -0.00, -1.00, 110.8, 416.0)"> </text><text xml:space="preserve" font-family="AndaleMono" font-size="26.0" fill="#EAEAEA" transform="matrix(1.00, 0.00, -0.00, -1.00, 126.4, 416.0)">w</text><text xml:space="preserve" font-family="AndaleMono" font-size="26.0" fill="#EAEAEA" transform="matrix(1.00, 0.00, -0.00, -1.00, 142.0, 416.0)">h</text><text xml:space="preserve" font-family="AndaleMono" font-size="26.0" fill="#EAEAEA" transform="matrix(1.00, 0.00, -0.00, -1.00, 157.6, 416.0)">i</text><text xml:space="preserve" font-family="AndaleMono" font-size="26.0" fill="#EAEAEA" transform="matrix(1.00, 0.00, -0.00, -1.00, 173.2, 416.0)">l</text><text xml:space="preserve" font-family="AndaleMono" font-size="26.0" fill="#EAEAEA" transform="matrix(1.00, 0.00, -0.00, -1.00, 188.8, 416.0)">e</text><text xml:space="preserve" font-family="AndaleMono" font-size="26.0" fill="#EAEAEA" transform="matrix(1.00, 0.00, -0.00, -1.00, 204.4, 416.0)"> </text><text xml:space="preserve" font-family="AndaleMono" font-size="26.0" fill="#EAEAEA" transform="matrix(1.00, 0.00, -0.00, -1.00, 220.1, 416.0)">n</text><text xml:space="preserve" font-family="AndaleMono" font-size="26.0" fill="#EAEAEA" transform="matrix(1.00, 0.00, -0.00, -1.00, 235.7, 416.0)"> </text><text xml:space="preserve" font-family="AndaleMono" font-size="26.0" fill="#EAEAEA" transform="matrix(1.00, 0.00, -0.00, -1.00, 251.3, 416.0)">!</text><text xml:space="preserve" font-family="AndaleMono" font-size="26.0" fill="#EAEAEA" transform="matrix(1.00, 0.00, -0.00, -1.00, 266.9, 416.0)">=</text><text xml:space="preserve" font-family="AndaleMono" font-size="26.0" fill="#EAEAEA" transform="matrix(1.00, 0.00, -0.00, -1.00, 282.5, 416.0)"> </text><text xml:space="preserve" font-family="AndaleMono" font-size="26.0" fill="#EAEAEA" transform="matrix(1.00, 0.00, -0.00, -1.00, 298.1, 416.0)">1</text><text xml:space="preserve" font-family="AndaleMono" font-size="26.0" fill="#EAEAEA" transform="matrix(1.00, 0.00, -0.00, -1.00, 313.7, 416.0)">:</text><text xml:space="preserve" font-family="AndaleMono" font-size="26.0" fill="#EAEAEA" transform="matrix(1.00, 0.00, -0.00, -1.00, 329.2, 416.0)"> </text><image xlink:href="C12004E224685CB56C57C8AC85680071.png" width="217.00" height="31.00" transform="matrix(1.00, 0.00, -0.00, -1.00, 188.0, 373.0)"></image><text xml:space="preserve" font-family="AndaleMono" font-size="26.0" fill="#EAEAEA" transform="matrix(1.00, 0.00, -0.00, -1.00, 64.0, 353.0)"> </text><text xml:space="preserve" font-family="AndaleMono" font-size="26.0" fill="#EAEAEA" transform="matrix(1.00, 0.00, -0.00, -1.00, 79.6, 353.0)"> </text><text xml:space="preserve" font-family="AndaleMono" font-size="26.0" fill="#EAEAEA" transform="matrix(1.00, 0.00, -0.00, -1.00, 95.2, 353.0)"> </text><text xml:space="preserve" font-family="AndaleMono" font-size="26.0" fill="#EAEAEA" transform="matrix(1.00, 0.00, -0.00, -1.00, 110.8, 353.0)"> </text><text xml:space="preserve" font-family="AndaleMono" font-size="26.0" fill="#EAEAEA" transform="matrix(1.00, 0.00, -0.00, -1.00, 126.4, 353.0)"> </text><text xml:space="preserve" font-family="AndaleMono" font-size="26.0" fill="#EAEAEA" transform="matrix(1.00, 0.00, -0.00, -1.00, 142.0, 353.0)"> </text><text xml:space="preserve" font-family="AndaleMono" font-size="26.0" fill="#EAEAEA" transform="matrix(1.00, 0.00, -0.00, -1.00, 157.6, 353.0)"> </text><text xml:space="preserve" font-family="AndaleMono" font-size="26.0" fill="#EAEAEA" transform="matrix(1.00, 0.00, -0.00, -1.00, 173.2, 353.0)"> </text><text xml:space="preserve" font-family="AndaleMono" font-size="26.0" fill="#EAEAEA" transform="matrix(1.00, 0.00, -0.00, -1.00, 188.8, 353.0)">n</text><text xml:space="preserve" font-family="AndaleMono" font-size="26.0" fill="#EAEAEA" transform="matrix(1.00, 0.00, -0.00, -1.00, 204.4, 353.0)">=</text><text xml:space="preserve" font-family="AndaleMono" font-size="26.0" fill="#EAEAEA" transform="matrix(1.00, 0.00, -0.00, -1.00, 220.1, 353.0)"> </text><text xml:space="preserve" font-family="AndaleMono" font-size="26.0" fill="#EAEAEA" transform="matrix(1.00, 0.00, -0.00, -1.00, 235.7, 353.0)">s</text><text xml:space="preserve" font-family="AndaleMono" font-size="26.0" fill="#EAEAEA" transform="matrix(1.00, 0.00, -0.00, -1.00, 251.3, 353.0)">y</text><text xml:space="preserve" font-family="AndaleMono" font-size="26.0" fill="#EAEAEA" transform="matrix(1.00, 0.00, -0.00, -1.00, 266.9, 353.0)">r</text><text xml:space="preserve" font-family="AndaleMono" font-size="26.0" fill="#EAEAEA" transform="matrix(1.00, 0.00, -0.00, -1.00, 282.5, 353.0)">a</text><text xml:space="preserve" font-family="AndaleMono" font-size="26.0" fill="#EAEAEA" transform="matrix(1.00, 0.00, -0.00, -1.00, 298.1, 353.0)">c</text><text xml:space="preserve" font-family="AndaleMono" font-size="26.0" fill="#EAEAEA" transform="matrix(1.00, 0.00, -0.00, -1.00, 313.7, 353.0)">u</text><text xml:space="preserve" font-family="AndaleMono" font-size="26.0" fill="#EAEAEA" transform="matrix(1.00, 0.00, -0.00, -1.00, 329.3, 353.0)">s</text><text xml:space="preserve" font-family="AndaleMono" font-size="26.0" fill="#EAEAEA" transform="matrix(1.00, 0.00, -0.00, -1.00, 344.9, 353.0)">e</text><text xml:space="preserve" font-family="AndaleMono" font-size="26.0" fill="#EAEAEA" transform="matrix(1.00, 0.00, -0.00, -1.00, 360.5, 353.0)">(</text><text xml:space="preserve" font-family="AndaleMono" font-size="26.0" fill="#EAEAEA" transform="matrix(1.00, 0.00, -0.00, -1.00, 376.1, 353.0)">n</text><text xml:space="preserve" font-family="AndaleMono" font-size="26.0" fill="#EAEAEA" transform="matrix(1.00, 0.00, -0.00, -1.00, 391.7, 353.0)">)</text><text xml:space="preserve" font-family="AndaleMono" font-size="26.0" fill="#EAEAEA" transform="matrix(1.00, 0.00, -0.00, -1.00, 407.3, 353.0)"> </text><image xlink:href="7FD55A9274D2DA501B22BA2B2C5F2111.png" width="202.00" height="31.00" transform="matrix(1.00, 0.00, -0.00, -1.00, 188.0, 310.0)"></image><text xml:space="preserve" font-family="AndaleMono" font-size="26.0" fill="#EAEAEA" transform="matrix(1.00, 0.00, -0.00, -1.00, 64.0, 290.0)"> </text><text xml:space="preserve" font-family="AndaleMono" font-size="26.0" fill="#EAEAEA" transform="matrix(1.00, 0.00, -0.00, -1.00, 79.6, 290.0)"> </text><text xml:space="preserve" font-family="AndaleMono" font-size="26.0" fill="#EAEAEA" transform="matrix(1.00, 0.00, -0.00, -1.00, 95.2, 290.0)"> </text><text xml:space="preserve" font-family="AndaleMono" font-size="26.0" fill="#EAEAEA" transform="matrix(1.00, 0.00, -0.00, -1.00, 110.8, 290.0)"> </text><text xml:space="preserve" font-family="AndaleMono" font-size="26.0" fill="#EAEAEA" transform="matrix(1.00, 0.00, -0.00, -1.00, 126.4, 290.0)"> </text><text xml:space="preserve" font-family="AndaleMono" font-size="26.0" fill="#EAEAEA" transform="matrix(1.00, 0.00, -0.00, -1.00, 142.0, 290.0)"> </text><text xml:space="preserve" font-family="AndaleMono" font-size="26.0" fill="#EAEAEA" transform="matrix(1.00, 0.00, -0.00, -1.00, 157.6, 290.0)"> </text><text xml:space="preserve" font-family="AndaleMono" font-size="26.0" fill="#EAEAEA" transform="matrix(1.00, 0.00, -0.00, -1.00, 173.2, 290.0)"> </text><text xml:space="preserve" font-family="AndaleMono" font-size="26.0" fill="#EAEAEA" transform="matrix(1.00, 0.00, -0.00, -1.00, 188.8, 290.0)">s</text><text xml:space="preserve" font-family="AndaleMono" font-size="26.0" fill="#EAEAEA" transform="matrix(1.00, 0.00, -0.00, -1.00, 204.4, 290.0)">e</text><text xml:space="preserve" font-family="AndaleMono" font-size="26.0" fill="#EAEAEA" transform="matrix(1.00, 0.00, -0.00, -1.00, 220.1, 290.0)">q</text><text xml:space="preserve" font-family="AndaleMono" font-size="26.0" fill="#EAEAEA" transform="matrix(1.00, 0.00, -0.00, -1.00, 235.7, 290.0)">.</text><text xml:space="preserve" font-family="AndaleMono" font-size="26.0" fill="#EAEAEA" transform="matrix(1.00, 0.00, -0.00, -1.00, 251.3, 290.0)">a</text><text xml:space="preserve" font-family="AndaleMono" font-size="26.0" fill="#EAEAEA" transform="matrix(1.00, 0.00, -0.00, -1.00, 266.9, 290.0)">p</text><text xml:space="preserve" font-family="AndaleMono" font-size="26.0" fill="#EAEAEA" transform="matrix(1.00, 0.00, -0.00, -1.00, 282.5, 290.0)">p</text><text xml:space="preserve" font-family="AndaleMono" font-size="26.0" fill="#EAEAEA" transform="matrix(1.00, 0.00, -0.00, -1.00, 298.1, 290.0)">e</text><text xml:space="preserve" font-family="AndaleMono" font-size="26.0" fill="#EAEAEA" transform="matrix(1.00, 0.00, -0.00, -1.00, 313.7, 290.0)">n</text><text xml:space="preserve" font-family="AndaleMono" font-size="26.0" fill="#EAEAEA" transform="matrix(1.00, 0.00, -0.00, -1.00, 329.3, 290.0)">d</text><text xml:space="preserve" font-family="AndaleMono" font-size="26.0" fill="#EAEAEA" transform="matrix(1.00, 0.00, -0.00, -1.00, 344.9, 290.0)">(</text><text xml:space="preserve" font-family="AndaleMono" font-size="26.0" fill="#EAEAEA" transform="matrix(1.00, 0.00, -0.00, -1.00, 360.5, 290.0)">n</text><text xml:space="preserve" font-family="AndaleMono" font-size="26.0" fill="#EAEAEA" transform="matrix(1.00, 0.00, -0.00, -1.00, 376.1, 290.0)">)</text><text xml:space="preserve" font-family="AndaleMono" font-size="26.0" fill="#EAEAEA" transform="matrix(1.00, 0.00, -0.00, -1.00, 391.7, 290.0)"> </text><image xlink:href="59785067A7145329A83004E9F794EEF1.png" width="156.00" height="29.00" transform="matrix(1.00, 0.00, -0.00, -1.00, 127.0, 245.0)"></image><text xml:space="preserve" font-family="AndaleMono" font-size="26.0" fill="#EAEAEA" transform="matrix(1.00, 0.00, -0.00, -1.00, 64.0, 227.0)"> </text><text xml:space="preserve" font-family="AndaleMono" font-size="26.0" fill="#EAEAEA" transform="matrix(1.00, 0.00, -0.00, -1.00, 79.6, 227.0)"> </text><text xml:space="preserve" font-family="AndaleMono" font-size="26.0" fill="#EAEAEA" transform="matrix(1.00, 0.00, -0.00, -1.00, 95.2, 227.0)"> </text><text xml:space="preserve" font-family="AndaleMono" font-size="26.0" fill="#EAEAEA" transform="matrix(1.00, 0.00, -0.00, -1.00, 110.8, 227.0)"> </text><text xml:space="preserve" font-family="AndaleMono" font-size="26.0" fill="#EAEAEA" transform="matrix(1.00, 0.00, -0.00, -1.00, 126.4, 227.0)">r</text><text xml:space="preserve" font-family="AndaleMono" font-size="26.0" fill="#EAEAEA" transform="matrix(1.00, 0.00, -0.00, -1.00, 142.0, 227.0)">e</text><text xml:space="preserve" font-family="AndaleMono" font-size="26.0" fill="#EAEAEA" transform="matrix(1.00, 0.00, -0.00, -1.00, 157.6, 227.0)">t</text><text xml:space="preserve" font-family="AndaleMono" font-size="26.0" fill="#EAEAEA" transform="matrix(1.00, 0.00, -0.00, -1.00, 173.2, 227.0)">u</text><text xml:space="preserve" font-family="AndaleMono" font-size="26.0" fill="#EAEAEA" transform="matrix(1.00, 0.00, -0.00, -1.00, 188.8, 227.0)">r</text><text xml:space="preserve" font-family="AndaleMono" font-size="26.0" fill="#EAEAEA" transform="matrix(1.00, 0.00, -0.00, -1.00, 204.4, 227.0)">n</text><text xml:space="preserve" font-family="AndaleMono" font-size="26.0" fill="#EAEAEA" transform="matrix(1.00, 0.00, -0.00, -1.00, 220.1, 227.0)"> </text><text xml:space="preserve" font-family="AndaleMono" font-size="26.0" fill="#EAEAEA" transform="matrix(1.00, 0.00, -0.00, -1.00, 235.7, 227.0)">s</text><text xml:space="preserve" font-family="AndaleMono" font-size="26.0" fill="#EAEAEA" transform="matrix(1.00, 0.00, -0.00, -1.00, 251.3, 227.0)">e</text><text xml:space="preserve" font-family="AndaleMono" font-size="26.0" fill="#EAEAEA" transform="matrix(1.00, 0.00, -0.00, -1.00, 266.9, 227.0)">q</text><text xml:space="preserve" font-family="AndaleMono" font-size="26.0" fill="#EAEAEA" transform="matrix(1.00, 0.00, -0.00, -1.00, 282.4, 227.0)"> </text><image xlink:href="../../21B8C2D9-8BE9-45BD-B1A0-21E6D15CBE05/assets/50E281BFEB5800DEE6FD605D4100C791.png" width="14.00" height="14.00" transform="matrix(1.00, 0.00, -0.00, -1.00, 62.0, 176.0)"></image><text xml:space="preserve" font-family="HelveticaNeue-Medium" font-size="20.2" fill="#EAEAEA" transform="matrix(1.00, 0.00, -0.00, -1.00, 64.0, 164.1)">•</text><image xlink:href="E85791354703070164494F81A4431445.png" width="157.00" height="32.00" transform="matrix(1.00, 0.00, -0.00, -1.00, 88.0, 183.0)"></image><text xml:space="preserve" font-family="HelveticaNeue-Medium" font-size="27.0" fill="#EAEAEA" transform="matrix(1.00, 0.00, -0.00, -1.00, 90.0, 162.0)">N</text><text xml:space="preserve" font-family="HelveticaNeue-Medium" font-size="27.0" fill="#EAEAEA" transform="matrix(1.00, 0.00, -0.00, -1.00, 109.5, 162.0)">o</text><text xml:space="preserve" font-family="HelveticaNeue-Medium" font-size="27.0" fill="#EAEAEA" transform="matrix(1.00, 0.00, -0.00, -1.00, 125.5, 162.0)">t</text><text xml:space="preserve" font-family="HelveticaNeue-Medium" font-size="27.0" fill="#EAEAEA" transform="matrix(1.00, 0.00, -0.00, -1.00, 134.5, 162.0)"> </text><text xml:space="preserve" font-family="HelveticaNeue-Medium" font-size="27.0" fill="#EAEAEA" transform="matrix(1.00, 0.00, -0.00, -1.00, 142.0, 162.0)">“</text><text xml:space="preserve" font-family="HelveticaNeue-Medium" font-size="27.0" fill="#EAEAEA" transform="matrix(1.00, 0.00, -0.00, -1.00, 154.0, 162.0)">w</text><text xml:space="preserve" font-family="HelveticaNeue-Medium" font-size="27.0" fill="#EAEAEA" transform="matrix(1.00, 0.00, -0.00, -1.00, 175.0, 162.0)">r</text><text xml:space="preserve" font-family="HelveticaNeue-Medium" font-size="27.0" fill="#EAEAEA" transform="matrix(1.00, 0.00, -0.00, -1.00, 184.0, 162.0)">o</text><text xml:space="preserve" font-family="HelveticaNeue-Medium" font-size="27.0" fill="#EAEAEA" transform="matrix(1.00, 0.00, -0.00, -1.00, 200.0, 162.0)">n</text><text xml:space="preserve" font-family="HelveticaNeue-Medium" font-size="27.0" fill="#EAEAEA" transform="matrix(1.00, 0.00, -0.00, -1.00, 215.5, 162.0)">g</text><text xml:space="preserve" font-family="HelveticaNeue-Medium" font-size="27.0" fill="#EAEAEA" transform="matrix(1.00, 0.00, -0.00, -1.00, 231.5, 162.0)">”</text><text xml:space="preserve" font-family="HelveticaNeue-Medium" font-size="27.0" fill="#EAEAEA" transform="matrix(1.00, 0.00, -0.00, -1.00, 243.5, 162.0)"> </text><image xlink:href="../../21B8C2D9-8BE9-45BD-B1A0-21E6D15CBE05/assets/50E281BFEB5800DEE6FD605D4100C791.png" width="14.00" height="14.00" transform="matrix(1.00, 0.00, -0.00, -1.00, 62.0, 110.0)"></image><text xml:space="preserve" font-family="HelveticaNeue-Medium" font-size="20.2" fill="#EAEAEA" transform="matrix(1.00, 0.00, -0.00, -1.00, 64.0, 98.1)">•</text><image xlink:href="C092BAB4935FCECE2D95946B958B3A32.png" width="482.00" height="32.00" transform="matrix(1.00, 0.00, -0.00, -1.00, 89.0, 117.0)"></image><text xml:space="preserve" font-family="HelveticaNeue-Medium" font-size="27.0" fill="#EAEAEA" transform="matrix(1.00, 0.00, -0.00, -1.00, 90.0, 96.0)">L</text><text xml:space="preserve" font-family="HelveticaNeue-Medium" font-size="27.0" fill="#EAEAEA" transform="matrix(1.00, 0.00, -0.00, -1.00, 105.5, 96.0)">i</text><text xml:space="preserve" font-family="HelveticaNeue-Medium" font-size="27.0" fill="#EAEAEA" transform="matrix(1.00, 0.00, -0.00, -1.00, 112.0, 96.0)">m</text><text xml:space="preserve" font-family="HelveticaNeue-Medium" font-size="27.0" fill="#EAEAEA" transform="matrix(1.00, 0.00, -0.00, -1.00, 135.5, 96.0)">i</text><text xml:space="preserve" font-family="HelveticaNeue-Medium" font-size="27.0" fill="#EAEAEA" transform="matrix(1.00, 0.00, -0.00, -1.00, 142.0, 96.0)">t</text><text xml:space="preserve" font-family="HelveticaNeue-Medium" font-size="27.0" fill="#EAEAEA" transform="matrix(1.00, 0.00, -0.00, -1.00, 151.0, 96.0)">e</text><text xml:space="preserve" font-family="HelveticaNeue-Medium" font-size="27.0" fill="#EAEAEA" transform="matrix(1.00, 0.00, -0.00, -1.00, 166.0, 96.0)">d</text><text xml:space="preserve" font-family="HelveticaNeue-Medium" font-size="27.0" fill="#EAEAEA" transform="matrix(1.00, 0.00, -0.00, -1.00, 182.5, 96.0)"> </text><text xml:space="preserve" font-family="HelveticaNeue-Medium" font-size="27.0" fill="#EAEAEA" transform="matrix(1.00, 0.00, -0.00, -1.00, 190.0, 96.0)">t</text><text xml:space="preserve" font-family="HelveticaNeue-Medium" font-size="27.0" fill="#EAEAEA" transform="matrix(1.00, 0.00, -0.00, -1.00, 199.0, 96.0)">o</text><text xml:space="preserve" font-family="HelveticaNeue-Medium" font-size="27.0" fill="#EAEAEA" transform="matrix(1.00, 0.00, -0.00, -1.00, 215.0, 96.0)"> </text><text xml:space="preserve" font-family="HelveticaNeue-Medium" font-size="27.0" fill="#EAEAEA" transform="matrix(1.00, 0.00, -0.00, -1.00, 222.5, 96.0)">a</text><text xml:space="preserve" font-family="HelveticaNeue-Medium" font-size="27.0" fill="#EAEAEA" transform="matrix(1.00, 0.00, -0.00, -1.00, 237.5, 96.0)">l</text><text xml:space="preserve" font-family="HelveticaNeue-Medium" font-size="27.0" fill="#EAEAEA" transform="matrix(1.00, 0.00, -0.00, -1.00, 244.0, 96.0)">w</text><text xml:space="preserve" font-family="HelveticaNeue-Medium" font-size="27.0" fill="#EAEAEA" transform="matrix(1.00, 0.00, -0.00, -1.00, 265.0, 96.0)">a</text><text xml:space="preserve" font-family="HelveticaNeue-Medium" font-size="27.0" fill="#EAEAEA" transform="matrix(1.00, 0.00, -0.00, -1.00, 280.1, 96.0)">y</text><text xml:space="preserve" font-family="HelveticaNeue-Medium" font-size="27.0" fill="#EAEAEA" transform="matrix(1.00, 0.00, -0.00, -1.00, 294.1, 96.0)">s</text><text xml:space="preserve" font-family="HelveticaNeue-Medium" font-size="27.0" fill="#EAEAEA" transform="matrix(1.00, 0.00, -0.00, -1.00, 308.1, 96.0)"> </text><text xml:space="preserve" font-family="HelveticaNeue-Medium" font-size="27.0" fill="#EAEAEA" transform="matrix(1.00, 0.00, -0.00, -1.00, 315.6, 96.0)">c</text><text xml:space="preserve" font-family="HelveticaNeue-Medium" font-size="27.0" fill="#EAEAEA" transform="matrix(1.00, 0.00, -0.00, -1.00, 330.6, 96.0)">r</text><text xml:space="preserve" font-family="HelveticaNeue-Medium" font-size="27.0" fill="#EAEAEA" transform="matrix(1.00, 0.00, -0.00, -1.00, 339.6, 96.0)">e</text><text xml:space="preserve" font-family="HelveticaNeue-Medium" font-size="27.0" fill="#EAEAEA" transform="matrix(1.00, 0.00, -0.00, -1.00, 354.6, 96.0)">a</text><text xml:space="preserve" font-family="HelveticaNeue-Medium" font-size="27.0" fill="#EAEAEA" transform="matrix(1.00, 0.00, -0.00, -1.00, 369.6, 96.0)">t</text><text xml:space="preserve" font-family="HelveticaNeue-Medium" font-size="27.0" fill="#EAEAEA" transform="matrix(1.00, 0.00, -0.00, -1.00, 378.6, 96.0)">i</text><text xml:space="preserve" font-family="HelveticaNeue-Medium" font-size="27.0" fill="#EAEAEA" transform="matrix(1.00, 0.00, -0.00, -1.00, 385.1, 96.0)">n</text><text xml:space="preserve" font-family="HelveticaNeue-Medium" font-size="27.0" fill="#EAEAEA" transform="matrix(1.00, 0.00, -0.00, -1.00, 400.6, 96.0)">g</text><text xml:space="preserve" font-family="HelveticaNeue-Medium" font-size="27.0" fill="#EAEAEA" transform="matrix(1.00, 0.00, -0.00, -1.00, 416.6, 96.0)"> </text><text xml:space="preserve" font-family="HelveticaNeue-Medium" font-size="27.0" fill="#EAEAEA" transform="matrix(1.00, 0.00, -0.00, -1.00, 424.2, 96.0)">a</text><text xml:space="preserve" font-family="HelveticaNeue-Medium" font-size="27.0" fill="#EAEAEA" transform="matrix(1.00, 0.00, -0.00, -1.00, 439.2, 96.0)"> </text><text xml:space="preserve" font-family="HelveticaNeue-Medium" font-size="27.0" fill="#EAEAEA" transform="matrix(1.00, 0.00, -0.00, -1.00, 446.7, 96.0)">s</text><text xml:space="preserve" font-family="HelveticaNeue-Medium" font-size="27.0" fill="#EAEAEA" transform="matrix(1.00, 0.00, -0.00, -1.00, 460.7, 96.0)">e</text><text xml:space="preserve" font-family="HelveticaNeue-Medium" font-size="27.0" fill="#EAEAEA" transform="matrix(1.00, 0.00, -0.00, -1.00, 475.7, 96.0)">q</text><text xml:space="preserve" font-family="HelveticaNeue-Medium" font-size="27.0" fill="#EAEAEA" transform="matrix(1.00, 0.00, -0.00, -1.00, 492.2, 96.0)">u</text><text xml:space="preserve" font-family="HelveticaNeue-Medium" font-size="27.0" fill="#EAEAEA" transform="matrix(1.00, 0.00, -0.00, -1.00, 507.7, 96.0)">e</text><text xml:space="preserve" font-family="HelveticaNeue-Medium" font-size="27.0" fill="#EAEAEA" transform="matrix(1.00, 0.00, -0.00, -1.00, 522.7, 96.0)">n</text><text xml:space="preserve" font-family="HelveticaNeue-Medium" font-size="27.0" fill="#EAEAEA" transform="matrix(1.00, 0.00, -0.00, -1.00, 538.2, 96.0)">c</text><text xml:space="preserve" font-family="HelveticaNeue-Medium" font-size="27.0" fill="#EAEAEA" transform="matrix(1.00, 0.00, -0.00, -1.00, 553.2, 96.0)">e</text></g></svg>